<svg xmlns="http://www.w3.org/2000/svg" preserveAspectRatio="xMinYMid" viewbox="0 0 64 64"><defs><style>.cls-1{fill:#0065ab;}</style></defs><title>estilos iconos paraeducaand_escolares</title><g id="elements"><path class="cls-1" d="M32,63.9A31.9,31.9,0,1,1,63.9,32,31.94,31.94,0,0,1,32,63.9ZM32,3.05A29,29,0,1,0,61,32,29,29,0,0,0,32,3.05Z"/><path class="cls-1" d="M30.1,21l-4-2.91a3.35,3.35,0,0,0-2.59-.6,3.65,3.65,0,0,0-2.28,1.43l-11,15a.54.54,0,0,0-.11.18.85.85,0,0,0-.29.56L9,44.42a.91.91,0,0,0,.36.79.87.87,0,0,0,.52.16,1,1,0,0,0,.34-.06l9-3.83a.86.86,0,0,0,.45-.45.67.67,0,0,0,.14-.15l11-15a3.63,3.63,0,0,0,.67-2.6A3.34,3.34,0,0,0,30.1,21ZM12.25,34.15,22.66,19.94a1.84,1.84,0,0,1,1.17-.74,1.64,1.64,0,0,1,1.26.28l4,2.91a1.62,1.62,0,0,1,.65,1.11,1.89,1.89,0,0,1-.36,1.35L19,39.06Zm-.73,1.64,6.1,4.46-2.86,1.21-3.5-2.56,0,0Zm1.36,6.47-2.05.86L11,40.91ZM10,45Z"/><path class="cls-1" d="M26.1,24.58,18.37,35.13a.88.88,0,0,0,.19,1.23.87.87,0,0,0,.51.17.89.89,0,0,0,.71-.36l7.73-10.56a.88.88,0,0,0-.19-1.22A.87.87,0,0,0,26.1,24.58Z"/><path class="cls-1" d="M27.3,44.74H11.75a.92.92,0,1,0,0,1.84H27.3a.92.92,0,1,0,0-1.84Z"/><path class="cls-1" d="M57,23.28A3.34,3.34,0,0,0,55.67,21l-4-2.91a3.38,3.38,0,0,0-2.6-.6,3.6,3.6,0,0,0-2.27,1.43l-11,15a1.14,1.14,0,0,0-.1.19.81.81,0,0,0-.29.56l-.92,9.77a.89.89,0,0,0,.36.79.86.86,0,0,0,.51.16,1,1,0,0,0,.34-.06l9-3.83a.9.9,0,0,0,.45-.45,1,1,0,0,0,.14-.15l11-15A3.59,3.59,0,0,0,57,23.28ZM37.82,34.15,48.23,19.94a1.81,1.81,0,0,1,1.17-.74,1.64,1.64,0,0,1,1.26.28l4,2.91a1.65,1.65,0,0,1,.64,1.11,1.84,1.84,0,0,1-.35,1.35L44.52,39.06Zm-.73,1.64,6.09,4.46-2.86,1.21-3.5-2.56,0,0Zm3,6Zm-1.68.48-2,.86.21-2.21ZM35.59,45Z"/><path class="cls-1" d="M51.66,24.58,43.93,35.13a.94.94,0,0,0-.16.65.88.88,0,0,0,.87.75.9.9,0,0,0,.71-.36l7.72-10.56a.87.87,0,0,0-1.41-1Z"/><path class="cls-1" d="M52.86,44.74H37.32a.92.92,0,0,0,0,1.84H52.86a.92.92,0,0,0,0-1.84Z"/></g></svg>