<svg xmlns="http://www.w3.org/2000/svg" preserveAspectRatio="xMinYMid" viewbox="0 0 64 64"><defs><style>.cls-1,.cls-2{fill:#0065ab;}.cls-2{stroke:#0065ab;stroke-miterlimit:10;stroke-width:0.5px;}</style></defs><title>estilos iconos paraeducaand_escolares</title><g id="elements"><path class="cls-1" d="M32,63.9A31.9,31.9,0,1,1,63.9,32,31.94,31.94,0,0,1,32,63.9ZM32,3.05A29,29,0,1,0,61,32,29,29,0,0,0,32,3.05Z"/><path class="cls-2" d="M46.11,21.43l.19.42.45-.12.47-.1.7-.13-.29-.64a17.49,17.49,0,0,0-8.14-8.47L38.74,12l-.05.83c0,.17,0,.33,0,.5l-.06.39.35.18A15.9,15.9,0,0,1,46.11,21.43Z"/><path class="cls-2" d="M25.78,44.35l.1-.69c0-.17.05-.33.08-.48l.11-.45-.43-.18a15.88,15.88,0,0,1-3.81-2.29l-.15-.12H19.21l1.11,1a17.59,17.59,0,0,0,4.81,3Z"/><path class="cls-2" d="M16.73,21.73l.45.12.19-.42a15.86,15.86,0,0,1,8.13-8l.36-.16,0-.39c0-.17,0-.34,0-.51v-.83L25,11.9a17.45,17.45,0,0,0-9.19,9l-.29.64.7.13Z"/><path class="cls-2" d="M36.87,49.5l-.46,0h-3.1a5.49,5.49,0,1,0-3.66,0H26.94a3.8,3.8,0,0,0-3.79,3.8v4h1.62v-4a2.18,2.18,0,0,1,2.17-2.18h9.6a2.19,2.19,0,0,1,2.18,2.18v4h1.61v-4A3.77,3.77,0,0,0,36.87,49.5Zm-1.53-5.18a3.86,3.86,0,1,1-3.86-3.86A3.87,3.87,0,0,1,35.34,44.32Z"/><path class="cls-2" d="M22.63,36.67v4h1.62v-4a3.8,3.8,0,0,0-3.8-3.79H17.23a5.48,5.48,0,1,0-3.67,0H10.85a3.79,3.79,0,0,0-3.79,3.79v4H8.68v-4a2.17,2.17,0,0,1,2.17-2.17h9.6A2.18,2.18,0,0,1,22.63,36.67Zm-3.37-9a3.87,3.87,0,1,1-3.87-3.86A3.87,3.87,0,0,1,19.26,27.72Z"/><path class="cls-2" d="M30.17,17.31H27.46a3.79,3.79,0,0,0-3.79,3.79v4h1.62v-4a2.17,2.17,0,0,1,2.17-2.17h9.6a2.17,2.17,0,0,1,2.17,2.17v4h1.62v-4a3.79,3.79,0,0,0-3.79-3.79H33.83a5.48,5.48,0,1,0-3.66,0Zm-2-5.16A3.86,3.86,0,1,1,32,16,3.86,3.86,0,0,1,28.14,12.15Z"/><path class="cls-2" d="M53.15,32.88H49.92a5.48,5.48,0,1,0-3.66,0H43.55a3.8,3.8,0,0,0-3.8,3.79v4H41a16.35,16.35,0,0,1-2.28,1.42l-.41.2.12.44c0,.16.09.31.13.47l.14.7.64-.31a18,18,0,0,0,3.81-2.53l1.1-1H41.8l-.15.12c-.09.08-.19.14-.28.21v-3.8a2.18,2.18,0,0,1,2.18-2.17h9.6a2.17,2.17,0,0,1,2.17,2.17v4h1.62v-4A3.79,3.79,0,0,0,53.15,32.88ZM52,27.72a3.86,3.86,0,1,1-3.86-3.86A3.86,3.86,0,0,1,52,27.72Z"/></g></svg>