<svg xmlns="http://www.w3.org/2000/svg" preserveAspectRatio="xMinYMid" viewbox="0 0 64 64"><defs><style>.cls-1{fill:#0065ab;}</style></defs><title>estilos iconos paraeducaand_escolares</title><g id="elements"><path class="cls-1" d="M47.38,20a4.55,4.55,0,0,0-1.82-3.09l-5.48-4a4.52,4.52,0,0,0-3.5-.79A4.86,4.86,0,0,0,33.5,14L18.37,34.69a1,1,0,0,0-.14.25,1.07,1.07,0,0,0-.38.72L16.58,49.12a1.13,1.13,0,0,0,.45,1,1.11,1.11,0,0,0,.65.22,1,1,0,0,0,.43-.09L30.56,45a1.05,1.05,0,0,0,.58-.59,1.23,1.23,0,0,0,.19-.2L46.47,23.51A4.88,4.88,0,0,0,47.38,20ZM28.62,43.39l-4.16,1.76h0l-4.85-3.55-.08-.05.43-4.5ZM44.68,22.2,30.28,41.87,20.88,35,35.29,15.32A2.67,2.67,0,0,1,37,14.26a2.31,2.31,0,0,1,1.81.41l5.49,4a2.38,2.38,0,0,1,.93,1.6A2.61,2.61,0,0,1,44.68,22.2Zm-22.59,24L19,47.48l.32-3.39Z"/><path class="cls-1" d="M40.18,21.83,29.53,36.38a1.11,1.11,0,0,0,.89,1.76,1.12,1.12,0,0,0,.9-.46L42,23.14a1.11,1.11,0,1,0-1.78-1.31Z"/><path class="cls-1" d="M41.76,49.66H20.34a1.17,1.17,0,1,0,0,2.33H41.76a1.17,1.17,0,0,0,0-2.33Z"/><path class="cls-1" d="M32,63.9A31.9,31.9,0,1,1,63.9,32,31.94,31.94,0,0,1,32,63.9ZM32,3.05A29,29,0,1,0,61,32,29,29,0,0,0,32,3.05Z"/></g></svg>