<svg xmlns="http://www.w3.org/2000/svg" preserveAspectRatio="xMinYMid" viewbox="0 0 64 64"><defs><style>.cls-1{fill:#0065ab;}</style></defs><title>estilos iconos paraeducaand_escolares</title><g id="elements"><path class="cls-1" d="M32,40.7A7.73,7.73,0,0,0,39.73,33V18.43a7.73,7.73,0,1,0-15.46,0V33A7.73,7.73,0,0,0,32,40.7Zm-5.32-9.76h2.84a1.21,1.21,0,0,0,0-2.42H26.68V26.57h2.84a1.21,1.21,0,0,0,0-2.41H26.68V22.21h2.84a1.21,1.21,0,0,0,0-2.41H26.68V18.43a5.32,5.32,0,1,1,10.64,0V19.8H34.38a1.21,1.21,0,0,0,0,2.41h2.94v1.95H34.38a1.21,1.21,0,0,0,0,2.41h2.94v1.95H34.38a1.21,1.21,0,0,0,0,2.42h2.94v2a5.32,5.32,0,0,1-10.64,0Z"/><path class="cls-1" d="M43.79,32.83a1.21,1.21,0,0,0-2.41,0,9.38,9.38,0,0,1-18.76,0,1.21,1.21,0,0,0-2.41,0A11.86,11.86,0,0,0,30.79,44.55v6.34H26.37a1.21,1.21,0,0,0,0,2.41H37.63a1.21,1.21,0,0,0,0-2.41H33.21V44.55A11.86,11.86,0,0,0,43.79,32.83Z"/><path class="cls-1" d="M32,63.9A31.9,31.9,0,1,1,63.9,32,31.94,31.94,0,0,1,32,63.9ZM32,3.05A29,29,0,1,0,61,32,29,29,0,0,0,32,3.05Z"/></g></svg>