<svg id="back" xmlns="http://www.w3.org/2000/svg" preserveAspectRatio="xMinYMid" viewbox="0 0 64 64"><defs><style>.cls-1,.cls-2{fill:#a25ac4;}.cls-1{stroke:#a25ac4;stroke-miterlimit:10;stroke-width:0.5px;}</style></defs><title>estilos iconos paraeducaand_escolares</title><path class="cls-1" d="M17.16,34.65h2c1,0,1.75-1,1.75-2.35V23.39a3.91,3.91,0,0,0,0-.49v-.49c0-4.89,5-8.87,11.08-8.87s11.08,4,11.08,8.87V23a3.15,3.15,0,0,0,0,.44V32.3c0,1.34.75,2.35,1.75,2.35h2c1,0,1.76-1,1.76-2.35V23.39c0-1.34-.76-2.35-1.76-2.35h-2c-.82-5.29-6.27-9.4-12.86-9.4S20,15.75,19.14,21h-2c-1,0-1.76,1-1.76,2.35V32.3C15.4,33.64,16.16,34.65,17.16,34.65ZM45,23.75h0V23.1a1.23,1.23,0,0,1,0-.16h1.6a1.13,1.13,0,0,1,.08.45V32.3a1.13,1.13,0,0,1-.08.45H45A1.4,1.4,0,0,1,45,32.3ZM17.3,23.39a1.13,1.13,0,0,1,.08-.45H19a1.27,1.27,0,0,1,0,.14v.67h0V32.3a1.34,1.34,0,0,1-.08.45h-1.6a1.13,1.13,0,0,1-.08-.45Z"/><path class="cls-1" d="M47.8,43.23a5.51,5.51,0,0,0-.77-.68h0a12,12,0,0,0-4.48-1.65c-2.17-.48-4.22-.93-5.72-2.93h0l-.06,0c-.13-.29-.11-1.29,1.32-3,3.18-3.88,2.46-10,2.16-11.77A8.29,8.29,0,0,0,32,16.49a8.29,8.29,0,0,0-8.29,6.64c-.3,1.78-1,7.89,2.16,11.77,1.48,1.8,1.45,2.81,1.31,3.06h0c-1.5,2-3.55,2.45-5.72,2.93A11.92,11.92,0,0,0,17,42.55c-3.36,2.39-2.63,7.53-2.59,7.75l.1.7h35l.1-.7C49.64,50.11,50.26,45.8,47.8,43.23ZM48,49.34H16c-.06-1.3.06-4.08,2-5.43a10.53,10.53,0,0,1,3.87-1.38c2.26-.5,4.81-1.07,6.68-3.55.26-.32,1.26-2-1.33-5.13C24.42,30.5,25.08,25,25.35,23.4A6.63,6.63,0,0,1,32,18.15a6.63,6.63,0,0,1,6.65,5.25c.27,1.61.93,7.1-1.81,10.45C34.25,37,35.25,38.66,35.51,39c1.87,2.48,4.42,3.05,6.68,3.55a10.53,10.53,0,0,1,3.87,1.38,3.44,3.44,0,0,1,.54.47C48,45.82,48.08,48.17,48,49.34Z"/><path class="cls-2" d="M61.12,2.93A9.74,9.74,0,0,0,54.2.07H9.8A9.78,9.78,0,0,0,0,9.83V54.17A9.76,9.76,0,0,0,9.8,63.93H54.2A9.78,9.78,0,0,0,64,54.17V9.83A9.66,9.66,0,0,0,61.12,2.93Zm-.18,6.9V54.17a6.74,6.74,0,0,1-6.74,6.72H9.8a6.73,6.73,0,0,1-6.73-6.72V9.83A6.75,6.75,0,0,1,9.8,3.11H54.2a6.74,6.74,0,0,1,6.74,6.72Z"/></svg>