<svg id="back" xmlns="http://www.w3.org/2000/svg" preserveAspectRatio="xMinYMid" viewbox="0 0 64 64"><defs><style>.cls-1{fill:#a25ac4;}</style></defs><title>estilos iconos paraeducaand_escolares</title><path class="cls-1" d="M48.85,42.57c-.09,0-5.21-3.22-5.21-14.23A11.66,11.66,0,0,0,35.38,17.2v-2a3.38,3.38,0,0,0-6.76,0v2a11.66,11.66,0,0,0-8.26,11.14c0,5.84-1.45,9.43-2.67,11.4a8.64,8.64,0,0,1-2.54,2.83,1.19,1.19,0,0,0-.61,1,3,3,0,0,0,3,3h7.82a6.73,6.73,0,0,0,13.24,0h7.82a3,3,0,0,0,3-3A1.21,1.21,0,0,0,48.85,42.57ZM36.16,46.63a4.33,4.33,0,0,1-8.32,0Zm10.7-2.56a.59.59,0,0,1-.42.17H26.64a1.2,1.2,0,0,0-.28,0h-8.8a.59.59,0,0,1-.42-.17,12.05,12.05,0,0,0,2.52-3c1.41-2.25,3.1-6.29,3.1-12.77a9.24,9.24,0,1,1,18.48,0c0,6.48,1.68,10.52,3.1,12.77A12.05,12.05,0,0,0,46.86,44.07ZM31,16.6V15.22a1,1,0,0,1,2,0V16.6Z"/><path class="cls-1" d="M18.29,29.54a1.2,1.2,0,0,0,1.2-1.2,12.57,12.57,0,0,1,6.28-10.85,1.2,1.2,0,0,0-1.2-2.08,15,15,0,0,0-7.48,12.93A1.2,1.2,0,0,0,18.29,29.54Z"/><path class="cls-1" d="M38.23,17.49h0a12.57,12.57,0,0,1,6.28,10.85,1.2,1.2,0,1,0,2.4,0,15,15,0,0,0-7.48-12.93,1.21,1.21,0,0,0-.91-.12,1.18,1.18,0,0,0-.73.56A1.21,1.21,0,0,0,38.23,17.49Z"/><path class="cls-1" d="M61.12,2.93A9.74,9.74,0,0,0,54.2.07H9.8A9.78,9.78,0,0,0,0,9.83V54.17A9.76,9.76,0,0,0,9.8,63.93H54.2A9.78,9.78,0,0,0,64,54.17V9.83A9.66,9.66,0,0,0,61.12,2.93Zm-.18,6.9V54.17a6.74,6.74,0,0,1-6.74,6.72H9.8a6.73,6.73,0,0,1-6.73-6.72V9.83A6.75,6.75,0,0,1,9.8,3.11H54.2a6.74,6.74,0,0,1,6.74,6.72Z"/></svg>