<svg xmlns="http://www.w3.org/2000/svg" preserveAspectRatio="xMinYMid" viewbox="0 0 64 64"><defs><style>.cls-1{fill:#5baf07;}</style></defs><title>estilos iconos paraeducaand_escolares</title><g id="back"><path class="cls-1" d="M61.68,26.4,37.6,2.32A7.84,7.84,0,0,0,32,0h0a7.83,7.83,0,0,0-5.57,2.31L2.33,26.45a7.89,7.89,0,0,0,0,11.15L26.4,61.68a7.89,7.89,0,0,0,11.15,0L61.67,37.55A7.89,7.89,0,0,0,61.68,26.4Zm-2.21,9L35.36,59.47A4.78,4.78,0,0,1,32,60.88h0a4.73,4.73,0,0,1-3.37-1.4L4.52,35.41a4.8,4.8,0,0,1,0-6.77L28.64,4.53A4.76,4.76,0,0,1,32,3.12h0a4.77,4.77,0,0,1,3.38,1.4L59.48,28.6A4.78,4.78,0,0,1,59.47,35.36Z"/></g><g id="elements"><path class="cls-1" d="M46.88,42.19l-14-18.83v-9.5h4.84l-2,2a1,1,0,0,0-.27.7.91.91,0,0,0,.35.66l1.51,1.19H34a.91.91,0,1,0,0,1.81h6a.91.91,0,0,0,.56-1.62l-2.76-2.17L40.6,13.6a.9.9,0,0,0,.21-1,.91.91,0,0,0-.84-.56H32a.9.9,0,0,0-.91.9V23.36l-14,18.83a.9.9,0,0,0,.73,1.44h28.3a.9.9,0,0,0,.73-1.44ZM32,25.18l4.76,6.42-1.67,1.84L32.64,31a.92.92,0,0,0-.64-.25,1.06,1.06,0,0,0-.64.25l-2.45,2.43L27.24,31.6ZM19.65,41.82l6.49-8.74,2.06,2.28a1,1,0,0,0,.68.3.88.88,0,0,0,.63-.26L32,32.93l2.49,2.47a.79.79,0,0,0,.66.26.92.92,0,0,0,.64-.3l2.07-2.28,6.49,8.74Z"/></g></svg>