<svg xmlns="http://www.w3.org/2000/svg" preserveAspectRatio="xMinYMid" viewbox="0 0 64 64"><defs><style>.cls-1,.cls-2{fill:#a25ac4;}.cls-2{stroke:#a25ac4;stroke-miterlimit:10;}</style></defs><title>estilos iconos paraeducaand_escolares</title><g id="back"><path class="cls-1" d="M61.12,2.93A9.74,9.74,0,0,0,54.2.07H9.8A9.78,9.78,0,0,0,0,9.83V54.17A9.76,9.76,0,0,0,9.8,63.93H54.2A9.78,9.78,0,0,0,64,54.17V9.83A9.66,9.66,0,0,0,61.12,2.93Zm-.18,6.9V54.17a6.74,6.74,0,0,1-6.74,6.72H9.8a6.73,6.73,0,0,1-6.73-6.72V9.83A6.75,6.75,0,0,1,9.8,3.11H54.2a6.74,6.74,0,0,1,6.74,6.72Z"/></g><g id="elements"><path class="cls-2" d="M32,6.81A17.8,17.8,0,0,0,14.22,24.59c0,9.55,16.49,30.94,17.19,31.84l.59.77.59-.77c.71-.9,17.19-22.29,17.19-31.84A17.8,17.8,0,0,0,32,6.81Zm0,47.92c-3-4-16.28-22.08-16.28-30.14a16.28,16.28,0,0,1,32.56,0C48.28,32.65,35,50.76,32,54.73Z"/><path class="cls-1" d="M32,11.31A13.44,13.44,0,1,0,45.44,24.75,13.46,13.46,0,0,0,32,11.31ZM42.94,24.75A10.94,10.94,0,1,1,32,13.81,11,11,0,0,1,42.94,24.75Z"/><path class="cls-1" d="M41,21.88l-6.2-.9L32,15.36,29.22,21l-6.2.9,4.49,4.38-1.06,6.18L32,29.52l5.55,2.92-1.06-6.18ZM34.9,28.79,32,27.27l-2.9,1.52.56-3.23-2.34-2.28,3.23-.47L32,19.88l1.45,2.93,3.23.47-2.34,2.28Z"/></g></svg>