<svg xmlns="http://www.w3.org/2000/svg" xmlns:xlink="http://www.w3.org/1999/xlink" preserveAspectRatio="xMinYMid" viewbox="0 0 60 60"><defs><style>.cls-1,.cls-4{fill:none;}.cls-2{clip-path:url(#clip-path);}.cls-3{fill:#0066ab;}.cls-4{stroke:#0066ab;stroke-linecap:round;stroke-linejoin:round;stroke-width:1.02px;}</style><clipPath id="clip-path"><rect class="cls-1" width="59.9" height="59.9"/></clipPath></defs><title>nuevos iconos_</title><g id="elements"><g class="cls-2"><path class="cls-3" d="M43.48,31.21C41,33.43,37.76,36,36,37.34a3.06,3.06,0,0,0-.38-1.15,46.55,46.55,0,0,0,6.09-4.78,1.47,1.47,0,0,1,1.79-.2m6.66-2h0a3.36,3.36,0,0,0-4.59.1c-.25.24-.52.5-.81.76a3.18,3.18,0,0,0-4.23.17A45.79,45.79,0,0,1,34.41,35a3.15,3.15,0,0,0-1.63-.45H27a11.08,11.08,0,0,1-2.3-.27,10.37,10.37,0,0,0-9.55,3,4.56,4.56,0,0,1-1.17.87l-3.9,2a.83.83,0,0,0,.38,1.57.82.82,0,0,0,.38-.09l3.9-2a6,6,0,0,0,1.59-1.18,8.75,8.75,0,0,1,8-2.55,13,13,0,0,0,2.64.3h5.77a1.61,1.61,0,0,1,0,3.22H26.16a.83.83,0,0,0-.83.83.84.84,0,0,0,.83.84h6.62a3.2,3.2,0,0,0,2.16-.85h0c.32-.25,8.06-6.09,11.75-9.74a1.69,1.69,0,0,1,2.31,0,1.75,1.75,0,0,1,.13,2.5l-.89,1c-2.8,3.12-7,7.83-12,11.22a5,5,0,0,1-2.8.85h-.07c-2,0-6-.17-9.55-.57a9.5,9.5,0,0,0-6,1.32l-4.09,2.46a.83.83,0,0,0,.43,1.55.82.82,0,0,0,.43-.12l4.09-2.47a8,8,0,0,1,4.94-1.09c3.57.41,7.6.54,9.69.58h.12a6.56,6.56,0,0,0,3.73-1.14c5.09-3.49,9.4-8.29,12.26-11.47l.89-1a3.45,3.45,0,0,0-.26-4.87"/><path class="cls-4" d="M36.73,15.62l1.76,3m-.12-2.38L36.49,15.2v2.17m5.13,4.8h-20V10.5h20Zm-7.2,3.22v.75a.23.23,0,0,1-.23.24H29a.24.24,0,0,1-.23-.24v-.75h-8.5v1.68a.86.86,0,0,0,.92.77H42a.87.87,0,0,0,.93-.77V25.39ZM42,23.8H21.21a.92.92,0,0,1-.92-.92V9.79a.92.92,0,0,1,.92-.92H42a.92.92,0,0,1,.92.92V22.88A.92.92,0,0,1,42,23.8Z"/><path class="cls-3" d="M30,2.77A27.18,27.18,0,1,0,57.13,30,27.21,27.21,0,0,0,30,2.77M30,59.9A30,30,0,1,1,59.9,30,30,30,0,0,1,30,59.9"/></g></g></svg>