/* XPM */
static char * exe_xpm[] = {
"32 32 454 2",
"  	c None",
". 	c #000000",
"+ 	c #565654",
"@ 	c #393A3A",
"# 	c #666661",
"$ 	c #3D3F3E",
"% 	c #77766F",
"& 	c #959181",
"* 	c #989483",
"= 	c #2C2D2E",
"- 	c #4E4E4A",
"; 	c #918D7C",
"> 	c #969385",
", 	c #464643",
"' 	c #1E2021",
") 	c #848277",
"! 	c #838170",
"~ 	c #827E6B",
"{ 	c #837F6D",
"] 	c #828073",
"^ 	c #2C2C2C",
"/ 	c #64625A",
"( 	c #8D8978",
"_ 	c #7E7C6B",
": 	c #817D6B",
"< 	c #8C8878",
"[ 	c #77766E",
"} 	c #878479",
"| 	c #878374",
"1 	c #827E6C",
"2 	c #979385",
"3 	c #2D2D2D",
"4 	c #474643",
"5 	c #908B79",
"6 	c #8D8A78",
"7 	c #5A5A54",
"8 	c #76776F",
"9 	c #908B7A",
"0 	c #7F7B69",
"a 	c #888370",
"b 	c #8B8775",
"c 	c #807C6A",
"d 	c #817C6A",
"e 	c #908D7D",
"f 	c #404240",
"g 	c #666561",
"h 	c #A5A18E",
"i 	c #888371",
"j 	c #837E6C",
"k 	c #8D8874",
"l 	c #868270",
"m 	c #948F7E",
"n 	c #535453",
"o 	c #525352",
"p 	c #B2AF9C",
"q 	c #9C9885",
"r 	c #9E9A87",
"s 	c #A39F8C",
"t 	c #A09B87",
"u 	c #898572",
"v 	c #A09B88",
"w 	c #A49F8C",
"x 	c #A39E8A",
"y 	c #AEAA9B",
"z 	c #414342",
"A 	c #555551",
"B 	c #A8A390",
"C 	c #A29D8A",
"D 	c #A19C89",
"E 	c #9C9786",
"F 	c #938E7D",
"G 	c #9E9986",
"H 	c #9D9885",
"I 	c #86816F",
"J 	c #9C9787",
"K 	c #A7A498",
"L 	c #9F9A88",
"M 	c #928D7A",
"N 	c #9F9A87",
"O 	c #A39E8B",
"P 	c #A09C8A",
"Q 	c #A19D8A",
"R 	c #A4A192",
"S 	c #424342",
"T 	c #74746E",
"U 	c #AAA695",
"V 	c #A09A87",
"W 	c #A9A491",
"X 	c #7E7D79",
"Y 	c #44473E",
"Z 	c #BBC29F",
"` 	c #C1CB9C",
" .	c #BBC19E",
"..	c #A8A78C",
"+.	c #878272",
"@.	c #8A8674",
"#.	c #95907D",
"$.	c #ADAA9A",
"%.	c #66655F",
"&.	c #A9A490",
"*.	c #A19D8B",
"=.	c #A5A08E",
"-.	c #ABAA8F",
";.	c #C3CCA3",
">.	c #B8BC9A",
",.	c #979A8D",
"'.	c #151417",
").	c #9BA282",
"!.	c #A4C750",
"~.	c #A1C941",
"{.	c #9AC438",
"].	c #9DC63E",
"^.	c #A6CA50",
"/.	c #BCCE8A",
"(.	c #A09A93",
"_.	c #888472",
":.	c #898573",
"<.	c #8B8674",
"[.	c #A6A18D",
"}.	c #A5A08C",
"|.	c #B6B0A8",
"1.	c #C0D28E",
"2.	c #A4C84F",
"3.	c #9DC639",
"4.	c #9EC640",
"5.	c #A3C650",
"6.	c #9BA283",
"7.	c #8E9874",
"8.	c #91B936",
"9.	c #83A732",
"0.	c #8FA759",
"a.	c #A0B17F",
"b.	c #90A562",
"c.	c #8AAB3C",
"d.	c #84AD26",
"e.	c #BBCE89",
"f.	c #948F7D",
"g.	c #8E8976",
"h.	c #918C79",
"i.	c #A7A28E",
"j.	c #A5A08D",
"k.	c #AAA592",
"l.	c #89AB3C",
"m.	c #90A85A",
"n.	c #83A731",
"o.	c #98C139",
"p.	c #8E9973",
"q.	c #878482",
"r.	c #8FB437",
"s.	c #65881A",
"t.	c #DBE0D1",
"u.	c #FFFFFF",
"v.	c #EEEFEC",
"w.	c #E6E9DE",
"x.	c #7A9936",
"y.	c #83A632",
"z.	c #ABAD92",
"A.	c #8E8974",
"B.	c #95907C",
"C.	c #9D9884",
"D.	c #A49F8B",
"E.	c #B9BBA0",
"F.	c #83A531",
"G.	c #789733",
"H.	c #E2E6DA",
"I.	c #EEF0EC",
"J.	c #87AC33",
"K.	c #888583",
"L.	c #8B9C63",
"M.	c #678A1A",
"N.	c #B6C19C",
"O.	c #7A904C",
"P.	c #577B09",
"Q.	c #678033",
"R.	c #B9C2A5",
"S.	c #658918",
"T.	c #A8BA7F",
"U.	c #847E6D",
"V.	c #8B8672",
"W.	c #989380",
"X.	c #A29D89",
"Y.	c #A09A88",
"Z.	c #A8BB7A",
"`.	c #688C1A",
" +	c #BBC4A8",
".+	c #FEFEFE",
"++	c #6A8434",
"@+	c #517506",
"#+	c #7A914D",
"$+	c #B5C09C",
"%+	c #668A19",
"&+	c #8B9B63",
"*+	c #647B33",
"=+	c #618220",
"-+	c #E6EADD",
";+	c #FBFCFA",
">+	c #E1E7D6",
",+	c #E0E6D5",
"'+	c #DCE2D0",
")+	c #FAFAF8",
"!+	c #4D6F09",
"~+	c #91AA59",
"{+	c #6F695A",
"]+	c #676351",
"^+	c #75705F",
"/+	c #787462",
"(+	c #7D7864",
"_+	c #837F6A",
":+	c #908B80",
"<+	c #8FA856",
"[+	c #4B6C07",
"}+	c #F5F6F3",
"|+	c #DEE4D1",
"1+	c #E2E7D7",
"2+	c #FEFFFE",
"3+	c #E8ECE0",
"4+	c #5F801E",
"5+	c #6A8135",
"6+	c #6E843A",
"7+	c #60801E",
"8+	c #E3E8DA",
"9+	c #F5F7F3",
"0+	c #BAC6A2",
"a+	c #BAC69F",
"b+	c #B5C19B",
"c+	c #B1BD98",
"d+	c #BAC4A4",
"e+	c #547410",
"f+	c #9BB756",
"g+	c #5A5548",
"h+	c #625E4D",
"i+	c #615D4C",
"j+	c #605C4B",
"k+	c #787461",
"l+	c #807C67",
"m+	c #7B7564",
"n+	c #92AB58",
"o+	c #4D6E09",
"p+	c #EAEDE5",
"q+	c #B2C097",
"r+	c #B9C59F",
"s+	c #A6B488",
"t+	c #638320",
"u+	c #6D8339",
"v+	c #8B9869",
"w+	c #698C1A",
"x+	c #A3B283",
"y+	c #96A870",
"z+	c #4A6D02",
"A+	c #8D9F65",
"B+	c #E3E8D8",
"C+	c #8C9F66",
"D+	c #719421",
"E+	c #A0B174",
"F+	c #595446",
"G+	c #545141",
"H+	c #64604F",
"I+	c #5C5848",
"J+	c #686452",
"K+	c #7F7B67",
"L+	c #787261",
"M+	c #A5B776",
"N+	c #6B8F1C",
"O+	c #A4B08B",
"P+	c #7D944D",
"Q+	c #4B6E02",
"R+	c #99AA78",
"S+	c #E5EADB",
"T+	c #899D5F",
"U+	c #6B8F1D",
"V+	c #8B9868",
"W+	c #767275",
"X+	c #94B546",
"Y+	c #688E14",
"Z+	c #D0D8C1",
"`+	c #CFD8BE",
" @	c #76972A",
".@	c #86A837",
"+@	c #91927A",
"@@	c #525040",
"#@	c #5E5A4A",
"$@	c #524F40",
"%@	c #575444",
"&@	c #676352",
"*@	c #686453",
"=@	c #949377",
"-@	c #85A736",
";@	c #7F9E36",
">@	c #D8DECB",
",@	c #B8C2A1",
"'@	c #6A8F16",
")@	c #94B445",
"!@	c #7E856E",
"~@	c #9CC343",
"{@	c #84AA2E",
"]@	c #8CA94B",
"^@	c #99B066",
"/@	c #8EAA4F",
"(@	c #8AAF34",
"_@	c #86AA32",
":@	c #C1CE9F",
"<@	c #585547",
"[@	c #545142",
"}@	c #575446",
"|@	c #5F5B4A",
"1@	c #5A5749",
"2@	c #726D5C",
"3@	c #5A5748",
"4@	c #C2CD9F",
"5@	c #8AB427",
"6@	c #88AD35",
"7@	c #8BA552",
"8@	c #9EB663",
"9@	c #88A649",
"0@	c #86AC2F",
"a@	c #7F856E",
"b@	c #90977F",
"c@	c #A1BE58",
"d@	c #A8CD4F",
"e@	c #A5CB47",
"f@	c #A5CB4D",
"g@	c #AAC95D",
"h@	c #BAC29B",
"i@	c #514C3F",
"j@	c #504D40",
"k@	c #504D3E",
"l@	c #585545",
"m@	c #666251",
"n@	c #585548",
"o@	c #565143",
"p@	c #B5BD99",
"q@	c #A8C758",
"r@	c #A8CE4D",
"s@	c #A4C949",
"t@	c #A7CC4E",
"u@	c #A3C159",
"v@	c #595E50",
"w@	c #A5AA8F",
"x@	c #86886C",
"y@	c #7E7B68",
"z@	c #706C5B",
"A@	c #474538",
"B@	c #4D4A3C",
"C@	c #4A4739",
"D@	c #5B584A",
"E@	c #56544A",
"F@	c #736F5D",
"G@	c #656151",
"H@	c #4F4D3F",
"I@	c #4C493B",
"J@	c #48463A",
"K@	c #605F50",
"L@	c #686B4F",
"M@	c #989B80",
"N@	c #8B8C70",
"O@	c #242423",
"P@	c #191917",
"Q@	c #7B7763",
"R@	c #6D6958",
"S@	c #726E5D",
"T@	c #625E50",
"U@	c #464437",
"V@	c #464336",
"W@	c #666352",
"X@	c #696554",
"Y@	c #3F3E36",
"Z@	c #161617",
"`@	c #5E5C50",
" #	c #615E4D",
".#	c #484538",
"+#	c #454235",
"@#	c #524F3F",
"##	c #767261",
"$#	c #69675B",
"%#	c #090908",
"&#	c #252524",
"*#	c #595647",
"=#	c #706C5A",
"-#	c #434033",
";#	c #444134",
">#	c #444135",
",#	c #635F4E",
"'#	c #41413C",
")#	c #111212",
"!#	c #524F44",
"~#	c #474436",
"{#	c #454234",
"]#	c #4E4B3D",
"^#	c #5D5949",
"/#	c #74705F",
"(#	c #6D6B5E",
"_#	c #0E0E0E",
":#	c #1E1E1E",
"<#	c #59574B",
"[#	c #676453",
"}#	c #6C6857",
"|#	c #6F6B59",
"1#	c #454337",
"2#	c #3E3C32",
"3#	c #3F3D32",
"4#	c #3F3D33",
"5#	c #43423B",
"6#	c #000001",
"7#	c #111111",
"8#	c #474640",
"9#	c #423F33",
"0#	c #403E33",
"a#	c #3E3C31",
"b#	c #575445",
"c#	c #6F6B5A",
"d#	c #716C5B",
"e#	c #68675D",
"f#	c #2F2E2D",
"g#	c #6E6958",
"h#	c #706B5A",
"i#	c #3A382E",
"j#	c #423F32",
"k#	c #383834",
"l#	c #11110F",
"m#	c #48473F",
"n#	c #3D3B30",
"o#	c #39372C",
"p#	c #403E32",
"q#	c #7B7767",
"r#	c #1F1F21",
"s#	c #3C3D39",
"t#	c #434135",
"u#	c #363429",
"v#	c #37352A",
"w#	c #3D3B31",
"x#	c #373733",
"y#	c #030303",
"z#	c #414037",
"A#	c #38362B",
"B#	c #37352B",
"C#	c #353329",
"D#	c #595748",
"E#	c #323230",
"F#	c #2C2C28",
"G#	c #3C3A30",
"H#	c #363633",
"I#	c #101011",
"J#	c #43423D",
"K#	c #36342B",
"L#	c #36342A",
"M#	c #46433A",
"N#	c #2F2F2C",
"O#	c #2C2C2B",
"P#	c #43413A",
"Q#	c #46443A",
"R#	c #42413B",
"S#	c #1B1B1B",
"T#	c #171615",
"U#	c #0A0A0A",
"                                                                ",
"                                                                ",
"                                                                ",
"              . + @                           # $               ",
"              % & * =                       - ; > ,             ",
"          ' ) ! ~ { ] ^                   / ( _ : < [           ",
"          } | ~ 1 1 { 2 3               4 5 : 1 1 : 6 7         ",
"      . 8 9 0 a b 1 c d e f           g h i : 1 j k l m n       ",
"      o p q r s t u v w x y z       A B C D E F G w H I J       ",
"      ^ K x L v G M N O P Q R S   T U C N N C O V V H W X       ",
"        Y Z `  ...+.@.#.G G D $.%.&.D C C *.=.-. .;.>.,.'.      ",
"      ).!.~.{.].^./.(._.:.<.C [.}.[.C [.D |.1.2.].3.4.5.6.      ",
"    7.8.9.0.a.b.c.d.e.f.g.h.i.[.j.j.C }.k./.d.l.b.a.m.n.o.p.    ",
"  q.r.s.t.u.v.u.w.x.y.z.A.B.C.i.[.[.[.D.E.F.G.H.u.I.u.t.s.J.K.  ",
"  L.M.N.u.O.P.Q.u.R.S.T.U.V.W.C.X.x x Y.Z.`. +.+++@+#+u.$+%+&+  ",
"  *+=+-+;+>+,+'+)+u.!+~+{+]+^+/+(+I _+:+<+[+u.}+|+,+1+2+3+4+5+  ",
"  6+7+8+9+0+a+b+c+d+e+f+g+h+i+j+k+l+l+m+n+o+u.p+q+r+b+c+s+t+u+  ",
"  v+w+x+u.y+z+A+B+C+D+E+F+G+H+I+J+K+l+L+M+N+O+u.P+Q+R+S+T+U+V+  ",
"  W+X+Y+Z+u.u.u.`+ @.@+@@@#@$@%@&@%@l+*@=@-@;@>@u.u.u.,@'@)@W+  ",
"    !@~@{@]@^@/@(@_@:@<@[@[@$@}@|@1@2@<@3@4@5@6@7@8@9@0@~@a@    ",
"      b@c@d@e@f@g@h@i@$@j@k@k@[@i+l@m@n@$@o@p@q@r@s@t@u@b@      ",
"          v@w@x@y@z@A@B@B@C@h+D@E@F@G@H@B@I@J@K@L@M@N@O@        ",
"        P@Q@R@S@j+T@U@A@V@W@X@Y@Z@`@ #A@A@A@A@.#+#@###$#%#      ",
"      &#*#l@z@=#-#;#>#>#+#,#'#    )#!#~#>#>#+#{#]#^#z@/#(#_#    ",
"      :#<#[#}#|#1#2#3#4#U@5#6#      7#8#9#0#3#a#%@b#c#d#e#      ",
"        f#}#g#h#1#i#i#j#k#            l#m#n#i#o#1#p#}#q#r#      ",
"          s#3#t#u#v#w#x#y#              7#z#A#B#v#C#D#E#        ",
"            F#G#u#i#H#                    I#J#K#L#M#N#          ",
"              O#P#k#y#                      7#Q#R#S#            ",
"                                              T#U#              ",
"                                                                ",
"                                                                "};
