<svg xmlns="http://www.w3.org/2000/svg" preserveAspectRatio="xMinYMid" viewbox="0 0 64 64"><defs><style>.cls-1{fill:#5baf07;}</style></defs><title>estilos iconos paraeducaand_escolares</title><g id="back"><path class="cls-1" d="M61.88,26.47,37.8,2.39A7.86,7.86,0,0,0,32.23.09h0A7.87,7.87,0,0,0,26.64,2.4L2.53,26.52a7.89,7.89,0,0,0,0,11.15L26.6,61.75a7.89,7.89,0,0,0,11.15,0L61.87,37.62A7.9,7.9,0,0,0,61.88,26.47Zm-2.21,9L35.56,59.54A4.76,4.76,0,0,1,32.17,61h0a4.77,4.77,0,0,1-3.38-1.4L4.72,35.48a4.8,4.8,0,0,1,0-6.77L28.84,4.6a4.73,4.73,0,0,1,3.38-1.4h0A4.73,4.73,0,0,1,35.6,4.59L59.68,28.67A4.78,4.78,0,0,1,59.67,35.43Z"/></g><g id="elements"><path class="cls-1" d="M32,14.82A17.18,17.18,0,1,0,49.18,32,17.2,17.2,0,0,0,32,14.82ZM30.93,43v3.78A14.83,14.83,0,0,1,17.22,33.06h3.85V30.94H17.22A14.83,14.83,0,0,1,30.93,17.22v3.85h2.13V17.22A14.84,14.84,0,0,1,46.78,30.94H42.94v2.12h3.84A14.84,14.84,0,0,1,33.06,46.78V43Z"/><path class="cls-1" d="M34.44,32.67a2.07,2.07,0,0,0,0-.35L39.69,27a1.39,1.39,0,0,0,0-2h0a1.39,1.39,0,0,0-2,0L32.5,30.29a2.51,2.51,0,0,0-1.09,0l-7.22-7.21a1.39,1.39,0,0,0-2,2l7.35,7.35a2.35,2.35,0,0,0,0,.26,2.44,2.44,0,1,0,4.88,0Zm4.88-7.25Z"/></g></svg>