<svg xmlns="http://www.w3.org/2000/svg" preserveAspectRatio="xMinYMid" viewbox="0 0 64 64"><defs><style>.cls-1{fill:#a25ac4;}</style></defs><title>estilos iconos paraeducaand_escolares</title><g id="back"><path class="cls-1" d="M61.12,2.93A9.74,9.74,0,0,0,54.2.07H9.8A9.78,9.78,0,0,0,0,9.83V54.17A9.76,9.76,0,0,0,9.8,63.93H54.2A9.78,9.78,0,0,0,64,54.17V9.83A9.66,9.66,0,0,0,61.12,2.93Zm-.18,6.9V54.17a6.74,6.74,0,0,1-6.74,6.72H9.8a6.73,6.73,0,0,1-6.73-6.72V9.83A6.75,6.75,0,0,1,9.8,3.11H54.2a6.74,6.74,0,0,1,6.74,6.72Z"/></g><g id="elements"><path class="cls-1" d="M45.17,25.56A8.8,8.8,0,0,0,39.93,23L38.65,12.86h.29a2.62,2.62,0,0,0,1.87-.77,2.67,2.67,0,0,0-1.87-4.53H25.06a2.65,2.65,0,0,0-1.87,4.53,2.62,2.62,0,0,0,1.87.77h.29L24.07,23a8.88,8.88,0,0,0-7.83,8.76,1.06,1.06,0,0,0,.34.78,1.08,1.08,0,0,0,.77.33H28.58V47.21a12,12,0,0,0,.75,4.18L31,55.72a1.12,1.12,0,0,0,1,.72h0a1.12,1.12,0,0,0,1-.72l1.63-4.33a11.93,11.93,0,0,0,.75-4.18V32.9H46.64a1.12,1.12,0,0,0,1.12-1.11A8.74,8.74,0,0,0,45.17,25.56Zm-20.41-15a.42.42,0,0,1-.13-.3.43.43,0,0,1,.43-.43H38.93a.46.46,0,0,1,.44.43.42.42,0,0,1-.13.3.39.39,0,0,1-.3.13H25.06A.39.39,0,0,1,24.76,10.51ZM26.32,23l1.27-10.11h8.83L37.68,23Zm19.12,7.71H18.56a6.59,6.59,0,0,1,6.5-5.48H38.94a6.6,6.6,0,0,1,6.5,5.48ZM33.2,32.9V47.21a9.93,9.93,0,0,1-.61,3.4L32,52.17l-.58-1.56a9.69,9.69,0,0,1-.62-3.4V32.9Z"/></g></svg>