<svg xmlns="http://www.w3.org/2000/svg" preserveAspectRatio="xMinYMid" viewbox="0 0 64 64"><defs><style>.cls-1{fill:#a25ac4;}.cls-2{fill:none;}.cls-3{fill:#fff;}</style></defs><title>estilos iconos paraeducaand_escolares</title><g id="back"><path class="cls-1" d="M61.12,2.93A9.74,9.74,0,0,0,54.2.07H9.8A9.78,9.78,0,0,0,0,9.83V54.17A9.76,9.76,0,0,0,9.8,63.93H54.2A9.78,9.78,0,0,0,64,54.17V9.83A9.66,9.66,0,0,0,61.12,2.93Zm-.18,6.9V54.17a6.74,6.74,0,0,1-6.74,6.72H9.8a6.73,6.73,0,0,1-6.73-6.72V9.83A6.75,6.75,0,0,1,9.8,3.11H54.2a6.74,6.74,0,0,1,6.74,6.72Z"/></g><g id="elements"><path class="cls-2" d="M36.42,17.48v6.7a4.34,4.34,0,0,1-8.67,0V20.57a1.54,1.54,0,0,1,3.08,0v3.61a1.26,1.26,0,1,0,2.52,0V17.76L20.49,18.91l2.64,29.57L52.7,45.84,50.06,16.26Z"/><polygon class="cls-2" points="40.68 50.68 40.81 49.98 38.19 50.22 40.68 50.68"/><path class="cls-2" d="M32.78,11.81a.56.56,0,0,0-.56.56v2.4l1.13-.1v-2.3A.57.57,0,0,0,32.78,11.81Z"/><path class="cls-2" d="M17.64,16.53a1.73,1.73,0,0,1,.35-.31L17,16,11.5,45.21l8.4,1.58L17.29,17.65A1.55,1.55,0,0,1,17.64,16.53Z"/><polygon class="cls-2" points="55.12 47.16 55.12 47.16 55.12 47.16 55.12 47.16"/><polygon class="cls-2" points="40.76 50.96 40.89 50.99 41.13 49.69 36.29 50.13 40.76 50.96"/><path class="cls-2" d="M33.61,12.37a.83.83,0,0,0-.83-.82.82.82,0,0,0-.82.82v2.69l1.65-.15Z"/><path class="cls-2" d="M17.84,16.7h0a1.33,1.33,0,0,1,.61-.4l.51-.15-2.2-.41L11.22,45.29l0,.13,9,1.69L17.55,17.63A1.25,1.25,0,0,1,17.84,16.7Z"/><path class="cls-2" d="M50.29,16l-14,1.25-.12,0v6.93a4.08,4.08,0,0,1-8.15,0V20.57a1.28,1.28,0,0,1,2.56,0v3.61a1.52,1.52,0,1,0,3,0V17.47L20.33,18.66H20.2l2.68,30,0,.13,30-2.68H53l-2.68-30Z"/><polygon class="cls-2" points="55.12 47.16 55.12 47.16 55.12 47.16 55.12 47.16"/><path class="cls-1" d="M52.72,14.48a1.32,1.32,0,0,0-1.37-1.15L36.16,14.68V12.37a3.38,3.38,0,1,0-6.75,0v2.92l-.79.07h0L16,13a1.31,1.31,0,0,0-1,.2,1.28,1.28,0,0,0-.53.82l-6,32.2a1.23,1.23,0,0,0,.19.95,1.29,1.29,0,0,0,.82.53l11,2.06,0,.51a1.3,1.3,0,0,0,1.33,1.15h.06L26.91,51h0l14.73,2.76a1.23,1.23,0,0,0,1-.2,1.27,1.27,0,0,0,.52-.81l.61-3.26h.1l10.61-.94a1.27,1.27,0,0,0,.87-.46,1.3,1.3,0,0,0,.29-.93ZM32,12.37a.82.82,0,0,1,.82-.82.83.83,0,0,1,.83.82v2.54L32,15.06ZM11.2,45.42l0-.13,5.54-29.56,2.2.41-.51.15a1.33,1.33,0,0,0-.61.4h0a1.25,1.25,0,0,0-.29.93l2.64,29.48ZM40.89,51l-.13,0-4.47-.84,4.84-.43Zm12-4.91L22.9,48.76l0-.13-2.68-30h.13l13.28-1.19v6.71a1.52,1.52,0,1,1-3,0V20.57a1.28,1.28,0,0,0-2.56,0v3.61a4.08,4.08,0,0,0,8.15,0V17.25l.12,0,14-1.25v.13l2.68,30Zm2.27,1.08Z"/><path class="cls-3" d="M53,14.46a1.59,1.59,0,0,0-1.59-1.4h-.06L36.42,14.4v-2a3.64,3.64,0,1,0-7.27,0v2.68l-.52,0L16,12.73a1.61,1.61,0,0,0-1.15.24,1.49,1.49,0,0,0-.64,1l-6,32.2a1.48,1.48,0,0,0,.24,1.14,1.54,1.54,0,0,0,1,.65l10.75,2,0,.31a1.55,1.55,0,0,0,1.59,1.39h.08l5-.45L41.61,54a1.53,1.53,0,0,0,.3,0,1.54,1.54,0,0,0,1.51-1.25L44,49.69l10.51-.93a1.56,1.56,0,0,0,1.4-1.67ZM55.35,48a1.27,1.27,0,0,1-.87.46l-10.61.94h-.1l-.61,3.26a1.27,1.27,0,0,1-.52.81,1.23,1.23,0,0,1-1,.2L26.93,51h0l-5.05.45H21.8a1.3,1.3,0,0,1-1.33-1.15l0-.51-11-2.06a1.29,1.29,0,0,1-.82-.53,1.23,1.23,0,0,1-.19-.95l6-32.2a1.28,1.28,0,0,1,.53-.82,1.31,1.31,0,0,1,1-.2L28.6,15.35h0l.79-.07V12.37a3.38,3.38,0,1,1,6.75,0v2.31l15.19-1.35a1.32,1.32,0,0,1,1.37,1.15l2.92,32.63A1.3,1.3,0,0,1,55.35,48Z"/><path class="cls-3" d="M50.29,16l-14,1.25-.12,0v6.93a4.08,4.08,0,0,1-8.15,0V20.57a1.28,1.28,0,0,1,2.56,0v3.61a1.52,1.52,0,1,0,3,0V17.47L20.33,18.66H20.2l2.68,30,0,.13,30-2.68H53l-2.68-30ZM23.13,48.48,20.49,18.91l12.86-1.15v6.42a1.26,1.26,0,1,1-2.52,0V20.57a1.54,1.54,0,0,0-3.08,0v3.61a4.34,4.34,0,0,0,8.67,0v-6.7l13.64-1.22L52.7,45.84Z"/><path class="cls-3" d="M33.61,12.37a.83.83,0,0,0-.83-.82.82.82,0,0,0-.82.82v2.69l1.65-.15Zm-.26,2.3-1.13.1v-2.4a.56.56,0,0,1,.56-.56.57.57,0,0,1,.57.56Z"/><path class="cls-3" d="M17.84,16.7h0a1.33,1.33,0,0,1,.61-.4l.51-.15-2.2-.41L11.22,45.29l0,.13,9,1.69L17.55,17.63A1.25,1.25,0,0,1,17.84,16.7ZM19.9,46.79l-8.4-1.58L17,16l1,.19a1.73,1.73,0,0,0-.35.31,1.55,1.55,0,0,0-.35,1.12Z"/><path class="cls-3" d="M40.76,51l.13,0,.24-1.3-4.84.43Zm-.08-.28-2.49-.46L40.81,50Z"/></g></svg>