<svg xmlns="http://www.w3.org/2000/svg" preserveAspectRatio="xMinYMid" viewbox="0 0 64 64"><defs><style>.cls-1{fill:#a25ac4;}</style></defs><title>estilos iconos paraeducaand_escolares</title><g id="back"><path class="cls-1" d="M61.12,2.93A9.74,9.74,0,0,0,54.2.07H9.8A9.78,9.78,0,0,0,0,9.83V54.17A9.76,9.76,0,0,0,9.8,63.93H54.2A9.78,9.78,0,0,0,64,54.17V9.83A9.66,9.66,0,0,0,61.12,2.93Zm-.18,6.9V54.17a6.74,6.74,0,0,1-6.74,6.72H9.8a6.73,6.73,0,0,1-6.73-6.72V9.83A6.75,6.75,0,0,1,9.8,3.11H54.2a6.74,6.74,0,0,1,6.74,6.72Z"/></g><g id="elements"><path class="cls-1" d="M35.52,8.94a8.47,8.47,0,0,0-8.45,8.46V41.57A4.81,4.81,0,0,0,28.53,45a5,5,0,0,0,6.94,0,4.83,4.83,0,0,0,1.46-3.47V21.42a1.41,1.41,0,0,0-2.81,0V41.57a2.05,2.05,0,0,1-2.17,2A2,2,0,0,1,30.49,43a2.06,2.06,0,0,1-.61-1.46V17.4a5.65,5.65,0,1,1,11.29,0V43.58c0,4.67-4.21,8.64-9.18,8.65s-9.16-4-9.16-8.65V31.5a1.41,1.41,0,1,0-2.81,0V43.58A11.48,11.48,0,0,0,31.46,55.06L32,55A11.47,11.47,0,0,0,44,43.58V17.4A8.47,8.47,0,0,0,35.52,8.94Z"/></g></svg>