<svg xmlns="http://www.w3.org/2000/svg" preserveAspectRatio="xMinYMid" viewbox="0 0 64 64"><defs><style>.cls-1,.cls-2{fill:#5baf07;}.cls-2{stroke:#5baf07;stroke-miterlimit:10;stroke-width:0.75px;}</style></defs><title>estilos iconos paraeducaand_escolares</title><g id="back"><path class="cls-1" d="M61.68,26.4,37.6,2.32A7.84,7.84,0,0,0,32,0h0a7.83,7.83,0,0,0-5.57,2.31L2.33,26.45a7.89,7.89,0,0,0,0,11.15L26.4,61.68a7.89,7.89,0,0,0,11.15,0L61.67,37.55A7.89,7.89,0,0,0,61.68,26.4Zm-2.21,9L35.36,59.47A4.78,4.78,0,0,1,32,60.88h0a4.73,4.73,0,0,1-3.37-1.4L4.52,35.41a4.8,4.8,0,0,1,0-6.77L28.64,4.53A4.76,4.76,0,0,1,32,3.12h0a4.77,4.77,0,0,1,3.38,1.4L59.48,28.6A4.78,4.78,0,0,1,59.47,35.36Z"/></g><g id="elements"><path class="cls-1" d="M33.78,29.93H30v3.78a1.38,1.38,0,1,1-2.75,0V29.93H23.41a1.32,1.32,0,1,1,0-2.64h3.81V23.48a1.38,1.38,0,1,1,2.75,0v3.81h3.81a1.32,1.32,0,0,1,0,2.64Z"/><path class="cls-2" d="M46.54,42l-7.45-7.44a12.1,12.1,0,1,0-4.54,4.54L42,46.54A3.22,3.22,0,0,0,46.54,42ZM17.76,28.6A10.84,10.84,0,1,1,28.6,39.43,10.85,10.85,0,0,1,17.76,28.6Zm27.9,17.06a2,2,0,0,1-2.79,0l-7.25-7.25a12.31,12.31,0,0,0,2.79-2.79l7.25,7.25a2,2,0,0,1,0,2.79Z"/></g></svg>