<svg xmlns="http://www.w3.org/2000/svg" preserveAspectRatio="xMinYMid" viewbox="0 0 64 64"><defs><style>.cls-1{fill:#0065ab;}</style></defs><title>estilos iconos paraeducaand_escolares</title><g id="elements"><path class="cls-1" d="M43.35,14.52H20.23a2.71,2.71,0,0,0-2.71,2.71V46.15a2.71,2.71,0,0,0,2.71,2.71H43.35a2.71,2.71,0,0,0,2.71-2.71V17.23A2.71,2.71,0,0,0,43.35,14.52Zm.36,2.71V46.15a.36.36,0,0,1-.36.35H20.23a.36.36,0,0,1-.36-.35V17.23a.36.36,0,0,1,.36-.36H43.35A.36.36,0,0,1,43.71,17.23Z"/><path class="cls-1" d="M27.43,21.05a1.19,1.19,0,0,0-.79.42L25.37,23h0a1.11,1.11,0,0,0-.75-.47,1.16,1.16,0,0,0-.89.2,1.24,1.24,0,0,0-.48.76,1.15,1.15,0,0,0,.21.88l.9,1.26a1.18,1.18,0,0,0,1.87.06L28.46,23a1.2,1.2,0,0,0,.27-.87,1.19,1.19,0,0,0-1.3-1.05Z"/><path class="cls-1" d="M39.18,22.91H31.06a1.18,1.18,0,0,0,0,2.36h8.12a1.18,1.18,0,0,0,0-2.36Z"/><path class="cls-1" d="M27.44,29.15a1.19,1.19,0,0,0-.8.42l-1.27,1.55h0a1.18,1.18,0,0,0-2.12.49,1.16,1.16,0,0,0,.21.88l.9,1.26a1.18,1.18,0,0,0,1.87.06l2.24-2.73a1.2,1.2,0,0,0,.27-.87,1.14,1.14,0,0,0-.43-.79A1.12,1.12,0,0,0,27.44,29.15Z"/><path class="cls-1" d="M39.18,31H31.06a1.18,1.18,0,0,0,0,2.36h8.12a1.18,1.18,0,0,0,0-2.36Z"/><path class="cls-1" d="M27.43,37.24a1.22,1.22,0,0,0-.79.43l-1.27,1.55h0a1.2,1.2,0,0,0-1.64-.27,1.21,1.21,0,0,0-.48.76,1.16,1.16,0,0,0,.21.88l.9,1.26a1.17,1.17,0,0,0,1,.49,1.2,1.2,0,0,0,.91-.43l2.24-2.74a1.17,1.17,0,0,0,.27-.86,1.2,1.2,0,0,0-1.3-1.06Z"/><path class="cls-1" d="M39.18,39.11H31.06a1.18,1.18,0,0,0,0,2.36h8.12a1.18,1.18,0,0,0,0-2.36Z"/><path class="cls-1" d="M32,63.9A31.9,31.9,0,1,1,63.9,32,31.94,31.94,0,0,1,32,63.9ZM32,3.05A29,29,0,1,0,61,32,29,29,0,0,0,32,3.05Z"/></g></svg>