<svg xmlns="http://www.w3.org/2000/svg" preserveAspectRatio="xMinYMid" viewbox="0 0 64 64"><defs><style>.cls-1{fill:#0065ab;}</style></defs><title>estilos iconos paraeducaand_escolares</title><g id="elements"><path class="cls-1" d="M25,27.54H20.24A1.22,1.22,0,0,0,19,28.76v3.31a1.23,1.23,0,0,0,1.22,1.23H25a1.23,1.23,0,0,0,1.22-1.23V28.76A1.22,1.22,0,0,0,25,27.54Zm-.61,1.82v2.11H20.84V29.36Z"/><path class="cls-1" d="M34.34,27.54H29.62a1.22,1.22,0,0,0-1.22,1.22v3.31a1.23,1.23,0,0,0,1.22,1.23h4.72a1.23,1.23,0,0,0,1.22-1.23V28.76A1.22,1.22,0,0,0,34.34,27.54Zm-.61,1.82v2.11H30.22V29.36Z"/><path class="cls-1" d="M34.51,21.35H20a1.05,1.05,0,1,0,0,2.1H34.51a1.05,1.05,0,0,0,0-2.1Z"/><path class="cls-1" d="M34.51,24.63H20a1.06,1.06,0,0,0,0,2.11H34.51a1.06,1.06,0,0,0,0-2.11Z"/><path class="cls-1" d="M51.25,30.38a.3.3,0,0,0,0-.1,2.58,2.58,0,0,0-2.56-2.36H41.05V20.19a2.59,2.59,0,0,0-2.59-2.58H15.33a2.59,2.59,0,0,0-2.58,2.58V33.87a2.59,2.59,0,0,0,2.58,2.59h8.06v7.33a2.57,2.57,0,0,0,2.18,2.54.36.36,0,0,0,.2.06H48.66a2.59,2.59,0,0,0,2.59-2.58V30.38ZM25.5,36.46h4.1a1.13,1.13,0,0,0,.36.06H44.48a1,1,0,1,0,0-2.1H41a2.57,2.57,0,0,0,.06-.55v-.64h3.43a1,1,0,1,0,0-2.1H41.05V30h7.62a.48.48,0,0,1,.47.46V43.81a.49.49,0,0,1-.48.48H26.33l-.11,0H26a.48.48,0,0,1-.48-.48Zm13-2.11H15.33a.47.47,0,0,1-.47-.48V20.19a.48.48,0,0,1,.47-.48H38.46a.48.48,0,0,1,.48.48V33.87A.47.47,0,0,1,38.46,34.35Z"/><path class="cls-1" d="M39.52,43.34h4.72a1.23,1.23,0,0,0,1.22-1.23v-3.3a1.23,1.23,0,0,0-1.22-1.23H39.52a1.23,1.23,0,0,0-1.22,1.23v3.3A1.23,1.23,0,0,0,39.52,43.34Zm4.12-3.93v2.1H40.12v-2.1Z"/><path class="cls-1" d="M30.14,43.34h4.72a1.23,1.23,0,0,0,1.22-1.23v-3.3a1.23,1.23,0,0,0-1.22-1.23H30.14a1.23,1.23,0,0,0-1.22,1.23v3.3A1.23,1.23,0,0,0,30.14,43.34Zm.61-1.83v-2.1h3.5v2.1Z"/><path class="cls-1" d="M32,63.9A31.9,31.9,0,1,1,63.9,32,31.94,31.94,0,0,1,32,63.9ZM32,3.05A29,29,0,1,0,61,32,29,29,0,0,0,32,3.05Z"/></g></svg>