<svg xmlns="http://www.w3.org/2000/svg" preserveAspectRatio="xMinYMid" viewbox="0 0 64 64"><defs><style>.cls-1,.cls-2{fill:#0065ab;}.cls-2{stroke:#0065ab;stroke-miterlimit:10;stroke-width:0.5px;}</style></defs><title>estilos iconos paraeducaand_escolares</title><g id="elements"><path class="cls-1" d="M32,63.9A31.9,31.9,0,1,1,63.9,32,31.94,31.94,0,0,1,32,63.9ZM32,3.05A29,29,0,1,0,61,32,29,29,0,0,0,32,3.05Z"/><path class="cls-2" d="M51.08,20H49.69a.79.79,0,1,0,0,1.57h.6V44.27a.54.54,0,0,1-.54.54H35.29l.6-.24a30.71,30.71,0,0,1,10.4-2,1.4,1.4,0,0,0,1.39-1.4V19a1.37,1.37,0,0,0-.41-1,1.43,1.43,0,0,0-1-.41h0a31,31,0,0,0-14.21,3.71l-.06,0-.06,0a31,31,0,0,0-14.21-3.71h0a1.43,1.43,0,0,0-1,.41,1.37,1.37,0,0,0-.41,1V41.13a1.4,1.4,0,0,0,1.39,1.4,30.71,30.71,0,0,1,10.4,2l.6.24H14.25a.54.54,0,0,1-.54-.54V21.55h.6a.79.79,0,1,0,0-1.57H12.92a.78.78,0,0,0-.78.78V44.27a2.11,2.11,0,0,0,2.11,2.12h35.5a2.11,2.11,0,0,0,2.11-2.12V20.76A.78.78,0,0,0,51.08,20ZM31.21,44.26l-.18-.1A31.33,31.33,0,0,0,18,41h-.12V19.19H18a29.17,29.17,0,0,1,13.13,3.48l.06,0Zm1.58,0V22.71l.06,0A29.17,29.17,0,0,1,46,19.19h.13V41H46a31.33,31.33,0,0,0-13,3.2Z"/></g></svg>