<svg xmlns="http://www.w3.org/2000/svg" preserveAspectRatio="xMinYMid" viewbox="0 0 64 64"><defs><style>.cls-1,.cls-2{fill:#0065ab;}.cls-2{stroke:#0065ab;stroke-miterlimit:10;stroke-width:0.75px;}</style></defs><title>estilos iconos paraeducaand_escolares</title><g id="elements"><path class="cls-1" d="M32,63.9A31.9,31.9,0,1,1,63.9,32,31.94,31.94,0,0,1,32,63.9ZM32,3.05A29,29,0,1,0,61,32,29,29,0,0,0,32,3.05Z"/><path class="cls-2" d="M39,10.63c0-2.74-.55-3.66-.67-3.82l-.21-.29H25.84l-.21.29C25.51,7,25,7.89,25,10.63a34.68,34.68,0,0,0,1.77,8.77,3.75,3.75,0,0,0-.6,2.29,5.93,5.93,0,0,0,.45,2.45l0,9,.21,24.32h1.41l-.06-7.18L28,33.15,28,24v-.21l-.1-.17a4.08,4.08,0,0,1-.34-1.89,2.45,2.45,0,0,1,.34-1.51h0l.5-.28-.19-.55c0-.05-1.82-5.42-1.82-8.72a9.57,9.57,0,0,1,.29-2.7H37.34a9.57,9.57,0,0,1,.29,2.7c0,3.3-1.81,8.67-1.82,8.72l-.19.55.5.28h0a2.45,2.45,0,0,1,.34,1.51,4.08,4.08,0,0,1-.34,1.89l-.1.17V24l0,9.19-.15,17.14-.06,7.18h1.41l.21-24.32,0-9a5.93,5.93,0,0,0,.45-2.45,3.75,3.75,0,0,0-.6-2.29A34.68,34.68,0,0,0,39,10.63Z"/><path class="cls-2" d="M31.13,35.66a1.23,1.23,0,1,1,0,1.74A1.23,1.23,0,0,1,31.13,35.66Z"/><path class="cls-2" d="M31.13,30.11a1.23,1.23,0,1,1,0,1.74A1.23,1.23,0,0,1,31.13,30.11Z"/><path class="cls-2" d="M31.13,41.38a1.23,1.23,0,1,1,0,1.74A1.23,1.23,0,0,1,31.13,41.38Z"/><path class="cls-2" d="M31.13,47.09a1.23,1.23,0,1,1,0,1.74A1.23,1.23,0,0,1,31.13,47.09Z"/><path class="cls-2" d="M31.13,52.81a1.23,1.23,0,1,1,0,1.74A1.23,1.23,0,0,1,31.13,52.81Z"/><path class="cls-2" d="M32,15.67c-2,0-2.39-.65-2.39-.65l.71-3.66h3.36L34.39,15S34,15.67,32,15.67Z"/></g></svg>