<svg xmlns="http://www.w3.org/2000/svg" preserveAspectRatio="xMinYMid" viewbox="0 0 64 64"><defs><style>.cls-1{fill:#5baf07;}</style></defs><title>estilos iconos paraeducaand_escolares</title><g id="back"><path class="cls-1" d="M61.74,26.47,37.67,2.39A7.86,7.86,0,0,0,32.1.09h0A7.87,7.87,0,0,0,26.51,2.4L2.4,26.52a7.89,7.89,0,0,0,0,11.15L26.47,61.75a7.89,7.89,0,0,0,11.15,0L61.74,37.62A7.89,7.89,0,0,0,61.74,26.47Zm-2.2,9L35.43,59.54A4.76,4.76,0,0,1,32,61h0a4.75,4.75,0,0,1-3.38-1.4L4.59,35.48a4.8,4.8,0,0,1,0-6.77L28.71,4.6a4.73,4.73,0,0,1,3.38-1.4h0a4.73,4.73,0,0,1,3.37,1.39L59.55,28.67A4.78,4.78,0,0,1,59.54,35.43Z"/></g><g id="elements"><path class="cls-1" d="M29.68,15.28h.67a.5.5,0,0,0,.5-.5V12.6l1.86,2.48a.54.54,0,0,0,.4.2h.71a.5.5,0,0,0,.5-.5V10a.5.5,0,0,0-.5-.5h-.66a.5.5,0,0,0-.5.5v2.14L30.85,9.72a.54.54,0,0,0-.41-.2h-.76a.51.51,0,0,0-.5.5v4.76A.51.51,0,0,0,29.68,15.28Z"/><path class="cls-1" d="M33.24,51.38h0a2.09,2.09,0,0,0-.5-.37,3.84,3.84,0,0,0-.57-.26l-.39-.16a1.3,1.3,0,0,1-.21-.12l-.06-.09h0l.12-.14a1.07,1.07,0,0,1,.41,0l.26.06.25.07.19.08.72.34V49l-.31-.13a3,3,0,0,0-.58-.19,2.81,2.81,0,0,0-1.49,0,2,2,0,0,0-.65.35,1.65,1.65,0,0,0-.46.58,1.85,1.85,0,0,0,0,1.43,1.54,1.54,0,0,0,.35.52,1.94,1.94,0,0,0,.51.36l.58.26.37.15a1.2,1.2,0,0,1,.2.11l.06.14h0a.25.25,0,0,1,0,.16l-.09.05a.73.73,0,0,1-.41,0l-.3-.08-.28-.13-.21-.12-.79-.58v2l.22.15.34.18a2.64,2.64,0,0,0,.37.13l.42.08a3.11,3.11,0,0,0,.43,0,2.54,2.54,0,0,0,.86-.14,1.85,1.85,0,0,0,.66-.41,1.64,1.64,0,0,0,.41-.62,2,2,0,0,0,.14-.73,1.74,1.74,0,0,0-.12-.67A1.69,1.69,0,0,0,33.24,51.38Z"/><polygon class="cls-1" points="51.77 32.79 51.77 31.18 50.1 31.18 50.1 30.74 51.76 30.74 51.76 29.12 48.39 29.12 48.39 34.88 51.77 34.88 51.77 33.27 50.1 33.27 50.1 32.79 51.77 32.79"/><path class="cls-1" d="M12.63,29.07c-1.42,0-2.34,1.15-2.34,2.93s.92,3,2.34,3S15,33.8,15,32,14,29.07,12.63,29.07Zm0,4.26c-.41,0-.59-.67-.59-1.33s.16-1.3.59-1.3.59.7.59,1.3S13,33.33,12.63,33.33Z"/><path class="cls-1" d="M32,16.41A15.59,15.59,0,1,0,47.59,32,15.62,15.62,0,0,0,32,16.41ZM45.37,32A13.37,13.37,0,1,1,32,18.63,13.39,13.39,0,0,1,45.37,32Z"/><path class="cls-1" d="M33.5,20.07a.5.5,0,0,0-.37.12.48.48,0,0,0-.16.35v1.23a.48.48,0,0,0,.41.47,9.87,9.87,0,0,1,8.42,8.6V31a.47.47,0,0,0,.47.41h1.23a.47.47,0,0,0,.35-.15.5.5,0,0,0,.12-.37l0-.16A12,12,0,0,0,33.5,20.07Z"/><path class="cls-1" d="M20.49,31.38h1.23a.47.47,0,0,0,.47-.41v-.13a9.87,9.87,0,0,1,8.42-8.6.48.48,0,0,0,.41-.47V20.54a.48.48,0,0,0-.16-.35.5.5,0,0,0-.37-.12A12,12,0,0,0,20,30.7l0,.16a.5.5,0,0,0,.12.37A.47.47,0,0,0,20.49,31.38Z"/><path class="cls-1" d="M30.62,41.76a9.87,9.87,0,0,1-8.42-8.59V33a.47.47,0,0,0-.47-.41H20.49a.47.47,0,0,0-.35.15.49.49,0,0,0-.12.37l0,.16A12,12,0,0,0,30.5,43.93h.06a.47.47,0,0,0,.31-.12.48.48,0,0,0,.16-.35V42.23A.47.47,0,0,0,30.62,41.76Z"/><path class="cls-1" d="M43.51,32.62H42.28a.47.47,0,0,0-.47.41v.14a9.87,9.87,0,0,1-8.42,8.59.47.47,0,0,0-.41.47v1.23a.48.48,0,0,0,.16.35.47.47,0,0,0,.31.12h.06A12,12,0,0,0,44,33.3l0-.16a.49.49,0,0,0-.12-.37A.47.47,0,0,0,43.51,32.62Z"/><path class="cls-1" d="M34,33.33l2.2-6.22a.41.41,0,0,0-.16-.49.41.41,0,0,0-.51,0l-4.91,4.41a.45.45,0,0,0-.11.17l-2.2,6.22a.41.41,0,0,0,.16.49.39.39,0,0,0,.23.07.38.38,0,0,0,.28-.11l4.91-4.41A.45.45,0,0,0,34,33.33Z"/></g></svg>