<svg xmlns="http://www.w3.org/2000/svg" preserveAspectRatio="xMinYMid" viewbox="0 0 60 60"><defs><style>.cls-1{fill:#0065ab;}</style></defs><title>nuevos iconos_</title><g id="elements"><path class="cls-1" d="M30.08,60A29.92,29.92,0,1,1,60,30.08,30,30,0,0,1,30.08,60Zm0-57.07A27.15,27.15,0,1,0,57.23,30.08,27.18,27.18,0,0,0,30.08,2.93Z"/><path class="cls-1" d="M30.93,32.56A2.56,2.56,0,1,0,28.38,30,2.56,2.56,0,0,0,30.93,32.56Z"/><path class="cls-1" d="M23.15,32.56A2.56,2.56,0,1,0,20.59,30,2.56,2.56,0,0,0,23.15,32.56Z"/><path class="cls-1" d="M38.72,32.56A2.56,2.56,0,1,0,36.17,30,2.55,2.55,0,0,0,38.72,32.56Z"/><path class="cls-1" d="M49.79,30c0-8.79-8.46-15.94-18.86-15.94S12.08,21.22,12.08,30a14.08,14.08,0,0,0,3.14,8.78L13.1,46.18a1.33,1.33,0,0,0,.46,1.42,1.33,1.33,0,0,0,1.48.12L21.83,44a21.66,21.66,0,0,0,9.1,2C41.33,45.94,49.79,38.79,49.79,30ZM18,38.85a1.33,1.33,0,0,0-.28-1.24A11.57,11.57,0,0,1,14.75,30c0-7.31,7.26-13.26,16.18-13.26S47.11,22.7,47.11,30,39.86,43.27,30.93,43.27a18.8,18.8,0,0,1-8.53-2,1.34,1.34,0,0,0-1.26,0l-4.58,2.55Z"/></g></svg>