<svg xmlns="http://www.w3.org/2000/svg" preserveAspectRatio="xMinYMid" viewbox="0 0 64 64"><defs><style>.cls-1{fill:#a25ac4;}</style></defs><title>estilos iconos paraeducaand_escolares</title><g id="back"><path class="cls-1" d="M61.12,2.93A9.74,9.74,0,0,0,54.2.07H9.8A9.78,9.78,0,0,0,0,9.83V54.17A9.76,9.76,0,0,0,9.8,63.93H54.2A9.78,9.78,0,0,0,64,54.17V9.83A9.66,9.66,0,0,0,61.12,2.93Zm-.18,6.9V54.17a6.74,6.74,0,0,1-6.74,6.72H9.8a6.73,6.73,0,0,1-6.73-6.72V9.83A6.75,6.75,0,0,1,9.8,3.11H54.2a6.74,6.74,0,0,1,6.74,6.72Z"/></g><g id="elements"><path class="cls-1" d="M48.32,32.5l-2.71-5V24.2a15.15,15.15,0,0,0-30.3,0v2.55a15.63,15.63,0,0,0,2.75,8.87v11a1,1,0,0,0,.46,1l.73.36.13.06,15.87,6.9a1.24,1.24,0,0,0,.5.1,1.2,1.2,0,0,0,1.2-1.2V45.63a.1.1,0,0,1,.1-.1H39.7a5.92,5.92,0,0,0,5.91-5.91V36.88h.1a3,3,0,0,0,2.61-4.38Zm-17.86-21A12.75,12.75,0,0,1,43.2,24.2v3.66a1.14,1.14,0,0,0,.15.58l2.86,5.22a.55.55,0,0,1-.48.81H44.41a1.23,1.23,0,0,0-1.21,1.21v3.95a3.5,3.5,0,0,1-3.5,3.5H37.05a2.51,2.51,0,0,0-2.51,2.51v6.26l-13.78-6-.26-.12,0-10.54a1.18,1.18,0,0,0-.23-.71,13.19,13.19,0,0,1-2.52-7.78V24.2A12.75,12.75,0,0,1,30.46,11.46Z"/><path class="cls-1" d="M21.71,27.69l.33,0-.21.27a2.43,2.43,0,0,0,.07,3.23l1.55,1.55a2.44,2.44,0,0,0,3.24.07l.26-.21L27,33a2.44,2.44,0,0,0,2.34,2.24h2.19A2.43,2.43,0,0,0,33.85,33l0-.34.27.21a2.44,2.44,0,0,0,3.24-.07L39,31.23A2.43,2.43,0,0,0,39,28l-.21-.27.34,0a2.44,2.44,0,0,0,2.24-2.33v-2.2a2.43,2.43,0,0,0-2.24-2.33l-.34,0,.21-.27A2.45,2.45,0,0,0,39,17.28L37.4,15.74a2.44,2.44,0,0,0-3.24-.07l-.27.21,0-.34a2.43,2.43,0,0,0-2.33-2.24H29.33A2.44,2.44,0,0,0,27,15.54l0,.34-.27-.21a2.42,2.42,0,0,0-3.23.07L21.9,17.28a2.46,2.46,0,0,0-.07,3.24l.21.27-.33,0a2.44,2.44,0,0,0-2.25,2.33v2.2A2.44,2.44,0,0,0,21.71,27.69Zm1.42-4.6a1.2,1.2,0,0,0,1-.83,7.21,7.21,0,0,1,.43-1,1.2,1.2,0,0,0-.12-1.3l-.71-.9a.64.64,0,0,1-.06-.1l1.42-1.42a.19.19,0,0,1,.1,0l.9.71a1.21,1.21,0,0,0,1.3.13,6.08,6.08,0,0,1,1-.43,1.2,1.2,0,0,0,.83-1l.14-1.13a.35.35,0,0,1,0-.12h2a1,1,0,0,1,0,.12L31.59,17a1.22,1.22,0,0,0,.84,1,6.49,6.49,0,0,1,1,.43,1.23,1.23,0,0,0,1.31-.13l.9-.71a.16.16,0,0,1,.1,0l1.42,1.41a.41.41,0,0,1-.06.11l-.71.9a1.2,1.2,0,0,0-.12,1.3,6.18,6.18,0,0,1,.42,1,1.22,1.22,0,0,0,1,.83l1.14.13.11,0v2l-.11,0-1.14.13a1.22,1.22,0,0,0-1,.83,6.55,6.55,0,0,1-.42,1,1.2,1.2,0,0,0,.12,1.3l.71.9.06.1L35.76,31l-.1-.05-.9-.71a1.21,1.21,0,0,0-1.31-.13,7.09,7.09,0,0,1-1,.43,1.22,1.22,0,0,0-.84,1l-.13,1.13a1,1,0,0,1,0,.12h-2a.35.35,0,0,1,0-.12l-.14-1.13a1.2,1.2,0,0,0-.83-1,6.6,6.6,0,0,1-1-.43,1.23,1.23,0,0,0-1.3.13l-.9.71-.1.05-1.42-1.42a.28.28,0,0,1,.06-.1l.71-.9a1.2,1.2,0,0,0,.12-1.3,7.72,7.72,0,0,1-.43-1,1.2,1.2,0,0,0-1-.83L22,25.3a.23.23,0,0,1-.11,0v-2a.23.23,0,0,1,.11,0Z"/><path class="cls-1" d="M30.42,29.05a4.79,4.79,0,1,0-4.79-4.79A4.8,4.8,0,0,0,30.42,29.05ZM28,24.26a2.39,2.39,0,1,1,4.07,1.68h0A2.38,2.38,0,0,1,28,24.26Z"/></g></svg>