<svg id="back" xmlns="http://www.w3.org/2000/svg" preserveAspectRatio="xMinYMid" viewbox="0 0 64 64"><defs><style>.cls-1{fill:#5baf07;}</style></defs><title>estilos iconos paraeducaand_escolares</title><path class="cls-1" d="M20.32,29.4a2,2,0,0,0,0,3.9A10.4,10.4,0,0,1,30.7,43.68a1.95,1.95,0,0,0,3.9,0A14.3,14.3,0,0,0,20.32,29.4Z"/><path class="cls-1" d="M20.32,18.37a1.95,1.95,0,0,0,0,3.9A21.44,21.44,0,0,1,41.73,43.68a2,2,0,0,0,3.9,0A25.33,25.33,0,0,0,20.32,18.37Z"/><path class="cls-1" d="M21,40.43a2.6,2.6,0,1,0,2.6,2.6A2.61,2.61,0,0,0,21,40.43Z"/><path class="cls-1" d="M61.68,26.4,37.6,2.32A7.84,7.84,0,0,0,32,0h0a7.83,7.83,0,0,0-5.57,2.31L2.33,26.45a7.89,7.89,0,0,0,0,11.15L26.4,61.68a7.89,7.89,0,0,0,11.15,0L61.67,37.55A7.89,7.89,0,0,0,61.68,26.4Zm-2.21,9L35.36,59.47A4.78,4.78,0,0,1,32,60.88h0a4.73,4.73,0,0,1-3.37-1.4L4.52,35.41a4.8,4.8,0,0,1,0-6.77L28.64,4.53A4.76,4.76,0,0,1,32,3.12h0a4.77,4.77,0,0,1,3.38,1.4L59.48,28.6A4.78,4.78,0,0,1,59.47,35.36Z"/></svg>