<svg xmlns="http://www.w3.org/2000/svg" xmlns:xlink="http://www.w3.org/1999/xlink" preserveAspectRatio="xMinYMid" viewbox="0 0 60 60"><defs><style>.cls-1,.cls-3{fill:none;}.cls-2{clip-path:url(#clip-path);}.cls-3{stroke:#a359c4;stroke-width:2.81px;}.cls-4{fill:#a359c4;}</style><clipPath id="clip-path"><rect class="cls-1" y="0.05" width="59.95" height="59.85"/></clipPath></defs><title>nuevos iconos_</title><g id="elements"><g class="cls-2"><path class="cls-3" d="M26.19,38.18a6.39,6.39,0,1,0-6.26-6.39A6.32,6.32,0,0,0,26.19,38.18Z"/><path class="cls-4" d="M11,50.39A4.43,4.43,0,1,0,6.53,46,4.43,4.43,0,0,0,11,50.39"/></g><rect class="cls-4" x="9.17" y="40.36" width="13.32" height="1.71" transform="translate(-24.66 23.63) rotate(-45.51)"/><g class="cls-2"><path class="cls-4" d="M41.77,16.36a4.43,4.43,0,1,0-4.94-3.86,4.43,4.43,0,0,0,4.94,3.86"/></g><rect class="cls-4" x="26.04" y="17.95" width="19.9" height="1.71" transform="translate(-0.84 35.91) rotate(-52.5)"/><g class="cls-2"><path class="cls-4" d="M9.2,21.12a4.43,4.43,0,1,0-4.94-3.86A4.43,4.43,0,0,0,9.2,21.12"/></g><rect class="cls-4" x="13.74" y="12.75" width="1.71" height="16.94" transform="translate(-11.13 19.89) rotate(-52.5)"/><g class="cls-2"><path class="cls-4" d="M46.89,52.43A4.44,4.44,0,1,0,42.46,48a4.43,4.43,0,0,0,4.43,4.44"/></g><rect class="cls-4" x="38.86" y="32.3" width="1.71" height="19.9" transform="matrix(0.63, -0.78, 0.78, 0.63, -18.12, 46.53)"/><g class="cls-2"><path class="cls-4" d="M54.74,29.93a4.43,4.43,0,1,0-6.24.66,4.43,4.43,0,0,0,6.24-.66"/></g><rect class="cls-4" x="32.37" y="28.25" width="19.9" height="1.71" transform="translate(-5.13 9.44) rotate(-12.01)"/><g class="cls-2"><path class="cls-4" d="M57.1,9.2V50.75a6.31,6.31,0,0,1-6.31,6.3H9.17a6.28,6.28,0,0,1-6.31-6.3V9.2A6.31,6.31,0,0,1,9.17,2.9H50.79A6.32,6.32,0,0,1,57.1,9.2m.17-6.47A9.12,9.12,0,0,0,50.79.05H9.17A9.17,9.17,0,0,0,0,9.2V50.75A9.15,9.15,0,0,0,9.17,59.9H50.79A9.16,9.16,0,0,0,60,50.75V9.2a9.08,9.08,0,0,0-2.68-6.47"/></g></g></svg>