<svg xmlns="http://www.w3.org/2000/svg" preserveAspectRatio="xMinYMid" viewbox="0 0 64 64"><defs><style>.cls-1{fill:#0065ab;}</style></defs><title>estilos iconos paraeducaand_escolares</title><g id="elements"><path class="cls-1" d="M28,32.5a2.11,2.11,0,1,0-2.1-2.1A2.1,2.1,0,0,0,28,32.5Z"/><path class="cls-1" d="M21.57,32.5a2.11,2.11,0,1,0-2.1-2.1A2.11,2.11,0,0,0,21.57,32.5Z"/><path class="cls-1" d="M34.41,32.5a2.11,2.11,0,1,0-2.11-2.1A2.1,2.1,0,0,0,34.41,32.5Z"/><path class="cls-1" d="M43.53,30.4c0-7.25-7-13.14-15.54-13.14S12.45,23.15,12.45,30.4A11.64,11.64,0,0,0,15,37.64L13.3,43.73a1.1,1.1,0,0,0,1,1.4,1.11,1.11,0,0,0,.54-.14l5.6-3.1A17.88,17.88,0,0,0,28,43.53C36.56,43.53,43.53,37.64,43.53,30.4ZM17.31,37.69a1.1,1.1,0,0,0-.22-1,9.6,9.6,0,0,1-2.44-6.27c0-6,6-10.93,13.34-10.93s13.34,4.9,13.34,10.93S35.34,41.33,28,41.33a15.5,15.5,0,0,1-7-1.67,1.08,1.08,0,0,0-1,0l-3.78,2.1Z"/><path class="cls-1" d="M50.5,40.63a10.55,10.55,0,0,0,1-4.62,10.71,10.71,0,0,0-5.72-9.49,1.1,1.1,0,1,0-1,1.95A8.51,8.51,0,0,1,48.37,40a1.06,1.06,0,0,0-.1.74l.67,3.13-2.28-.91a1.11,1.11,0,0,0-1,.12,8.67,8.67,0,0,1-9.48.09,1.14,1.14,0,0,0-.83-.16A1.1,1.1,0,0,0,35,45a10.9,10.9,0,0,0,11.42.21L50,46.66a1.15,1.15,0,0,0,.41.08,1.09,1.09,0,0,0,.71-.26,1.13,1.13,0,0,0,.37-1.08Z"/><path class="cls-1" d="M32,63.9A31.9,31.9,0,1,1,63.9,32,31.94,31.94,0,0,1,32,63.9ZM32,3.05A29,29,0,1,0,61,32,29,29,0,0,0,32,3.05Z"/></g></svg>