<svg xmlns="http://www.w3.org/2000/svg" preserveAspectRatio="xMinYMid" viewbox="0 0 64 64"><defs><style>.cls-1{fill:#a25ac4;}</style></defs><title>estilos iconos paraeducaand_escolares</title><g id="back"><path class="cls-1" d="M61.12,2.93A9.74,9.74,0,0,0,54.2.07H9.8A9.78,9.78,0,0,0,0,9.83V54.17A9.76,9.76,0,0,0,9.8,63.93H54.2A9.78,9.78,0,0,0,64,54.17V9.83A9.66,9.66,0,0,0,61.12,2.93Zm-.18,6.9V54.17a6.74,6.74,0,0,1-6.74,6.72H9.8a6.73,6.73,0,0,1-6.73-6.72V9.83A6.75,6.75,0,0,1,9.8,3.11H54.2a6.74,6.74,0,0,1,6.74,6.72Z"/></g><g id="elements"><path class="cls-1" d="M49.87,33.45a1.19,1.19,0,0,0-.8-.47,1.25,1.25,0,0,0-.9.23,1.23,1.23,0,0,0-.47.8,1.21,1.21,0,0,0,.23.9c2.64,3.49,3.64,6.6,2.62,8.14-2,3-11.84,1.28-22.77-6A47.57,47.57,0,0,1,15.69,26c-2.39-3.31-3.23-6.16-2.25-7.63s4.46-1.84,8.9-.64A1.22,1.22,0,0,0,23,15.4c-5.67-1.52-9.83-.93-11.54,1.64s-.79,6.11,2.3,10.4A50.25,50.25,0,0,0,26.43,39.09c7.31,4.85,14.85,7.75,20.18,7.75,2.84,0,4.9-.85,6-2.45C54.26,41.86,53.3,38,49.87,33.45Z"/><path class="cls-1" d="M16.28,24.72l-.23.41,2.13,1.15.23-.41a14,14,0,0,1,.95-1.5,2.11,2.11,0,0,0,1,1.43,3.71,3.71,0,0,0,3.27-.11,6.75,6.75,0,0,1,.8-.26l.06.33c.2,1.23.51,3.09,2.43,3.73a2.71,2.71,0,0,0,1.95-.27l.36-.15.86.27a10.52,10.52,0,0,0,2.13.54,4.94,4.94,0,0,0,.68.05,3.91,3.91,0,0,0,3.19-1.43,2.4,2.4,0,0,0,.51-1.9,2.79,2.79,0,0,0-1.86-1.93,3.39,3.39,0,0,1-.57-.31.59.59,0,0,1-.21-.58.64.64,0,0,1,.57-.43,4.52,4.52,0,0,0,1.33-.24,2.82,2.82,0,0,0,1.44-2.35,4.64,4.64,0,0,1,.4-.56,14.38,14.38,0,0,1,6.77,8.16,4.09,4.09,0,0,0-4,1.45c-.78,1-3.75,1.35-4.12,1.35a4.13,4.13,0,0,0-2.28.05A3.88,3.88,0,0,0,32,33.5a2.81,2.81,0,0,0-.07,2.18c.67,1.66,2.44,1.79,3.5,1.87a1.81,1.81,0,0,1,1.58.81,2.18,2.18,0,0,0,.92,2.49,3.82,3.82,0,0,0,2.25.77,2.69,2.69,0,0,0,2-.84A3.46,3.46,0,0,0,43,39.16L42.55,39H43s0,0,0,0,.31.11.59.23a13.91,13.91,0,0,1-1.47,2.29l-.29.37,1.9,1.51.29-.37A16.5,16.5,0,0,0,47.6,32.74a16.69,16.69,0,0,0-31.32-8Zm15.35-1.55a3,3,0,0,0,1.11,3.14,5.66,5.66,0,0,0,1,.56l.4.2a1.68,1.68,0,0,1-1.26.43l-.35,0A9.88,9.88,0,0,1,30.82,27c-.34-.11-.69-.23-1-.32a1.71,1.71,0,0,0-.5-.06A3.47,3.47,0,0,0,27.9,27c-.09,0-.21.09-.32.12-.35-.19-.49-.66-.69-1.8a6.2,6.2,0,0,0-.38-1.54l-.21-.46-.47-.19a4.23,4.23,0,0,0-3,.27,4.85,4.85,0,0,1-1.1.33h0a4.35,4.35,0,0,1,.33-2h0a.83.83,0,0,0,0-.15,14.49,14.49,0,0,1,13.19-2.39,10,10,0,0,0-.33,1.16,3.7,3.7,0,0,1-.13.59l-.38,0-.32,0A3.07,3.07,0,0,0,31.63,23.17Zm7.52,14.11a4.09,4.09,0,0,0-3.58-2.15c-.67-.05-1.33-.12-1.42-.36a.42.42,0,0,1,.05-.3c.33-.77.62-.94.72-1a2.67,2.67,0,0,1,1,.07l.47.08a6.68,6.68,0,0,0,6-2.29A2.7,2.7,0,0,1,45.24,31c0,.34-.06,1.09-.06,1.72a14.23,14.23,0,0,1-.62,4.17l-.42-.23a1.75,1.75,0,0,0-1.5-.37,2.44,2.44,0,0,0-1.76,1.5,4.31,4.31,0,0,0-.22.7,1.92,1.92,0,0,1-.25.62.6.6,0,0,1-.44,0,1.4,1.4,0,0,1-.59-.26A2.27,2.27,0,0,0,39.15,37.28Z"/><path class="cls-1" d="M37.19,45.55a14.29,14.29,0,0,1-7.5,1.4,4.85,4.85,0,0,0,.73-1.43,3.17,3.17,0,0,0-1-3.45,3.39,3.39,0,0,0-2.66-.56,2.24,2.24,0,0,0-1.56.75,1.51,1.51,0,0,0-.15.28,1.15,1.15,0,0,1-.24-.4,3.74,3.74,0,0,0-2.91-2.56,3.13,3.13,0,0,0-4.49-2.29,14,14,0,0,1-.75-4.55c0-.25,0-.48,0-.7l0-.47-2.43-.13,0,.47c0,.28,0,.56,0,.83A16.71,16.71,0,0,0,30.91,49.43a16.5,16.5,0,0,0,7.36-1.71l.42-.2-1.08-2.17Zm-9.1-.73h0a4,4,0,0,1-1,1.45,1,1,0,0,0-.13.17,14.3,14.3,0,0,1-8.59-6.91.72.72,0,0,1,1.14.6,1.93,1.93,0,0,0,.32,1.08,1.78,1.78,0,0,0,1.26.71l.18.06c.81.37,1.16.72,1.23.93A3.39,3.39,0,0,0,25,45.18a2,2,0,0,0,2.32-1.34A1,1,0,0,1,28,44,.78.78,0,0,1,28.09,44.82Z"/></g></svg>