<svg xmlns="http://www.w3.org/2000/svg" preserveAspectRatio="xMinYMid" viewbox="0 0 63.96 63.86"><defs><style>.cls-1,.cls-2{fill:#a25ac4;}.cls-2{stroke:#a25ac4;stroke-miterlimit:10;stroke-width:0.5px;}</style></defs><title>estilos iconos paraeducaand_escolares</title><g id="back"><path class="cls-1" d="M61.1,2.86A9.74,9.74,0,0,0,54.18,0H9.78A9.78,9.78,0,0,0,0,9.76V54.09a9.76,9.76,0,0,0,9.78,9.77h44.4A9.78,9.78,0,0,0,64,54.09V9.76A9.66,9.66,0,0,0,61.1,2.86Zm-.18,6.9V54.09a6.74,6.74,0,0,1-6.74,6.73H9.78a6.73,6.73,0,0,1-6.73-6.73V9.76A6.74,6.74,0,0,1,9.78,3h44.4a6.74,6.74,0,0,1,6.74,6.72Z"/></g><g id="elements"><path class="cls-2" d="M45.64,25.29a4.74,4.74,0,0,0-3.36-1.42h0a.72.72,0,0,0-.72.7.71.71,0,0,0,.21.51.67.67,0,0,0,.5.21,3.37,3.37,0,0,1,1.25.26,3.32,3.32,0,0,1,1.11.74,3.54,3.54,0,0,1,.74,1.11,3.19,3.19,0,0,1,.26,1.26.7.7,0,0,0,.22.5.68.68,0,0,0,.49.2h0a.73.73,0,0,0,.5-.21.69.69,0,0,0,.2-.51,4.75,4.75,0,0,0-.36-1.78A4.92,4.92,0,0,0,45.64,25.29Z"/><path class="cls-2" d="M48.45,22.47a8.86,8.86,0,0,0-6.21-2.62h0a.72.72,0,0,0-.5.2.71.71,0,0,0-.21.5.74.74,0,0,0,.2.51.73.73,0,0,0,.5.21,7.3,7.3,0,0,1,2.77.57,7.38,7.38,0,0,1,2.45,1.64,7.4,7.4,0,0,1,2.21,5.22.72.72,0,0,0,.22.5.7.7,0,0,0,.5.2h0a.7.7,0,0,0,.5-.2.72.72,0,0,0,.21-.52,8.78,8.78,0,0,0-.68-3.3A9.13,9.13,0,0,0,48.45,22.47Z"/><path class="cls-2" d="M54.11,23.91a12.89,12.89,0,0,0-2.84-4.25A13.12,13.12,0,0,0,47,16.81a12.85,12.85,0,0,0-4.81-1h0a.7.7,0,0,0-.5.2.71.71,0,0,0-.21.51.7.7,0,0,0,.2.5.72.72,0,0,0,.5.22,11.49,11.49,0,0,1,4.29.87,11.67,11.67,0,0,1,3.79,2.55,11.59,11.59,0,0,1,3.42,8.07.71.71,0,0,0,.21.5.69.69,0,0,0,.5.21h0a.71.71,0,0,0,.49-.21h0a.71.71,0,0,0,.21-.51A12.9,12.9,0,0,0,54.11,23.91Z"/><path class="cls-2" d="M39.38,27A8.82,8.82,0,0,0,34,25.45a9.75,9.75,0,0,0-3.95.72,9.17,9.17,0,0,0-2.91,2.14l-.58.64-.45-.73a4.77,4.77,0,0,0-1.87-1.77,12.84,12.84,0,0,0-5.5-1,12.62,12.62,0,0,0-4.69.79,6.75,6.75,0,0,0-3,2.1,9.15,9.15,0,0,0-1.43,3l2.44.29a6.82,6.82,0,0,1,1-2.33,4.52,4.52,0,0,1,2.21-1.51,10.49,10.49,0,0,1,3.38-.49c2.08,0,3.52.42,4.41,1.27s1.33,2.26,1.33,4.28c0,.23,0,.54,0,.9l0,.48-.46.13a40.14,40.14,0,0,1-5.52,1.07,23.36,23.36,0,0,0-5.9,1.33A6.11,6.11,0,0,0,9.82,39a5.56,5.56,0,0,0-1,3.12,5.45,5.45,0,0,0,1.85,4.16A7.61,7.61,0,0,0,16,48a11.28,11.28,0,0,0,4.68-1A15.31,15.31,0,0,0,25,44l.53-.52L26,44a10.09,10.09,0,0,0,3.49,3A9.9,9.9,0,0,0,34,48a9.71,9.71,0,0,0,6-1.83,9.54,9.54,0,0,0,3.19-4.48l-2.7-.35a7,7,0,0,1-2.18,3.36,6.39,6.39,0,0,1-4.18,1.42,7.43,7.43,0,0,1-3.81-1,6.55,6.55,0,0,1-2.55-2.6A11.21,11.21,0,0,1,27,37.74v-.66H43.5c0-.28,0-.5,0-.66a14.79,14.79,0,0,0-1-5.24A9.09,9.09,0,0,0,39.38,27ZM24.47,36.7a21.38,21.38,0,0,1-.34,4.83A6.37,6.37,0,0,1,21.46,45a8.26,8.26,0,0,1-4.68,1.34A5.38,5.38,0,0,1,13,45.07a4,4,0,0,1-1.35-3,3.87,3.87,0,0,1,1.51-3.16,8.06,8.06,0,0,1,3.6-1.24,35.69,35.69,0,0,0,6.78-1.52l.91-.4Zm2.44-1.5,0-.7a7.85,7.85,0,0,1,2.12-5.24A6.71,6.71,0,0,1,34,27.34,6.54,6.54,0,0,1,38.7,29.1a8.3,8.3,0,0,1,2.14,5.39l.06.71Z"/></g></svg>