<svg xmlns="http://www.w3.org/2000/svg" preserveAspectRatio="xMinYMid" viewbox="0 0 64 64"><defs><style>.cls-1{fill:#0065ab;}</style></defs><title>estilos iconos paraeducaand_escolares</title><g id="elements"><path class="cls-1" d="M46.54,16.65a5,5,0,0,1,4.1,1.93,5.53,5.53,0,0,1,.87,3.73l-1.44-1a.83.83,0,0,0-1.17.19.85.85,0,0,0-.15.62.82.82,0,0,0,.34.54l2.76,2a.79.79,0,0,0,.41.15h.08a.85.85,0,0,0,.57-.22L55.5,22.1a.82.82,0,0,0,0-1.18.84.84,0,0,0-.59-.27,1,1,0,0,0-.59.23L53.21,22A6.92,6.92,0,0,0,52,17.57,6.51,6.51,0,0,0,46.38,15a.82.82,0,0,0-.56.3.83.83,0,0,0,.12,1.18A.82.82,0,0,0,46.54,16.65Z"/><path class="cls-1" d="M18.61,39.14a1,1,0,0,0,.48-.12l2.24-1.23a1,1,0,0,0,.39-1.35,1,1,0,0,0-.6-.47.94.94,0,0,0-.75.08l-2.24,1.23a1,1,0,0,0,.48,1.86Z"/><path class="cls-1" d="M24.57,35.87a1,1,0,0,0,.48-.12l2.23-1.23a1,1,0,0,0,.39-1.35,1,1,0,0,0-.59-.48,1,1,0,0,0-.76.09L24.09,34a1,1,0,0,0-.39,1.35A1,1,0,0,0,24.57,35.87Z"/><path class="cls-1" d="M36.47,29.32a1,1,0,0,0,.48-.13L39.18,28a1,1,0,0,0,.48-.6,1,1,0,0,0-.08-.75,1,1,0,0,0-.6-.48,1,1,0,0,0-.75.08L36,27.45a1,1,0,0,0-.47.6.94.94,0,0,0,.08.75A1,1,0,0,0,36.47,29.32Z"/><path class="cls-1" d="M30.52,32.59a1,1,0,0,0,.48-.12l2.23-1.23a1,1,0,0,0,.48-.59,1,1,0,0,0-.09-.76.93.93,0,0,0-.59-.47,1,1,0,0,0-.76.08L30,30.73a1,1,0,0,0,.48,1.86Z"/><path class="cls-1" d="M12.66,42.42a1,1,0,0,0,.48-.12l2.23-1.23a1,1,0,0,0,.48-.59,1,1,0,0,0-.09-.76,1,1,0,0,0-1.35-.39l-2.23,1.22a1,1,0,0,0-.47.6,1,1,0,0,0,.08.76A1,1,0,0,0,12.66,42.42Z"/><path class="cls-1" d="M60.43,40.09l-6.18,5.18,0,0-.08.14-.12.1,0,0L45.12,59.69a.87.87,0,0,1-1.21.28l-.63-.39A.89.89,0,0,1,43,58.35l4.88-10.18L48,48l-1.26-.83-.1-.12-13.28,9.4a.87.87,0,0,1-1.22-.19l-.44-.6a.88.88,0,0,1,.19-1.24L42.7,45.64l.18-.11-1-1.41-15.2,8.35a.87.87,0,0,1-1.21-.29l-.39-.64a.87.87,0,0,1,.3-1.2L39,41.4l.17-.1-.53-.91-.52-1.08L23.74,43.66a.87.87,0,0,1-1.11-.55l-.24-.71a.87.87,0,0,1,.55-1.11L41.71,35l.18-.06-.49-1.58-3.78-.27a2.31,2.31,0,0,1-1.83-1.6l0-.12L46,30.15l14.49-3.94L60,24.44l-9.74,2.75a.38.38,0,0,0-.18-.26l-5.9-3.35.15-7.79a1,1,0,0,0-1.47-.89l-1.59.86a.87.87,0,0,0-.69-.64l-8.05-1.44-9-5.17-5.8-5a.89.89,0,1,0-1.17,1.34l5.87,5.1a.71.71,0,0,0,.14.1l9.19,5.29a1,1,0,0,0,.29.11l5.71,1-1.61.88-6.24,0-.19,0c-.34.08-3.29.73-4.23,1.07a9.09,9.09,0,0,0-4.93,4.39l-3.09,4.89-1.67,0,4.38-9a.89.89,0,0,0-1.61-.78l-2.83,5.87-2.19,4.41a.91.91,0,0,0,0,.86l.15.19,0,.09-1.49,1.21L13,23.81l2.05-3.89a.92.92,0,0,0,.1-.42.89.89,0,0,0-1.68-.41l-2.12,4h0a1,1,0,0,0-.09.27L10,32l-1,.46.25-7.31,1.26-2.51A.9.9,0,0,0,9,21.83L7.68,24.1,5.44,27.4l-.07.11-1.6,3.34-.42.07L4.91,27,9,21.22a.51.51,0,0,0,.09-.16l3-7.07a.88.88,0,0,0-.3-1.06L8,10.14a.88.88,0,0,0-1.24.19.89.89,0,0,0,.19,1.25L10.13,14,7.45,20.27,3.39,26.05a.69.69,0,0,0-.1.19L1.1,31.73a.92.92,0,0,0,.14.89.87.87,0,0,0,.84.32l2.44-.41A.89.89,0,0,0,5.17,32L7,28.35l.49-.72L7.22,33.9a1,1,0,0,0,0,.24,1,1,0,0,0-.35.74v9.21a.74.74,0,0,0,0,.17l.19,0L7,44.32a.58.58,0,0,0,0,.14v0a1,1,0,0,0,.55.63l6.2,2.68a1,1,0,0,0,.39.08.94.94,0,0,0,.47-.12l6.63-3.58A2.61,2.61,0,0,0,24,45.39c.11,0,.22,0,.33-.09l11-3.57L24.48,48.86a2.6,2.6,0,0,0-.87,3.58l.39.64a2.61,2.61,0,0,0,1.61,1.18,2.59,2.59,0,0,0,1.67-.15,2,2,0,0,0,.29-.15l6.66-3.66L30.88,53a2.55,2.55,0,0,0-1,1.7,2.58,2.58,0,0,0,.47,1.94l.44.6a2.57,2.57,0,0,0,1.71,1A2.49,2.49,0,0,0,34.12,58a1.34,1.34,0,0,0,.28-.18l10.51-7.43-3.37,7A2.6,2.6,0,0,0,42.36,61l.63.4a2.61,2.61,0,0,0,1.38.4,3,3,0,0,0,.59-.07,2.56,2.56,0,0,0,1.43-.88,2.69,2.69,0,0,0,.2-.27L55.3,46.74l6.29-5.27ZM9.81,43a1,1,0,0,0-.92-.49v-7l33.4-18L42.16,24s0,0,0,.07l-.22.12a1,1,0,0,0-.4,1.35,1,1,0,0,0,1.36.39l.68-.38,3.93,2.23-.72.39-.82.23L35.64,29.61a1.59,1.59,0,0,0-1.37.65,2,2,0,0,0-.14,1.87,5.07,5.07,0,0,0,.73,1.25l.19.17a2.11,2.11,0,0,0,1.23.9c.3.06.74.12,1.17.16l-15.06,5a2.6,2.6,0,0,0-1.76,2.63L14.1,45.8,9.8,43.94A1,1,0,0,0,9.81,43ZM22.09,23.66a.41.41,0,0,0,.07-.11,7.34,7.34,0,0,1,3.92-3.5c.69-.25,3-.77,3.91-1l5.08,0L19.76,27.35ZM16,29.4l-.29.16a1,1,0,0,0,0-.17Z"/></g></svg>