<svg id="back" xmlns="http://www.w3.org/2000/svg" preserveAspectRatio="xMinYMid" viewbox="0 0 64 64"><defs><style>.cls-1{fill:#a25ac4;}</style></defs><title>estilos iconos paraeducaand_escolares</title><path class="cls-1" d="M32,15.67a1.07,1.07,0,0,0,1.07-1.07V10.35a1.08,1.08,0,0,0-2.15,0V14.6A1.08,1.08,0,0,0,32,15.67Z"/><path class="cls-1" d="M23.51,17.16a1.07,1.07,0,0,0,.93.54,1,1,0,0,0,.53-.15,1.07,1.07,0,0,0,.4-1.47l-2.12-3.67a1.08,1.08,0,0,0-1.87,1.08Z"/><path class="cls-1" d="M19.44,21.23l-3.68-2.12A1.07,1.07,0,0,0,14.69,21l3.67,2.12a1.06,1.06,0,0,0,.54.14,1.07,1.07,0,0,0,.54-2Z"/><path class="cls-1" d="M18,29.72a1.07,1.07,0,0,0-1.08-1.07H12.63a1.08,1.08,0,0,0,0,2.15h4.24A1.08,1.08,0,0,0,18,29.72Z"/><path class="cls-1" d="M18.36,36.35l-3.67,2.12a1.07,1.07,0,0,0-.39,1.47,1.05,1.05,0,0,0,.93.54,1.13,1.13,0,0,0,.53-.14l3.68-2.12a1.08,1.08,0,0,0-1.08-1.87Z"/><path class="cls-1" d="M49.31,38.48l-3.67-2.13a1.08,1.08,0,0,0-1.08,1.87l3.68,2.12a1,1,0,0,0,.53.14,1.07,1.07,0,0,0,.54-2Z"/><path class="cls-1" d="M51.37,28.65H47.13a1.08,1.08,0,1,0,0,2.15h4.24a1.08,1.08,0,0,0,0-2.15Z"/><path class="cls-1" d="M45.1,23.23a1.06,1.06,0,0,0,.54-.14L49.31,21a1.07,1.07,0,0,0,.39-1.47,1.06,1.06,0,0,0-1.46-.39l-3.68,2.12a1.07,1.07,0,0,0,.54,2Z"/><path class="cls-1" d="M39,17.55a1,1,0,0,0,.53.15,1.07,1.07,0,0,0,.93-.54l2.13-3.67a1.08,1.08,0,0,0-1.87-1.08l-2.12,3.67A1.07,1.07,0,0,0,39,17.55Z"/><path class="cls-1" d="M32,18.06A11.69,11.69,0,0,0,20.32,29.74c0,3.52,1.54,5.65,2.9,7.53,1.15,1.59,2.14,3,2.28,5l.07,1.06a2,2,0,0,0,2,1.84h8.94a2,2,0,0,0,2-1.85l.06-1c.15-2.1,1.14-3.47,2.29-5.06,1.36-1.88,2.9-4,2.9-7.53A11.69,11.69,0,0,0,32,18.06Zm7,18a11.35,11.35,0,0,0-2.69,6.18l-.06.87H27.71l-.06-.88A11.35,11.35,0,0,0,25,36c-1.28-1.77-2.49-3.44-2.49-6.27a9.53,9.53,0,0,1,19.06,0C41.53,32.57,40.32,34.24,39,36Z"/><path class="cls-1" d="M36.37,43.12H27.63a1.08,1.08,0,1,0,0,2.15h8.74a1.08,1.08,0,1,0,0-2.15Z"/><path class="cls-1" d="M36.37,45.83H27.63a1.08,1.08,0,1,0,0,2.15h8.74a1.08,1.08,0,1,0,0-2.15Z"/><path class="cls-1" d="M36.37,48.43H27.63a1.08,1.08,0,1,0,0,2.15h8.74a1.08,1.08,0,1,0,0-2.15Z"/><path class="cls-1" d="M32,21.45a8.28,8.28,0,0,0-8.27,8.27,1.08,1.08,0,1,0,2.15,0A6.13,6.13,0,0,1,32,23.6a1.08,1.08,0,0,0,0-2.15Z"/><path class="cls-1" d="M28.71,53.85a1.52,1.52,0,0,0,1.39.87h3.8a1.5,1.5,0,0,0,1.39-.87L36.64,51H27.36Z"/><path class="cls-1" d="M61.12,2.93A9.74,9.74,0,0,0,54.2.07H9.8A9.78,9.78,0,0,0,0,9.83V54.17A9.76,9.76,0,0,0,9.8,63.93H54.2A9.78,9.78,0,0,0,64,54.17V9.83A9.66,9.66,0,0,0,61.12,2.93Zm-.18,6.9V54.17a6.74,6.74,0,0,1-6.74,6.72H9.8a6.73,6.73,0,0,1-6.73-6.72V9.83A6.75,6.75,0,0,1,9.8,3.11H54.2a6.74,6.74,0,0,1,6.74,6.72Z"/></svg>