<svg xmlns="http://www.w3.org/2000/svg" preserveAspectRatio="xMinYMid" viewbox="0 0 64 64"><defs><style>.cls-1{fill:#0065ab;}</style></defs><title>estilos iconos paraeducaand_escolares</title><g id="elements"><path class="cls-1" d="M32,63.9A31.9,31.9,0,1,1,63.9,32,31.94,31.94,0,0,1,32,63.9ZM32,3.05A29,29,0,1,0,61,32,29,29,0,0,0,32,3.05Z"/><path class="cls-1" d="M19.87,39.07a6.25,6.25,0,0,0,6.24-6.24V20.43a6.24,6.24,0,0,0-12.48,0v12.4A6.24,6.24,0,0,0,19.87,39.07ZM15,30.75h2.76a.69.69,0,0,0,0-1.37H15V27h2.76a.68.68,0,0,0,0-1.36H15V23.32h2.76a.69.69,0,0,0,0-1.37H15V20.43a4.88,4.88,0,0,1,9.75,0V22H21.9a.69.69,0,1,0,0,1.37h2.84v2.35H21.9a.68.68,0,1,0,0,1.36h2.84v2.35H21.9a.69.69,0,1,0,0,1.37h2.84v2.08a4.88,4.88,0,1,1-9.75,0Z"/><path class="cls-1" d="M19.87,39.32a6.5,6.5,0,0,1-6.49-6.49V20.43a6.49,6.49,0,0,1,13,0v12.4A6.5,6.5,0,0,1,19.87,39.32Zm0-24.88a6,6,0,0,0-6,6v12.4a6,6,0,1,0,12,0V20.43A6,6,0,0,0,19.87,14.44Zm0,23.52a5.13,5.13,0,0,1-5.13-5.13V30.5h3a.44.44,0,0,0,0-.87h-3V26.78h3a.43.43,0,0,0,0-.86h-3V23.07h3a.44.44,0,0,0,0-.87h-3V20.43a5.13,5.13,0,0,1,10.25,0V22.2H21.9a.44.44,0,1,0,0,.87H25v2.85H21.9a.43.43,0,1,0,0,.86H25v2.85H21.9a.44.44,0,1,0,0,.87H25v2.33A5.13,5.13,0,0,1,19.87,38Zm-4.63-7v1.83a4.63,4.63,0,1,0,9.25,0V31H21.9a.94.94,0,1,1,0-1.87h2.59V27.28H21.9a.93.93,0,1,1,0-1.86h2.59V23.57H21.9a.94.94,0,1,1,0-1.87h2.59V20.43a4.63,4.63,0,0,0-9.25,0V21.7h2.51a.94.94,0,0,1,0,1.87H15.24v1.85h2.51a.93.93,0,0,1,0,1.86H15.24v1.85h2.51a.94.94,0,0,1,0,1.87Z"/><path class="cls-1" d="M20.72,42.37a9.76,9.76,0,0,0,8.85-9.66.69.69,0,0,0-1.37,0,8.34,8.34,0,0,1-16.67,0,.68.68,0,0,0-1.36,0A9.75,9.75,0,0,0,19,42.37h.16v6.06H15.07a.69.69,0,0,0,0,1.37h9.59a.69.69,0,1,0,0-1.37H20.55V42.38Z"/><path class="cls-1" d="M24.66,50.06H15.07a.94.94,0,0,1,0-1.87h3.86V42.61a10,10,0,0,1-9-9.9.93.93,0,0,1,1.86,0,8.09,8.09,0,0,0,16.17,0,.94.94,0,0,1,1.87,0,10,10,0,0,1-9,9.9v5.58h3.86a.94.94,0,1,1,0,1.87Zm-9.59-1.37a.44.44,0,0,0,0,.87h9.59a.44.44,0,1,0,0-.87H20.3V42.15l.4,0a9.51,9.51,0,0,0,8.62-9.41.44.44,0,0,0-.44-.43.43.43,0,0,0-.43.43,8.59,8.59,0,0,1-17.17,0,.43.43,0,0,0-.86,0A9.5,9.5,0,0,0,19,42.12l.39,0v6.54Z"/><path class="cls-1" d="M44.13,39.07a6.24,6.24,0,0,0,6.24-6.24V20.43a6.24,6.24,0,1,0-12.48,0v12.4A6.25,6.25,0,0,0,44.13,39.07Zm-4.87-8.32H42a.69.69,0,0,0,0-1.37H39.26V27H42a.68.68,0,0,0,0-1.36H39.26V23.32H42A.69.69,0,0,0,42,22H39.26V20.43a4.88,4.88,0,0,1,9.75,0V22H46.16a.69.69,0,0,0,0,1.37H49v2.35H46.16a.68.68,0,1,0,0,1.36H49v2.35H46.16a.69.69,0,0,0,0,1.37H49v2.08a4.88,4.88,0,1,1-9.75,0Z"/><path class="cls-1" d="M44.13,39.32a6.5,6.5,0,0,1-6.49-6.49V20.43a6.49,6.49,0,1,1,13,0v12.4A6.5,6.5,0,0,1,44.13,39.32Zm0-24.88a6,6,0,0,0-6,6v12.4a6,6,0,0,0,12,0V20.43A6,6,0,0,0,44.13,14.44Zm0,23.52A5.13,5.13,0,0,1,39,32.83V30.5h3a.44.44,0,0,0,0-.87H39V26.78h3a.43.43,0,0,0,0-.86H39V23.07h3a.44.44,0,0,0,0-.87H39V20.43a5.13,5.13,0,0,1,10.25,0V22.2h-3.1a.44.44,0,0,0,0,.87h3.1v2.85h-3.1a.43.43,0,1,0,0,.86h3.1v2.85h-3.1a.44.44,0,0,0,0,.87h3.1v2.33A5.13,5.13,0,0,1,44.13,38Zm-4.62-7v1.83a4.63,4.63,0,1,0,9.25,0V31h-2.6a.94.94,0,0,1,0-1.87h2.6V27.28h-2.6a.93.93,0,1,1,0-1.86h2.6V23.57h-2.6a.94.94,0,0,1,0-1.87h2.6V20.43a4.63,4.63,0,0,0-9.25,0V21.7H42a.94.94,0,0,1,0,1.87H39.51v1.85H42a.93.93,0,0,1,0,1.86H39.51v1.85H42A.94.94,0,0,1,42,31Z"/><path class="cls-1" d="M45,42.37a9.75,9.75,0,0,0,8.85-9.66.68.68,0,0,0-1.36,0,8.34,8.34,0,0,1-16.67,0,.69.69,0,0,0-1.37,0,9.76,9.76,0,0,0,8.85,9.66h.17v6.06H39.34a.69.69,0,1,0,0,1.37h9.59a.69.69,0,0,0,0-1.37H44.82V42.38Z"/><path class="cls-1" d="M48.93,50.06H39.34a.94.94,0,1,1,0-1.87H43.2V42.61a10,10,0,0,1-9-9.9.94.94,0,0,1,1.87,0,8.09,8.09,0,0,0,16.17,0,.93.93,0,0,1,1.86,0,10,10,0,0,1-9,9.9v5.58h3.86a.94.94,0,0,1,0,1.87Zm-9.59-1.37a.44.44,0,1,0,0,.87h9.59a.44.44,0,0,0,0-.87H44.57V42.15l.39,0a9.5,9.5,0,0,0,8.62-9.41.43.43,0,0,0-.86,0,8.59,8.59,0,0,1-17.17,0,.43.43,0,0,0-.43-.43.44.44,0,0,0-.44.43,9.51,9.51,0,0,0,8.62,9.41l.4,0v6.54Z"/></g></svg>