<svg xmlns="http://www.w3.org/2000/svg" xmlns:xlink="http://www.w3.org/1999/xlink" preserveAspectRatio="xMinYMid" viewbox="0 0 60 60"><defs><style>.cls-1{fill:none;}.cls-2{clip-path:url(#clip-path);}.cls-3{fill:#499113;}.cls-4{clip-path:url(#clip-path-2);}.cls-5{fill:#cd1719;}.cls-6{fill:#a25ac4;}.cls-7{fill:#fff;}</style><clipPath id="clip-path"><rect class="cls-1" x="8.91" y="23.6" width="20.8" height="11.88"/></clipPath><clipPath id="clip-path-2"><rect class="cls-1" x="7.98" y="12.03" width="42.11" height="37.16"/></clipPath></defs><title>nuevos iconos_</title><g id="elements"><g class="cls-2"><path class="cls-3" d="M25.55,32.85s0,0,0-.05V30.61c0-.44-.19-.63-.64-.63-2.64,0-6.48,0-9.12,0-.45,0-.64.19-.65.62,0,.76,0,1.51,0,2.27a1.49,1.49,0,0,1-1.39,1.52,18.39,18.39,0,0,1-2.1,0,1.52,1.52,0,0,1-1.15-.57,1.39,1.39,0,0,1-.34-1c0-2.23,0-4.45,0-6.68a1.91,1.91,0,0,1,.13-.61,1.32,1.32,0,0,1,.86-.8,2.62,2.62,0,0,1,.78-.14c.89,0,.54,0,1.43,0a1.63,1.63,0,0,1,1.78,1.73,5.81,5.81,0,0,0,0,.59c0,.52,0,1.05,0,1.58a.52.52,0,0,0,.55.56H28.45V30H26.76a.61.61,0,0,0-.64.62c0,.68,0,1.37,0,2v.2Zm-16.64.42c.06.18.12.36.19.54a2.44,2.44,0,0,0,1.16,1.27,3.54,3.54,0,0,0,1.81.41c1,0,.71,0,1.68,0a2.77,2.77,0,0,0,1.84-.8,2,2,0,0,0,.63-1,4.19,4.19,0,0,0,.12-.79c0-.54,0-1.07,0-1.61V31h8v.21c0,.68,0,1.37,0,2.05a.61.61,0,0,0,.61.61h1.87a.56.56,0,0,0,.59-.61c0-.69,0-1.37,0-2.06V31H29.1a.58.58,0,0,0,.61-.61c0-.57,0-1.15,0-1.73a.54.54,0,0,0-.56-.59H16.36c0-.07,0-.14,0-.2,0-.64,0-1.27,0-1.9a2.21,2.21,0,0,0-.72-1.5,3.21,3.21,0,0,0-2.35-.87c-1,0-.77,0-1.77,0a2.84,2.84,0,0,0-1.81.78,2.72,2.72,0,0,0-.78,1.4Z"/><path class="cls-3" d="M12.84,29.54V32c0,.24-.08.32-.32.32h.21c-.23,0-.31-.09-.31-.31,0-1.64,0-3.29,0-4.93,0-.22.08-.31.31-.31h-.25c.29,0,.36.07.36.36v2.41m1.24,0c0-.8,0-1.61,0-2.42a1.41,1.41,0,0,0-.15-.68,1.4,1.4,0,0,0-1.23-.71c-.51,0,.21,0-.29,0a1.28,1.28,0,0,0-1.16.94,1.68,1.68,0,0,0-.05.45c0,1.6,0,3.19,0,4.79a1.6,1.6,0,0,0,0,.44,1.28,1.28,0,0,0,1.15.95c.57.06-.06.07.51,0A1.29,1.29,0,0,0,14.08,32c0-.82,0-1.64,0-2.47"/></g><path class="cls-3" d="M57.85,24.66,35.35,2.16A7.32,7.32,0,0,0,30.14,0h0a7.34,7.34,0,0,0-5.21,2.16L2.38,24.7a7.38,7.38,0,0,0,0,10.43l22.5,22.5a7.36,7.36,0,0,0,10.43,0L57.84,35.08A7.37,7.37,0,0,0,57.85,24.66ZM55.79,33,33.25,55.57a4.42,4.42,0,0,1-3.16,1.31h0a4.42,4.42,0,0,1-3.15-1.3L4.43,33.08a4.49,4.49,0,0,1,0-6.33L27,4.22a4.43,4.43,0,0,1,3.16-1.31h0a4.42,4.42,0,0,1,3.15,1.3l22.5,22.5A4.47,4.47,0,0,1,55.79,33Z"/><g class="cls-4"><path class="cls-5" d="M31.51,19.46h0c-.43,0-.77-.46-.77-1V13.05c0-.56.34-1,.77-1s.76.46.76,1v5.39c0,.56-.34,1-.76,1"/><path class="cls-5" d="M31.51,49.19h0c-.43,0-.77-.46-.77-1V42.78c0-.56.34-1,.77-1s.76.46.76,1v5.39c0,.56-.34,1-.76,1"/><path class="cls-3" d="M31.51,19.46h0c-.43,0-.77-.46-.77-1V13.05c0-.56.34-1,.77-1s.76.46.76,1v5.39c0,.56-.34,1-.76,1"/><path class="cls-3" d="M31.51,49.19h0c-.43,0-.77-.46-.77-1V42.78c0-.56.34-1,.77-1s.76.46.76,1v5.39c0,.56-.34,1-.76,1"/><path class="cls-3" d="M23.62,22.73h0a.91.91,0,0,1-1.26-.18l-3.81-3.81a.93.93,0,0,1-.18-1.27.91.91,0,0,1,1.26.18l3.82,3.81a.93.93,0,0,1,.17,1.27"/><path class="cls-3" d="M44.64,43.75h0a.91.91,0,0,1-1.26-.18l-3.81-3.81a.93.93,0,0,1-.18-1.27.91.91,0,0,1,1.26.18l3.82,3.81a.92.92,0,0,1,.17,1.27"/><path class="cls-3" d="M50.09,30.61h0c0,.42-.46.77-1,.77h-5.4a.8.8,0,1,1,0-1.54h5.4c.56,0,1,.35,1,.77"/><path class="cls-3" d="M23.62,38.49h0a.93.93,0,0,1-.17,1.27l-3.82,3.81a.91.91,0,0,1-1.26.18.93.93,0,0,1,.18-1.27l3.81-3.81a.91.91,0,0,1,1.26-.18"/><path class="cls-3" d="M44.64,17.47h0a.92.92,0,0,1-.17,1.27l-3.82,3.81a.91.91,0,0,1-1.26.18.93.93,0,0,1,.18-1.27l3.81-3.81a.91.91,0,0,1,1.26-.18"/><path class="cls-3" d="M31.51,40.49a9.88,9.88,0,1,0-9.89-9.88,9.88,9.88,0,0,0,9.89,9.88"/><path class="cls-6" d="M11.84,29.83m1.21,0"/><path class="cls-7" d="M31.51,29.71a1.15,1.15,0,1,0-1.15-1.15,1.15,1.15,0,0,0,1.15,1.15"/></g><rect class="cls-7" x="30.89" y="28.26" width="1.29" height="4.7"/><path class="cls-7" d="M28.53,28.65a.54.54,0,0,0-.56-.59H22a8.51,8.51,0,0,0-.18,1h5.52v.85H25.61a.62.62,0,0,0-.63.62c0,.68,0,1.35,0,2v.2h-.58l0,0V30.57c0-.43-.19-.63-.63-.63H21.71c0,.12,0,.23,0,.35s0,.47,0,.7h1.46v.21c0,.67,0,1.35,0,2a.61.61,0,0,0,.61.61c1,0,.83,0,1.85,0a.54.54,0,0,0,.58-.6c0-.68,0-1.37,0-2V31h1.72a.58.58,0,0,0,.6-.6C28.51,29.79,28.53,29.22,28.53,28.65Z"/></g></svg>