<svg xmlns="http://www.w3.org/2000/svg" preserveAspectRatio="xMinYMid" viewbox="0 0 64 64"><defs><style>.cls-1{fill:#0065ab;}</style></defs><title>estilos iconos paraeducaand_escolares</title><g id="elements"><path class="cls-1" d="M45.5,44.78V20.68A2.49,2.49,0,0,0,43,18.19h-.14v.38h0v1.16h0v.37H43a.58.58,0,0,1,.58.58v24.1a.58.58,0,0,1-.58.58H19.89a.58.58,0,0,1-.58-.58v-.72H17.78l-.32.08-.06.3v.34a2.49,2.49,0,0,0,2.48,2.49H43A2.49,2.49,0,0,0,45.5,44.78Z"/><path class="cls-1" d="M42.26,40.94V16.84a2.71,2.71,0,0,0-2.71-2.71H16.42a2.71,2.71,0,0,0-2.71,2.71v24.1a2.71,2.71,0,0,0,2.71,2.71H39.55A2.71,2.71,0,0,0,42.26,40.94Zm-26.19,0V16.84a.36.36,0,0,1,.35-.36H39.55a.35.35,0,0,1,.35.36v24.1a.35.35,0,0,1-.35.36H16.42A.36.36,0,0,1,16.07,40.94Z"/><path class="cls-1" d="M35.2,30.32H30.48a1.35,1.35,0,0,0-1.35,1.35v4.91a1.35,1.35,0,0,0,1.35,1.35H35.2a1.35,1.35,0,0,0,1.35-1.35V31.67A1.35,1.35,0,0,0,35.2,30.32Zm-.73,5.53H31.21V32.39h3.26Z"/><path class="cls-1" d="M25.82,30.32H21.1a1.35,1.35,0,0,0-1.35,1.35v4.91a1.35,1.35,0,0,0,1.35,1.35h4.72a1.35,1.35,0,0,0,1.35-1.35V31.67A1.35,1.35,0,0,0,25.82,30.32Zm-.73,5.53H21.83V32.39h3.26Z"/><path class="cls-1" d="M35.37,20.92H20.84a1.18,1.18,0,0,0,0,2.35H35.37a1.18,1.18,0,1,0,0-2.35Z"/><path class="cls-1" d="M35.37,25.81H20.84a1.18,1.18,0,0,0,0,2.36H35.37a1.18,1.18,0,0,0,0-2.36Z"/><path class="cls-1" d="M46.56,21.88h-.14v.37h0v1.16h0v.37h.14a.58.58,0,0,1,.58.58V48.47a.58.58,0,0,1-.58.58H23.44a.58.58,0,0,1-.58-.58v-.73H21v.72A2.49,2.49,0,0,0,23.44,51H46.56a2.49,2.49,0,0,0,2.49-2.48V24.36A2.49,2.49,0,0,0,46.56,21.88Z"/><path class="cls-1" d="M32,63.9A31.9,31.9,0,1,1,63.9,32,31.94,31.94,0,0,1,32,63.9ZM32,3.05A29,29,0,1,0,61,32,29,29,0,0,0,32,3.05Z"/></g></svg>