<svg xmlns="http://www.w3.org/2000/svg" preserveAspectRatio="xMinYMid" viewbox="0 0 63.96 63.86"><defs><style>.cls-1,.cls-2{fill:#a25ac4;}.cls-2{stroke:#a25ac4;stroke-miterlimit:10;stroke-width:0.5px;}</style></defs><title>estilos iconos paraeducaand_escolares</title><g id="back"><path class="cls-1" d="M61.23,2.86A9.7,9.7,0,0,0,54.31,0H9.91A9.78,9.78,0,0,0,.13,9.76V54.09a9.76,9.76,0,0,0,9.78,9.77h44.4a9.78,9.78,0,0,0,9.78-9.77V9.76A9.66,9.66,0,0,0,61.23,2.86Zm-.18,6.9V54.09a6.74,6.74,0,0,1-6.74,6.73H9.91a6.73,6.73,0,0,1-6.73-6.73V9.76A6.74,6.74,0,0,1,9.91,3h44.4a6.74,6.74,0,0,1,6.74,6.72Z"/></g><g id="elements"><path class="cls-2" d="M46.22,21.36l.19.42.45-.12.48-.1.69-.13-.29-.64a17.49,17.49,0,0,0-8.14-8.47L38.86,12l-.06.82a4.4,4.4,0,0,1,0,.51l-.06.39.35.18A15.9,15.9,0,0,1,46.22,21.36Z"/><path class="cls-2" d="M25.89,44.28l.1-.69c0-.17.05-.33.08-.48l.11-.45-.43-.18a15.88,15.88,0,0,1-3.81-2.29l-.15-.12H19.32l1.11,1a17.47,17.47,0,0,0,4.81,3Z"/><path class="cls-2" d="M16.85,21.66l.44.12.19-.42a15.86,15.86,0,0,1,8.13-8l.36-.16,0-.39c0-.17,0-.34,0-.51v-.83l-.77.32a17.4,17.4,0,0,0-9.18,9l-.3.64.7.13Z"/><path class="cls-2" d="M37,49.43l-.45,0H33.42a5.49,5.49,0,1,0-3.65,0H27.05a3.8,3.8,0,0,0-3.79,3.8v4h1.62v-4A2.18,2.18,0,0,1,27.05,51h9.6a2.19,2.19,0,0,1,2.18,2.18v4h1.62v-4A3.78,3.78,0,0,0,37,49.43Zm-1.53-5.18a3.86,3.86,0,1,1-3.86-3.86A3.87,3.87,0,0,1,35.45,44.25Z"/><path class="cls-2" d="M22.74,36.6v4h1.62v-4a3.79,3.79,0,0,0-3.79-3.79H17.34a5.48,5.48,0,1,0-3.66,0H11a3.8,3.8,0,0,0-3.8,3.79v4H8.79v-4A2.18,2.18,0,0,1,11,34.43h9.6A2.17,2.17,0,0,1,22.74,36.6Zm-3.37-9a3.86,3.86,0,1,1-3.86-3.86A3.86,3.86,0,0,1,19.37,27.65Z"/><path class="cls-2" d="M30.28,17.24H27.57A3.79,3.79,0,0,0,23.78,21v4H25.4V21a2.17,2.17,0,0,1,2.17-2.17h9.6A2.18,2.18,0,0,1,39.35,21v4H41V21a3.79,3.79,0,0,0-3.79-3.79H33.94a5.48,5.48,0,1,0-3.66,0Zm-2-5.16a3.86,3.86,0,1,1,3.86,3.86A3.86,3.86,0,0,1,28.25,12.08Z"/><path class="cls-2" d="M53.26,32.81H50a5.48,5.48,0,1,0-3.66,0H43.66a3.8,3.8,0,0,0-3.8,3.79v4h1.27a15.4,15.4,0,0,1-2.28,1.41l-.41.21.13.44.12.47.14.7.64-.31A18,18,0,0,0,43.28,41l1.1-1H41.92l-.15.12a3.06,3.06,0,0,1-.29.21V36.6a2.18,2.18,0,0,1,2.18-2.17h9.6a2.17,2.17,0,0,1,2.17,2.17v4h1.62v-4A3.79,3.79,0,0,0,53.26,32.81Zm-1.2-5.16a3.86,3.86,0,1,1-3.86-3.86A3.86,3.86,0,0,1,52.06,27.65Z"/></g></svg>