<svg xmlns="http://www.w3.org/2000/svg" preserveAspectRatio="xMinYMid" viewbox="0 0 64 64"><defs><style>.cls-1{fill:#5baf07;}</style></defs><title>estilos iconos paraeducaand_escolares</title><g id="back"><path class="cls-1" d="M61.68,26.4,37.6,2.32A7.84,7.84,0,0,0,32,0h0a7.83,7.83,0,0,0-5.57,2.31L2.33,26.45a7.89,7.89,0,0,0,0,11.15L26.4,61.68a7.89,7.89,0,0,0,11.15,0L61.67,37.55A7.89,7.89,0,0,0,61.68,26.4Zm-2.21,9L35.36,59.47A4.78,4.78,0,0,1,32,60.88h0a4.73,4.73,0,0,1-3.37-1.4L4.52,35.41a4.8,4.8,0,0,1,0-6.77L28.64,4.53A4.76,4.76,0,0,1,32,3.12h0a4.77,4.77,0,0,1,3.38,1.4L59.48,28.6A4.78,4.78,0,0,1,59.47,35.36Z"/></g><g id="elements"><path class="cls-1" d="M17.51,18.53V43.62a3,3,0,0,0,3,3H43.69a3,3,0,0,0,2.22-1h.28v-.35a3,3,0,0,0,.5-1.65V18.53ZM44.69,30.6H39.9v-6h4.79Zm-1,14H39.9v-6h4.79v5A1,1,0,0,1,43.7,44.62Zm-10.86-20v6H27.67v-6Zm-5.17,13v-6h5.17v6Zm-1-6v6H19.56v-6Zm6.17,7v6H27.67v-6Zm1,0H38.9v6H33.84Zm0-1v-6H38.9v6Zm0-7v-6H38.9v6Zm-7.17,0H19.51v-6h7.16ZM19.56,43.87V38.63h7.11v6H20.5A1,1,0,0,1,19.56,43.87ZM39.9,37.62v-6h4.79v6Z"/><polygon class="cls-1" points="31.48 33.37 29.83 35.03 29.05 34.13 28.49 34.62 29.79 36.13 32.01 33.9 31.48 33.37"/><polygon class="cls-1" points="41.81 29.11 44.03 26.89 43.51 26.36 41.85 28.02 41.08 27.12 40.51 27.61 41.81 29.11"/><polygon class="cls-1" points="37.59 40.38 35.94 42.03 35.16 41.14 34.6 41.63 35.9 43.13 38.12 40.91 37.59 40.38"/><rect class="cls-1" x="20.84" y="27.22" width="4.41" height="0.75"/><rect class="cls-1" x="20.84" y="41.24" width="4.41" height="0.75"/><rect class="cls-1" x="20.84" y="34.25" width="4.41" height="0.75"/></g></svg>