<svg id="back" xmlns="http://www.w3.org/2000/svg" preserveAspectRatio="xMinYMid" viewbox="0 0 64 64"><defs><style>.cls-1{fill:#a25ac4;}</style></defs><title>estilos iconos paraeducaand_escolares</title><path class="cls-1" d="M51.79,19.08H50.35a1.26,1.26,0,0,0,0,2.52h.19V44.73a.12.12,0,0,1-.12.12H37.89a31.59,31.59,0,0,1,8.94-1.48,1.9,1.9,0,0,0,1.88-1.9V18.52a1.84,1.84,0,0,0-.56-1.34,1.86,1.86,0,0,0-1.35-.55A32.87,32.87,0,0,0,32,20.45a32.74,32.74,0,0,0-14.82-3.82,1.84,1.84,0,0,0-1.33.55,1.89,1.89,0,0,0-.56,1.34v23a1.9,1.9,0,0,0,1.88,1.9,31.59,31.59,0,0,1,8.94,1.48H13.58a.12.12,0,0,1-.12-.12V21.6h.19a1.26,1.26,0,0,0,0-2.52H12.21A1.26,1.26,0,0,0,11,20.34V44.73a2.64,2.64,0,0,0,2.63,2.64H50.42a2.64,2.64,0,0,0,2.63-2.64V20.34A1.26,1.26,0,0,0,51.79,19.08Zm-5.59.08V40.87A32.76,32.76,0,0,0,33.26,44V22.62A29.9,29.9,0,0,1,46.2,19.16ZM30.74,22.62V44A32.8,32.8,0,0,0,17.8,40.87V19.16A30,30,0,0,1,30.74,22.62Z"/><path class="cls-1" d="M61.12,2.93A9.74,9.74,0,0,0,54.2.07H9.8A9.78,9.78,0,0,0,0,9.83V54.17A9.76,9.76,0,0,0,9.8,63.93H54.2A9.78,9.78,0,0,0,64,54.17V9.83A9.66,9.66,0,0,0,61.12,2.93Zm-.18,6.9V54.17a6.74,6.74,0,0,1-6.74,6.72H9.8a6.73,6.73,0,0,1-6.73-6.72V9.83A6.75,6.75,0,0,1,9.8,3.11H54.2a6.74,6.74,0,0,1,6.74,6.72Z"/></svg>