<svg xmlns="http://www.w3.org/2000/svg" preserveAspectRatio="xMinYMid" viewbox="0 0 64 64"><defs><style>.cls-1{fill:#5baf07;}</style></defs><title>estilos iconos paraeducaand_escolares</title><g id="back"><path class="cls-1" d="M61.68,26.4,37.6,2.32A7.84,7.84,0,0,0,32,0h0a7.83,7.83,0,0,0-5.57,2.31L2.33,26.45a7.89,7.89,0,0,0,0,11.15L26.4,61.68a7.89,7.89,0,0,0,11.15,0L61.67,37.55A7.89,7.89,0,0,0,61.68,26.4Zm-2.21,9L35.36,59.47A4.78,4.78,0,0,1,32,60.88h0a4.73,4.73,0,0,1-3.37-1.4L4.52,35.41a4.8,4.8,0,0,1,0-6.77L28.64,4.53A4.76,4.76,0,0,1,32,3.12h0a4.77,4.77,0,0,1,3.38,1.4L59.48,28.6A4.78,4.78,0,0,1,59.47,35.36Z"/></g><g id="elements"><path class="cls-1" d="M44,20.89H38V19.26a2.74,2.74,0,0,0-2.74-2.74H28.73A2.74,2.74,0,0,0,26,19.26v1.63H20a4.34,4.34,0,0,0-4.33,4.33V41.38A4.34,4.34,0,0,0,20,45.71H44a4.34,4.34,0,0,0,4.33-4.33V25.22A4.33,4.33,0,0,0,44,20.89Zm0,23H26.33V34.08a4.56,4.56,0,0,0,0-7.95V22.74H44a2.48,2.48,0,0,1,2.48,2.48V41.38A2.49,2.49,0,0,1,44,43.86Zm-20.31,0V34.68h.23l.18,0,.18,0h.23v9.18Zm.82-21.12v2.79a2.82,2.82,0,0,0-.41,0,2.75,2.75,0,0,0-.41,0V22.74Zm.67,4.84a2.74,2.74,0,0,1,0,5l0,0-.2.06c-.11,0-.21.07-.32.09a2.45,2.45,0,0,1-.38,0,1.31,1.31,0,0,1-.28,0,2.33,2.33,0,0,1-.38,0,1.58,1.58,0,0,1-.31-.09L23,32.64l0,0a2.74,2.74,0,0,1,0-5h0l.22-.07.31-.09a1.84,1.84,0,0,1,.33,0h.38a1.84,1.84,0,0,1,.33,0l.31.09.22.07Zm-3.34-1.45a4.55,4.55,0,0,0,0,8v9.78H20a2.49,2.49,0,0,1-2.48-2.48V25.22A2.49,2.49,0,0,1,20,22.74h1.78Zm6.92-7.6h6.54a.74.74,0,0,1,.74.73v1.63H28V19.26A.73.73,0,0,1,28.73,18.53Z"/><path class="cls-1" d="M32.46,36.2l3.21,4.9,9.58-6.27L42,29.93Zm3.75,2.34L35,36.74l6.49-4.25,1.18,1.8Z"/></g></svg>