<svg id="back" xmlns="http://www.w3.org/2000/svg" preserveAspectRatio="xMinYMid" viewbox="0 0 64 64"><defs><style>.cls-1{fill:#5baf07;}</style></defs><title>estilos iconos paraeducaand_escolares</title><path class="cls-1" d="M47.27,27.15a1.46,1.46,0,0,0-1.45,1.46v8.72A3.8,3.8,0,0,1,42,41.12H21a3.8,3.8,0,0,1-3.8-3.79V28.47a1.46,1.46,0,1,0-2.91,0v8.86A6.72,6.72,0,0,0,21,44H42a6.72,6.72,0,0,0,6.71-6.71V28.61A1.46,1.46,0,0,0,47.27,27.15Z"/><path class="cls-1" d="M30.48,36.28a1.5,1.5,0,0,0,1,.43,1.44,1.44,0,0,0,1-.43l6.09-6.09a1.48,1.48,0,0,0,.43-1,1.46,1.46,0,0,0-.43-1,1.49,1.49,0,0,0-2.07,0L33,31.73V13.5a1.46,1.46,0,1,0-2.92,0V31.73l-3.6-3.6a1.48,1.48,0,0,0-2.06,0,1.42,1.42,0,0,0-.43,1,1.44,1.44,0,0,0,.43,1Z"/><path class="cls-1" d="M62,26.47,37.93,2.39A7.86,7.86,0,0,0,32.36.09h0A7.87,7.87,0,0,0,26.77,2.4L2.66,26.52a7.89,7.89,0,0,0,0,11.15L26.73,61.75a7.89,7.89,0,0,0,11.15,0L62,37.62A7.9,7.9,0,0,0,62,26.47Zm-2.21,9L35.69,59.54A4.76,4.76,0,0,1,32.3,61h0a4.77,4.77,0,0,1-3.38-1.4L4.85,35.48a4.8,4.8,0,0,1,0-6.77L29,4.6a4.73,4.73,0,0,1,3.38-1.4h0a4.72,4.72,0,0,1,3.37,1.39L59.81,28.67A4.78,4.78,0,0,1,59.8,35.43Z"/></svg>