<svg xmlns="http://www.w3.org/2000/svg" xmlns:xlink="http://www.w3.org/1999/xlink" preserveAspectRatio="xMinYMid" viewbox="0 0 60 60"><defs><style>.cls-1{fill:none;}.cls-2{clip-path:url(#clip-path);}.cls-3{fill:#a359c4;}.cls-4{fill:#a25ac4;}.cls-5{fill:#fff;}</style><clipPath id="clip-path"><rect class="cls-1" y="0.05" width="60" height="59.9"/></clipPath></defs><title>nuevos iconos_</title><g id="elements"><g class="cls-2"><path class="cls-3" d="M57.14,9.21V50.79a6.32,6.32,0,0,1-6.31,6.31H9.17a6.32,6.32,0,0,1-6.31-6.31V9.21A6.32,6.32,0,0,1,9.17,2.9H50.83a6.32,6.32,0,0,1,6.31,6.31m.17-6.48A9.1,9.1,0,0,0,50.83.05H9.17A9.18,9.18,0,0,0,0,9.21V50.79A9.17,9.17,0,0,0,9.17,60H50.83A9.18,9.18,0,0,0,60,50.79V9.21a9.07,9.07,0,0,0-2.69-6.48"/></g><path class="cls-4" d="M18.2,22.73a11.81,11.81,0,0,1,6.57-10.58q-8.94,2-17.87,10.58,8.94,8.64,17.87,10.58A11.81,11.81,0,0,1,18.2,22.73"/><path class="cls-4" d="M41.8,22.73a11.81,11.81,0,0,1-6.57,10.58q8.94-2,17.87-10.58-8.94-8.62-17.87-10.58A11.81,11.81,0,0,1,41.8,22.73"/><path class="cls-4" d="M30,31.66a8.93,8.93,0,1,0-8.93-8.93A8.93,8.93,0,0,0,30,31.66"/><path class="cls-4" d="M40.61,45.53v-.37a2.09,2.09,0,0,0-2.08-2.09,2,2,0,0,0-.87.2,2.11,2.11,0,0,0-2.06-1.77,2.25,2.25,0,0,0-.88.19,2.09,2.09,0,0,0-2.05-1.76,2,2,0,0,0-.85.18V35.38a2.09,2.09,0,1,0-4.17,0v8.67c-1.42-1.93-2.72-2.14-3.22-2.14a1.74,1.74,0,0,0-1.53.82A1.67,1.67,0,0,0,23,44.4a12.6,12.6,0,0,1,1.57,4.66,9.47,9.47,0,0,0,2.14,4.7,4.93,4.93,0,0,1,1.08,1.77,1.59,1.59,0,0,0,1.52,1.14h8a1.57,1.57,0,0,0,1.57-1.34,5,5,0,0,1,.54-1.69C40.64,51.37,40.62,47.27,40.61,45.53Zm-10.89-11a.85.85,0,0,1,.85.85V42a.62.62,0,0,0,1.24,0,.85.85,0,0,1,1.7,0v1.58a.61.61,0,0,0,.61.61.61.61,0,0,0,.62-.61.85.85,0,0,1,1.7,0v1.57a.62.62,0,0,0,1.23,0,.85.85,0,0,1,1.7,0v.37c0,1.65,0,5.52-1.1,7.5a6.39,6.39,0,0,0-.69,2.11.35.35,0,0,1-.35.3h-8a.36.36,0,0,1-.34-.25,5.9,5.9,0,0,0-1.37-2.28,8.45,8.45,0,0,1-1.82-4.08A13.73,13.73,0,0,0,24,43.77a.41.41,0,0,1,0-.43.48.48,0,0,1,.45-.2c.74,0,2,.9,3.28,3.42a.63.63,0,0,0,.7.33.6.6,0,0,0,.47-.6V35.38A.86.86,0,0,1,29.72,34.53Z"/><circle class="cls-5" cx="29.65" cy="22.73" r="3.63"/></g></svg>