<?xml version="1.0" standalone="no"?> <!DOCTYPE svg PUBLIC "-//W3C//DTD SVG 1.0//EN" "http://www.w3.org/TR/2001/REC-SVG-20010904/DTD/svg10.dtd" > <svg xmlns="http://www.w3.org/2000/svg" width="100%" height="100%">
<defs >
<font horiz-adv-x="520" ><font-face
    font-family="STIXDoubleStruckRegular"
    units-per-em="1000"
    panose-1="0 0 0 0 0 0 0 0 0 0"
    ascent="693"
    descent="-218"
    alphabetic="0" />
<missing-glyph horiz-adv-x="500" />
<glyph unicode=" " glyph-name="space" horiz-adv-x="500" />
<glyph unicode="0" glyph-name="zero" horiz-adv-x="500" d="M492 331Q492 272 481 211T442 100T367 18T250 -14Q179 -14 133 18T59 100T20 211T8 331Q8 389 19 450T58 562T132 644T250 676Q320 676 367 644T441 562T480 451T492 331ZM388 101Q405 116 416 145T435
209T445 276T448 331Q448 352 445 385T435 453T417 516T388 561V101ZM344 595Q327 615 301 623T250 632Q227 632 199 623T156 595V67Q173 50 199 40T250 30Q274 30 300 40T344 67V595ZM112 561Q95 546 84 517T65 453T55 386T52 331Q52 310 55 277T65 209T83 146T112
101V561Z" />
<glyph unicode="1" glyph-name="one" horiz-adv-x="280" d="M116 0V573L13 527L0 569L264 693V0H116ZM220 628L160 599V44H220V628Z" />
<glyph unicode="2" glyph-name="two" horiz-adv-x="480" d="M424 0H9V29V50L280 312V619Q275 623 268 625T251 629T234 631T220 632Q143 632 104 591T54 478H12Q12 522 28 558T72 621T138 661T219 676Q260 676 297 663T364 626T410 567T428 489Q428 456 420 429T398
379T364 334T321 290L171 148H475L424 0ZM324 359Q353 383 368 418T384 490Q384 524 368 553T324 602V359ZM125 104L60 44H389L413 104H125Z" />
<glyph unicode="3" glyph-name="three" horiz-adv-x="442" d="M312 351Q368 329 401 286T434 181Q434 131 417 94T369 33T298 -2T211 -14Q173 -14 140 -7T81 16T35 59T5 125L48 135Q53 122 59 110T73 86Q96 55 134 43T209 30Q229 30 249 34T286 48V331H179V375H276V619Q265
627 252 629T226 632Q164 632 124 601T71 508H28Q31 547 48 578T92 631T153 664T225 676Q261 676 295 666T356 636T399 587T415 517Q415 460 388 421T312 353V351ZM320 411Q371 448 371 511Q371 573 320 608V411ZM330 59Q363 80 376 110T390 179Q390 214 377 246T330
295V59Z" />
<glyph unicode="4" glyph-name="four" horiz-adv-x="507" d="M417 160V0H269V160H0V201L362 676H417V204H504V182V160H417ZM373 620L313 538V44H373V620ZM269 482L53 204H269V482Z" />
<glyph unicode="5" glyph-name="five" horiz-adv-x="464" d="M410 514H142L113 442Q171 442 227 432T329 396T401 325T429 211Q429 161 413 120T368 49T298 3T206 -14Q173 -14 141 -8T81 14T33 53T3 114L43 132Q65 75 107 53T207 30Q225 30 245 34T281 49V365Q236
387 188 392T91 397H48L157 662H457L410 514ZM185 618L160 558H375L395 618H185ZM325 67Q341 78 352 94T370 130T381 170T385 209Q385 227 382 246T372 283T354 315T325 339V67Z" />
<glyph unicode="6" glyph-name="six" horiz-adv-x="494" d="M156 392Q180 416 213 426T279 436Q327 436 366 420T432 374T475 304T490 217Q490 165 472 123T421 50T345 3T250 -14Q196 -14 147 12Q108 33 81 65T38 137T14 219T6 304Q6 376 31 441T107 559Q144 598
183 621T263 656T351 672T448 676V631Q413 631 378 630T310 622T245 603T185 566Q182 564 177 559T167 549T158 539T154 529V392H156ZM386 77Q418 103 432 140T446 219Q446 261 433 294T386 354V77ZM342 369Q328 381 307 386T268 392Q237 392 206 378T154 339V68Q169
48 196 39T248 30Q272 30 299 39T342 68V369ZM110 496Q93 478 82 454T64 403T53 349T50 298Q50 247 62 195T110 103V496Z" />
<glyph unicode="7" glyph-name="seven" horiz-adv-x="489" d="M462 592L205 0H187H157L379 514H60H2L57 662H96H489L462 592ZM87 618L67 558H400L425 618H87Z" />
<glyph unicode="8" glyph-name="eight" horiz-adv-x="500" d="M370 351Q426 328 459 286T492 181Q492 127 472 90T418 29T340 -4T248 -14Q200 -14 157 -4T80 30T28 90T8 181Q8 243 41 285T130 351V353Q82 381 55 420T27 517Q27 563 47 593T100 642T172 668T250
676Q288 676 327 669T399 643T452 594T473 517Q473 460 446 421T370 353V351ZM378 411Q404 431 416 455T429 511Q429 543 417 566T378 608V411ZM334 616Q317 625 293 628T250 632Q230 632 207 628T166 616V398Q172 391 182 387T205 380T228 376T248 375Q254 375
267 376T294 379T319 385T334 398V616ZM122 608Q95 590 83 567T71 511Q71 479 83 455T122 411V608ZM388 59Q421 80 434 110T448 179Q448 214 435 246T388 295V59ZM344 304Q336 312 324 317T299 325T272 329T248 331Q227 331 200 325T156 304V50Q173 39 200 35T248
30Q258 30 271 31T297 34T323 40T344 50V304ZM112 295Q79 278 66 246T52 179Q52 141 65 111T112 59V295Z" />
<glyph unicode="9" glyph-name="nine" horiz-adv-x="493" d="M338 270Q314 246 282 236T215 226Q167 226 128 242T62 288T19 358T4 445Q4 497 22 539T73 612T149 659T244 676Q305 676 357 644Q394 622 419 590T459 519T481 440T488 358Q488 283 460 213T376 92Q347
65 308 46T226 13T139 -6T56 -12V29Q80 29 108 31T165 37T220 50T269 70Q288 80 305 92T340 119V270H338ZM384 166Q400 183 411 207T430 259T441 313T444 364Q444 415 432 467T384 559V166ZM340 596Q325 615 297 623T246 632Q223 632 195 625T152 599V295Q163 281
186 276T226 270Q259 270 287 286T340 321V596ZM108 585Q75 559 62 522T48 443Q48 401 61 368T108 308V585Z" />
<glyph unicode="A" glyph-name="A" horiz-adv-x="647" d="M471 0L394 209H126L48 0H3L244 662H412L644 0H471ZM381 618H298L500 44H583L381 618ZM263 585H261L142 253H378L263 585Z" />
<glyph unicode="B" glyph-name="B" horiz-adv-x="580" d="M297 662Q341 662 386 655T469 627T529 573T553 484Q553 441 534 404T475 347Q523 327 547 285T571 191Q571 135 552 98T501 40T425 9T333 0H15V662H297ZM436 370Q474 387 491 412T509 482Q509 523 491
551T436 597V370ZM392 606Q378 611 363 614T333 618H181V366H326Q359 366 392 369V606ZM436 52Q486 70 506 103T527 189Q527 234 504 270T436 318V52ZM392 319Q359 322 326 322H181V44H334Q362 44 392 52V319ZM137 618H59V44H137V618Z" />
<glyph unicode="C" glyph-name="C" horiz-adv-x="630" d="M625 128Q567 58 498 22T336 -14Q262 -14 201 13T97 87T31 197T7 332Q7 406 30 469T96 578T200 650T337 676Q429 676 497 640T623 534L592 503Q563 533 537 557T482 597T420 623T341 632Q300 632 255 619T175
583V80Q189 69 210 60T254 44T299 34T340 30Q384 30 418 39T482 64T538 105T594 159L625 128ZM131 558Q96 507 74 451T51 332Q51 281 66 234T110 145Q115 137 119 130T131 118V558Z" />
<glyph unicode="D" glyph-name="D" horiz-adv-x="629" d="M293 662Q368 662 428 639T532 572T598 468T622 332Q622 259 598 198T531 93T427 25T293 0H15V662H293ZM498 126Q519 141 534 167T559 225T573 287T578 342Q578 400 560 450T498 541V126ZM454 571Q438
581 417 589T374 604T329 614T288 618H181V44H287Q305 44 328 47T375 58T420 75T454 99V571ZM137 618H59V44H137V618Z" />
<glyph unicode="E" glyph-name="E" horiz-adv-x="512" d="M15 0V662H512V618H181V363H480V319H181V44H512V0H15ZM137 618H59V44H137V618Z" />
<glyph unicode="F" glyph-name="F" horiz-adv-x="512" d="M181 618V348H446V304H181V0H15V662H512V618H181ZM137 618H59V44H137V618Z" />
<glyph unicode="G" glyph-name="G" horiz-adv-x="634" d="M594 502Q542 565 483 598T341 632Q321 632 299 629T254 619T211 602T175 579V91Q207 56 251 44T342 31Q354 31 369 32T399 36T427 44T451 56V285H320V329H617V90Q555 45 485 16T336 -13Q262 -13 201 14T97
88T31 198T7 333Q7 407 30 470T96 578T200 650T337 676Q412 676 478 650T596 568Q604 560 611 551T626 534L594 502ZM573 285H495V66Q517 75 535 90T573 118V285ZM131 551Q93 507 72 449T51 333Q51 273 72 219T131 119V551Z" />
<glyph unicode="H" glyph-name="H" horiz-adv-x="608" d="M427 0V309H181V0H15V662H181V353H427V662H593V0H427ZM549 618H471V44H549V618ZM137 618H59V44H137V618Z" />
<glyph unicode="I" glyph-name="I" horiz-adv-x="197" d="M15 0V662H181V0H15ZM137 618H59V44H137V618Z" />
<glyph unicode="J" glyph-name="J" horiz-adv-x="469" d="M455 160Q455 108 434 74T379 21T301 -6T215 -14Q170 -14 132 -4T66 27T21 82T0 164H44Q51 123 66 97T105 56T159 36T228 30Q243 30 258 30T289 34V662H455V160ZM411 618H333V36Q371 52 391 81T411 151V618Z" />
<glyph unicode="K" glyph-name="K" horiz-adv-x="680" d="M470 0L240 331L181 280V0H15V662H181V337L573 674L598 638L363 437L674 0H470ZM331 407L274 358L494 44H590L331 407ZM137 618H59V44H137V618Z" />
<glyph unicode="L" glyph-name="L" horiz-adv-x="516" d="M15 0V662H181V44H516V0H15ZM137 618H59V44H137V618Z" />
<glyph unicode="M" glyph-name="M" horiz-adv-x="745" d="M564 0V472H562L394 0H224L61 469H59V0H37H15V662H170L372 77H375L584 662H730V0H564ZM686 618H608V44H686V618ZM137 618H57L76 557L255 44H338L137 618Z" />
<glyph unicode="N" glyph-name="N" horiz-adv-x="588" d="M439 0L61 504H59V0H37H15V662H150L182 617L528 156H529V662H573V0H439ZM529 83L127 618H59V578L460 44H529V83Z" />
<glyph unicode="O" glyph-name="O" horiz-adv-x="685" d="M677 332Q677 259 653 196T585 86T480 13T343 -14Q269 -14 208 13T102 86T32 196T7 332Q7 408 31 471T99 580T207 651T347 676Q423 676 484 650T588 578T654 469T677 332ZM553 119Q595 161 614 217T633
332Q633 392 615 447T553 548V119ZM509 584Q493 597 473 606T430 621T386 629T343 632Q325 632 302 629T256 620T211 605T175 584V79Q190 68 211 59T256 44T301 34T343 30Q362 30 384 33T429 43T473 59T509 79V584ZM131 548Q88 503 70 448T51 332Q51 274 71 218T131
119V548Z" />
<glyph unicode="P" glyph-name="P" horiz-adv-x="573" d="M335 662Q383 662 426 650T502 614T554 551T573 459Q573 406 555 367T504 303T428 265T336 253H181V0H15V662H335ZM436 310Q458 317 475 333T505 369T523 412T529 457Q529 481 524 504T507 546T478 581T436
604V310ZM392 609Q381 614 363 616T333 618H181V297H326Q338 297 359 298T392 305V609ZM137 618H59V44H137V618Z" />
<glyph unicode="Q" glyph-name="Q" horiz-adv-x="684" d="M669 -56Q648 -59 628 -62T586 -65Q537 -65 507 -44T454 4Q403 -14 341 -14Q267 -14 206 13T100 86T30 196T5 332Q5 408 29 471T97 580T205 651T345 676Q421 676 482 650T586 578T652 469T675 332Q675
229 629 148T502 24Q521 5 540 -8T586 -21Q606 -21 625 -18T663 -12L669 -56ZM551 119Q593 161 612 217T631 332Q631 392 613 447T551 548V119ZM507 584Q491 597 471 606T428 621T384 629T341 632Q323 632 300 629T254 620T209 605T173 584V79Q192 66 217 56Q242
86 272 104T344 122Q387 122 416 103T470 58Q490 66 507 79V584ZM129 548Q86 503 68 448T49 332Q49 274 69 218T129 119V548ZM420 41Q404 57 386 67T341 78Q316 78 299 68T265 41Q307 30 341 30Q378 30 420 41Z" />
<glyph unicode="R" glyph-name="R" horiz-adv-x="662" d="M450 0L255 271H181V0H15V662H335Q383 662 426 652T502 618T554 557T573 466Q573 400 540 353T442 285L657 0H450ZM436 321Q480 339 504 378T529 464Q529 515 505 549T436 604V321ZM392 610Q381 612 367
615T342 618H181V315H337Q351 315 364 316T392 320V610ZM396 275Q374 271 352 271T308 271L473 44H571L396 275ZM137 618H59V44H137V618Z" />
<glyph unicode="S" glyph-name="S" horiz-adv-x="574" d="M537 501Q511 532 485 556T430 597T367 623T289 632Q272 632 254 626T220 609T194 583T183 548Q183 509 211 483T281 436T372 394T463 346T533 280T561 186Q561 133 536 95T472 33T386 -2T293 -14Q245
-14 206 -5T132 23T66 68T5 130L40 158Q67 128 93 104T148 64T212 39T289 30Q310 30 332 36T372 55T401 86T413 129Q413 162 386 185T317 228T228 268T138 316T70 382T42 475Q42 528 62 566T115 628T193 664T285 676Q333 676 371 667T443 640T506 596T567 536L537
501ZM436 62Q471 81 494 113T517 186Q517 230 489 261T419 317T328 361T237 406T167 460T139 534Q139 554 144 572T159 608L158 610Q125 593 106 559T86 487Q86 435 113 401T182 341T271 297T361 257T429 208T457 139Q457 119 452 99T434 63L436 62Z" />
<glyph unicode="T" glyph-name="T" horiz-adv-x="602" d="M384 618V0H218V618H0V662H602V618H384ZM340 618H262V44H340V618Z" />
<glyph unicode="U" glyph-name="U" horiz-adv-x="594" d="M581 201Q581 142 556 101T489 35T398 -2T296 -14Q248 -14 198 -3T106 34T39 99T13 196V662H179V50Q189 45 204 42T236 36T267 32T295 30Q334 30 376 38T455 65T514 117T537 197V662H581V201ZM135 618H57V196Q57
171 62 153T78 121T103 94T135 67V618Z" />
<glyph unicode="V" glyph-name="V" horiz-adv-x="647" d="M408 0H239L3 662H176L387 78H389L598 662H644L408 0ZM147 618H64L270 44H352L147 618Z" />
<glyph unicode="W" glyph-name="W" horiz-adv-x="951" d="M766 0H624L477 528H475L333 0H189L7 662H177L323 139H325L466 662H610L755 139H758L898 662H944L766 0ZM578 618H497L656 44H736L578 618ZM144 618H64L223 44H305L144 618Z" />
<glyph unicode="X" glyph-name="X" horiz-adv-x="717" d="M505 0L311 260L68 0H10L285 294L10 662H213L398 415L629 662H687L424 380L708 0H505ZM194 618H97L527 44H624L194 618Z" />
<glyph unicode="Y" glyph-name="Y" horiz-adv-x="676" d="M429 240V0H263V243L1 662H194L416 310H418L624 662H674L429 240ZM385 278L171 618H80L307 256V44H385V278Z" />
<glyph unicode="Z" glyph-name="Z" horiz-adv-x="632" d="M204 44H620V0H2V44L421 618H52V662H629V618L204 44ZM475 618L55 44H152L569 618H475Z" />
<glyph unicode="a" glyph-name="a" horiz-adv-x="481" d="M320 0V50Q292 19 253 5T173 -10Q144 -10 115 -3T61 20T22 60T7 117Q7 167 30 194T88 236T163 257T239 269T297 285T320 320Q320 334 313 351T294 382T267 406T237 416Q174 416 135 382T71 293L29 304Q64
391 121 425T271 460Q313 460 349 452T411 426T453 376T468 297V0H320ZM424 283Q424 311 419 335T402 377T368 405T315 415V413Q333 401 343 386T357 352T363 314T364 275V44H424V283ZM320 251Q302 239 282 234T242 225T201 220T160 212V34Q165 34 170 34T180 33Q205
33 230 41T275 65T307 103T320 153V251ZM116 199Q85 194 68 172T51 118Q51 90 70 69T116 42V199Z" />
<glyph unicode="b" glyph-name="b" horiz-adv-x="490" d="M165 401Q188 431 224 445T298 460Q346 460 382 440T441 387T477 313T489 228Q489 186 477 144T442 68T383 12T300 -10Q260 -10 226 0T166 43H163V0H15V683H163V401H165ZM385 70Q402 83 413 102T432 142T442
185T445 228Q445 248 442 270T433 313T415 352T385 383V70ZM341 399Q329 411 315 413T286 416Q263 416 241 407T202 381T174 344T163 299V155Q163 132 172 110T198 71T236 44T281 34Q295 34 312 37T341 49V399ZM119 639H59V44H119V639Z" />
<glyph unicode="c" glyph-name="c" horiz-adv-x="442" d="M437 142Q410 70 363 30T236 -10Q183 -10 141 7T69 56T23 131T7 227Q7 279 23 321T69 395T141 443T236 460Q263 460 290 454T341 435T385 403T417 358Q422 347 425 336T433 314L395 296Q379 326 365 348T334
386T292 408T232 416Q190 416 155 394V56Q184 34 223 34Q258 34 284 41T331 64T367 103T397 158L437 142ZM111 375Q77 349 64 309T51 227Q51 206 54 185T64 144T82 106T111 75V375Z" />
<glyph unicode="d" glyph-name="d" horiz-adv-x="490" d="M327 0V48H325Q300 16 265 3T190 -10Q143 -10 108 11T49 67T13 144T1 228Q1 271 13 312T48 387T108 440T192 460Q229 460 264 449T327 401V683H475V0H327ZM431 639H371V44H431V639ZM327 299Q327 322 317
343T289 381T249 406T204 416Q190 416 176 414T149 399V49Q160 41 177 38T209 34Q233 34 254 44T291 71T317 110T327 155V299ZM105 383Q87 371 76 353T58 313T48 270T45 228Q45 207 48 185T58 142T76 102T105 70V383Z" />
<glyph unicode="e" glyph-name="e" horiz-adv-x="447" d="M155 199V51Q171 42 193 38T232 34Q260 34 283 38T325 52T360 78T393 118L429 94Q398 39 348 15T236 -10Q183 -10 141 7T69 56T23 131T7 227Q7 279 23 321T69 395T141 443T236 460Q275 460 311 446T376
408T422 349T440 273V199H155ZM396 276Q396 307 380 338T336 385V243H396V276ZM292 397Q280 405 264 410T233 416Q214 416 193 410T155 395V243H292V397ZM111 380Q79 352 65 311T51 227Q51 185 64 143T111 71V380Z" />
<glyph unicode="f" glyph-name="f" horiz-adv-x="408" d="M377 605Q357 624 331 631T277 639Q256 639 233 634V450H318V406H233V0H85V406H2V450H85V492Q85 584 131 633T271 683Q312 683 344 673T408 636L377 605ZM189 624Q154 613 142 584T129 521V44H189V624Z" />
<glyph unicode="g" glyph-name="g" horiz-adv-x="496" d="M482 -42Q482 -96 459 -130T400 -183T318 -210T228 -218Q200 -218 169 -213T109 -197T56 -166T20 -119L63 -98Q73 -119 95 -134T143 -158T197 -171T246 -175Q268 -175 290 -172T334 -163V48Q310 15 274
3T199 -10Q151 -10 115 10T56 63T20 137T8 222Q8 265 21 307T60 384T123 439T207 460Q249 460 277 448T334 405V450H482V-42ZM438 406H378V-150Q394 -138 405 -129T424 -108T435 -81T438 -43V406ZM334 299Q334 322 324 343T298 380T260 406T216 416Q204 416 186
414T156 407V48Q159 43 167 41T185 37T204 35T218 34Q240 34 261 43T298 67T324 103T334 147V299ZM112 379Q95 365 84 347T65 308T55 265T52 222Q52 202 55 180T65 137T83 98T112 66V379Z" />
<glyph unicode="h" glyph-name="h" horiz-adv-x="451" d="M301 0V416Q297 417 290 417Q258 417 235 402T195 362T171 309T163 251V0H15V683H163V391H165Q186 425 220 442T294 460Q367 460 408 416T449 299V0H301ZM405 293Q405 328 393 361T345 409V44H405V293ZM119
639H59V44H119V639Z" />
<glyph unicode="i" glyph-name="i" horiz-adv-x="179" d="M15 537V683H163V537H15ZM119 639H59V581H119V639ZM15 0V450H163V0H15ZM119 406H59V44H119V406Z" />
<glyph unicode="j" glyph-name="j" horiz-adv-x="279" d="M122 537V683H265V537H122ZM221 639H166V581H221V639ZM265 -41Q265 -82 252 -114T215 -169T158 -204T84 -217Q39 -217 0 -201L14 -159Q28 -164 43 -168T73 -172Q86 -172 98 -171T122 -163V450H265V-41ZM221
406H166V-153Q192 -139 206 -113T221 -58V406Z" />
<glyph unicode="k" glyph-name="k" horiz-adv-x="504" d="M330 0L196 213L163 187V0H15V683H163V241L440 459L466 424L310 302L504 0H330ZM276 275L231 240L355 44H424L276 275ZM119 639H59V44H119V639Z" />
<glyph unicode="l" glyph-name="l" horiz-adv-x="178" d="M14 0V629L118 683H162V0H14ZM118 635L58 604V44H118V635Z" />
<glyph unicode="m" glyph-name="m" horiz-adv-x="749" d="M587 0V416Q583 417 576 417Q544 417 520 402T481 362T457 309T449 251V0H301V416Q297 417 290 417Q258 417 234 402T195 362T171 309T163 251V0H15V450H163V391H165Q186 425 220 442T294 460Q342 460
381 438T437 368Q450 390 464 407T494 436T532 454T580 460Q654 460 694 416T735 299V0H587ZM691 293Q691 310 688 327T679 361T661 389T631 409V44H691V293ZM405 293Q405 310 402 327T393 361T375 389T345 409V44H405V293ZM119 406H59V44H119V406Z" />
<glyph unicode="n" glyph-name="n" horiz-adv-x="463" d="M301 0V416Q297 417 290 417Q258 417 235 402T195 362T171 309T163 251V0H15V450H163V391H165Q186 425 220 442T294 460Q367 460 408 416T449 299V0H301ZM405 293Q405 328 393 361T345 409V44H405V293ZM119
406H59V44H119V406Z" />
<glyph unicode="o" glyph-name="o" horiz-adv-x="479" d="M471 221Q471 168 455 125T408 52T335 5T239 -12Q185 -12 142 5T70 53T24 128T8 225Q8 278 24 321T71 394T143 441T239 458Q293 458 336 441T409 393T455 319T471 221ZM367 76Q400 104 413 141T427 221Q427
263 413 302T367 370V76ZM323 397Q307 407 282 410T239 414Q221 414 197 411T156 397V49Q172 39 196 36T239 32Q257 32 282 35T323 49V397ZM112 370Q80 344 66 305T52 225Q52 182 65 144T112 76V370Z" />
<glyph unicode="p" glyph-name="p" horiz-adv-x="490" d="M166 400Q191 432 225 446T300 460Q347 460 382 439T441 383T477 306T489 222Q489 179 477 138T442 63T382 10T298 -10Q261 -10 226 2T168 45H163V-218H15V450H163V400H166ZM385 67Q403 79 414 97T432
137T442 180T445 222Q445 243 442 265T432 308T414 347T385 380V67ZM341 401Q330 409 313 412T281 416Q257 416 236 406T199 379T173 340T163 295V151Q163 128 173 107T201 69T241 44T286 34Q300 34 315 37T341 52V401ZM119 406H59V-174H119V406Z" />
<glyph unicode="q" glyph-name="q" horiz-adv-x="490" d="M327 -218V45H322Q299 15 264 3T192 -10Q144 -10 108 10T49 63T13 137T1 222Q1 264 13 306T48 382T107 438T190 460Q230 460 264 446T324 400H327V450H475V-218H327ZM431 406H371V-174H431V406ZM327 295Q327
318 318 340T292 379T254 406T209 416Q195 416 178 413T149 401V52Q159 40 174 37T204 34Q227 34 249 43T288 69T316 106T327 151V295ZM105 380Q88 366 77 348T58 308T48 265T45 222Q45 202 48 180T57 137T75 98T105 67V380Z" />
<glyph unicode="r" glyph-name="r" horiz-adv-x="367" d="M367 418Q338 417 315 414T267 395Q244 381 225 358T192 308T171 252T163 196V0H15V450H163V350H165Q197 408 249 435T367 462V418ZM119 406H59V44H119V406Z" />
<glyph unicode="s" glyph-name="s" horiz-adv-x="459" d="M423 328Q400 349 380 365T339 393T294 410T236 416Q212 416 194 404T176 366Q176 344 195 330T245 302T309 276T373 245T422 200T442 135Q442 96 421 69T368 24T299 -2T229 -10Q191 -10 162 -5T107 12T57
41T5 85L31 123Q55 102 76 86T120 58T169 40T229 34Q242 34 256 37T282 46T301 64T309 90Q309 108 290 120T241 145T177 171T113 204T64 251T44 320Q44 359 61 385T105 428T166 452T233 460Q270 460 298 455T352 438T401 408T452 365L423 328ZM342 52Q368 63 383
87T398 140Q398 162 383 179T346 210T301 234T260 250Q238 258 215 266T174 287T144 318T132 365Q132 373 138 387T149 408L148 409Q122 400 105 376T88 324Q88 289 107 267T156 230T220 202T284 176T333 143T353 93Q353 83 350 72T341 53L342 52Z" />
<glyph unicode="t" glyph-name="t" horiz-adv-x="281" d="M209 406V39L274 64V24Q249 10 219 0T160 -10Q145 -10 128 -5T95 11T71 36T61 68V406H1V450H61V577L165 633H209V450H278V406H209ZM165 584L105 553V87Q105 68 117 51T149 34H165V584Z" />
<glyph unicode="u" glyph-name="u" horiz-adv-x="462" d="M299 0V59H297Q276 25 242 8T168 -10Q95 -10 54 34T13 151V450H161V34Q165 33 172 33Q203 33 227 48T267 88T291 141T299 199V450H447V0H299ZM403 406H343V44H403V406ZM117 406H57V157Q57 122 69 89T117 41V406Z" />
<glyph unicode="v" glyph-name="v" horiz-adv-x="465" d="M301 0H166L3 450H161L286 96H289L415 450H462L301 0ZM130 406H66L196 44H260L130 406Z" />
<glyph unicode="w" glyph-name="w" horiz-adv-x="690" d="M555 0H414L341 306H338L257 0H114L8 450H162L238 111H241L332 450H461L537 110H541L639 450H683L555 0ZM425 406H364L448 44H509L425 406ZM126 406H64L149 44H210L126 406Z" />
<glyph unicode="x" glyph-name="x" horiz-adv-x="519" d="M328 0L217 157L70 0H10L191 194L10 450H192L295 304L431 450H490L320 268L510 0H328ZM171 406H96L350 44H425L171 406Z" />
<glyph unicode="y" glyph-name="y" horiz-adv-x="496" d="M298 -93Q290 -115 278 -137T249 -178T211 -207T162 -218Q139 -218 123 -215T92 -207T64 -193T30 -175L53 -138Q70 -147 81 -153T104 -164T128 -171T162 -174Q191 -174 210 -158T242 -117T263 -66T279
-18L6 450H175L343 159L448 450H496L298 -93ZM150 406H82L298 35L324 106L150 406Z" />
<glyph unicode="z" glyph-name="z" horiz-adv-x="447" d="M6 0V44L257 406H45V450H439V406L187 44H439V0H6ZM310 406L63 44H133L383 406H310Z" />
<glyph unicode="&#xa0;" glyph-name="space" horiz-adv-x="500" />
</font>
</defs>
</svg>
