<?xml version="1.0" standalone="no"?> <!DOCTYPE svg PUBLIC "-//W3C//DTD SVG 1.0//EN" "http://www.w3.org/TR/2001/REC-SVG-20010904/DTD/svg10.dtd" > <svg xmlns="http://www.w3.org/2000/svg" width="100%" height="100%">
<defs >
<font horiz-adv-x="552" ><font-face
    font-family="STIXSansSerifItalic"
    units-per-em="1000"
    panose-1="0 0 0 0 0 0 0 0 0 0"
    ascent="693"
    descent="-218"
    alphabetic="0" />
<missing-glyph horiz-adv-x="500" />
<glyph unicode=" " glyph-name="space" horiz-adv-x="500" />
<glyph unicode="A" glyph-name="A" horiz-adv-x="612" d="M427 503L276 274H464L427 503ZM508 0L475 200H226L96 0H0L457 674H483L604 0H508Z" />
<glyph unicode="B" glyph-name="B" horiz-adv-x="579" d="M236 74Q286 74 324 86T389 120T429 170T443 230Q443 257 432 274T398 300T338 313T250 317H171L110 74H236ZM280 394Q375 394 427 425T480 525Q480 558 453 573T368 588H238L190 394H280ZM375 662Q572
662 572 545Q572 489 540 442T441 366Q489 349 510 318T532 244Q532 193 510 149T448 71T357 19T245 0H5L170 662H375Z" />
<glyph unicode="C" glyph-name="C" horiz-adv-x="670" d="M640 453H621Q614 497 594 525T547 570T487 593T424 600Q357 600 298 571T194 494T124 381T98 247Q98 161 147 112T293 62Q359 62 417 88T539 170L577 119Q511 55 433 21T271 -14Q206 -14 157 3T74 52T24
129T7 228Q7 319 42 400T136 543T275 640T442 676Q475 676 509 670T573 649T628 612T666 554L640 453Z" />
<glyph unicode="D" glyph-name="D" horiz-adv-x="690" d="M160 74Q203 74 237 75T302 81T358 93T414 114Q454 132 486 162T542 231T578 315T591 409Q591 503 515 545T299 588H239L111 74H160ZM337 662Q516 662 599 602T683 429Q683 353 653 277T565 139T420 39T221
0H6L171 662H337Z" />
<glyph unicode="E" glyph-name="E" horiz-adv-x="609" d="M590 588H238L188 386H493L474 311H169L110 74H489L454 0H5L170 662H609L590 588Z" />
<glyph unicode="F" glyph-name="F" horiz-adv-x="610" d="M600 588H238L188 386H484L465 311H169L92 0H5L170 662H610L600 588Z" />
<glyph unicode="G" glyph-name="G" horiz-adv-x="671" d="M639 462H620Q611 502 593 528T549 571T494 593T431 600Q358 600 297 571T192 493T124 385T99 262Q99 221 111 185T148 122T211 78T303 62Q348 62 380 67T434 82T465 101T479 123L519 281H430V357H625L550
59Q526 45 501 32T446 9T375 -8T280 -14Q214 -14 163 4T77 54T24 132T6 234Q6 322 42 402T140 543T281 640T450 676Q483 676 515 671T575 652T627 618T664 565L639 462Z" />
<glyph unicode="H" glyph-name="H" horiz-adv-x="687" d="M516 0H429L504 301H168L93 0H6L171 662H258L186 375H522L594 662H681L516 0Z" />
<glyph unicode="I" glyph-name="I" horiz-adv-x="455" d="M444 588H333L205 74H316L289 0H1L5 74H116L244 588H133L166 662H454L444 588Z" />
<glyph unicode="J" glyph-name="J" horiz-adv-x="450" d="M335 212Q323 165 306 124T264 52T202 4T117 -14Q84 -14 55 -3T0 42L38 118H55Q69 96 91 79T139 62Q166 62 184 76T214 111T233 157T247 206L361 662H448L335 212Z" />
<glyph unicode="K" glyph-name="K" horiz-adv-x="666" d="M656 645L278 357L562 0H443L202 302L160 269L93 0H6L171 662H258L186 375L566 662H661L656 645Z" />
<glyph unicode="L" glyph-name="L" horiz-adv-x="494" d="M458 0H4L169 662H256L109 74H494L458 0Z" />
<glyph unicode="M" glyph-name="M" horiz-adv-x="874" d="M701 0H616L751 543L365 0H344L227 541L93 0H8L173 662H296L400 180L743 662H866L701 0Z" />
<glyph unicode="N" glyph-name="N" horiz-adv-x="704" d="M529 -14L464 0L233 564L93 0H6L171 662H292L490 178L611 662H698L529 -14Z" />
<glyph unicode="O" glyph-name="O" horiz-adv-x="694" d="M597 421Q597 506 550 553T414 600Q359 600 310 581T222 527T153 443T109 331Q97 281 97 241Q97 156 144 109T280 62Q335 62 384 81T472 135T541 219T585 331Q597 380 597 421ZM687 430Q687 334 650 253T552
112T416 20T261 -14Q203 -14 156 3T76 53T25 130T7 232Q7 329 44 410T142 551T278 643T433 676Q491 676 538 659T618 609T669 532T687 430Z" />
<glyph unicode="P" glyph-name="P" horiz-adv-x="569" d="M269 359Q378 359 428 401T478 508Q478 547 442 567T321 588H238L181 359H269ZM354 662Q465 662 517 628T569 529Q569 479 548 435T489 357T399 305T283 285H163L92 0H5L170 662H354Z" />
<glyph unicode="Q" glyph-name="Q" horiz-adv-x="689" d="M594 421Q594 506 547 553T411 600Q356 600 307 581T219 527T150 443T106 331Q94 281 94 241Q94 156 141 109T277 62Q332 62 381 81T469 135T538 219T582 331Q594 380 594 421ZM552 -175Q493 -175 438
-173T337 -154T254 -105T197 -8Q107 9 56 72T4 233Q4 329 41 410T139 551T275 643T430 676Q488 676 535 659T615 609T666 532T684 430Q684 342 652 266T566 132T445 37T306 -10Q318 -42 338 -60T382 -87T435 -98T491 -101L556 -157L552 -175Z" />
<glyph unicode="R" glyph-name="R" horiz-adv-x="578" d="M273 373Q372 373 426 407T480 514Q480 553 443 570T321 588H238L184 373H273ZM355 662Q464 662 517 629T570 532Q570 487 553 449T504 380T431 330T341 303L512 0H409L236 299H166L92 0H5L170 662H355Z" />
<glyph unicode="S" glyph-name="S" horiz-adv-x="543" d="M508 477H489Q480 540 439 570T342 600Q316 600 293 591T251 565T221 529T210 488Q210 468 220 452T247 423T283 398T322 378Q401 343 435 306T470 219Q470 165 447 122T385 49T297 2T195 -14Q131 -14
80 5T3 70L24 205H42Q49 166 67 139T108 94T158 70T210 62Q247 62 278 71T330 97T364 137T376 186Q376 220 352 244T277 291Q197 327 159 365T120 456Q120 505 141 545T196 615T275 660T366 676Q432 676 475 653T538 596L508 477Z" />
<glyph unicode="T" glyph-name="T" horiz-adv-x="591" d="M582 588H337L190 0H103L249 588H4L33 662H591L582 588Z" />
<glyph unicode="U" glyph-name="U" horiz-adv-x="653" d="M544 243Q512 116 430 51T218 -14Q9 -14 9 154Q9 193 21 243L126 662H213L111 256Q103 227 100 208T97 173Q97 121 134 92T237 62Q293 62 339 83T415 141Q432 163 442 193T464 269L562 662H649L544 243Z" />
<glyph unicode="V" glyph-name="V" horiz-adv-x="600" d="M149 -11H123L8 662H103L180 164L504 662H600L149 -11Z" />
<glyph unicode="W" glyph-name="W" horiz-adv-x="877" d="M480 -11H452L385 435L101 -11H73L13 662H108L142 188L443 662L508 188L781 662H876L480 -11Z" />
<glyph unicode="X" glyph-name="X" horiz-adv-x="783" d="M461 349L641 0H536L391 283L108 0H3L355 349L193 662H299L424 414L671 662H778L461 349Z" />
<glyph unicode="Y" glyph-name="Y" horiz-adv-x="595" d="M251 288L179 0H92L163 288L7 662H102L226 362L500 662H595L251 288Z" />
<glyph unicode="Z" glyph-name="Z" horiz-adv-x="738" d="M730 641L161 74H594L568 0H1L7 25L573 588H181L208 662H736L730 641Z" />
<glyph unicode="a" glyph-name="a" horiz-adv-x="424" d="M306 222Q88 187 88 96Q88 61 136 61Q165 61 202 77T283 132L306 222ZM77 333Q93 369 116 394T167 434T224 456T283 463Q346 463 381 437T416 362Q416 348 411 326L348 76Q343 59 342 40T340 0H255L260
44Q221 15 179 3T98 -10Q55 -10 30 9T4 66Q4 150 82 206T324 294L332 327Q334 337 334 342Q334 365 315 378T263 392Q216 392 186 365T133 302H118L77 333Z" />
<glyph unicode="b" glyph-name="b" horiz-adv-x="466" d="M95 94Q126 61 178 61Q210 61 246 76T312 120T362 191T382 288Q382 336 357 364T282 392Q247 392 211 370T147 302L95 94ZM175 414Q208 438 244 450T315 463Q386 463 425 423T465 313Q465 247 439 188T369
85T270 16T155 -10Q111 -10 71 2T4 47L157 660L233 684L241 679L175 414Z" />
<glyph unicode="c" glyph-name="c" horiz-adv-x="445" d="M385 317H369Q365 339 356 353T333 376T305 388T274 392Q246 392 214 378T154 335T108 266T89 169Q89 117 118 89T192 61Q226 61 266 85T347 166L403 132Q376 93 347 66T288 22T227 -2T168 -10Q96 -10
51 31T6 150Q6 218 32 275T101 374T194 439T296 463Q349 463 389 441T442 371L385 317Z" />
<glyph unicode="d" glyph-name="d" horiz-adv-x="532" d="M362 329Q349 359 326 375T274 392Q244 392 211 376T149 330T102 259T83 168Q83 113 110 87T180 61Q215 61 253 87T319 158L362 329ZM390 128Q384 103 378 71T368 13L290 -11L282 -6L292 44Q257 17 217
4T142 -10Q77 -10 39 29T0 144Q0 208 26 266T93 367T186 437T288 463Q314 463 338 455T386 426L444 660L520 684L528 679L390 128Z" />
<glyph unicode="e" glyph-name="e" horiz-adv-x="431" d="M341 293Q345 309 345 326Q345 347 338 360T320 380T294 389T265 392Q247 392 228 387T189 369T154 339T126 293H341ZM398 132Q371 95 345 69T291 25T233 -1T165 -10Q93 -10 50 30T7 148Q7 224 34 282T102
381T194 442T291 463Q357 463 391 428T425 334Q425 305 418 277L404 222H95Q88 194 88 168Q88 115 117 88T191 61Q270 61 341 167L398 132Z" />
<glyph unicode="f" glyph-name="f" horiz-adv-x="427" d="M389 574L372 573Q352 592 337 602T302 612Q273 612 247 589T207 509L193 453H307L290 382H176L81 0H2L97 382H16L33 453H114L125 494Q139 547 159 583T209 643Q232 661 259 672T313 683Q348 683 374 672T427
633L389 574Z" />
<glyph unicode="g" glyph-name="g" horiz-adv-x="587" d="M187 -15Q142 -28 114 -49T86 -98Q86 -122 110 -133T175 -145Q210 -145 245 -141T308 -125T355 -96T373 -52Q373 -38 355 -31T310 -20T256 -16T207 -15H187ZM414 329Q414 392 343 392Q318 392 296 382T258
355T232 317T222 275Q222 245 242 227T301 209Q326 209 347 219T383 246T406 284T414 329ZM569 369H491Q493 361 494 354T495 339Q495 296 477 259T428 195T359 153T282 138Q266 138 253 139T223 146Q169 118 169 91Q169 81 177 73T209 64Q263 62 308 60T387 48T438
21T457 -31Q457 -82 427 -117T352 -175T252 -206T149 -216Q84 -216 44 -195T3 -128Q3 -86 29 -50T103 10Q90 20 85 31T80 55Q80 85 101 111T169 178Q156 193 149 212T141 256Q141 296 159 333T209 399T281 445T367 463Q389 463 406 459T441 450T476 440T517 436H585L569
369Z" />
<glyph unicode="h" glyph-name="h" horiz-adv-x="451" d="M181 405Q205 424 225 435T265 453T304 461T344 463Q392 463 420 439T449 366Q449 345 443 321L363 0H284L359 304Q361 314 362 322T364 338Q364 367 347 379T299 392Q287 392 268 386T229 369T189 341T156
302L81 0H2L166 660L242 684L250 679L181 405Z" />
<glyph unicode="i" glyph-name="i" horiz-adv-x="256" d="M83 0H0L109 440L189 464L197 459L83 0ZM233 586H141L164 679H256L233 586Z" />
<glyph unicode="j" glyph-name="j" horiz-adv-x="472" d="M291 -26Q267 -122 217 -169T100 -216Q76 -216 51 -207T0 -180L43 -116H59Q76 -129 88 -136T117 -144Q145 -144 168 -120T205 -42L325 439L404 464L412 459L291 -26ZM449 586H356L379 679H472L449 586Z" />
<glyph unicode="k" glyph-name="k" horiz-adv-x="496" d="M493 439L201 255L392 0H289L133 207L82 0H3L167 660L243 684L251 679L157 303L392 453H496L493 439Z" />
<glyph unicode="l" glyph-name="l" horiz-adv-x="252" d="M83 0H0L164 660L244 684L252 679L83 0Z" />
<glyph unicode="m" glyph-name="m" horiz-adv-x="730" d="M183 402Q215 433 256 448T337 463Q377 463 407 447T452 398Q489 430 531 446T610 463Q657 463 688 438T719 361Q719 340 713 315L635 0H558L631 293Q637 317 637 335Q637 365 621 378T576 392Q565 392
547 386T508 369T469 341T436 302L361 0H284L355 290Q358 304 360 314T362 335Q362 392 303 392Q292 392 274 386T235 369T194 341T161 302L86 0H9L118 440L189 464L197 459L183 402Z" />
<glyph unicode="n" glyph-name="n" horiz-adv-x="461" d="M181 402Q229 440 267 451T347 463Q395 463 423 437T452 372Q452 348 446 321L366 0H287L362 304Q367 326 367 339Q367 368 350 380T302 392Q290 392 271 386T232 369T192 341T159 302L84 0H5L114 440L185
464L193 459L181 402Z" />
<glyph unicode="o" glyph-name="o" horiz-adv-x="474" d="M386 282Q386 335 357 363T274 392Q235 392 202 373T143 324T103 255T88 177Q88 125 116 93T195 61Q246 61 282 87T342 149T375 222T386 282ZM467 300Q467 252 447 198T390 97T298 21T176 -10Q136 -10
105 2T52 37T19 91T7 160Q7 216 29 270T89 367T180 436T291 463Q373 463 420 421T467 300Z" />
<glyph unicode="p" glyph-name="p" horiz-adv-x="528" d="M166 123Q178 91 201 76T254 61Q292 61 326 79T387 128T429 199T445 284Q445 331 421 361T348 392Q313 392 275 366T209 295L166 123ZM235 409Q270 436 310 449T386 463Q450 463 489 423T528 307Q528 243
502 186T434 85T341 16T240 -10Q214 -10 189 -2T142 26L88 -192L12 -216L4 -211L166 440L239 464L246 459L235 409Z" />
<glyph unicode="q" glyph-name="q" horiz-adv-x="481" d="M367 329Q354 360 329 376T275 392Q245 392 212 376T150 330T103 259T84 168Q84 121 108 91T181 61Q216 61 256 87T324 158L367 329ZM311 -211L301 -216L237 -192L295 42Q261 16 222 3T147 -10Q82 -10
42 31T1 147Q1 210 27 267T95 368T188 437T289 463Q316 463 344 456T394 428L468 464L478 458L311 -211Z" />
<glyph unicode="r" glyph-name="r" horiz-adv-x="380" d="M362 377H342Q339 385 326 388T307 392Q264 392 220 350T141 234L83 0H4L113 440L189 464L197 459L183 395Q218 433 257 448T327 463Q339 463 354 461T380 447L362 377Z" />
<glyph unicode="s" glyph-name="s" horiz-adv-x="378" d="M352 321H337Q328 345 317 359T292 380T263 390T231 393Q209 393 194 386T170 369T157 348T153 330Q153 308 172 294T220 265Q278 237 302 215T327 158Q327 125 313 95T272 41T210 4T128 -10Q80 -10 54
4T3 45L28 148H43Q53 100 82 81T152 61Q167 61 183 65T212 77T235 98T244 128Q244 144 227 157T174 189Q119 216 95 242T70 303Q70 333 83 361T121 412T178 449T251 463Q299 463 328 449T374 410L352 321Z" />
<glyph unicode="t" glyph-name="t" horiz-adv-x="282" d="M265 382H161L100 137Q94 113 94 98Q94 76 104 69T132 61Q147 61 163 65T202 87H214L184 12Q162 -2 139 -6T91 -10Q49 -10 28 11T7 67Q7 82 12 104L82 382H2L6 399L64 453H99L115 517L192 580H210L178
453H282L265 382Z" />
<glyph unicode="u" glyph-name="u" horiz-adv-x="461" d="M375 128Q369 103 363 71T353 13L276 -11L268 -6L282 59Q244 27 198 9T114 -10Q66 -10 38 15T9 81Q9 105 15 131L95 453H174L99 149Q96 138 95 130T94 114Q94 85 111 73T159 61Q171 61 190 68T231 89T271
120T305 161L377 453H456L375 128Z" />
<glyph unicode="v" glyph-name="v" horiz-adv-x="420" d="M109 -14H87L8 453H93L141 154L335 453H420L109 -14Z" />
<glyph unicode="w" glyph-name="w" horiz-adv-x="659" d="M346 -14H324L287 230L104 -14H83L11 453H95L142 149L271 325Q267 357 262 389T252 453H336L384 159L573 453H658L346 -14Z" />
<glyph unicode="x" glyph-name="x" horiz-adv-x="523" d="M318 236L426 0H332L253 175L98 0H4L224 239L128 453H222L290 302L424 453H518L318 236Z" />
<glyph unicode="y" glyph-name="y" horiz-adv-x="587" d="M286 -44Q236 -127 187 -171T71 -216Q51 -216 33 -211T3 -192L21 -120H37Q54 -135 67 -139T91 -144Q108 -144 126 -133T162 -103T197 -59T231 -6Q235 2 240 10T250 27Q232 131 210 240T168 453H254L313
130L502 453H587L286 -44Z" />
<glyph unicode="z" glyph-name="z" horiz-adv-x="502" d="M491 433L149 71H413L386 0H4L8 20L350 382H123L152 453H496L491 433Z" />
<glyph unicode="&#xa0;" glyph-name="space" horiz-adv-x="500" />
</font>
</defs>
</svg>
