<?xml version="1.0" standalone="no"?> <!DOCTYPE svg PUBLIC "-//W3C//DTD SVG 1.0//EN" "http://www.w3.org/TR/2001/REC-SVG-20010904/DTD/svg10.dtd" > <svg xmlns="http://www.w3.org/2000/svg" width="100%" height="100%">
<defs >
<font horiz-adv-x="454" ><font-face
    font-family="STIXMonospace"
    units-per-em="1000"
    panose-1="0 0 0 0 0 0 0 0 0 0"
    ascent="693"
    descent="-218"
    alphabetic="0" />
<missing-glyph horiz-adv-x="500" />
<glyph unicode=" " glyph-name="space" horiz-adv-x="500" />
<glyph unicode="0" glyph-name="zero" horiz-adv-x="424" d="M418 335Q418 263 402 200T358 90T293 16T212 -11Q169 -11 132 16T66 90T22 200T6 335Q6 407 22 470T66 580T131 654T212 681Q255 681 292 654T358 580T402 470T418 335ZM360 348Q360 404 349 453T317
538T270 596T212 617Q182 617 155 596T108 539T77 453T65 348Q65 287 76 233T108 139T155 76T212 53Q243 53 270 76T317 139T348 233T360 348Z" />
<glyph unicode="1" glyph-name="one" horiz-adv-x="326" d="M326 24Q326 14 319 7T302 0H31Q20 0 14 7T7 24V40Q7 50 13 57T31 64H137V537Q116 513 88 498T25 483Q14 483 8 490T1 507V523Q1 533 7 540T25 547Q66 547 97 580T146 665Q151 681 169 681H171Q182 681
188 674T195 657V64H302Q312 64 319 57T326 40V24Z" />
<glyph unicode="2" glyph-name="two" horiz-adv-x="433" d="M425 24Q425 14 418 7T401 0H31Q21 0 14 7T7 24V40Q7 52 15 58L205 229Q237 258 266 285T317 342T353 402T367 470Q367 501 355 528T319 575T262 606T187 617Q143 617 110 588T68 513Q82 501 82 484Q82
465 70 456T44 447Q31 447 19 456T7 484Q7 524 22 560T63 623T125 665T202 681Q251 681 292 665T363 621T408 554T425 470Q425 425 409 386T368 314T312 250T251 193L108 64H367V87Q367 98 374 104T391 111H401Q411 111 418 105T425 87V24Z" />
<glyph unicode="3" glyph-name="three" horiz-adv-x="446" d="M230 399Q256 401 278 412T317 440T343 481T353 530Q353 546 344 561T319 589T281 609T230 617Q180 617 146 603T98 565Q108 555 108 540Q108 521 96 512T70 502Q57 502 45 511T33 540Q33 577 51 604T98
648T162 673T230 681Q266 681 298 670T356 639T396 591T411 530Q411 476 385 432T316 361Q370 339 405 295T440 191Q440 149 424 112T379 48T312 5T230 -11Q189 -11 149 0T77 33T24 88T4 164Q4 182 16 191T41 201Q54 201 66 192T79 164Q79 147 67 137Q80 99 124
76T230 53Q262 53 290 64T338 94T370 138T382 191Q382 219 371 244T339 288T290 318T230 329H159Q149 329 142 336T135 354V370Q135 379 141 386T157 394L230 399Z" />
<glyph unicode="4" glyph-name="four" horiz-adv-x="466" d="M464 212Q464 202 457 195T440 188H344V64H421Q431 64 438 57T445 40V24Q445 14 438 7T421 0H218Q208 0 201 7T194 24V40Q194 50 201 57T218 64H295V188H24Q14 188 7 195T0 212V246Q0 253 4 258L242
670Q249 682 263 682H320Q330 682 337 675T344 658V252H440Q450 252 457 245T464 228V212ZM295 646L67 252H295V646Z" />
<glyph unicode="5" glyph-name="five" horiz-adv-x="427" d="M105 387Q160 425 235 425Q275 425 310 407T370 359T409 290T424 207Q424 162 407 122T359 53T289 6T203 -11Q166 -11 131 1T68 34T23 87T6 158Q6 176 18 185T43 195Q56 195 68 186T81 158Q81 142 69
130Q81 97 117 75T203 53Q237 53 267 65T319 98T353 147T366 207Q366 240 355 268T326 317T285 349T235 361Q144 361 104 302Q96 291 84 291H68Q58 291 51 298T44 315Q44 322 47 327V646Q47 656 54 663T71 670H365Q375 670 382 663T389 646V630Q389 619 382 613T365
606H105V387Z" />
<glyph unicode="6" glyph-name="six" horiz-adv-x="418" d="M411 213Q411 168 396 127T353 56T288 7T208 -11Q157 -11 119 14T55 86T18 195T5 335Q5 404 24 466T79 577T162 653T266 681Q291 681 315 676T358 658T388 626T400 577Q400 558 388 549T363 539Q350
539 338 548T326 577Q326 590 333 599Q325 607 309 612T266 617Q228 617 194 598T132 545T86 464T64 361Q93 396 135 417T228 438Q268 438 301 420T359 370T397 299T411 213ZM73 216Q89 131 124 92T208 53Q237 53 263 65T310 99T341 150T353 213Q353 247 342 276T311
328T267 362T214 374Q184 374 158 363T113 334T82 292T71 240L73 216Z" />
<glyph unicode="7" glyph-name="seven" horiz-adv-x="439" d="M439 630Q439 619 432 613Q316 492 254 339T192 18Q192 4 183 -3T163 -11Q153 -11 144 -4T134 18Q134 182 191 333T355 606H61V583Q61 572 55 565T37 558H27Q17 558 10 565T3 583V662Q3 672 10 679T27
686H37Q55 686 60 670H415Q425 670 432 663T439 646V630Z" />
<glyph unicode="8" glyph-name="eight" horiz-adv-x="448" d="M442 191Q442 149 425 113T379 49T309 5T224 -11Q179 -11 140 5T70 48T23 112T6 191Q6 251 46 296T149 362Q92 379 57 417T21 505Q21 541 37 573T80 629T145 667T224 681Q266 681 303 667T367 629T411
573T427 505Q427 456 392 418T299 362Q362 342 402 297T442 191ZM369 505Q369 528 358 548T327 584T281 608T224 617Q194 617 168 608T122 584T91 549T80 505Q80 482 91 462T121 427T167 403T224 394Q254 394 280 403T326 427T357 462T369 505ZM384 191Q384 220
372 245T337 289T286 319T224 330Q191 330 162 319T111 290T77 246T64 191Q64 162 76 137T111 94T162 64T224 53Q257 53 286 64T337 93T371 137T384 191Z" />
<glyph unicode="9" glyph-name="nine" horiz-adv-x="419" d="M413 335Q413 267 395 205T344 94T266 18T167 -11Q141 -11 115 -7T67 9T32 41T18 93Q18 112 30 121T55 131Q69 131 81 122T93 93Q93 81 85 71Q94 62 113 58T167 53Q201 53 233 72T291 124T334 205T354
309Q325 274 283 253T190 232Q150 232 117 250T59 300T21 371T7 457Q7 503 23 543T67 614T134 663T216 681Q266 681 303 656T364 584T401 475T413 335ZM346 454Q331 539 296 578T216 617Q185 617 158 605T111 571T78 520T66 457Q66 422 77 393T107 342T151 308T204
296Q234 296 260 307T306 336T337 378T348 430L346 454Z" />
<glyph unicode="A" glyph-name="A" horiz-adv-x="472" d="M471 24Q471 14 464 7T447 0H320Q309 0 303 7T296 24V40Q296 50 302 57T320 64H351L325 181H147L121 64H153Q163 64 170 57T177 40V24Q177 14 170 7T153 0H25Q15 0 8 7T1 24V40Q1 50 8 57T25 64H61L191
649Q193 660 201 666T221 673H251Q262 673 270 667T281 649L411 64H447Q457 64 464 57T471 40V24ZM311 245Q297 308 284 369T261 478T244 556T237 589H236Q236 587 230 557T213 478T189 369T161 245H311Z" />
<glyph unicode="B" glyph-name="B" horiz-adv-x="466" d="M272 662Q306 662 336 649T390 613T426 560T439 494Q439 443 409 403T330 346Q358 340 381 325T422 288T449 239T459 182Q459 144 446 111T411 53T358 14T293 0H32Q22 0 15 7T8 24V40Q8 50 15 57T32 64H75V598H32Q22
598 15 604T8 622V638Q8 648 15 655T32 662H272ZM251 376Q278 376 301 385T343 410T371 447T381 494Q381 515 373 534T349 567T314 590T272 598H134V376H251ZM272 64Q299 64 322 73T363 99T391 136T401 182Q401 209 392 232T366 273T329 301T282 312H134V64H272Z"
/>
<glyph unicode="C" glyph-name="C" horiz-adv-x="455" d="M423 232Q433 232 440 225T447 208Q447 165 432 126T390 56T326 7T245 -11Q192 -11 148 17T73 92T23 201T5 330Q5 397 23 459T72 568T148 644T245 672Q288 672 322 654T382 607L397 655Q402 672 420 672H423Q433
672 440 665T447 648V442Q447 432 440 425T423 418H413Q403 418 397 424T389 440Q386 475 375 506T347 559T308 595T258 608Q220 608 185 587T123 529T80 441T63 330Q63 270 79 219T123 132T185 74T259 53Q286 53 310 65T351 98T379 147T389 208Q389 218 396 225T413
232H423Z" />
<glyph unicode="D" glyph-name="D" horiz-adv-x="473" d="M255 662Q299 662 337 636T405 563T450 456T467 325Q467 257 451 198T405 95T338 26T255 0H33Q23 0 16 7T9 24V40Q9 50 16 57T33 64H71V598H33Q23 598 16 604T9 622V638Q9 648 16 655T33 662H255ZM240
64Q275 64 305 84T359 140T395 223T409 325Q409 382 396 431T359 518T306 576T240 598H130V64H240Z" />
<glyph unicode="E" glyph-name="E" horiz-adv-x="488" d="M477 24Q477 14 470 7T453 0H32Q22 0 15 7T8 24V40Q8 50 15 57T32 64H78V598H32Q22 598 15 604T8 622V638Q8 648 15 655T32 662H432Q442 662 449 655T456 638V527Q456 517 449 510T432 503H422Q412 503
405 510T398 527V598H137V375H278V407Q278 417 285 424T302 431H312Q323 431 330 424T337 407V278Q337 268 330 261T312 254H302Q292 254 285 261T278 278V310H137V64H419V150Q419 160 426 167T443 174H453Q463 174 470 167T477 150V24Z" />
<glyph unicode="F" glyph-name="F" horiz-adv-x="462" d="M462 527Q462 517 455 510T438 503H428Q418 503 411 510T404 527V598H140V363H285V395Q285 405 292 412T309 419H320Q330 419 337 412T344 395V266Q344 256 337 249T320 242H309Q299 242 292 249T285 266V298H140V64H208Q218
64 225 57T232 40V24Q232 14 225 7T208 0H32Q22 0 15 7T8 24V40Q8 50 15 57T32 64H81V598H32Q22 598 15 604T8 622V638Q8 648 15 655T32 662H438Q448 662 455 655T462 638V527Z" />
<glyph unicode="G" glyph-name="G" horiz-adv-x="469" d="M464 266Q464 256 457 249T440 242H417V24Q417 14 410 7T393 0H383Q373 0 366 7T359 24V58Q336 27 305 8T229 -11Q179 -11 138 17T68 93T23 202T6 330Q6 397 22 458T68 567T138 643T229 672Q269 672 299
656T353 612L367 655Q372 672 390 672H393Q403 672 410 665T417 648V442Q417 432 410 425T393 418H383Q373 418 367 424T359 440Q356 476 347 506T322 559T287 595T241 608Q208 608 176 588T119 530T79 442T64 330Q64 269 79 218T118 131T174 74T238 53Q265 53
286 67T322 107T345 166T357 242H299Q289 242 282 249T275 266V282Q275 293 282 299T299 306H440Q450 306 457 300T464 282V266Z" />
<glyph unicode="H" glyph-name="H" horiz-adv-x="486" d="M478 24Q478 14 471 7T454 0H314Q303 0 297 7T290 24V40Q290 50 296 57T314 64H355V312H132V64H173Q183 64 190 57T197 40V24Q197 14 190 7T173 0H32Q22 0 15 7T8 24V40Q8 50 15 57T32 64H73V598H32Q22
598 15 604T8 622V638Q8 648 15 655T32 662H173Q183 662 190 655T197 638V622Q197 611 190 605T173 598H132V376H355V598H314Q303 598 297 604T290 622V638Q290 648 296 655T314 662H454Q464 662 471 655T478 638V622Q478 611 471 605T454 598H413V64H454Q464 64
471 57T478 40V24Z" />
<glyph unicode="I" glyph-name="I" horiz-adv-x="360" d="M357 24Q357 14 350 7T333 0H27Q17 0 10 7T3 24V40Q3 50 10 57T27 64H150L151 598H27Q17 598 10 604T3 622V638Q3 648 10 655T27 662H333Q343 662 350 655T357 638V622Q357 611 350 605T333 598H210L209
64H333Q343 64 350 57T357 40V24Z" />
<glyph unicode="J" glyph-name="J" horiz-adv-x="394" d="M391 622Q391 611 385 605T367 598H321V139Q321 107 308 80T273 32T222 1T161 -11Q134 -11 106 -4T54 18T15 55T0 110Q0 129 12 138T38 147Q51 147 63 138T75 110Q75 97 67 87Q78 72 102 63T161 53Q183
53 202 60T234 79T255 106T263 139V598H164Q154 598 147 604T140 622V638Q140 648 147 655T164 662H367Q378 662 384 655T391 638V622Z" />
<glyph unicode="K" glyph-name="K" horiz-adv-x="480" d="M473 24Q473 14 466 7T449 0H348Q338 0 331 7T324 24V40Q324 50 331 57T348 64H363L218 347L120 212V64H158Q168 64 175 57T182 40V24Q182 14 175 7T158 0H33Q23 0 16 7T9 24V40Q9 50 16 57T33 64H71V598H33Q23
598 16 604T9 622V638Q9 648 16 655T33 662H158Q168 662 175 655T182 638V622Q182 611 175 605T158 598H120V294L342 598H326Q315 598 309 604T302 622V638Q302 648 308 655T326 662H438Q449 662 456 655T463 638V622Q463 611 456 605T438 598H401L250 391L417
64H449Q459 64 466 57T473 40V24Z" />
<glyph unicode="L" glyph-name="L" horiz-adv-x="458" d="M458 24Q458 14 451 7T434 0H32Q21 0 15 7T8 24V40Q8 50 14 57T32 64H85V598H32Q21 598 15 604T8 622V638Q8 648 14 655T32 662H215Q225 662 232 655T239 638V622Q239 611 232 605T215 598H143V64H400V150Q400
160 407 167T424 174H434Q444 174 451 167T458 150V24Z" />
<glyph unicode="M" glyph-name="M" horiz-adv-x="498" d="M489 24Q489 14 482 7T465 0H359Q349 0 342 7T335 24V40Q335 50 342 57T359 64H388V590H387Q387 588 382 570T368 523T348 458T325 384T302 310T281 244Q278 233 269 227T249 220Q238 220 229 226T217
244Q208 273 197 309T174 383T151 457T131 522T117 569T112 590H111V64H139Q150 64 156 57T163 40V24Q163 14 157 7T139 0H34Q23 0 16 7T9 24V40Q9 50 16 57T34 64H62V598H34Q23 598 16 604T9 622V638Q9 648 16 655T34 662H109Q120 662 129 656T142 638Q151 609
162 573T186 498T209 424T229 359T243 312T249 292H250Q250 293 255 311T269 358T289 423T312 498T335 572T356 638Q359 649 368 655T389 662H465Q475 662 482 655T489 638V622Q489 611 482 605T465 598H436V64H465Q475 64 482 57T489 40V24Z" />
<glyph unicode="N" glyph-name="N" horiz-adv-x="474" d="M468 622Q468 611 461 605T444 598H403V24Q403 14 396 7T379 0H356Q345 0 336 6T322 24L122 594V64H163Q173 64 180 57T187 40V24Q187 14 180 7T163 0H32Q22 0 15 7T8 24V40Q8 50 15 57T32 64H73V598H32Q22
598 15 604T8 622V638Q8 648 15 655T32 662H120Q132 662 141 656T154 638L355 68V598H314Q303 598 297 604T290 622V638Q290 648 296 655T314 662H444Q454 662 461 655T468 638V622Z" />
<glyph unicode="O" glyph-name="O" horiz-adv-x="430" d="M420 330Q420 253 418 198T408 104T388 44T351 9T295 -7T215 -11Q168 -11 135 -8T79 8T43 43T22 104T13 197T10 330Q10 408 12 463T22 557T42 617T79 652T135 668T215 672Q261 672 294 669T351 653T387
618T408 557T417 464T420 330ZM362 344Q362 434 358 486T339 566T295 600T215 608Q165 608 136 601T92 566T73 487T69 344Q69 245 73 187T92 100T136 62T215 53Q265 53 294 61T339 99T358 187T362 344Z" />
<glyph unicode="P" glyph-name="P" horiz-adv-x="456" d="M271 662Q309 662 343 647T402 605T441 542T456 465Q456 424 442 388T402 324T343 282T271 266H137V64H183Q193 64 200 57T207 40V24Q207 14 200 7T183 0H32Q22 0 15 7T8 24V40Q8 50 15 57T32 64H78V598H32Q22
598 15 604T8 622V638Q8 648 15 655T32 662H271ZM256 330Q285 330 311 340T356 369T387 412T398 465Q398 492 387 516T357 559T311 587T256 598H137V330H256Z" />
<glyph unicode="Q" glyph-name="Q" horiz-adv-x="424" d="M275 -9Q261 -10 245 -10T209 -11Q163 -11 130 -8T73 8T37 43T16 104T7 197T4 330Q4 408 6 463T16 557T36 617T73 652T129 668T209 672Q255 672 288 669T345 653T381 618T402 557T411 464T414 330Q414
250 412 194T401 99T379 39T339 6L402 -115L403 -122Q403 -129 399 -134T387 -139H358Q345 -139 338 -127L275 -9ZM306 69Q322 79 332 97T347 146T354 222T356 330Q356 424 352 479T333 563T289 600T209 608Q159 608 130 600T86 564T67 480T63 330Q63 235 67 180T86
97T130 61T209 53L242 54L185 161L183 168Q183 175 187 180T200 185H239Q245 185 249 179L306 69Z" />
<glyph unicode="R" glyph-name="R" horiz-adv-x="504" d="M477 125Q488 125 494 118T501 101Q501 80 498 60T485 25T460 -1T419 -11Q387 -11 369 1T342 32T331 75T328 126V208Q328 226 320 242T297 271T264 291T222 298H131V64H172Q182 64 189 57T196 40V24Q196
14 189 7T172 0H31Q21 0 14 7T7 24V40Q7 50 14 57T31 64H72V598H31Q21 598 14 604T7 622V638Q7 648 14 655T31 662H222Q261 662 296 648T357 609T398 551T413 481Q413 432 389 392T326 328Q353 307 369 276T386 208V126Q386 99 388 85T394 63T405 55T419 53Q423
53 427 54T434 59T440 74T443 101Q443 111 450 118T467 125H477ZM215 363Q244 363 269 372T314 397T344 434T355 481Q355 505 344 526T314 563T270 588T215 598H131V363H215Z" />
<glyph unicode="S" glyph-name="S" horiz-adv-x="434" d="M288 356Q319 348 344 331T388 289T417 236T427 175Q427 137 413 103T374 44T316 4T244 -11Q191 -11 146 4T69 48L60 8Q55 -11 36 -11H33Q23 -11 16 -4T9 13V195Q9 205 16 212T33 219H43Q54 219 60 212T67
195Q67 126 114 90T244 53Q269 53 291 63T330 90T356 129T366 178Q366 222 341 255T273 300L145 332Q116 339 91 354T48 392T20 441T9 499Q9 535 23 567T63 622T121 658T192 672Q240 672 277 657T341 613L350 653Q355 672 374 672H377Q387 672 394 665T401 648V466Q401
456 394 449T377 442H367Q345 442 343 464Q335 533 297 570T192 608Q166 608 144 599T106 575T80 539T71 496Q71 458 96 429T160 389L288 356Z" />
<glyph unicode="T" glyph-name="T" horiz-adv-x="476" d="M473 527Q473 517 466 510T449 503H439Q429 503 422 510T415 527V598H267V64H335Q345 64 352 57T359 40V24Q359 14 352 7T335 0H141Q131 0 124 7T117 24V40Q117 50 124 57T141 64H209V598H61V527Q61 517
55 510T37 503H27Q17 503 10 510T3 527V638Q3 648 10 655T27 662H449Q459 662 466 655T473 638V527Z" />
<glyph unicode="U" glyph-name="U" horiz-adv-x="511" d="M508 622Q508 611 501 605T484 598H437V220Q437 175 424 133T386 59T329 8T255 -11Q215 -11 182 8T124 59T87 133T73 220V598H27Q17 598 10 604T3 622V638Q3 648 10 655T27 662H178Q188 662 195 655T202
638V622Q202 611 195 605T178 598H132V220Q132 183 142 153T170 100T209 66T255 53Q279 53 301 65T340 100T368 152T379 220V598H332Q322 598 315 604T308 622V638Q308 648 315 655T332 662H484Q494 662 501 655T508 638V622Z" />
<glyph unicode="V" glyph-name="V" horiz-adv-x="491" d="M490 622Q490 611 483 605T466 598H432L291 16Q289 5 280 -1T260 -8H230Q219 -8 211 -2T200 16L59 598H25Q14 598 8 604T1 622V638Q1 648 7 655T25 662H149Q159 662 166 655T173 638V622Q173 611 166 605T149
598H118Q130 549 144 491T172 375T199 263T223 167T239 99T245 72H246Q246 73 252 99T268 167T291 263T318 375T346 491T372 598H341Q331 598 324 604T317 622V638Q317 648 324 655T341 662H466Q476 662 483 655T490 638V622Z" />
<glyph unicode="W" glyph-name="W" horiz-adv-x="509" d="M505 622Q505 611 498 605T481 598H467L391 16Q389 5 382 -1T363 -8H350Q339 -8 331 -2T320 16Q312 55 301 107T279 207T262 289T255 326H254Q254 323 247 289T230 207T208 107T188 16Q186 5 178 -1T158
-8H145Q134 -8 127 -2T117 16L42 598H28Q17 598 11 604T4 622V638Q4 648 10 655T28 662H131Q141 662 148 655T155 638V622Q155 611 148 605T131 598H90Q96 549 103 493T118 380T133 270T145 175T153 105T156 72H157Q157 81 163 114T179 193T198 287T217 374Q219
385 227 391T247 398H262Q273 398 281 392T292 374Q300 336 310 287T330 193T345 115T352 72H353Q353 77 356 105T364 175T376 270T390 379T404 492T418 598H377Q367 598 360 604T353 622V638Q353 648 360 655T377 662H481Q491 662 498 655T505 638V622Z" />
<glyph unicode="X" glyph-name="X" horiz-adv-x="486" d="M480 24Q480 14 474 7T456 0H331Q321 0 314 7T307 24V40Q307 50 314 57T331 64H350L239 290L136 64H156Q166 64 173 57T180 40V24Q180 14 173 7T156 0H31Q21 0 14 7T7 24V40Q7 50 14 57T31 64H73L210 352L85
598H42Q32 598 25 604T18 622V638Q18 648 25 655T42 662H167Q177 662 184 655T191 638V622Q191 611 184 605T167 598H149L239 421L322 598H302Q292 598 285 604T278 622V638Q278 648 285 655T302 662H427Q438 662 444 655T451 638V622Q451 611 445 605T427 598H386L268
352L414 64H456Q467 64 473 57T480 40V24Z" />
<glyph unicode="Y" glyph-name="Y" horiz-adv-x="494" d="M493 622Q493 611 486 605T469 598H428L276 264V64H317Q328 64 334 57T341 40V24Q341 14 335 7T317 0H177Q167 0 160 7T153 24V40Q153 50 160 57T177 64H218V264L66 598H26Q15 598 8 604T1 622V638Q1 648
8 655T26 662H150Q161 662 168 655T175 638V622Q175 611 168 605T150 598H130Q148 558 168 513T206 430T235 365T247 338H248Q248 339 259 365T288 429T325 513T364 598H344Q334 598 327 604T320 622V638Q320 648 327 655T344 662H469Q479 662 486 655T493 638V622Z"
/>
<glyph unicode="Z" glyph-name="Z" horiz-adv-x="453" d="M442 24Q442 14 435 7T418 0H34Q24 0 17 7T10 24V43Q10 51 14 55L359 598H81V527Q81 517 74 510T56 503H46Q36 503 29 510T22 527V638Q22 648 29 655T46 662H414Q424 662 431 655T438 638V619Q438 611
435 607L90 64H384V153Q384 163 391 170T408 177H418Q428 177 435 170T442 153V24Z" />
<glyph unicode="a" glyph-name="a" horiz-adv-x="468" d="M466 93Q466 52 438 25T369 -3Q344 -3 329 11T306 46Q274 19 230 7T144 -6Q114 -6 89 6T46 38T18 84T8 140Q8 180 30 209T90 259T182 289T299 302V317Q299 330 291 344T268 369T231 388T182 395Q163 395
144 395T110 392H109Q108 374 96 365T72 356Q58 356 46 365T34 393Q34 416 47 429T79 449T120 457T160 459H182Q216 459 247 449T303 420T342 375T357 317V84Q357 74 364 67T382 60Q391 60 399 68T408 93V127Q408 137 415 144T432 151H442Q452 151 459 144T466
127V93ZM299 248Q237 246 193 237T121 213T80 180T67 140Q67 106 95 82T168 58Q225 58 262 80T299 138V248Z" />
<glyph unicode="b" glyph-name="b" horiz-adv-x="469" d="M147 402Q176 428 214 442T293 456Q332 456 364 437T419 386T455 312T468 225Q468 179 454 138T414 64T354 13T278 -6Q237 -6 204 10T147 56V24Q147 14 140 7T123 0H113Q102 0 95 7T88 24V544H28Q18 544
11 551T4 569V585Q4 595 11 602T28 609H123Q133 609 140 602T147 585V402ZM147 169Q156 121 188 90T264 58Q293 58 319 70T366 105T398 158T410 225Q410 261 399 291T369 344T326 379T274 392Q226 392 192 369T147 310V169Z" />
<glyph unicode="c" glyph-name="c" horiz-adv-x="397" d="M390 124Q374 66 329 30T217 -6Q172 -6 134 12T67 62T22 136T5 225Q5 273 21 315T66 390T133 440T217 459H243Q262 459 286 458T331 449T366 429T380 394Q380 375 368 366T343 357Q330 357 319 365T306
391L299 392Q282 394 260 394T217 395Q186 395 158 382T109 346T76 292T63 225Q63 191 76 161T113 108T169 72T237 58Q275 58 299 80T334 137Q336 145 342 150T357 155H367Q377 155 384 148T391 131L390 124Z" />
<glyph unicode="d" glyph-name="d" horiz-adv-x="470" d="M466 24Q466 14 460 7T442 0H348Q337 0 331 7T324 24V60Q298 30 262 12T181 -6Q142 -6 109 13T52 64T15 138T2 225Q2 271 16 312T55 386T114 437T189 456Q227 456 262 443T324 404V544H263Q253 544 246
551T239 569V585Q239 595 246 602T263 609H358Q368 609 375 602T382 585V64H442Q453 64 459 57T466 40V24ZM324 311Q314 346 282 369T206 392Q177 392 151 380T104 345T72 292T60 225Q60 189 71 159T101 106T144 71T196 58Q243 58 278 90T324 170V311Z" />
<glyph unicode="e" glyph-name="e" horiz-adv-x="413" d="M406 124Q397 94 380 70T339 29T287 3T228 -6Q181 -6 141 12T70 62T23 136T5 227Q5 274 21 316T65 390T131 440T213 459Q305 459 356 407T407 262Q407 252 400 245T383 238H64L63 227Q63 193 77 163T117
109T176 72T250 58Q285 58 312 80T350 137Q352 145 358 150T373 155H383Q393 155 400 148T407 131L406 124ZM346 296Q338 344 304 369T213 395Q168 395 132 368T77 296H346Z" />
<glyph unicode="f" glyph-name="f" horiz-adv-x="399" d="M147 497Q147 525 161 547T200 584T254 607T316 615Q323 615 336 614T362 608T385 593T395 563Q395 545 384 536T359 527Q349 527 340 533T326 550H293Q249 550 227 532T205 497V450H349Q359 450 366 443T373
426V410Q373 400 366 393T349 386H205V64H322Q332 64 339 57T346 40V24Q346 14 339 7T322 0H30Q20 0 13 7T6 24V40Q6 50 13 57T30 64H147V386H24Q14 386 7 393T0 410V426Q0 436 7 443T24 450H147V497Z" />
<glyph unicode="g" glyph-name="g" horiz-adv-x="490" d="M237 65Q291 65 334 58T407 33T453 -12T469 -80Q469 -115 449 -142T397 -188T322 -218T237 -228Q194 -228 153 -218T78 -189T25 -142T5 -80Q5 -38 26 -4T82 50Q59 81 59 120Q59 158 81 192Q48 234 48 291Q48
325 60 355T94 407T145 443T208 456Q262 456 304 423Q353 461 417 461Q423 461 434 460T456 454T475 440T484 414Q484 397 473 389T451 380Q443 380 435 384T422 397H417Q377 397 341 382Q368 341 368 291Q368 257 356 228T322 176T271 140T208 127Q157 127 117
156Q109 141 109 122Q109 102 117 89T140 69L158 70Q165 70 172 65H237ZM309 291Q309 314 301 333T279 367T247 390T208 399Q187 399 169 391T137 368T115 334T107 291Q107 268 115 249T137 215T169 193T208 184Q229 184 247 192T279 215T301 248T309 291ZM158
13Q137 13 119 6T88 -15T67 -44T59 -80Q59 -95 71 -111T106 -140T162 -162T237 -171Q279 -171 312 -163T368 -141T403 -111T415 -80Q415 -59 407 -42T378 -12T324 6T237 13H158Z" />
<glyph unicode="h" glyph-name="h" horiz-adv-x="496" d="M496 24Q496 14 490 7T472 0H293Q283 0 276 7T269 24V40Q269 50 276 57T293 64H354V325Q354 358 336 375T264 392Q240 392 220 384T184 361T160 327T151 286V64H211Q221 64 228 57T235 40V24Q235 14 228
7T211 0H32Q22 0 15 7T8 24V40Q8 50 15 57T32 64H92V544H32Q22 544 15 551T8 569V585Q8 595 15 602T32 609H127Q137 609 144 602T151 585V403Q176 428 209 442T281 456Q412 456 412 325V64H472Q483 64 489 57T496 40V24Z" />
<glyph unicode="i" glyph-name="i" horiz-adv-x="364" d="M220 569Q220 552 208 540T179 527Q161 527 149 539T137 569Q137 586 149 598T179 610Q196 610 208 598T220 569ZM364 24Q364 14 357 7T340 0H24Q14 0 7 7T0 24V40Q0 50 7 57T24 64H161V386H32Q22 386
15 393T8 410V426Q8 436 15 443T32 450H195Q205 450 212 443T219 426V64H340Q350 64 357 57T364 40V24Z" />
<glyph unicode="j" glyph-name="j" horiz-adv-x="323" d="M315 569Q315 552 303 540T274 527Q256 527 244 539T232 569Q232 586 244 598T274 610Q291 610 303 598T315 569ZM314 -50Q314 -86 301 -118T264 -174T208 -213T140 -227H121Q104 -227 83 -226T44 -217T13
-196T0 -157Q0 -139 12 -130T37 -120Q50 -120 62 -129T74 -157V-159H78Q94 -162 114 -162T155 -163Q176 -163 194 -154T226 -130T248 -95T256 -50V386H111Q101 386 94 393T87 410V426Q87 436 94 443T111 450H290Q301 450 307 443T314 426V-50Z" />
<glyph unicode="k" glyph-name="k" horiz-adv-x="489" d="M489 24Q489 14 483 7T465 0H323Q313 0 306 7T299 24V40Q299 50 306 57T323 64H353L224 243L146 173V64H211Q221 64 228 57T235 40V24Q235 14 228 7T211 0H33Q22 0 15 7T8 24V40Q8 50 15 57T33 64H98V544H33Q22
544 15 551T8 569V585Q8 595 15 602T33 609H122Q132 609 139 602T146 585V238L310 386H266Q256 386 249 393T242 410V426Q242 436 249 443T266 450H444Q455 450 461 443T468 426V410Q468 400 462 393T444 386H382L260 276L413 64H465Q476 64 482 57T489 40V24Z"
/>
<glyph unicode="l" glyph-name="l" horiz-adv-x="400" d="M400 24Q400 14 394 7T376 0H28Q18 0 11 7T4 24V40Q4 50 11 57T28 64H173V544H28Q18 544 11 551T4 569V585Q4 595 11 602T28 609H207Q217 609 224 602T231 585V64H376Q387 64 393 57T400 40V24Z" />
<glyph unicode="m" glyph-name="m" horiz-adv-x="536" d="M529 24Q529 14 523 7T505 0H393Q383 0 376 7T369 24V40Q369 50 376 57T393 64H425V325Q425 365 412 378T371 392Q339 392 317 362T294 286V64H327Q337 64 344 57T351 40V24Q351 14 344 7T327 0H214Q204
0 197 7T190 24V40Q190 50 197 57T214 64H246V325Q246 365 233 378T192 392Q160 392 138 362T115 286V64H148Q158 64 165 57T172 40V24Q172 14 165 7T148 0H35Q25 0 18 7T11 24V40Q11 50 18 57T35 64H67V386H35Q25 386 18 393T11 410V426Q11 436 18 443T35 450H91Q102
450 108 443T115 426V417Q132 435 154 445T205 456Q236 456 254 442T282 403Q300 426 325 441T384 456Q409 456 426 446T453 419T468 377T473 325V64H505Q516 64 522 57T529 40V24Z" />
<glyph unicode="n" glyph-name="n" horiz-adv-x="502" d="M498 24Q498 14 492 7T474 0H295Q285 0 278 7T271 24V40Q271 50 278 57T295 64H356V325Q356 358 338 375T266 392Q242 392 222 384T186 361T162 327T153 286V64H213Q223 64 230 57T237 40V24Q237 14 230
7T213 0H34Q24 0 17 7T10 24V40Q10 50 17 57T34 64H94V386H34Q24 386 17 393T10 410V426Q10 436 17 443T34 450H129Q139 450 146 443T153 426V403Q178 428 211 442T283 456Q414 456 414 325V64H474Q485 64 491 57T498 40V24Z" />
<glyph unicode="o" glyph-name="o" horiz-adv-x="410" d="M404 225Q404 177 389 135T346 62T283 12T205 -6Q164 -6 128 12T64 61T22 135T6 225Q6 273 21 316T64 390T127 440T205 459Q246 459 282 441T346 391T388 316T404 225ZM346 234Q346 267 335 296T305 348T260
382T205 395Q176 395 150 383T105 348T75 297T64 234Q64 198 75 166T105 110T150 72T205 58Q234 58 260 72T305 110T335 166T346 234Z" />
<glyph unicode="p" glyph-name="p" horiz-adv-x="472" d="M150 402Q179 428 217 442T296 456Q335 456 367 437T422 386T458 312T471 225Q471 179 457 138T417 64T357 13T281 -6Q240 -6 207 10T150 56V-157H210Q220 -157 227 -163T234 -181V-197Q234 -207 227 -214T210
-221H31Q21 -221 14 -214T7 -197V-181Q7 -170 14 -164T31 -157H91V386H31Q21 386 14 393T7 410V426Q7 436 14 443T31 450H126Q136 450 143 443T150 426V402ZM150 169Q159 121 191 90T267 58Q296 58 322 70T369 105T401 158T413 225Q413 261 402 291T372 344T329
379T277 392Q229 392 195 369T150 310V169Z" />
<glyph unicode="q" glyph-name="q" horiz-adv-x="490" d="M486 -197Q486 -207 479 -214T462 -221H274Q264 -221 257 -214T250 -197V-181Q250 -170 257 -164T274 -157H339V69Q312 35 275 15T190 -6Q149 -6 115 13T55 64T15 137T1 225Q1 271 16 313T57 386T120 437T199
456Q241 456 277 440T339 394V432Q339 442 345 449T363 456H373Q383 456 390 449T397 432V-157H462Q472 -157 479 -163T486 -181V-197ZM339 284Q331 330 297 361T214 392Q182 392 154 379T105 344T72 291T59 225Q59 189 71 159T102 106T148 71T203 58Q228 58 250
68T291 95T321 137T339 189V284Z" />
<glyph unicode="r" glyph-name="r" horiz-adv-x="460" d="M372 456Q382 456 396 455T424 448T447 432T457 402Q457 385 446 376T422 367Q412 367 402 373T388 391L364 392Q328 392 296 380T240 347T202 298T188 238V64H315Q325 64 332 57T339 40V24Q339 14 332
7T315 0H33Q23 0 16 7T9 24V40Q9 50 16 57T33 64H130V386H33Q23 386 16 393T9 410V426Q9 436 16 443T33 450H164Q174 450 181 443T188 426V374Q220 412 265 434T364 456H372Z" />
<glyph unicode="s" glyph-name="s" horiz-adv-x="402" d="M250 258Q274 254 300 245T347 219T381 181T395 128Q395 94 381 69T340 27T279 2T203 -6Q161 -6 128 7T70 44L60 11Q58 3 52 -1T37 -6H34Q24 -6 17 1T10 18V162Q10 172 17 179T34 186H44Q63 186 68 167Q94
58 203 58Q276 58 306 80T337 134Q337 161 311 180T240 207L150 223Q129 227 105 234T59 255T24 289T10 339Q10 370 25 393T66 430T128 452T203 459Q267 459 311 430L316 443Q321 459 339 459H342Q352 459 359 452T366 435V320Q366 310 359 303T342 296H332Q321
296 314 303T307 320Q307 356 281 375T200 395Q162 395 137 390T97 375T75 355T68 333Q68 311 91 297T158 274L250 258Z" />
<glyph unicode="t" glyph-name="t" horiz-adv-x="424" d="M423 131Q423 99 409 74T371 31T319 4T259 -6Q199 -6 166 31T133 131V386H24Q14 386 7 393T0 410V426Q0 436 7 443T24 450H133V555Q133 566 139 573T157 580H167Q177 580 184 573T191 555V450H376Q386
450 393 443T400 426V410Q400 400 393 393T376 386H191V131Q191 97 212 78T278 58Q296 58 312 64T340 80T358 103T365 131V173Q365 183 372 190T389 197H399Q409 197 416 190T423 173V131Z" />
<glyph unicode="u" glyph-name="u" horiz-adv-x="497" d="M492 24Q492 14 486 7T468 0H374Q363 0 357 7T350 24V50Q325 24 292 9T219 -6Q88 -6 88 131V386H28Q18 386 11 393T4 410V426Q4 436 11 443T28 450H123Q133 450 140 443T147 426V131Q147 93 165 76T235
58Q259 58 279 67T316 92T341 129T350 175V386H289Q279 386 272 393T265 410V426Q265 436 272 443T289 450H384Q394 450 401 443T408 426V64H468Q479 64 485 57T492 40V24Z" />
<glyph unicode="v" glyph-name="v" horiz-adv-x="480" d="M479 410Q479 400 473 393T455 386H407L285 20Q281 9 272 3T252 -4H228Q217 -4 208 2T195 20L73 386H25Q14 386 8 393T1 410V426Q1 436 7 443T25 450H166Q176 450 183 443T190 426V410Q190 400 183 393T166
386H124L240 37L356 386H315Q304 386 297 393T290 410V426Q290 436 297 443T315 450H455Q466 450 472 443T479 426V410Z" />
<glyph unicode="w" glyph-name="w" horiz-adv-x="501" d="M497 410Q497 400 490 393T473 386H445L381 20Q379 9 371 3T352 -4H333Q322 -4 313 2T301 20Q295 42 288 68T274 120T263 166T258 198H257Q257 187 253 167T242 121T228 69T214 20Q211 9 202 3T182 -4H148Q137
-4 130 2T120 20L56 386H28Q17 386 11 393T4 410V426Q4 436 10 443T28 450H171Q181 450 188 443T195 426V410Q195 400 188 393T171 386H105L162 60L215 246Q218 257 227 263T247 270H268Q279 270 288 264T300 246Q306 224 314 198T328 146T339 100T344 72H345Q345
79 350 112T362 191T379 289T396 386H329Q319 386 312 393T305 410V426Q305 436 312 443T329 450H473Q483 450 490 443T497 426V410Z" />
<glyph unicode="x" glyph-name="x" horiz-adv-x="494" d="M485 24Q485 14 478 7T461 0H320Q310 0 303 7T296 24V40Q296 50 303 57T320 64H342L245 199L152 64H175Q185 64 192 57T199 40V24Q199 14 192 7T175 0H34Q24 0 17 7T10 24V40Q10 50 17 57T34 64H96L222
232L102 386H40Q30 386 23 393T16 410V426Q16 436 23 443T40 450H181Q191 450 198 443T205 426V410Q205 400 198 393T181 386H161L245 273L328 386H306Q296 386 289 393T282 410V426Q282 436 289 443T306 450H447Q457 450 464 443T471 426V410Q471 400 464 393T447
386H385L269 232L399 64H461Q471 64 478 57T485 40V24Z" />
<glyph unicode="y" glyph-name="y" horiz-adv-x="484" d="M484 410Q484 400 478 393T460 386H412L256 -78Q247 -107 233 -133T201 -181T160 -214T108 -227Q75 -227 51 -206T26 -152Q26 -134 37 -125T62 -116Q76 -116 87 -125T98 -152L97 -162L108 -163Q143 -163
168 -138T205 -78L231 0L82 386H32Q21 386 14 393T7 410V426Q7 436 14 443T32 450H172Q183 450 189 443T196 426V410Q196 400 190 393T172 386H133L255 71L361 386H319Q309 386 302 393T295 410V426Q295 436 302 443T319 450H460Q471 450 477 443T484 426V410Z"
/>
<glyph unicode="z" glyph-name="z" horiz-adv-x="463" d="M451 24Q451 14 444 7T427 0H34Q24 0 17 7T10 24V43Q10 54 18 60L350 386H85V343Q85 332 79 325T61 318H51Q41 318 34 325T27 343V426Q27 436 34 443T51 450H424Q434 450 441 443T448 426V407Q448 397
441 390L108 64H393V119Q393 129 400 136T417 143H427Q437 143 444 136T451 119V24Z" />
<glyph unicode="&#xa0;" glyph-name="space" horiz-adv-x="500" />
</font>
</defs>
</svg>
