<?xml version="1.0" standalone="no"?> <!DOCTYPE svg PUBLIC "-//W3C//DTD SVG 1.0//EN" "http://www.w3.org/TR/2001/REC-SVG-20010904/DTD/svg10.dtd" > <svg xmlns="http://www.w3.org/2000/svg" width="100%" height="100%">
<defs >
<font horiz-adv-x="653" ><font-face
    font-family="STIXGeneralUnicodeBold"
    units-per-em="1000"
    panose-1="0 0 8 0 0 0 0 0 0 0"
    ascent="1055"
    descent="-455"
    alphabetic="0" />
<missing-glyph horiz-adv-x="250" />
<glyph unicode=" " glyph-name="space" horiz-adv-x="250" />
<glyph unicode="&#xa0;" glyph-name="uni00A0" horiz-adv-x="250" />
<glyph unicode="&#xa1;" glyph-name="exclamdown" horiz-adv-x="333" d="M251 417Q251 399 245 384T227 357T200 339T167 332Q132 332 107 357T82 418Q82 453 107 477T168 501Q185 501 200 495T226 477T244 450T251 417ZM182 254Q187 208 191 174T202 110T215
51T234 -14Q245 -48 248 -66T252 -103Q252 -151 230 -177T167 -203Q127 -203 105 -177T83 -102Q83 -83 86 -66T101 -14Q112 22 119 51T133 109T143 173T153 254H182Z" />
<glyph unicode="&#xa2;" glyph-name="cent" horiz-adv-x="500" d="M458 91Q435 62 414 42T369 10T321 -8T267 -14Q253 -14 242 -13T217 -7L170 -140H130L181 5Q156 17 144 26T117 49Q53 115 53 223Q53 277 70 322T119 401T192 454T285 473Q301 473 314 472T345
465L389 588H429L381 452Q414 433 429 413T444 364Q444 335 426 318T378 300Q364 300 354 304T334 320L252 90Q272 70 290 62T335 53Q367 53 390 65T440 109L458 91ZM321 400Q321 418 309 430T278 442Q239 442 217 397T194 274Q194 230 201 197T225 128L321 397V400Z"
/>
<glyph unicode="&#xa3;" glyph-name="sterling" horiz-adv-x="500" d="M477 183Q472 124 464 91T439 34Q423 11 400 -2T346 -16Q330 -16 316 -13T288 -2T258 18T221 49Q196 17 170 2T109 -13Q67 -13 44 9T21 72Q21 164 127 164Q141 164 152 163T178 157Q177 171
176 182T170 209T158 248T137 308H39V373H119Q115 396 112 413T108 443T106 467T105 491Q105 539 126 581T184 650Q233 684 308 684Q378 684 418 654T459 571Q459 537 441 518T391 499Q362 499 346 517T329 564Q329 576 330 586T331 611Q332 632 320 643T287 654Q262
654 247 637T231 592Q231 583 234 561T243 507T255 441T270 373H384V308H275Q276 294 276 282T277 254Q277 236 276 222T273 194T267 166T257 134Q290 122 311 117T353 112Q400 112 421 127T454 183H477ZM181 86Q161 104 145 111T109 118Q83 118 68 104T53 66Q53
43 68 30T109 17Q137 17 153 33T181 86Z" />
<glyph unicode="&#xa4;" glyph-name="currency" horiz-adv-x="500" d="M468 -10L372 88Q340 68 312 60T250 51Q217 51 189 59T128 88L32 -10L-26 48L72 146Q52 175 44 203T35 266Q35 301 43 329T72 388L-26 486L32 542L128 446Q158 465 186 473T250 481Q285 481
313 473T372 446L468 542L526 486L428 388Q448 356 456 329T465 266Q465 231 457 202T428 146L526 48L468 -10ZM377 267Q377 295 367 319T340 361T299 389T248 399Q222 399 200 389T160 360T133 318T123 267Q123 239 133 215T160 172T200 144T249 133Q276 133 299
143T340 172T367 214T377 267Z" />
<glyph unicode="&#xa5;" glyph-name="yen" horiz-adv-x="500" d="M547 650Q521 648 507 640T483 613L339 342H450V292H319L315 281V214H450V164H315V115Q315 89 319 73T333 47T363 33T414 25V0H83V25Q115 28 135 32T166 47T181 73T185 115V164H50V214H185V271L174
292H50V342H149L19 597Q5 624 -14 636T-64 650V676H237V650Q192 648 176 643T160 621Q160 608 178 570T236 454L293 342L412 572Q420 587 420 607Q420 631 405 639T342 650V676H547V650Z" />
<glyph unicode="&#xa6;" glyph-name="brokenbar" horiz-adv-x="220" d="M66 414V691H154V414H66ZM66 -19V258H154V-19H66Z" />
<glyph unicode="&#xa7;" glyph-name="section" horiz-adv-x="500" d="M199 415Q168 442 149 461T118 497T103 528T99 561Q99 589 110 613T141 654T188 681T248 691Q277 691 303 683T350 662T381 630T393 591Q393 566 374 547T328 528Q317 528 307 533T288 546T274
565T268 585Q268 607 295 628Q310 640 310 647Q310 655 294 661T256 668Q219 668 196 649T173 599Q173 548 277 480Q377 415 423 337Q443 303 443 255Q443 229 433 206T404 169Q387 156 365 151T302 144Q358 105 381 72T404 -3Q404 -31 392 -54T358 -95T306 -122T240
-132Q209 -132 182 -124T134 -103T102 -71T90 -32Q90 -4 108 14T153 33Q179 33 198 17T218 -23Q218 -36 211 -45T187 -65Q172 -75 172 -80Q172 -91 192 -100T240 -109Q319 -109 319 -38Q319 -15 311 0T282 32L225 78Q172 121 139 150T88 203T64 247T57 293Q57 415
186 415H199ZM367 225Q367 246 358 262T324 302Q273 350 241 371T185 392Q162 392 147 377T132 336Q132 322 134 312T145 290T167 265T205 230Q227 211 242 199T270 179T292 170T314 167Q337 167 352 183T367 225Z" />
<glyph unicode="&#xa8;" glyph-name="dieresis" horiz-adv-x="333" d="M337 600Q337 574 318 556T271 537Q245 537 227 556T208 602Q208 628 227 647T272 666Q298 666 317 647T337 600ZM127 600Q127 574 109 556T62 537Q36 537 17 556T-2 602Q-2 628 17 647T63
666Q89 666 108 647T127 600Z" />
<glyph unicode="&#xa9;" glyph-name="copyright" horiz-adv-x="747" d="M528 182Q526 167 497 159L485 156Q457 149 435 146T390 142Q341 142 302 156T234 195T191 257T176 339Q176 386 192 424T237 488T308 529T402 544Q430 544 453 540T505 525Q527 517 527
504V432H508Q495 479 470 500T401 521Q341 521 310 476T278 344Q278 257 309 211T401 165Q443 165 472 186T525 256H544L528 182ZM721 335Q721 260 695 196T622 83T512 8T375 -19Q300 -19 237 8T126 83T53 196T26 338Q26 413 53 477T127 589T240 664T380 691Q451
691 513 664T622 588T694 475T721 335ZM650 338Q650 401 628 456T569 551T480 615T370 639Q314 639 264 615T177 550T119 453T97 335Q97 272 118 217T177 121T265 57T374 33Q432 33 482 56T569 121T628 218T650 338Z" />
<glyph unicode="&#xaa;" glyph-name="ordfeminine" horiz-adv-x="300" d="M301 431Q283 412 267 405T228 397Q204 397 192 406T175 438Q148 415 125 406T73 397Q40 397 20 415T-1 463Q-1 482 7 496T35 523T88 548T173 573V613Q173 641 162 653T123 665Q106 665
94 659T82 643Q82 638 91 629Q102 618 102 608Q102 592 89 583T54 573Q12 573 12 613Q12 648 46 668T141 688Q200 688 234 666T268 606V450Q268 435 279 435Q282 435 283 436Q284 436 285 437L291 443L301 431ZM172 552Q97 529 97 479Q97 462 106 451T129 439Q152
439 172 465V552Z" />
<glyph unicode="&#xab;" glyph-name="guillemotleft" horiz-adv-x="500" d="M428 398Q440 408 446 411T459 415Q471 415 471 404Q471 387 447 349T378 257Q372 249 366 242T355 227Q366 211 375 199T395 173Q431 126 452 96T473 51Q473 36 462 36Q456 36 450 40T433
52L219 225V229L422 393L428 398ZM232 398Q244 408 250 411T263 415Q275 415 275 404Q275 387 251 349T183 257Q176 249 171 242T159 227Q170 211 179 199T199 173Q237 128 257 97T277 51Q277 36 266 36Q260 36 254 40T237 52L23 225V229L226 393L232 398Z" />
<glyph unicode="&#xac;" glyph-name="logicalnot" horiz-adv-x="750" d="M597 108V311H65V399H685V108H597Z" />
<glyph unicode="&#xad;" glyph-name="uni00AD" horiz-adv-x="333" d="M44 171V287H287V171H44Z" />
<glyph unicode="&#xae;" glyph-name="registered" horiz-adv-x="747" d="M482 153Q470 153 456 171T419 234Q412 248 407 258T396 278T384 297T370 320H333V215Q333 200 334 192T339 179T353 174T379 171V153H207V171Q224 172 233 173T246 179T252 191T253 215V470Q253
485 252 493T247 506T233 512T207 514V532H400Q454 532 484 507T515 436Q515 363 435 331L493 249Q515 218 530 199T563 164V153H482ZM368 342Q398 342 414 365T430 431Q430 510 369 510H333V342H368ZM721 335Q721 260 695 196T622 83T512 8T375 -19Q300 -19 237
8T126 83T53 196T26 338Q26 413 53 477T127 589T240 664T380 691Q451 691 513 664T622 588T694 475T721 335ZM650 338Q650 401 628 456T569 551T480 615T370 639Q314 639 264 615T177 550T119 453T97 335Q97 272 118 217T177 121T265 57T374 33Q432 33 482 56T569
121T628 218T650 338Z" />
<glyph unicode="&#xaf;" glyph-name="macron" horiz-adv-x="333" d="M1 565V637H331V565H1Z" />
<glyph unicode="&#xb0;" glyph-name="degree" horiz-adv-x="400" d="M343 545Q343 515 332 489T302 444T256 413T200 402Q170 402 144 413T99 443T68 489T57 545Q57 575 68 601T98 646T144 677T200 688Q230 688 256 677T301 647T332 601T343 545ZM288 545Q288
582 263 607T200 633Q163 633 138 608T112 545Q112 508 137 483T200 457Q237 457 262 482T288 545Z" />
<glyph unicode="&#xb1;" glyph-name="plusminus" horiz-adv-x="770" d="M419 209V-12H331V209H65V297H331V518H419V297H685V209H419ZM65 -151V-63H685V-151H65Z" />
<glyph unicode="&#xb2;" glyph-name="twosuperior" horiz-adv-x="300" d="M270 275H0V289Q56 345 92 383T148 450T176 500T184 544Q184 576 163 598T109 620Q83 620 66 608T33 566H9Q35 629 69 658T153 688Q206 688 239 657T272 577Q272 544 256 515T198 447L99
355H191Q216 355 231 356T255 362T271 376T284 402H300L270 275Z" />
<glyph unicode="&#xb3;" glyph-name="threesuperior" horiz-adv-x="300" d="M16 597Q68 688 165 688Q216 688 243 667T271 607Q271 580 260 564T217 531Q297 498 297 424Q297 391 282 363T241 313T180 280T103 268Q57 268 30 282T3 322Q3 350 43 363Q54 362 62
361T77 356T91 346T110 330Q126 315 136 310T159 304Q188 304 205 322T222 369Q222 412 193 439T92 490V500Q138 514 157 531T176 579Q176 607 159 623T111 640Q88 640 72 629T36 590L16 597Z" />
<glyph unicode="&#xb4;" glyph-name="acute" horiz-adv-x="333" d="M223 685Q248 713 276 713Q298 713 311 701T324 669Q324 652 316 642T284 616L142 528H86L223 685Z" />
<glyph unicode="&#xb5;" glyph-name="mu" horiz-adv-x="556" d="M536 36Q519 21 507 12T482 -3T458 -11T430 -13Q393 -13 370 -1T329 39Q305 10 284 -1T230 -13Q199 -13 176 -5T128 22Q129 10 130 1T134 -16T139 -34T147 -59Q155 -85 158 -100T161 -129Q161 -206
98 -206Q67 -206 50 -186T33 -129Q33 -119 35 -107T43 -72Q54 -25 60 11T66 88V461H205V149Q205 116 220 96T262 75Q294 75 336 102V461H475V101Q475 81 486 68T515 54Q520 54 524 55T536 60V36Z" />
<glyph unicode="&#xb6;" glyph-name="paragraph" horiz-adv-x="639" d="M553 649Q536 647 525 646T508 639T500 625T497 599V-105Q497 -119 498 -129T505 -145T521 -154T551 -159L574 -161V-186H403V651H353V-186H178V-161Q206 -158 222 -156T246 -148T256 -134T259
-109V265Q220 267 196 273T149 293Q60 348 60 481Q60 582 112 629T279 676H579V651L553 649ZM259 651Q223 642 205 630T173 595Q162 576 156 547T150 483Q150 404 176 357T259 290V651Z" />
<glyph unicode="&#xb7;" glyph-name="periodcentered" horiz-adv-x="250" d="M210 332Q210 297 186 273T125 248Q89 248 65 272T41 332Q41 367 66 392T126 417Q161 417 185 392T210 332Z" />
<glyph unicode="&#xb8;" glyph-name="cedilla" horiz-adv-x="333" d="M173 -64Q182 -61 189 -60T205 -59Q247 -59 270 -77T294 -129Q294 -171 260 -194T165 -218Q139 -218 118 -214T68 -200L84 -163L90 -165Q108 -171 119 -174T143 -177Q201 -177 201 -136Q201
-100 155 -100Q142 -100 127 -104L116 -96L159 0H201L173 -64Z" />
<glyph unicode="&#xb9;" glyph-name="onesuperior" horiz-adv-x="300" d="M30 275V295Q54 295 69 297T92 306T104 324T107 355V576Q107 617 84 617Q67 617 41 607L28 602V623L192 688H203V351Q203 334 205 323T215 306T237 298T273 295V275H30Z" />
<glyph unicode="&#xba;" glyph-name="ordmasculine" horiz-adv-x="330" d="M312 542Q312 510 301 484T271 438T224 408T166 397Q133 397 106 408T60 438T29 484T18 543Q18 574 29 601T60 647T107 677T167 688Q198 688 224 677T270 647T301 600T312 542ZM214 534Q214
573 212 598T204 639T189 660T164 667Q136 667 126 639T115 537Q115 470 126 444T165 417Q192 417 203 443T214 534Z" />
<glyph unicode="&#xbb;" glyph-name="guillemotright" horiz-adv-x="500" d="M274 58Q270 54 267 53Q256 42 250 39T237 36Q225 36 225 47Q225 64 249 102T317 194L341 224Q319 256 301 277Q223 370 223 400Q223 415 234 415Q244 415 263 399L477 226V222L274
58ZM78 58L72 53Q60 42 54 39T41 36Q29 36 29 47Q29 64 53 102T122 194Q128 202 134 209T145 224Q123 256 105 277Q27 370 27 400Q27 415 38 415Q48 415 67 399L281 226V222L78 58Z" />
<glyph unicode="&#xbc;" glyph-name="onequarter" horiz-adv-x="750" d="M702 87V0H608V87H447V154Q463 178 478 199T511 244T553 297T611 367L650 413H702V153H743V87H702ZM609 328L472 153H609V328ZM232 -12H174L615 688H671L232 -12ZM30 275V295Q54 295 69
297T92 306T104 324T107 355V576Q107 617 84 617Q67 617 41 607L28 602V623L192 688H203V351Q203 334 205 323T215 306T237 298T273 295V275H30Z" />
<glyph unicode="&#xbd;" glyph-name="onehalf" horiz-adv-x="750" d="M745 0H475V14L520 60Q541 81 563 104T604 153T635 208T647 269Q647 298 631 322T583 346Q556 346 538 330T508 291H484Q494 316 506 338T536 376T576 403T628 413Q652 413 675 406T716 384T746
349T757 302Q757 280 747 260T722 222T690 188T658 158L580 85V80H683Q699 80 710 81T730 88T745 102T759 127H775L745 0ZM190 -12H132L573 688H629L190 -12ZM-5 275V295Q14 295 28 296T53 303T67 321T72 355V576Q72 588 69 602T49 617Q35 617 21 612T-7 602V623L157
688H168V351Q168 331 172 320T184 304T206 297T238 295V275H-5Z" />
<glyph unicode="&#xbe;" glyph-name="threequarters" horiz-adv-x="750" d="M692 87V0H598V87H437V154Q453 178 468 199T501 244T543 297T601 367L640 413H692V153H733V87H692ZM599 328L462 153H599V328ZM230 -12H172L613 688H669L230 -12ZM241 529Q317 499 317
424Q317 391 302 363T261 313T199 280T123 268Q77 268 50 282T23 322Q23 350 63 363Q74 362 81 360T96 355T111 345T130 330Q147 316 157 310T179 304Q208 304 225 322T242 369Q242 412 213 439T112 490V500Q158 514 177 531T196 579Q196 607 179 623T131 640Q108
640 92 629T56 590L36 597Q88 688 185 688Q236 688 263 667T291 607Q291 581 280 565T241 533V529Z" />
<glyph unicode="&#xbf;" glyph-name="questiondown" horiz-adv-x="500" d="M346 417Q346 382 321 357T260 332Q226 332 202 357T177 417Q177 452 201 476T261 501Q297 501 321 477T346 417ZM277 256Q279 237 279 228T280 211Q279 176 267 146T241 87T216 28T204
-35Q204 -92 226 -128T288 -165Q316 -165 332 -154T349 -125Q349 -117 346 -112T334 -96Q321 -82 317 -71T312 -45Q312 -31 318 -19T333 3T353 17T377 22Q406 22 424 0T443 -56Q443 -87 430 -113T392 -159T334 -190T259 -201Q211 -201 174 -189T110 -154T69 -101T55
-35Q55 -9 61 12T81 52T118 91T176 131Q200 146 214 157T235 181T245 211T247 256H277Z" />
<glyph unicode="&#xc0;" glyph-name="Agrave" horiz-adv-x="722" d="M401 778L259 866Q237 880 228 891T219 918Q219 937 232 950T266 963Q295 963 320 935L457 778H401ZM367 0V25L399 28Q424 30 434 37T445 61Q445 77 435 107T399 197H174L161 163Q152 140 141
112T130 66Q130 46 148 37T211 25V0H9V25Q26 28 38 34T61 53T83 88T108 145L329 690H357L579 168Q598 123 612 95T638 52T662 31T689 25V0H367ZM283 479L189 236H384L283 479Z" />
<glyph unicode="&#xc1;" glyph-name="Aacute" horiz-adv-x="722" d="M366 935Q391 963 419 963Q441 963 454 951T467 919Q467 902 459 892T427 866L285 778H229L366 935ZM367 0V25L399 28Q424 30 434 37T445 61Q445 77 435 107T399 197H174L161 163Q152 140 141
112T130 66Q130 46 148 37T211 25V0H9V25Q26 28 38 34T61 53T83 88T108 145L329 690H357L579 168Q598 123 612 95T638 52T662 31T689 25V0H367ZM283 479L189 236H384L283 479Z" />
<glyph unicode="&#xc2;" glyph-name="Acircumflex" horiz-adv-x="722" d="M454 778L342 876L230 778H174L296 954H388L511 778H454ZM367 0V25L399 28Q424 30 434 37T445 61Q445 77 435 107T399 197H174L161 163Q152 140 141 112T130 66Q130 46 148 37T211 25V0H9V25Q26
28 38 34T61 53T83 88T108 145L329 690H357L579 168Q598 123 612 95T638 52T662 31T689 25V0H367ZM283 479L189 236H384L283 479Z" />
<glyph unicode="&#xc3;" glyph-name="Atilde" horiz-adv-x="722" d="M524 924Q507 858 479 828T408 797Q392 797 375 801T343 811L314 824Q297 831 287 835T271 842T260 845T250 846Q230 846 217 833T201 799H159Q173 864 200 894T275 924Q306 924 348 905L388
887Q407 879 413 877T427 875Q447 875 459 886T481 924H524ZM367 0V25L399 28Q424 30 434 37T445 61Q445 77 435 107T399 197H174L161 163Q152 140 141 112T130 66Q130 46 148 37T211 25V0H9V25Q26 28 38 34T61 53T83 88T108 145L329 690H357L579 168Q598 123 612
95T638 52T662 31T689 25V0H367ZM283 479L189 236H384L283 479Z" />
<glyph unicode="&#xc4;" glyph-name="Adieresis" horiz-adv-x="722" d="M511 850Q511 824 492 806T445 787Q419 787 401 806T382 852Q382 878 401 897T446 916Q472 916 491 897T511 850ZM301 850Q301 824 283 806T236 787Q210 787 191 806T172 852Q172 878 191
897T237 916Q263 916 282 897T301 850ZM367 0V25L399 28Q424 30 434 37T445 61Q445 77 435 107T399 197H174L161 163Q152 140 141 112T130 66Q130 46 148 37T211 25V0H9V25Q26 28 38 34T61 53T83 88T108 145L329 690H357L579 168Q598 123 612 95T638 52T662 31T689
25V0H367ZM283 479L189 236H384L283 479Z" />
<glyph unicode="&#xc5;" glyph-name="Aring" horiz-adv-x="722" d="M448 895Q448 873 440 854T417 819T384 796T342 787Q319 787 300 795T266 817T244 851T235 893Q235 915 243 934T267 968T301 991T343 1000Q364 1000 383 992T417 969T439 936T448 895ZM400 892Q400
918 382 935T339 952Q317 952 300 935T283 894Q283 870 300 853T340 835Q366 835 383 851T400 892ZM367 0V25L399 28Q424 30 434 37T445 61Q445 77 435 107T399 197H174L161 163Q152 140 141 112T130 66Q130 46 148 37T211 25V0H9V25Q26 28 38 34T61 53T83 88T108
145L329 690H357L579 168Q598 123 612 95T638 52T662 31T689 25V0H367ZM283 479L189 236H384L283 479Z" />
<glyph unicode="&#xc6;" glyph-name="AE" horiz-adv-x="1000" d="M910 0H344V25Q372 26 389 30T415 45T428 73T432 119V303H242L142 115Q134 99 131 89T127 70Q127 49 140 41T193 27L210 25V0H4V25Q19 27 28 31T49 47T75 84T114 153L334 555Q348 581 355 595T362
617Q362 635 344 643T275 654V676H909V475H884Q879 499 875 516T865 546T854 569T840 589Q798 641 659 641Q619 641 606 635T592 611V363Q636 367 661 372T702 393T727 436T747 512H770V174H747Q740 220 731 249T705 296T661 321T592 331V88Q592 56 607 45T666
34Q732 34 776 48T852 95Q865 108 877 123T899 155T917 185T928 211H951L910 0ZM432 633H425L264 343H432V633Z" />
<glyph unicode="&#xc7;" glyph-name="Ccedilla" horiz-adv-x="722" d="M687 127Q652 87 619 59T553 14T482 -11T401 -19L381 -64Q390 -61 397 -60T413 -59Q455 -59 478 -77T502 -129Q502 -171 468 -194T373 -218Q347 -218 326 -214T276 -200L292 -163L298 -165Q318
-172 328 -174T351 -177Q409 -177 409 -136Q409 -100 363 -100Q350 -100 335 -104L324 -96L359 -17L356 -16Q288 -9 232 19T135 94T72 200T49 332Q49 409 75 474T148 588T258 663T397 691Q467 691 552 656Q584 642 598 642Q612 642 621 651T642 688H669V454H644Q631
482 620 503T597 542T572 573T543 602Q480 658 410 658Q319 658 273 578T226 341Q226 265 236 211T269 116Q291 77 334 53T427 29Q448 29 471 33T517 47Q535 54 551 62T583 83T617 112T657 152L687 127Z" />
<glyph unicode="&#xc8;" glyph-name="Egrave" horiz-adv-x="667" d="M396 778L254 866Q232 880 223 891T214 918Q214 937 227 950T261 963Q290 963 315 935L452 778H396ZM601 0H16V25Q44 28 61 33T87 46T100 68T104 101V580Q104 618 86 633T16 651V676H593V475H568Q559
525 544 557T502 608T434 634T331 642Q292 642 279 630T266 588V363Q306 363 334 370T382 394T412 439T428 512H454V174H428Q424 219 414 248T384 296T336 321T266 329V87Q266 55 283 43T349 31Q408 31 452 43T531 85Q544 95 554 106T573 132T592 165T613 208H641L601
0Z" />
<glyph unicode="&#xc9;" glyph-name="Eacute" horiz-adv-x="667" d="M368 935Q393 963 421 963Q443 963 456 951T469 919Q469 902 461 892T429 866L287 778H231L368 935ZM601 0H16V25Q44 28 61 33T87 46T100 68T104 101V580Q104 618 86 633T16 651V676H593V475H568Q559
525 544 557T502 608T434 634T331 642Q292 642 279 630T266 588V363Q306 363 334 370T382 394T412 439T428 512H454V174H428Q424 219 414 248T384 296T336 321T266 329V87Q266 55 283 43T349 31Q408 31 452 43T531 85Q544 95 554 106T573 132T592 165T613 208H641L601
0Z" />
<glyph unicode="&#xca;" glyph-name="Ecircumflex" horiz-adv-x="667" d="M454 778L342 876L230 778H174L296 954H388L511 778H454ZM601 0H16V25Q44 28 61 33T87 46T100 68T104 101V580Q104 618 86 633T16 651V676H593V475H568Q559 525 544 557T502 608T434 634T331
642Q292 642 279 630T266 588V363Q306 363 334 370T382 394T412 439T428 512H454V174H428Q424 219 414 248T384 296T336 321T266 329V87Q266 55 283 43T349 31Q408 31 452 43T531 85Q544 95 554 106T573 132T592 165T613 208H641L601 0Z" />
<glyph unicode="&#xcb;" glyph-name="Edieresis" horiz-adv-x="667" d="M511 850Q511 824 492 806T445 787Q419 787 401 806T382 852Q382 878 401 897T446 916Q472 916 491 897T511 850ZM301 850Q301 824 283 806T236 787Q210 787 191 806T172 852Q172 878 191
897T237 916Q263 916 282 897T301 850ZM601 0H16V25Q44 28 61 33T87 46T100 68T104 101V580Q104 618 86 633T16 651V676H593V475H568Q559 525 544 557T502 608T434 634T331 642Q292 642 279 630T266 588V363Q306 363 334 370T382 394T412 439T428 512H454V174H428Q424
219 414 248T384 296T336 321T266 329V87Q266 55 283 43T349 31Q408 31 452 43T531 85Q544 95 554 106T573 132T592 165T613 208H641L601 0Z" />
<glyph unicode="&#xcc;" glyph-name="Igrave" horiz-adv-x="389" d="M261 778L119 866Q97 880 88 891T79 918Q79 937 92 950T126 963Q155 963 180 935L317 778H261ZM20 0V25Q48 28 66 32T94 45T109 68T113 106V576Q113 597 109 610T94 632T65 645T20 651V676H370V651Q342
650 324 646T295 634T280 611T275 576V106Q275 82 279 67T294 43T323 31T370 25V0H20Z" />
<glyph unicode="&#xcd;" glyph-name="Iacute" horiz-adv-x="389" d="M210 935Q235 963 263 963Q285 963 298 951T311 919Q311 902 303 892T271 866L129 778H73L210 935ZM20 0V25Q48 28 66 32T94 45T109 68T113 106V576Q113 597 109 610T94 632T65 645T20 651V676H370V651Q342
650 324 646T295 634T280 611T275 576V106Q275 82 279 67T294 43T323 31T370 25V0H20Z" />
<glyph unicode="&#xce;" glyph-name="Icircumflex" horiz-adv-x="389" d="M306 778L194 876L82 778H26L148 954H240L363 778H306ZM20 0V25Q48 28 66 32T94 45T109 68T113 106V576Q113 597 109 610T94 632T65 645T20 651V676H370V651Q342 650 324 646T295 634T280
611T275 576V106Q275 82 279 67T294 43T323 31T370 25V0H20Z" />
<glyph unicode="&#xcf;" glyph-name="Idieresis" horiz-adv-x="389" d="M363 850Q363 824 344 806T297 787Q271 787 253 806T234 852Q234 878 253 897T298 916Q324 916 343 897T363 850ZM153 850Q153 824 135 806T88 787Q62 787 43 806T24 852Q24 878 43 897T89
916Q115 916 134 897T153 850ZM20 0V25Q48 28 66 32T94 45T109 68T113 106V576Q113 597 109 610T94 632T65 645T20 651V676H370V651Q342 650 324 646T295 634T280 611T275 576V106Q275 82 279 67T294 43T323 31T370 25V0H20Z" />
<glyph unicode="&#xd0;" glyph-name="Eth" horiz-adv-x="722" d="M319 676Q406 676 475 653T591 588T664 484T690 345Q690 273 667 211T600 104Q552 54 482 27T330 0H14V25Q58 27 77 42T97 91V326H6V373H97V584Q97 619 80 632T14 651V676H319ZM259 93Q259 59 271
47T317 35Q415 35 466 107Q489 141 502 200T516 330Q516 395 506 448T474 542Q447 593 410 617T319 642Q283 642 271 633T259 595V373H373V326H259V93Z" />
<glyph unicode="&#xd1;" glyph-name="Ntilde" horiz-adv-x="722" d="M541 924Q524 858 496 828T425 797Q409 797 392 801T360 811L331 824Q314 831 304 835T288 842T277 845T267 846Q247 846 234 833T218 799H176Q190 864 217 894T292 924Q323 924 365 905L405
887Q424 879 430 877T444 875Q464 875 476 886T498 924H541ZM701 651Q677 647 662 643T638 630T626 607T623 568V-18H595L148 527V131Q148 102 152 83T166 53T195 35T242 25V0H16V25Q43 28 60 33T87 47T100 71T104 109V579Q72 622 53 636T19 651V676H230L579 246V545Q579
575 575 594T561 625T533 642T487 651V676H701V651Z" />
<glyph unicode="&#xd2;" glyph-name="Ograve" horiz-adv-x="778" d="M447 778L305 866Q283 880 274 891T265 918Q265 937 278 950T312 963Q341 963 366 935L503 778H447ZM743 335Q743 257 717 192T643 80T531 7T388 -19Q310 -19 246 7T134 80T61 191T35 334Q35
414 62 479T136 592T250 665T394 691Q469 691 533 665T643 591T716 478T743 335ZM566 328Q566 489 520 573T385 658Q302 658 257 573T212 330Q212 171 258 93T390 14Q477 14 521 93T566 328Z" />
<glyph unicode="&#xd3;" glyph-name="Oacute" horiz-adv-x="778" d="M404 935Q429 963 457 963Q479 963 492 951T505 919Q505 902 497 892T465 866L323 778H267L404 935ZM743 335Q743 257 717 192T643 80T531 7T388 -19Q310 -19 246 7T134 80T61 191T35 334Q35
414 62 479T136 592T250 665T394 691Q469 691 533 665T643 591T716 478T743 335ZM566 328Q566 489 520 573T385 658Q302 658 257 573T212 330Q212 171 258 93T390 14Q477 14 521 93T566 328Z" />
<glyph unicode="&#xd4;" glyph-name="Ocircumflex" horiz-adv-x="778" d="M495 778L383 876L271 778H215L337 954H429L552 778H495ZM743 335Q743 257 717 192T643 80T531 7T388 -19Q310 -19 246 7T134 80T61 191T35 334Q35 414 62 479T136 592T250 665T394 691Q469
691 533 665T643 591T716 478T743 335ZM566 328Q566 489 520 573T385 658Q302 658 257 573T212 330Q212 171 258 93T390 14Q477 14 521 93T566 328Z" />
<glyph unicode="&#xd5;" glyph-name="Otilde" horiz-adv-x="778" d="M570 924Q553 858 525 828T454 797Q438 797 421 801T389 811L360 824Q343 831 333 835T317 842T306 845T296 846Q276 846 263 833T247 799H205Q219 864 246 894T321 924Q352 924 394 905L434
887Q453 879 459 877T473 875Q493 875 505 886T527 924H570ZM743 335Q743 257 717 192T643 80T531 7T388 -19Q310 -19 246 7T134 80T61 191T35 334Q35 414 62 479T136 592T250 665T394 691Q469 691 533 665T643 591T716 478T743 335ZM566 328Q566 489 520 573T385
658Q302 658 257 573T212 330Q212 171 258 93T390 14Q477 14 521 93T566 328Z" />
<glyph unicode="&#xd6;" glyph-name="Odieresis" horiz-adv-x="778" d="M554 850Q554 824 535 806T488 787Q462 787 444 806T425 852Q425 878 444 897T489 916Q515 916 534 897T554 850ZM344 850Q344 824 326 806T279 787Q253 787 234 806T215 852Q215 878 234
897T280 916Q306 916 325 897T344 850ZM743 335Q743 257 717 192T643 80T531 7T388 -19Q310 -19 246 7T134 80T61 191T35 334Q35 414 62 479T136 592T250 665T394 691Q469 691 533 665T643 591T716 478T743 335ZM566 328Q566 489 520 573T385 658Q302 658 257 573T212
330Q212 171 258 93T390 14Q477 14 521 93T566 328Z" />
<glyph unicode="&#xd7;" glyph-name="multiply" horiz-adv-x="702" d="M574 -33L351 191L128 -33L66 29L289 253L67 476L129 538L351 315L574 538L636 476L413 253L636 29L574 -33Z" />
<glyph unicode="&#xd8;" glyph-name="Oslash" horiz-adv-x="778" d="M607 622Q626 606 640 594T664 569T683 544T700 516Q743 436 743 336Q743 258 717 193T644 81T532 7T389 -19Q335 -19 292 -8T202 30L131 -74H81L167 52Q145 71 129 87T101 120T79 154T60 195Q35
260 35 335Q35 413 61 478T135 590T247 664T390 691Q441 691 482 681T572 644L635 737H685L607 622ZM520 569Q494 617 464 637T389 658Q303 658 258 573T212 328Q212 300 213 278T216 235T223 194T234 151L520 569ZM253 104Q279 56 310 35T389 14Q477 14 521 94T566
331Q566 361 565 386T560 433T552 478T540 524L253 104Z" />
<glyph unicode="&#xd9;" glyph-name="Ugrave" horiz-adv-x="722" d="M423 778L281 866Q259 880 250 891T241 918Q241 937 254 950T288 963Q317 963 342 935L479 778H423ZM701 651Q677 647 662 642T638 627T626 603T623 566V252Q623 177 604 121T547 36Q515 10
466 -4T363 -19Q307 -19 260 -6T178 35Q135 69 117 113T98 231V555Q98 585 95 603T83 630T58 644T16 651V676H352V651Q323 649 305 645T276 629T261 600T257 550V232Q257 127 293 79T403 30Q579 30 579 252V552Q579 579 574 597T558 626T529 643T482 651V676H701V651Z"
/>
<glyph unicode="&#xda;" glyph-name="Uacute" horiz-adv-x="722" d="M379 935Q404 963 432 963Q454 963 467 951T480 919Q480 902 472 892T440 866L298 778H242L379 935ZM701 651Q677 647 662 642T638 627T626 603T623 566V252Q623 177 604 121T547 36Q515 10
466 -4T363 -19Q307 -19 260 -6T178 35Q135 69 117 113T98 231V555Q98 585 95 603T83 630T58 644T16 651V676H352V651Q323 649 305 645T276 629T261 600T257 550V232Q257 127 293 79T403 30Q579 30 579 252V552Q579 579 574 597T558 626T529 643T482 651V676H701V651Z"
/>
<glyph unicode="&#xdb;" glyph-name="Ucircumflex" horiz-adv-x="722" d="M473 778L361 876L249 778H193L315 954H407L530 778H473ZM701 651Q677 647 662 642T638 627T626 603T623 566V252Q623 177 604 121T547 36Q515 10 466 -4T363 -19Q307 -19 260 -6T178 35Q135
69 117 113T98 231V555Q98 585 95 603T83 630T58 644T16 651V676H352V651Q323 649 305 645T276 629T261 600T257 550V232Q257 127 293 79T403 30Q579 30 579 252V552Q579 579 574 597T558 626T529 643T482 651V676H701V651Z" />
<glyph unicode="&#xdc;" glyph-name="Udieresis" horiz-adv-x="722" d="M533 850Q533 824 514 806T467 787Q441 787 423 806T404 852Q404 878 423 897T468 916Q494 916 513 897T533 850ZM323 850Q323 824 305 806T258 787Q232 787 213 806T194 852Q194 878 213
897T259 916Q285 916 304 897T323 850ZM701 651Q677 647 662 642T638 627T626 603T623 566V252Q623 177 604 121T547 36Q515 10 466 -4T363 -19Q307 -19 260 -6T178 35Q135 69 117 113T98 231V555Q98 585 95 603T83 630T58 644T16 651V676H352V651Q323 649 305
645T276 629T261 600T257 550V232Q257 127 293 79T403 30Q579 30 579 252V552Q579 579 574 597T558 626T529 643T482 651V676H701V651Z" />
<glyph unicode="&#xdd;" glyph-name="Yacute" horiz-adv-x="722" d="M386 935Q411 963 439 963Q461 963 474 951T487 919Q487 902 479 892T447 866L305 778H249L386 935ZM699 651Q673 647 658 638T631 612L440 301V123Q440 94 443 76T456 48T484 33T532 25V0H185V25Q216
28 234 33T262 51T275 81T278 128V264L98 592Q84 618 63 633T15 651V676H350V651L323 649Q293 647 281 642T269 620Q269 613 276 596T293 561L413 329L522 507Q542 539 552 566T563 609Q563 631 547 639T479 651V676H699V651Z" />
<glyph unicode="&#xde;" glyph-name="Thorn" horiz-adv-x="611" d="M328 546Q400 546 456 532T544 491Q600 443 600 363Q600 265 512 213Q491 201 472 193T426 181T361 175T262 173V117Q262 90 264 74T276 48T302 34T350 25V0H16V25L40 29Q58 32 69 37T88 53T97
78T100 117V559Q100 585 97 602T84 629T59 644T16 651V676H350V651Q320 647 303 642T276 628T265 602T262 558V546H328ZM262 208Q311 208 343 215T394 239T420 285T428 359Q428 441 402 476T312 511Q262 511 262 476V208Z" />
<glyph unicode="&#xdf;" glyph-name="germandbls" horiz-adv-x="556" d="M70 507Q70 547 85 581T128 639T194 677T277 691Q320 691 356 680T419 648T461 599T476 537Q476 505 460 478T415 430Q396 417 376 409T320 393Q350 384 372 376T412 360T442 343T467 322Q517
275 517 194Q517 151 502 114T462 48T402 4T328 -12Q314 -12 301 -9T264 3L278 37L288 30Q295 25 299 24T309 23Q327 23 339 31T358 59T368 112T371 197Q371 262 362 299T332 354Q321 363 308 367T269 373V407Q290 407 304 412T325 431T336 469T339 530Q339 601
323 632T269 663Q209 663 209 586V0H19V24Q35 27 45 30T60 41T68 59T70 87V507Z" />
<glyph unicode="&#xe0;" glyph-name="agrave" horiz-adv-x="500" d="M309 528L167 616Q145 630 136 641T127 668Q127 687 140 700T174 713Q203 713 228 685L365 528H309ZM488 43Q459 12 434 -1T376 -14Q339 -14 321 1T294 55Q252 17 216 2T135 -14Q87 -14 56 11T25
92Q25 159 92 204Q106 213 123 221T163 239T217 258T293 280V348Q293 396 275 418T212 441Q185 441 166 432T147 404Q147 399 149 394T158 381Q177 358 177 339Q177 313 158 296T109 279Q78 279 61 297T44 347Q44 377 58 400T97 440T157 464T235 473Q327 473 379
439T431 339V78Q431 50 452 50Q459 50 463 54L473 64L488 43ZM293 245Q171 211 171 124Q171 91 185 74T223 57Q241 57 258 65T293 97V245Z" />
<glyph unicode="&#xe1;" glyph-name="aacute" horiz-adv-x="500" d="M282 685Q307 713 335 713Q357 713 370 701T383 669Q383 652 375 642T343 616L201 528H145L282 685ZM488 43Q459 12 434 -1T376 -14Q339 -14 321 1T294 55Q252 17 216 2T135 -14Q87 -14 56 11T25
92Q25 159 92 204Q106 213 123 221T163 239T217 258T293 280V348Q293 396 275 418T212 441Q185 441 166 432T147 404Q147 399 149 394T158 381Q177 358 177 339Q177 313 158 296T109 279Q78 279 61 297T44 347Q44 377 58 400T97 440T157 464T235 473Q327 473 379
439T431 339V78Q431 50 452 50Q459 50 463 54L473 64L488 43ZM293 245Q171 211 171 124Q171 91 185 74T223 57Q241 57 258 65T293 97V245Z" />
<glyph unicode="&#xe2;" glyph-name="acircumflex" horiz-adv-x="500" d="M367 528L255 626L143 528H87L209 704H301L424 528H367ZM488 43Q459 12 434 -1T376 -14Q339 -14 321 1T294 55Q252 17 216 2T135 -14Q87 -14 56 11T25 92Q25 159 92 204Q106 213 123 221T163
239T217 258T293 280V348Q293 396 275 418T212 441Q185 441 166 432T147 404Q147 399 149 394T158 381Q177 358 177 339Q177 313 158 296T109 279Q78 279 61 297T44 347Q44 377 58 400T97 440T157 464T235 473Q327 473 379 439T431 339V78Q431 50 452 50Q459 50
463 54L473 64L488 43ZM293 245Q171 211 171 124Q171 91 185 74T223 57Q241 57 258 65T293 97V245Z" />
<glyph unicode="&#xe3;" glyph-name="atilde" horiz-adv-x="500" d="M437 674Q420 608 392 578T321 547Q305 547 288 551T256 561L227 574Q210 581 200 585T184 592T173 595T163 596Q143 596 130 583T114 549H72Q86 614 113 644T188 674Q219 674 261 655L301 637Q320
629 326 627T340 625Q360 625 372 636T394 674H437ZM488 43Q459 12 434 -1T376 -14Q339 -14 321 1T294 55Q252 17 216 2T135 -14Q87 -14 56 11T25 92Q25 159 92 204Q106 213 123 221T163 239T217 258T293 280V348Q293 396 275 418T212 441Q185 441 166 432T147
404Q147 399 149 394T158 381Q177 358 177 339Q177 313 158 296T109 279Q78 279 61 297T44 347Q44 377 58 400T97 440T157 464T235 473Q327 473 379 439T431 339V78Q431 50 452 50Q459 50 463 54L473 64L488 43ZM293 245Q171 211 171 124Q171 91 185 74T223 57Q241
57 258 65T293 97V245Z" />
<glyph unicode="&#xe4;" glyph-name="adieresis" horiz-adv-x="500" d="M425 600Q425 574 406 556T359 537Q333 537 315 556T296 602Q296 628 315 647T360 666Q386 666 405 647T425 600ZM215 600Q215 574 197 556T150 537Q124 537 105 556T86 602Q86 628 105 647T151
666Q177 666 196 647T215 600ZM488 43Q459 12 434 -1T376 -14Q339 -14 321 1T294 55Q252 17 216 2T135 -14Q87 -14 56 11T25 92Q25 159 92 204Q106 213 123 221T163 239T217 258T293 280V348Q293 396 275 418T212 441Q185 441 166 432T147 404Q147 399 149 394T158
381Q177 358 177 339Q177 313 158 296T109 279Q78 279 61 297T44 347Q44 377 58 400T97 440T157 464T235 473Q327 473 379 439T431 339V78Q431 50 452 50Q459 50 463 54L473 64L488 43ZM293 245Q171 211 171 124Q171 91 185 74T223 57Q241 57 258 65T293 97V245Z"
/>
<glyph unicode="&#xe5;" glyph-name="aring" horiz-adv-x="500" d="M362 647Q362 625 354 606T331 571T298 548T256 539Q233 539 214 547T180 569T158 603T149 645Q149 667 157 686T181 720T215 743T257 752Q278 752 297 744T331 721T353 688T362 647ZM314 644Q314
670 296 687T253 704Q231 704 214 687T197 646Q197 622 214 605T254 587Q280 587 297 603T314 644ZM488 43Q459 12 434 -1T376 -14Q339 -14 321 1T294 55Q252 17 216 2T135 -14Q87 -14 56 11T25 92Q25 159 92 204Q106 213 123 221T163 239T217 258T293 280V348Q293
396 275 418T212 441Q185 441 166 432T147 404Q147 399 149 394T158 381Q177 358 177 339Q177 313 158 296T109 279Q78 279 61 297T44 347Q44 377 58 400T97 440T157 464T235 473Q327 473 379 439T431 339V78Q431 50 452 50Q459 50 463 54L473 64L488 43ZM293 245Q171
211 171 124Q171 91 185 74T223 57Q241 57 258 65T293 97V245Z" />
<glyph unicode="&#xe6;" glyph-name="ae" horiz-adv-x="722" d="M694 114Q672 80 650 57T603 19T549 -2T484 -9Q436 -9 400 9T337 75H331Q289 24 245 5T151 -14Q33 -14 33 94Q33 127 48 151T92 199Q104 209 119 218T157 238T213 259T296 285V360Q296 404 278 422T218
441Q189 441 171 431T153 406Q153 397 165 384Q175 373 178 364T182 341Q182 313 164 296T115 279Q83 279 67 299T50 348Q50 375 63 397T101 437T160 463T234 473Q282 473 315 462T374 422Q400 451 430 462T501 473Q558 473 601 447T667 372Q673 359 677 347T683
320T687 289T688 248H434V225Q434 142 459 102T549 61Q586 61 615 77T673 129L694 114ZM567 318Q567 388 553 415T504 443Q465 443 450 406T434 285H567V318ZM296 248Q230 224 204 196T177 120Q177 49 234 49Q252 49 265 55T296 81V248Z" />
<glyph unicode="&#xe7;" glyph-name="ccedilla" horiz-adv-x="444" d="M430 91Q393 40 354 16T265 -13L242 -64Q251 -61 258 -60T274 -59Q316 -59 339 -77T363 -129Q363 -171 329 -194T234 -218Q208 -218 187 -214T137 -200L153 -163L159 -165Q179 -172 189 -174T212
-177Q270 -177 270 -136Q270 -100 224 -100Q211 -100 196 -104L185 -96L221 -13Q178 -10 142 8T80 56T40 129T25 222Q25 278 43 324T94 403T169 454T262 473Q295 473 323 465T371 442T404 407T416 363Q416 334 398 317T348 299Q322 299 307 317T292 372Q292 390
292 403T287 424T275 437T250 442Q213 442 190 399T166 273Q166 170 202 112T305 53Q336 53 360 65T412 109L430 91Z" />
<glyph unicode="&#xe8;" glyph-name="egrave" horiz-adv-x="444" d="M304 528L162 616Q140 630 131 641T122 668Q122 687 135 700T169 713Q198 713 223 685L360 528H304ZM427 112Q404 76 383 52T338 14T288 -7T229 -14Q184 -14 147 4T82 53T40 129T25 224Q25 280
40 326T82 404T148 455T234 473Q278 473 309 460T362 423Q390 392 404 347T421 245H169Q171 209 176 176T194 116T229 74T288 58Q320 58 346 73T403 126L427 112ZM298 303Q298 342 297 361T289 395Q278 418 267 430T234 442Q199 442 182 407T164 282H298V303Z"
/>
<glyph unicode="&#xe9;" glyph-name="eacute" horiz-adv-x="444" d="M261 685Q286 713 314 713Q336 713 349 701T362 669Q362 652 354 642T322 616L180 528H124L261 685ZM427 112Q404 76 383 52T338 14T288 -7T229 -14Q184 -14 147 4T82 53T40 129T25 224Q25 280
40 326T82 404T148 455T234 473Q278 473 309 460T362 423Q390 392 404 347T421 245H169Q171 209 176 176T194 116T229 74T288 58Q320 58 346 73T403 126L427 112ZM298 303Q298 342 297 361T289 395Q278 418 267 430T234 442Q199 442 182 407T164 282H298V303Z"
/>
<glyph unicode="&#xea;" glyph-name="ecircumflex" horiz-adv-x="444" d="M352 528L240 626L128 528H72L194 704H286L409 528H352ZM427 112Q404 76 383 52T338 14T288 -7T229 -14Q184 -14 147 4T82 53T40 129T25 224Q25 280 40 326T82 404T148 455T234 473Q278
473 309 460T362 423Q390 392 404 347T421 245H169Q171 209 176 176T194 116T229 74T288 58Q320 58 346 73T403 126L427 112ZM298 303Q298 342 297 361T289 395Q278 418 267 430T234 442Q199 442 182 407T164 282H298V303Z" />
<glyph unicode="&#xeb;" glyph-name="edieresis" horiz-adv-x="444" d="M411 600Q411 574 392 556T345 537Q319 537 301 556T282 602Q282 628 301 647T346 666Q372 666 391 647T411 600ZM201 600Q201 574 183 556T136 537Q110 537 91 556T72 602Q72 628 91 647T137
666Q163 666 182 647T201 600ZM427 112Q404 76 383 52T338 14T288 -7T229 -14Q184 -14 147 4T82 53T40 129T25 224Q25 280 40 326T82 404T148 455T234 473Q278 473 309 460T362 423Q390 392 404 347T421 245H169Q171 209 176 176T194 116T229 74T288 58Q320 58
346 73T403 126L427 112ZM298 303Q298 342 297 361T289 395Q278 418 267 430T234 442Q199 442 182 407T164 282H298V303Z" />
<glyph unicode="&#xec;" glyph-name="igrave" horiz-adv-x="278" d="M201 528L59 616Q37 630 28 641T19 668Q19 687 32 700T66 713Q95 713 120 685L257 528H201ZM16 0V24Q33 28 43 32T59 43T67 60T69 88V374Q69 391 67 401T58 419T41 430T14 437V461H208V85Q208
54 219 41T256 24V0H16Z" />
<glyph unicode="&#xed;" glyph-name="iacute" horiz-adv-x="278" d="M16 0V24Q33 28 43 32T59 43T67 60T69 88V373Q69 407 59 418T15 437V461H208V85Q208 53 219 41T256 24V0H16ZM157 685Q182 713 210 713Q232 713 245 701T258 669Q258 652 250 642T218 616L76
528H20L157 685Z" />
<glyph unicode="&#xee;" glyph-name="icircumflex" horiz-adv-x="278" d="M-28 0V24Q-11 28 -1 32T15 43T23 60T25 88V373Q25 407 15 418T-29 437V461H164V85Q164 53 175 41T212 24V0H-28ZM251 528L139 626L27 528H-29L93 704H185L308 528H251Z" />
<glyph unicode="&#xef;" glyph-name="idieresis" horiz-adv-x="278" d="M-28 0V24Q-11 28 -1 32T15 43T23 60T25 88V373Q25 407 15 418T-29 437V461H164V85Q164 53 175 41T212 24V0H-28ZM310 600Q310 574 291 556T244 537Q218 537 200 556T181 602Q181 628 200
647T245 666Q271 666 290 647T310 600ZM100 600Q100 574 82 556T35 537Q9 537 -10 556T-29 602Q-29 628 -10 647T36 666Q62 666 81 647T100 600Z" />
<glyph unicode="&#xf0;" glyph-name="eth" horiz-adv-x="500" d="M335 614Q358 595 374 579T404 547T426 512T445 471Q461 432 468 391T476 298Q476 225 462 168T419 70T349 8T251 -14Q202 -14 161 3T89 51T42 128T25 229Q25 284 42 329T89 406T160 455T249 473Q281
473 300 464T340 432L342 435Q328 478 308 510T256 574L146 518L98 549L215 608Q183 631 152 645T82 666L128 691Q174 686 212 676T288 645L378 691L427 661L335 614ZM329 230Q329 290 325 330T312 395T287 431T250 442Q216 442 197 408Q183 385 178 342T172 221Q172
183 174 147T185 81T209 35T252 17Q274 17 288 27T312 63T325 129T329 230Z" />
<glyph unicode="&#xf1;" glyph-name="ntilde" horiz-adv-x="556" d="M464 674Q447 608 419 578T348 547Q332 547 315 551T283 561L254 574Q237 581 227 585T211 592T200 595T190 596Q170 596 157 583T141 549H99Q113 614 140 644T215 674Q246 674 288 655L328
637Q347 629 353 627T367 625Q387 625 399 636T421 674H464ZM305 0V24Q331 27 341 40T351 84V321Q351 406 300 406Q264 406 230 372Q222 364 218 358T213 348V84Q213 56 223 42T261 24V0H21V24Q38 27 48 31T64 43T72 60T74 87V376Q74 408 64 420T21 437V461H212V386H213Q239
431 274 452T355 473Q417 473 453 435T490 331V84Q490 50 500 38T539 24V0H305Z" />
<glyph unicode="&#xf2;" glyph-name="ograve" horiz-adv-x="500" d="M314 528L172 616Q150 630 141 641T132 668Q132 687 145 700T179 713Q208 713 233 685L370 528H314ZM476 229Q476 176 459 132T412 55T340 4T250 -14Q203 -14 162 4T91 54T43 130T25 228Q25
283 42 328T90 405T162 455T254 473Q301 473 341 455T412 405T459 327T476 229ZM329 218Q329 282 325 325T312 394T288 431T251 442Q228 442 213 431T189 394T176 325T172 218Q172 109 189 63T251 17Q273 17 288 27T312 61T325 123T329 218Z" />
<glyph unicode="&#xf3;" glyph-name="oacute" horiz-adv-x="500" d="M269 685Q294 713 322 713Q344 713 357 701T370 669Q370 652 362 642T330 616L188 528H132L269 685ZM476 229Q476 176 459 132T412 55T340 4T250 -14Q203 -14 162 4T91 54T43 130T25 228Q25
283 42 328T90 405T162 455T254 473Q301 473 341 455T412 405T459 327T476 229ZM329 218Q329 282 325 325T312 394T288 431T251 442Q228 442 213 431T189 394T176 325T172 218Q172 109 189 63T251 17Q273 17 288 27T312 61T325 123T329 218Z" />
<glyph unicode="&#xf4;" glyph-name="ocircumflex" horiz-adv-x="500" d="M364 528L252 626L140 528H84L206 704H298L421 528H364ZM476 229Q476 176 459 132T412 55T340 4T250 -14Q203 -14 162 4T91 54T43 130T25 228Q25 283 42 328T90 405T162 455T254 473Q301
473 341 455T412 405T459 327T476 229ZM329 218Q329 282 325 325T312 394T288 431T251 442Q228 442 213 431T189 394T176 325T172 218Q172 109 189 63T251 17Q273 17 288 27T312 61T325 123T329 218Z" />
<glyph unicode="&#xf5;" glyph-name="otilde" horiz-adv-x="500" d="M434 674Q417 608 389 578T318 547Q302 547 285 551T253 561L224 574Q207 581 197 585T181 592T170 595T160 596Q140 596 127 583T111 549H69Q83 614 110 644T185 674Q216 674 258 655L298 637Q317
629 323 627T337 625Q357 625 369 636T391 674H434ZM476 229Q476 176 459 132T412 55T340 4T250 -14Q203 -14 162 4T91 54T43 130T25 228Q25 283 42 328T90 405T162 455T254 473Q301 473 341 455T412 405T459 327T476 229ZM329 218Q329 282 325 325T312 394T288
431T251 442Q228 442 213 431T189 394T176 325T172 218Q172 109 189 63T251 17Q273 17 288 27T312 61T325 123T329 218Z" />
<glyph unicode="&#xf6;" glyph-name="odieresis" horiz-adv-x="500" d="M421 600Q421 574 402 556T355 537Q329 537 311 556T292 602Q292 628 311 647T356 666Q382 666 401 647T421 600ZM211 600Q211 574 193 556T146 537Q120 537 101 556T82 602Q82 628 101 647T147
666Q173 666 192 647T211 600ZM476 229Q476 176 459 132T412 55T340 4T250 -14Q203 -14 162 4T91 54T43 130T25 228Q25 283 42 328T90 405T162 455T254 473Q301 473 341 455T412 405T459 327T476 229ZM329 218Q329 282 325 325T312 394T288 431T251 442Q228 442
213 431T189 394T176 325T172 218Q172 109 189 63T251 17Q273 17 288 27T312 61T325 123T329 218Z" />
<glyph unicode="&#xf7;" glyph-name="divide" horiz-adv-x="570" d="M362 461Q362 446 356 432T339 408T315 391T286 384Q254 384 232 406T209 460Q209 492 231 514T286 537Q301 537 314 531T338 514T355 490T362 461ZM33 209V297H537V209H33ZM362 47Q362 32 356
18T339 -7T314 -24T285 -31Q270 -31 256 -25T232 -8T215 17T209 46Q209 78 231 100T286 122Q301 122 314 116T338 100T355 76T362 47Z" />
<glyph unicode="&#xf8;" glyph-name="oslash" horiz-adv-x="500" d="M388 426Q435 384 455 338T476 229Q476 176 459 132T412 55T341 5T251 -14Q221 -14 196 -8T144 13L81 -92H34L110 36Q65 78 45 123T25 229Q25 281 42 326T89 403T161 454T252 473Q281 473 304
468T355 448L415 549H461L388 426ZM316 382Q306 415 292 428T252 442Q229 442 214 431T189 394T176 322T172 209Q172 189 172 172T173 140L316 382ZM183 80Q193 46 209 32T251 17Q273 17 288 27T312 61T325 123T329 217Q329 243 329 266T327 324L183 80Z" />
<glyph unicode="&#xf9;" glyph-name="ugrave" horiz-adv-x="556" d="M337 528L195 616Q173 630 164 641T155 668Q155 687 168 700T202 713Q231 713 256 685L393 528H337ZM475 13Q451 10 433 8T401 3T373 -3T343 -13V52Q304 15 272 1T198 -14Q135 -14 100 23T65
131V372Q65 389 63 400T56 419T41 430T16 437V461H204V127Q204 85 218 68T260 51Q282 51 300 61T342 98V374Q342 408 331 421T281 437V461H481V105Q481 72 493 59T538 43V20L475 13Z" />
<glyph unicode="&#xfa;" glyph-name="uacute" horiz-adv-x="556" d="M293 685Q318 713 346 713Q368 713 381 701T394 669Q394 652 386 642T354 616L212 528H156L293 685ZM475 13Q451 10 433 8T401 3T373 -3T343 -13V52Q304 15 272 1T198 -14Q135 -14 100 23T65
131V372Q65 389 63 400T56 419T41 430T16 437V461H204V127Q204 85 218 68T260 51Q282 51 300 61T342 98V374Q342 408 331 421T281 437V461H481V105Q481 72 493 59T538 43V20L475 13Z" />
<glyph unicode="&#xfb;" glyph-name="ucircumflex" horiz-adv-x="556" d="M386 528L274 626L162 528H106L228 704H320L443 528H386ZM475 13Q451 10 433 8T401 3T373 -3T343 -13V52Q304 15 272 1T198 -14Q135 -14 100 23T65 131V372Q65 389 63 400T56 419T41 430T16
437V461H204V127Q204 85 218 68T260 51Q282 51 300 61T342 98V374Q342 408 331 421T281 437V461H481V105Q481 72 493 59T538 43V20L475 13Z" />
<glyph unicode="&#xfc;" glyph-name="udieresis" horiz-adv-x="556" d="M443 600Q443 574 424 556T377 537Q351 537 333 556T314 602Q314 628 333 647T378 666Q404 666 423 647T443 600ZM233 600Q233 574 215 556T168 537Q142 537 123 556T104 602Q104 628 123
647T169 666Q195 666 214 647T233 600ZM475 13Q451 10 433 8T401 3T373 -3T343 -13V52Q304 15 272 1T198 -14Q135 -14 100 23T65 131V372Q65 389 63 400T56 419T41 430T16 437V461H204V127Q204 85 218 68T260 51Q282 51 300 61T342 98V374Q342 408 331 421T281
437V461H481V105Q481 72 493 59T538 43V20L475 13Z" />
<glyph unicode="&#xfd;" glyph-name="yacute" horiz-adv-x="500" d="M266 685Q291 713 319 713Q341 713 354 701T367 669Q367 652 359 642T327 616L185 528H129L266 685ZM482 437Q459 434 447 424T422 382L274 -16Q261 -51 250 -76T230 -120T213 -151T197 -172Q165
-205 113 -205Q70 -205 43 -183T16 -126Q16 -97 32 -78T78 -59Q104 -59 121 -74T138 -111Q138 -115 136 -125Q135 -127 135 -129V-131Q135 -138 140 -143T152 -148Q170 -148 187 -126T218 -66L236 -13L117 277Q109 296 99 319T80 364T62 402T50 423Q45 429 39 432T16
437V461H265V437L249 436Q213 433 213 411Q213 408 219 391T233 353L305 167L373 355Q380 375 382 385T384 404Q384 422 373 428T330 437V461H482V437Z" />
<glyph unicode="&#xfe;" glyph-name="thorn" horiz-adv-x="556" d="M214 391Q236 436 264 454T338 473Q380 473 414 456T472 409T510 335T524 239Q524 183 510 137T471 58T410 6T332 -13Q315 -13 302 -10T275 -1T247 17T214 47V-94Q214 -144 230 -163T292 -184V-205H19V-181Q37
-178 48 -175T65 -165T73 -148T75 -123V594Q75 624 65 634T20 652V676H214V391ZM214 103Q242 42 293 42Q335 42 355 87T376 229Q376 325 358 370T300 416Q263 416 232 379Q224 369 219 360T214 346V103Z" />
<glyph unicode="&#xff;" glyph-name="ydieresis" horiz-adv-x="500" d="M482 437Q459 434 447 424T422 382L274 -16Q261 -51 250 -76T230 -120T213 -151T197 -172Q165 -205 113 -205Q70 -205 43 -183T16 -126Q16 -97 32 -78T78 -59Q104 -59 121 -74T138 -111Q138
-115 136 -125Q135 -127 135 -129V-131Q135 -138 140 -143T152 -148Q170 -148 187 -126T218 -66L236 -13L117 277Q109 296 99 319T80 364T62 402T50 423Q45 429 39 432T16 437V461H265V437L249 436Q213 433 213 411Q213 408 219 391T233 353L305 167L373 355Q380
375 382 385T384 404Q384 422 373 428T330 437V461H482V437ZM416 600Q416 574 397 556T350 537Q324 537 306 556T287 602Q287 628 306 647T351 666Q377 666 396 647T416 600ZM206 600Q206 574 188 556T141 537Q115 537 96 556T77 602Q77 628 96 647T142 666Q168
666 187 647T206 600Z" />
<glyph unicode="&#x100;" glyph-name="uni0100" horiz-adv-x="722" d="M185 738V810H515V738H185ZM367 0V25L399 28Q424 30 434 37T445 61Q445 77 435 107T399 197H174L161 163Q152 140 141 112T130 66Q130 46 148 37T211 25V0H9V25Q26 28 38 34T61 53T83 88T108
145L329 690H357L579 168Q598 123 612 95T638 52T662 31T689 25V0H367ZM283 479L189 236H384L283 479Z" />
<glyph unicode="&#x101;" glyph-name="uni0101" horiz-adv-x="500" d="M85 528V600H415V528H85ZM488 43Q459 12 434 -1T376 -14Q339 -14 321 1T294 55Q252 17 216 2T135 -14Q87 -14 56 11T25 92Q25 159 92 204Q106 213 123 221T163 239T217 258T293 280V348Q293
396 275 418T212 441Q185 441 166 432T147 404Q147 399 149 394T158 381Q177 358 177 339Q177 313 158 296T109 279Q78 279 61 297T44 347Q44 377 58 400T97 440T157 464T235 473Q327 473 379 439T431 339V78Q431 50 452 50Q459 50 463 54L473 64L488 43ZM293 245Q171
211 171 124Q171 91 185 74T223 57Q241 57 258 65T293 97V245Z" />
<glyph unicode="&#x102;" glyph-name="uni0102" horiz-adv-x="722" d="M499 901Q496 866 486 836T458 784T412 750T347 738Q272 738 235 783T196 901H240Q249 855 275 835T342 814Q389 814 415 833T455 901H499ZM367 0V25L399 28Q424 30 434 37T445 61Q445 77
435 107T399 197H174L161 163Q152 140 141 112T130 66Q130 46 148 37T211 25V0H9V25Q26 28 38 34T61 53T83 88T108 145L329 690H357L579 168Q598 123 612 95T638 52T662 31T689 25V0H367ZM283 479L189 236H384L283 479Z" />
<glyph unicode="&#x103;" glyph-name="uni0103" horiz-adv-x="500" d="M395 691Q392 656 382 626T354 574T308 540T243 528Q168 528 131 573T92 691H136Q145 645 171 625T238 604Q285 604 311 623T351 691H395ZM488 43Q459 12 434 -1T376 -14Q339 -14 321 1T294
55Q252 17 216 2T135 -14Q87 -14 56 11T25 92Q25 159 92 204Q106 213 123 221T163 239T217 258T293 280V348Q293 396 275 418T212 441Q185 441 166 432T147 404Q147 399 149 394T158 381Q177 358 177 339Q177 313 158 296T109 279Q78 279 61 297T44 347Q44 377
58 400T97 440T157 464T235 473Q327 473 379 439T431 339V78Q431 50 452 50Q459 50 463 54L473 64L488 43ZM293 245Q171 211 171 124Q171 91 185 74T223 57Q241 57 258 65T293 97V245Z" />
<glyph unicode="&#x104;" glyph-name="uni0104" horiz-adv-x="722" d="M367 0V25L399 28Q424 30 434 37T445 61Q445 77 435 107T399 197H174L161 163Q152 140 141 112T130 66Q130 46 148 37T211 25V0H9V25Q26 28 38 34T61 53T83 88T108 145L329 690H357L579 168Q598
123 612 95T638 52T662 31T689 25V0H590Q589 -2 587 -8Q580 -32 578 -46T576 -72Q576 -107 590 -121T637 -136Q649 -136 659 -134T685 -123Q691 -120 693 -119T698 -115L721 -131Q712 -148 698 -162T666 -185T631 -200T595 -205Q548 -205 520 -184T492 -127Q492
-99 503 -76T546 -16Q552 -8 554 -6T560 0H367ZM283 479L189 236H384L283 479Z" />
<glyph unicode="&#x105;" glyph-name="uni0105" horiz-adv-x="500" d="M569 -131Q560 -148 546 -162T514 -185T479 -200T443 -205Q396 -205 368 -184T340 -127Q340 -99 351 -76T394 -16L397 -13Q392 -14 387 -14T376 -14Q339 -14 321 1T294 55Q252 17 216 2T135
-14Q87 -14 56 11T25 92Q25 159 92 204Q106 213 123 221T163 239T217 258T293 280V348Q293 396 275 418T212 441Q185 441 166 432T147 404Q147 399 149 394T158 381Q177 358 177 339Q177 313 158 296T109 279Q78 279 61 297T44 347Q44 377 58 400T97 440T157 464T235
473Q327 473 379 439T431 339V78Q431 50 452 50Q459 50 463 54L473 64L488 43Q464 16 438 1Q436 -2 435 -8Q428 -32 426 -46T424 -72Q424 -107 438 -121T485 -136Q497 -136 507 -134T533 -123Q539 -120 541 -119T546 -115L569 -131ZM293 245Q171 211 171 124Q171
91 185 74T223 57Q241 57 258 65T293 97V245Z" />
<glyph unicode="&#x106;" glyph-name="uni0106" horiz-adv-x="722" d="M453 895Q478 923 506 923Q528 923 541 911T554 879Q554 862 546 852T514 826L372 738H316L453 895ZM687 127Q652 84 619 56T552 11T480 -12T399 -19Q318 -19 254 7T144 79T74 187T49 323Q49
402 74 469T146 586T255 663T396 691Q467 691 552 656Q584 642 598 642Q612 642 621 651T642 688H669V453H644Q630 494 613 520T577 568Q542 610 502 634T410 658Q371 658 337 637T279 577T240 479T226 345Q226 269 237 212T280 105Q302 70 342 50T427 29Q491 29
553 63Q577 77 600 97T657 152L687 127Z" />
<glyph unicode="&#x107;" glyph-name="uni0107" horiz-adv-x="444" d="M299 685Q324 713 352 713Q374 713 387 701T400 669Q400 652 392 642T360 616L218 528H162L299 685ZM430 91Q389 35 344 11T239 -14Q192 -14 153 3T86 50T41 124T25 222Q25 278 43 324T94
403T169 454T262 473Q295 473 323 465T371 442T404 407T416 363Q416 334 398 317T348 299Q322 299 307 317T292 372Q292 390 292 403T287 424T275 437T250 442Q213 442 190 399T166 273Q166 170 202 112T305 53Q336 53 360 65T412 109L430 91Z" />
<glyph unicode="&#x108;" glyph-name="uni0108" horiz-adv-x="722" d="M482 738L370 836L258 738H202L324 914H416L539 738H482ZM687 127Q652 84 619 56T552 11T480 -12T399 -19Q318 -19 254 7T144 79T74 187T49 323Q49 402 74 469T146 586T255 663T396 691Q467
691 552 656Q584 642 598 642Q612 642 621 651T642 688H669V453H644Q630 494 613 520T577 568Q542 610 502 634T410 658Q371 658 337 637T279 577T240 479T226 345Q226 269 237 212T280 105Q302 70 342 50T427 29Q491 29 553 63Q577 77 600 97T657 152L687 127Z"
/>
<glyph unicode="&#x109;" glyph-name="uni0109" horiz-adv-x="444" d="M342 528L230 626L118 528H62L184 704H276L399 528H342ZM430 91Q389 35 344 11T239 -14Q192 -14 153 3T86 50T41 124T25 222Q25 278 43 324T94 403T169 454T262 473Q295 473 323 465T371 442T404
407T416 363Q416 334 398 317T348 299Q322 299 307 317T292 372Q292 390 292 403T287 424T275 437T250 442Q213 442 190 399T166 273Q166 170 202 112T305 53Q336 53 360 65T412 109L430 91Z" />
<glyph unicode="&#x10a;" glyph-name="uni010A" horiz-adv-x="722" d="M435 810Q435 784 416 766T369 747Q343 747 325 766T306 812Q306 838 325 857T370 876Q396 876 415 857T435 810ZM687 127Q652 84 619 56T552 11T480 -12T399 -19Q318 -19 254 7T144 79T74
187T49 323Q49 402 74 469T146 586T255 663T396 691Q467 691 552 656Q584 642 598 642Q612 642 621 651T642 688H669V453H644Q630 494 613 520T577 568Q542 610 502 634T410 658Q371 658 337 637T279 577T240 479T226 345Q226 269 237 212T280 105Q302 70 342 50T427
29Q491 29 553 63Q577 77 600 97T657 152L687 127Z" />
<glyph unicode="&#x10b;" glyph-name="uni010B" horiz-adv-x="444" d="M305 600Q305 574 286 556T239 537Q213 537 195 556T176 602Q176 628 195 647T240 666Q266 666 285 647T305 600ZM430 91Q389 35 344 11T239 -14Q192 -14 153 3T86 50T41 124T25 222Q25 278
43 324T94 403T169 454T262 473Q295 473 323 465T371 442T404 407T416 363Q416 334 398 317T348 299Q322 299 307 317T292 372Q292 390 292 403T287 424T275 437T250 442Q213 442 190 399T166 273Q166 170 202 112T305 53Q336 53 360 65T412 109L430 91Z" />
<glyph unicode="&#x10c;" glyph-name="uni010C" horiz-adv-x="722" d="M441 738H349L227 914H284L395 815L506 914H564L441 738ZM687 127Q652 84 619 56T552 11T480 -12T399 -19Q318 -19 254 7T144 79T74 187T49 323Q49 402 74 469T146 586T255 663T396 691Q467
691 552 656Q584 642 598 642Q612 642 621 651T642 688H669V453H644Q630 494 613 520T577 568Q542 610 502 634T410 658Q371 658 337 637T279 577T240 479T226 345Q226 269 237 212T280 105Q302 70 342 50T427 29Q491 29 553 63Q577 77 600 97T657 152L687 127Z"
/>
<glyph unicode="&#x10d;" glyph-name="uni010D" horiz-adv-x="444" d="M293 528H201L79 704H136L247 605L358 704H416L293 528ZM430 91Q389 35 344 11T239 -14Q192 -14 153 3T86 50T41 124T25 222Q25 278 43 324T94 403T169 454T262 473Q295 473 323 465T371 442T404
407T416 363Q416 334 398 317T348 299Q322 299 307 317T292 372Q292 390 292 403T287 424T275 437T250 442Q213 442 190 399T166 273Q166 170 202 112T305 53Q336 53 360 65T412 109L430 91Z" />
<glyph unicode="&#x10e;" glyph-name="uni010E" horiz-adv-x="722" d="M361 738H269L147 914H204L315 815L426 914H484L361 738ZM326 676Q411 676 479 653T593 588T665 484T690 345Q690 267 660 198T575 81Q529 41 464 21T323 0H14V25Q58 27 77 44T97 98V584Q97
619 80 632T14 651V676H326ZM259 100Q259 66 271 51T317 35Q415 35 466 107Q478 124 487 148T502 202T512 264T516 330Q516 395 507 449T475 541Q446 591 408 616T312 642Q283 642 271 631T259 598V100Z" />
<glyph unicode="&#x10f;" glyph-name="uni010F" horiz-adv-x="680" d="M533 396Q590 435 616 467T642 529Q642 538 637 544T623 550Q618 550 613 549T599 548Q567 548 547 568T526 624Q526 663 549 686T610 709Q658 709 684 678T710 593Q710 528 671 474T544 374L533
396ZM472 12Q449 9 432 7T400 2T371 -4T339 -13V52Q304 14 275 0T206 -14Q167 -14 134 3T76 52T39 126T25 221Q25 275 39 321T79 401T140 454T217 473Q252 473 278 460T336 411V594Q336 611 334 621T323 638T300 647T260 652V676H475V101Q475 69 487 57T534 43V20L472
12ZM336 355Q325 384 304 400T258 417Q214 417 194 372T173 229Q173 133 192 88T251 42Q287 42 317 79Q325 89 330 98T336 112V355Z" />
<glyph unicode="&#x110;" glyph-name="uni0110" horiz-adv-x="722" d="M319 676Q406 676 475 653T591 588T664 484T690 345Q690 273 667 211T600 104Q552 54 482 27T330 0H14V25Q58 27 77 42T97 91V326H6V373H97V584Q97 619 80 632T14 651V676H319ZM259 93Q259
59 271 47T317 35Q415 35 466 107Q489 141 502 200T516 330Q516 395 506 448T474 542Q447 593 410 617T319 642Q283 642 271 633T259 595V373H373V326H259V93Z" />
<glyph unicode="&#x111;" glyph-name="uni0111" horiz-adv-x="556" d="M472 12Q449 9 432 7T400 2T371 -4T339 -13V52Q304 14 275 0T206 -14Q167 -14 134 3T76 52T39 126T25 221Q25 275 39 321T79 401T140 454T217 473Q252 473 278 460T336 411V517H158V567H336V594Q336
611 334 621T323 638T300 647T260 652V676H475V567H528V517H475V101Q475 69 487 57T534 43V20L472 12ZM336 355Q325 384 304 400T258 417Q214 417 194 372T173 229Q173 133 192 88T251 43Q288 43 317 79Q325 89 330 98T336 112V355Z" />
<glyph unicode="&#x112;" glyph-name="uni0112" horiz-adv-x="667" d="M160 738V810H490V738H160ZM601 0H16V25Q44 28 61 33T87 46T100 68T104 101V580Q104 618 86 633T16 651V676H593V475H568Q559 525 544 557T502 608T434 634T331 642Q292 642 279 630T266 588V363Q306
363 334 370T382 394T412 439T428 512H454V174H428Q424 219 414 248T384 296T336 321T266 329V87Q266 55 283 43T349 31Q408 31 452 43T531 85Q544 95 554 106T573 132T592 165T613 208H641L601 0Z" />
<glyph unicode="&#x113;" glyph-name="uni0113" horiz-adv-x="444" d="M65 528V600H395V528H65ZM427 112Q404 76 383 52T338 14T288 -7T229 -14Q184 -14 147 4T82 53T40 129T25 224Q25 280 40 326T82 404T148 455T234 473Q278 473 309 460T362 423Q390 392 404
347T421 245H169Q171 209 176 176T194 116T229 74T288 58Q320 58 346 73T403 126L427 112ZM298 303Q298 342 297 361T289 395Q278 418 267 430T234 442Q199 442 182 407T164 282H298V303Z" />
<glyph unicode="&#x114;" glyph-name="uni0114" horiz-adv-x="667" d="M477 901Q474 866 464 836T436 784T390 750T325 738Q250 738 213 783T174 901H218Q227 855 253 835T320 814Q367 814 393 833T433 901H477ZM601 0H16V25Q44 28 61 33T87 46T100 68T104 101V580Q104
618 86 633T16 651V676H593V475H568Q559 525 544 557T502 608T434 634T331 642Q292 642 279 630T266 588V363Q306 363 334 370T382 394T412 439T428 512H454V174H428Q424 219 414 248T384 296T336 321T266 329V87Q266 55 283 43T349 31Q408 31 452 43T531 85Q544
95 554 106T573 132T592 165T613 208H641L601 0Z" />
<glyph unicode="&#x115;" glyph-name="uni0115" horiz-adv-x="444" d="M382 691Q379 656 369 626T341 574T295 540T230 528Q155 528 118 573T79 691H123Q132 645 158 625T225 604Q272 604 298 623T338 691H382ZM427 112Q404 76 383 52T338 14T288 -7T229 -14Q184
-14 147 4T82 53T40 129T25 224Q25 280 40 326T82 404T148 455T234 473Q278 473 309 460T362 423Q390 392 404 347T421 245H169Q171 209 176 176T194 116T229 74T288 58Q320 58 346 73T403 126L427 112ZM298 303Q298 342 297 361T289 395Q278 418 267 430T234 442Q199
442 182 407T164 282H298V303Z" />
<glyph unicode="&#x116;" glyph-name="uni0116" horiz-adv-x="667" d="M395 810Q395 784 376 766T329 747Q303 747 285 766T266 812Q266 838 285 857T330 876Q356 876 375 857T395 810ZM601 0H16V25Q44 28 61 33T87 46T100 68T104 101V580Q104 618 86 633T16 651V676H593V475H568Q559
525 544 557T502 608T434 634T331 642Q292 642 279 630T266 588V363Q306 363 334 370T382 394T412 439T428 512H454V174H428Q424 219 414 248T384 296T336 321T266 329V87Q266 55 283 43T349 31Q408 31 452 43T531 85Q544 95 554 106T573 132T592 165T613 208H641L601
0Z" />
<glyph unicode="&#x117;" glyph-name="uni0117" horiz-adv-x="444" d="M295 600Q295 574 276 556T229 537Q203 537 185 556T166 602Q166 628 185 647T230 666Q256 666 275 647T295 600ZM427 112Q404 76 383 52T338 14T288 -7T229 -14Q184 -14 147 4T82 53T40 129T25
224Q25 280 40 326T82 404T148 455T234 473Q278 473 309 460T362 423Q390 392 404 347T421 245H169Q171 209 176 176T194 116T229 74T288 58Q320 58 346 73T403 126L427 112ZM298 303Q298 342 297 361T289 395Q278 418 267 430T234 442Q199 442 182 407T164 282H298V303Z"
/>
<glyph unicode="&#x118;" glyph-name="uni0118" horiz-adv-x="667" d="M16 0V25Q44 28 61 33T87 46T100 68T104 101V580Q104 618 86 633T16 651V676H593V475H568Q559 525 544 557T502 608T434 634T331 642Q292 642 279 630T266 588V363Q306 363 334 370T382 394T412
439T428 512H454V174H428Q424 219 414 248T384 296T336 321T266 329V87Q266 55 283 43T349 31Q408 31 452 43T531 85Q544 95 554 106T573 132T592 165T613 208H641L601 0H437Q436 -2 434 -8Q427 -32 425 -46T423 -72Q423 -107 437 -121T484 -136Q496 -136 506 -134T532
-123Q538 -120 540 -119T545 -115L568 -131Q559 -148 545 -162T513 -185T478 -200T442 -205Q395 -205 367 -184T339 -127Q339 -99 350 -76T393 -16Q399 -8 401 -6T407 0H16Z" />
<glyph unicode="&#x119;" glyph-name="uni0119" horiz-adv-x="444" d="M435 -131Q426 -148 412 -162T380 -185T345 -200T309 -205Q262 -205 234 -184T206 -127Q206 -99 217 -76T260 -16Q261 -15 261 -14T263 -12Q255 -13 247 -13T229 -14Q184 -14 147 4T82 53T40
129T25 224Q25 280 40 326T82 404T148 455T234 473Q278 473 309 460T362 423Q390 392 404 347T421 245H169Q171 209 176 176T194 116T229 74T288 58Q320 58 346 73T403 126L427 112Q396 64 367 37T303 -3Q302 -5 302 -5T301 -8Q294 -32 292 -46T290 -72Q290 -107
304 -121T351 -136Q363 -136 373 -134T399 -123Q405 -120 407 -119T412 -115L435 -131ZM298 303Q298 342 297 361T289 395Q278 418 267 430T234 442Q199 442 182 407T164 282H298V303Z" />
<glyph unicode="&#x11a;" glyph-name="uni011A" horiz-adv-x="667" d="M386 738H294L172 914H229L340 815L451 914H509L386 738ZM601 0H16V25Q44 28 61 33T87 46T100 68T104 101V580Q104 618 86 633T16 651V676H593V475H568Q559 525 544 557T502 608T434 634T331
642Q292 642 279 630T266 588V363Q306 363 334 370T382 394T412 439T428 512H454V174H428Q424 219 414 248T384 296T336 321T266 329V87Q266 55 283 43T349 31Q408 31 452 43T531 85Q544 95 554 106T573 132T592 165T613 208H641L601 0Z" />
<glyph unicode="&#x11b;" glyph-name="uni011B" horiz-adv-x="444" d="M279 528H187L65 704H122L233 605L344 704H402L279 528ZM427 112Q404 76 383 52T338 14T288 -7T229 -14Q184 -14 147 4T82 53T40 129T25 224Q25 280 40 326T82 404T148 455T234 473Q278 473
309 460T362 423Q390 392 404 347T421 245H169Q171 209 176 176T194 116T229 74T288 58Q320 58 346 73T403 126L427 112ZM298 303Q298 342 297 361T289 395Q278 418 267 430T234 442Q199 442 182 407T164 282H298V303Z" />
<glyph unicode="&#x11c;" glyph-name="uni011C" horiz-adv-x="778" d="M512 738L400 836L288 738H232L354 914H446L569 738H512ZM755 262Q727 259 710 252T684 233T672 204T669 162V44Q645 30 613 18T545 -2T470 -14T392 -19Q317 -19 252 5T139 75T64 186T37 331Q37
406 63 471T135 585T246 662T385 691Q424 691 460 683T540 656Q572 642 586 642Q600 642 609 651T630 688H657V453H632Q619 481 609 502T587 541T564 573T536 602Q504 631 469 644T398 658Q310 658 262 576T214 338Q214 260 225 202T262 101Q288 57 323 36T417
14Q471 14 492 37T513 99V188Q513 207 509 220T494 242T463 255T411 262V287H755V262Z" />
<glyph unicode="&#x11d;" glyph-name="uni011D" horiz-adv-x="500" d="M362 528L250 626L138 528H82L204 704H296L419 528H362ZM306 68Q387 68 435 36T483 -52Q483 -123 416 -164T222 -206Q127 -206 78 -183T28 -114Q28 -53 124 -39Q76 -22 59 -4T42 43Q42 88
71 115T161 160Q107 175 72 215T37 312Q37 349 52 379T94 430T158 462T240 473Q270 473 294 468T352 451H481V398H401Q441 362 441 300Q441 206 349 168Q337 163 328 160T307 156T276 154T222 154Q193 154 173 141T153 105Q153 85 173 77T254 68H306ZM306 312Q306
382 291 412T239 442Q204 442 189 413T174 311Q174 241 189 212T240 182Q276 182 291 211T306 312ZM151 -52Q130 -69 123 -80T116 -107Q116 -174 250 -174Q325 -174 364 -156T404 -108Q404 -82 384 -67T315 -52H151Z" />
<glyph unicode="&#x11e;" glyph-name="uni011E" horiz-adv-x="778" d="M545 901Q542 866 532 836T504 784T458 750T393 738Q318 738 281 783T242 901H286Q295 855 321 835T388 814Q435 814 461 833T501 901H545ZM755 262Q727 259 710 252T684 233T672 204T669
162V44Q645 30 613 18T545 -2T470 -14T392 -19Q317 -19 252 5T139 75T64 186T37 331Q37 406 63 471T135 585T246 662T385 691Q424 691 460 683T540 656Q572 642 586 642Q600 642 609 651T630 688H657V453H632Q619 481 609 502T587 541T564 573T536 602Q504 631
469 644T398 658Q310 658 262 576T214 338Q214 260 225 202T262 101Q288 57 323 36T417 14Q471 14 492 37T513 99V188Q513 207 509 220T494 242T463 255T411 262V287H755V262Z" />
<glyph unicode="&#x11f;" glyph-name="uni011F" horiz-adv-x="500" d="M398 691Q395 656 385 626T357 574T311 540T246 528Q171 528 134 573T95 691H139Q148 645 174 625T241 604Q288 604 314 623T354 691H398ZM306 68Q387 68 435 36T483 -52Q483 -123 416 -164T222
-206Q127 -206 78 -183T28 -114Q28 -53 124 -39Q76 -22 59 -4T42 43Q42 88 71 115T161 160Q107 175 72 215T37 312Q37 349 52 379T94 430T158 462T240 473Q270 473 294 468T352 451H481V398H401Q441 362 441 300Q441 206 349 168Q337 163 328 160T307 156T276 154T222
154Q193 154 173 141T153 105Q153 85 173 77T254 68H306ZM306 312Q306 382 291 412T239 442Q204 442 189 413T174 311Q174 241 189 212T240 182Q276 182 291 211T306 312ZM151 -52Q130 -69 123 -80T116 -107Q116 -174 250 -174Q325 -174 364 -156T404 -108Q404
-82 384 -67T315 -52H151Z" />
<glyph unicode="&#x120;" glyph-name="uni0120" horiz-adv-x="778" d="M465 810Q465 784 446 766T399 747Q373 747 355 766T336 812Q336 838 355 857T400 876Q426 876 445 857T465 810ZM755 262Q727 259 710 252T684 233T672 204T669 162V44Q645 30 613 18T545
-2T470 -14T392 -19Q317 -19 252 5T139 75T64 186T37 331Q37 406 63 471T135 585T246 662T385 691Q424 691 460 683T540 656Q572 642 586 642Q600 642 609 651T630 688H657V453H632Q619 481 609 502T587 541T564 573T536 602Q504 631 469 644T398 658Q310 658 262
576T214 338Q214 260 225 202T262 101Q288 57 323 36T417 14Q471 14 492 37T513 99V188Q513 207 509 220T494 242T463 255T411 262V287H755V262Z" />
<glyph unicode="&#x121;" glyph-name="uni0121" horiz-adv-x="500" d="M315 600Q315 574 296 556T249 537Q223 537 205 556T186 602Q186 628 205 647T250 666Q276 666 295 647T315 600ZM306 68Q387 68 435 36T483 -52Q483 -123 416 -164T222 -206Q127 -206 78
-183T28 -114Q28 -53 124 -39Q76 -22 59 -4T42 43Q42 88 71 115T161 160Q107 175 72 215T37 312Q37 349 52 379T94 430T158 462T240 473Q270 473 294 468T352 451H481V398H401Q441 362 441 300Q441 206 349 168Q337 163 328 160T307 156T276 154T222 154Q193 154
173 141T153 105Q153 85 173 77T254 68H306ZM306 312Q306 382 291 412T239 442Q204 442 189 413T174 311Q174 241 189 212T240 182Q276 182 291 211T306 312ZM151 -52Q130 -69 123 -80T116 -107Q116 -174 250 -174Q325 -174 364 -156T404 -108Q404 -82 384 -67T315
-52H151Z" />
<glyph unicode="&#x122;" glyph-name="uni0122" horiz-adv-x="778" d="M755 262Q727 259 710 252T684 233T672 204T669 162V44Q645 30 613 18T545 -2T470 -14T392 -19Q317 -19 252 5T139 75T64 186T37 331Q37 406 63 471T135 585T246 662T385 691Q424 691 460
683T540 656Q572 642 586 642Q600 642 609 651T630 688H657V453H632Q619 481 609 502T587 541T564 573T536 602Q504 631 469 644T398 658Q310 658 262 576T214 338Q214 260 225 202T262 101Q288 57 323 36T417 14Q471 14 492 37T513 99V188Q513 207 509 220T494
242T463 255T411 262V287H755V262ZM306 -356Q363 -317 389 -285T415 -223Q415 -214 410 -208T396 -202Q391 -202 386 -203T372 -204Q340 -204 320 -184T299 -128Q299 -89 322 -66T383 -43Q431 -43 457 -74T483 -159Q483 -224 444 -278T317 -378L306 -356Z" />
<glyph unicode="&#x123;" glyph-name="uni0123" horiz-adv-x="500" d="M323 841Q266 802 240 770T214 708Q214 699 219 693T233 687Q238 687 243 688T257 689Q289 689 309 669T330 613Q330 574 307 551T246 528Q198 528 172 559T146 644Q146 709 185 763T312 863L323
841ZM306 68Q387 68 435 36T483 -52Q483 -123 416 -164T222 -206Q127 -206 78 -183T28 -114Q28 -53 124 -39Q76 -22 59 -4T42 43Q42 88 71 115T161 160Q107 175 72 215T37 312Q37 349 52 379T94 430T158 462T240 473Q270 473 294 468T352 451H481V398H401Q441 362
441 300Q441 206 349 168Q337 163 328 160T307 156T276 154T222 154Q193 154 173 141T153 105Q153 85 173 77T254 68H306ZM306 312Q306 382 291 412T239 442Q204 442 189 413T174 311Q174 241 189 212T240 182Q276 182 291 211T306 312ZM151 -52Q130 -69 123 -80T116
-107Q116 -174 250 -174Q325 -174 364 -156T404 -108Q404 -82 384 -67T315 -52H151Z" />
<glyph unicode="&#x124;" glyph-name="uni0124" horiz-adv-x="778" d="M500 738L388 836L276 738H220L342 914H434L557 738H500ZM420 0V25Q447 28 464 32T492 45T505 66T509 98V326H268V98Q268 78 271 66T285 45T312 33T357 25V0H21V25Q47 28 63 32T89 45T102
65T106 98V577Q106 598 102 611T89 632T63 645T21 651V676H357V651Q331 649 314 645T286 633T272 612T268 577V373H509V577Q509 598 505 611T491 633T464 645T420 651V676H759V651Q733 649 717 645T690 633T675 611T671 577V98Q671 78 674 66T688 45T715 33T759
25V0H420Z" />
<glyph unicode="&#x125;" glyph-name="uni0125" horiz-adv-x="556" d="M362 738L250 836L138 738H82L204 914H296L419 738H362ZM300 0V24Q326 27 336 40T346 85V309Q346 363 335 384T295 406Q259 406 225 372Q217 364 213 358T208 348V85Q208 54 218 41T256 24V0H16V24Q33
27 43 30T59 39T67 56T69 89V591Q69 609 67 619T59 636T43 645T15 652V676H208V396Q245 440 280 456T355 473Q417 473 451 435T485 337V87Q485 52 496 38T534 24V0H300Z" />
<glyph unicode="&#x126;" glyph-name="uni0126" horiz-adv-x="778" d="M420 0V25Q447 28 464 32T492 45T505 66T509 98V326H268V98Q268 78 271 66T285 45T312 33T357 25V0H21V25Q47 28 63 32T89 45T102 65T106 98V493H21V540H106V577Q106 598 102 611T89 632T63
645T21 651V676H357V651Q331 649 314 645T286 633T272 612T268 577V540H509V577Q509 598 505 611T491 633T464 645T420 651V676H759V651Q733 649 717 645T690 633T675 611T671 577V540H759V493H671V98Q671 78 674 66T688 45T715 33T759 25V0H420ZM509 493H268V373H509V493Z"
/>
<glyph unicode="&#x127;" glyph-name="uni0127" horiz-adv-x="556" d="M300 0V24Q326 27 336 40T346 85V309Q346 363 335 384T295 406Q259 406 225 372Q217 364 213 358T208 348V85Q208 54 218 41T256 24V0H16V24Q33 27 43 30T59 39T67 56T69 89V514H15V558H69V591Q69
609 67 619T59 636T43 645T15 652V676H208V558H366V514H208V396Q245 440 280 456T355 473Q417 473 451 435T485 337V87Q485 52 496 38T534 24V0H300Z" />
<glyph unicode="&#x128;" glyph-name="uni0128" horiz-adv-x="389" d="M379 884Q362 818 334 788T263 757Q247 757 230 761T198 771L169 784Q152 791 142 795T126 802T115 805T105 806Q85 806 72 793T56 759H14Q28 824 55 854T130 884Q161 884 203 865L243 847Q262
839 268 837T282 835Q302 835 314 846T336 884H379ZM20 0V25Q48 28 66 32T94 45T109 68T113 106V576Q113 597 109 610T94 632T65 645T20 651V676H370V651Q342 650 324 646T295 634T280 611T275 576V106Q275 82 279 67T294 43T323 31T370 25V0H20Z" />
<glyph unicode="&#x129;" glyph-name="uni0129" horiz-adv-x="278" d="M318 674Q301 608 273 578T202 547Q186 547 169 551T137 561L108 574Q91 581 81 585T65 592T54 595T44 596Q24 596 11 583T-5 549H-47Q-33 614 -6 644T69 674Q100 674 142 655L182 637Q201
629 207 627T221 625Q241 625 253 636T275 674H318ZM16 0V24Q33 28 43 32T59 43T67 60T69 88V373Q69 407 59 418T15 437V461H208V85Q208 53 219 41T256 24V0H16Z" />
<glyph unicode="&#x12a;" glyph-name="uni012A" horiz-adv-x="389" d="M29 738V810H359V738H29ZM20 0V25Q48 28 66 32T94 45T109 68T113 106V576Q113 597 109 610T94 632T65 645T20 651V676H370V651Q342 650 324 646T295 634T280 611T275 576V106Q275 82 279 67T294
43T323 31T370 25V0H20Z" />
<glyph unicode="&#x12b;" glyph-name="uni012B" horiz-adv-x="278" d="M-25 528V600H305V528H-25ZM16 0V24Q33 28 43 32T59 43T67 60T69 88V373Q69 407 59 418T15 437V461H208V85Q208 53 219 41T256 24V0H16Z" />
<glyph unicode="&#x12c;" glyph-name="uni012C" horiz-adv-x="389" d="M342 900Q339 865 329 835T301 783T255 749T190 737Q115 737 78 782T39 900H83Q92 854 118 834T185 813Q232 813 258 832T298 900H342ZM20 0V25Q48 28 66 32T94 45T109 68T113 106V576Q113
597 109 610T94 632T65 645T20 651V676H370V651Q342 650 324 646T295 634T280 611T275 576V106Q275 82 279 67T294 43T323 31T370 25V0H20Z" />
<glyph unicode="&#x12d;" glyph-name="uni012D" horiz-adv-x="278" d="M292 691Q289 656 279 626T251 574T205 540T140 528Q65 528 28 573T-11 691H33Q42 645 68 625T135 604Q182 604 208 623T248 691H292ZM16 0V24Q33 28 43 32T59 43T67 60T69 88V373Q69 407
59 418T15 437V461H208V85Q208 53 219 41T256 24V0H16Z" />
<glyph unicode="&#x12e;" glyph-name="uni012E" horiz-adv-x="389" d="M20 0V25Q48 28 66 32T94 45T109 68T113 106V576Q113 597 109 610T94 632T65 645T20 651V676H370V651Q342 650 324 646T295 634T280 611T275 576V106Q275 82 279 67T294 43T323 31T370 25V0H258Q257
-2 255 -8Q248 -32 246 -46T244 -72Q244 -107 258 -121T305 -136Q317 -136 327 -134T353 -123Q359 -120 361 -119T366 -115L389 -131Q380 -148 366 -162T334 -185T299 -200T263 -205Q216 -205 188 -184T160 -127Q160 -99 171 -76T214 -16Q220 -8 222 -6T228 0H20Z"
/>
<glyph unicode="&#x12f;" glyph-name="uni012F" horiz-adv-x="278" d="M16 0V24Q33 28 43 32T59 43T67 60T69 88V373Q69 407 59 418T15 437V461H208V85Q208 53 219 41T256 24V0H190Q189 -2 187 -8Q180 -32 178 -46T176 -72Q176 -107 190 -121T237 -136Q249 -136
259 -134T285 -123Q291 -120 293 -119T298 -115L321 -131Q312 -148 298 -162T266 -185T231 -200T195 -205Q148 -205 120 -184T92 -127Q92 -99 103 -76T146 -16Q152 -8 154 -6T160 0H16ZM215 613Q215 580 193 558T137 536Q104 536 82 558T60 613Q60 646 82 668T139
691Q171 691 193 668T215 613Z" />
<glyph unicode="&#x130;" glyph-name="uni0130" horiz-adv-x="389" d="M259 810Q259 784 240 766T193 747Q167 747 149 766T130 812Q130 838 149 857T194 876Q220 876 239 857T259 810ZM20 0V25Q48 28 66 32T94 45T109 68T113 106V576Q113 597 109 610T94 632T65
645T20 651V676H370V651Q342 650 324 646T295 634T280 611T275 576V106Q275 82 279 67T294 43T323 31T370 25V0H20Z" />
<glyph unicode="&#x131;" glyph-name="dotlessi" horiz-adv-x="278" d="M16 0V24Q33 28 43 32T59 43T67 60T69 88V373Q69 407 59 418T15 437V461H208V85Q208 53 219 41T256 24V0H16Z" />
<glyph unicode="&#x132;" glyph-name="uni0132" horiz-adv-x="838" d="M917 651Q889 649 872 644T845 629T832 601T829 556V126Q829 12 776 -42T617 -96Q587 -96 558 -91T509 -73Q481 -54 462 -25T442 37Q442 51 448 64T463 87T486 104T513 111Q527 111 540 105T563
88T579 64T585 35Q585 24 581 16T572 1T562 -14T558 -31Q558 -46 570 -54T603 -63Q638 -63 652 -42T667 27V577Q667 599 663 612T647 634T616 646T566 651V676H917V651ZM20 0V25Q48 28 66 32T94 45T109 68T113 106V576Q113 597 109 610T94 632T65 645T20 651V676H370V651Q342
650 324 646T295 634T280 611T275 576V106Q275 82 279 67T294 43T323 31T370 25V0H20Z" />
<glyph unicode="&#x133;" glyph-name="uni0133" horiz-adv-x="552" d="M531 613Q531 580 509 558T452 536Q419 536 398 558T376 613Q376 646 398 668T454 691Q486 691 508 668T531 613ZM215 613Q215 580 193 558T137 536Q104 536 82 558T60 613Q60 646 82 668T139
691Q171 691 193 668T215 613ZM528 2Q528 -43 522 -73T501 -127Q480 -164 442 -183T351 -203Q289 -203 250 -176T211 -103Q211 -76 228 -59T273 -42Q298 -42 315 -57T332 -96Q332 -112 318 -133Q309 -148 309 -155Q309 -163 318 -167T341 -172Q367 -172 378 -154T389
-96V378Q389 410 377 422T326 437V461H528V2ZM16 0V24Q33 28 43 32T59 43T67 60T69 88V373Q69 407 59 418T15 437V461H208V85Q208 53 219 41T256 24V0H16Z" />
<glyph unicode="&#x134;" glyph-name="uni0134" horiz-adv-x="500" d="M422 738L310 836L198 738H142L264 914H356L479 738H422ZM478 651Q450 649 433 644T406 629T393 601T390 556V126Q390 12 337 -42T178 -96Q148 -96 119 -91T70 -73Q42 -54 23 -25T3 37Q3 51
9 64T24 87T47 104T74 111Q88 111 101 105T124 88T140 64T146 35Q146 24 142 16T133 1T123 -14T119 -31Q119 -46 131 -54T164 -63Q199 -63 213 -42T228 27V577Q228 599 224 612T208 634T177 646T127 651V676H478V651Z" />
<glyph unicode="&#x135;" glyph-name="uni0135" horiz-adv-x="333" d="M278 528L166 626L54 528H-2L120 704H212L335 528H278ZM260 2Q260 -43 254 -73T233 -127Q212 -164 174 -183T83 -203Q21 -203 -18 -176T-57 -103Q-57 -76 -40 -59T5 -42Q30 -42 47 -57T64
-96Q64 -112 50 -133Q41 -148 41 -155Q41 -163 50 -167T73 -172Q99 -172 110 -154T121 -96V378Q121 410 109 422T58 437V461H260V2Z" />
<glyph unicode="&#x136;" glyph-name="uni0136" horiz-adv-x="778" d="M435 0V25Q459 26 474 27T498 31T509 37T512 46Q512 54 507 63T487 91L306 316L279 291V95Q279 77 282 65T295 45T322 33T366 25V0H30V25Q58 28 75 32T101 44T114 66T117 101V573Q117 596
113 610T100 633T73 645T30 651V676H367V651Q339 649 322 645T296 630T283 605T279 567V344L491 559Q514 582 522 593T531 617Q531 632 521 639T483 648L448 651V676H737V651Q700 646 671 638T609 607T530 541T415 424L720 46Q729 35 739 31T769 25V0H435ZM280
-356Q337 -317 363 -285T389 -223Q389 -214 384 -208T370 -202Q365 -202 360 -203T346 -204Q314 -204 294 -184T273 -128Q273 -89 296 -66T357 -43Q405 -43 431 -74T457 -159Q457 -224 418 -278T291 -378L280 -356Z" />
<glyph unicode="&#x137;" glyph-name="uni0137" horiz-adv-x="556" d="M309 0V24Q351 25 351 43Q351 49 346 59T327 88L232 222L209 198V84Q209 66 210 56T217 39T233 30T261 24V0H22V24Q70 28 70 84V594Q70 623 59 636T22 652V676H209V245L337 373Q345 381 351
392T358 411Q358 421 351 426T323 434L299 438V461H513V438Q489 435 471 429T433 409T387 371T324 307L518 39Q525 30 530 27T543 24V0H309ZM191 -356Q248 -317 274 -285T300 -223Q300 -214 295 -208T281 -202Q276 -202 271 -203T257 -204Q225 -204 205 -184T184
-128Q184 -89 207 -66T268 -43Q316 -43 342 -74T368 -159Q368 -224 329 -278T202 -378L191 -356Z" />
<glyph unicode="&#x138;" glyph-name="uni0138" horiz-adv-x="600" d="M459 0Q439 2 415 24T370 76Q361 89 356 100T344 122T331 146T311 179Q294 205 275 216T240 233Q236 232 231 232T213 232V87Q213 71 214 60T219 41T234 29T264 24V0H19V24Q44 30 57 41T70
86V391Q70 423 57 433T19 446V470H264V446Q249 444 239 441T224 432T216 416T213 390V282Q226 282 236 283T254 286Q292 297 312 302T346 317Q367 332 382 352T410 405Q425 443 446 456T509 470Q541 470 565 455T589 414Q589 394 575 383T540 372Q523 372 514 378T498
391T487 405T474 412Q461 412 455 406T444 384Q431 347 411 319T367 272Q375 269 386 262T409 238Q417 227 428 209T452 170T476 130T496 100Q508 82 520 69T547 47T581 33T627 24V0H459Z" />
<glyph unicode="&#x139;" glyph-name="uni0139" horiz-adv-x="667" d="M295 895Q320 923 348 923Q370 923 383 911T396 879Q396 862 388 852T356 826L214 738H158L295 895ZM596 0H19V25Q46 28 63 32T89 45T102 65T105 98V576Q105 597 101 611T88 633T61 645T19
651V676H367V652Q334 650 315 646T285 632T271 603T267 553V89Q267 57 285 44T352 31Q414 31 452 44T522 86Q548 109 568 144T609 227H638L596 0Z" />
<glyph unicode="&#x13a;" glyph-name="uni013A" horiz-adv-x="278" d="M159 895Q184 923 212 923Q234 923 247 911T260 879Q260 862 252 852T220 826L78 738H22L159 895ZM16 0V24Q42 26 54 40T67 87V587Q67 615 54 632T15 652V676H206V87Q206 52 218 39T256 24V0H16Z" />
<glyph unicode="&#x13b;" glyph-name="uni013B" horiz-adv-x="667" d="M596 0H19V25Q46 28 63 32T89 45T102 65T105 98V576Q105 597 101 611T88 633T61 645T19 651V676H367V652Q334 650 315 646T285 632T271 603T267 553V89Q267 57 285 44T352 31Q414 31 452 44T522
86Q548 109 568 144T609 227H638L596 0ZM245 -356Q302 -317 328 -285T354 -223Q354 -214 349 -208T335 -202Q330 -202 325 -203T311 -204Q279 -204 259 -184T238 -128Q238 -89 261 -66T322 -43Q370 -43 396 -74T422 -159Q422 -224 383 -278T256 -378L245 -356Z"
/>
<glyph unicode="&#x13c;" glyph-name="uni013C" horiz-adv-x="278" d="M16 0V24Q42 26 54 40T67 87V587Q67 615 54 632T15 652V676H206V87Q206 52 218 39T256 24V0H16ZM55 -356Q112 -317 138 -285T164 -223Q164 -214 159 -208T145 -202Q140 -202 135 -203T121
-204Q89 -204 69 -184T48 -128Q48 -89 71 -66T132 -43Q180 -43 206 -74T232 -159Q232 -224 193 -278T66 -378L55 -356Z" />
<glyph unicode="&#x13d;" glyph-name="uni013D" horiz-adv-x="667" d="M436 378Q493 417 519 449T545 511Q545 520 540 526T526 532Q521 532 516 531T502 530Q470 530 450 550T429 606Q429 645 452 668T513 691Q561 691 587 660T613 575Q613 510 574 456T447 356L436
378ZM596 0H19V25Q46 28 63 32T89 45T102 65T105 98V576Q105 597 101 611T88 633T61 645T19 651V676H367V652Q334 650 315 646T285 632T271 603T267 553V89Q267 57 285 44T352 31Q414 31 452 44T522 86Q548 109 568 144T609 227H638L596 0Z" />
<glyph unicode="&#x13e;" glyph-name="uni013E" horiz-adv-x="457" d="M265 396Q322 435 348 467T374 529Q374 538 369 544T355 550Q350 550 345 549T331 548Q299 548 279 568T258 624Q258 663 281 686T342 709Q390 709 416 678T442 593Q442 528 403 474T276 374L265
396ZM16 0V24Q42 26 54 40T67 87V587Q67 615 54 632T15 652V676H206V87Q206 52 218 39T256 24V0H16Z" />
<glyph unicode="&#x13f;" glyph-name="uni013F" horiz-adv-x="667" d="M535 323Q535 288 511 264T450 239Q414 239 390 263T366 323Q366 358 391 383T451 408Q486 408 510 383T535 323ZM596 0H19V25Q46 28 63 32T89 45T102 65T105 98V576Q105 597 101 611T88 633T61
645T19 651V676H367V652Q334 650 315 646T285 632T271 603T267 553V89Q267 57 285 44T352 31Q414 31 452 44T522 86Q548 109 568 144T609 227H638L596 0Z" />
<glyph unicode="&#x140;" glyph-name="uni0140" horiz-adv-x="414" d="M441 340Q441 305 417 281T356 256Q320 256 296 280T272 340Q272 375 297 400T357 425Q392 425 416 400T441 340ZM16 0V24Q42 26 54 40T67 87V587Q67 615 54 632T15 652V676H206V87Q206 52
218 39T256 24V0H16Z" />
<glyph unicode="&#x141;" glyph-name="Lslash" horiz-adv-x="667" d="M596 0H19V25Q47 27 64 31T90 44T102 65T105 100V287L24 238V299L105 348V573Q105 596 101 610T87 633T60 645T18 651V676H367V651Q337 649 318 645T287 629T272 600T267 552V443L390 519V458L267
382V90Q267 58 282 45T346 31Q410 31 452 43T523 83Q549 107 568 143T609 228H638L596 0Z" />
<glyph unicode="&#x142;" glyph-name="lslash" horiz-adv-x="278" d="M206 401V89Q206 55 218 40T256 24V0H16V24Q67 28 67 89V312L-22 240V290L67 362V591Q67 621 54 635T15 652V676H206V451L303 531V481L206 401Z" />
<glyph unicode="&#x143;" glyph-name="uni0143" horiz-adv-x="722" d="M431 895Q456 923 484 923Q506 923 519 911T532 879Q532 862 524 852T492 826L350 738H294L431 895ZM701 651Q677 647 662 643T638 630T626 607T623 568V-18H595L148 527V131Q148 102 152
83T166 53T195 35T242 25V0H16V25Q43 28 60 33T87 47T100 71T104 109V579Q72 622 53 636T19 651V676H230L579 246V545Q579 575 575 594T561 625T533 642T487 651V676H701V651Z" />
<glyph unicode="&#x144;" glyph-name="uni0144" horiz-adv-x="556" d="M349 685Q374 713 402 713Q424 713 437 701T450 669Q450 652 442 642T410 616L268 528H212L349 685ZM305 0V24Q331 27 341 40T351 84V321Q351 406 300 406Q264 406 230 372Q222 364 218 358T213
348V84Q213 56 223 42T261 24V0H21V24Q38 27 48 31T64 43T72 60T74 87V376Q74 408 64 420T21 437V461H212V386H213Q239 431 274 452T355 473Q417 473 453 435T490 331V84Q490 50 500 38T539 24V0H305Z" />
<glyph unicode="&#x145;" glyph-name="uni0145" horiz-adv-x="722" d="M701 651Q677 647 662 643T638 630T626 607T623 568V-18H595L148 527V131Q148 102 152 83T166 53T195 35T242 25V0H16V25Q43 28 60 33T87 47T100 71T104 109V579Q72 622 53 636T19 651V676H230L579
246V545Q579 575 575 594T561 625T533 642T487 651V676H701V651ZM275 -356Q332 -317 358 -285T384 -223Q384 -214 379 -208T365 -202Q360 -202 355 -203T341 -204Q309 -204 289 -184T268 -128Q268 -89 291 -66T352 -43Q400 -43 426 -74T452 -159Q452 -224 413 -278T286
-378L275 -356Z" />
<glyph unicode="&#x146;" glyph-name="uni0146" horiz-adv-x="556" d="M305 0V24Q331 27 341 40T351 84V321Q351 406 300 406Q264 406 230 372Q222 364 218 358T213 348V84Q213 56 223 42T261 24V0H21V24Q38 27 48 31T64 43T72 60T74 87V376Q74 408 64 420T21
437V461H212V386H213Q239 431 274 452T355 473Q417 473 453 435T490 331V84Q490 50 500 38T539 24V0H305ZM195 -356Q252 -317 278 -285T304 -223Q304 -214 299 -208T285 -202Q280 -202 275 -203T261 -204Q229 -204 209 -184T188 -128Q188 -89 211 -66T272 -43Q320
-43 346 -74T372 -159Q372 -224 333 -278T206 -378L195 -356Z" />
<glyph unicode="&#x147;" glyph-name="uni0147" horiz-adv-x="722" d="M412 738H320L198 914H255L366 815L477 914H535L412 738ZM701 651Q677 647 662 643T638 630T626 607T623 568V-18H595L148 527V131Q148 102 152 83T166 53T195 35T242 25V0H16V25Q43 28 60
33T87 47T100 71T104 109V579Q72 622 53 636T19 651V676H230L579 246V545Q579 575 575 594T561 625T533 642T487 651V676H701V651Z" />
<glyph unicode="&#x148;" glyph-name="uni0148" horiz-adv-x="556" d="M327 528H235L113 704H170L281 605L392 704H450L327 528ZM305 0V24Q331 27 341 40T351 84V321Q351 406 300 406Q264 406 230 372Q222 364 218 358T213 348V84Q213 56 223 42T261 24V0H21V24Q38
27 48 31T64 43T72 60T74 87V376Q74 408 64 420T21 437V461H212V386H213Q239 431 274 452T355 473Q417 473 453 435T490 331V84Q490 50 500 38T539 24V0H305Z" />
<glyph unicode="&#x149;" glyph-name="uni0149" horiz-adv-x="705" d="M459 0V24Q485 27 495 40T505 84V321Q505 406 454 406Q418 406 384 372Q376 364 372 358T367 348V84Q367 56 377 42T415 24V0H175V24Q192 27 202 31T218 43T226 60T228 87V376Q228 408 218
420T175 437V461H366V386H367Q393 431 428 452T509 473Q571 473 607 435T644 331V84Q644 50 654 38T693 24V0H459ZM20 396Q77 435 103 467T129 529Q129 538 124 544T110 550Q105 550 100 549T86 548Q54 548 34 568T13 624Q13 663 36 686T97 709Q145 709 171 678T197
593Q197 528 158 474T31 374L20 396Z" />
<glyph unicode="&#x14a;" glyph-name="uni014A" horiz-adv-x="732" d="M336 676Q427 676 497 651T615 578T687 466T712 319Q712 240 693 165T637 32T549 -61T435 -96Q409 -96 385 -86T342 -59T312 -21T301 25Q301 39 306 55T321 85T345 108T376 117Q405 117 424
95T444 42Q444 26 440 18T431 3T421 -8T417 -24Q417 -39 427 -51T459 -63Q481 -63 497 -34T522 40T536 142T541 255Q541 299 537 342T525 422T507 490T485 541Q456 591 418 616T322 642Q293 642 276 631T259 598V0H14V25Q58 27 77 44T97 98V584Q97 619 80 632T14
651V676H336Z" />
<glyph unicode="&#x14b;" glyph-name="uni014B" horiz-adv-x="556" d="M490 0Q490 -45 484 -75T463 -129Q442 -166 404 -185T313 -205Q251 -205 212 -178T173 -105Q173 -78 190 -61T235 -44Q260 -44 277 -59T294 -98Q294 -114 280 -135Q275 -143 273 -146T271
-157Q271 -165 280 -169T303 -174Q329 -174 340 -156T351 -98V321Q351 406 300 406Q264 406 230 372Q222 364 218 358T213 348V84Q213 56 223 42T261 24V0H21V24Q38 27 48 31T64 43T72 60T74 87V376Q74 408 64 420T21 437V461H212V386H213Q239 431 274 452T355
473Q417 473 453 435T490 331V0Z" />
<glyph unicode="&#x14c;" glyph-name="uni014C" horiz-adv-x="778" d="M220 738V810H550V738H220ZM743 335Q743 257 717 192T643 80T531 7T388 -19Q310 -19 246 7T134 80T61 191T35 334Q35 414 62 479T136 592T250 665T394 691Q469 691 533 665T643 591T716 478T743
335ZM566 328Q566 489 520 573T385 658Q302 658 257 573T212 330Q212 171 258 93T390 14Q477 14 521 93T566 328Z" />
<glyph unicode="&#x14d;" glyph-name="uni014D" horiz-adv-x="500" d="M85 528V600H415V528H85ZM476 229Q476 176 459 132T412 55T340 4T250 -14Q203 -14 162 4T91 54T43 130T25 228Q25 283 42 328T90 405T162 455T254 473Q301 473 341 455T412 405T459 327T476
229ZM329 218Q329 282 325 325T312 394T288 431T251 442Q228 442 213 431T189 394T176 325T172 218Q172 109 189 63T251 17Q273 17 288 27T312 61T325 123T329 218Z" />
<glyph unicode="&#x14e;" glyph-name="uni014E" horiz-adv-x="778" d="M542 901Q539 866 529 836T501 784T455 750T390 738Q315 738 278 783T239 901H283Q292 855 318 835T385 814Q432 814 458 833T498 901H542ZM743 335Q743 257 717 192T643 80T531 7T388 -19Q310
-19 246 7T134 80T61 191T35 334Q35 414 62 479T136 592T250 665T394 691Q469 691 533 665T643 591T716 478T743 335ZM566 328Q566 489 520 573T385 658Q302 658 257 573T212 330Q212 171 258 93T390 14Q477 14 521 93T566 328Z" />
<glyph unicode="&#x14f;" glyph-name="uni014F" horiz-adv-x="500" d="M402 691Q399 656 389 626T361 574T315 540T250 528Q175 528 138 573T99 691H143Q152 645 178 625T245 604Q292 604 318 623T358 691H402ZM476 229Q476 176 459 132T412 55T340 4T250 -14Q203
-14 162 4T91 54T43 130T25 228Q25 283 42 328T90 405T162 455T254 473Q301 473 341 455T412 405T459 327T476 229ZM329 218Q329 282 325 325T312 394T288 431T251 442Q228 442 213 431T189 394T176 325T172 218Q172 109 189 63T251 17Q273 17 288 27T312 61T325
123T329 218Z" />
<glyph unicode="&#x150;" glyph-name="uni0150" horiz-adv-x="778" d="M506 895Q531 923 560 923Q582 923 595 911T608 879Q608 862 600 851T568 824L427 738H370L506 895ZM306 895Q331 923 360 923Q382 923 395 911T408 879Q408 862 400 851T368 824L227 738H170L306
895ZM743 335Q743 257 717 192T643 80T531 7T388 -19Q310 -19 246 7T134 80T61 191T35 334Q35 414 62 479T136 592T250 665T394 691Q469 691 533 665T643 591T716 478T743 335ZM566 328Q566 489 520 573T385 658Q302 658 257 573T212 330Q212 171 258 93T390 14Q477
14 521 93T566 328Z" />
<glyph unicode="&#x151;" glyph-name="uni0151" horiz-adv-x="500" d="M374 685Q399 713 428 713Q450 713 463 701T476 669Q476 652 468 641T436 614L295 528H238L374 685ZM174 685Q199 713 228 713Q250 713 263 701T276 669Q276 652 268 641T236 614L95 528H38L174
685ZM476 229Q476 176 459 132T412 55T340 4T250 -14Q203 -14 162 4T91 54T43 130T25 228Q25 283 42 328T90 405T162 455T254 473Q301 473 341 455T412 405T459 327T476 229ZM329 218Q329 282 325 325T312 394T288 431T251 442Q228 442 213 431T189 394T176 325T172
218Q172 109 189 63T251 17Q273 17 288 27T312 61T325 123T329 218Z" />
<glyph unicode="&#x152;" glyph-name="OE" horiz-adv-x="1000" d="M939 0H509Q438 0 402 -3Q391 -4 381 -4T359 -5Q219 -5 133 67Q79 112 51 181T22 334Q22 427 57 502T159 623Q200 652 253 668T361 684Q372 684 412 680T523 676H940V475H914Q909 505 903 527T888
565T869 592T841 613Q818 627 776 634T680 641Q650 641 639 636T627 615V366Q667 367 692 372T733 393T758 437T778 514H801V176H778Q772 221 763 250T737 297T694 323T627 333V83Q627 54 641 45T699 35Q756 35 795 47T867 85Q880 96 891 107T912 133T932 166T954
211H981L939 0ZM472 503Q472 530 471 549T468 581T463 604T454 622Q433 652 377 652Q192 652 192 320Q192 251 203 190T232 96Q252 60 283 44T366 27Q399 27 419 34T452 59Q458 67 462 78T468 106T471 149T472 212V503Z" />
<glyph unicode="&#x153;" glyph-name="oe" horiz-adv-x="722" d="M696 109Q672 74 650 51T604 13T555 -8T498 -14Q459 -14 433 -3T383 34Q353 8 321 -3T245 -14Q195 -14 154 3T84 53T39 130T22 229Q22 282 38 327T85 404T156 455T248 473Q289 473 318 462T373
424Q409 452 436 462T502 473Q616 473 664 381Q678 354 684 325T693 245H444V225Q444 145 472 102T557 58Q575 58 589 61T616 72T644 92T676 125L696 109ZM569 338Q567 395 553 419T509 444Q444 444 444 336V282H571L569 338ZM308 311Q308 383 293 413T239 444Q218
444 205 435T183 403T171 343T167 249Q167 183 170 139T183 67T206 28T242 16Q277 16 292 48T308 149V311Z" />
<glyph unicode="&#x154;" glyph-name="uni0154" horiz-adv-x="722" d="M388 895Q413 923 441 923Q463 923 476 911T489 879Q489 862 481 852T449 826L307 738H251L388 895ZM511 0L304 313H276V117Q276 90 279 74T291 48T317 34T364 25V0H26V25Q55 28 72 32T99
46T111 73T114 120V551Q114 580 111 598T98 628T71 644T26 651V676H334Q481 676 555 634T630 504Q630 470 619 438T585 386Q564 367 540 354T473 329L672 47Q679 37 690 31T716 25V0H511ZM276 345Q325 345 360 351T417 374T449 419T459 494Q459 574 429 608T329
642Q300 642 288 632T276 597V345Z" />
<glyph unicode="&#x155;" glyph-name="uni0155" horiz-adv-x="444" d="M220 685Q245 713 273 713Q295 713 308 701T321 669Q321 652 313 642T281 616L139 528H83L220 685ZM218 379Q253 430 284 451T353 473Q388 473 411 451T434 394Q434 364 417 345T371 326Q351
326 338 334T311 364Q303 378 296 382T283 387Q257 387 240 358T222 283V106Q222 82 224 67T235 42T257 29T294 24V0H29V24Q62 30 72 41T83 84V373Q83 391 81 402T72 420T55 431T28 437V461H218V379Z" />
<glyph unicode="&#x156;" glyph-name="uni0156" horiz-adv-x="722" d="M511 0L304 313H276V117Q276 90 279 74T291 48T317 34T364 25V0H26V25Q55 28 72 32T99 46T111 73T114 120V551Q114 580 111 598T98 628T71 644T26 651V676H334Q481 676 555 634T630 504Q630
470 619 438T585 386Q564 367 540 354T473 329L672 47Q679 37 690 31T716 25V0H511ZM276 345Q325 345 360 351T417 374T449 419T459 494Q459 574 429 608T329 642Q300 642 288 632T276 597V345ZM295 -356Q352 -317 378 -285T404 -223Q404 -214 399 -208T385 -202Q380
-202 375 -203T361 -204Q329 -204 309 -184T288 -128Q288 -89 311 -66T372 -43Q420 -43 446 -74T472 -159Q472 -224 433 -278T306 -378L295 -356Z" />
<glyph unicode="&#x157;" glyph-name="uni0157" horiz-adv-x="444" d="M218 379Q253 430 284 451T353 473Q388 473 411 451T434 394Q434 364 417 345T371 326Q351 326 338 334T311 364Q303 378 296 382T283 387Q257 387 240 358T222 283V106Q222 82 224 67T235
42T257 29T294 24V0H29V24Q62 30 72 41T83 84V373Q83 391 81 402T72 420T55 431T28 437V461H218V379ZM117 -356Q174 -317 200 -285T226 -223Q226 -214 221 -208T207 -202Q202 -202 197 -203T183 -204Q151 -204 131 -184T110 -128Q110 -89 133 -66T194 -43Q242 -43
268 -74T294 -159Q294 -224 255 -278T128 -378L117 -356Z" />
<glyph unicode="&#x158;" glyph-name="uni0158" horiz-adv-x="722" d="M370 738H278L156 914H213L324 815L435 914H493L370 738ZM511 0L304 313H276V117Q276 90 279 74T291 48T317 34T364 25V0H26V25Q55 28 72 32T99 46T111 73T114 120V551Q114 580 111 598T98
628T71 644T26 651V676H334Q481 676 555 634T630 504Q630 470 619 438T585 386Q564 367 540 354T473 329L672 47Q679 37 690 31T716 25V0H511ZM276 345Q325 345 360 351T417 374T449 419T459 494Q459 574 429 608T329 642Q300 642 288 632T276 597V345Z" />
<glyph unicode="&#x159;" glyph-name="uni0159" horiz-adv-x="444" d="M265 528H173L51 704H108L219 605L330 704H388L265 528ZM218 379Q253 430 284 451T353 473Q388 473 411 451T434 394Q434 364 417 345T371 326Q351 326 338 334T311 364Q303 378 296 382T283
387Q257 387 240 358T222 283V106Q222 82 224 67T235 42T257 29T294 24V0H29V24Q62 30 72 41T83 84V373Q83 391 81 402T72 420T55 431T28 437V461H218V379Z" />
<glyph unicode="&#x15a;" glyph-name="uni015A" horiz-adv-x="556" d="M328 895Q353 923 381 923Q403 923 416 911T429 879Q429 862 421 852T389 826L247 738H191L328 895ZM456 474Q448 498 441 516T426 550T409 578T386 604Q332 660 263 660Q211 660 182 632T153
561Q153 543 158 529T174 502T206 476T256 447Q293 427 329 409T404 370Q452 344 482 298T513 194Q513 147 495 108T445 40T366 -3T265 -19Q232 -19 202 -14T135 5Q104 15 94 15Q82 15 76 8T64 -19H35V229H64Q70 202 76 182T89 145T104 114T124 86Q181 14 268 14Q326
14 360 44T394 127Q394 154 379 175T337 215Q311 233 279 248T215 280Q173 300 141 321T88 367T55 422T44 490Q44 586 102 638T263 691Q292 691 318 686T380 668Q396 663 405 661T422 659Q436 659 442 665T454 692H484V474H456Z" />
<glyph unicode="&#x15b;" glyph-name="uni015B" horiz-adv-x="389" d="M263 685Q288 713 316 713Q338 713 351 701T364 669Q364 652 356 642T324 616L182 528H126L263 685ZM315 326Q304 358 294 375T268 408Q234 440 193 440Q164 440 146 424T127 382Q127 356
149 336T223 294Q260 278 286 262T329 227T353 187T361 138Q361 104 350 76T318 28T270 -3T207 -14Q196 -14 182 -12T153 -7T124 0T99 9Q84 15 76 15Q69 15 64 9T50 -13H25V152H53Q85 20 190 20Q224 20 244 38T265 85Q265 109 243 129T169 172Q93 204 60 240T27
327Q27 358 38 385T71 431T121 462T184 473Q201 473 219 470T262 458Q284 451 293 451Q310 451 318 471H340V326H315Z" />
<glyph unicode="&#x15c;" glyph-name="uni015C" horiz-adv-x="556" d="M392 738L280 836L168 738H112L234 914H326L449 738H392ZM456 474Q448 498 441 516T426 550T409 578T386 604Q332 660 263 660Q211 660 182 632T153 561Q153 543 158 529T174 502T206 476T256
447Q293 427 329 409T404 370Q452 344 482 298T513 194Q513 147 495 108T445 40T366 -3T265 -19Q232 -19 202 -14T135 5Q104 15 94 15Q82 15 76 8T64 -19H35V229H64Q70 202 76 182T89 145T104 114T124 86Q181 14 268 14Q326 14 360 44T394 127Q394 154 379 175T337
215Q311 233 279 248T215 280Q173 300 141 321T88 367T55 422T44 490Q44 586 102 638T263 691Q292 691 318 686T380 668Q396 663 405 661T422 659Q436 659 442 665T454 692H484V474H456Z" />
<glyph unicode="&#x15d;" glyph-name="uni015D" horiz-adv-x="389" d="M302 528L190 626L78 528H22L144 704H236L359 528H302ZM315 326Q304 358 294 375T268 408Q234 440 193 440Q164 440 146 424T127 382Q127 356 149 336T223 294Q260 278 286 262T329 227T353
187T361 138Q361 104 350 76T318 28T270 -3T207 -14Q196 -14 182 -12T153 -7T124 0T99 9Q84 15 76 15Q69 15 64 9T50 -13H25V152H53Q85 20 190 20Q224 20 244 38T265 85Q265 109 243 129T169 172Q93 204 60 240T27 327Q27 358 38 385T71 431T121 462T184 473Q201
473 219 470T262 458Q284 451 293 451Q310 451 318 471H340V326H315Z" />
<glyph unicode="&#x15e;" glyph-name="uni015E" horiz-adv-x="556" d="M239 -18Q213 -16 189 -11T135 5Q104 15 94 15Q82 15 76 8T64 -19H35V229H64Q70 202 76 182T89 145T104 114T124 86Q181 14 268 14Q326 14 360 44T394 127Q394 154 379 175T337 215Q311 233
279 248T215 280Q173 300 141 321T88 367T55 422T44 490Q44 586 102 638T263 691Q292 691 318 686T380 668Q396 663 405 661T422 659Q436 659 442 665T454 692H484V474H456Q448 498 441 516T426 550T409 578T386 604Q332 660 263 660Q211 660 182 632T153 561Q153
543 158 529T174 502T206 476T256 447Q293 427 329 409T404 370Q452 344 482 298T513 194Q513 149 497 111T450 45T376 1T281 -18L261 -64Q270 -61 277 -60T293 -59Q335 -59 358 -77T382 -129Q382 -171 348 -194T253 -218Q227 -218 206 -214T156 -200L172 -163L178
-165Q196 -171 207 -174T231 -177Q289 -177 289 -136Q289 -100 243 -100Q230 -100 215 -104L204 -96L239 -18Z" />
<glyph unicode="&#x15f;" glyph-name="uni015F" horiz-adv-x="389" d="M315 326Q304 358 294 375T268 408Q234 440 193 440Q164 440 146 424T127 382Q127 356 149 336T223 294Q260 278 286 262T329 227T353 187T361 138Q361 104 350 76T318 28T270 -3T207 -14Q196
-14 182 -12T153 -7T124 0T99 9Q84 15 76 15Q69 15 64 9T50 -13H25V152H53Q85 20 190 20Q224 20 244 38T265 85Q265 109 243 129T169 172Q93 204 60 240T27 327Q27 358 38 385T71 431T121 462T184 473Q201 473 219 470T262 458Q284 451 293 451Q310 451 318 471H340V326H315ZM206
-64Q215 -61 222 -60T238 -59Q280 -59 303 -77T327 -129Q327 -171 293 -194T198 -218Q172 -218 151 -214T101 -200L117 -163L123 -165Q141 -171 152 -174T176 -177Q234 -177 234 -136Q234 -100 188 -100Q175 -100 160 -104L149 -96L192 0H234L206 -64Z" />
<glyph unicode="&#x160;" glyph-name="Scaron" horiz-adv-x="556" d="M326 738H234L112 914H169L280 815L391 914H449L326 738ZM456 474Q448 498 441 516T426 550T409 578T386 604Q332 660 263 660Q211 660 182 632T153 561Q153 543 158 529T174 502T206 476T256
447Q293 427 329 409T404 370Q452 344 482 298T513 194Q513 147 495 108T445 40T366 -3T265 -19Q232 -19 202 -14T135 5Q104 15 94 15Q82 15 76 8T64 -19H35V229H64Q70 202 76 182T89 145T104 114T124 86Q181 14 268 14Q326 14 360 44T394 127Q394 154 379 175T337
215Q311 233 279 248T215 280Q173 300 141 321T88 367T55 422T44 490Q44 586 102 638T263 691Q292 691 318 686T380 668Q396 663 405 661T422 659Q436 659 442 665T454 692H484V474H456Z" />
<glyph unicode="&#x161;" glyph-name="scaron" horiz-adv-x="389" d="M236 528H144L22 704H79L190 605L301 704H359L236 528ZM315 326Q304 358 294 375T268 408Q234 440 193 440Q164 440 146 424T127 382Q127 356 149 336T223 294Q260 278 286 262T329 227T353
187T361 138Q361 104 350 76T318 28T270 -3T207 -14Q196 -14 182 -12T153 -7T124 0T99 9Q84 15 76 15Q69 15 64 9T50 -13H25V152H53Q85 20 190 20Q224 20 244 38T265 85Q265 109 243 129T169 172Q93 204 60 240T27 327Q27 358 38 385T71 431T121 462T184 473Q201
473 219 470T262 458Q284 451 293 451Q310 451 318 471H340V326H315Z" />
<glyph unicode="&#x162;" glyph-name="uni0162" horiz-adv-x="667" d="M156 0V25Q188 28 207 32T237 46T250 72T253 117V644Q206 642 173 633T116 603T80 551T60 475H31L34 676H634L636 475H607Q601 520 588 551T551 602T495 632T415 644V117Q415 88 418 71T431
45T461 31T513 25V0H359L331 -64Q340 -61 347 -60T363 -59Q405 -59 428 -77T452 -129Q452 -171 418 -194T323 -218Q297 -218 276 -214T226 -200L242 -163L248 -165Q266 -171 277 -174T301 -177Q359 -177 359 -136Q359 -100 313 -100Q300 -100 285 -104L274 -96L317
0H156Z" />
<glyph unicode="&#x163;" glyph-name="uni0163" horiz-adv-x="333" d="M151 -9Q114 -1 93 26T72 95V417H19V444Q46 462 67 481T108 523T145 572T186 630H211V461H306V417H211V119Q211 89 220 74T250 59Q266 59 279 71T307 112L332 101Q303 41 271 16T192 -12L169
-64Q178 -61 185 -60T201 -59Q243 -59 266 -77T290 -129Q290 -171 256 -194T161 -218Q135 -218 114 -214T64 -200L80 -163L86 -165Q104 -171 115 -174T139 -177Q197 -177 197 -136Q197 -100 151 -100Q138 -100 123 -104L112 -96L151 -9Z" />
<glyph unicode="&#x164;" glyph-name="uni0164" horiz-adv-x="667" d="M379 738H287L165 914H222L333 815L444 914H502L379 738ZM607 475Q601 520 588 551T551 602T495 632T415 644V117Q415 88 418 71T431 45T461 31T513 25V0H156V25Q188 28 207 32T237 46T250
72T253 117V644Q206 642 173 633T116 603T80 551T60 475H31L34 676H634L636 475H607Z" />
<glyph unicode="&#x165;" glyph-name="uni0165" horiz-adv-x="415" d="M268 396Q325 435 351 467T377 529Q377 538 372 544T358 550Q353 550 348 549T334 548Q302 548 282 568T261 624Q261 663 284 686T345 709Q393 709 419 678T445 593Q445 528 406 474T279 374L268
396ZM332 101Q317 70 301 49T268 14T230 -6T184 -12Q132 -12 102 16T72 95V417H19V444Q46 462 67 481T108 523T145 572T186 630H211V461H271V417H211V119Q211 89 220 74T250 59Q266 59 279 71T307 112L332 101Z" />
<glyph unicode="&#x166;" glyph-name="uni0166" horiz-adv-x="667" d="M607 475Q601 520 588 551T551 602T495 632T415 644V356H525V322H415V117Q415 88 418 71T431 45T461 31T513 25V0H156V25Q188 28 207 32T237 46T250 72T253 117V322H139V356H253V644Q206 642
173 633T116 603T80 551T60 475H31L34 676H634L636 475H607Z" />
<glyph unicode="&#x167;" glyph-name="uni0167" horiz-adv-x="333" d="M332 101Q317 70 301 49T268 14T230 -6T184 -12Q132 -12 102 16T72 95V229H17V285H72V417H19V444Q46 462 67 481T108 523T145 572T186 630H211V461H306V417H211V285H303V229H211V119Q211 89
220 74T250 59Q266 59 279 71T307 112L332 101Z" />
<glyph unicode="&#x168;" glyph-name="uni0168" horiz-adv-x="722" d="M573 886Q556 820 528 790T457 759Q441 759 424 763T392 773L363 786Q346 793 336 797T320 804T309 807T299 808Q279 808 266 795T250 761H208Q222 826 249 856T324 886Q355 886 397 867L437
849Q456 841 462 839T476 837Q496 837 508 848T530 886H573ZM701 651Q677 647 662 642T638 627T626 603T623 566V252Q623 177 604 121T547 36Q515 10 466 -4T363 -19Q307 -19 260 -6T178 35Q135 69 117 113T98 231V555Q98 585 95 603T83 630T58 644T16 651V676H352V651Q323
649 305 645T276 629T261 600T257 550V232Q257 127 293 79T403 30Q579 30 579 252V552Q579 579 574 597T558 626T529 643T482 651V676H701V651Z" />
<glyph unicode="&#x169;" glyph-name="uni0169" horiz-adv-x="556" d="M448 674Q431 608 403 578T332 547Q316 547 299 551T267 561L238 574Q221 581 211 585T195 592T184 595T174 596Q154 596 141 583T125 549H83Q97 614 124 644T199 674Q230 674 272 655L312
637Q331 629 337 627T351 625Q371 625 383 636T405 674H448ZM475 13Q451 10 433 8T401 3T373 -3T343 -13V52Q304 15 272 1T198 -14Q135 -14 100 23T65 131V372Q65 389 63 400T56 419T41 430T16 437V461H204V127Q204 85 218 68T260 51Q282 51 300 61T342 98V374Q342
408 331 421T281 437V461H481V105Q481 72 493 59T538 43V20L475 13Z" />
<glyph unicode="&#x16a;" glyph-name="uni016A" horiz-adv-x="722" d="M185 738V810H515V738H185ZM701 651Q677 647 662 642T638 627T626 603T623 566V252Q623 177 604 121T547 36Q515 10 466 -4T363 -19Q307 -19 260 -6T178 35Q135 69 117 113T98 231V555Q98
585 95 603T83 630T58 644T16 651V676H352V651Q323 649 305 645T276 629T261 600T257 550V232Q257 127 293 79T403 30Q579 30 579 252V552Q579 579 574 597T558 626T529 643T482 651V676H701V651Z" />
<glyph unicode="&#x16b;" glyph-name="uni016B" horiz-adv-x="556" d="M95 528V600H425V528H95ZM475 13Q451 10 433 8T401 3T373 -3T343 -13V52Q304 15 272 1T198 -14Q135 -14 100 23T65 131V372Q65 389 63 400T56 419T41 430T16 437V461H204V127Q204 85 218 68T260
51Q282 51 300 61T342 98V374Q342 408 331 421T281 437V461H481V105Q481 72 493 59T538 43V20L475 13Z" />
<glyph unicode="&#x16c;" glyph-name="uni016C" horiz-adv-x="722" d="M522 901Q519 866 509 836T481 784T435 750T370 738Q295 738 258 783T219 901H263Q272 855 298 835T365 814Q412 814 438 833T478 901H522ZM701 651Q677 647 662 642T638 627T626 603T623
566V252Q623 177 604 121T547 36Q515 10 466 -4T363 -19Q307 -19 260 -6T178 35Q135 69 117 113T98 231V555Q98 585 95 603T83 630T58 644T16 651V676H352V651Q323 649 305 645T276 629T261 600T257 550V232Q257 127 293 79T403 30Q579 30 579 252V552Q579 579
574 597T558 626T529 643T482 651V676H701V651Z" />
<glyph unicode="&#x16d;" glyph-name="uni016D" horiz-adv-x="556" d="M402 691Q399 656 389 626T361 574T315 540T250 528Q175 528 138 573T99 691H143Q152 645 178 625T245 604Q292 604 318 623T358 691H402ZM475 13Q451 10 433 8T401 3T373 -3T343 -13V52Q304
15 272 1T198 -14Q135 -14 100 23T65 131V372Q65 389 63 400T56 419T41 430T16 437V461H204V127Q204 85 218 68T260 51Q282 51 300 61T342 98V374Q342 408 331 421T281 437V461H481V105Q481 72 493 59T538 43V20L475 13Z" />
</font>
</defs>
</svg>
