<?xml version="1.0" standalone="no"?> <!DOCTYPE svg PUBLIC "-//W3C//DTD SVG 1.0//EN" "http://www.w3.org/TR/2001/REC-SVG-20010904/DTD/svg10.dtd" > <svg xmlns="http://www.w3.org/2000/svg" width="100%" height="100%">
<defs >
<font horiz-adv-x="515" ><font-face
    font-family="STIXGeneralBoldItalic"
    units-per-em="1000"
    panose-1="0 0 0 0 0 0 0 0 0 0"
    ascent="1042"
    descent="-455"
    alphabetic="0" />
<missing-glyph horiz-adv-x="250" />
<glyph unicode=" " glyph-name="space" horiz-adv-x="250" />
<glyph unicode="!" glyph-name="exclam" horiz-adv-x="389" d="M167 213Q211 446 219 566Q220 588 223 609T235 647T259 674T298 684Q336 684 353 664T370 611Q370 601 369 593T364 575T355 553T340 522Q297 437 263 362T196 204L167 213ZM213 58Q213 28 192 8T139
-13Q107 -13 87 7T67 58Q67 90 88 111T140 133Q154 133 167 127T191 111T207 87T213 58Z" />
<glyph unicode="&quot;" glyph-name="quotedbl" horiz-adv-x="555" d="M411 612Q412 626 419 639T437 663T462 679T491 685Q510 685 523 671T536 636Q536 625 534 617T523 589L438 398H396L411 612ZM151 612Q152 626 159 639T177 663T202 679T231 685Q250 685
263 671T276 636Q276 627 274 618T263 589L178 398H136L151 612Z" />
<glyph unicode="#" glyph-name="numbersign" horiz-adv-x="500" d="M512 417H416L362 283H448L428 210H332L247 0H169L254 210H141L56 0H-22L63 210H-32L-12 283H93L147 417H52L72 490H176L263 700H340L254 490H367L454 700H531L445 490H532L512 417ZM225 417L171
283H284L338 417H225Z" />
<glyph unicode="$" glyph-name="dollar" horiz-adv-x="500" d="M455 464L434 469Q435 477 435 486T435 500Q435 552 418 581T351 625L292 410Q334 374 361 346T404 294T426 248T432 198Q432 154 415 118T366 55T286 15T178 0L150 -100H98L127 7Q103 13 84 19T48
35T15 56T-20 87L22 228L44 222Q45 181 49 154T64 106T91 71T137 42L211 303Q171 333 146 357T105 403T85 446T79 493Q79 534 94 567T135 623T197 658T275 670Q281 670 288 670T313 668L331 733H381L361 661Q386 656 423 642T497 598L455 464ZM303 635Q298 637
288 637Q237 637 208 612T178 542Q178 512 193 489T248 436L303 635ZM186 32Q214 32 239 39T283 63T312 103T323 161Q323 179 320 193T310 220T288 246T253 274L186 32Z" />
<glyph unicode="%" glyph-name="percent" horiz-adv-x="757" d="M707 214Q707 161 688 110T634 24Q615 4 590 -7T535 -18Q478 -18 443 20T407 120Q407 162 423 201T465 269T527 315T602 333Q652 333 679 302T707 214ZM682 220Q682 255 666 277T623 300Q592 300
561 254Q549 236 539 214T521 167T509 120T505 76Q505 10 555 10Q599 10 634 61Q655 93 668 137T682 220ZM207 -29H159L547 626Q517 603 491 594T434 584Q418 584 406 586T374 597Q376 583 376 574T377 555Q377 501 358 450T307 366Q286 345 260 334T206 322Q150
322 115 360T80 461Q80 504 96 542T139 610T202 656T277 674Q297 674 312 668T348 645Q370 628 387 622T431 615Q481 615 520 636T597 706H645L207 -29ZM351 560Q351 586 345 596T319 614Q314 616 310 618T298 625Q290 630 286 632T278 634Q262 634 244 613T211
560T186 489T176 418Q176 386 189 369T226 352Q250 352 272 369T312 416T340 482T351 560Z" />
<glyph unicode="&amp;" glyph-name="ampersand" horiz-adv-x="849" d="M771 80Q748 52 728 34T689 4T649 -13T603 -18Q561 -18 528 -4T461 44Q414 9 365 -5T263 -19Q176 -19 126 22T76 142Q76 208 102 252T165 323T243 363T316 384Q309 419 307 438T305 476Q305
524 319 562T358 626T418 667T494 682Q557 682 592 651T628 568Q628 514 584 473T446 396Q454 339 477 279T532 169Q554 195 568 214T591 249T602 275T606 298Q606 315 594 323T550 336V361H762V336Q740 334 725 328T689 300T639 240T557 133Q585 95 611 78T667
61Q687 61 705 70T745 101L771 80ZM548 582Q548 614 535 631T496 649Q462 649 444 619T426 536Q426 517 428 497T437 434Q469 451 490 468T524 503T542 540T548 582ZM433 80Q410 112 394 142T365 203T343 268T324 343Q261 312 235 278T209 190Q209 160 218 135T244
92T284 63T334 52Q357 52 381 57T433 80Z" />
<glyph unicode="&apos;" glyph-name="quotesingle" horiz-adv-x="278" d="M144 613Q146 648 170 666T223 685Q242 685 255 671T268 636Q268 625 265 616T253 588L170 398H128L144 613Z" />
<glyph unicode="(" glyph-name="parenleft" horiz-adv-x="333" d="M344 665Q314 637 291 614T250 568T218 520T189 465Q155 390 139 303T122 119Q122 74 125 38T137 -31T158 -96T193 -164L170 -179Q132 -127 105 -81T61 10T36 103T28 207Q28 299 58 379T145 528Q176
564 219 601T326 685L344 665Z" />
<glyph unicode=")" glyph-name="parenright" horiz-adv-x="333" d="M128 685Q149 657 164 635T190 594T211 555T230 513Q251 460 261 406T271 299Q271 226 253 164T203 48Q165 -17 107 -72T-27 -179L-44 -159Q-10 -128 14 -103T56 -53T88 -1T117 63Q146 135 161
222T177 394Q177 437 173 473T160 541T138 605T105 670L128 685Z" />
<glyph unicode="*" glyph-name="asterisk" horiz-adv-x="500" d="M323 462Q335 455 344 451T362 444T382 440T411 439Q424 439 438 437T465 429T484 413T492 388Q492 366 476 350T440 334Q421 334 409 344T380 381Q372 394 366 404T352 421T337 435T315 448L304
454V442Q304 418 310 399T330 355Q340 338 343 326T347 303Q347 280 333 266T296 252Q273 252 260 266T246 304Q246 315 249 326T263 355Q277 380 283 399T289 442V454L278 448Q265 441 257 435T241 422T228 404T213 381Q197 354 185 344T153 334Q133 334 117 350T101
388Q101 403 108 413T128 428T154 436T182 439Q199 439 210 440T231 443T249 450T270 462L281 468L270 474Q258 481 249 485T230 491T210 495T182 497Q168 497 154 499T128 508T109 524T101 549Q101 570 116 586T150 603Q168 603 182 593T213 556Q222 542 229 532T243
515T258 501T278 488L289 482V494Q289 519 283 538T263 582Q253 599 250 610T246 633Q246 657 259 671T296 685Q319 685 333 671T347 633Q347 622 344 611T330 582Q316 558 310 539T304 494V482L315 488Q326 494 334 500T350 514T364 532T380 556Q397 582 411 592T443
603Q463 603 477 587T492 549Q492 534 485 524T466 508T440 500T411 497Q394 497 383 496T363 492T345 485T323 474L312 468L323 462Z" />
<glyph unicode="+" glyph-name="plus" horiz-adv-x="570" d="M329 209V0H241V209H33V297H241V506H329V297H537V209H329Z" />
<glyph unicode="," glyph-name="comma" horiz-adv-x="250" d="M-60 -157Q58 -94 58 -41Q58 -30 52 -22T28 -4Q4 10 -4 25T-12 61Q-12 97 9 115T61 134Q101 134 122 108T144 40Q144 -27 94 -85T-47 -182L-60 -157Z" />
<glyph unicode="-" glyph-name="hyphen" horiz-adv-x="333" d="M248 166H2L26 282H271L248 166Z" />
<glyph unicode="." glyph-name="period" horiz-adv-x="250" d="M139 61Q139 29 118 8T64 -13Q33 -13 12 8T-9 60Q-9 92 12 113T66 135Q96 135 117 114T139 61Z" />
<glyph unicode="/" glyph-name="slash" horiz-adv-x="278" d="M23 -18H-64L255 685H342L23 -18Z" />
<glyph unicode="0" glyph-name="zero" horiz-adv-x="500" d="M477 442Q477 385 464 327T429 216T376 118T311 41Q280 13 249 0T177 -14Q99 -14 58 46T17 206Q17 264 28 320T60 429T108 528T169 613Q204 653 244 668T327 683Q363 683 391 666T438 618T467 542T477
442ZM374 582Q374 616 361 635T325 654Q304 654 287 635T249 571Q234 538 219 495T189 403T162 307T140 215T126 136T120 81Q120 51 133 33T170 15Q202 15 226 48T276 159Q288 195 304 250T336 366T363 485T374 582Z" />
<glyph unicode="1" glyph-name="one" horiz-adv-x="500" d="M265 123Q260 103 256 87T251 60Q251 39 271 32T350 23V0H5V23Q33 24 53 28T87 42T110 66T126 105L250 550Q252 557 254 566T256 580Q256 613 208 613Q194 613 180 612T146 608L148 631Q191 637 226
642T292 654T354 668T419 683L265 123Z" />
<glyph unicode="2" glyph-name="two" horiz-adv-x="500" d="M64 519Q94 593 149 638T282 683Q321 683 351 670T403 635T435 582T446 515Q446 455 412 399T302 278L106 111H244Q276 111 299 114T339 126T369 150T395 191H419L339 0H-27V24L62 116Q131 188 178 241T256
335T299 409T312 476Q312 528 291 560T220 593Q181 593 149 573T86 507L64 519Z" />
<glyph unicode="3" glyph-name="three" horiz-adv-x="500" d="M96 550Q141 623 191 653T303 683Q333 683 359 673T406 644T438 601T450 547Q450 502 424 463T331 398V396Q374 364 391 332T408 250Q408 197 386 150T326 66T234 9T118 -13Q56 -13 21 8T-14 67Q-14
93 1 109T45 125Q63 125 75 116T98 93T116 66T135 41Q149 27 175 27Q198 27 218 40T253 76T276 128T285 189Q285 260 249 301Q224 329 196 337T127 347L131 369Q228 389 274 426T321 522Q321 564 301 588T234 612Q216 612 202 609T174 596T146 573T117 537L96 550Z"
/>
<glyph unicode="4" glyph-name="four" horiz-adv-x="500" d="M384 248H454L427 150H358L316 0H188L229 150H-15L13 255L440 683H503L384 248ZM53 248H256L335 528L53 248Z" />
<glyph unicode="5" glyph-name="five" horiz-adv-x="500" d="M450 560H197L163 483Q203 475 228 470T272 458T306 441T339 416Q374 386 393 344T412 251Q412 198 391 150T331 66T241 9T126 -13Q62 -13 26 8T-11 66Q-11 92 5 108T48 124Q71 124 88 112T119 70Q133
43 147 35T178 27Q202 27 225 40T266 75T295 127T307 189Q307 238 281 279T206 344Q178 358 150 364T73 372L204 669H486L450 560Z" />
<glyph unicode="6" glyph-name="six" horiz-adv-x="500" d="M509 655Q412 621 346 560T231 409Q261 422 293 422Q363 422 403 379T443 251Q443 192 424 144T372 60T293 5T197 -15Q112 -15 68 39T23 189Q23 293 69 386T199 549Q233 578 264 598T330 632T406 657T503
679L509 655ZM319 315Q319 350 304 366T251 382Q230 382 219 375T196 338Q182 306 171 273T152 207T140 146T135 95Q135 17 190 17Q210 17 223 25T251 56Q265 78 277 111T299 181T313 253T319 315Z" />
<glyph unicode="7" glyph-name="seven" horiz-adv-x="500" d="M144 0H52L384 556H257Q215 556 188 553T142 542T111 519T84 479H58L145 669H525L144 0Z" />
<glyph unicode="8" glyph-name="eight" horiz-adv-x="500" d="M183 345Q162 367 148 385T125 422T113 458T109 499Q109 542 124 576T165 634T226 670T300 683Q342 683 374 671T430 639Q451 620 463 597T476 540Q476 486 444 448T333 380V376Q358 348 374 325T401
281T415 238T419 193Q419 145 402 107T354 42T281 1T191 -13Q104 -13 54 32T3 153Q3 219 47 263T183 341V345ZM383 544Q383 592 361 621T306 650Q267 650 244 624T220 552Q220 533 224 516T238 480T266 443T310 403Q332 425 346 443T368 477T379 509T383 544ZM306
140Q306 159 303 177T290 215T261 261T209 321Q152 285 126 244T100 141Q100 83 126 50T196 17Q219 17 239 26T274 52T297 91T306 140Z" />
<glyph unicode="9" glyph-name="nine" horiz-adv-x="500" d="M-12 15Q172 71 265 259Q246 251 234 248T204 245Q170 245 143 257T95 291T64 343T53 412Q53 469 72 518T124 604T202 662T299 683Q373 683 417 639Q445 610 460 568T475 476Q475 421 461 367T419 264T352
170T263 92Q234 71 207 56T149 30T81 9T-6 -10L-12 15ZM363 582Q363 651 314 651Q266 651 235 588Q223 564 213 534T194 471T182 407T177 352Q177 288 243 288Q259 288 269 290T287 302T302 329T320 377Q332 413 340 441T353 493T361 538T363 582Z" />
<glyph unicode=":" glyph-name="colon" horiz-adv-x="333" d="M264 385Q264 353 243 332T189 311Q157 311 137 332T116 385Q116 417 137 438T191 459Q221 459 242 437T264 385ZM171 61Q171 29 150 8T96 -13Q64 -13 44 8T23 61Q23 93 44 114T98 135Q128 135 149
113T171 61Z" />
<glyph unicode=";" glyph-name="semicolon" horiz-adv-x="333" d="M264 385Q264 353 243 332T189 311Q157 311 137 332T116 385Q116 417 137 438T191 459Q221 459 242 437T264 385ZM-25 -158Q93 -95 93 -42Q93 -31 87 -23T63 -5Q39 9 31 24T22 60Q22 96 43 114T96
133Q136 133 157 107T179 39Q179 -28 129 -86T-12 -183L-25 -158Z" />
<glyph unicode="&lt;" glyph-name="less" horiz-adv-x="570" d="M31 211V295L539 518V422L154 253L539 84V-12L31 211Z" />
<glyph unicode="=" glyph-name="equal" horiz-adv-x="570" d="M33 311V399H537V311H33ZM33 107V195H537V107H33Z" />
<glyph unicode="&gt;" glyph-name="greater" horiz-adv-x="570" d="M31 -12V84L416 253L31 422V518L539 295V211L31 -12Z" />
<glyph unicode="?" glyph-name="question" horiz-adv-x="500" d="M167 216Q168 237 173 259T191 306T224 360T279 425Q316 463 329 500T343 574Q343 611 325 632T274 653Q250 653 231 642T212 615Q212 605 216 599T226 587T236 572T241 548Q241 523 224 505T180
486Q154 486 137 507T119 558Q119 583 133 606T171 646T229 673T300 684Q336 684 367 675T421 647T457 601T470 540Q470 492 442 451T344 369Q305 346 281 328T242 292T216 254T196 208L167 216ZM227 61Q227 29 206 8T152 -13Q120 -13 100 8T79 61Q79 93 100 114T154
135Q184 135 205 113T227 61Z" />
<glyph unicode="@" glyph-name="at" horiz-adv-x="939" d="M716 42Q680 24 650 12T593 -6T539 -15T485 -18Q405 -18 338 10T222 85T146 194T118 325Q118 403 147 469T226 583T345 658T491 685Q562 685 623 664T729 604T799 510T825 387Q825 337 813 293T776 216T718
162T638 142Q601 142 574 164T545 217Q519 182 487 163T423 143Q379 143 353 174T327 257Q327 301 341 346T381 429T444 491T528 515Q555 515 569 505T600 463L611 501H682L621 258Q619 250 617 241T615 224Q615 202 626 191T656 180Q686 180 709 203T747 258T771
325T779 386Q779 441 756 488T694 571T603 626T492 646Q430 646 378 622T289 555T230 452T209 319Q209 257 229 204T288 112T378 51T496 28Q549 28 600 37T703 77L716 42ZM583 402Q583 432 573 449T541 467Q509 467 484 449T440 402T413 339T403 275Q403 236 419
213T462 190Q484 190 505 208T544 258Q560 289 571 329T583 402Z" />
<glyph unicode="A" glyph-name="A" horiz-adv-x="667" d="M290 0V25Q367 31 367 74Q367 78 367 81T365 89L353 208H138L81 112Q64 84 64 62Q64 44 78 35T128 25V0H-67L-68 25Q-40 28 -23 46T18 101L388 683H413L507 123Q512 92 517 74T532 45T555 30T593 25V0H290ZM309
491L161 248H346L309 491Z" />
<glyph unicode="B" glyph-name="B" horiz-adv-x="667" d="M383 669Q624 669 624 523Q624 482 609 455T568 410T508 379T435 355V354Q507 334 539 299T572 206Q572 156 552 118T493 53T401 14T277 0H-25V25Q11 29 29 46T59 108L178 546Q183 565 186 580T189 603Q189
618 184 626T168 638T146 643T118 644V669H383ZM277 368Q303 370 325 371T365 376T400 387T430 408Q477 452 477 536Q477 637 390 637Q378 637 370 636T356 628T345 610T334 577L277 368ZM205 102Q198 75 198 65Q198 32 255 32Q295 32 324 47T376 91Q398 117 408
154T419 229Q419 287 384 314Q368 326 343 331T269 338L205 102Z" />
<glyph unicode="C" glyph-name="C" horiz-adv-x="667" d="M626 450L594 456Q597 475 597 492Q597 562 564 606T466 650Q426 650 388 630T321 577Q263 511 225 416T186 209Q186 127 228 81T341 35Q374 35 400 43T451 66T497 103T545 154L576 132Q552 99 536 81T498
47Q455 15 404 -1T299 -18Q238 -18 189 0T105 51T51 130T32 234Q32 346 75 438T191 592Q243 636 306 660T440 685Q503 685 571 664Q595 656 609 656Q620 656 628 662T647 685H677L626 450Z" />
<glyph unicode="D" glyph-name="D" horiz-adv-x="722" d="M384 669Q455 669 511 651T605 598T664 515T685 405Q685 323 654 247T566 117Q506 62 424 31T242 0H-46V25Q-28 27 -15 32T7 46T24 70T37 109L152 531Q162 566 164 580T167 602Q167 620 159 628T128 639L94
644V669H384ZM192 135Q184 106 181 92T177 68Q177 34 235 34Q365 34 445 139Q492 200 515 281T538 457Q538 638 373 638Q348 638 336 630T318 600L192 135Z" />
<glyph unicode="E" glyph-name="E" horiz-adv-x="667" d="M610 479L583 484Q582 511 581 529T575 562T562 586T538 607Q491 637 401 637Q386 637 375 636T357 629T344 613T334 586L275 370Q324 370 356 373T409 388T446 420T480 477L508 473L434 199L406 203Q408
217 409 226T410 247Q410 273 404 290T381 318T336 333T266 338L203 104Q199 89 197 80T195 66Q195 48 209 40T256 32Q322 32 374 46T470 93Q484 103 495 113T516 135T537 162T561 199L586 194L526 0H-27V25Q-8 28 5 32T27 45T42 68T55 105L174 537Q181 562 183
579T186 607Q186 622 177 629T145 640L112 644V669H653L610 479Z" />
<glyph unicode="F" glyph-name="F" horiz-adv-x="667" d="M617 479L590 484Q590 522 586 545T570 584Q546 614 511 625T413 637Q382 637 370 628T350 589L289 370Q338 370 369 373T421 388T456 421T487 477L515 473L441 199L413 204Q415 218 416 227T417 248Q417
273 411 290T389 317T347 332T280 338L225 132Q219 109 215 94T210 69Q210 46 224 37T281 25V0H-13V25Q9 27 22 32T44 46T58 69T69 104L190 546Q195 563 197 579T200 607Q200 622 191 629T158 640L127 644V669H660L617 479Z" />
<glyph unicode="G" glyph-name="G" horiz-adv-x="722" d="M705 304Q686 302 674 299T654 285T638 257T623 208L579 41L551 28Q530 18 502 10T442 -5T379 -14T317 -18Q251 -18 197 1T103 55T43 141T21 256Q21 354 65 442T184 593Q296 685 448 685Q483 685 511 680T572
664Q586 659 593 657T608 655Q623 655 632 661T650 685H681L630 464L601 468Q599 514 594 540T577 587Q541 649 462 649Q410 649 366 621T289 551Q238 485 208 398T177 216Q177 118 219 69T341 20Q370 20 397 28T435 50L466 154Q474 182 479 200T488 230T492 250T493
268Q493 275 490 282T481 292Q473 297 462 299T418 304V330H705V304Z" />
<glyph unicode="H" glyph-name="H" horiz-adv-x="778" d="M799 644Q762 644 745 627T717 570L606 162Q595 119 590 98T584 66Q584 44 599 36T657 25V0H341V25Q366 26 382 30T410 42T429 65T443 104L505 329H266L212 132Q204 105 202 91T200 65Q200 59 202 53T211
42T233 32T271 25V0H-24V25Q-5 28 7 31T29 43T44 64T57 99L178 546Q184 567 186 581T189 604Q189 621 180 629T147 640L116 644V669H432V644Q408 643 392 640T364 628T345 604T330 564L278 373H517L564 546Q568 560 571 579T574 607Q574 622 565 629T533 640L502
644V669H799V644Z" />
<glyph unicode="I" glyph-name="I" horiz-adv-x="389" d="M406 644Q388 642 375 638T352 626T335 603T322 564L210 152Q199 114 196 96T193 65Q193 44 207 36T264 25V0H-32V25Q-14 27 -1 30T21 41T37 65T51 107L168 536Q174 558 178 578T182 607Q182 635 140 640L108
644V669H406V644Z" />
<glyph unicode="J" glyph-name="J" horiz-adv-x="500" d="M524 644Q506 642 493 639T471 627T454 603T439 559L317 102Q290 0 234 -49T102 -99Q36 -99 -5 -73T-46 2Q-46 32 -28 53T18 74Q44 74 62 57T81 9Q81 -3 78 -10T70 -22T62 -33T58 -45Q58 -63 85 -63Q99
-63 109 -56T129 -31T149 21T173 107L287 539Q295 568 297 581T300 603Q300 617 291 626T259 639L226 644V669H524V644Z" />
<glyph unicode="K" glyph-name="K" horiz-adv-x="667" d="M702 644Q686 642 676 640T655 633T635 620T608 596L392 397L549 64Q557 46 570 37T612 25V0H332L333 25L359 29Q379 32 388 36T397 52Q397 68 382 101L271 337L204 88Q202 78 202 71Q202 46 215 37T267
25V0H-21V25Q-4 27 8 30T30 41T46 60T58 93L181 546Q187 567 189 581T192 604Q192 621 183 629T151 640L118 644V669H429V644Q385 640 365 626T335 572L273 345L470 520Q514 559 530 581T547 617Q547 639 512 642L491 644V669H702V644Z" />
<glyph unicode="L" glyph-name="L" horiz-adv-x="611" d="M530 0H-22V25Q-1 28 12 32T34 46T48 69T60 103L181 546Q185 560 188 579T192 607Q192 622 183 629T151 639Q143 641 134 642T117 644V669H435V644Q410 642 394 639T366 628T348 607T336 574L207 101Q204
89 203 79T201 62Q201 46 220 39T273 32Q326 32 369 43T451 77Q470 89 485 100T513 126T538 158T566 200L590 195L530 0Z" />
<glyph unicode="M" glyph-name="M" horiz-adv-x="889" d="M917 644Q898 642 885 638T863 625T846 601T833 563L714 125Q710 112 707 95T704 68Q704 44 717 35T775 25V0H464V25Q490 26 506 30T534 44T552 67T565 104L688 561L313 -12H285L218 547L117 178Q106 140
102 120T97 86Q97 69 100 59T113 41T137 31T177 25V0H-29V25Q-9 29 4 37T29 61T50 106T74 182L181 551Q186 571 189 584T192 609Q192 619 190 626T181 637T159 642T121 644V669H340L394 189L705 669H917V644Z" />
<glyph unicode="N" glyph-name="N" horiz-adv-x="722" d="M748 644Q727 640 714 634T690 612T669 568T646 491L503 -15H475L218 532L119 178Q110 146 105 122T100 84Q100 55 117 42T179 25V0H-27V25Q-6 29 6 34T29 55T49 99T74 180L194 587Q187 603 181 613T167
630T146 639T112 644V669H305L521 202L602 491Q610 522 615 546T621 585Q621 614 603 629T540 644V669H748V644Z" />
<glyph unicode="O" glyph-name="O" horiz-adv-x="722" d="M691 444Q691 396 678 346T641 249T584 158T511 78Q458 31 396 7T263 -18Q210 -18 167 -3T92 43T44 118T27 221Q27 272 40 323T78 424T137 516T213 593Q267 637 326 661T449 685Q500 685 544 668T621 620T672
544T691 444ZM547 528Q547 591 519 621T446 651Q398 651 360 623T284 531Q261 493 241 445T205 344T180 240T171 143Q171 86 198 51T273 16Q321 16 357 45T430 130Q455 167 476 218T513 323T538 432T547 528Z" />
<glyph unicode="P" glyph-name="P" horiz-adv-x="611" d="M394 669Q505 669 559 630T613 514Q613 434 554 383Q518 351 464 334T340 317Q320 317 303 318T259 322L205 123Q201 110 198 92T194 65Q194 45 209 36T266 25V0H-28V25Q-9 28 4 32T27 44T42 68T56 107L173
533Q181 562 183 579T186 607Q186 622 177 629T145 640L112 644V669H394ZM269 355Q282 353 291 353T311 352Q358 352 386 366T434 414Q451 440 459 479T467 550Q467 590 445 613T383 637Q357 637 348 627T330 584L269 355Z" />
<glyph unicode="Q" glyph-name="Q" horiz-adv-x="722" d="M205 -13Q201 -11 198 -10T189 -7Q113 20 70 74T27 211Q27 267 40 321T77 425T134 516T207 592Q261 637 322 661T449 685Q501 685 545 668T622 619T673 546T691 452Q691 358 651 266T536 101Q503 69 475
48T414 13T344 -8T252 -17L208 -64V-67Q240 -69 289 -75T394 -102Q422 -112 440 -115T479 -118Q502 -118 521 -115T558 -102T594 -78T634 -40L655 -59Q625 -102 597 -130T537 -176T472 -201T396 -208Q381 -208 367 -207T336 -203T302 -195T260 -182Q221 -170 200
-166T156 -161Q132 -161 108 -166T42 -189L28 -165L203 -17L205 -13ZM547 532Q547 586 519 618T446 651Q398 651 359 622T284 532Q261 494 241 443T205 338T180 230T171 136Q171 81 198 49T273 17Q324 17 366 55T442 154Q463 193 482 242T516 343T538 443T547 532Z"
/>
<glyph unicode="R" glyph-name="R" horiz-adv-x="667" d="M396 669Q507 669 565 634T623 526Q623 474 598 439T527 375Q509 364 488 357T431 343L516 89Q522 71 528 59T544 41T568 31T603 25V0H401L294 331H264L212 149Q201 113 198 96T194 67Q194 44 208 36T266
25V0H-28V25Q9 29 25 47T54 109L174 546Q178 560 181 579T184 607Q184 622 176 630T142 641L110 644V669H396ZM273 363Q320 364 350 369T400 388Q433 408 452 450T472 542Q472 588 451 612T390 637Q367 637 353 628T330 583L273 363Z" />
<glyph unicode="S" glyph-name="S" horiz-adv-x="556" d="M486 479L459 483Q455 515 451 540T437 584Q420 619 390 634T321 650Q281 650 252 622T223 545Q223 522 229 505T249 473T283 443T330 408Q370 379 396 354T439 304T461 252T468 191Q468 128 439 81T358
7Q306 -18 238 -18Q208 -18 181 -13T116 6Q84 17 70 17Q56 17 49 11T32 -18H2L38 207L67 205Q70 180 73 161T82 125T95 94T115 66Q135 43 161 30T221 16Q277 16 310 50Q327 67 337 87T347 142Q347 164 341 182T320 219T284 255T232 296Q171 340 137 385T102 494Q102
537 118 572T161 632T226 671T306 685Q339 685 360 681T397 670T425 660T452 655Q483 655 496 681H526L486 479Z" />
<glyph unicode="T" glyph-name="T" horiz-adv-x="611" d="M614 477L587 479Q587 564 556 599T449 634L314 145Q309 127 303 107T297 71Q297 49 316 37T380 25V0H49V25H64Q99 25 121 41T155 97L303 634Q265 633 233 626T175 602T126 558T85 491L60 498L99 669H650L614
477Z" />
<glyph unicode="U" glyph-name="U" horiz-adv-x="722" d="M744 644Q723 640 710 636T687 617T666 575T642 497L577 263Q554 182 528 123T456 29Q427 6 387 -6T290 -18Q241 -18 200 -8T130 23T84 74T67 145Q67 175 77 221T104 334L155 527Q163 555 166 575T170
605Q170 622 162 630T129 641L97 644V669H408V644Q385 643 370 639T344 627T327 605T314 568L233 274Q223 239 218 218T209 182T206 159T205 139Q205 85 237 62T327 38Q369 38 398 50T450 85Q482 118 502 168T540 282L597 491Q606 524 611 549T616 587Q616 614
598 629T537 644V669H744V644Z" />
<glyph unicode="V" glyph-name="V" horiz-adv-x="667" d="M715 644Q692 639 677 627T653 600L263 -18H231L155 495Q147 546 141 575T126 620T103 640T66 644V669H362V644Q336 642 322 640T299 632T289 620T287 599Q287 595 287 588T289 576L339 182L526 479Q558
531 573 561T589 608Q589 639 548 642L524 644V669H715V644Z" />
<glyph unicode="W" glyph-name="W" horiz-adv-x="889" d="M940 645Q924 643 913 639T893 627T874 603T852 563L570 -18H541L482 471L249 -18H220L142 554Q138 581 135 597T124 622T102 636T64 645V669H342V644Q307 639 294 628T281 594Q281 589 281 584T282 575L322
226L471 540Q471 570 469 589T459 619T437 636T401 645V669H668V644Q648 642 636 639T617 629T608 614T606 590Q606 581 608 564T613 517L646 226L801 553Q810 573 813 581T816 599Q816 612 814 620T806 633T787 640T753 644V669H940V645Z" />
<glyph unicode="X" glyph-name="X" horiz-adv-x="667" d="M694 644Q680 642 669 639T647 629T624 611T595 583L396 378L471 141Q481 109 490 88T511 54T541 35T586 25V0H279V25Q300 27 313 29T334 36T343 46T346 63Q346 80 338 112T309 204L289 264L159 120Q142
101 135 88T127 65Q127 48 141 38T190 25V0H-24V25Q-3 29 15 39T57 72T116 135T207 235L275 309L192 578Q186 599 179 611T162 629T136 639T99 644V669H404V644L375 641Q350 639 340 632T330 608Q330 587 365 476L382 421L476 520Q515 562 530 583T546 618Q546
639 513 642L492 644V669H694V644Z" />
<glyph unicode="Y" glyph-name="Y" horiz-adv-x="611" d="M659 644Q630 640 611 623T567 572L378 308L326 117Q322 102 319 90T316 66Q316 45 332 35T395 25V0H72V25Q97 27 114 30T142 42T162 65T176 103L233 311L146 581Q140 599 135 609T122 626T102 636T71
644V669H356V644Q315 642 301 635T287 605Q287 591 293 568T316 495L362 352L490 535Q506 558 512 573T518 602Q518 625 505 633T452 644V669H659V644Z" />
<glyph unicode="Z" glyph-name="Z" horiz-adv-x="611" d="M155 35H230Q299 35 344 45T429 85Q456 105 480 135T526 199L553 194L493 0H-12V29L422 634H339Q300 634 268 627T206 602T150 557T92 487L64 491L122 669H589V640L155 35Z" />
<glyph unicode="[" glyph-name="bracketleft" horiz-adv-x="333" d="M355 639H286Q272 639 264 637T251 629T242 609T233 573L78 -94Q77 -96 77 -98T77 -103Q77 -124 111 -124H189L182 -159H-37L162 674H362L355 639Z" />
<glyph unicode="\" glyph-name="backslash" horiz-adv-x="278" d="M195 -18L-1 685H84L279 -18H195Z" />
<glyph unicode="]" glyph-name="bracketright" horiz-adv-x="333" d="M143 -157H-56L-49 -122H19Q32 -122 40 -121T53 -113T61 -94T70 -59L227 608Q227 610 227 611T228 615V618Q228 628 219 633T194 639H116L123 674H343L143 -157Z" />
<glyph unicode="^" glyph-name="asciicircum" horiz-adv-x="570" d="M414 304L285 576L156 304H67L245 669H325L503 304H414Z" />
<glyph unicode="_" glyph-name="underscore" horiz-adv-x="500" d="M0 -125V-75H500V-125H0Z" />
<glyph unicode="`" glyph-name="grave" horiz-adv-x="333" d="M251 516L119 604Q85 627 85 652Q85 670 98 683T130 697Q144 697 158 690T186 664L297 516H251Z" />
<glyph unicode="a" glyph-name="a" horiz-adv-x="500" d="M456 112Q434 77 414 53T374 14T336 -7T300 -14Q272 -14 255 2T237 50Q237 61 239 74T251 119Q209 47 171 17T87 -13Q38 -13 9 22T-21 114Q-21 174 3 234T66 345Q106 398 154 430T252 462Q284 462 301
445T326 390H327L344 449L455 456L380 205Q371 175 365 154T356 118T352 92T350 72Q350 57 362 57Q374 57 389 71T435 127L456 112ZM303 373Q303 393 293 406T266 420Q250 420 235 410T207 384T181 347T158 305Q145 278 135 251T117 198T106 151T102 115Q102 85
113 72T145 58Q165 58 188 77T231 133Q246 159 259 191T281 256T297 319T303 373Z" />
<glyph unicode="b" glyph-name="b" horiz-adv-x="500" d="M193 373Q229 423 264 442T337 462Q361 462 380 452T414 424T436 382T444 331Q444 264 418 202T347 92T245 16T124 -13Q99 -13 75 -9T31 4T-1 23T-14 48Q-14 53 -8 77T6 129L100 456Q120 527 129 564T139
612Q139 642 93 642H74V669Q107 673 134 676T186 682T234 690T284 699L193 373ZM319 325Q319 394 278 394Q226 394 186 310Q178 292 170 270T153 223T138 175T124 128Q116 102 113 78T109 47Q109 35 117 28T140 20Q170 20 196 40T248 98Q263 120 276 150T298 212T313
273T319 325Z" />
<glyph unicode="c" glyph-name="c" horiz-adv-x="444" d="M346 124Q317 85 291 54T231 5Q196 -13 148 -13Q79 -13 37 25T-5 138Q-5 207 24 268T100 377Q138 416 183 439T280 462Q302 462 322 456T358 437T383 409T392 372Q392 340 375 321T330 301Q304 301 288
316T272 354Q272 365 275 372T282 386T289 398T293 412Q293 420 286 424T269 429Q240 429 219 404T176 341Q151 295 137 243T123 140Q123 96 143 74T196 51Q228 51 255 71T318 142L346 124Z" />
<glyph unicode="d" glyph-name="d" horiz-adv-x="500" d="M400 278Q374 183 362 133T349 75Q349 70 352 65T360 60Q371 60 389 78T428 131L450 115Q408 49 373 19T300 -11Q271 -11 256 5T240 50Q240 62 242 75T251 118Q212 47 172 17T85 -13Q39 -13 9 18T-21 112Q-21
149 -11 188T17 264T59 334T110 394Q142 426 178 444T248 462Q270 462 288 455T323 429L341 493Q350 526 356 548T365 583T369 604T370 615Q370 643 329 643H308V670Q345 673 374 676T427 682T473 690T517 699L400 278ZM308 371Q308 392 298 406T271 420Q255 420
239 411T209 386T181 350T157 308Q132 258 118 206T103 122Q103 95 114 77T144 59Q189 59 230 133Q243 157 257 191T282 259T301 324T308 371Z" />
<glyph unicode="e" glyph-name="e" horiz-adv-x="444" d="M346 126Q304 51 257 19T151 -13Q85 -13 45 23T5 134Q5 196 29 255T94 360T187 434T293 462Q342 462 370 438T398 375Q398 343 379 311T329 253Q313 239 295 229T255 211T205 195T141 182Q138 167 137
156T135 133Q135 51 199 51Q215 51 229 55T257 71T285 99T317 143L346 126ZM306 390Q306 407 300 418T275 429Q239 429 207 374T148 214Q182 221 211 238T261 278T294 330T306 390Z" />
<glyph unicode="f" glyph-name="f" horiz-adv-x="333" d="M121 449Q136 503 154 549T200 630Q226 662 261 680T347 698Q392 698 419 677T446 618Q446 595 432 580T395 564Q374 564 360 578T346 614Q346 623 348 628T354 638T359 647T362 656Q362 662 357 665T344
669Q318 669 294 629T252 515L236 449H327L318 407H229Q208 308 195 245T171 141T153 72T134 13Q111 -56 91 -94T44 -159Q-3 -205 -70 -205Q-112 -205 -140 -184T-169 -126Q-169 -103 -154 -87T-118 -71Q-98 -71 -83 -84T-68 -120Q-68 -129 -70 -135T-76 -145T-81
-153T-84 -162Q-84 -168 -79 -171T-66 -174Q-51 -174 -40 -166T-18 -135T2 -77T24 15Q29 37 51 139T112 407H38L47 449H121Z" />
<glyph unicode="g" glyph-name="g" horiz-adv-x="500" d="M411 373Q416 364 416 354T417 331Q417 250 346 199Q311 174 278 164T201 153Q188 153 174 155T150 161Q140 161 131 152T122 125Q122 113 137 102T176 84L226 72Q308 52 341 24T375 -51Q375 -81 359 -108T313
-157T238 -190T138 -203Q51 -203 0 -178T-52 -102Q-52 -69 -39 -48T-5 -15T38 1T81 7Q48 18 34 33T19 73Q19 101 39 124T115 170Q35 204 35 280Q35 319 52 352T98 410T167 448T253 462Q288 462 316 456T367 429H477V373H411ZM300 372Q300 398 290 414T255 431Q238
431 224 422T198 399Q186 384 177 364T162 323T154 281T151 243Q151 184 193 184Q239 184 271 253Q284 281 292 313T300 372ZM266 -100Q266 -63 224 -42Q216 -38 200 -32T166 -21T134 -11T115 -6Q108 -7 91 -16T64 -36Q35 -64 35 -91Q35 -126 66 -147T148 -169Q202
-169 234 -148T266 -100Z" />
<glyph unicode="h" glyph-name="h" horiz-adv-x="556" d="M498 127Q473 88 453 62T413 21T374 -2T331 -9Q302 -9 284 8T265 55Q265 70 267 86T276 127T295 188T326 280L346 339Q353 360 353 369Q353 381 348 385T333 390Q291 390 227 296Q209 269 195 244T168
187T141 110T108 0H-13L139 562Q144 579 146 590T149 609Q149 642 107 642H85V669Q115 672 141 674T191 681T240 689T294 699L186 283Q223 336 251 370T304 425T350 454T399 462Q436 462 455 442T475 387Q475 373 468 345T446 269L387 87Q385 81 385 79T384 75Q384
70 389 65T401 59Q411 59 427 77T476 142L498 127Z" />
<glyph unicode="i" glyph-name="i" horiz-adv-x="278" d="M262 616Q262 588 243 569T194 550Q165 550 147 570T128 619Q128 645 147 664T193 684Q222 684 242 664T262 616ZM238 128Q213 87 192 61T152 19T112 -3T70 -9Q39 -9 21 6T2 54Q2 76 17 130L72 333Q77
351 78 361T80 378Q80 407 34 407H20V434Q79 439 130 446T223 462L132 128Q128 115 126 100T123 77Q123 68 127 65T138 61Q149 61 165 77T202 122L216 142L238 128Z" />
<glyph unicode="j" glyph-name="j" horiz-adv-x="278" d="M279 617Q279 589 259 570T210 550Q182 550 163 570T144 619Q144 645 164 665T210 685Q239 685 259 665T279 617ZM123 18Q91 -102 41 -154T-84 -207Q-132 -207 -160 -185T-189 -130Q-189 -108 -175 -93T-140
-77Q-118 -77 -105 -90T-91 -126Q-91 -134 -93 -138T-98 -146T-103 -152T-106 -161Q-106 -169 -99 -172T-82 -176Q-61 -176 -44 -146T-8 -40L81 310Q93 355 93 377Q93 407 52 407H30V434Q72 438 101 441T154 447T196 453T239 462L123 18Z" />
<glyph unicode="k" glyph-name="k" horiz-adv-x="500" d="M483 424Q466 422 452 419T424 407T391 385T348 348L284 290Q299 217 310 173T330 104T347 71T363 63Q377 63 392 77T427 127L449 116Q415 45 382 19T311 -8Q288 -8 271 2T239 37T212 106T188 215L149
188L99 0H-23L134 566Q139 584 140 592T141 608Q141 629 134 635T111 642H77V669Q106 670 131 672T181 679T231 688T286 699L162 238Q209 275 241 301T292 347T319 378T327 401Q327 413 317 417T277 424V449H483V424Z" />
<glyph unicode="l" glyph-name="l" horiz-adv-x="278" d="M145 176Q123 97 123 76Q123 70 126 66T138 61Q152 61 169 78T217 141L239 127Q213 88 193 62T153 20T114 -2T70 -9Q39 -9 21 9T2 54Q2 71 11 113T36 209L110 468Q126 523 135 559T144 613Q144 643 102
643Q98 643 93 643T80 642V669Q108 672 132 674T181 680T231 688T290 699L145 176Z" />
<glyph unicode="m" glyph-name="m" horiz-adv-x="778" d="M723 122Q684 49 647 20T562 -9Q530 -9 513 6T495 57Q495 79 505 119T532 208L576 338Q579 348 581 355T583 368Q583 376 576 382T560 389Q537 389 509 360T448 273Q434 249 425 231T406 185T383 115T347
0H227L292 207Q304 245 312 272T326 319T334 349T337 367Q337 379 332 384T319 389Q308 389 290 376T254 342Q233 316 215 286T179 216T145 124T107 0H-14L52 232Q62 268 69 294T80 337T86 365T88 382Q88 407 50 407H32V434Q74 437 102 439T151 445T190 451T232
461L169 262H170Q206 318 230 351T274 404Q298 428 328 445T388 462Q420 462 437 445T455 395Q455 374 450 352T429 290Q459 339 484 372T531 425T577 453T627 462Q663 462 683 442T704 391Q704 371 698 343T681 282L636 154Q629 135 625 123T619 103T616 90T615
77Q615 59 631 59Q641 59 656 74T689 117Q695 127 701 135L723 122Z" />
<glyph unicode="n" glyph-name="n" horiz-adv-x="556" d="M494 122Q453 49 416 20T334 -9Q302 -9 284 5T266 51Q266 71 273 105T292 176L347 341Q349 349 351 358T354 369Q354 382 347 386T329 390Q315 390 295 373T260 336Q237 306 218 274T182 203T148 115T115
0H-6L51 204Q76 294 86 334T96 383Q96 397 85 401T41 407V434Q83 436 137 443T240 461L178 263H179Q204 300 221 324T251 366T275 395T301 421Q321 441 347 451T401 462Q439 462 456 442T474 385Q474 367 466 336T446 269L411 165Q397 123 392 104T387 76Q387 59
401 59Q407 59 413 62T428 73T446 97T472 135L494 122Z" />
<glyph unicode="o" glyph-name="o" horiz-adv-x="500" d="M284 462Q357 462 399 421T441 311Q441 240 412 174T336 62Q261 -13 161 -13Q126 -13 96 -4T44 24T10 70T-3 135Q-3 210 24 275T97 385Q135 423 182 442T280 462H284ZM322 372Q322 401 310 417T275 433Q243
433 215 402Q192 377 174 338T143 255T123 164T116 80Q116 47 129 32T165 16Q206 16 236 65Q254 95 270 134T297 216T315 298T322 372Z" />
<glyph unicode="p" glyph-name="p" horiz-adv-x="500" d="M178 347Q220 412 256 437T336 462Q390 462 418 430T446 341Q446 272 423 208T361 95T272 17T169 -13Q153 -13 136 -8T101 9L89 -32Q75 -82 70 -108T65 -146Q65 -164 78 -170T130 -178V-205H-120V-178Q-102
-178 -90 -176T-70 -164T-56 -138T-42 -92L54 288Q64 327 70 350T76 382Q76 396 66 400T22 407V434Q41 436 59 438T99 444T148 451T214 462L177 347H178ZM321 336Q321 366 311 378T282 391Q259 391 237 370T195 320Q188 310 184 302T175 281T165 252T151 207Q131
138 122 105T113 58Q113 43 124 33T152 22Q169 22 184 30T214 52Q239 77 259 116T292 196T313 275T321 336Z" />
<glyph unicode="q" glyph-name="q" horiz-adv-x="500" d="M342 -12Q327 -67 317 -104T306 -150Q306 -178 355 -178H372V-205H104V-178Q127 -178 142 -175T166 -165T183 -144T196 -109L257 98Q224 36 186 12T103 -13Q54 -13 28 21T1 117Q1 159 15 204T55 295Q77
334 103 364T157 417T215 450T273 462Q290 462 306 456T330 440Q337 432 340 422T347 390L362 449H471L342 -12ZM325 371Q325 392 316 405T290 419Q275 419 260 408T229 380T201 343T179 304Q155 254 141 203T126 116Q126 59 165 59Q210 59 253 133Q266 156 279
188T302 253T318 318T325 371Z" />
<glyph unicode="r" glyph-name="r" horiz-adv-x="389" d="M161 253Q191 313 213 353T255 417T293 451T332 462Q358 462 373 444T389 396Q389 364 373 344T331 323Q316 323 308 329T293 342T282 355T270 361Q259 361 242 342T205 285Q195 267 187 251T171 214T153
166T131 99L100 0H-21Q32 180 56 271T81 382Q81 396 70 401T25 407V434Q70 438 98 440T147 446T185 452T225 462L160 253H161Z" />
<glyph unicode="s" glyph-name="s" horiz-adv-x="389" d="M310 307L283 309Q271 372 251 400T195 429Q171 429 157 415T142 376Q142 343 199 277Q221 251 236 229T261 188T275 151T279 115Q279 87 268 64T236 23T189 -3T131 -13Q115 -13 100 -11T67 -1Q46 7 37
7Q17 7 8 -13H-19L3 153L30 150Q47 17 123 17Q153 17 168 32T183 71Q183 94 170 117T127 175Q101 204 86 225T62 264T50 299T47 336Q47 396 83 429T181 462Q213 462 239 450Q252 444 260 442T276 440Q287 440 292 444T304 461H333L310 307Z" />
<glyph unicode="t" glyph-name="t" horiz-adv-x="278" d="M198 407L164 288Q138 196 125 147T111 79Q111 69 116 65T127 61Q152 61 203 141L226 126Q201 87 180 62T139 20T99 -2T56 -9Q24 -9 7 7T-11 56Q-11 70 -4 101T14 171L81 407H29V442Q60 452 85 465T131
497T173 538T213 594H248L209 449H281V407H198Z" />
<glyph unicode="u" glyph-name="u" horiz-adv-x="556" d="M493 120Q454 53 417 22T334 -9Q266 -9 266 51Q266 73 272 96T292 161H291Q256 109 230 76T181 24T138 -2T93 -9Q55 -9 35 10T15 70Q15 89 20 113T37 176L74 304Q80 326 85 346T91 379Q91 390 80 397T33
407V434Q52 434 78 437T134 443T191 452T243 462L150 160Q145 143 142 132T137 113T135 100T134 88Q134 75 140 69T158 63Q172 63 188 76T228 118Q250 146 267 173T300 237T333 323T370 449H488L410 183Q400 148 393 119T385 80Q385 72 388 66T399 59Q412 59 428
75T471 133L493 120Z" />
<glyph unicode="v" glyph-name="v" horiz-adv-x="444" d="M15 435Q46 439 67 442T105 448T137 454T171 462Q179 437 185 408T194 341T200 250T202 128Q239 170 263 200T302 251T322 288T328 317Q328 325 324 332T308 353Q294 368 289 380T283 406Q283 429 300
445T340 462Q369 462 385 442T401 395Q401 363 386 324T341 241Q320 211 300 185T253 130T193 67T111 -13H85Q87 21 88 52T89 108T90 147T90 164Q90 245 84 305T65 389Q60 399 49 403T15 408V435Z" />
<glyph unicode="w" glyph-name="w" horiz-adv-x="667" d="M418 129Q451 168 474 197T511 249T531 288T538 316Q538 331 518 354Q505 368 501 379T496 402Q496 432 513 447T553 462Q578 462 596 444T614 400Q614 337 547 234T342 -13H315L292 272Q266 224 239 173T178
71L122 -13H95V33Q95 43 95 57T96 95Q96 140 93 190T85 284T72 359T58 397Q52 402 43 404T15 407V434Q45 439 67 442T108 449T141 456T171 462Q180 430 186 400T196 338T202 270T204 188L360 462H387L418 129Z" />
<glyph unicode="x" glyph-name="x" horiz-adv-x="500" d="M206 462Q213 451 219 441T230 415T241 378T253 324Q282 367 304 394T344 436T377 456T411 462Q434 462 451 444T469 401Q469 379 453 364T413 348Q404 348 397 351T384 358T372 365T356 368Q339 368 314
343T264 274L296 117Q302 88 310 76T333 64Q340 64 345 66T358 74T375 92T400 123L421 109Q375 43 341 15T270 -13Q251 -13 237 -5T211 21T191 69T173 142L149 103Q127 67 111 45T80 9T52 -8T18 -13Q-11 -13 -28 3T-45 46Q-45 70 -30 86T9 103Q20 103 28 100T43
92T56 85T71 81Q85 81 93 88T118 121L162 192L133 344Q126 381 113 397T76 413Q69 413 62 413T41 411V438L206 462Z" />
<glyph unicode="y" glyph-name="y" horiz-adv-x="444" d="M241 110Q267 160 284 194T310 252T324 290T328 317Q328 327 323 333T303 351Q286 365 279 375T272 405Q272 424 287 443T330 462Q355 462 373 443T392 398Q392 360 372 300T317 171T237 32T143 -99Q101
-150 56 -177T-32 -205Q-58 -205 -76 -188T-94 -145Q-94 -123 -79 -106T-44 -89Q-26 -89 -15 -94T7 -107T26 -119T50 -125Q63 -125 82 -111T117 -73Q142 -38 142 -2Q142 21 130 92T92 286Q82 331 73 359T52 399Q44 407 38 409T12 411V438Q36 440 56 442T93 448T127
454T162 462Q176 427 195 355T228 188L239 110H241Z" />
<glyph unicode="z" glyph-name="z" horiz-adv-x="389" d="M87 104Q116 91 135 76T173 35Q181 24 188 10T204 -18T221 -40T241 -49Q251 -49 257 -44T263 -32Q263 -26 260 -22T253 -14T246 -4T243 13Q243 34 258 50T293 66Q314 66 330 50T346 13Q346 -34 314 -56T236
-78Q205 -78 175 -66T107 -28Q81 -9 65 -2T33 5Q25 5 19 2T1 -9Q-4 -13 -8 -16T-18 -23L-43 -1L249 353H113Q85 353 68 340T40 292L13 295L57 449H368V439L87 104Z" />
<glyph unicode="{" glyph-name="braceleft" horiz-adv-x="348" d="M433 674Q402 668 380 659T341 635T313 599T295 550L250 379Q242 347 231 326T203 290T160 266T98 249Q126 241 144 235T172 220T187 200T191 173Q191 156 184 122T162 43Q148 -5 140 -41T132
-97Q132 -132 150 -149T213 -175L210 -187Q158 -186 123 -181T67 -166T37 -138T28 -96Q28 -85 31 -67T38 -27T49 18T63 63Q75 100 82 130T89 179Q89 205 70 221T4 249Q37 256 60 264T99 286T125 318T142 365L188 544Q198 585 216 612T263 655T334 679T436 686L433
674Z" />
<glyph unicode="|" glyph-name="bar" horiz-adv-x="220" d="M66 -18V685H154V-18H66Z" />
<glyph unicode="}" glyph-name="braceright" horiz-adv-x="348" d="M97 686Q132 685 157 683T201 678T233 668T255 654Q279 633 279 598Q279 586 276 568T269 527T258 481T244 436Q232 399 225 369T218 320Q218 294 237 278T303 250Q270 242 247 234T208 212T182
180T165 134L119 -45Q108 -87 91 -114T44 -157T-27 -180T-129 -187L-126 -175Q-65 -164 -34 -136T12 -51L57 120Q65 152 76 173T104 209T147 233T209 250Q181 257 163 264T135 279T120 299T116 326Q116 343 122 374T144 456Q159 508 167 542T175 597Q175 630 157
648T94 674L97 686Z" />
<glyph unicode="~" glyph-name="asciitilde" horiz-adv-x="570" d="M516 260Q481 212 455 194T393 175Q368 175 345 181T288 208Q253 228 228 235T176 243Q154 243 140 234T107 201L54 247Q79 291 108 311T175 331Q188 331 200 330T228 324T262 311T311 290Q329
282 342 277T364 268T379 264T393 263Q411 263 426 273T461 308L516 260Z" />
<glyph unicode="&#xa0;" glyph-name="space" horiz-adv-x="250" />
</font>
</defs>
</svg>
