<?xml version="1.0" standalone="no"?> <!DOCTYPE svg PUBLIC "-//W3C//DTD SVG 1.0//EN" "http://www.w3.org/TR/2001/REC-SVG-20010904/DTD/svg10.dtd" > <svg xmlns="http://www.w3.org/2000/svg" width="100%" height="100%">
<defs >
<font horiz-adv-x="576" ><font-face
    font-family="STIXFrakturRegular"
    units-per-em="1000"
    panose-1="0 0 0 0 0 0 0 0 0 0"
    ascent="693"
    descent="-218"
    alphabetic="0" />
<missing-glyph horiz-adv-x="500" />
<glyph unicode=" " glyph-name="space" horiz-adv-x="500" />
<glyph unicode="A" glyph-name="A" horiz-adv-x="713" d="M555 -22H541Q524 -12 512 3T491 36T479 70T473 103L238 -22Q222 -3 199 17T150 54T99 84T52 104V118Q101 137 145 165T224 233T277 325T297 446Q297 460 297 481T293 527T284 575T267 620Q255 642 232
653T184 664Q155 664 131 648T107 596Q107 567 125 545T164 500T204 451T222 389Q222 361 207 336T167 291T113 257T56 236L47 258Q57 261 70 269T95 288T114 313T122 344Q122 364 114 380T93 409T65 436T38 465T17 497T8 539Q8 576 23 605T63 654T121 684T193
695Q249 695 292 676T364 627T407 559T422 483Q422 423 407 378T363 296T292 227T196 160V159Q237 139 266 114T324 65L473 136V429Q473 488 472 529T465 609L692 693L699 665Q659 654 637 637T605 597T592 545T590 479V124Q590 92 602 78T632 63Q646 63 663 72L690
86L703 65L555 -22Z" />
<glyph unicode="B" glyph-name="B" horiz-adv-x="745" d="M604 406Q668 380 701 328T734 217Q734 166 708 122T638 45T536 -5T412 -24Q380 -24 355 -22T309 -13T270 2T235 25Q221 36 210 45T189 62T166 74T138 79Q100 79 71 67T28 30L8 44Q20 64 38 86T80 128T130
161T187 174H197Q208 180 225 193T259 234T288 310T300 431Q300 444 299 463T295 506T286 554T268 601Q254 629 234 646T186 664Q154 664 137 644T120 597Q120 562 138 544T177 509T217 469T235 401Q235 375 221 351T184 306T131 271T69 247L60 269Q70 272 83 279T108
296T127 320T135 350Q135 383 121 400T88 433Q61 456 41 479T21 540Q21 577 36 606T76 654T134 684T206 695Q266 695 312 669T384 604H386L513 704Q562 704 598 692T659 659T696 611T709 555Q709 510 687 471T604 408V406ZM592 531Q592 546 587 562T570 593T541
617T499 627Q484 627 474 624T453 615T432 598T406 573Q410 561 413 547T419 519T423 490T425 465Q425 443 423 421T415 379Q469 381 503 395T557 431T584 479T592 531ZM242 160Q265 154 282 145T315 124T343 102T369 80Q401 56 429 41T484 25Q517 25 541 38T582
75T606 131T614 199Q614 232 600 259T563 306T509 337T446 348Q439 348 428 347T406 342Q394 309 380 285T346 241T301 202T242 163V160Z" />
<glyph unicode="C" glyph-name="C" horiz-adv-x="643" d="M637 662Q628 649 615 630T584 594T545 565T501 552Q464 552 440 562T393 598Q372 577 363 560T354 525Q354 496 376 467T425 408T474 343T496 268Q496 241 483 217T447 174T397 144T338 133Q323 133 305
136T271 148L282 170Q304 159 322 159Q348 159 367 173T386 218Q386 257 368 287T328 344T288 402T270 473Q270 504 289 534T337 592T398 647T456 695Q484 669 506 655T548 641Q565 641 583 649T621 678L637 662ZM606 161Q588 126 562 93T501 34T424 -8T332 -24Q250
-24 189 10T88 99T29 222T9 356Q9 386 15 422T33 495T66 566T115 626T179 669T262 685Q299 685 321 674T357 648L341 629Q327 638 312 641T277 645Q239 645 211 622T163 563T135 484T126 399Q126 340 139 281T181 173T257 95T372 65Q434 65 485 92T586 173L606
161Z" />
<glyph unicode="D" glyph-name="D" horiz-adv-x="783" d="M185 337Q175 335 168 334T150 333Q85 333 47 370T8 469Q8 518 32 559T97 631T194 678T314 695Q401 695 483 665T631 580T735 449T775 281Q775 222 754 167T688 68Q644 26 579 1T424 -24Q372 -24 336 -9T270
26T213 60T150 76Q86 76 41 30L23 43Q35 63 52 86T92 129T142 162T204 176Q237 176 265 166T318 141T366 108T413 75T462 50T515 40Q564 40 603 56T671 103T715 174T731 265Q731 321 703 372T627 465T519 534T394 572Q375 553 367 540T359 512Q359 488 377 469T418
430T459 385T478 325Q478 299 466 275T432 232T382 202T323 191Q286 191 255 207L265 228Q285 218 306 218Q333 218 351 234T370 280Q370 299 360 313T335 343Q325 353 315 362T296 384T281 414T275 455Q275 467 282 483T300 516T325 550T355 578V580Q338 584 317
585T277 587Q242 587 206 578T139 550T90 503T71 435Q71 404 91 382T156 359Q165 359 171 359T185 361V337Z" />
<glyph unicode="E" glyph-name="E" horiz-adv-x="644" d="M637 662Q626 649 613 630T582 594T545 565T501 552Q464 552 440 562T393 598Q380 586 367 570T354 527Q354 492 378 460T431 399Q456 434 486 460T552 486Q569 486 587 479T620 462V339H598Q582 374 562
392T518 411Q486 411 453 377V375Q475 351 485 323T496 268Q496 242 483 218T447 174T397 144T338 133Q321 133 304 136T271 148L282 170Q293 164 303 162T322 159Q348 159 367 172T386 218Q386 255 368 287T328 348T288 408T270 473Q270 494 280 515T312 563T369
621T456 695Q484 669 506 655T548 641Q565 641 583 649T621 678L637 662ZM606 161Q588 126 562 93T501 34T424 -8T332 -24Q250 -24 189 10T88 99T29 222T9 356Q9 413 22 471T66 577T144 655T262 685Q299 685 321 674T357 648L341 629Q314 646 277 646Q239 646 211
623T163 563T135 484T126 399Q126 340 139 281T181 173T257 95T372 65Q434 65 485 92T586 173L606 161Z" />
<glyph unicode="F" glyph-name="F" horiz-adv-x="682" d="M675 669Q669 646 658 613T626 549T575 496T503 474Q490 474 477 477Q449 447 436 415T422 342Q422 320 436 304T463 274Q488 309 518 335T584 361Q604 361 621 354T652 336V214H630Q614 249 594 267T550
286Q535 286 518 274T485 246Q505 227 525 206T563 158T591 100T602 27Q602 -21 579 -63T517 -136T428 -186T324 -204Q272 -204 224 -192T139 -156T80 -97T58 -14Q58 19 70 44T96 91T122 134T134 179Q134 196 124 205T96 214Q79 214 60 199T32 155L9 161Q13 177
22 196T46 231T82 258T134 269Q161 269 181 261T215 238T236 206T243 170Q243 141 232 118T209 73T185 26T174 -30Q174 -61 187 -86T221 -129T268 -156T322 -166Q355 -166 384 -157T436 -128T472 -80T485 -12Q485 27 474 57T444 112T406 158T368 199T339 241T327
289Q327 318 336 344T362 396T399 443T443 487V490Q417 501 397 511T361 531Q324 554 284 574T195 595Q176 595 157 588T121 566T95 530T85 481Q85 449 95 428T123 393T162 373T206 367Q217 367 228 368T251 371V347Q237 344 221 343T193 341Q154 341 122 353T66
387T30 436T17 497Q17 535 33 571T77 634T146 678T237 695Q271 695 301 688T357 670T406 644T450 616Q480 596 511 585T560 574Q577 574 605 598T654 675L675 669Z" />
<glyph unicode="G" glyph-name="G" horiz-adv-x="723" d="M573 425Q603 419 629 406T674 372T704 327T715 272Q715 209 687 157T618 67Q569 22 505 -1T359 -24Q279 -24 215 5T105 85T35 202T10 343Q10 411 24 473T70 582T150 657T269 685Q290 685 312 677T350
655L336 633Q322 644 304 646T276 648Q229 648 202 619T159 546T140 450T135 352Q135 291 147 231T189 122T266 44T385 14Q438 14 478 31T544 80T584 155T598 251Q598 312 580 351T518 391Q487 391 445 364V362Q472 333 489 302T507 238Q507 212 495 188T461 145T411
115T352 104Q335 104 317 107T283 119L294 141Q316 130 334 130Q361 130 379 147T397 193Q397 225 379 255T337 313Q301 357 284 391T266 466Q266 502 284 535T331 597T391 651T452 695L467 677Q451 661 433 643T398 605T372 564T361 520Q361 505 366 487T379 450T398
416T420 390Q436 396 456 407T494 431T524 461T537 493Q537 500 532 508T521 526T509 548T504 577Q504 595 515 612T544 645T581 673T619 695L632 678Q621 670 611 654T601 618Q601 604 609 593T628 572T646 549T655 521Q655 504 648 490T628 465T602 444T573 428V425Z"
/>
<glyph unicode="H" glyph-name="H" horiz-adv-x="736" d="M604 682Q585 656 563 632T513 588T454 558T385 547Q350 547 320 556T252 597Q211 564 211 506Q211 471 225 434T268 367Q312 393 344 411T401 444T448 470T492 494Q549 481 594 455T669 393T716 312T732
215Q732 175 726 144T707 89T679 44T643 3Q613 -28 579 -54T512 -104T449 -153T399 -204H386Q356 -173 326 -158T254 -142Q222 -142 192 -157T140 -198L120 -189Q132 -162 149 -138T189 -94T240 -64T305 -53Q339 -53 369 -66T434 -117Q488 -83 523 -45T578 32T607
106T615 172Q615 215 602 255T565 326T507 375T430 394Q401 394 368 383T287 340L331 284Q353 256 359 237T366 202Q366 179 358 157T329 110T274 52T189 -22Q180 -15 163 -5T128 15T95 33T72 43Q62 34 53 24Q45 16 38 7T26 -10L2 5L106 152Q113 147 134 135T179
109T220 85T241 74Q254 86 262 98T271 136Q271 161 247 191T193 258T139 340T114 440Q114 477 135 513T186 583T252 644T316 695Q347 666 380 654T447 642Q480 642 516 651T585 695L604 682Z" />
<glyph unicode="I" glyph-name="I" horiz-adv-x="679" d="M670 667Q664 644 654 618T625 569T577 531T505 516Q461 516 430 528T369 555T309 582T235 595Q216 595 196 589T158 569T129 533T118 481Q118 455 127 437T151 405T184 386T220 380Q254 380 285 394L293
372Q271 361 254 357T216 352Q138 352 94 392T50 497Q50 535 66 571T110 634T179 678T267 695Q324 695 361 683T428 656T489 629T563 616Q582 616 596 623T621 639T638 659T647 674L670 667ZM644 401Q624 419 609 425T579 431Q559 431 541 417T522 373Q522 352
538 328T575 277T612 219T629 152Q629 114 610 81T558 22T482 -19T390 -34Q325 -34 288 -24T223 6Q197 26 181 48T153 98Q142 124 127 136T97 148Q76 148 57 134T27 97L4 103Q7 118 19 139T50 180T93 214T147 228Q183 228 206 215T245 182T271 137T289 87Q304 43
330 24T398 4Q447 4 476 32T506 98Q506 135 492 163T460 219T428 277T413 347Q413 375 425 398T456 438T499 464T548 473Q573 473 590 469T620 457T643 439T662 417L644 401Z" />
<glyph unicode="J" glyph-name="J" horiz-adv-x="684" d="M668 653Q662 630 651 604T619 554T568 516T494 500Q450 500 419 515T360 547T302 580T228 595Q209 595 189 589T151 569T122 534T111 482Q111 459 119 441T143 411T177 392T217 385Q247 385 278 399L286
376Q264 365 247 361T209 357Q174 357 144 367T92 396T56 444T43 508Q43 550 59 584T103 643T172 681T260 695Q298 695 326 688T377 671T419 648T458 625T500 607T552 600Q574 600 590 607T618 624T635 644T645 660L668 653ZM655 352Q639 383 616 397T557 411Q548
411 537 407T516 394T500 373T493 344Q493 311 512 275T555 199T598 116T618 28Q618 -19 595 -61T534 -135T445 -185T340 -204Q268 -204 221 -189T144 -151Q126 -137 116 -122T100 -91T93 -60T91 -32Q91 -23 93 -12T99 12T105 37T108 60Q108 71 102 80T81 89Q64
89 53 78T30 45L7 51Q14 73 26 93T54 129T90 154T134 164Q163 164 182 156T212 135T227 106T231 73Q231 42 221 15T211 -40Q211 -60 217 -82T239 -123T281 -154T350 -166Q383 -166 409 -155T455 -123T485 -74T496 -13Q496 28 479 64T440 137T402 213T384 301Q384
334 398 362T433 412T481 445T534 457Q567 457 590 449T631 428T659 398T678 362L655 352Z" />
<glyph unicode="K" glyph-name="K" horiz-adv-x="761" d="M755 93Q743 81 722 65T677 32T630 1T589 -22H575Q537 1 518 28T486 86Q476 113 470 149T454 218T427 273T379 296Q369 296 358 292T334 283V282Q357 255 362 237T368 202Q368 179 360 157T331 110T276
52T191 -22Q182 -15 165 -5T129 16T94 34T71 44Q61 35 52 25Q44 17 37 8T25 -9L4 5L108 152Q115 147 136 135T181 109T222 85T243 74Q256 86 264 98T273 136Q273 161 249 190T195 255T141 337T116 439Q116 503 142 551T210 631T308 679T422 695Q474 695 521 679T604
636T666 573T702 497L680 490Q662 530 635 560T574 610T502 641T424 651Q390 651 354 643T289 615T240 566T220 492Q220 474 224 454T242 415H244Q246 446 259 476T293 529T344 567T407 581Q446 581 477 571T538 534Q553 520 564 498T588 454T614 415T649 394V380L482
331V328Q526 303 551 262T591 176Q605 128 628 99T668 69Q672 69 681 73T702 84T723 99T739 113L755 93ZM558 384Q516 396 495 419T461 466Q446 495 428 516T382 537Q356 537 336 523T301 487T278 438T270 384Q270 370 275 359T283 344L313 308L558 382V384Z" />
<glyph unicode="L" glyph-name="L" horiz-adv-x="593" d="M584 133Q576 108 563 81T531 30T485 -9T424 -24Q381 -24 344 -9T273 25T207 58T140 74Q125 74 109 71T77 60T49 36T28 -4L5 3Q10 28 23 57T59 112T110 155T178 174Q190 187 198 205T207 245Q207 279 185
306T137 361T88 423T66 505Q66 548 89 583T148 643T230 681T319 695Q359 695 402 684T481 651T540 598T564 525Q564 486 552 459T525 410T498 367T486 323Q486 301 494 285T514 258T542 240T572 228L563 206Q534 208 503 219T446 247T404 286T387 335Q387 378 398
404T422 451T446 495T457 556Q457 584 446 603T416 635T375 652T329 657Q303 657 276 652T226 634T189 600T174 546Q174 510 194 481T238 424T282 370T302 313Q302 291 293 271T272 233T244 200T217 174Q258 168 292 152T356 119T413 89T466 76Q491 76 517 88T563
141L584 133Z" />
<glyph unicode="M" glyph-name="M" horiz-adv-x="1006" d="M995 89Q986 77 971 61T938 30T901 0T864 -22H850Q794 -2 773 52T752 180Q752 229 766 276T803 366T857 441T920 494V496Q882 502 863 515T835 546T822 581T813 614T795 638T757 648Q741 648 726 640T700
619T681 587T674 549Q679 525 681 494T683 433Q683 401 682 372T675 313T659 251T628 183Q615 159 598 132T562 78T522 26T481 -22Q472 -17 460 -9T435 9T409 26T385 40Q377 34 367 24T340 -9L318 5L412 150Q419 145 433 135T461 115T488 96T506 88Q519 88 528
105T542 151T551 214T556 285T558 354T558 411Q558 439 558 468T557 524T552 573T544 609Q538 626 522 637T483 648Q467 648 453 640T428 620T411 592T404 562V439Q404 406 403 376T396 316T380 254T349 185Q336 161 319 134T283 79T243 26T202 -22Q192 -16 175
-6T141 14T110 31T90 40Q84 37 72 24T46 -9L24 5L118 150Q125 145 141 135T175 115T208 96T228 88Q241 88 249 103T264 145T273 204T277 273T279 342T279 405Q279 424 279 450T276 506T267 563T250 613T222 650T180 664Q148 664 131 644T113 597Q113 572 121 556T143
528T170 504T198 480T219 448T228 401Q228 375 214 351T177 306T124 271T62 247L53 269Q63 272 76 279T101 296T120 320T128 350Q128 373 120 389T99 419T71 445T44 470T23 500T14 540Q14 577 29 606T69 654T127 684T199 695Q254 695 303 671T379 604H381Q389 622
403 637T434 665T472 684T513 691Q561 691 596 671T655 604H657Q676 641 710 666T787 691Q845 691 873 671T914 624Q923 606 928 587T940 551T958 524T991 511V497Q949 478 925 448T889 380T873 298T869 208Q869 195 869 170T873 119T884 74T905 55Q914 55 924
61T944 75T962 91T976 105L995 89Z" />
<glyph unicode="N" glyph-name="N" horiz-adv-x="746" d="M737 497Q695 478 671 448T634 380T617 298T613 208Q613 196 613 171T617 120T626 75T644 55Q653 55 663 61T683 75T701 91T715 105L734 89Q725 77 710 61T677 30T640 0T603 -22H589Q561 -12 543 7T515
52T500 110T496 180Q496 228 510 276T547 366T599 441T659 494V496Q616 503 597 519T569 554Q562 570 559 587T550 618T531 641T489 650Q474 650 458 642T430 621T409 589T401 549Q406 509 408 472T411 400Q411 348 399 297T356 185Q343 161 326 134T290 79T250
26T209 -22Q199 -16 181 -6T144 14T109 31T88 40Q83 35 70 23T44 -9L22 5L116 150Q123 145 141 135T178 115T213 96T235 88Q248 88 256 103T271 145T280 204T284 273T286 342T286 405Q286 424 285 450T281 506T270 563T251 613T221 650T178 664Q146 664 129 644T111
597Q111 572 119 556T141 528T168 504T196 480T217 448T226 401Q226 375 212 351T175 306T122 271T60 247L51 269Q61 272 74 279T99 296T118 320T126 350Q126 382 108 403T69 443T30 483T12 540Q12 577 27 606T67 654T125 684T197 695Q224 695 251 689T304 671T349
642T383 604H385Q406 650 446 671T532 693Q550 693 567 689T600 679Q624 669 636 654T655 620T666 584T677 550T697 524T737 511V497Z" />
<glyph unicode="O" glyph-name="O" horiz-adv-x="766" d="M8 27Q16 47 29 68T60 109T97 143T141 167Q155 187 161 211T168 252Q168 274 160 292T138 327T110 360T81 395T60 436T51 487Q51 518 62 548T93 605T135 655T183 695Q195 682 214 676T257 670Q276 670
292 673T322 680T351 687T384 691Q460 691 514 670T619 607Q682 553 719 474T757 294Q757 265 752 235T735 175T708 118T670 70Q626 28 561 2T406 -24Q354 -24 318 -9T252 26T195 60T132 76Q113 76 85 65T26 14L8 27ZM713 277Q713 344 690 401T627 501T531 567T411
591Q398 591 382 589T349 584T317 579T289 577Q243 577 218 597T181 647Q169 639 161 627T149 599T142 568T140 539Q140 500 159 473T201 420T244 367T263 299Q263 267 243 237T187 176Q219 176 247 166T300 141T348 108T395 75T444 50T497 40Q546 40 585 58T653
109T697 184T713 277Z" />
<glyph unicode="P" glyph-name="P" horiz-adv-x="742" d="M733 505Q695 498 681 471T666 410Q666 379 677 353T701 299T726 239T737 165Q737 129 715 95T660 35T588 -8T514 -24Q450 -24 400 -2V-204H283V31Q259 52 227 52Q192 52 163 34T113 -23L93 -14Q100 13
112 42T145 96T194 137T262 154Q267 154 272 154T283 153V403Q283 416 283 440T279 492T270 549T253 600Q238 629 219 646T170 664Q138 663 121 643T103 598Q103 561 121 541T160 504T200 464T218 399Q218 373 204 348T167 300T114 261T52 236L43 258Q53 261 66
269T91 290T110 317T118 348Q118 380 100 401T61 442T22 484T4 541Q4 578 19 607T59 655T118 685T190 695Q255 695 303 671T376 605H378Q399 651 432 672T521 693Q562 693 587 682T626 653T650 614T668 574T692 541T733 521V505ZM659 505Q621 508 599 520T565 548T547
582T533 615T515 640T482 650Q456 650 440 637T415 604T403 559T400 514V135Q420 120 435 101T465 65T497 36T538 24Q551 24 567 28T598 44T621 73T631 120Q631 147 618 175T590 234T562 296T549 364Q549 403 577 441T659 503V505Z" />
<glyph unicode="Q" glyph-name="Q" horiz-adv-x="791" d="M782 23Q762 -15 732 -39T660 -64Q625 -64 602 -44T567 5Q532 -9 492 -16T403 -24Q351 -24 315 -9T249 26T192 60T129 76Q110 76 82 65T23 14L5 27Q13 47 26 68T57 109T94 143T138 167Q152 187 158 211T165
252Q165 274 157 292T135 327T107 360T78 395T57 436T48 487Q48 518 59 548T90 605T132 655T180 695Q192 682 211 676T254 670Q273 670 289 673T319 680T348 687T381 691Q457 691 511 670T616 607Q679 553 716 474T754 294Q754 265 749 235T732 174T705 117T666
68Q673 39 681 21T707 2Q721 2 737 10T766 36L782 23ZM443 140Q460 172 487 187T544 203Q584 203 612 177T646 104Q677 136 693 180T710 277Q710 344 687 401T624 501T528 567T408 591Q395 591 379 589T346 584T314 579T286 577Q240 577 215 597T178 647Q166 639
158 627T146 599T139 568T137 539Q137 500 156 473T198 420T241 367T260 299Q260 267 240 237T184 176Q216 176 244 166T297 141T345 108T392 75T441 50T494 40Q524 40 553 48V49Q547 66 543 83T532 113T517 135T494 143Q478 143 459 124L443 140Z" />
<glyph unicode="R" glyph-name="R" horiz-adv-x="798" d="M791 94Q780 82 762 67T722 35T680 3T641 -22H627Q598 -13 579 10T549 64T533 126T528 187Q528 211 527 236T520 282T504 318T476 340L402 322Q381 231 330 141T205 -22Q195 -16 177 -6T141 14T108 31T87
40Q82 35 69 23T43 -9L21 5L115 150Q122 145 140 135T177 115T213 97T235 89Q254 89 264 122T279 205T285 308T286 405Q286 424 285 450T281 506T270 563T251 613T221 650T178 664Q146 664 129 644T111 597Q111 572 119 556T141 528T168 504T196 480T217 448T226
401Q226 375 212 351T175 306T122 271T60 247L51 269Q61 272 74 279T99 296T118 320T126 350Q126 382 108 403T69 443T30 483T12 540Q12 577 27 606T67 654T125 684T197 695Q256 695 300 669T374 607L507 704Q556 704 592 692T653 659T690 611T703 555Q703 499
673 453T579 383V381Q610 362 626 332T650 266T662 196T671 133T687 87T721 69Q725 69 732 74T747 86T762 101T775 114L791 94ZM439 364Q482 373 510 391T556 433T579 481T586 531Q586 546 581 562T564 593T535 617T493 627Q464 627 442 615T390 573Q394 561 397
547T404 519T408 490T410 465Q410 443 409 412T406 357L439 364Z" />
<glyph unicode="S" glyph-name="S" horiz-adv-x="765" d="M383 442Q358 452 347 454T322 456Q301 456 285 448T257 426T241 394T235 357Q235 326 256 303T311 280Q329 280 342 285T366 298T387 318T410 341Q455 384 495 404T581 424Q613 424 644 413T700 380T740
324T755 246Q755 187 727 138T652 52T544 -4T416 -24Q323 -24 248 6T120 90T38 215T9 367Q9 426 34 484T103 590T207 666T338 695Q391 695 426 685T489 661T543 638T605 627Q632 627 659 642T715 685L733 672Q722 652 706 628T667 581T618 545T559 530Q516 530
481 540T415 562T354 585T289 595Q236 595 192 579T115 533T65 462T47 369Q47 295 74 244T151 161T267 115T413 101Q457 101 510 103T609 120T686 163T717 248Q717 296 685 327T604 358Q579 358 559 345T520 312T482 269T438 226T383 193T311 180Q279 180 252 194T206
232T176 283T165 338Q165 368 177 395T208 442T254 474T309 486Q332 486 353 482T394 459L383 442Z" />
<glyph unicode="T" glyph-name="T" horiz-adv-x="693" d="M668 661Q662 638 651 608T619 550T568 503T496 484Q475 484 451 493T404 513Q392 504 387 488T382 457Q382 439 398 423T433 390T469 354T486 309Q486 280 475 258T445 222T399 200T341 192Q304 192 273
208L283 229Q300 219 319 219Q343 219 359 236T376 281Q376 299 367 315T345 349T324 386T314 427Q314 451 329 473T374 527L373 530Q338 554 299 574T204 595Q183 595 162 587T123 563T94 525T82 476Q82 416 115 385T194 351V327Q155 327 122 340T63 375T24 426T10
487Q10 528 26 565T70 632T139 678T230 695Q299 695 351 673T446 622Q476 602 505 593T553 584Q562 584 573 587T598 599T623 624T647 667L668 661ZM685 110Q667 82 647 58T600 15T540 -13T462 -24Q410 -24 373 -11T304 18T243 47T178 60Q169 60 154 58T122 48T89
27T59 -8L41 5Q54 39 72 67T114 116T164 148T222 160Q271 160 311 145T389 112T464 79T543 64Q587 64 614 79T668 126L685 110Z" />
<glyph unicode="U" glyph-name="U" horiz-adv-x="711" d="M553 -22H539Q522 -12 510 3T489 36T477 72T471 105L209 -22Q193 -4 168 15T115 53T59 84T7 104V118Q29 128 53 141T97 178T130 237T143 327V551Q143 582 131 596T102 611Q88 611 69 603T29 581L15 606L179
696H194Q214 686 228 668T251 629T264 588T268 555V408Q268 369 262 339T239 283T198 230T133 172Q148 166 170 152T217 121T262 87T295 60L471 140V430Q471 485 470 528T463 610L690 696L697 668Q657 657 635 640T603 599T590 546T588 480V124Q588 92 600 78T630
63Q644 63 661 72L688 86L701 65L553 -22Z" />
<glyph unicode="V" glyph-name="V" horiz-adv-x="755" d="M740 505Q702 498 688 471T673 411Q673 379 684 353T708 299T733 239T744 165Q744 145 735 124T711 83T675 45T632 13Q598 -8 558 -16T460 -24Q392 -24 350 -9T274 31Q248 51 224 64T179 77Q144 77 109
58T51 -4L33 3Q42 39 60 71T103 126T155 164T211 179Q222 185 236 198T262 238T282 312T290 431Q290 444 289 463T285 506T276 554T258 601Q244 629 224 646T177 664Q145 664 128 644T110 596Q110 559 128 540T167 504T207 465T225 401Q225 375 211 350T174 302T121
263T59 238L50 260Q60 263 73 270T98 287T117 311T125 341Q125 364 117 381T96 411T68 437T41 464T20 497T11 540Q11 577 26 606T66 654T125 684T196 695Q257 695 302 669T374 604H376Q395 639 431 666T520 693Q563 693 588 682T630 654T655 616T675 576T699 542T740
521V505ZM666 505Q628 508 606 520T572 548T552 582T538 615T518 640T484 650Q454 650 431 626T394 563Q404 539 409 512T415 465Q415 432 411 397T390 325T344 250T261 175V173Q289 171 312 159T358 131T400 95T441 61T484 35T533 24Q551 24 570 28T604 44T628
73T638 120Q638 146 625 174T597 232T569 296T556 365Q556 403 584 440T666 503V505Z" />
<glyph unicode="W" glyph-name="W" horiz-adv-x="1003" d="M989 504Q950 499 935 472T919 411Q919 378 930 352T954 298T979 240T990 165Q990 133 964 92T895 20Q866 0 833 -12T762 -24Q710 -24 665 -10T588 30Q561 6 523 -9T427 -24Q382 -24 349 -9T289 26T236
60T182 76Q159 76 138 68T100 48T70 21T53 -9L32 -3Q41 34 58 67T99 124T149 163T207 179Q219 186 233 198T261 237T282 308T291 422Q291 458 286 500T268 579T234 639T179 664Q150 664 131 644T112 596Q112 562 129 541T168 500T207 459T225 400Q225 371 210 346T172
301T119 267T62 247L52 269Q63 272 76 279T100 296T119 320T127 350Q127 382 109 402T70 441T31 483T13 544Q13 580 28 608T69 655T129 685T204 695Q264 695 306 669T375 606H377Q389 622 403 638T435 666T476 685T530 693Q562 693 591 682T640 657Q665 670 695
681T758 693Q808 693 837 682T882 654T906 615T923 575T946 541T989 521V504ZM912 504Q876 509 855 521T821 550T801 584T784 616T762 640T726 650Q697 650 673 635T632 598T605 549T595 499Q595 464 612 437T649 382T686 325T704 253Q704 222 692 183T662 114Q672
90 688 73T724 46T762 30T799 25Q820 25 836 33T862 53T878 79T884 105Q884 138 871 169T843 232T815 297T802 367Q802 405 832 443T912 502V504ZM257 174Q300 166 331 142T389 91T439 45T488 25Q516 25 537 39T572 76T593 128T600 186Q600 215 589 241T563 286Q536
321 521 358T506 434Q506 476 526 519T581 602Q566 628 550 639T504 650Q486 650 469 642T437 622T411 595T395 566Q401 551 408 522T416 465Q416 427 411 391T388 319T340 248T256 175L257 174Z" />
<glyph unicode="X" glyph-name="X" horiz-adv-x="702" d="M602 522Q595 526 575 538T534 562T496 583T477 593Q467 593 455 576T433 532T417 476T410 419V378Q429 378 449 379T490 386T529 403T563 433L580 424Q568 392 555 369T522 331T476 309T410 301V230Q410
207 420 181T448 133T487 97T534 82Q545 82 560 87T592 101T622 119T645 137L665 111L492 -22H478Q451 -12 428 0T384 28T347 65T313 116Q290 79 256 40T187 -31Q178 -25 161 -16T127 3T94 19T73 27Q66 22 52 10T29 -18L7 -4L101 142Q108 137 128 126T169 102T208
81T227 71Q237 71 248 87T270 130T286 193T293 271V301H247Q218 301 191 285T141 230L121 235Q138 306 177 342T293 378V419Q293 444 286 473T265 527T232 569T189 586Q174 586 156 579T121 562T88 540T63 519L41 543Q90 583 138 620T229 695H243Q269 687 292 671T334
634T367 591T390 548Q402 565 417 584T448 623T482 661T516 695Q527 689 544 679T578 660T609 643T630 633Q632 635 637 640T649 652T662 666T674 682L696 668L602 522Z" />
<glyph unicode="Y" glyph-name="Y" horiz-adv-x="683" d="M388 604Q394 620 404 635T430 664T463 685T504 693Q553 693 586 667T638 598T666 500T674 384Q674 283 655 202T599 51T511 -81T394 -204H381Q352 -173 325 -158T256 -142Q219 -142 188 -157T135 -199L115
-189Q127 -162 143 -137T183 -94T236 -64T307 -53Q341 -53 375 -72T433 -118Q446 -104 465 -73T503 16T535 160T549 375Q549 428 548 477T542 565T524 627T490 650Q472 650 457 641T430 616T412 584T405 550Q408 526 410 507T413 463Q413 404 400 360T360 281T293
214T201 149V147Q214 141 230 134T262 118T293 100T319 80L407 115L419 92L234 -12Q218 6 196 21T148 48T96 70T46 85V99Q99 122 143 149T220 213T270 300T288 420Q288 438 288 460T284 507T275 555T258 599Q240 631 220 647T172 664Q141 664 124 643T106 596Q106
567 123 544T162 496T200 443T218 378Q218 350 203 325T163 278T109 242T51 221L43 243Q53 246 66 255T91 276T110 304T118 334Q118 364 101 386T63 431T25 478T7 539Q7 577 22 606T62 655T123 685T197 695Q220 695 247 690T300 673T349 645T386 604H388Z" />
<glyph unicode="Z" glyph-name="Z" horiz-adv-x="638" d="M436 266Q479 259 514 241T574 195T614 129T628 44Q628 -6 609 -51T555 -130T468 -184T353 -204Q324 -204 298 -201T247 -190T202 -167T159 -129Q144 -112 138 -95T128 -63T117 -39T95 -30Q75 -30 55 -44T25
-81L2 -74Q5 -60 15 -40T41 0T80 34T134 48Q165 48 185 39T219 14T240 -20T256 -59Q264 -81 273 -100T295 -134T328 -157T377 -166Q417 -166 442 -149T480 -105T498 -42T503 29Q503 77 492 116T459 182T409 224T346 239Q316 239 294 234T254 219T221 192T189 155L165
169Q176 186 188 202T215 231T251 255T299 271V273Q274 277 256 287T224 309T201 335T184 362L211 380Q237 339 271 321T339 303Q368 303 394 315T441 350T474 405T486 476Q486 524 471 557T430 610T374 638T310 647Q235 647 180 605T90 468L65 475Q90 574 158
634T340 695Q392 695 439 681T523 640T581 573T603 480Q603 409 561 351T436 268V266Z" />
<glyph unicode="a" glyph-name="a" horiz-adv-x="440" d="M336 -18H322Q303 -8 288 14T264 60Q231 40 191 19T112 -18H98Q51 20 29 69T7 191Q7 240 25 284T76 355Q114 387 156 412T230 468H244Q277 447 317 422T411 382V368Q391 366 378 353T365 318V98Q365 95
365 88T368 75T375 63T387 58Q401 58 423 77L435 59L336 -18ZM263 336L176 389Q154 369 141 347T120 301T111 252T109 199Q109 172 114 147T128 101T150 68T180 56Q187 56 199 60T223 70T247 84T263 97V336Z" />
<glyph unicode="b" glyph-name="b" horiz-adv-x="426" d="M423 182Q423 152 400 124T345 71T277 23T218 -18H204Q159 0 112 20T13 53V68Q27 74 36 77T50 85T58 101T61 130V518Q61 569 45 606T7 669L21 682Q49 662 71 637T108 590Q118 609 133 628T169 662T216
686T275 695Q282 695 289 695T314 692V675Q274 675 246 658T199 613T172 553T163 487V401L306 468H320Q367 449 395 419T423 352V182ZM321 290Q321 321 312 344T285 385Q277 393 268 399T254 406Q250 406 240 402T216 392T188 380T163 368V114L276 61Q291 72 299
82T313 102T319 126T321 159V290Z" />
<glyph unicode="c" glyph-name="c" horiz-adv-x="298" d="M210 328L149 404Q145 402 141 399T129 388Q114 368 112 336T109 272V212Q109 195 109 176T112 137T120 100T135 70Q143 59 158 52T189 45Q206 45 228 50T279 71L288 48L117 -18H103Q73 1 54 26T25 80T11
137T7 196Q7 241 11 274T28 334T69 385T141 438Q160 450 177 456T215 468H229L294 384L210 328Z" />
<glyph unicode="d" glyph-name="d" horiz-adv-x="419" d="M417 191Q417 165 407 144T380 104T345 69T306 37Q292 26 279 14T246 -18H231Q222 -13 203 -5T161 12T116 26T78 32H7V46Q27 48 40 61T54 95V381Q86 390 120 405T185 439V442Q160 454 132 469T79 503T39
544T23 594Q23 624 38 643T79 674T136 690T200 695V678Q189 676 175 673T149 663T129 646T120 623Q120 603 131 590T163 566T210 544T267 516Q303 496 331 478T378 439T407 397T417 346V191ZM315 313Q315 339 309 356T293 385T268 407T236 426Q213 418 178 398Q171
394 167 391T161 383T157 370T156 348V122L286 67Q306 87 310 108T315 158V313Z" />
<glyph unicode="e" glyph-name="e" horiz-adv-x="343" d="M109 169Q109 143 120 121T147 82T183 55T221 45Q224 45 237 49T265 59T296 71T319 81L329 60L162 -18H148Q137 -18 125 -13T103 -1T83 14T70 28Q33 71 20 121T7 219Q7 265 18 300T51 363T102 411T171
447Q188 454 208 459T247 468H261L339 255L109 169ZM221 244Q230 248 234 255T238 276Q238 283 231 302T215 344T196 388T181 418Q164 415 151 404Q137 395 129 378T117 342T111 301T109 263V201L221 244Z" />
<glyph unicode="f" glyph-name="f" horiz-adv-x="290" d="M177 389L148 -209H89L60 389H1V403Q9 406 18 409T36 420T50 439T56 469Q56 492 53 517T49 568Q49 584 53 606T67 647T94 680T137 694Q147 694 155 689T173 676T192 664T216 658Q233 658 246 663T271 684L285
676Q280 664 274 646T257 610T233 580T197 567Q172 567 153 577T116 588Q102 588 93 579T83 549Q83 516 97 496T134 464T186 448T247 444H290V389H177Z" />
<glyph unicode="g" glyph-name="g" horiz-adv-x="424" d="M369 112Q369 77 376 56T392 18Q402 0 409 -18T416 -54Q416 -93 398 -122T351 -170T287 -199T218 -209Q183 -209 161 -204T125 -192T102 -175T87 -157Q76 -142 62 -132T12 -121V-101Q40 -90 70 -83T116
-76Q133 -76 145 -82T166 -97T180 -118T188 -138Q193 -155 204 -167T226 -180Q266 -180 291 -163T317 -93Q317 -71 311 -56T296 -25T279 10T268 61H267Q234 41 191 20T110 -18H96Q50 20 28 69T6 191Q6 240 24 284T75 355Q94 371 115 385T157 412T198 439T234 468H248Q281
447 319 422T410 382V368Q390 366 380 353T369 318V112ZM267 336L175 389Q134 347 121 300T108 199Q108 172 112 147T125 101T146 68T176 56Q183 56 196 60T224 70T250 84T267 97V336Z" />
<glyph unicode="h" glyph-name="h" horiz-adv-x="434" d="M429 83Q429 43 416 3T379 -76T324 -148T256 -209L242 -194Q260 -173 275 -153T302 -107T320 -50T327 26V284Q327 352 291 385Q283 393 274 399T259 406Q256 406 246 402T223 392T195 380T169 368V116L226
86Q228 86 234 92T247 108T262 126T273 141L293 125L191 -18H177Q166 -11 149 -1T108 20T58 39T1 53V68Q33 73 50 83T67 128V518Q67 569 51 607T13 669L27 682Q55 662 77 637T114 590Q124 608 139 627T175 661T222 685T281 695Q287 695 298 695T320 692V675Q280
675 252 658T205 613T178 553T169 487V401L312 468H326Q372 452 400 419T429 355V83Z" />
<glyph unicode="i" glyph-name="i" horiz-adv-x="296" d="M188 651Q188 645 183 631T170 603T153 577T134 565Q125 565 115 576T97 602T84 631T79 651Q79 668 94 681T134 694Q159 694 173 681T188 651ZM188 -18H174Q159 -11 144 0T115 28T93 68T84 124V347Q84
370 78 374T66 379Q61 379 55 376T41 368T26 358T15 349L0 371L129 468H143Q167 447 196 429T251 401V387Q241 386 230 384T209 376T193 363T186 342V170Q186 143 189 127T197 101T210 89T228 86Q235 86 243 90T260 104L276 121L296 104L188 -18Z" />
<glyph unicode="j" glyph-name="j" horiz-adv-x="268" d="M204 652Q204 646 199 632T186 604T169 578T150 566Q141 566 131 577T113 603T100 632T95 652Q95 669 110 682T150 695Q175 695 189 682T204 652ZM267 387Q257 386 246 384T225 376T209 363T202 342V-41Q202
-83 214 -120T244 -183L229 -197Q208 -177 191 -159T162 -122Q154 -136 141 -151T109 -180T71 -201T29 -209Q22 -209 15 -209T0 -206V-189Q18 -189 36 -180T68 -152T91 -103T100 -33V345Q100 368 94 372T82 377Q78 377 71 373T57 364T42 353T31 344L16 366L145
468H159Q183 447 212 429T267 401V387Z" />
<glyph unicode="k" glyph-name="k" horiz-adv-x="329" d="M175 390V123L242 93Q244 93 251 101T266 120T282 142T293 159L313 142L207 -18H193Q182 -11 163 0T119 23T66 45T7 60V75Q39 80 56 90T73 135V390H2V404Q14 406 27 410T50 422T66 440T73 466V518Q73 569
57 607T19 669L33 682Q61 662 83 637T120 590Q130 608 145 627T179 661T224 685T283 695Q289 695 300 695T322 692V675Q282 675 254 658T209 613T183 553T175 487V445H212V507Q212 537 222 557T248 590T283 608T322 614V505H308Q304 520 296 526T280 532Q265 532
253 515T241 465V445H322V390H175Z" />
<glyph unicode="l" glyph-name="l" horiz-adv-x="309" d="M193 -18H179Q168 -11 151 -1T110 20T60 39T3 53V68Q35 73 52 83T69 128V518Q69 569 53 607T15 669L29 682Q57 662 79 637T116 590Q126 608 141 627T178 661T226 685T287 695V675Q226 655 199 605T171
487V116L233 84Q235 84 242 91T258 107T275 125T287 140L307 124L193 -18Z" />
<glyph unicode="m" glyph-name="m" horiz-adv-x="814" d="M704 -18H688Q659 -4 639 28T618 124V353L556 400L459 355V139Q459 116 469 99T505 82V68Q487 68 471 60T442 39T422 10T415 -25H401Q401 -7 394 9T374 39T345 60T311 68V82Q335 82 346 99T357 139V296Q357
303 357 314T354 337T346 360T332 381Q324 389 316 393T298 398Q294 398 281 393T253 381T222 367T198 355V139Q198 116 208 99T244 82V68Q226 68 210 60T181 39T162 10T154 -25H140Q140 -7 133 9T113 39T85 60T50 68V82Q74 82 85 99T96 139V344Q96 363 89 368T72
374Q67 374 57 370T23 344L8 365L118 468H133Q163 455 177 434T195 389L353 468H367Q403 456 422 436T451 387L622 468H636Q649 457 665 447T699 428T733 413T764 406V391Q750 389 735 381T720 357V160Q720 133 721 117T725 91T732 79T742 76Q748 76 756 78T774
89L786 102L805 84L704 -18Z" />
<glyph unicode="n" glyph-name="n" horiz-adv-x="532" d="M426 -18H410Q381 -4 361 28T340 124V355L290 399L195 357V139Q195 116 205 99T241 82V68Q223 68 207 60T178 39T159 10T151 -25H137Q137 -7 130 9T109 39T80 60T47 68V82Q71 82 82 99T93 139V344Q93 362
86 368T69 374Q65 374 62 374T53 370T41 361T20 344L5 365L115 468H130Q160 456 174 434T192 390L358 468H372Q383 458 397 448T426 428T457 413T486 406V391Q469 388 456 380T442 349V160Q442 133 443 117T446 91T453 79T464 76Q469 76 478 78T496 89L508 102L527
85L426 -18Z" />
<glyph unicode="o" glyph-name="o" horiz-adv-x="414" d="M405 189Q405 165 394 144T367 103T330 67T291 36Q280 28 265 15T230 -18H216Q200 -7 177 3T125 22T66 36T3 42V56Q25 64 38 79T51 120V375Q102 389 157 413T255 468H269Q282 463 296 456T323 441T345
427T359 417Q368 406 376 393T391 365T401 336T405 310V189ZM271 66Q295 86 299 116T303 193Q303 218 302 244T297 294T284 339T258 375Q246 386 231 390T205 394Q191 394 178 385T153 365V117L271 66Z" />
<glyph unicode="p" glyph-name="p" horiz-adv-x="471" d="M471 179Q471 152 450 125T397 72T333 23T276 -18H261Q253 -12 238 -6T212 3V-209H110V23Q91 23 68 18T22 -17L5 -6Q26 49 52 77T110 113V353Q110 375 100 391T79 422T57 453T47 490Q47 518 63 542T105
586L122 571Q116 563 112 556T107 528Q107 510 121 499T154 477T190 449T212 401L358 468H372Q414 450 442 419T471 350V179ZM369 290Q369 321 360 344T333 385Q325 393 317 400T304 407Q300 407 289 403T265 393T237 380T212 368V112Q245 104 272 93T325 61Q340
72 348 82T361 102T367 126T369 159V290Z" />
<glyph unicode="q" glyph-name="q" horiz-adv-x="415" d="M392 395Q375 395 367 385T359 351V-209H257V57Q219 36 184 17T107 -18H92Q46 20 24 70T1 198Q1 241 19 285T70 355Q111 388 151 413T224 468H238Q260 456 279 446T317 428T359 416T409 410V395H392ZM257
342L170 389Q155 375 143 354T121 307T108 255T103 205Q103 176 107 150T121 102T143 69T174 56Q181 56 193 60T219 72T243 85T257 97V342Z" />
<glyph unicode="r" glyph-name="r" horiz-adv-x="394" d="M317 313L251 381L206 337V152Q206 132 207 124T216 111Q221 108 230 103T250 94T269 87T281 84Q283 84 293 91T315 108T340 127T360 143L375 126L233 -18H219Q181 8 141 21T52 34V48Q72 52 88 66T104
100V330Q104 340 101 351T93 371T82 385T67 391Q56 391 42 384T17 366L2 387L111 468H125Q161 452 177 427T202 374L297 468H311L390 387L317 313Z" />
<glyph unicode="s" glyph-name="s" horiz-adv-x="431" d="M107 530Q127 578 164 600T242 623Q269 623 294 614T338 588T369 545T381 489Q381 464 371 439T341 394T293 360T231 347Q196 347 172 359T123 392Q112 381 105 364T98 328Q98 311 103 294T118 264T140
242T168 233Q184 233 196 240T217 258T233 281T248 306Q256 318 268 325T296 333Q317 333 335 325T369 304T394 278T410 256Q418 242 421 224T425 195Q425 166 408 136T367 77T314 23T262 -22H247Q215 1 186 12T126 24Q96 24 69 10T22 -24L5 -12Q41 55 82 82T171
110Q204 110 234 100T300 58Q320 78 326 107T332 167Q332 205 313 226T264 247Q256 247 246 241T226 224T205 201T187 176Q179 165 165 156T136 147Q111 147 89 157T50 184T24 226T14 278Q14 319 31 350T76 400Q110 424 133 438T178 468H192Q202 449 217 441T249
433Q275 433 295 455T316 511Q316 531 309 546T289 570T262 585T230 590Q193 590 169 572T126 519L107 530Z" />
<glyph unicode="t" glyph-name="t" horiz-adv-x="300" d="M183 -18H169Q152 -9 131 1T88 19T45 34T8 40V54Q41 58 58 72T76 125V400H1V415Q37 427 60 453T96 512T114 582T119 656H178V456H270V400H178V106L238 73L282 108L300 89L183 -18Z" />
<glyph unicode="u" glyph-name="u" horiz-adv-x="542" d="M419 -18H404Q374 -6 360 18T342 63L173 -18H157Q149 -9 136 1T108 21T77 36T48 44V58Q65 61 78 69T92 100V345Q92 362 85 369T67 376Q64 376 62 376T55 372T42 363T19 345L5 365L114 468H129Q144 462
156 454T176 433T189 399T194 346V94L245 45L339 89V314Q339 338 329 355T293 372V386Q311 386 327 394T356 415T375 444T383 478H397Q397 461 404 445T424 415T453 394T487 386V372Q463 372 452 355T441 314V114Q441 93 449 83T471 73Q486 73 503 85L523 99L538
79L419 -18Z" />
<glyph unicode="v" glyph-name="v" horiz-adv-x="425" d="M424 189Q424 165 413 144T386 103T349 67T310 36Q299 28 285 15T249 -18H235Q219 -7 196 3T144 22T85 36T22 42V56Q44 64 57 79T70 120V353Q70 375 60 391T39 422T17 453T7 490Q7 518 23 542T65 586L82
571Q76 563 72 556T67 528Q67 510 80 500T111 480T145 454T169 413Q193 422 222 436T274 468H288Q301 463 315 456T342 441T364 427T378 417Q387 406 395 393T410 365T420 336T424 310V189ZM290 66Q314 86 318 115T322 193Q322 218 321 244T316 294T303 339T277
375Q265 386 250 390T224 394Q210 394 197 385T172 365V117L290 66Z" />
<glyph unicode="w" glyph-name="w" horiz-adv-x="680" d="M678 189Q678 165 667 144T640 103T603 67T564 36Q553 28 538 15T503 -18H489Q473 -7 450 3T398 22T339 36T277 42V56Q299 64 312 79T325 120V296Q325 303 325 314T322 337T314 360T300 381Q292 389 284
393T266 398Q262 398 251 393T226 381T199 367T176 355V139Q176 116 186 99T222 82V68Q204 68 188 60T159 39T140 10T132 -25H118Q118 -7 111 9T91 39T63 60T28 68V82Q52 82 63 99T74 139V353Q74 375 64 391T43 422T21 453T11 490Q11 518 27 542T69 586L86 571Q80
563 76 556T71 528Q71 510 85 499T117 475T152 443T174 390H176L321 468H335Q364 458 383 442T414 407Q442 419 474 433T538 468H552Q578 457 601 441T632 417Q641 406 649 393T664 365T674 336T678 310V189ZM544 66Q568 86 572 116T576 193Q576 218 576 244T571
294T557 339T532 375Q520 386 508 390T484 394Q470 394 454 385T427 365V116L544 66Z" />
<glyph unicode="x" glyph-name="x" horiz-adv-x="370" d="M299 341L256 393L215 358V258H285V203H215V111Q222 105 232 97T251 83T269 71T284 66Q299 66 318 85L334 101L353 83L241 -18H226L113 59Q94 39 84 22T74 -19Q74 -48 93 -70T152 -107L122 -189H108Q94
-182 78 -173T48 -148T25 -112T15 -62Q15 -42 19 -24T34 12T64 50T113 93V203H43V258H113V299Q113 310 112 326T107 356T95 381T71 391Q61 391 50 386T24 371L9 392L120 468H134Q169 452 183 429T206 386L294 468H308L370 401L299 341Z" />
<glyph unicode="y" glyph-name="y" horiz-adv-x="421" d="M417 83Q417 43 404 3T367 -76T312 -148T244 -209L230 -194Q248 -173 263 -153T290 -107T308 -50T315 26V284Q315 294 313 308T308 337T298 365T283 386Q275 394 267 401T254 408Q251 408 241 404T218
394T191 381T166 368V116L221 83Q224 86 229 93T240 109T252 127T261 141L281 125L190 -18H174Q163 -11 147 -1T108 20T60 39T4 53V68Q30 69 47 81T64 128V349Q64 372 54 389T33 421T11 452T1 490Q1 518 17 542T59 586L76 571Q70 563 66 556T61 528Q61 509 75 498T108
476T144 449T166 401L300 468H323Q342 460 359 447T389 419T409 387T417 355V83Z" />
<glyph unicode="z" glyph-name="z" horiz-adv-x="369" d="M355 99Q361 81 363 64T366 31Q366 -10 349 -45T303 -109T233 -163T146 -209H125Q80 -187 48 -150T2 -49V-31Q69 17 115 58T198 147L103 200V215Q150 232 179 262T208 330Q208 350 195 366T151 383Q148
383 137 379T113 369T87 357T65 345L55 368Q100 386 140 412T211 468H225Q268 455 287 429T307 371Q307 351 299 333T272 295T225 255T157 209L355 99ZM224 132Q195 90 167 55T102 -13Q106 -35 115 -56T137 -94T165 -124T195 -140Q204 -137 216 -126T239 -94T258
-42T266 34Q266 51 263 69T253 106L224 132Z" />
<glyph unicode="&#xa0;" glyph-name="space" horiz-adv-x="500" />
</font>
</defs>
</svg>
