<?xml version="1.0" standalone="no"?> <!DOCTYPE svg PUBLIC "-//W3C//DTD SVG 1.0//EN" "http://www.w3.org/TR/2001/REC-SVG-20010904/DTD/svg10.dtd" > <svg xmlns="http://www.w3.org/2000/svg" width="100%" height="100%">
<defs >
<font horiz-adv-x="540" ><font-face
    font-family="STIXGeneralBold"
    units-per-em="1000"
    panose-1="0 0 8 0 0 0 0 0 0 0"
    ascent="1055"
    descent="-455"
    alphabetic="0" />
<missing-glyph horiz-adv-x="250" />
<glyph unicode=" " glyph-name="space" horiz-adv-x="250" />
<glyph unicode="!" glyph-name="exclam" horiz-adv-x="333" d="M150 234Q145 280 141 314T131 378T118 435T99 500Q88 534 85 552T81 591Q81 639 102 665T165 691Q203 691 226 665T250 589Q250 572 247 553T232 500Q221 464 214 435T201 377T191 314T181 234H150ZM251
71Q251 36 226 12T166 -13Q130 -13 106 10T82 70Q82 108 107 132T167 156Q204 156 227 132T251 71Z" />
<glyph unicode="&quot;" glyph-name="quotedbl" horiz-adv-x="555" d="M386 404Q373 458 365 496T352 558T345 597T343 618Q343 650 357 670T407 691Q440 691 456 671T472 622Q472 613 470 599T463 560T450 497T429 404H386ZM126 404Q112 458 104 495T91 557T85
596T83 618Q83 650 98 670T147 691Q180 691 196 671T212 622Q212 613 210 599T203 559T190 497T169 404H126Z" />
<glyph unicode="#" glyph-name="numbersign" horiz-adv-x="500" d="M398 417L380 283H466V210H369L340 0H262L291 210H178L149 0H71L100 210H5V283H111L129 417H34V490H139L169 700H246L217 490H330L360 700H437L408 490H495V417H398ZM207 417L189 283H302L320 417H207Z" />
<glyph unicode="$" glyph-name="dollar" horiz-adv-x="500" d="M269 427Q311 402 348 381T412 334T456 276T472 196Q472 109 421 61Q409 50 395 41T363 25T322 12T269 0V-99H213V0Q190 1 173 3T137 9T98 22T46 43V201L67 199Q89 117 123 79T213 30V280Q163 306
128 330T71 380T39 434T29 496Q29 548 51 586T117 647Q139 659 159 663T213 672V750H269V674Q299 670 320 665T360 654T394 640T428 622V481H407Q387 558 355 595T269 641V427ZM213 644Q165 632 145 608T124 551Q124 510 146 490T213 454V644ZM269 30Q317 39 339
69T362 134Q362 154 359 168T346 195T318 219T269 249V30Z" />
<glyph unicode="%" glyph-name="percent" horiz-adv-x="749" d="M688 214Q688 161 669 110T615 24Q596 4 571 -7T516 -18Q459 -18 424 20T388 120Q388 162 404 201T446 269T508 315T583 333Q633 333 660 302T688 214ZM663 220Q663 255 647 277T604 300Q573 300
542 254Q530 236 520 214T502 167T490 120T486 76Q486 10 536 10Q580 10 615 61Q636 93 649 137T663 220ZM188 -29H140L528 626Q498 603 472 594T415 584Q399 584 387 586T355 597Q357 583 357 574T358 555Q358 501 339 450T288 366Q267 345 241 334T187 322Q131
322 96 360T61 461Q61 504 77 542T120 610T183 656T258 674Q278 674 293 668T329 645Q351 628 368 622T412 615Q462 615 501 636T578 706H626L188 -29ZM332 560Q332 586 326 596T300 614Q295 616 291 618T279 625Q271 630 267 632T259 634Q243 634 225 613T192
560T167 489T157 418Q157 386 170 369T207 352Q231 352 253 369T293 416T321 482T332 560Z" />
<glyph unicode="&amp;" glyph-name="ampersand" horiz-adv-x="833" d="M774 88Q755 56 742 40T717 15Q698 1 673 -7T624 -16Q604 -16 587 -12T552 3T516 30T475 72Q413 25 362 5T253 -15Q211 -15 176 -3T116 32T76 89T62 167Q62 234 106 288T258 388Q241 414 231
433T216 469T208 500T206 532Q206 608 258 649T408 691Q481 691 524 658T568 570Q568 522 532 487T416 423L567 209Q590 236 604 256T627 293T639 324T643 354Q643 365 642 371T634 382T614 389T579 395V419H783V395Q751 392 737 385T710 355Q692 322 679 300T653
259T626 221T590 176Q611 149 627 132T656 104T682 89T709 85Q744 85 769 125L789 113L774 88ZM467 533Q467 558 460 580T440 620T410 648T375 658Q351 658 337 643T323 602Q323 571 338 537T397 452Q435 465 451 483T467 533ZM452 100Q440 117 421 143T379 202T329
274T275 358Q233 334 217 314T201 264Q201 217 220 177T273 103Q292 83 315 72T362 61Q382 61 402 70T452 100Z" />
<glyph unicode="&apos;" glyph-name="quotesingle" horiz-adv-x="278" d="M118 404Q106 459 98 497T85 559T78 596T75 617Q75 651 91 671T139 691Q171 691 187 672T204 621Q204 612 202 598T195 559T182 497T161 404H118Z" />
<glyph unicode="(" glyph-name="parenleft" horiz-adv-x="333" d="M306 -168Q268 -146 241 -127T192 -88T152 -46T115 3Q77 57 62 122T46 259Q46 363 79 446T177 599Q192 614 205 626T233 649T265 671T306 694V667Q255 625 226 587T182 504T163 400T159 258Q159
178 164 121T186 19T231 -63T306 -140V-168Z" />
<glyph unicode=")" glyph-name="parenright" horiz-adv-x="333" d="M27 694Q64 671 92 652T143 611T183 567T218 516Q252 459 269 397T287 267Q287 164 254 80T156 -73Q141 -88 128 -100T100 -123T68 -145T27 -168V-141Q79 -101 108 -65T152 17T170 121T174 268Q174
350 170 408T150 510T106 590T27 666V694Z" />
<glyph unicode="*" glyph-name="asterisk" horiz-adv-x="500" d="M267 494Q281 505 290 512T307 527T322 544T339 568Q354 591 366 598T395 606Q415 606 431 592T448 558Q448 546 441 536T421 519T395 509T366 505Q349 505 338 504T318 500T299 492T277 479V471Q290
465 300 460T321 452T344 447T374 443Q415 440 431 429T447 392Q447 370 435 356T398 342Q388 342 380 345T364 355T346 374T323 404Q308 424 298 433T266 454L260 450Q260 433 262 421T267 399T275 377T287 352Q295 336 298 326T302 307Q302 284 288 270T251 255Q231
255 217 269T202 307Q202 319 205 327T218 353Q225 366 229 376T236 397T240 420T241 450L235 454Q221 443 212 436T194 421T179 404T161 379Q145 356 134 349T106 342Q85 342 71 355T56 390Q56 418 78 429T140 443Q156 444 167 445T187 450T205 458T226 472V479Q211
486 200 490T177 497T154 501T124 505Q85 508 71 523T56 558Q56 580 69 593T103 606Q124 606 137 598T165 563Q174 548 180 539T194 522T212 508T236 494L241 497Q241 513 240 523T237 543T231 563T218 588Q207 607 204 617T200 641Q200 663 214 677T252 691Q273
691 286 676T300 636Q300 625 296 616T282 589Q268 566 264 551T260 512V497L267 494Z" />
<glyph unicode="+" glyph-name="plus" horiz-adv-x="750" d="M419 209V-57H331V209H65V297H331V563H419V297H685V209H419Z" />
<glyph unicode="," glyph-name="comma" horiz-adv-x="250" d="M46 -158Q103 -119 129 -87T155 -25Q155 -16 150 -10T136 -4Q131 -4 126 -5T112 -6Q80 -6 60 14T39 70Q39 109 62 132T123 155Q171 155 197 124T223 39Q223 -26 184 -80T57 -180L46 -158Z" />
<glyph unicode="-" glyph-name="hyphen" horiz-adv-x="333" d="M44 171V287H287V171H44Z" />
<glyph unicode="." glyph-name="period" horiz-adv-x="250" d="M210 71Q210 36 185 12T125 -13Q89 -13 65 11T41 71Q41 106 66 131T126 156Q161 156 185 131T210 71Z" />
<glyph unicode="/" glyph-name="slash" horiz-adv-x="278" d="M66 -19H-24L212 691H302L66 -19Z" />
<glyph unicode="0" glyph-name="zero" horiz-adv-x="500" d="M476 337Q476 258 459 194T412 83T341 12T251 -13Q202 -13 161 12T89 82T41 192T24 334Q24 395 35 458T74 572T145 655T253 688Q313 688 355 657T424 575T463 462T476 337ZM318 449Q318 560 302 610T249
660Q212 660 197 612T182 449V224Q182 112 197 64T251 15Q289 15 303 63T318 224V449Z" />
<glyph unicode="1" glyph-name="one" horiz-adv-x="500" d="M68 0V24Q105 24 128 28T164 44T181 76T186 129V507Q186 577 150 577Q140 577 123 573T85 561L65 553V579L316 688H334V118Q334 89 338 72T353 44T386 29T441 24V0H68Z" />
<glyph unicode="2" glyph-name="two" horiz-adv-x="500" d="M432 0H17V23Q72 81 108 120T169 190T212 245T249 299Q273 336 286 375T300 447Q300 472 293 495T270 536T233 563T181 574Q145 574 114 553T59 484H31Q66 590 122 639T254 688Q294 688 327 676T385
639T422 581T436 505Q436 448 409 396T322 287L160 133H300Q339 133 364 135T405 145T432 168T453 211H478L432 0Z" />
<glyph unicode="3" glyph-name="three" horiz-adv-x="500" d="M37 536Q116 688 266 688Q304 688 334 677T386 646T418 603T430 551Q430 534 426 516T411 480T385 449T346 424Q403 404 435 356T468 246Q468 191 446 144T383 61T288 6T168 -14Q99 -14 58 10T16 76Q16
102 34 119T81 136Q104 136 126 123T177 79Q201 53 219 45T256 36Q301 36 327 70T354 158Q354 194 341 225T305 279Q291 292 278 301T247 319T206 336T152 356V373Q224 396 253 427T283 504Q283 557 258 582T184 607Q145 607 116 589T58 524L37 536Z" />
<glyph unicode="4" glyph-name="four" horiz-adv-x="500" d="M412 144V0H267V144H19V257L332 688H412V255H476V144H412ZM268 549L60 255H268V549Z" />
<glyph unicode="5" glyph-name="five" horiz-adv-x="500" d="M425 549H149L127 468Q158 466 180 464T219 460T250 455T278 448Q360 425 405 369T451 234Q451 179 430 135T372 59T283 10T169 -8Q136 -8 109 -1T62 18T33 46T22 80Q22 106 39 123T83 141Q103 141
127 131T183 95Q209 72 232 63T273 53Q315 53 344 82T373 157Q373 208 337 247T231 309Q199 319 159 323T51 331L148 676H470L425 549Z" />
<glyph unicode="6" glyph-name="six" horiz-adv-x="500" d="M470 662Q360 639 297 576T204 404Q227 414 245 417T288 421Q331 421 365 407T424 367T462 304T475 222Q475 169 460 126T416 52T348 4T260 -13Q207 -13 164 7T91 64T45 154T28 274Q28 365 64 438T167
571Q200 600 230 618T295 648T372 669T470 688V662ZM323 165Q323 223 319 263T304 329T276 365T234 376Q209 376 197 366Q192 361 188 325T184 245Q184 173 191 121T211 43Q226 14 262 14Q279 14 290 20T309 44T320 90T323 165Z" />
<glyph unicode="7" glyph-name="seven" horiz-adv-x="500" d="M242 0H147L347 539H148Q124 539 108 535T79 521T59 495T43 454H17L62 676H477L242 0Z" />
<glyph unicode="8" glyph-name="eight" horiz-adv-x="500" d="M472 187Q472 142 456 105T410 42T337 2T240 -13Q192 -13 153 -2T87 32T44 85T28 157Q28 224 67 266T177 325Q103 369 71 412T39 513Q39 593 99 640T263 688Q310 688 346 677T407 646T445 600T458
543Q458 495 426 460T322 403Q364 374 393 349T439 298T464 245T472 187ZM339 537Q339 588 316 623T251 659Q216 659 192 635T168 576Q168 534 201 494T298 422Q310 438 318 451T330 478T337 505T339 537ZM333 127Q333 155 328 176T308 217T267 258T200 306Q169
261 159 227T149 161Q149 94 172 57T242 19Q283 19 308 46T333 127Z" />
<glyph unicode="9" glyph-name="nine" horiz-adv-x="500" d="M31 13Q140 35 203 98T299 273Q279 262 260 258T211 254Q170 254 136 268T78 309T40 374T26 459Q26 507 42 549T86 622T154 670T241 688Q293 688 336 667T409 608T456 516T473 394Q473 303 436 228T328
97Q295 71 266 53T203 23T129 2T31 -13V13ZM317 461Q317 513 310 560T292 628Q275 661 238 661Q221 661 210 655T191 632T181 586T178 513Q178 455 182 414T197 348T223 311T263 299Q274 299 286 301T304 308Q308 310 309 328Q314 348 315 369T317 414V461Z" />
<glyph unicode=":" glyph-name="colon" horiz-adv-x="333" d="M251 387Q251 352 226 328T166 303Q131 303 107 327T82 388Q82 423 106 447T167 472Q184 472 199 466T226 448T244 421T251 387ZM251 71Q251 36 226 12T166 -13Q130 -13 106 11T82 71Q82 106 107 131T167
156Q202 156 226 131T251 71Z" />
<glyph unicode=";" glyph-name="semicolon" horiz-adv-x="333" d="M251 387Q251 352 226 328T166 303Q131 303 107 327T82 388Q82 423 106 447T167 472Q184 472 199 466T226 448T244 421T251 387ZM89 -158Q146 -119 172 -87T198 -25Q198 -16 193 -10T179 -4Q174
-4 169 -5T155 -6Q123 -6 103 14T82 70Q82 109 105 132T166 155Q214 155 240 124T266 39Q266 -26 227 -80T100 -180L89 -158Z" />
<glyph unicode="&lt;" glyph-name="less" horiz-adv-x="750" d="M80 234V274L670 534V446L234 254L670 64V-24L80 234Z" />
<glyph unicode="=" glyph-name="equal" horiz-adv-x="750" d="M68 311V399H682V311H68ZM68 107V195H682V107H68Z" />
<glyph unicode="&gt;" glyph-name="greater" horiz-adv-x="750" d="M80 -24V64L516 254L80 446V534L670 274V234L80 -24Z" />
<glyph unicode="?" glyph-name="question" horiz-adv-x="500" d="M223 232Q221 251 221 260T220 277Q221 312 233 342T259 401T284 460T296 523Q296 585 274 619T212 653Q184 653 168 642T151 613Q151 605 154 600T166 584Q179 570 183 559T188 533Q188 519 182
507T167 485T147 471T123 466Q94 466 76 488T57 544Q57 575 70 601T108 647T166 678T241 689Q289 689 326 677T390 642T431 589T445 523Q445 497 439 476T419 436T382 397T324 357Q300 342 286 331T265 307T255 277T253 232H223ZM323 71Q323 36 299 12T239 -13Q203
-13 179 11T154 71Q154 106 179 131T240 156Q274 156 298 131T323 71Z" />
<glyph unicode="@" glyph-name="at" horiz-adv-x="930" d="M711 41Q675 24 646 13T591 -6T540 -16T487 -19Q407 -19 338 7T218 80T138 191T108 330Q108 405 138 471T219 586T340 663T489 691Q561 691 622 668T728 605T797 509T822 390Q822 337 806 292T763 214T701
163T628 144Q590 144 567 164T539 218Q513 183 482 164T413 144Q369 144 344 177T319 258Q319 302 332 348T370 433T434 495T522 519Q549 519 563 509T595 466L606 506H677L611 246Q609 236 609 228Q609 180 644 180Q669 180 692 197T734 242T764 308T775 385Q775
439 752 487T690 572T598 630T487 652Q425 652 372 628T281 560T222 456T200 325Q200 260 221 205T282 111T375 49T495 27Q520 27 544 29T592 37T642 52T698 76L711 41ZM577 411Q577 471 532 471Q502 471 477 452T434 405T406 342T396 278Q396 237 412 214T455
191Q478 191 499 209T538 259Q546 275 553 295T565 335T574 375T577 411Z" />
<glyph unicode="A" glyph-name="A" horiz-adv-x="722" d="M367 0V25L399 28Q424 30 434 37T445 61Q445 77 435 107T399 197H174L161 163Q152 140 141 112T130 66Q130 46 148 37T211 25V0H9V25Q26 28 38 34T61 53T83 88T108 145L329 690H357L579 168Q598 123 612
95T638 52T662 31T689 25V0H367ZM283 479L189 236H384L283 479Z" />
<glyph unicode="B" glyph-name="B" horiz-adv-x="667" d="M426 364Q467 359 502 344T564 307T604 254T619 188Q619 148 601 114T549 54T463 15T345 0H16V25Q43 28 60 32T87 46T100 68T104 103V570Q104 592 100 607T86 631T58 644T16 651V676H333Q454 676 519 635T585
516Q585 459 550 421T426 365V364ZM264 373Q311 373 341 380T388 404T413 446T420 509Q420 575 396 610T321 646Q291 646 278 634T264 592V373ZM264 98Q264 62 279 47T327 32Q386 32 416 72T447 188Q447 343 290 343H264V98Z" />
<glyph unicode="C" glyph-name="C" horiz-adv-x="722" d="M687 127Q652 84 619 56T552 11T480 -12T399 -19Q318 -19 254 7T144 79T74 187T49 323Q49 402 74 469T146 586T255 663T396 691Q467 691 552 656Q584 642 598 642Q612 642 621 651T642 688H669V453H644Q630
494 613 520T577 568Q542 610 502 634T410 658Q371 658 337 637T279 577T240 479T226 345Q226 269 237 212T280 105Q302 70 342 50T427 29Q491 29 553 63Q577 77 600 97T657 152L687 127Z" />
<glyph unicode="D" glyph-name="D" horiz-adv-x="722" d="M326 676Q411 676 479 653T593 588T665 484T690 345Q690 267 660 198T575 81Q529 41 464 21T323 0H14V25Q58 27 77 44T97 98V584Q97 619 80 632T14 651V676H326ZM259 100Q259 66 271 51T317 35Q415 35
466 107Q478 124 487 148T502 202T512 264T516 330Q516 395 507 449T475 541Q446 591 408 616T312 642Q283 642 271 631T259 598V100Z" />
<glyph unicode="E" glyph-name="E" horiz-adv-x="667" d="M601 0H16V25Q44 28 61 33T87 46T100 68T104 101V580Q104 618 86 633T16 651V676H593V475H568Q559 525 544 557T502 608T434 634T331 642Q292 642 279 630T266 588V363Q306 363 334 370T382 394T412 439T428
512H454V174H428Q424 219 414 248T384 296T336 321T266 329V87Q266 55 283 43T349 31Q408 31 452 43T531 85Q544 95 554 106T573 132T592 165T613 208H641L601 0Z" />
<glyph unicode="F" glyph-name="F" horiz-adv-x="611" d="M559 474Q554 502 549 521T537 555T521 581T499 603Q476 623 439 632T336 642Q298 642 282 631T266 591V363Q303 363 330 370T375 395T403 441T419 512H444V174H419Q415 218 405 247T377 295T332 320T266
329V101Q266 80 270 66T286 44T319 31T376 25V0H16V25Q44 28 61 32T87 46T100 68T104 103V575Q104 597 100 611T86 633T59 645T16 651V676H583V474H559Z" />
<glyph unicode="G" glyph-name="G" horiz-adv-x="778" d="M755 262Q727 259 710 252T684 233T672 204T669 162V44Q645 30 613 18T545 -2T470 -14T392 -19Q317 -19 252 5T139 75T64 186T37 331Q37 406 63 471T135 585T246 662T385 691Q424 691 460 683T540 656Q572
642 586 642Q600 642 609 651T630 688H657V453H632Q619 481 609 502T587 541T564 573T536 602Q504 631 469 644T398 658Q310 658 262 576T214 338Q214 260 225 202T262 101Q288 57 323 36T417 14Q471 14 492 37T513 99V188Q513 207 509 220T494 242T463 255T411
262V287H755V262Z" />
<glyph unicode="H" glyph-name="H" horiz-adv-x="778" d="M420 0V25Q447 28 464 32T492 45T505 66T509 98V326H268V98Q268 78 271 66T285 45T312 33T357 25V0H21V25Q47 28 63 32T89 45T102 65T106 98V577Q106 598 102 611T89 632T63 645T21 651V676H357V651Q331
649 314 645T286 633T272 612T268 577V373H509V577Q509 598 505 611T491 633T464 645T420 651V676H759V651Q733 649 717 645T690 633T675 611T671 577V98Q671 78 674 66T688 45T715 33T759 25V0H420Z" />
<glyph unicode="I" glyph-name="I" horiz-adv-x="389" d="M20 0V25Q48 28 66 32T94 45T109 68T113 106V576Q113 597 109 610T94 632T65 645T20 651V676H370V651Q342 650 324 646T295 634T280 611T275 576V106Q275 82 279 67T294 43T323 31T370 25V0H20Z" />
<glyph unicode="J" glyph-name="J" horiz-adv-x="500" d="M478 651Q450 649 433 644T406 629T393 601T390 556V126Q390 12 337 -42T178 -96Q148 -96 119 -91T70 -73Q42 -54 23 -25T3 37Q3 51 9 64T24 87T47 104T74 111Q88 111 101 105T124 88T140 64T146 35Q146
24 142 16T133 1T123 -14T119 -31Q119 -46 131 -54T164 -63Q199 -63 213 -42T228 27V577Q228 599 224 612T208 634T177 646T127 651V676H478V651Z" />
<glyph unicode="K" glyph-name="K" horiz-adv-x="778" d="M435 0V25Q459 26 474 27T498 31T509 37T512 46Q512 54 507 63T487 91L306 316L279 291V95Q279 77 282 65T295 45T322 33T366 25V0H30V25Q58 28 75 32T101 44T114 66T117 101V573Q117 596 113 610T100
633T73 645T30 651V676H367V651Q339 649 322 645T296 630T283 605T279 567V344L491 559Q514 582 522 593T531 617Q531 632 521 639T483 648L448 651V676H737V651Q700 646 671 638T609 607T530 541T415 424L720 46Q729 35 739 31T769 25V0H435Z" />
<glyph unicode="L" glyph-name="L" horiz-adv-x="667" d="M596 0H19V25Q46 28 63 32T89 45T102 65T105 98V576Q105 597 101 611T88 633T61 645T19 651V676L367 677V652Q334 650 315 646T285 632T271 603T267 553V89Q267 57 285 44T352 31Q414 31 452 44T522 86Q548
109 568 144T609 227H638L596 0Z" />
<glyph unicode="M" glyph-name="M" horiz-adv-x="944" d="M589 0V25Q617 28 634 33T661 47T674 72T678 109V605L426 0H399L147 594V129Q147 100 151 82T166 51T197 33T248 25V0H14V25Q43 28 61 32T88 45T101 69T105 108V577Q105 597 102 610T88 632T61 644T16
651V676H269L468 204L669 676H921V651Q894 649 877 644T850 629T837 600T833 554V126Q833 99 835 81T847 51T873 34T921 25V0H589Z" />
<glyph unicode="N" glyph-name="N" horiz-adv-x="722" d="M701 651Q677 647 662 643T638 630T626 607T623 568V-18H595L148 527V131Q148 102 152 83T166 53T195 35T242 25V0H16V25Q43 28 60 33T87 47T100 71T104 109V579Q72 622 53 636T19 651V676H230L579 246V545Q579
575 575 594T561 625T533 642T487 651V676H701V651Z" />
<glyph unicode="O" glyph-name="O" horiz-adv-x="778" d="M743 335Q743 257 717 192T643 80T531 7T388 -19Q310 -19 246 7T134 80T61 191T35 334Q35 414 62 479T136 592T250 665T394 691Q469 691 533 665T643 591T716 478T743 335ZM566 328Q566 489 520 573T385
658Q302 658 257 573T212 330Q212 171 258 93T390 14Q477 14 521 93T566 328Z" />
<glyph unicode="P" glyph-name="P" horiz-adv-x="611" d="M331 676Q456 676 528 631T600 495Q600 435 567 391T471 323Q455 317 439 314T400 308T344 304T262 303V111Q262 86 264 71T276 47T302 34T349 25V0H16V25Q30 27 41 28T61 34Q86 44 93 66T100 126V553Q100
582 97 600T84 628T59 644T16 651V676H331ZM262 338Q309 338 340 345T391 370T419 414T428 484Q428 568 402 604T312 641Q262 641 262 606V338Z" />
<glyph unicode="Q" glyph-name="Q" horiz-adv-x="778" d="M736 -141Q712 -150 690 -157T647 -168T604 -174T557 -176Q491 -176 431 -153T329 -88Q312 -71 301 -53T273 -2Q216 15 172 47T97 123T51 219T35 330Q35 411 61 478T135 592T247 665T389 691Q466 691 531
665T643 592T716 477T743 327Q743 198 676 114T490 -6Q503 -34 513 -48T537 -77Q589 -129 660 -129Q675 -129 690 -127T730 -117L736 -141ZM566 335Q566 495 520 576T388 658Q303 658 258 576T212 335Q212 179 256 97T389 14Q477 14 521 97T566 335Z" />
<glyph unicode="R" glyph-name="R" horiz-adv-x="722" d="M511 0L304 313H276V117Q276 90 279 74T291 48T317 34T364 25V0H26V25Q55 28 72 32T99 46T111 73T114 120V551Q114 580 111 598T98 628T71 644T26 651V676H334Q481 676 555 634T630 504Q630 470 619 438T585
386Q564 367 540 354T473 329L672 47Q679 37 690 31T716 25V0H511ZM276 345Q325 345 360 351T417 374T449 419T459 494Q459 574 429 608T329 642Q300 642 288 632T276 597V345Z" />
<glyph unicode="S" glyph-name="S" horiz-adv-x="556" d="M456 474Q448 498 441 516T426 550T409 578T386 604Q332 660 263 660Q211 660 182 632T153 561Q153 543 158 529T174 502T206 476T256 447Q293 427 329 409T404 370Q452 344 482 298T513 194Q513 147 495
108T445 40T366 -3T265 -19Q232 -19 202 -14T135 5Q104 15 94 15Q82 15 76 8T64 -19H35V229H64Q70 202 76 182T89 145T104 114T124 86Q181 14 268 14Q326 14 360 44T394 127Q394 154 379 175T337 215Q311 233 279 248T215 280Q173 300 141 321T88 367T55 422T44
490Q44 586 102 638T263 691Q292 691 318 686T380 668Q410 658 422 658Q436 658 442 665T454 692H484V474H456Z" />
<glyph unicode="T" glyph-name="T" horiz-adv-x="667" d="M607 475Q601 520 588 551T551 602T495 632T415 644V117Q415 88 418 71T431 45T461 31T513 25V0H156V25Q188 28 207 32T237 46T250 72T253 117V644Q206 642 173 633T116 603T80 551T60 475H31L34 676H634L636
475H607Z" />
<glyph unicode="U" glyph-name="U" horiz-adv-x="722" d="M701 651Q677 647 662 642T638 627T626 603T623 566V252Q623 177 604 121T547 36Q515 10 466 -4T363 -19Q307 -19 260 -6T178 35Q135 69 117 113T98 231V555Q98 585 95 603T83 630T58 644T16 651V676H352V651Q323
649 305 645T276 629T261 600T257 550V232Q257 127 293 79T403 30Q579 30 579 252V552Q579 579 574 597T558 626T529 643T482 651V676H701V651Z" />
<glyph unicode="V" glyph-name="V" horiz-adv-x="722" d="M701 651Q681 648 668 644T646 631T628 607T611 569L383 -18H356L100 581Q91 602 84 614T68 634T47 645T16 651V676H352V651L319 649Q290 647 278 639T266 613Q266 607 267 602T270 590T276 571T289 541L427
207L554 536Q567 569 570 582T574 607Q574 619 571 626T558 639T532 646T488 651V676H701V651Z" />
<glyph unicode="W" glyph-name="W" horiz-adv-x="1000" d="M981 651Q931 646 912 587L712 -15H685L514 462L328 -15H300L88 587Q82 605 76 616T63 635T45 645T19 651V676H313V651Q274 648 262 640T249 609Q249 602 250 596T256 576L376 212L494 520L459 616Q452
635 435 642T387 651V676H699V651L686 650Q653 648 640 640T627 614Q627 606 630 595T641 558L749 222L861 565Q868 585 868 607Q868 630 854 639T799 651V676H981V651Z" />
<glyph unicode="X" glyph-name="X" horiz-adv-x="722" d="M359 0V25L387 27Q439 30 439 55Q439 64 433 79T418 109L317 271L279 220Q251 182 233 157T204 114T189 86T185 67Q185 47 202 39T266 25V0H16V25Q35 27 49 31T75 41T98 57T120 81L295 302L97 593Q85 610
77 620T59 637T40 647T17 651V676H363V651L332 649Q305 647 295 641T284 618Q284 609 286 603T299 581L396 431L452 508Q470 532 481 548T498 577T507 597T510 614Q510 632 499 639T459 649L438 651V676H688V651Q660 648 640 642T599 621T556 578T500 505L420 394L602
111Q620 84 632 67T655 41T676 29T699 25V0H359Z" />
<glyph unicode="Y" glyph-name="Y" horiz-adv-x="722" d="M699 651Q673 647 658 638T631 612L440 301V123Q440 94 443 76T456 48T484 33T532 25V0H185V25Q216 28 234 33T262 51T275 81T278 128V264L98 592Q84 618 63 633T15 651V676H350V651L323 649Q293 647 281
642T269 620Q269 613 276 596T293 561L413 329L522 507Q542 539 552 566T563 609Q563 631 547 639T479 651V676H699V651Z" />
<glyph unicode="Z" glyph-name="Z" horiz-adv-x="667" d="M607 0H28V16L410 641L327 638Q269 636 231 630T166 605T122 555T87 469H59L81 676H604V660L225 35H308Q380 35 429 44T510 75Q531 90 545 106T569 141T588 185T608 242H634L607 0Z" />
<glyph unicode="[" glyph-name="bracketleft" horiz-adv-x="333" d="M67 -149V678H301V645H238Q217 645 204 643T184 633T174 611T171 575V-63Q171 -95 180 -105T221 -116H301V-149H67Z" />
<glyph unicode="\" glyph-name="backslash" horiz-adv-x="278" d="M211 -19L-25 691H68L303 -19H211Z" />
<glyph unicode="]" glyph-name="bracketright" horiz-adv-x="333" d="M32 -149V-116H112Q143 -116 152 -106T162 -63V575Q162 597 160 610T150 631T129 642T95 645H32V678H266V-149H32Z" />
<glyph unicode="^" glyph-name="asciicircum" horiz-adv-x="581" d="M420 311L291 583L162 311H73L251 676H331L509 311H420Z" />
<glyph unicode="_" glyph-name="underscore" horiz-adv-x="500" d="M0 -125V-75H500V-125H0Z" />
<glyph unicode="`" glyph-name="grave" horiz-adv-x="333" d="M190 528L48 616Q26 630 17 641T8 668Q8 687 21 700T55 713Q84 713 109 685L246 528H190Z" />
<glyph unicode="a" glyph-name="a" horiz-adv-x="500" d="M488 43Q459 12 434 -1T376 -14Q339 -14 321 1T294 55Q252 17 216 2T135 -14Q87 -14 56 11T25 92Q25 159 92 204Q106 213 123 221T163 239T217 258T293 280V348Q293 396 275 418T212 441Q185 441 166 432T147
404Q147 399 149 394T158 381Q177 358 177 339Q177 313 158 296T109 279Q78 279 61 297T44 347Q44 377 58 400T97 440T157 464T235 473Q327 473 379 439T431 339V78Q431 50 452 50Q459 50 463 54L473 64L488 43ZM293 245Q171 211 171 124Q171 91 185 74T223 57Q241
57 258 65T293 97V245Z" />
<glyph unicode="b" glyph-name="b" horiz-adv-x="556" d="M211 417Q240 447 268 460T333 473Q375 473 409 456T468 408T507 334T521 239Q521 183 505 137T458 57T387 5T295 -14Q257 -14 228 -2T163 43L84 -13H72V594Q72 624 62 634T17 652V676H211V417ZM211 97Q211
61 229 40T280 18Q328 18 351 67T374 221Q374 419 281 419Q256 419 241 406T211 360V97Z" />
<glyph unicode="c" glyph-name="c" horiz-adv-x="444" d="M430 91Q389 35 344 11T239 -14Q192 -14 153 3T86 50T41 124T25 222Q25 278 43 324T94 403T169 454T262 473Q295 473 323 465T371 442T404 407T416 363Q416 334 398 317T348 299Q322 299 307 317T292 372Q292
390 292 403T287 424T275 437T250 442Q213 442 190 399T166 273Q166 170 202 112T305 53Q336 53 360 65T412 109L430 91Z" />
<glyph unicode="d" glyph-name="d" horiz-adv-x="556" d="M472 12Q449 9 432 7T400 2T371 -4T339 -13V52Q304 14 275 0T206 -14Q167 -14 134 3T76 52T39 126T25 221Q25 275 39 321T79 401T140 454T217 473Q252 473 278 460T336 411V594Q336 611 334 621T323 638T300
647T260 652V676H475V101Q475 69 487 57T534 43V20L472 12ZM336 355Q325 384 304 400T258 417Q214 417 194 372T173 229Q173 133 192 88T251 42Q287 42 317 79Q325 89 330 98T336 112V355Z" />
<glyph unicode="e" glyph-name="e" horiz-adv-x="444" d="M427 112Q404 76 383 52T338 14T288 -7T229 -14Q184 -14 147 4T82 53T40 129T25 224Q25 280 40 326T82 404T148 455T234 473Q278 473 309 460T362 423Q390 392 404 347T421 245H169Q171 209 176 176T194
116T229 74T288 58Q320 58 346 73T403 126L427 112ZM298 303Q298 342 297 361T289 395Q278 418 267 430T234 442Q199 442 182 407T164 282H298V303Z" />
<glyph unicode="f" glyph-name="f" horiz-adv-x="333" d="M71 461Q71 521 78 565T111 640Q131 665 164 678T246 691Q310 691 349 664T389 591Q389 563 372 545T327 527Q301 527 284 544T267 584Q267 597 270 605T278 620T285 631T289 641Q289 660 260 660Q233
660 222 643T210 581V461H296V417H210V107Q210 83 213 67T225 42T250 29T292 24V0H14V24Q48 28 59 40T71 87V417H14V461H71Z" />
<glyph unicode="g" glyph-name="g" horiz-adv-x="500" d="M306 68Q387 68 435 36T483 -52Q483 -123 416 -164T222 -206Q127 -206 78 -183T28 -114Q28 -53 124 -39Q76 -22 59 -4T42 43Q42 88 71 115T161 160Q107 175 72 215T37 312Q37 349 52 379T94 430T158 462T240
473Q270 473 294 468T352 451H481V398H401Q441 362 441 300Q441 206 349 168Q337 163 328 160T307 156T276 154T222 154Q193 154 173 141T153 105Q153 85 173 77T254 68H306ZM306 312Q306 382 291 412T239 442Q204 442 189 413T174 311Q174 241 189 212T240 182Q276
182 291 211T306 312ZM151 -52Q130 -69 123 -80T116 -107Q116 -174 250 -174Q325 -174 364 -156T404 -108Q404 -82 384 -67T315 -52H151Z" />
<glyph unicode="h" glyph-name="h" horiz-adv-x="556" d="M300 0V24Q326 27 336 40T346 85V309Q346 363 335 384T295 406Q259 406 225 372Q217 364 213 358T208 348V85Q208 54 218 41T256 24V0H16V24Q33 27 43 30T59 39T67 56T69 89V591Q69 609 67 619T59 636T43
645T15 652V676H208V396Q245 440 280 456T355 473Q417 473 451 435T485 337V87Q485 52 496 38T534 24V0H300Z" />
<glyph unicode="i" glyph-name="i" horiz-adv-x="278" d="M215 613Q215 580 193 558T137 536Q104 536 82 558T60 613Q60 646 82 668T139 691Q171 691 193 668T215 613ZM16 0V24Q33 28 43 32T59 43T67 60T69 88V373Q69 407 59 418T15 437V461H208V85Q208 53 219
41T256 24V0H16Z" />
<glyph unicode="j" glyph-name="j" horiz-adv-x="333" d="M263 613Q263 580 241 558T184 536Q151 536 130 558T108 613Q108 646 130 668T186 691Q218 691 240 668T263 613ZM260 2Q260 -43 254 -73T233 -127Q212 -164 174 -183T83 -203Q21 -203 -18 -176T-57 -103Q-57
-76 -40 -59T5 -42Q30 -42 47 -57T64 -96Q64 -112 50 -133Q41 -148 41 -155Q41 -163 50 -167T73 -172Q99 -172 110 -154T121 -96V378Q121 410 109 422T58 437V461H260V2Z" />
<glyph unicode="k" glyph-name="k" horiz-adv-x="556" d="M309 0V24Q351 25 351 43Q351 49 346 59T327 88L232 222L209 198V84Q209 66 210 56T217 39T233 30T261 24V0H22V24Q70 28 70 84V594Q70 623 59 636T22 652V676H209V245L337 373Q345 381 351 392T358 411Q358
421 351 426T323 434L299 438V461H513V438Q489 435 471 429T433 409T387 371T324 307L518 39Q525 30 530 27T543 24V0H309Z" />
<glyph unicode="l" glyph-name="l" horiz-adv-x="278" d="M16 0V24Q42 26 54 40T67 87V587Q67 615 54 632T15 652V676H206V87Q206 52 218 39T256 24V0H16Z" />
<glyph unicode="m" glyph-name="m" horiz-adv-x="833" d="M577 0V24Q606 26 615 38T625 83V311Q625 358 613 382T572 406Q558 406 544 401T514 381Q504 373 496 363T487 348V83Q487 54 497 41T533 24V0H301V24Q329 26 338 39T348 83V323Q348 368 336 387T294 406Q285
406 271 400T244 384T220 364T210 344V83Q210 54 219 41T255 24V0H16V24Q49 30 60 42T71 86V373Q71 391 69 402T60 420T42 431T15 437V461H207V386H210Q239 432 272 452T354 473Q402 473 430 454T482 386Q521 434 553 453T629 473Q691 473 727 436T764 331V83Q764
51 774 39T814 24V0H577Z" />
<glyph unicode="n" glyph-name="n" horiz-adv-x="556" d="M305 0V24Q331 27 341 40T351 84V321Q351 406 300 406Q264 406 230 372Q222 364 218 358T213 348V84Q213 56 223 42T261 24V0H21V24Q38 27 48 31T64 43T72 60T74 87V376Q74 408 64 420T21 437V461H212V386H213Q239
431 274 452T355 473Q417 473 453 435T490 331V84Q490 50 500 38T539 24V0H305Z" />
<glyph unicode="o" glyph-name="o" horiz-adv-x="500" d="M476 229Q476 176 459 132T412 55T340 4T250 -14Q203 -14 162 4T91 54T43 130T25 228Q25 283 42 328T90 405T162 455T254 473Q301 473 341 455T412 405T459 327T476 229ZM329 218Q329 282 325 325T312
394T288 431T251 442Q228 442 213 431T189 394T176 325T172 218Q172 109 189 63T251 17Q273 17 288 27T312 61T325 123T329 218Z" />
<glyph unicode="p" glyph-name="p" horiz-adv-x="556" d="M212 392Q238 437 268 455T343 473Q427 473 475 417T524 249Q524 191 511 143T473 60T413 6T332 -13Q315 -13 302 -10T275 -1T247 17T214 47V-79Q214 -130 229 -154T291 -181V-205H19V-181Q37 -178 48
-174T65 -162T73 -145T75 -118V372Q75 405 64 418T20 437V461H212V392ZM214 107Q225 78 245 60T291 42Q333 42 354 86T376 234Q376 416 300 416Q263 416 232 379Q224 369 219 360T214 346V107Z" />
<glyph unicode="q" glyph-name="q" horiz-adv-x="556" d="M269 -205V-181Q293 -178 307 -173T329 -157T339 -131T342 -90V42Q316 8 286 -3T219 -14Q180 -14 147 2T88 48T49 121T34 219Q34 271 49 317T94 398T164 453T256 473Q293 473 321 461T388 417L465 472H481V-123Q481
-138 483 -147T491 -163T508 -174T536 -181V-205H269ZM342 354Q342 396 324 418T275 441Q233 441 207 392T180 236Q180 134 206 87T273 40Q299 40 320 54T342 98V354Z" />
<glyph unicode="r" glyph-name="r" horiz-adv-x="444" d="M218 379Q253 430 284 451T353 473Q388 473 411 451T434 394Q434 364 417 345T371 326Q351 326 338 334T311 364Q303 378 296 382T283 387Q257 387 240 358T222 283V106Q222 82 224 67T235 42T257 29T294
24V0H29V24Q62 30 72 41T83 84V373Q83 391 81 402T72 420T55 431T28 437V461H218V379Z" />
<glyph unicode="s" glyph-name="s" horiz-adv-x="389" d="M315 326Q304 358 294 375T268 408Q234 440 193 440Q164 440 146 424T127 382Q127 356 149 336T223 294Q260 278 286 262T329 227T353 187T361 138Q361 104 350 76T318 28T270 -3T207 -14Q196 -14 182
-12T153 -7T124 0T99 9Q84 15 76 15Q69 15 64 9T50 -13H25V152H53Q85 20 190 20Q224 20 244 38T265 85Q265 109 243 129T169 172Q93 204 60 240T27 327Q27 358 38 385T71 431T121 462T184 473Q201 473 219 470T262 458Q284 451 293 451Q310 451 318 471H340V326H315Z"
/>
<glyph unicode="t" glyph-name="t" horiz-adv-x="333" d="M332 101Q317 70 301 49T268 14T230 -6T184 -12Q132 -12 102 16T72 95V417H19V444Q46 462 67 481T108 523T145 572T186 630H211V461H306V417H211V119Q211 89 220 74T250 59Q266 59 279 71T307 112L332 101Z" />
<glyph unicode="u" glyph-name="u" horiz-adv-x="556" d="M475 13Q451 10 433 8T401 3T373 -3T343 -13V52Q304 15 272 1T198 -14Q135 -14 100 23T65 131V372Q65 389 63 400T56 419T41 430T16 437V461H204V127Q204 85 218 68T260 51Q282 51 300 61T342 98V374Q342
408 331 421T281 437V461H481V105Q481 72 493 59T538 43V20L475 13Z" />
<glyph unicode="v" glyph-name="v" horiz-adv-x="500" d="M485 437Q473 436 466 434T452 426T440 410T427 382L267 -14H241L121 282Q113 300 104 323T84 366T66 402T55 423Q50 429 44 432T21 437V461H271V437L253 435Q218 431 218 411Q218 406 219 401T227 380L306
177L378 359Q389 385 389 404Q389 422 378 428T334 437V461H485V437Z" />
<glyph unicode="w" glyph-name="w" horiz-adv-x="722" d="M707 437Q687 433 677 423T657 387L502 -14H479L377 296L252 -14H228L80 360Q71 383 65 397T52 420T40 431T23 437V461H245V437Q224 434 216 428T207 409Q207 399 216 374T246 294L291 176L359 347Q357
352 356 356T353 366Q346 391 342 404T331 424T317 433T294 437V461H528V437Q499 435 490 430T480 413Q480 405 486 382T507 307Q514 281 519 264T527 233T534 208T541 180L576 274Q598 333 609 362T620 402Q620 419 610 426T572 437V461H707V437Z" />
<glyph unicode="x" glyph-name="x" horiz-adv-x="500" d="M243 0V24Q267 26 277 30T288 44Q288 53 281 67T255 108Q232 139 213 171Q209 166 206 161T197 151Q168 116 151 88T133 48Q133 37 144 32T183 24V0H14V24Q28 25 39 29T63 43T91 71T127 117L170 173Q176
180 178 183T181 187T184 191T192 201L64 398Q49 420 40 427T12 437V461H262V437Q215 436 215 418Q215 408 231 380T273 320Q276 316 279 312T286 303L322 349Q342 375 351 388T360 413Q360 424 353 428T329 435L309 437V461H477V437Q454 433 438 424T407 398L306
272L454 44Q459 36 465 32T484 24V0H243Z" />
<glyph unicode="y" glyph-name="y" horiz-adv-x="500" d="M482 437Q459 434 447 424T422 382L274 -16Q261 -51 250 -76T230 -120T213 -151T197 -172Q165 -205 113 -205Q70 -205 43 -183T16 -126Q16 -97 32 -78T78 -59Q104 -59 121 -74T138 -111Q138 -115 136 -125Q135
-127 135 -129V-131Q135 -138 140 -143T152 -148Q170 -148 187 -126T218 -66L236 -13L117 277Q109 296 99 319T80 364T62 402T50 423Q45 429 39 432T16 437V461H265V437L249 436Q213 433 213 411Q213 408 219 391T233 353L305 167L373 355Q380 375 382 385T384
404Q384 422 373 428T330 437V461H482V437Z" />
<glyph unicode="z" glyph-name="z" horiz-adv-x="444" d="M404 0H21V25L255 429Q202 429 169 425T116 410T84 377T64 319H38L45 461H416V435L185 32H214Q244 32 266 34T305 44T335 62T361 91Q372 107 378 121T392 160H420L404 0Z" />
<glyph unicode="{" glyph-name="braceleft" horiz-adv-x="394" d="M340 -175Q266 -174 228 -166T167 -137Q129 -105 129 -34V145Q129 172 124 190T107 222T75 244T22 261Q54 269 74 278T107 300T124 331T129 377V556Q129 638 179 669Q191 677 205 682T238 691T282
696T340 698V686Q310 680 290 671T257 647T240 611T234 562V391Q234 359 229 338T211 302T174 278T116 261Q151 253 174 244T210 220T229 184T234 131V-40Q234 -97 257 -124T340 -163V-175Z" />
<glyph unicode="|" glyph-name="bar" horiz-adv-x="220" d="M66 -19V691H154V-19H66Z" />
<glyph unicode="}" glyph-name="braceright" horiz-adv-x="394" d="M265 378Q265 351 270 333T287 301T319 279T372 262Q340 254 320 245T287 223T270 192T265 146V-33Q265 -115 215 -146Q203 -154 189 -159T156 -168T112 -173T54 -175V-163Q84 -157 104 -148T137
-124T154 -89T160 -39V132Q160 163 165 184T184 220T220 244T278 262Q243 269 220 278T184 303T165 339T160 392V563Q160 620 137 647T54 686V698Q88 698 112 696T156 691T189 683T215 669Q265 638 265 557V378Z" />
<glyph unicode="~" glyph-name="asciitilde" horiz-adv-x="520" d="M491 263Q457 215 429 196T366 177Q341 177 320 184T263 210Q228 230 202 237T150 245Q133 245 120 239T96 222T79 199T65 173L29 243Q55 288 83 308T152 329Q164 329 176 327T203 321T238 308T286
287Q321 272 337 267T367 261Q396 261 417 283T455 333L491 263Z" />
<glyph unicode="&#xa0;" glyph-name="space" horiz-adv-x="250" />
</font>
</defs>
</svg>
