<?xml version="1.0" standalone="no"?> <!DOCTYPE svg PUBLIC "-//W3C//DTD SVG 1.0//EN" "http://www.w3.org/TR/2001/REC-SVG-20010904/DTD/svg10.dtd" > <svg xmlns="http://www.w3.org/2000/svg" width="100%" height="100%">
<defs >
<font horiz-adv-x="809" ><font-face
    font-family="STIXScriptBold"
    units-per-em="1000"
    panose-1="0 0 0 0 0 0 0 0 0 0"
    ascent="693"
    descent="-218"
    alphabetic="0" />
<missing-glyph horiz-adv-x="500" />
<glyph unicode=" " glyph-name="space" horiz-adv-x="500" />
<glyph unicode="A" glyph-name="A" horiz-adv-x="910" d="M497 384Q470 418 436 433T371 448Q347 448 324 439T283 412T254 369T243 313Q243 257 267 216T331 147Q379 201 419 261T497 384ZM546 222Q546 254 541 280T528 329Q513 305 499 282T468 233T431 180T382
119Q439 96 499 96Q513 125 524 148T544 193Q546 200 546 208T546 222ZM757 612Q733 596 712 578T668 534T622 474T569 395Q580 377 587 358T599 316H601Q638 394 678 469T759 610L757 612ZM905 674Q870 606 839 541T777 407T714 264T646 105Q670 112 687 119T726
138L747 95Q721 75 685 63T620 45L602 0H455L473 41Q441 41 407 48T338 70Q298 28 252 4T151 -21Q116 -21 89 -11T41 16T11 58T0 110Q0 148 24 174T84 201Q117 201 135 179T154 131Q154 109 138 90T91 66V65Q98 51 114 43T152 34Q184 34 217 51T283 98Q227 133
190 185T152 306Q152 352 171 389T222 452T293 493T373 508Q417 508 459 490T534 440Q566 488 598 530T665 605Q709 645 755 672T848 699Q854 699 866 698T895 691L905 674Z" />
<glyph unicode="B" glyph-name="B" horiz-adv-x="953" d="M824 480Q824 502 818 522T798 557Q779 539 763 519T732 477T702 428T668 368Q680 367 702 365T739 354Q759 358 774 370T801 399T818 438T824 480ZM936 645Q913 636 896 627T862 606Q894 580 916 550T938
475Q938 451 929 428T903 385T860 349T799 327V325Q848 302 870 265T893 194Q893 151 868 104T790 22Q739 -13 661 -13Q630 -13 609 -4T575 20T557 51T551 82Q551 100 558 121T584 162T632 197T707 218L715 168Q671 164 645 140T618 84Q618 61 632 52T663 42Q686
42 705 56T737 92T757 142T764 198Q764 229 755 256T725 300Q714 297 699 296T671 294Q661 294 653 296T636 300Q592 215 541 155T434 55T318 -2T193 -21Q105 -21 57 15T8 108Q8 127 14 143T31 173T56 193T89 201Q122 201 139 181T157 134Q157 112 143 92T99 66V65Q124
34 176 34Q215 34 250 44T322 82T395 158T477 282Q511 340 540 387T600 473T665 543T742 602Q695 631 651 637T565 644Q499 644 435 629T320 585T238 511T206 407Q206 362 235 336T306 309Q333 309 362 321T417 361T459 429T478 528H528Q528 478 513 429T469 341T397
278T300 254Q262 254 228 263T167 296Q144 316 130 347T115 414Q115 453 129 487T167 551T223 605T293 647Q356 677 424 688T556 699Q616 699 684 687T808 641Q834 657 859 668T919 690L936 645Z" />
<glyph unicode="C" glyph-name="C" horiz-adv-x="830" d="M363 374Q394 375 433 383T514 407T594 442T665 487T715 539T734 595Q734 612 723 622T688 632Q655 632 613 612T527 558T439 476T362 375L363 374ZM413 623Q400 631 385 635T354 641T326 643T302 644Q268
644 232 637T167 613T118 569T99 504Q99 475 110 454T137 417T174 394T215 384Q255 443 314 497T439 594T572 661T696 687Q755 687 790 669T825 608Q825 562 784 512T674 419T517 348T333 319Q298 266 286 222T273 140Q273 94 303 64T380 34Q417 34 449 45T504
76T540 121T553 174Q553 193 548 206T533 227T514 240T495 244Q447 244 415 210T370 108L320 116Q330 199 384 249T522 299Q588 299 627 272T667 189Q667 146 638 104T564 30Q523 2 472 -9T366 -21Q319 -21 278 -9T206 26T157 82T139 160Q139 202 149 242T183 327Q149
334 118 348T62 385T23 436T8 502Q8 539 28 574T85 638T175 682T295 699Q324 699 359 695T435 668L413 623Z" />
<glyph unicode="D" glyph-name="D" horiz-adv-x="871" d="M263 52Q232 72 204 79T148 87Q143 87 136 86T121 83T109 76T104 65Q104 50 120 44T168 38Q220 38 263 51V52ZM414 47Q429 42 450 38T492 34Q543 34 590 53T673 109T731 204T753 336Q753 366 748 392T735
444H734Q712 412 692 373T655 300Q615 222 555 156T414 49V47ZM859 566Q836 556 823 547T790 518Q819 473 835 424T851 324Q851 250 821 187T741 78T627 5T496 -21Q448 -21 405 -13T327 7Q290 -5 253 -11T169 -17Q135 -17 109 -14T62 -2Q13 18 13 61Q13 83 27 99T64
126Q100 142 155 142Q214 142 257 124T341 85Q357 97 374 114T410 158T454 221T510 306Q530 338 549 366T589 421T635 473T692 525Q646 585 575 614T426 644Q359 644 310 629T222 584Q184 555 161 515T137 424Q137 366 171 327T271 288Q305 288 338 300T399 340T443
416T460 534H510Q511 519 511 513T511 498Q511 429 488 379T428 295T350 246T272 230Q168 230 107 281T46 432Q46 466 55 495T81 550T120 596T168 633Q226 670 292 684T420 699Q523 699 608 663T750 566Q765 576 775 582T794 594T814 603T842 613L859 566Z" />
<glyph unicode="E" glyph-name="E" horiz-adv-x="715" d="M378 453Q429 460 473 475T550 511T601 555T620 601Q620 618 609 625T575 632Q546 632 515 617T457 576T407 520T376 455L378 453ZM320 635Q300 641 284 642T243 644Q180 644 143 618T106 549Q106 524
117 507T149 479T197 461T254 453Q262 501 295 544T375 618T476 668T581 687Q711 687 711 607Q711 577 686 544T616 481T509 429T371 398V395Q409 390 430 383T451 358Q451 341 434 329T379 317Q360 317 344 321T316 331Q243 306 201 253T159 135Q159 90 189 62T273
34Q306 34 336 43T390 70T427 113T441 170Q441 186 436 198T421 218T402 230T382 234Q338 234 305 205T253 106L204 116Q240 289 410 289Q484 289 519 259T555 173Q555 139 540 112T502 62Q480 41 452 25T392 -1T329 -16T268 -21Q220 -21 176 -10T99 23T45 79T25
156Q25 232 86 291T264 380V382Q258 391 257 398Q202 401 158 413T82 444T33 491T15 552Q15 582 30 608T73 655T141 687T231 699Q260 699 284 697T334 683L320 635Z" />
<glyph unicode="F" glyph-name="F" horiz-adv-x="971" d="M699 522Q688 510 680 496T664 465T648 424T627 370Q659 376 692 379T761 383Q775 402 795 420T840 439Q863 439 875 426T888 395Q888 365 862 343T788 314Q788 285 791 267T796 241L726 215Q722 230 722
249Q722 263 723 273T728 299Q660 299 595 285Q562 203 516 145T417 50T305 -4T189 -21Q101 -21 56 15T11 108Q11 127 17 143T35 173T62 193T95 201Q128 201 145 181T163 134Q163 112 149 92T105 66V65Q113 54 132 44T185 34Q224 34 257 47T318 86T370 145T415
220Q416 222 417 224T419 228Q368 204 332 181T279 143L244 179Q257 192 279 209T329 246T393 285T471 323Q502 377 527 414T575 478T619 523T664 558L699 522ZM971 657Q929 620 871 595T753 570Q696 570 648 581T557 607T475 632T396 644Q352 644 316 632T254
600T214 552T199 492Q199 464 207 445T229 414T259 397T291 391Q309 391 329 398T367 421T401 466T427 535L472 526Q469 483 452 448T409 388T350 350T280 336Q234 336 191 358Q156 377 132 412T108 495Q108 550 140 589T226 658Q271 682 328 690T455 699Q497 699
541 693T629 680T717 667T801 661Q814 661 832 663T869 670T908 682T945 699L971 657Z" />
<glyph unicode="G" glyph-name="G" horiz-adv-x="737" d="M359 446Q416 449 467 462T558 495T620 540T643 593Q643 611 633 621T600 632Q571 632 539 618T475 578T413 519T359 447V446ZM343 634Q322 640 299 642T259 644Q190 644 149 619T108 548Q108 509 139
489T219 457Q256 511 303 553T400 625T502 671T600 687Q661 687 697 667T734 602Q734 558 693 518T584 448Q529 423 463 408T325 391Q314 371 305 340T295 279Q295 253 305 235T341 217Q375 217 402 224T457 248T520 294T603 368L642 336Q620 316 607 285T576 209Q534
95 441 37T207 -21Q119 -21 69 15T19 108Q19 127 25 143T43 173T69 193T102 201Q135 201 153 181T171 134Q171 112 157 92T113 66V65Q121 54 143 44T199 34Q274 34 329 69T428 179L426 181Q405 172 377 167T324 162Q289 162 259 171T208 197T174 239T161 296Q161
315 167 343T188 401Q110 418 64 454T17 548Q17 580 34 607T83 655T158 687T252 699Q282 699 306 696T357 682L343 634Z" />
<glyph unicode="H" glyph-name="H" horiz-adv-x="1105" d="M290 227Q253 215 219 196T160 153T119 104T103 54Q103 42 109 38T123 34Q138 34 159 50T204 94T249 155T291 225L290 227ZM822 471Q848 477 881 492T943 527T992 573T1012 627Q1012 644 994 644Q982
644 962 632T919 598T870 544T822 473V471ZM739 639Q708 615 680 588T624 529T571 456T518 365Q524 366 537 370T564 378T590 386T607 392Q664 466 721 523T833 620T936 679T1024 699Q1062 699 1081 683T1101 636Q1101 595 1074 559T999 491T890 434T758 388Q723
338 693 290T640 199T604 124T591 69Q591 41 620 41Q631 41 644 46T674 66T714 105T766 165L808 139Q779 94 752 66T697 18Q671 1 646 -8T593 -18Q560 -18 537 -9T499 15T478 51T471 96Q471 126 479 157T500 217T527 273T554 318Q537 312 515 306T481 295Q452 241
412 185T323 84T223 9T116 -21Q68 -21 40 -3T12 56Q12 90 29 120T73 175Q119 218 183 246T333 305Q352 335 369 363T410 423T465 489T545 567V569Q502 569 474 580T423 606T379 632T331 644Q311 644 294 636T264 613T244 581T237 545Q237 506 255 490T297 473Q312
473 326 478T354 496L383 461Q363 439 338 429T277 418Q245 418 221 428T180 456T155 496T146 545Q146 572 158 599T193 649T252 685T335 699Q375 699 407 691T469 674T526 657T585 649Q602 649 621 651T664 662Q681 668 697 676T733 699L763 658L739 639Z" />
<glyph unicode="I" glyph-name="I" horiz-adv-x="930" d="M722 607Q652 607 604 593T526 556T483 503T470 441Q470 415 483 393T524 358Q542 392 561 427T604 494T657 554T722 604V607ZM94 65Q99 58 110 53T133 43T159 37T181 34Q223 34 262 43T338 77T409 148T477
265Q482 274 486 283T495 303Q446 320 416 359Q399 379 389 406T379 467Q379 508 396 544T439 604Q487 649 550 668T676 687Q712 687 744 684T797 678Q823 690 845 694T878 699Q901 699 915 689T930 664Q930 632 905 617T837 601Q821 601 805 604Q783 588 765 563T732
505T701 437T669 363L670 361Q699 375 730 401T790 476L833 450Q823 431 807 408T767 363T711 322T638 296Q612 241 583 192T516 109Q446 45 368 12T188 -21Q100 -21 50 15T0 108Q0 127 6 143T24 173T51 193T84 201Q117 201 134 181T152 134Q152 112 138 92T94
66V65Z" />
<glyph unicode="J" glyph-name="J" horiz-adv-x="868" d="M314 51Q281 42 242 22T170 -25T114 -82T92 -140Q92 -153 100 -161T121 -169Q146 -169 173 -150T226 -99T275 -28T315 50L314 51ZM660 607Q620 607 576 604T492 583Q456 566 431 534T406 459Q406 425 419
403T456 374Q494 444 544 500T660 605V607ZM642 192Q610 157 567 132T471 88Q443 29 404 -27T317 -126T215 -197T106 -224Q57 -224 29 -200T1 -133Q1 -86 32 -44T112 31T223 89T346 127Q366 181 385 226T428 320Q403 326 382 339T345 372Q330 391 323 415T315 465Q315
530 351 576T439 648Q481 669 526 678T614 687Q638 687 655 686T685 684T711 681T736 678Q759 694 780 696T814 699Q840 699 854 689T868 664Q868 632 842 617T776 601Q759 601 743 604Q728 592 710 570T674 517T638 453T602 382L604 381Q630 392 660 419T721 494L764
469Q750 442 729 415T683 367T628 331T568 313Q559 292 553 276T540 244T526 212T510 176L513 175Q536 184 558 195T607 228L642 192Z" />
<glyph unicode="K" glyph-name="K" horiz-adv-x="1101" d="M837 658Q792 626 759 593T701 524T655 453T615 380Q626 380 637 376T655 368Q675 377 702 403T770 486Q844 590 905 644T1020 699Q1058 699 1076 677T1095 631Q1095 602 1076 583T1029 564Q1001 564
985 578T964 617H962Q946 568 922 523T864 440T792 376T706 337V334Q732 319 743 297T755 250Q755 233 750 217T737 184Q728 167 717 150T695 118T679 90T672 68Q672 41 698 41Q709 41 722 47T754 68T797 109T853 175L892 142Q837 64 783 23T670 -18Q611 -18 581
9T551 76Q551 105 566 135T600 194Q614 215 625 237T637 284Q637 291 630 301T610 311H589Q550 216 503 152T403 50T296 -5T188 -21Q103 -21 57 15T10 108Q10 127 16 143T34 173T61 193T94 201Q127 201 144 181T162 134Q162 112 148 92T104 66V65Q112 54 126 44T174
34Q206 34 237 48T296 88T348 147T392 220Q419 273 442 317T493 402T554 479T636 556H627Q582 556 548 569T485 599T432 630T384 644Q364 644 345 638T309 618T284 584T274 536Q274 517 279 499T295 468T319 446T353 437Q366 437 375 439T394 446T412 460T434 485L472
455Q449 423 417 403T338 382Q265 382 224 424T183 534Q183 564 198 593T240 646T304 684T388 699Q426 699 474 695T568 663Q594 648 615 642T647 636Q661 636 679 638T717 646T760 665T807 699L837 658Z" />
<glyph unicode="L" glyph-name="L" horiz-adv-x="988" d="M258 54Q227 74 199 81T143 89Q138 89 131 88T116 85T104 78T99 67Q99 38 163 38Q189 38 212 42T258 53V54ZM692 388Q726 400 761 419T826 465T873 522T892 590Q892 607 882 615T859 624Q836 624 813 603T767
548T725 472T690 389L692 388ZM624 604Q597 619 572 627T526 639T487 643T458 644Q422 644 386 635T322 609T275 565T257 503Q257 469 274 443T322 399T395 372T488 362Q497 362 507 362T532 364Q553 407 571 440T615 512Q635 541 664 571T728 625T799 664T873
679Q932 679 957 655T983 592Q983 558 958 519T890 442T789 373T663 323Q618 231 554 161T409 51V49Q435 41 454 39T487 36Q553 36 624 68T765 177L801 142Q730 59 652 19T490 -21Q459 -21 435 -19T390 -12T354 -3T322 8Q287 -3 249 -10T160 -17Q124 -17 98 -14T52
0Q31 11 20 27T8 61Q8 80 20 96T52 123Q91 144 152 144Q209 144 252 126T336 87Q374 113 415 167T504 307H476Q423 307 368 317T268 351T195 413T166 507Q166 547 188 582T249 643T340 684T453 699Q491 699 543 690T646 648L624 604Z" />
<glyph unicode="M" glyph-name="M" horiz-adv-x="1196" d="M1185 674Q1111 560 1053 460T954 280T892 146T870 68Q870 41 896 41Q919 41 959 72T1063 174L1100 140Q1040 68 985 25T868 -18Q810 -18 780 5T749 77Q749 154 819 289T1033 616L1031 617Q997 594 965
562T899 485T826 380T742 238Q706 174 678 127T618 50Q590 23 561 10T494 -4Q462 -4 438 17T413 72Q413 96 422 127T448 193Q476 251 508 307T575 415T642 516T707 607L706 608Q669 582 638 552T576 484T516 402T453 302Q400 214 360 149T278 42Q249 12 217 -4T141
-21Q79 -21 40 9T0 97Q0 135 24 161T84 188Q117 188 135 166T154 118Q154 107 151 96T140 75T120 60T91 54V53Q101 39 117 37T152 34Q177 34 198 45T242 84T294 154T362 263Q431 377 486 453T593 580Q658 645 716 672T828 699Q848 699 865 691L875 674Q822 600
772 522T679 371T603 237T553 137Q551 133 548 126T542 109T537 92T534 77Q534 73 536 68T545 63Q561 63 582 86T624 142T663 206T690 257Q715 303 742 349T798 439T858 520T921 591Q970 641 1020 670T1122 699Q1130 699 1147 698T1174 691L1185 674Z" />
<glyph unicode="N" glyph-name="N" horiz-adv-x="1020" d="M639 175Q668 213 688 254T724 340Q738 378 751 422T779 510T813 591T857 656Q877 677 896 688T946 699Q982 699 1000 677T1018 631Q1018 602 998 583T952 564Q929 564 914 574T888 603H884Q868 589 855
556T827 479T796 381T757 275Q739 234 716 193T666 114T609 44T548 -13H497Q508 47 509 120T515 297Q516 319 518 346T523 403T532 460T543 512H541Q514 469 489 423T441 329Q419 285 396 242T351 161T308 93T270 45Q207 -21 132 -21Q104 -21 80 -13T38 10T10 48T0
98Q0 114 6 130T24 159T51 180T86 188Q121 188 139 166T157 117Q157 108 153 98T141 78T120 62T91 55V54Q95 46 107 40T139 34Q169 34 197 54T254 114T316 210T385 342Q437 446 476 514T558 626Q580 649 606 665T659 694L684 672Q677 652 673 620T665 549T659 466T653
375Q649 324 645 270T635 175H639Z" />
<glyph unicode="O" glyph-name="O" horiz-adv-x="692" d="M648 553Q641 574 626 590T591 619T548 637T503 644Q458 644 414 625T329 573T253 494T192 395T151 282T136 163Q136 138 142 115T162 74T195 45T242 34Q278 34 300 40T348 59Q389 79 423 112T482 186T521
275T535 372Q535 399 529 422T511 462T487 489T459 499Q437 499 419 488T388 457T367 413T359 360Q359 336 365 312T385 265L341 243Q315 286 310 316T304 369Q304 410 317 445T355 507T412 549T486 564Q514 564 541 554T589 522T622 469T635 392Q635 347 621 299T580
204T517 117T433 46T333 -3T220 -21Q170 -21 131 -5T64 40T23 107T9 190Q9 293 48 385T153 547T309 658T497 699Q537 699 571 688T629 658T669 614T686 562L648 553Z" />
<glyph unicode="P" glyph-name="P" horiz-adv-x="949" d="M886 651Q870 644 857 637T831 622Q884 587 915 542T947 439Q947 404 936 374T902 322T849 287T777 274Q760 274 744 279T714 295T692 321T683 355Q683 380 691 397T712 426L753 398Q744 387 741 378T738
361Q738 344 749 337T771 329Q798 329 815 357T833 429Q833 474 815 508T766 569Q738 540 718 507T682 439T651 367T617 295Q570 207 521 147T420 49T311 -4T193 -21Q105 -21 57 15T8 109Q8 128 14 144T31 173T56 193T89 201Q122 201 139 181T157 134Q157 112 143
92T99 66V65Q113 48 135 41T183 34Q226 34 259 45T324 84T388 160T462 282Q492 336 520 383T577 472T637 547T703 610Q666 627 627 635T552 644Q478 644 415 627T306 579T233 507T206 419Q206 374 233 348T298 321Q326 321 351 332T397 368T430 432T447 529H497Q497
483 486 437T450 352T385 290T287 266Q251 266 220 276T166 306T129 355T115 423Q115 488 161 549T290 649Q395 699 545 699Q605 699 662 688T769 654Q792 667 816 678T867 698L886 651Z" />
<glyph unicode="Q" glyph-name="Q" horiz-adv-x="697" d="M647 553Q640 574 625 590T590 619T547 637T502 644Q457 644 413 625T328 573T252 494T191 395T150 282T135 163Q135 138 141 115T161 74T194 45T241 34Q260 34 275 36T304 41T329 50T356 63Q345 83 334
87T317 92Q311 92 306 92T294 88T279 79T257 63L227 103Q256 133 287 154T348 176Q375 176 397 167T441 131Q484 179 509 242T534 372Q534 426 513 462T448 499Q425 499 409 488T381 459T364 418T358 370Q358 344 365 319T385 275L341 253Q321 283 312 314T303
377Q303 414 315 448T352 507T409 548T485 564Q513 564 540 554T588 522T621 469T634 392Q634 352 623 310T592 227T542 148T476 79Q487 64 501 48T527 31Q534 31 541 32T557 38T578 53T609 81L642 47Q606 -1 574 -26T500 -52Q460 -52 434 -38T383 17Q345 0 305
-10T219 -21Q169 -21 130 -5T63 40T22 107T8 190Q8 293 47 385T152 547T308 658T496 699Q536 699 570 688T628 658T668 614T685 562L647 553Z" />
<glyph unicode="R" glyph-name="R" horiz-adv-x="941" d="M810 481Q810 534 767 569Q723 524 699 472T651 367Q684 367 713 349Q732 352 749 365T780 396T802 437T810 481ZM926 142Q871 64 819 23T702 -18Q643 -18 611 9T579 76Q579 103 592 128T621 177T650 223T664
267Q664 277 661 284T650 294Q628 294 620 299Q575 212 526 151T424 52T313 -3T193 -21Q105 -21 57 15T8 109Q8 128 14 144T31 173T56 193T89 201Q122 201 139 181T157 134Q157 112 143 92T99 66V65Q113 48 136 41T186 34Q229 34 262 45T326 84T389 160T462 282Q492
337 520 384T576 473T636 548T703 610Q666 627 627 635T552 644Q478 644 415 627T306 579T233 507T206 419Q206 397 213 379T234 348T263 328T298 321Q331 321 359 333T411 387Q425 411 434 444T446 520H496Q496 474 485 429T449 347T384 289T285 266Q251 266 221
276T167 307T129 356T115 423Q115 488 161 548T290 648Q342 673 406 686T545 699Q605 699 662 688T769 654Q813 679 867 698L886 651Q856 638 831 622Q873 595 898 558T924 476Q924 441 910 413T870 364T813 331T746 315V313Q766 293 773 273T780 227Q780 208 768
187T741 144T714 103T702 68Q702 41 728 41Q739 41 753 47T786 68T830 109T887 175L926 142Z" />
<glyph unicode="S" glyph-name="S" horiz-adv-x="706" d="M309 126Q303 166 292 191T266 229T235 246T202 251Q182 251 166 242T139 219T122 186T116 149Q116 131 125 111T150 73T190 45T242 34Q273 34 302 43T354 72T391 123T405 197Q405 225 393 248T364 291T326
332T288 374T258 423T246 482Q246 537 273 578T341 646T432 686T527 699Q556 699 587 693T643 672T685 634T702 577Q702 544 684 517T636 469T571 438T501 426V476Q547 480 579 502T611 571Q611 590 604 603T584 626T557 639T526 644Q501 644 474 635T425 607T389
562T374 502Q374 471 386 447T416 401T456 359T496 317T527 269T539 210Q539 157 516 115T451 42T355 -4T236 -21Q191 -21 149 -12T74 18T22 71T2 147Q2 186 19 215T63 265T125 296T196 306Q262 306 305 267T358 136L309 126Z" />
<glyph unicode="T" glyph-name="T" horiz-adv-x="971" d="M699 522Q675 498 660 467T633 402T611 333T588 265Q568 214 541 173T480 97Q417 34 340 7T190 -21Q102 -21 57 15T11 108Q11 127 17 143T35 173T62 193T95 201Q128 201 145 181T163 134Q163 112 149 92T105
66V65Q113 54 132 44T185 34Q219 34 250 45T312 82T373 151T436 260Q472 331 498 375T548 449T599 504T664 558L699 522ZM971 657Q929 620 871 595T753 570Q696 570 648 581T557 607T475 632T396 644Q352 644 316 632T254 598T214 548T199 487Q199 459 207 439T230
405T262 386T300 380Q360 380 396 421T460 549L508 537Q498 486 478 447T430 380T368 339T298 325Q268 325 241 329T190 347Q155 366 132 399T108 480Q108 535 140 582T226 658Q271 682 328 690T455 699Q497 699 541 693T629 680T717 667T801 661Q814 661 832 663T869
670T908 682T945 699L971 657Z" />
<glyph unicode="U" glyph-name="U" horiz-adv-x="860" d="M550 106Q546 98 544 89T541 70Q541 58 546 50T564 41Q586 41 620 69T713 171L754 138Q724 93 698 66T642 18Q616 -1 591 -9T538 -18Q438 -18 420 68H419Q398 42 377 25T334 -3T288 -17T239 -21Q191 -21
159 4T126 75Q126 88 130 104T143 140T168 186T205 246L354 476Q369 499 376 522T384 565Q384 599 361 621T287 644Q251 644 217 632T158 597T117 545T101 480Q101 449 117 430T157 410Q200 410 224 437T268 514L316 499Q308 474 295 449T261 402T213 368T150 355Q100
355 66 376Q40 393 25 420T10 480Q10 528 34 568T99 638T191 683T296 699Q335 699 373 690T440 661T487 614T505 547Q505 523 490 491T451 419L271 128Q265 119 256 99T247 61Q247 34 274 34Q294 34 320 52T372 100Q402 134 432 177T489 264T537 346T572 407L719
669H854L550 106Z" />
<glyph unicode="V" glyph-name="V" horiz-adv-x="976" d="M287 58Q352 97 400 139T487 224T556 313T619 407Q664 476 701 530T771 622T835 679T902 699Q923 699 937 693T960 676T972 653T976 631Q976 603 958 584T912 564Q887 564 869 578T846 617H844Q815 593
775 540T676 393Q604 276 538 199T414 79Q356 34 301 7T186 -21Q183 -21 180 -21T169 -20T151 -17T120 -12Q157 24 181 65T225 152T263 246T308 346T372 448T469 552V556Q433 556 406 559T350 573Q324 583 307 595T275 618T246 636T212 644Q192 644 173 638T138
618T113 584T103 535Q103 497 124 473T175 448Q201 448 221 458T265 498L303 466Q276 435 246 414T169 393Q138 393 110 402T60 431T25 477T12 541Q12 580 30 609T77 659T142 689T216 699Q253 699 291 694T376 663Q402 648 423 642T455 636Q469 636 487 637T525
645T568 664T615 699L651 664Q611 622 583 585T533 512T494 437T458 355Q424 272 380 196T284 62L287 58Z" />
<glyph unicode="W" glyph-name="W" horiz-adv-x="1261" d="M591 58Q640 85 683 125T764 211T837 308T903 407Q948 476 985 530T1055 622T1119 679T1186 699Q1207 699 1221 693T1244 676T1256 653T1260 631Q1260 604 1243 584T1197 564Q1171 564 1153 578T1130
617H1128Q1099 593 1059 540T960 393Q912 316 859 242T746 109T622 15T490 -21Q478 -21 467 -20T432 -12Q453 7 471 29T507 83T545 161T592 273Q597 287 609 316T636 376H634Q612 342 585 299T525 212T455 126T375 52T285 -1T188 -21Q178 -21 166 -20T128 -12Q161
15 182 52T220 134T256 230T302 335T369 444T471 554V556Q435 556 408 559T352 573Q326 583 309 595T277 618T248 636T214 644Q194 644 175 638T140 618T115 584T105 535Q105 497 126 473T177 448Q203 448 223 458T267 498L305 466Q278 435 248 414T171 393Q99
393 57 433T14 541Q14 571 29 599T71 650T135 685T218 699Q255 699 293 694T378 663Q404 648 425 642T457 636Q471 636 489 637T527 645T570 664T617 699L653 664Q600 612 566 563T506 466T461 369T417 271T361 169T279 62L281 58Q334 81 383 131T479 245T574 379T671
511T774 621T888 687Q902 687 915 685T937 679Q894 633 865 582T811 478T767 369T722 261T665 158T588 62L591 58Z" />
<glyph unicode="X" glyph-name="X" horiz-adv-x="962" d="M612 567Q627 589 646 612T691 655T746 686T815 699Q841 699 866 691T912 668T944 631T956 580Q956 564 950 549T933 521T907 500T872 492Q837 492 818 513T799 561Q799 570 803 580T815 600T836 616T865
623V624Q861 632 849 638T817 644Q755 644 713 597T630 451Q611 404 593 354T561 258T539 174T530 112Q530 76 545 59T580 41Q609 41 648 69T750 169L788 139Q759 105 730 77T671 27T611 -6T549 -18Q516 -18 492 -11T449 9T417 42T391 87H389Q344 28 286 4T161
-21Q135 -21 108 -13T59 10T24 47T10 98Q10 114 16 130T34 159T61 180T96 188Q131 188 149 166T167 117Q167 108 163 98T151 78T130 62T101 55V54Q105 46 122 40T159 34Q200 34 233 46T295 83T349 144T398 228Q420 271 437 312T466 390T484 456T490 503Q490 571
469 607T391 644Q355 644 321 629T259 587T216 528T200 461Q200 424 218 401T271 378Q309 378 329 398T369 457L413 439Q400 413 386 392T353 356T311 332T256 323Q225 323 199 332T152 359T121 404T109 467Q109 494 119 520T146 569T184 612T227 647Q270 676 311
687T396 699Q480 699 535 664T610 567H612Z" />
<glyph unicode="Y" glyph-name="Y" horiz-adv-x="918" d="M350 -22Q327 -27 293 -36T227 -60T172 -95T149 -143Q149 -151 155 -160T178 -169Q194 -169 214 -162T257 -138T304 -93T351 -23L350 -22ZM918 669Q856 586 805 516T711 380T630 251T558 121L560 120Q577
128 603 144T660 184L695 148Q647 99 601 74T517 32Q493 -17 457 -63T376 -145T277 -202T164 -224Q143 -224 124 -219T91 -204T67 -178T58 -141Q58 -96 87 -62T163 -4Q211 19 270 31T392 58Q404 84 419 110T448 159L445 160Q416 135 382 117T300 98Q247 98 217
122T187 194Q187 212 193 230T212 270T248 321T301 390Q337 437 357 465T386 510T397 539T399 565Q399 599 371 621T292 644Q256 644 222 632T163 597T122 545T106 480Q106 449 122 430T162 410Q204 410 232 437T278 512L321 500Q314 475 301 449T268 402T221 368T158
355Q134 355 113 359T74 374Q46 391 31 419T15 480Q15 528 39 568T104 638T196 683T301 699Q340 699 379 690T450 661T500 614T520 547Q520 525 512 504T487 456T443 391T375 300Q353 270 340 251T319 218T310 195T308 178Q308 170 314 164T331 157Q349 157 377
177T439 233T513 317T596 423L780 669H918Z" />
<glyph unicode="Z" glyph-name="Z" horiz-adv-x="943" d="M239 56Q216 70 193 79T142 89Q117 89 110 80T102 61Q102 50 117 44T159 37Q201 37 239 56ZM703 598Q717 593 742 586T793 579Q815 579 830 584T846 608Q846 617 836 625T797 633Q774 633 750 627T703
600V598ZM446 509Q434 485 418 464T380 427T331 402T269 392Q202 392 158 427T114 525Q114 555 130 586T176 642T251 683T354 699Q438 699 509 680T632 627Q717 688 796 688Q834 688 861 681T905 662T929 638T937 611Q937 598 931 583T909 554T865 533T794 524Q759
524 729 532T663 552Q622 499 600 445T557 336Q575 337 599 346T649 379L681 346Q651 309 613 283T524 256Q520 248 517 241T509 225Q459 133 382 71Q412 60 443 54T508 47Q533 47 565 53T627 74T684 114T725 179H775Q755 85 691 32T511 -21Q462 -21 424 -17T354
-3Q323 8 302 19Q264 2 225 -8T142 -18Q103 -18 78 -11T38 7T17 33T11 61Q11 100 53 123Q72 134 98 139T153 144Q188 144 225 132T300 104Q308 115 316 126T332 151Q347 179 359 210T388 279H386Q372 279 347 273T283 235L253 275Q290 317 330 338T424 359Q451
418 487 474T575 576Q520 602 468 616T350 631Q320 631 294 624T248 602T217 568T205 523Q205 484 227 466T282 447Q315 447 344 465T401 531L446 509Z" />
<glyph unicode="a" glyph-name="a" horiz-adv-x="837" d="M831 181Q758 86 691 38T557 -11Q528 -11 506 1T470 45Q446 27 426 16T386 -2T348 -11T307 -14Q279 -14 254 -8T209 14T177 52T165 110Q165 139 171 167T189 221Q168 213 148 208T97 203Q73 203 49 208T1
225L13 268Q36 258 54 256T95 253Q132 253 160 262T210 284T245 311T267 334V333Q295 362 329 385T399 426T474 452T548 462Q561 462 581 461T621 453T660 431T690 387L649 368Q629 397 610 404T561 412Q526 412 492 396T426 352T368 291T322 220T291 149T280 87Q280
61 292 49T325 36Q339 36 357 40T393 54T428 76T458 108Q457 115 457 122T457 137Q457 169 467 203T495 264T539 309T595 327Q621 327 633 314T645 278Q645 255 636 229T610 178T571 129T524 87Q530 61 539 50T573 39Q585 39 603 44T649 67T712 119T796 210L831
181Z" />
<glyph unicode="b" glyph-name="b" horiz-adv-x="571" d="M323 501Q354 502 382 513T431 541T465 581T478 628Q478 640 473 644T460 649Q449 649 438 644T410 622T373 578T322 503L323 501ZM67 577Q81 565 99 553T136 531T172 514T204 506Q235 545 269 580Q323
635 373 667T467 699Q509 699 538 680T568 628Q568 583 535 542T447 474Q414 458 374 449T291 439Q275 418 256 388T216 323T177 253T144 182T120 119T111 69Q111 54 121 45T144 36Q177 36 208 51T266 92T317 147T356 206Q343 229 341 249T339 287Q339 319 348
346T373 392T406 423T442 434Q467 434 477 420T487 385Q487 367 482 345T470 302T453 262T437 231Q448 223 459 220T485 217Q493 217 504 219T524 224L535 180Q519 173 503 170T469 167Q452 167 437 170T409 180Q345 86 278 36T122 -14Q71 -14 38 16T4 106Q4 136
16 177T51 265T102 361T167 458Q137 467 105 486T36 541L67 577Z" />
<glyph unicode="c" glyph-name="c" horiz-adv-x="657" d="M12 268Q35 258 53 256T94 253Q125 253 150 259T196 276T230 298T255 321Q312 382 381 422T523 462Q547 462 570 457T610 442T637 416T648 379Q648 363 643 348T629 320T607 300T575 292Q546 292 532 306T518
342Q518 357 524 365T537 379T551 389T557 401Q557 407 551 409T540 412Q508 412 477 396T416 354T362 293T319 224T290 154T279 92Q279 62 292 49T321 36Q344 36 371 43T432 72T506 130T596 228L630 198Q543 87 468 37T312 -14Q246 -14 205 18T164 109Q164 164
189 222Q168 213 148 208T96 203Q72 203 48 208T0 225L12 268Z" />
<glyph unicode="d" glyph-name="d" horiz-adv-x="892" d="M560 376Q560 395 551 403T530 412Q497 412 447 378T343 266Q295 197 275 151T255 73Q255 57 263 47T285 36Q299 36 312 39T340 49T371 68T408 99Q438 127 465 163T514 236T547 310T560 376ZM561 101Q558
96 554 84T550 62Q550 53 555 46T566 39Q578 39 595 44T637 68T697 119T777 209L812 180Q779 135 748 100T683 40T615 2T539 -11Q487 -11 467 11T446 64H444Q412 29 367 8T265 -14Q209 -14 175 16T140 98Q140 127 149 156T175 216Q156 210 139 207T96 203Q72 203
48 208T0 225L12 268Q35 258 53 256T94 253Q123 253 146 259T189 274T222 294T248 316Q288 355 332 388T429 443Q454 453 481 457T532 462Q558 462 580 453T613 423H615L760 699H884L561 101Z" />
<glyph unicode="e" glyph-name="e" horiz-adv-x="622" d="M296 243Q349 249 390 264T458 299T500 343T515 390Q515 405 506 411T489 417Q449 417 400 373T295 244L296 243ZM29 319Q55 288 90 272T162 250Q187 294 225 332T306 400T397 445T490 462Q544 462 578
439T613 378Q613 360 606 341T578 300Q555 276 521 257T447 225T361 203T270 194Q264 189 259 178T249 154T241 125T238 94Q238 65 253 51T292 36Q319 36 353 51T425 91T497 147T559 212L591 180Q553 133 505 91T402 20Q370 4 337 -5T267 -14Q198 -14 161 19T123
110Q123 133 127 157T140 204Q102 212 64 232T0 284L29 319Z" />
<glyph unicode="f" glyph-name="f" horiz-adv-x="724" d="M460 430Q490 445 521 465T577 510T618 562T634 619Q634 637 628 643T608 649Q596 649 582 636T552 602T522 556T495 506T473 462T458 432L460 430ZM192 162Q183 177 180 191T176 221Q176 264 211 305T307
373Q349 455 386 516T459 618T533 679T617 699Q669 699 696 679T724 626Q724 577 692 535T614 459T516 400T424 359L307 149Q321 142 335 140T368 137Q395 137 430 146T505 191L532 155Q486 117 443 102T355 87Q311 87 280 96L124 -205H0L192 162Z" />
<glyph unicode="g" glyph-name="g" horiz-adv-x="747" d="M343 -91Q328 -86 311 -84T280 -82Q261 -82 243 -85T209 -96T184 -115T174 -144Q174 -161 187 -167T214 -174Q225 -174 239 -172T270 -161T305 -137T343 -91ZM565 375Q565 398 554 405T532 412Q497 412
450 373T345 250Q300 185 281 144T262 74Q262 56 272 48T292 39Q323 39 355 58T417 108T474 177T521 252T553 322T565 375ZM467 -69Q483 -77 503 -79T540 -81Q558 -81 584 -77T650 -46L670 -87Q636 -112 598 -121T529 -131Q506 -131 483 -128T440 -117Q392 -174
330 -199T202 -224Q139 -224 107 -200T74 -147Q74 -130 83 -115T106 -87T138 -64T174 -47Q189 -41 205 -38T238 -34T269 -32T295 -32Q307 -32 329 -34T370 -40L410 32H407Q374 9 340 -1T264 -11Q214 -11 181 18T147 99Q147 128 155 157T179 216Q161 210 142 206T97
202Q73 202 49 207T1 225L13 268Q36 258 54 255T95 252Q122 252 144 257T185 271T218 290T245 310Q275 343 312 370T388 418T463 450T531 462Q560 462 582 455T619 431H621L631 449H745L467 -69Z" />
<glyph unicode="h" glyph-name="h" horiz-adv-x="710" d="M389 508Q410 513 432 521T472 543T502 576T514 625Q514 638 508 643T496 649Q485 649 476 645T456 627T428 585T388 509L389 508ZM704 186Q634 89 564 38T421 -14Q400 -14 383 -7T355 12T337 39T331 69Q331
94 340 127T377 198L485 349Q490 357 496 367T502 392Q502 408 482 408Q452 408 414 383T332 313T244 202T155 57L124 0H1L250 458Q213 466 174 484T107 538L138 571Q154 556 173 545T211 526T248 513T277 507Q306 561 331 597T383 656T438 689T501 699Q555 699
579 676T604 622Q604 578 579 547T517 495T437 463T360 449L317 370L320 369Q365 414 413 436T501 458Q546 458 574 440T602 387Q602 364 589 335T553 270L448 99Q445 94 438 81T431 56Q431 49 435 43T448 36Q464 36 484 45T530 74T590 129T668 214L704 186Z" />
<glyph unicode="i" glyph-name="i" horiz-adv-x="499" d="M446 177Q409 128 379 92T319 33T261 -2T197 -14Q151 -14 123 9T94 78Q94 99 99 119T113 161T134 205T162 256L211 347Q186 333 161 326T96 318Q72 318 48 323T0 340L12 383Q35 373 53 371T94 368Q131
368 159 377T209 399T244 426T266 449H384L220 134Q214 123 208 103T201 65Q201 54 206 45T222 36Q234 36 251 45T290 74T342 127T410 205L446 177ZM494 633Q494 607 476 589T430 571Q403 571 385 589T367 637Q367 661 386 679T429 698Q456 698 475 679T494 633Z"
/>
<glyph unicode="j" glyph-name="j" horiz-adv-x="782" d="M269 -91Q254 -86 237 -84T206 -82Q187 -82 169 -85T135 -96T110 -115T100 -144Q100 -161 113 -167T140 -174Q151 -174 165 -172T196 -161T231 -137T269 -91ZM393 -69Q409 -77 429 -79T466 -81Q484 -81
510 -77T576 -46L596 -87Q562 -112 524 -121T455 -131Q432 -131 409 -128T366 -117Q318 -174 256 -199T128 -224Q64 -224 32 -200T0 -147Q0 -130 9 -115T32 -87T64 -64T100 -47Q115 -41 131 -38T164 -34T195 -32T221 -32Q233 -32 255 -34T296 -40L503 347Q478 333
448 326T377 318Q353 318 329 323T281 340L293 383Q316 373 334 371T375 368Q412 368 442 377T495 399T533 426T557 449H669L393 -69ZM782 633Q782 607 764 589T718 571Q691 571 673 589T655 637Q655 661 674 679T717 698Q744 698 763 679T782 633Z" />
<glyph unicode="k" glyph-name="k" horiz-adv-x="684" d="M389 508Q410 513 432 521T472 543T502 576T514 625Q514 638 508 643T496 649Q485 649 476 645T456 627T428 585T388 509L389 508ZM676 181Q638 133 606 97T542 36T480 -1T415 -14Q373 -14 344 4T314 58Q314
78 320 92T332 120T345 147T351 179Q351 193 343 204T304 218L322 263Q364 267 398 280T456 310T493 348T506 388Q506 403 496 405T483 408Q454 408 416 384T335 314T245 203T155 57L124 0H1L250 458Q213 466 179 484T117 538L148 571Q164 556 182 545T217 526T250
514T277 507Q306 561 331 597T383 656T438 689T501 699Q549 699 576 679T604 627Q604 584 579 552T517 498T437 464T360 449L317 370L320 369Q365 414 411 436T511 458Q553 458 579 438T606 391Q606 367 589 343T544 297T477 260T396 237V234Q425 214 438 195T451
153Q451 138 446 126T435 104T423 82T418 58Q418 52 423 44T437 36Q449 36 466 43T509 70T566 123T640 209L676 181Z" />
<glyph unicode="l" glyph-name="l" horiz-adv-x="592" d="M293 420Q330 428 367 445T434 487T482 546T501 621Q501 633 496 641T476 649Q455 649 429 624T378 562T330 487T292 421L293 420ZM28 467Q43 457 62 448T99 431T132 420T156 414Q252 554 333 626T481
699Q503 699 523 694T558 679T582 653T591 614Q591 556 556 506T463 420Q419 393 366 377T255 355Q236 323 214 285T172 207T139 132T126 69Q126 49 134 43T151 36Q163 36 181 43T224 69T279 119T345 198L381 171Q346 121 314 86T252 29T192 -3T131 -14Q80 -14
50 16T19 107Q19 133 27 164T50 229T83 297T122 362Q109 365 92 372T58 389T26 409T2 429L28 467Z" />
<glyph unicode="m" glyph-name="m" horiz-adv-x="1031" d="M1021 186Q951 89 884 38T738 -14Q717 -14 700 -7T672 12T654 39T648 69Q648 94 657 127T694 198L802 349Q807 355 813 368T819 392Q819 400 814 406T796 412Q766 412 728 387T648 315T560 203T472 57L441
0H318L521 356Q524 361 528 372T533 393Q533 401 529 406T513 412Q483 412 445 387T363 315T275 203T186 57L155 0H32L219 347Q195 333 170 326T105 318Q81 318 57 323T9 340L21 383Q44 373 62 371T103 368Q140 368 168 377T218 399T253 426T275 449H389L348 370L351
369Q396 414 444 438T532 462Q577 462 605 443T633 387Q633 379 630 369H633Q678 414 727 438T815 462Q860 462 889 443T919 387Q919 364 906 335T870 270L765 99Q762 94 755 81T748 56Q748 49 751 43T764 36Q780 36 800 45T846 74T907 129T985 214L1021 186Z"
/>
<glyph unicode="n" glyph-name="n" horiz-adv-x="738" d="M731 186Q661 89 594 38T448 -14Q427 -14 410 -7T382 12T364 39T358 69Q358 94 367 127T404 198L512 353Q517 361 523 371T529 396Q529 412 509 412Q479 412 441 387T359 315T271 203T182 57L151 0H28L215
347Q191 333 166 326T101 318Q77 318 53 323T5 340L17 383Q40 373 58 371T98 368Q135 368 163 377T213 399T249 426T271 449H385L344 370L347 369Q392 414 440 438T528 462Q573 462 601 443T629 387Q629 364 616 335T580 270L475 99Q472 94 465 81T458 56Q458 49
462 43T476 36Q492 36 511 45T557 74T617 129T695 214L731 186Z" />
<glyph unicode="o" glyph-name="o" horiz-adv-x="748" d="M591 371Q591 391 579 401T544 412Q516 412 486 395T426 351T371 289T324 219T293 149T281 89Q281 60 294 48T327 36Q359 36 389 51T446 89T496 141T536 198Q521 212 514 233T506 273Q506 292 513 308T532
338T559 359T591 371ZM745 193Q722 177 700 170T646 162Q610 162 583 171Q552 122 515 84T440 23Q408 3 376 -5T309 -14Q246 -14 206 16T166 110Q166 139 172 167T190 223Q169 213 148 208T94 203Q70 203 47 208T0 225L12 268Q35 258 52 256T92 253Q125 253 150
260T196 278T230 301T255 324Q284 356 319 383T392 428Q433 448 468 455T540 462Q592 462 619 434T647 354Q647 322 638 289T612 223Q619 217 630 215T650 212Q660 212 668 212T685 214T702 220T722 232L745 193Z" />
<glyph unicode="p" glyph-name="p" horiz-adv-x="752" d="M435 369Q480 414 528 438T616 462Q653 462 678 453T719 428T742 389T749 338Q749 300 735 260T700 184T654 118T605 72Q637 52 665 24T716 -38L679 -65Q646 -27 615 -3T556 36Q517 10 479 -2T409 -14Q362
-14 342 1T322 36Q322 51 331 66T357 94T396 115T446 125Q461 125 477 123T511 116Q534 133 554 156T590 208Q611 245 622 284T634 358Q634 383 623 397T587 412Q557 412 521 387T443 315T358 203T270 57L127 -205H4L303 346Q279 333 254 326T189 318Q165 318 141
323T93 340L105 383Q128 373 146 371T187 368Q224 368 252 377T302 399T337 426T359 449H473L432 370L435 369Z" />
<glyph unicode="q" glyph-name="q" horiz-adv-x="801" d="M559 376Q559 395 550 403T529 412Q496 412 446 378T342 266Q294 197 275 151T256 73Q256 57 264 47T285 36Q299 36 312 39T339 49T370 68T407 99Q437 127 464 163T513 236T546 310T559 376ZM798 193Q767
160 712 107T578 -20Q541 -54 510 -85T456 -141T418 -183T399 -205H276L403 32H401Q368 9 334 -2T258 -14Q208 -14 175 15T141 96Q141 125 149 156T173 216Q155 210 139 207T96 203Q72 203 48 208T0 225L12 268Q35 258 53 256T94 253Q121 253 143 258T184 271T216
290T242 310Q272 343 309 370T383 418T458 450T525 462Q554 462 576 455T613 431H615L625 449H746L495 -18L496 -19L767 224L798 193Z" />
<glyph unicode="r" glyph-name="r" horiz-adv-x="611" d="M611 289Q597 281 580 278T544 275Q517 275 493 282T456 303L208 111L149 0H26L213 347Q189 333 164 326T99 318Q75 318 51 323T3 340L15 383Q38 373 56 371T97 368Q134 368 162 377T212 399T247 426T269
449H389L276 238L277 237L427 349Q426 354 426 358T425 368Q425 390 434 407T457 437T490 455T529 462Q563 462 577 454T602 434L501 344Q512 332 527 329T559 325Q569 325 581 327T599 332L611 289Z" />
<glyph unicode="s" glyph-name="s" horiz-adv-x="409" d="M69 281Q90 289 112 298T157 322T204 357T253 408Q251 411 249 418T244 434T241 450T240 460Q240 490 250 509T273 538T301 553T325 557Q351 557 363 541T375 505Q375 482 364 451T326 397Q338 380 350
364T373 328T391 284T398 226Q398 196 389 166T362 110T322 60T273 21Q241 1 208 -6T133 -14Q110 -14 87 -9T44 8T13 38T0 83Q0 120 21 143T67 166Q76 166 86 164T105 156T120 142T126 120Q126 103 121 96T109 85T97 76T91 62Q91 53 98 45T126 36Q156 36 184 52T234
99T269 175T283 278Q283 296 280 314T274 349Q231 306 181 280T88 240L69 281Z" />
<glyph unicode="t" glyph-name="t" horiz-adv-x="565" d="M543 488H398L213 134Q208 125 201 104T193 65Q193 54 197 45T214 36Q241 36 286 79T408 214L444 186Q406 136 375 99T314 37T255 -1T190 -14Q142 -14 118 10T93 78Q93 99 97 119T109 160T128 204T155
255L187 316H185Q146 280 99 268T4 250L0 296Q41 299 79 313T151 348T212 395T258 449L279 488H178L200 538H302L372 669H492L423 538H565L543 488Z" />
<glyph unicode="u" glyph-name="u" horiz-adv-x="745" d="M736 180Q699 132 670 96T613 37T553 1T481 -11Q439 -11 414 14T389 74V82H388Q371 63 353 46T313 16T265 -6T204 -14Q161 -14 133 10T104 82Q104 110 115 145T150 225L216 347Q191 333 166 326T101 318Q77
318 53 323T5 340L17 383Q40 373 58 371T99 368Q136 368 164 377T214 399T249 426T271 449H391L228 141Q225 136 221 127T214 107T207 85T204 63Q204 51 209 44T227 36Q261 36 300 66T381 151T466 282T553 449H673L507 131Q500 118 495 101T489 69Q489 57 494 48T512
39Q524 39 541 48T580 77T632 130T700 208L736 180Z" />
<glyph unicode="v" glyph-name="v" horiz-adv-x="635" d="M632 180Q618 173 600 170T572 167Q547 167 533 169T502 180Q437 86 370 36T217 -14Q166 -14 135 12T104 91Q104 124 121 167T163 256L212 346Q188 333 163 326T98 318Q74 318 50 323T2 340L14 383Q37
373 55 371T96 368Q133 368 161 377T211 399T246 426T268 449H386L225 142Q223 138 220 130T213 112T207 90T204 69Q204 55 214 46T237 36Q270 36 301 51T359 92T410 147T449 206Q436 229 431 254T426 297Q426 332 434 361T457 412T491 446T533 458Q561 458 570
439T580 385Q580 367 576 346T564 304T548 264T530 231Q541 223 554 220T582 217Q590 217 601 219T621 224L632 180Z" />
<glyph unicode="w" glyph-name="w" horiz-adv-x="924" d="M916 180Q902 173 884 170T856 167Q831 167 817 169T786 180Q721 86 654 36T501 -14Q454 -14 424 9T388 78H387Q366 57 347 40T306 11T261 -7T204 -14Q161 -14 133 10T105 82Q105 110 116 145T151 225L217
347Q192 333 167 326T102 318Q78 318 54 323T6 340L18 383Q41 373 59 371T100 368Q137 368 165 377T215 399T250 426T272 449H392L228 141Q217 121 211 103T205 66Q205 55 211 46T227 36Q261 36 300 66T380 151T464 282T550 449H670L508 142Q503 134 496 112T488
69Q488 55 498 46T521 36Q554 36 585 51T643 92T694 147T733 206Q720 229 715 254T710 297Q710 331 718 360T741 412T775 446T817 458Q845 458 854 439T864 385Q864 367 860 346T848 304T832 264T814 231Q825 223 838 220T866 217Q874 217 885 219T905 224L916
180Z" />
<glyph unicode="x" glyph-name="x" horiz-adv-x="696" d="M48 263Q93 319 131 357T204 417T270 449T336 459Q375 459 398 443T435 404Q454 423 473 434T511 452T546 460T574 462Q625 462 655 440T686 374Q686 339 666 314T610 289Q591 289 575 300T559 337Q559
353 564 361T577 373T589 382T595 395Q595 406 587 409T571 412Q542 412 516 391T468 337T427 264T396 186T376 117T369 72Q369 54 378 47T399 39Q417 39 441 48T496 78T562 132T638 216L673 186Q624 123 576 79T477 11Q429 -11 378 -11Q361 -11 345 -9T314 -1T288
16T269 44Q229 12 194 -1T123 -14Q66 -14 38 14T9 83Q9 115 29 139T83 164Q101 164 118 153T136 116Q136 99 131 91T118 79T106 70T100 55Q100 47 108 42T125 36Q153 36 179 56T230 107T275 177T310 252T333 319T342 365Q342 391 333 400T311 409Q293 409 273 403T226
377T166 324T86 234L48 263Z" />
<glyph unicode="y" glyph-name="y" horiz-adv-x="683" d="M286 -91Q271 -86 254 -84T223 -82Q204 -82 186 -85T152 -96T127 -115T117 -144Q117 -161 130 -167T157 -174Q168 -174 182 -172T213 -161T248 -137T286 -91ZM410 -69Q426 -77 446 -79T483 -81Q492 -81
503 -81T527 -77T557 -67T593 -47L613 -87Q579 -112 541 -121T472 -131Q449 -131 426 -128T383 -117Q335 -174 273 -199T145 -224Q82 -224 50 -200T17 -147Q17 -130 26 -115T49 -87T81 -64T117 -47Q132 -41 148 -38T181 -34T212 -32T238 -32Q250 -32 272 -34T313
-40L358 45H356Q325 17 293 2T209 -14Q166 -14 138 10T109 82Q109 140 156 225L222 347Q197 333 172 326T107 318Q83 318 59 323T11 340L23 383Q46 373 64 371T105 368Q142 368 170 377T220 399T255 426T277 449H397L233 141Q222 121 216 103T209 66Q209 55 215
46T232 36Q266 36 306 66T388 151T475 282T562 449H682L410 -69Z" />
<glyph unicode="z" glyph-name="z" horiz-adv-x="656" d="M651 198Q625 162 603 133T558 80Q510 29 466 9T368 -11Q345 -11 331 -6T308 7T296 24T292 44Q292 56 296 64T304 80T313 95T317 112Q317 125 297 125Q273 125 248 109T180 59Q146 15 113 1T53 -14Q30
-14 20 -3T10 22Q10 39 20 56T50 88T98 115T160 133L390 322V323Q363 316 333 316Q304 316 280 321T244 332Q202 281 153 257T44 224L32 263Q51 267 71 273T111 288T152 311T190 347Q170 360 158 378T145 419Q145 453 166 473T219 493Q251 493 267 475T284 433Q284
419 283 408T274 381Q291 373 310 370T350 366Q376 366 400 371T445 386Q468 421 496 442T563 463Q583 463 596 454T610 427Q610 417 604 405T587 382Q570 366 542 355T482 335L286 173L287 172Q298 174 308 174T325 175Q375 175 401 157T428 114Q428 94 418 80T407
53Q407 41 420 41Q434 41 455 53T503 88T557 146T614 224L651 198Z" />
<glyph unicode="&#xa0;" glyph-name="space" horiz-adv-x="500" />
</font>
</defs>
</svg>
