<svg id="Layer_1" enable-background="new 0 0 512 512" height="512" viewBox="0 0 512 512" width="512" xmlns="http://www.w3.org/2000/svg"><g><g><path d="m292.571 73.143h73.143v73.143h-73.143z" fill="#fff9df"/></g><g><path d="m292.571 73.143h73.143v73.143h-73.143z" fill="#ffbee7"/></g><path d="m329.143 73.143h36.571v73.143h-36.571z" fill="#feaee1"/><g><path d="m292.571 146.286h73.143v73.143h-73.143z" fill="#fe93d3"/></g><g><path d="m0 219.429h73.143v73.143h-73.143z" fill="#c8effe"/><path d="m73.143 219.429h73.143v73.143h-73.143z" fill="#62dbfb"/><path d="m146.286 219.429h73.143v73.143h-73.143z" fill="#ffbee7"/><path d="m219.429 219.429h73.143v73.143h-73.143z" fill="#62dbfb"/><path d="m292.571 219.429h73.143v73.143h-73.143z" fill="#ffbee7"/><path d="m365.714 219.429h73.143v73.143h-73.143z" fill="#62dbfb"/></g><g fill="#fe93d3"><path d="m146.286 292.571h73.143v73.143h-73.143z"/><path d="m292.571 292.571h73.143v73.143h-73.143z"/></g><g><path d="m146.286 365.714h73.143v73.143h-73.143z" fill="#ffbee7"/></g><g><path d="m73.143 365.714h73.143v73.143h-73.143z" fill="#62dbfb"/><path d="m146.286 438.857h73.143v73.143h-73.143z" fill="#fe93d3"/><path d="m219.429 365.714h73.143v73.143h-73.143z" fill="#62dbfb"/><path d="m292.571 365.714h73.143v73.143h-73.143z" fill="#ffbee7"/><path d="m365.714 365.714h73.143v73.143h-73.143z" fill="#62dbfb"/></g><g><path d="m292.571 0h73.143v73.143h-73.143z" fill="#fe93d3"/><g fill="#fe73c5"><path d="m329.143 0h36.571v73.143h-36.571z"/><path d="m329.143 146.286h36.571v73.143h-36.571z"/><path d="m329.143 292.571h36.571v73.143h-36.571z"/></g><path d="m0 73.143h73.143v73.143h-73.143z" fill="#c8effe"/><path d="m73.143 73.143h73.143v73.143h-73.143z" fill="#62dbfb"/><path d="m146.286 73.143h73.143v73.143h-73.143z" fill="#c8effe"/><path d="m219.429 73.143h73.143v73.143h-73.143z" fill="#62dbfb"/><path d="m365.714 73.143h73.143v73.143h-73.143z" fill="#62dbfb"/><path d="m438.857 73.143h73.143v73.143h-73.143z" fill="#c8effe"/><path d="m438.857 365.714h73.143v73.143h-73.143z" fill="#c8effe"/></g><path d="m329.143 219.429h36.571v73.143h-36.571z" fill="#feaee1"/><path d="m329.143 365.714h36.571v73.143h-36.571z" fill="#feaee1"/><path d="m182.857 292.571h36.571v73.143h-36.571z" fill="#fe73c5"/><path d="m182.857 438.857h36.571v73.143h-36.571z" fill="#fe73c5"/><g fill="#feaee1"><path d="m182.857 219.429h36.571v73.143h-36.571z"/><path d="m182.857 365.714h36.571v73.143h-36.571z"/></g></g></svg>