<?xml version="1.0" encoding="UTF-8" standalone="no"?>
<svg
   xmlns:dc="http://purl.org/dc/elements/1.1/"
   xmlns:cc="http://creativecommons.org/ns#"
   xmlns:rdf="http://www.w3.org/1999/02/22-rdf-syntax-ns#"
   xmlns:svg="http://www.w3.org/2000/svg"
   xmlns="http://www.w3.org/2000/svg"
   xmlns:sodipodi="http://sodipodi.sourceforge.net/DTD/sodipodi-0.dtd"
   xmlns:inkscape="http://www.inkscape.org/namespaces/inkscape"
   version="1.1"
   width="512"
   height="512"
   x="0"
   y="0"
   viewBox="0 0 496.159 496.159"
   style="enable-background:new 0 0 512 512"
   xml:space="preserve"
   class=""
   id="svg46"
   sodipodi:docname="sopaaudio.svg"
   inkscape:version="0.92.3 (2405546, 2018-03-11)"><metadata
     id="metadata52"><rdf:RDF><cc:Work
         rdf:about=""><dc:format>image/svg+xml</dc:format><dc:type
           rdf:resource="http://purl.org/dc/dcmitype/StillImage" /></cc:Work></rdf:RDF></metadata><defs
     id="defs50" /><sodipodi:namedview
     pagecolor="#ffffff"
     bordercolor="#666666"
     borderopacity="1"
     objecttolerance="10"
     gridtolerance="10"
     guidetolerance="10"
     inkscape:pageopacity="0"
     inkscape:pageshadow="2"
     inkscape:window-width="1280"
     inkscape:window-height="751"
     id="namedview48"
     showgrid="false"
     inkscape:zoom="0.4609375"
     inkscape:cx="256"
     inkscape:cy="256"
     inkscape:window-x="0"
     inkscape:window-y="0"
     inkscape:window-maximized="1"
     inkscape:current-layer="svg46" /><g
     id="g44">
<path
   style="fill:#f84da8;fill-opacity:1"
   d="M496.159,248.085c0-137.023-111.07-248.082-248.076-248.082C111.071,0.003,0,111.063,0,248.085  c0,137.001,111.07,248.07,248.083,248.07C385.089,496.155,496.159,385.086,496.159,248.085z"
   fill="#069a1c"
   data-original="#e5aa17"
   class=""
   id="path2" />
<g
   id="g12">
	<path
   style=""
   d="M247.711,125.252c-3.41-1.851-7.559-1.688-10.813,0.426l-95.137,61.789h-35.164   c-5.845,0-10.583,4.738-10.583,10.584v92.727c0,5.845,4.738,10.583,10.583,10.583h35.164l95.137,61.79   c1.748,1.135,3.753,1.707,5.765,1.707c1.733,0,3.471-0.425,5.049-1.281c3.41-1.852,5.534-5.421,5.534-9.301V134.553   C253.244,130.672,251.121,127.103,247.711,125.252z"
   fill="#ffffff"
   data-original="#ffffff"
   class=""
   id="path4" />
	<path
   style=""
   d="M282.701,319.271c0.894,0,1.801-0.162,2.685-0.504c24.239-9.412,40.524-38.49,40.524-72.359   c0-29.957-13.2-57.049-33.63-69.018c-3.534-2.072-8.08-0.885-10.153,2.65c-2.073,3.536-0.885,8.082,2.651,10.153   c15.971,9.358,26.291,31.424,26.291,56.214c0,27.359-12.77,51.424-31.055,58.525c-3.82,1.481-5.714,5.781-4.231,9.602   C276.924,317.474,279.729,319.271,282.701,319.271z"
   fill="#ffffff"
   data-original="#ffffff"
   class=""
   id="path6" />
	<path
   style=""
   d="M302.073,350.217c0.895,0,1.802-0.162,2.684-0.504c34.046-13.219,57.822-55.979,57.822-103.988   c0-43.187-18.884-82.156-48.11-99.279c-3.534-2.072-8.082-0.885-10.152,2.652c-2.073,3.535-0.885,8.081,2.651,10.152   c24.768,14.512,40.771,48.455,40.771,86.475c0,42.027-19.883,79.1-48.353,90.154c-3.82,1.481-5.715,5.781-4.231,9.602   C296.295,348.418,299.1,350.217,302.073,350.217z"
   fill="#ffffff"
   data-original="#ffffff"
   class=""
   id="path8" />
	<path
   style=""
   d="M322.025,379.715c-3.005,0-5.841-1.818-6.994-4.788c-1.499-3.861,0.416-8.206,4.277-9.706   c38.764-15.051,65.837-64.404,65.837-120.019c0-50.136-21.609-95.192-55.052-114.786c-3.574-2.094-4.773-6.688-2.68-10.262   c2.094-3.574,6.688-4.774,10.263-2.68c37.948,22.232,62.469,72.369,62.469,127.728c0,61.66-31.009,116.764-75.409,134.002   C323.846,379.551,322.928,379.715,322.025,379.715z"
   fill="#ffffff"
   data-original="#ffffff"
   class=""
   id="path10" />
</g>
<g
   id="g14">
</g>
<g
   id="g16">
</g>
<g
   id="g18">
</g>
<g
   id="g20">
</g>
<g
   id="g22">
</g>
<g
   id="g24">
</g>
<g
   id="g26">
</g>
<g
   id="g28">
</g>
<g
   id="g30">
</g>
<g
   id="g32">
</g>
<g
   id="g34">
</g>
<g
   id="g36">
</g>
<g
   id="g38">
</g>
<g
   id="g40">
</g>
<g
   id="g42">
</g>
</g></svg>