<svg xmlns="http://www.w3.org/2000/svg" preserveAspectRatio="xMinYMid" viewbox="0 0 64 64"><defs><style>.cls-1{fill:#a25ac4;}</style></defs><title>estilos iconos paraeducaand_escolares</title><g id="back"><path class="cls-1" d="M61.12,2.93A9.74,9.74,0,0,0,54.2.07H9.8A9.78,9.78,0,0,0,0,9.83V54.17A9.76,9.76,0,0,0,9.8,63.93H54.2A9.78,9.78,0,0,0,64,54.17V9.83A9.66,9.66,0,0,0,61.12,2.93Zm-.18,6.9V54.17a6.74,6.74,0,0,1-6.74,6.72H9.8a6.73,6.73,0,0,1-6.73-6.72V9.83A6.75,6.75,0,0,1,9.8,3.11H54.2a6.74,6.74,0,0,1,6.74,6.72Z"/></g><g id="elements"><path class="cls-1" d="M43,29.65,28.13,21.09a2.53,2.53,0,0,0-4.07,2.34V40.57a2.75,2.75,0,0,0,1.24,2.54,2.31,2.31,0,0,0,1.16.3,3.33,3.33,0,0,0,1.67-.49L43,34.35a2.54,2.54,0,0,0,0-4.7ZM41.18,32,27,40.19V23.81Z"/><path class="cls-1" d="M32,10.67A21.33,21.33,0,1,0,53.33,32,21.36,21.36,0,0,0,32,10.67ZM50.29,32A18.29,18.29,0,1,1,32,13.71,18.32,18.32,0,0,1,50.29,32Z"/></g></svg>