<svg xmlns="http://www.w3.org/2000/svg" preserveAspectRatio="xMinYMid" viewbox="0 0 64 64"><defs><style>.cls-1,.cls-2{fill:#0065ab;}.cls-2{stroke:#0065ab;stroke-miterlimit:10;stroke-width:0.5px;}</style></defs><title>estilos iconos paraeducaand_escolares</title><g id="elements"><path class="cls-1" d="M32,63.9A31.9,31.9,0,1,1,63.9,32,31.94,31.94,0,0,1,32,63.9ZM32,3.05A29,29,0,1,0,61,32,29,29,0,0,0,32,3.05Z"/><path class="cls-2" d="M30.35,31.34h0a.64.64,0,0,1,0-.89l2-2a.63.63,0,0,1,.9,0h0a.62.62,0,0,1,0,.89l-2,2A.63.63,0,0,1,30.35,31.34Z"/><path class="cls-2" d="M46.44,15.26a8.3,8.3,0,0,0-14.16,5.86,7.24,7.24,0,0,0,.09,1.15l-16,18.32,2,2-2,2a4.25,4.25,0,0,0,.12,6.13,4.31,4.31,0,0,0,6-.19L34.68,38.31a3,3,0,0,1,4.56.47,2.73,2.73,0,0,1,.43,1.06,3,3,0,0,1-.81,2.65L30.34,51a.63.63,0,0,0,.89.9l8.52-8.52a4.22,4.22,0,1,0-6-6L21.55,49.65a3.06,3.06,0,0,1-4.27.06,3,3,0,0,1-.88-2.05,3.11,3.11,0,0,1,.93-2.24l2-1.94,1.83,1.83,18.31-16a7.46,7.46,0,0,0,1.16.09A8.27,8.27,0,0,0,46.44,27h0A8.31,8.31,0,0,0,46.44,15.26ZM18.12,40.53l2.6-3L24.14,41l-3,2.6Zm7-.38L21.55,36.6,33,23.46l5.22,5.23ZM45.55,26.09a7,7,0,0,1-5,2.06,7.74,7.74,0,0,1-1.19-.1l-5.74-5.74a6.75,6.75,0,0,1-.1-1.19,6.9,6.9,0,0,1,1.07-3.72l7.67,7.68a.65.65,0,0,0,.9,0,.63.63,0,0,0,0-.9l-7.8-7.8.22-.23a7,7,0,1,1,9.94,9.94Z"/><path class="cls-2" d="M27.62,12.12a.82.82,0,0,0-.61-.21l-6,.52a.79.79,0,0,0-.73.79v5a2.18,2.18,0,0,0-.89-.19,2.16,2.16,0,1,0,2.16,2.15v-6.5l5-.43v5a2.18,2.18,0,0,0-.89-.19,2.16,2.16,0,1,0,2.16,2.15V12.71A.81.81,0,0,0,27.62,12.12Zm-8.19,8.93a.9.9,0,1,1,.89-.9A.89.89,0,0,1,19.43,21.05Zm6.29,0a.9.9,0,1,1,.89-.9A.89.89,0,0,1,25.72,21.05Z"/></g></svg>