<svg xmlns="http://www.w3.org/2000/svg" preserveAspectRatio="xMinYMid" viewbox="0 0 64 64"><defs><style>.cls-1{fill:#a25ac4;}</style></defs><title>estilos iconos paraeducaand_escolares</title><g id="back"><path class="cls-1" d="M61.12,2.93A9.74,9.74,0,0,0,54.2.07H9.8A9.78,9.78,0,0,0,0,9.83V54.17A9.76,9.76,0,0,0,9.8,63.93H54.2A9.78,9.78,0,0,0,64,54.17V9.83A9.66,9.66,0,0,0,61.12,2.93Zm-.18,6.9V54.17a6.74,6.74,0,0,1-6.74,6.72H9.8a6.73,6.73,0,0,1-6.73-6.72V9.83A6.75,6.75,0,0,1,9.8,3.11H54.2a6.74,6.74,0,0,1,6.74,6.72Z"/></g><g id="elements"><path class="cls-1" d="M25.88,43.47h0l12.15,0A3,3,0,0,0,41,39.81L39.56,33a3,3,0,0,0-.94-1.63,2.93,2.93,0,0,0-1.2-.65L37.35,9.31a2.37,2.37,0,0,0-.8-1.78A2.34,2.34,0,0,0,35,6.93h0L28.75,7a2.38,2.38,0,0,0-1.69.7,2.4,2.4,0,0,0-.69,1.69l.07,21.46a3,3,0,0,0-2.12,2.29l-1.38,6.78a3,3,0,0,0,2.94,3.6Zm9.2-34.28a.21.21,0,0,1,.05.13l.07,21.34-6.54,0L28.59,9.34a.17.17,0,0,1,.16-.17l6.22,0A.21.21,0,0,1,35.08,9.19Zm-10,31.42,13.69,0a1,1,0,0,1-.16.35h0a.83.83,0,0,1-.61.29l-12.15,0a.77.77,0,0,1-.77-.63Zm.39-2.22,1-4.86a.81.81,0,0,1,.77-.63l9.36,0h0a.77.77,0,0,1,.52.2.72.72,0,0,1,.24.42l1,4.86Z"/><path class="cls-1" d="M30.3,22.11a2.35,2.35,0,0,0,1.56.59h0a2.36,2.36,0,0,0,2.35-2.36V16.86a2.41,2.41,0,0,0-.79-1.75,2.35,2.35,0,0,0-3.92,1.77v3.48A2.37,2.37,0,0,0,30.3,22.11Zm1.57-1.18-.14-.58v-.63H32v.63a.14.14,0,0,1-.13.13v.45Zm-.13-3.43,0-.72h.18a.13.13,0,0,1,0,.1v.63Z"/><path class="cls-1" d="M32.68,46.12a1.06,1.06,0,0,0-.74-.29h0A1.13,1.13,0,0,0,30.83,47l0,9A1.11,1.11,0,0,0,32,57.07h0A1.1,1.1,0,0,0,33.08,56l0-9A1.09,1.09,0,0,0,32.68,46.12Z"/><path class="cls-1" d="M42,50.84l-4-4.77L37.85,46a1.12,1.12,0,0,0-1.46,0,1.1,1.1,0,0,0-.13,1.56l4,4.77a1.1,1.1,0,0,0,1.56.14h0A1.11,1.11,0,0,0,42,50.84Z"/><path class="cls-1" d="M27.55,46a1.13,1.13,0,0,0-1.55.16l-4,4.8a1.16,1.16,0,0,0-.25.81,1.13,1.13,0,0,0,1.11,1H23a1.12,1.12,0,0,0,.76-.4l4-4.79a1.1,1.1,0,0,0-.1-1.52Z"/></g></svg>