<svg xmlns="http://www.w3.org/2000/svg" preserveAspectRatio="xMinYMid" viewbox="0 0 64 64"><defs><style>.cls-1{fill:#0065ab;}.cls-2{fill:#a25ac4;}</style></defs><title>estilos iconos paraeducaand_escolares</title><g id="elements"><path class="cls-1" d="M47.22,10.36a8.61,8.61,0,0,0-6.33-4,11.07,11.07,0,0,0-8.91,3l-.41.39-.41-.39a11,11,0,0,0-8.9-3,8.61,8.61,0,0,0-6.34,4,9.38,9.38,0,0,0,.84,10.93l14,14.18a1.13,1.13,0,0,0,1.6,0L46.44,21.22A9.32,9.32,0,0,0,47.22,10.36ZM33.53,11A8.77,8.77,0,0,1,40.6,8.57a6.39,6.39,0,0,1,4.71,3,7,7,0,0,1-.53,8.16L31.57,33.08,18.43,19.78a7,7,0,0,1-.59-8.23,6.35,6.35,0,0,1,4.7-3,8.43,8.43,0,0,1,1-.06A8.89,8.89,0,0,1,29.61,11l1.19,1.13a1.13,1.13,0,0,0,1.55,0Z"/><path class="cls-2" d="M58.15,31.38h0a4.53,4.53,0,0,0-6.2.13l-1.09,1a4.29,4.29,0,0,0-5.71.21,61.64,61.64,0,0,1-8.24,6.42,4.35,4.35,0,0,0-2.2-.61H26.92a15.25,15.25,0,0,1-3.12-.36,14,14,0,0,0-12.9,4.07,5.83,5.83,0,0,1-1.58,1.17L4.06,46.16a1.13,1.13,0,0,0,.51,2.13,1.06,1.06,0,0,0,.52-.13l5.26-2.7a8.42,8.42,0,0,0,2.15-1.6,11.81,11.81,0,0,1,10.84-3.45,16.88,16.88,0,0,0,3.58.41h7.79a2.18,2.18,0,0,1,0,4.35H25.77a1.13,1.13,0,1,0,0,2.25h8.94a4.37,4.37,0,0,0,2.91-1.14l0,0c.45-.33,10.9-8.23,15.88-13.15a2.28,2.28,0,0,1,3.12,0,2.41,2.41,0,0,1,.18,3.39l-1.21,1.33C51.84,42,46.12,48.36,39.46,52.93a6.65,6.65,0,0,1-3.77,1.15h-.1c-2.77-.06-8.13-.23-12.89-.77a12.87,12.87,0,0,0-8.08,1.78L9.09,58.42A1.12,1.12,0,0,0,8.71,60a1.09,1.09,0,0,0,1,.55,1.15,1.15,0,0,0,.58-.16L15.78,57a10.68,10.68,0,0,1,6.67-1.48c4.82.55,10.27.73,13.09.79h.16a8.77,8.77,0,0,0,5-1.55c6.88-4.71,12.71-11.2,16.57-15.49L58.5,38a4.65,4.65,0,0,0-.35-6.58Zm-9,2.71c-3.41,3-7.72,6.41-10.12,8.28a4.31,4.31,0,0,0-.52-1.55,62.88,62.88,0,0,0,8.22-6.46A2,2,0,0,1,49.15,34.09Z"/></g></svg>