<?xml version="1.0" encoding="UTF-8"?>
<svg preserveAspectRatio="xMinYMid" version="1.1" viewbox="0 0 64 64" xmlns="http://www.w3.org/2000/svg" xmlns:cc="http://creativecommons.org/ns#" xmlns:dc="http://purl.org/dc/elements/1.1/" xmlns:rdf="http://www.w3.org/1999/02/22-rdf-syntax-ns#">
 <defs>
  <style>.cls-1,.cls-2{fill:#0065ab;}.cls-2{stroke:#0065ab;stroke-miterlimit:10;stroke-width:0.5px;}</style>
 </defs>
 <title>estilos iconos paraeducaand_escolares</title>
 <metadata>
  <rdf:RDF>
   <cc:Work rdf:about="">
    <dc:title>estilos iconos paraeducaand_escolares</dc:title>
   </cc:Work>
  </rdf:RDF>
 </metadata>
 <path class="cls-1" d="m32 63.9a31.9 31.9 0 1 1 31.9-31.9 31.94 31.94 0 0 1-31.9 31.9zm0-60.85a29 29 0 1 0 29 28.95 29 29 0 0 0-29-28.95z"/>
 <g transform="matrix(3.7795 0 0 3.7795 -295.18 -492.5)" fill="#0065ab" stroke-width=".26458">
  <path class="st0" d="m82.868 138.6h0.50271c0.26458 0 0.44979-0.26458 0.44979-0.58208v-2.2225-0.10584-0.10583c0-1.2435 1.2435-2.2225 2.7781-2.2225 1.5346 0 2.7781 1.0054 2.7781 2.2225v0.13229 0.10583 2.196c0 0.34395 0.18521 0.58208 0.44979 0.58208h0.50271c0.26458 0 0.44979-0.26458 0.44979-0.58208v-2.2225c0-0.34396-0.18521-0.58209-0.44979-0.58209h-0.52917c-0.18521-1.3229-1.561-2.3548-3.2279-2.3548s-2.9898 1.0319-3.2279 2.3548h-0.50271c-0.26458 0-0.44979 0.26459-0.44979 0.58209v2.2225c0.02646 0.3175 0.21167 0.58208 0.47625 0.58208zm7.3554-2.9104c0.02646 0.0265 0.02646 0.0794 0.02646 0.10584v2.2225c0 0.0264 0 0.0794-0.02646 0.10583h-0.39688c0-0.0265-0.02646-0.0794-0.02646-0.10583v-2.3019zm-7.329 0.10584c0-0.0265 0-0.0794 0.02646-0.10584h0.39688v2.3019c0 0.0265 0 0.0794-0.02646 0.10583h-0.37042c0-0.0265-0.02646-0.0794-0.02646-0.10583z"/>
  <path class="st0" d="m91.07 141.46c-0.05292-0.0529-0.13229-0.13229-0.21167-0.18521-0.39688-0.26458-0.82021-0.39687-1.27-0.47625-0.60854-0.13229-1.1906-0.29104-1.614-0.84667h-0.02646c-0.02646-0.0794-0.02646-0.37041 0.37042-0.87312 0.89958-1.0848 0.68792-2.831 0.60854-3.3602-0.21167-1.1112-1.2435-1.905-2.3548-1.8785-1.1377-0.0265-2.1167 0.79375-2.3548 1.8785-0.07937 0.50271-0.29104 2.249 0.60854 3.3602 0.42333 0.50271 0.42333 0.82021 0.37042 0.87312-0.42333 0.55563-1.0054 0.68792-1.614 0.84667-0.44979 0.0794-0.89958 0.21167-1.27 0.47625-0.9525 0.66146-0.76729 2.1167-0.76729 2.1696l0.02646 0.18521h10.001l0.02646-0.18521c-0.02646-0.0264 0.15875-1.2435-0.52917-1.9844zm0.05292 1.7462h-9.1546c-0.02646-0.37042 0.02646-1.1377 0.55562-1.5346 0.34396-0.18521 0.68792-0.34396 1.0848-0.39688 0.635-0.13229 1.3758-0.3175 1.905-1.0054 0.07937-0.0794 0.37042-0.55562-0.39688-1.4552-0.79375-0.9525-0.58208-2.5136-0.50271-2.9633 0.18521-0.89958 0.97896-1.5081 1.905-1.4817 0.89958-0.0265 1.7198 0.60854 1.905 1.4817 0.07937 0.44979 0.26458 2.0108-0.50271 2.9633-0.71438 0.89958-0.44979 1.3758-0.39688 1.4552 0.52917 0.68792 1.27 0.87313 1.905 1.0054 0.39688 0.0529 0.76729 0.18521 1.0848 0.39688 0.05292 0.0264 0.10583 0.0794 0.13229 0.13229 0.44979 0.39687 0.47625 1.0583 0.47625 1.4023z"/>
 </g>
</svg>
