<svg xmlns="http://www.w3.org/2000/svg" preserveAspectRatio="xMinYMid" viewbox="0 0 64 64"><defs><style>.cls-1{fill:#0065ab;}</style></defs><title>estilos iconos paraeducaand_escolares</title><g id="elements"><path class="cls-1" d="M45.1,30.75c2.59,0,4.71-2.5,4.71-5.56a4.39,4.39,0,0,0-4.71-4.67,4.4,4.4,0,0,0-4.72,4.67C40.38,28.25,42.5,30.75,45.1,30.75Zm-2.9-5.56a2.63,2.63,0,0,1,2.9-2.86A2.62,2.62,0,0,1,48,25.19c0,2.06-1.3,3.74-2.89,3.74S42.2,27.25,42.2,25.19Z"/><path class="cls-1" d="M20,30.75c2.6,0,4.71-2.5,4.71-5.56A4.39,4.39,0,0,0,20,20.52a4.39,4.39,0,0,0-4.71,4.67C15.28,28.25,17.39,30.75,20,30.75Zm-2.9-5.56A2.63,2.63,0,0,1,20,22.33a2.62,2.62,0,0,1,2.89,2.86c0,2.06-1.29,3.74-2.89,3.74S17.09,27.25,17.09,25.19Z"/><path class="cls-1" d="M32.54,30.42c3,0,5.35-2.85,5.35-6.34a5,5,0,0,0-5.35-5.31,5,5,0,0,0-5.35,5.31C27.19,27.57,29.59,30.42,32.54,30.42ZM29,24.08a3.2,3.2,0,0,1,3.53-3.49,3.2,3.2,0,0,1,3.54,3.49c0,2.49-1.59,4.52-3.54,4.52S29,26.57,29,24.08Z"/><path class="cls-1" d="M54,38.7l-.79-4.1a5.11,5.11,0,0,0-5-4.35h-.7a.38.38,0,0,0-.28.12L45.1,32.72,43,30.37a.36.36,0,0,0-.28-.12H42a5,5,0,0,0-2.76.84,5.72,5.72,0,0,0-3.16-.95h-.77a.37.37,0,0,0-.28.13L32.54,33.1,30,30.27a.39.39,0,0,0-.28-.13H29a5.77,5.77,0,0,0-3.16.95,5,5,0,0,0-2.75-.84h-.69a.36.36,0,0,0-.28.12L20,32.72,17.9,30.37a.36.36,0,0,0-.28-.12h-.69a5.09,5.09,0,0,0-5,4.33l-.8,4.17a2.83,2.83,0,0,0,1.81,3,20.2,20.2,0,0,0,10.46,1,2.83,2.83,0,0,0,.95.57,23.64,23.64,0,0,0,16.44,0,3,3,0,0,0,1-.58,20.23,20.23,0,0,0,10.46-1A2.86,2.86,0,0,0,54,38.7ZM38.77,36.11H37.7a.38.38,0,0,0-.37.38v5.95a22.07,22.07,0,0,1-9.57,0V36.49a.38.38,0,0,0-.38-.38H26.32a.38.38,0,0,0-.38.38V42l-1-.33a1.41,1.41,0,0,1-.35-.19l-.19-.23a1.32,1.32,0,0,1-.32-1L25,35.37a3.57,3.57,0,0,1,.17-.7,4.11,4.11,0,0,1,.28-.65l.07-.1.12-.17a2.2,2.2,0,0,1,.21-.32l.12-.12.09-.1.07-.07.22-.22A4,4,0,0,1,29,32h.13l3.17,3.57a.39.39,0,0,0,.28.12h0a.36.36,0,0,0,.28-.12L36,32h.12a4,4,0,0,1,3.94,3.47L41,40.2a1.13,1.13,0,0,1,0,.26,1.41,1.41,0,0,1-.31.75l-.16.19a1.09,1.09,0,0,1-.39.23l-1,.33V36.49A.38.38,0,0,0,38.77,36.11Zm-13.46-2.5ZM22.3,40a2.43,2.43,0,0,0,0,.47,1.94,1.94,0,0,0,0,.22c0,.07,0,.13,0,.19s0,.17.05.25A18.2,18.2,0,0,1,16,40.81v-5a.38.38,0,0,0-.38-.37H14.59a.38.38,0,0,0-.38.37v4.53l-.67-.23a1,1,0,0,1-.65-1l.8-4.17a3.29,3.29,0,0,1,3.24-2.82l2.78,3.07a.36.36,0,0,0,.28.12.55.55,0,0,0,.28-.12L23,32.06h.05a3.37,3.37,0,0,1,1.36.3,6.05,6.05,0,0,0-.68,1.09,7,7,0,0,0-.29.76l0,.1a4.45,4.45,0,0,0-.17.77Zm28.57.37V35.79a.37.37,0,0,0-.37-.37H49.43a.38.38,0,0,0-.37.37v5a18.5,18.5,0,0,1-6.34.27,1.55,1.55,0,0,0,0-.21,2.91,2.91,0,0,0,0-.31c0-.05,0-.1,0-.15a4.63,4.63,0,0,0,0-.51l-.93-4.78a4.9,4.9,0,0,0-.18-.82l0-.1a5.6,5.6,0,0,0-.26-.68l-.09-.18a5.45,5.45,0,0,0-.33-.58l-.11-.16-.18-.23A3.23,3.23,0,0,1,42,32.06l2.78,3.07a.36.36,0,0,0,.28.12c.13,0,.21,0,.28-.12l2.73-3.07h0A3.29,3.29,0,0,1,51.4,34.9l.79,4.1a1,1,0,0,1-.65,1.09Zm-9.59-6Z"/><path class="cls-1" d="M32,63.9A31.9,31.9,0,1,1,63.9,32,31.94,31.94,0,0,1,32,63.9ZM32,3.05A29,29,0,1,0,61,32,29,29,0,0,0,32,3.05Z"/></g></svg>