<svg xmlns="http://www.w3.org/2000/svg" preserveAspectRatio="xMinYMid" viewbox="0 0 64 64"><defs><style>.cls-1{fill:#a25ac4;}</style></defs><title>estilos iconos paraeducaand_escolares</title><g id="back"><path class="cls-1" d="M61.12,2.93A9.74,9.74,0,0,0,54.2.07H9.8A9.78,9.78,0,0,0,0,9.83V54.17A9.76,9.76,0,0,0,9.8,63.93H54.2A9.78,9.78,0,0,0,64,54.17V9.83A9.66,9.66,0,0,0,61.12,2.93Zm-.18,6.9V54.17a6.74,6.74,0,0,1-6.74,6.72H9.8a6.73,6.73,0,0,1-6.73-6.72V9.83A6.75,6.75,0,0,1,9.8,3.11H54.2a6.74,6.74,0,0,1,6.74,6.72Z"/></g><g id="elements"><path class="cls-1" d="M28.48,50.76h0a3.22,3.22,0,0,0,1.93-2A3.19,3.19,0,0,0,30.52,47a3.38,3.38,0,0,0,.69-1.23,3.33,3.33,0,0,0,0-2,3.33,3.33,0,0,0,.55-1.19,3.63,3.63,0,0,0,0-1.74,3.29,3.29,0,0,0,0-3.91,2.6,2.6,0,0,0-2.1-1h-2.5a7.05,7.05,0,0,0,.48-1.32,6.3,6.3,0,0,0-.22-3.12A6,6,0,0,0,25.84,29,4,4,0,0,0,24.23,28a3.1,3.1,0,0,0-1.81,0,2.49,2.49,0,0,0-1.86,1.75,3.71,3.71,0,0,0,0,1.73,2,2,0,0,1-.21,1.75,22.18,22.18,0,0,1-1.32,2c-1.07,1.43-1.75,1.78-1.88,1.79l-4.81,0a2.24,2.24,0,0,0-2.23,2.24v9.53a2.24,2.24,0,0,0,2.24,2.24h2.18a1.12,1.12,0,0,0,.77-.32,1.13,1.13,0,0,0,.31-.78A1.09,1.09,0,0,0,14.56,49l-2.23-.06V39.36s0-.06.07-.06l4.88,0a3.45,3.45,0,0,0,2-1,11.54,11.54,0,0,0,1.49-1.66,23.14,23.14,0,0,0,1.45-2.22,3.61,3.61,0,0,0,.61-1.85,5.77,5.77,0,0,0-.13-1.42,2.28,2.28,0,0,1-.08-.76s0-.12.38-.22a1.41,1.41,0,0,1,1.33.44,4.14,4.14,0,0,1,1.19,3.7,11.16,11.16,0,0,1-1.08,2.3,1.09,1.09,0,0,0,.95,1.62h4.29a.46.46,0,0,1,.39.17,1,1,0,0,1,.12.86.65.65,0,0,1-.07.21H29a1.09,1.09,0,0,0,0,2.18h.73a1.78,1.78,0,0,1,0,.56,1,1,0,0,1-.13.32H28.3a1.09,1.09,0,1,0,0,2.18h.9a1.43,1.43,0,0,1-.07.48,1.27,1.27,0,0,1-.28.48H27.61a1.09,1.09,0,1,0,0,2.18h.79a1.94,1.94,0,0,1,0,.2c-.16.48-.47.94-2.2.94H21a3.59,3.59,0,0,1-2.58-.59.74.74,0,0,1-.24-.49l0-6.36a1.11,1.11,0,0,0-.31-.77,1.12,1.12,0,0,0-.78-.32A1.09,1.09,0,0,0,16,41.51l0,6.24a2.49,2.49,0,0,0,.07.72,3,3,0,0,0,.75,1.38,5.09,5.09,0,0,0,3.83,1.28h5.52A6.14,6.14,0,0,0,28.48,50.76Z"/><path class="cls-1" d="M53.84,19.11a.22.22,0,0,0,0-.14,1,1,0,0,0,0-.17l-.08-.23a.78.78,0,0,0-.1-.15l-8-8a.37.37,0,0,0-.37-.36h0A.33.33,0,0,0,45,9.93l-22.36,0a1.1,1.1,0,0,0-1.1,1.1V26.07a1.1,1.1,0,0,0,2.2,0v-14H43.56v7a1.1,1.1,0,0,0,1.1,1.1h7V51.92h-29a1.1,1.1,0,0,0,0,2.2H52.75a1.1,1.1,0,0,0,1.1-1.1ZM50.09,18H45.76V13.64Z"/><path class="cls-1" d="M35.13,43.68a7.48,7.48,0,1,0,15,0,7.64,7.64,0,0,0-.35-2.28,1.09,1.09,0,0,0-.55-.64,1.1,1.1,0,0,0-.62-.1l1.65-2a1.1,1.1,0,0,0-.16-1.55,1.12,1.12,0,0,0-.81-.24,1.07,1.07,0,0,0-.74.41l-1.07,1.31a1.48,1.48,0,0,0,0-.21,1.1,1.1,0,0,0-.44-.72,7.48,7.48,0,0,0-11.88,6Zm7.37,1L40,42.29a1.07,1.07,0,0,0-.78-.3h0a1.1,1.1,0,0,0-.73,1.9l3.4,3.2a1.12,1.12,0,0,0,.82.3h0a1.12,1.12,0,0,0,.78-.41l4.15-5.13a.82.82,0,0,0,0,.22,5.16,5.16,0,0,1,.25,1.61,5.28,5.28,0,1,1-5.28-5.28,5.2,5.2,0,0,1,3.1,1,1.16,1.16,0,0,0,.82.2l.1,0Z"/><path class="cls-1" d="M30.35,24.41h8.14a1.1,1.1,0,1,0,0-2.2H30.35a1.1,1.1,0,1,0,0,2.2Z"/><path class="cls-1" d="M42.8,24.41H45a1.1,1.1,0,1,0,0-2.2H42.8a1.1,1.1,0,1,0,0,2.2Z"/><path class="cls-1" d="M30.35,29.62h8.14a1.12,1.12,0,0,0,0-2.24H30.35a1.12,1.12,0,0,0,0,2.24Z"/><path class="cls-1" d="M42.8,29.62H45a1.12,1.12,0,0,0,0-2.24H42.8a1.12,1.12,0,0,0,0,2.24Z"/><path class="cls-1" d="M30.35,34.79h8.14a1.1,1.1,0,1,0,0-2.2H30.35a1.1,1.1,0,1,0,0,2.2Z"/><path class="cls-1" d="M42.8,34.79H45a1.1,1.1,0,1,0,0-2.2H42.8a1.1,1.1,0,1,0,0,2.2Z"/></g></svg>