<svg xmlns="http://www.w3.org/2000/svg" preserveAspectRatio="xMinYMid" viewbox="0 0 64 64"><defs><style>.cls-1,.cls-2{fill:#a25ac4;}.cls-2{stroke:#a25ac4;stroke-miterlimit:10;stroke-width:0.5px;}</style></defs><title>estilos iconos paraeducaand_escolares</title><g id="back"><path class="cls-1" d="M61.12,2.93A9.74,9.74,0,0,0,54.2.07H9.8A9.78,9.78,0,0,0,0,9.83V54.17A9.76,9.76,0,0,0,9.8,63.93H54.2A9.78,9.78,0,0,0,64,54.17V9.83A9.66,9.66,0,0,0,61.12,2.93Zm-.18,6.9V54.17a6.74,6.74,0,0,1-6.74,6.72H9.8a6.73,6.73,0,0,1-6.73-6.72V9.83A6.75,6.75,0,0,1,9.8,3.11H54.2a6.74,6.74,0,0,1,6.74,6.72Z"/></g><g id="elements"><path class="cls-2" d="M37.79,49.88v-.06a1.74,1.74,0,0,1,.48-1.18l8.19-9.92H39.17A1.13,1.13,0,0,1,38,37.6a1.15,1.15,0,0,1,1.13-1.15h9.56a1.15,1.15,0,0,1,1.14,1.13v.06a1.87,1.87,0,0,1-.45,1.18L41.2,48.74h7.57a1.15,1.15,0,0,1,1.14,1.14A1.13,1.13,0,0,1,48.77,51H38.94A1.17,1.17,0,0,1,37.79,49.88Z"/><path class="cls-2" d="M36.87,26.09,42.27,14a1.65,1.65,0,0,1,1.54-1h.13a1.6,1.6,0,0,1,1.52,1l5.4,12.06a1.19,1.19,0,0,1-1.06,1.77,1.32,1.32,0,0,1-1.25-.9l-1.18-2.72H40.3l-1.23,2.81a1.22,1.22,0,0,1-1.18.81,1.17,1.17,0,0,1-1.19-1.19A1.27,1.27,0,0,1,36.87,26.09ZM46.39,22l-2.56-5.89L41.28,22Z"/><path class="cls-2" d="M32.83,39.87a1.19,1.19,0,0,0-1.68,0l-6.87,7V14.18a1.19,1.19,0,0,0-2.38,0V46.91l-6.87-7a1.19,1.19,0,1,0-1.7,1.66l8.91,9.1a1.18,1.18,0,0,0,.85.36h0a1.2,1.2,0,0,0,.85-.36l8.91-9.1A1.19,1.19,0,0,0,32.83,39.87Z"/></g></svg>