<svg xmlns="http://www.w3.org/2000/svg" preserveAspectRatio="xMinYMid" viewbox="0 0 64 64"><defs><style>.cls-1{fill:#0065ab;}</style></defs><title>estilos iconos paraeducaand_escolares</title><g id="elements"><path class="cls-1" d="M47.42,34.45v-.64a3.61,3.61,0,0,0-5.14-3.28,3.65,3.65,0,0,0-3.57-3.07,3.59,3.59,0,0,0-1.52.34,3.65,3.65,0,0,0-3.58-3.07,3.57,3.57,0,0,0-1.47.32V16.82a3.62,3.62,0,0,0-7.24,0V31.89c-2.47-3.35-4.72-3.72-5.59-3.72a3,3,0,0,0-2.65,1.43,2.86,2.86,0,0,0,.09,2.89c1.19,2,1.9,3.74,2.73,8.1a16.56,16.56,0,0,0,3.73,8.17,8.42,8.42,0,0,1,1.86,3.07,2.76,2.76,0,0,0,2.64,2H41.56a2.73,2.73,0,0,0,2.72-2.33,8.78,8.78,0,0,1,.95-2.93C47.48,44.59,47.44,37.49,47.42,34.45Zm-18.9-19.1A1.48,1.48,0,0,1,30,16.82V28.35a1.07,1.07,0,0,0,2.14,0,1.48,1.48,0,0,1,3,0v2.73a1.07,1.07,0,0,0,2.14,0,1.48,1.48,0,0,1,3,0v2.73a1.08,1.08,0,0,0,2.15,0,1.48,1.48,0,0,1,3,0v.65c0,2.87,0,9.58-1.91,13a11.24,11.24,0,0,0-1.21,3.67.6.6,0,0,1-.6.52H27.71a.6.6,0,0,1-.58-.44,10.48,10.48,0,0,0-2.38-4,14.6,14.6,0,0,1-3.17-7.08c-.88-4.65-1.69-6.61-3-8.79a.75.75,0,0,1-.07-.74.88.88,0,0,1,.79-.35c1.28,0,3.55,1.55,5.7,5.94a1.09,1.09,0,0,0,1.21.57,1.06,1.06,0,0,0,.83-1v-19A1.47,1.47,0,0,1,28.52,15.35Z"/><path class="cls-1" d="M23.76,23a1.06,1.06,0,0,0,.76-.31h0a1.07,1.07,0,0,0,0-1.51,5.66,5.66,0,1,1,8,0,1.08,1.08,0,0,0,0,1.51,1.07,1.07,0,0,0,.76.31h0a1.11,1.11,0,0,0,.76-.31,7.8,7.8,0,1,0-11,0A1.07,1.07,0,0,0,23.76,23Z"/><path class="cls-1" d="M32,63.9A31.9,31.9,0,1,1,63.9,32,31.94,31.94,0,0,1,32,63.9ZM32,3.05A29,29,0,1,0,61,32,29,29,0,0,0,32,3.05Z"/></g></svg>