<svg xmlns="http://www.w3.org/2000/svg" preserveAspectRatio="xMinYMid" viewbox="0 0 64 64"><defs><style>.cls-1{fill:#5baf07;}</style></defs><title>estilos iconos paraeducaand_escolares</title><g id="back"><path class="cls-1" d="M61.61,26.47,37.54,2.39A7.86,7.86,0,0,0,32,.09h0A7.85,7.85,0,0,0,26.38,2.4L2.27,26.52a7.89,7.89,0,0,0,0,11.15L26.34,61.75a7.89,7.89,0,0,0,11.15,0L61.61,37.62A7.89,7.89,0,0,0,61.61,26.47Zm-2.2,9L35.3,59.54A4.76,4.76,0,0,1,31.91,61h0a4.75,4.75,0,0,1-3.38-1.4L4.46,35.48a4.8,4.8,0,0,1,0-6.77L28.58,4.6A4.71,4.71,0,0,1,32,3.2h0a4.73,4.73,0,0,1,3.37,1.39L59.42,28.67A4.78,4.78,0,0,1,59.41,35.43Z"/></g><g id="elements"><path class="cls-1" d="M48.3,21.58a1.14,1.14,0,0,0-.94-1.95l-2.78.31.31-2.79A1.17,1.17,0,0,0,44.25,16a1.14,1.14,0,0,0-1.32.22l-2.61,2.62a17.35,17.35,0,1,0,5.39,5.34ZM31.07,35.35a1.82,1.82,0,1,1,0-3.64h.1l-1,1a1.15,1.15,0,0,0,0,1.63,1.18,1.18,0,0,0,1.62,0l1.06-1a2,2,0,0,1,0,.25A1.82,1.82,0,0,1,31.07,35.35Zm0,6.62a8.44,8.44,0,1,1,5-15.19L33,29.88a4.08,4.08,0,0,0-1.94-.49,4.16,4.16,0,1,0,3.59,2.09l3.09-3.09A8.44,8.44,0,0,1,31.07,42Zm7.32-20.86L38,24.92l-.2.21a10.77,10.77,0,1,0,1.63,1.61l.19-.19,3.82-.43a1.11,1.11,0,0,0,.6-.25,14.88,14.88,0,0,1,2.12,7.66,15.12,15.12,0,1,1-7.5-13A1.15,1.15,0,0,0,38.39,21.11Z"/></g></svg>