<svg id="back" xmlns="http://www.w3.org/2000/svg" preserveAspectRatio="xMinYMid" viewbox="0 0 64 64"><defs><style>.cls-1{fill:#a25ac4;}</style></defs><title>estilos iconos paraeducaand_escolares</title><path class="cls-1" d="M46.92,12H17.08a4.85,4.85,0,0,0-4.82,4.88V38.58a4.85,4.85,0,0,0,4.82,4.87l8.59,0,4.72,7.73a1.79,1.79,0,0,0,1.53.86h0a1.78,1.78,0,0,0,1.53-.86l4.66-7.7h8.8a4.85,4.85,0,0,0,4.82-4.87V16.87A4.85,4.85,0,0,0,46.92,12Zm0,28.94h-8.8A2.45,2.45,0,0,0,36,42.11l-4.1,6.71-4.1-6.71a2.5,2.5,0,0,0-2.09-1.18H17.08a2.32,2.32,0,0,1-2.3-2.35V16.87a2.33,2.33,0,0,1,2.3-2.36H46.92a2.33,2.33,0,0,1,2.3,2.36V38.58A2.32,2.32,0,0,1,46.92,40.93Z"/><path class="cls-1" d="M33.34,16.75H30.66a2.33,2.33,0,0,0-1.73.78,2.78,2.78,0,0,0-.72,2.12l1,12.33a2.53,2.53,0,0,0,2.45,2.45h.76A2.53,2.53,0,0,0,34.83,32l1-12.33a2.82,2.82,0,0,0-.72-2.13A2.36,2.36,0,0,0,33.34,16.75Zm-.06,2.71-1,12.33h0a1,1,0,0,1,0,.12h-.58a1,1,0,0,1,0-.12l-1-12.33a.56.56,0,0,1,0-.19h2.5A.56.56,0,0,1,33.28,19.46Z"/><path class="cls-1" d="M31.79,35.07A2.93,2.93,0,1,0,34.72,38,2.93,2.93,0,0,0,31.79,35.07ZM32.2,38a.41.41,0,0,1-.41.41.41.41,0,1,1,0-.82A.41.41,0,0,1,32.2,38Z"/><path class="cls-1" d="M61.12,2.93A9.74,9.74,0,0,0,54.2.07H9.8A9.78,9.78,0,0,0,0,9.83V54.17A9.76,9.76,0,0,0,9.8,63.93H54.2A9.78,9.78,0,0,0,64,54.17V9.83A9.66,9.66,0,0,0,61.12,2.93Zm-.18,6.9V54.17a6.74,6.74,0,0,1-6.74,6.72H9.8a6.73,6.73,0,0,1-6.73-6.72V9.83A6.75,6.75,0,0,1,9.8,3.11H54.2a6.74,6.74,0,0,1,6.74,6.72Z"/></svg>