<?xml version="1.0"?>
<svg xmlns="http://www.w3.org/2000/svg" xmlns:xlink="http://www.w3.org/1999/xlink" xmlns:svgjs="http://svgjs.com/svgjs" version="1.1" width="512" height="512" x="0" y="0" viewBox="0 0 512 512" style="enable-background:new 0 0 512 512" xml:space="preserve" class=""><circle r="256" cx="256" cy="256" fill="#000000" shape="circle" transform="matrix(1,0,0,1,0,0)"/><g transform="matrix(0.8099999999999999,0,0,0.81,48.640000000000015,48.6400913238526)">
<g xmlns="http://www.w3.org/2000/svg">
	<g>
		<path d="M381.156,122.88H130.844c-9.426,0-17.067,7.64-17.067,17.067v232.107c0,9.426,7.64,17.067,17.067,17.067h250.311    c9.426,0,17.067-7.64,17.067-17.067V139.947C398.222,130.52,390.582,122.88,381.156,122.88z M364.089,354.987H147.911V157.013    h216.178V354.987z" fill="#fff8f8" data-original="#000000" style="" class=""/>
	</g>
</g>
<g xmlns="http://www.w3.org/2000/svg">
	<g>
		<path d="M73.956,151.324c-9.427,0-17.067,7.64-17.067,17.067v175.218c0,9.427,7.64,17.067,17.067,17.067    c9.426,0,17.067-7.64,17.067-17.067V168.391C91.022,158.965,83.382,151.324,73.956,151.324z" fill="#fff8f8" data-original="#000000" style="" class=""/>
	</g>
</g>
<g xmlns="http://www.w3.org/2000/svg">
	<g>
		<path d="M17.067,179.769C7.64,179.769,0,187.409,0,196.836v118.329c0,9.426,7.64,17.067,17.067,17.067    c9.427,0,17.067-7.64,17.067-17.067V196.836C34.133,187.409,26.493,179.769,17.067,179.769z" fill="#fff8f8" data-original="#000000" style="" class=""/>
	</g>
</g>
<g xmlns="http://www.w3.org/2000/svg">
	<g>
		<path d="M438.044,151.324c-9.426,0-17.067,7.64-17.067,17.067v175.218c0,9.427,7.64,17.067,17.067,17.067    c9.427,0,17.067-7.64,17.067-17.067V168.391C455.111,158.965,447.471,151.324,438.044,151.324z" fill="#fff8f8" data-original="#000000" style="" class=""/>
	</g>
</g>
<g xmlns="http://www.w3.org/2000/svg">
	<g>
		<path d="M494.933,179.769c-9.426,0-17.067,7.64-17.067,17.067v118.329c0,9.426,7.64,17.067,17.067,17.067S512,324.591,512,315.164    V196.836C512,187.409,504.36,179.769,494.933,179.769z" fill="#fff8f8" data-original="#000000" style="" class=""/>
	</g>
</g>
<g xmlns="http://www.w3.org/2000/svg">
</g>
<g xmlns="http://www.w3.org/2000/svg">
</g>
<g xmlns="http://www.w3.org/2000/svg">
</g>
<g xmlns="http://www.w3.org/2000/svg">
</g>
<g xmlns="http://www.w3.org/2000/svg">
</g>
<g xmlns="http://www.w3.org/2000/svg">
</g>
<g xmlns="http://www.w3.org/2000/svg">
</g>
<g xmlns="http://www.w3.org/2000/svg">
</g>
<g xmlns="http://www.w3.org/2000/svg">
</g>
<g xmlns="http://www.w3.org/2000/svg">
</g>
<g xmlns="http://www.w3.org/2000/svg">
</g>
<g xmlns="http://www.w3.org/2000/svg">
</g>
<g xmlns="http://www.w3.org/2000/svg">
</g>
<g xmlns="http://www.w3.org/2000/svg">
</g>
<g xmlns="http://www.w3.org/2000/svg">
</g>
</g></svg>
