<?xml version="1.0" encoding="UTF-8" standalone="no"?>
<svg
   xmlns:dc="http://purl.org/dc/elements/1.1/"
   xmlns:cc="http://creativecommons.org/ns#"
   xmlns:rdf="http://www.w3.org/1999/02/22-rdf-syntax-ns#"
   xmlns:svg="http://www.w3.org/2000/svg"
   xmlns="http://www.w3.org/2000/svg"
   xmlns:sodipodi="http://sodipodi.sourceforge.net/DTD/sodipodi-0.dtd"
   xmlns:inkscape="http://www.inkscape.org/namespaces/inkscape"
   version="1.1"
   width="512"
   height="512"
   x="0"
   y="0"
   viewBox="0 0 32.75 32.75"
   style="enable-background:new 0 0 512 512"
   xml:space="preserve"
   class=""
   id="svg38"
   sodipodi:docname="mapam77.svg"
   inkscape:version="0.92.3 (2405546, 2018-03-11)"><metadata
     id="metadata44"><rdf:RDF><cc:Work
         rdf:about=""><dc:format>image/svg+xml</dc:format><dc:type
           rdf:resource="http://purl.org/dc/dcmitype/StillImage" /><dc:title></dc:title></cc:Work></rdf:RDF></metadata><defs
     id="defs42" /><sodipodi:namedview
     pagecolor="#ffffff"
     bordercolor="#666666"
     borderopacity="1"
     objecttolerance="10"
     gridtolerance="10"
     guidetolerance="10"
     inkscape:pageopacity="0"
     inkscape:pageshadow="2"
     inkscape:window-width="816"
     inkscape:window-height="480"
     id="namedview40"
     showgrid="false"
     inkscape:zoom="0.4609375"
     inkscape:cx="256"
     inkscape:cy="256"
     inkscape:window-x="0"
     inkscape:window-y="0"
     inkscape:window-maximized="0"
     inkscape:current-layer="svg38" /><g
     transform="matrix(-1.8369701987210297e-16,1,-1,-1.8369701987210297e-16,32.749045491218574,0.00045359134673361723)"
     id="g36">
<g
   id="g4">
	<path
   d="M30.434,15.938c-0.791,0.933-1.917,1.411-3.052,1.411c-0.913,0-1.834-0.312-2.587-0.951l-4.421-3.753V28.75   c0,2.209-1.791,4-4,4c-2.209,0-4-1.791-4-4V12.646l-4.42,3.754c-1.683,1.431-4.208,1.226-5.639-0.459   c-1.43-1.684-1.224-4.208,0.46-5.638l11.01-9.351c1.493-1.27,3.686-1.27,5.178,0l11.011,9.351   C31.658,11.73,31.863,14.255,30.434,15.938z"
   fill="#069a1c"
   data-original="#000000"
   style="fill:#246cb6;fill-opacity:1"
   class=""
   id="path2" />
</g>
<g
   id="g6">
</g>
<g
   id="g8">
</g>
<g
   id="g10">
</g>
<g
   id="g12">
</g>
<g
   id="g14">
</g>
<g
   id="g16">
</g>
<g
   id="g18">
</g>
<g
   id="g20">
</g>
<g
   id="g22">
</g>
<g
   id="g24">
</g>
<g
   id="g26">
</g>
<g
   id="g28">
</g>
<g
   id="g30">
</g>
<g
   id="g32">
</g>
<g
   id="g34">
</g>
</g></svg>