<?xml version="1.0" encoding="UTF-8" standalone="no"?>
<svg
   xmlns:dc="http://purl.org/dc/elements/1.1/"
   xmlns:cc="http://creativecommons.org/ns#"
   xmlns:rdf="http://www.w3.org/1999/02/22-rdf-syntax-ns#"
   xmlns:svg="http://www.w3.org/2000/svg"
   xmlns="http://www.w3.org/2000/svg"
   xmlns:sodipodi="http://sodipodi.sourceforge.net/DTD/sodipodi-0.dtd"
   xmlns:inkscape="http://www.inkscape.org/namespaces/inkscape"
   version="1.1"
   width="512"
   height="512"
   x="0"
   y="0"
   viewBox="0 0 512 512"
   style="enable-background:new 0 0 512 512"
   xml:space="preserve"
   class=""
   id="svg6220"
   sodipodi:docname="mapam92.svg"
   inkscape:version="0.92.3 (2405546, 2018-03-11)"><metadata
     id="metadata6226"><rdf:RDF><cc:Work
         rdf:about=""><dc:format>image/svg+xml</dc:format><dc:type
           rdf:resource="http://purl.org/dc/dcmitype/StillImage" /><dc:title></dc:title></cc:Work></rdf:RDF></metadata><defs
     id="defs6224" /><sodipodi:namedview
     pagecolor="#ffffff"
     bordercolor="#666666"
     borderopacity="1"
     objecttolerance="10"
     gridtolerance="10"
     guidetolerance="10"
     inkscape:pageopacity="0"
     inkscape:pageshadow="2"
     inkscape:window-width="812"
     inkscape:window-height="480"
     id="namedview6222"
     showgrid="false"
     inkscape:zoom="0.4609375"
     inkscape:cx="256"
     inkscape:cy="256"
     inkscape:window-x="0"
     inkscape:window-y="0"
     inkscape:window-maximized="0"
     inkscape:current-layer="svg6220" /><g
     id="g6218">
<path
   style="opacity:0.99;fill:#ffff00;fill-opacity:1"
   d="M256,0C156.698,0,76,80.7,76,180c0,33.6,9.302,66.301,27.001,94.501l140.797,230.414  c2.402,3.9,6.002,6.301,10.203,6.901c5.698,0.899,12.001-1.5,15.3-7.2l141.2-232.516C427.299,244.501,436,212.401,436,180  C436,80.7,355.302,0,256,0z M256,270c-50.398,0-90-40.8-90-90c0-49.501,40.499-90,90-90s90,40.499,90,90  C346,228.9,306.999,270,256,270z"
   fill="#ff0000"
   data-original="#fd003a"
   class=""
   id="path6184" />
<path
   style="fill:#ffff00;fill-opacity:1"
   d="M256,0v90c49.501,0,90,40.499,90,90c0,48.9-39.001,90-90,90v241.991  c5.119,0.119,10.383-2.335,13.3-7.375L410.5,272.1c16.799-27.599,25.5-59.699,25.5-92.1C436,80.7,355.302,0,256,0z"
   fill="#ff0000"
   data-original="#e50027"
   class=""
   id="path6186" />
<g
   id="g6188">
</g>
<g
   id="g6190">
</g>
<g
   id="g6192">
</g>
<g
   id="g6194">
</g>
<g
   id="g6196">
</g>
<g
   id="g6198">
</g>
<g
   id="g6200">
</g>
<g
   id="g6202">
</g>
<g
   id="g6204">
</g>
<g
   id="g6206">
</g>
<g
   id="g6208">
</g>
<g
   id="g6210">
</g>
<g
   id="g6212">
</g>
<g
   id="g6214">
</g>
<g
   id="g6216">
</g>
</g></svg>