<?xml version="1.0"?>
<svg xmlns="http://www.w3.org/2000/svg" xmlns:xlink="http://www.w3.org/1999/xlink" xmlns:svgjs="http://svgjs.com/svgjs" version="1.1" width="512" height="512" x="0" y="0" viewBox="0 0 49.499 49.499" style="enable-background:new 0 0 512 512" xml:space="preserve" class=""><g>
<g xmlns="http://www.w3.org/2000/svg">
	<path style="" d="M8.143,10.804C7.473,11.682,7,11.842,7,11.099V9.751c0-1.933-1.567-3.5-3.5-3.5S0,7.818,0,9.751v12   c0,1.933,1.567,3.5,3.5,3.5h12c1.933,0,3.5-1.567,3.5-3.5s-1.567-3.5-3.5-3.5c0,0-0.579,0-1.294,0s-0.916-0.817-0.31-1.74   c2.752-4.187,7.47-6.795,12.569-6.795c8.29,0,15.034,6.744,15.034,15.034c0,8.289-6.744,15.033-15.034,15.033c-2.209,0-4,1.791-4,4   s1.791,4,4,4c12.701,0.001,23.034-10.332,23.034-23.032c0-12.701-10.333-23.034-23.034-23.034   C19.204,1.716,12.445,5.167,8.143,10.804z" fill="#e90000" data-original="#010002" class=""/>
</g>
<g xmlns="http://www.w3.org/2000/svg">
</g>
<g xmlns="http://www.w3.org/2000/svg">
</g>
<g xmlns="http://www.w3.org/2000/svg">
</g>
<g xmlns="http://www.w3.org/2000/svg">
</g>
<g xmlns="http://www.w3.org/2000/svg">
</g>
<g xmlns="http://www.w3.org/2000/svg">
</g>
<g xmlns="http://www.w3.org/2000/svg">
</g>
<g xmlns="http://www.w3.org/2000/svg">
</g>
<g xmlns="http://www.w3.org/2000/svg">
</g>
<g xmlns="http://www.w3.org/2000/svg">
</g>
<g xmlns="http://www.w3.org/2000/svg">
</g>
<g xmlns="http://www.w3.org/2000/svg">
</g>
<g xmlns="http://www.w3.org/2000/svg">
</g>
<g xmlns="http://www.w3.org/2000/svg">
</g>
<g xmlns="http://www.w3.org/2000/svg">
</g>
</g></svg>
