<?xml version="1.0" encoding="UTF-8" standalone="no"?>
<svg
   xmlns:dc="http://purl.org/dc/elements/1.1/"
   xmlns:cc="http://creativecommons.org/ns#"
   xmlns:rdf="http://www.w3.org/1999/02/22-rdf-syntax-ns#"
   xmlns:svg="http://www.w3.org/2000/svg"
   xmlns="http://www.w3.org/2000/svg"
   xmlns:sodipodi="http://sodipodi.sourceforge.net/DTD/sodipodi-0.dtd"
   xmlns:inkscape="http://www.inkscape.org/namespaces/inkscape"
   version="1.1"
   width="512"
   height="512"
   x="0"
   y="0"
   viewBox="0 0 512 512"
   style="enable-background:new 0 0 512 512"
   xml:space="preserve"
   class=""
   id="svg62"
   sodipodi:docname="mapam85.svg"
   inkscape:version="0.92.3 (2405546, 2018-03-11)"><metadata
     id="metadata68"><rdf:RDF><cc:Work
         rdf:about=""><dc:format>image/svg+xml</dc:format><dc:type
           rdf:resource="http://purl.org/dc/dcmitype/StillImage" /><dc:title /></cc:Work></rdf:RDF></metadata><defs
     id="defs66" /><sodipodi:namedview
     pagecolor="#ffffff"
     bordercolor="#666666"
     borderopacity="1"
     objecttolerance="10"
     gridtolerance="10"
     guidetolerance="10"
     inkscape:pageopacity="0"
     inkscape:pageshadow="2"
     inkscape:window-width="816"
     inkscape:window-height="480"
     id="namedview64"
     showgrid="false"
     inkscape:zoom="0.4609375"
     inkscape:cx="256"
     inkscape:cy="256"
     inkscape:window-x="0"
     inkscape:window-y="0"
     inkscape:window-maximized="0"
     inkscape:current-layer="svg62" /><g
     id="g60">
<circle
   style="fill:#ffff00;fill-opacity:1"
   cx="256"
   cy="256"
   r="256"
   fill="#246cb6"
   data-original="#fee187"
   class=""
   id="circle2" />
<path
   style="fill:#ffff00;fill-opacity:1"
   d="M343.776,496.552c69.903-25.514,125.549-80.634,151.797-150.18L314.844,165.643l-46.201,50.707  l-115.497,89.572L343.776,496.552z"
   fill="#246cb6"
   data-original="#ffc61b"
   class=""
   id="path4" />
<path
   style="fill:#333333"
   d="M389.011,389.013L389.011,389.013c-12.279,12.279-32.19,12.279-44.47,0l-88.94-88.94  c-12.279-12.279-12.279-32.191,0-44.47l0,0c12.279-12.279,32.191-12.279,44.47,0l88.94,88.94  C401.293,356.823,401.293,376.732,389.011,389.013z"
   fill="#fdfdfd"
   data-original="#273b7a"
   class=""
   id="path6" />
<path
   style="fill:#333333"
   d="M255.602,300.073l88.94,88.94c12.243,12.243,32.068,12.272,44.358,0.102L255.5,255.716  C243.329,268.004,243.359,287.828,255.602,300.073z"
   fill="#ffffff"
   data-original="#121149"
   class=""
   id="path8" />
<path
   style="fill:#ffff00;fill-opacity:1"
   d="M288.954,155.546c-36.84-36.84-96.57-36.84-133.41,0c-0.036,0.036-0.069,0.074-0.105,0.11  c-36.733,36.848-36.7,96.496,0.105,133.299c36.804,36.805,96.451,36.836,133.299,0.105c0.036-0.036,0.074-0.067,0.11-0.105  C325.794,252.114,325.794,192.386,288.954,155.546z"
   fill="#246cb6"
   data-original="#71e2ef"
   class=""
   id="path10" />
<path
   style="fill:#ffff00;fill-opacity:1"
   d="M155.441,155.655c-36.733,36.848-36.7,96.496,0.105,133.299  c36.804,36.805,96.451,36.836,133.299,0.105L155.441,155.655z"
   fill="#246cb6"
   data-original="#38c6d9"
   class=""
   id="path12" />
<path
   style="fill:#333333"
   d="M222.249,330.723c-27.791,0-55.58-10.578-76.736-31.737c-42.315-42.312-42.315-111.159,0-153.472  c42.312-42.317,111.159-42.317,153.472,0c42.315,42.312,42.315,111.159,0,153.472C277.83,320.145,250.04,330.723,222.249,330.723z   M222.249,142.141c-20.523,0-41.046,7.813-56.673,23.436c-31.248,31.249-31.248,82.096,0,113.347  c31.253,31.248,82.094,31.248,113.347,0c31.248-31.249,31.248-82.096,0-113.347C263.297,149.954,242.772,142.141,222.249,142.141z"
   fill="#ffffff"
   data-original="#386895"
   class=""
   id="path14" />
<path
   style="fill:#333333"
   d="M278.812,279.028c-31.261,31.141-82.02,31.108-113.236-0.105  c-31.211-31.215-31.244-81.977-0.105-113.236l-20.061-20.061c-42.206,42.322-42.174,111.087,0.105,153.362  c21.156,21.158,48.945,31.737,76.736,31.737c27.745,0,55.484-10.545,76.626-31.632L278.812,279.028z"
   fill="#fdfdfd"
   data-original="#273b7a"
   class=""
   id="path16" />






<g
   id="g30">
</g>
<g
   id="g32">
</g>
<g
   id="g34">
</g>
<g
   id="g36">
</g>
<g
   id="g38">
</g>
<g
   id="g40">
</g>
<g
   id="g42">
</g>
<g
   id="g44">
</g>
<g
   id="g46">
</g>
<g
   id="g48">
</g>
<g
   id="g50">
</g>
<g
   id="g52">
</g>
<g
   id="g54">
</g>
<g
   id="g56">
</g>
<g
   id="g58">
</g>
</g></svg>