<?xml version="1.0" encoding="UTF-8" standalone="no"?>
<svg
   xmlns:dc="http://purl.org/dc/elements/1.1/"
   xmlns:cc="http://creativecommons.org/ns#"
   xmlns:rdf="http://www.w3.org/1999/02/22-rdf-syntax-ns#"
   xmlns:svg="http://www.w3.org/2000/svg"
   xmlns="http://www.w3.org/2000/svg"
   xmlns:sodipodi="http://sodipodi.sourceforge.net/DTD/sodipodi-0.dtd"
   xmlns:inkscape="http://www.inkscape.org/namespaces/inkscape"
   version="1.1"
   width="512"
   height="512"
   x="0"
   y="0"
   viewBox="0 0 512.00533 512"
   style="enable-background:new 0 0 512 512"
   xml:space="preserve"
   class=""
   id="svg6893"
   sodipodi:docname="mapam113.svg"
   inkscape:version="0.92.3 (2405546, 2018-03-11)"><metadata
     id="metadata6899"><rdf:RDF><cc:Work
         rdf:about=""><dc:format>image/svg+xml</dc:format><dc:type
           rdf:resource="http://purl.org/dc/dcmitype/StillImage" /><dc:title /></cc:Work></rdf:RDF></metadata><defs
     id="defs6897" /><sodipodi:namedview
     pagecolor="#ffffff"
     bordercolor="#666666"
     borderopacity="1"
     objecttolerance="10"
     gridtolerance="10"
     guidetolerance="10"
     inkscape:pageopacity="0"
     inkscape:pageshadow="2"
     inkscape:window-width="1680"
     inkscape:window-height="1001"
     id="namedview6895"
     showgrid="false"
     inkscape:zoom="0.4609375"
     inkscape:cx="-427.38983"
     inkscape:cy="256"
     inkscape:window-x="0"
     inkscape:window-y="0"
     inkscape:window-maximized="1"
     inkscape:current-layer="svg6893" /><g
     id="g6891"><path
       d="m21.339844 512.003906c-5.460938 0-10.925782-2.09375-15.082032-6.25-8.34375-8.34375-8.34375-21.824218 0-30.167968l225.066407-225.066407c8.339843-8.339843 21.824219-8.339843 30.164062 0 8.339844 8.34375 8.339844 21.824219 0 30.164063l-225.066406 225.070312c-4.160156 4.15625-9.621094 6.25-15.082031 6.25zm0 0"
       fill="#040404"
       data-original="#607d8b"
       style="fill:#333333"
       class=""
       id="path6885" /><path
       d="m512.003906 165.335938c0 91.3125-74.019531 165.332031-165.332031 165.332031s-165.332031-74.019531-165.332031-165.332031 74.019531-165.33203175 165.332031-165.33203175 165.332031 74.01953175 165.332031 165.33203175zm0 0"
       fill="#ff0000"
       data-original="#4caf50"
       style="fill:#e6e6e6;fill-opacity:1"
       class=""
       id="path6887" /><path
       d="m261.339844 181.335938c-8.832032 0-16-7.167969-16-16 0-55.871094 45.460937-101.332032 101.332031-101.332032 8.832031 0 16 7.167969 16 16 0 8.832032-7.167969 16-16 16-38.230469 0-69.332031 31.101563-69.332031 69.332032 0 8.832031-7.167969 16-16 16zm0 0"
       fill="#ffffff"
       data-original="#ffffff"
       style="fill:#333333;fill-opacity:1"
       id="path6889" /></g></svg>