<?xml version="1.0"?>
<svg xmlns="http://www.w3.org/2000/svg" xmlns:xlink="http://www.w3.org/1999/xlink" xmlns:svgjs="http://svgjs.com/svgjs" version="1.1" width="512" height="512" x="0" y="0" viewBox="0 0 32 32" style="enable-background:new 0 0 512 512" xml:space="preserve" class=""><circle r="16" cx="16" cy="16" fill="#069a1c" shape="circle" transform="matrix(1,0,0,1,0,0)"/><g transform="matrix(0.77,0,0,0.77,3.680000054836272,3.6799999999999997)"><g xmlns="http://www.w3.org/2000/svg" id="Ikon"><path d="m27 3h-22a3.0033 3.0033 0 0 0 -3 3v20a3.0033 3.0033 0 0 0 3 3h22a3.0033 3.0033 0 0 0 3-3v-20a3.0033 3.0033 0 0 0 -3-3zm-1 14h2v2h-2zm0-2v-2h2v2zm0-4v-2h2v2zm-5.1709 6.7549-7.89 4.1933a2.0123 2.0123 0 0 1 -2.9391-1.7661v-8.4975a2.0114 2.0114 0 0 1 2.957-1.7559l7.8907 4.3042a2.0133 2.0133 0 0 1 -.0186 3.522zm-14.8291-2.7549h-2v-2h2zm0 2v2h-2v-2zm0-6h-2v-2h2zm-2 10h2v2h-2zm22 0h2v2h-2zm1-16a1.0009 1.0009 0 0 1 1 1v1h-2v-2zm-22 0h1v2h-2v-1a1.0009 1.0009 0 0 1 1-1zm0 22a1.0009 1.0009 0 0 1 -1-1v-1h2v2zm22 0h-1v-2h2v1a1.0009 1.0009 0 0 1 -1 1z" fill="#fffafa" data-original="#000000" style="" class=""/></g></g></svg>
