<?xml version="1.0" encoding="UTF-8" standalone="no"?>
<svg
   xmlns:dc="http://purl.org/dc/elements/1.1/"
   xmlns:cc="http://creativecommons.org/ns#"
   xmlns:rdf="http://www.w3.org/1999/02/22-rdf-syntax-ns#"
   xmlns:svg="http://www.w3.org/2000/svg"
   xmlns="http://www.w3.org/2000/svg"
   id="svg38"
   class=""
   xml:space="preserve"
   style="enable-background:new 0 0 512 512"
   viewBox="0 0 967.5 967.5"
   y="0"
   x="0"
   height="512"
   width="512"
   version="1.1"><metadata
     id="metadata44"><rdf:RDF><cc:Work
         rdf:about=""><dc:format>image/svg+xml</dc:format><dc:type
           rdf:resource="http://purl.org/dc/dcmitype/StillImage" /><dc:title></dc:title></cc:Work></rdf:RDF></metadata><defs
     id="defs42" /><g
     id="g36"
     transform="matrix(-0.9999999999999999,0,0,-0.9999999999999999,967.4999847412109,967.5)">
<g
   id="g4">
	<path
   id="path2"
   class=""
   style="fill:#ffff00;fill-opacity:1"
   data-original="#000000"
   fill="#ff0000"
   d="M120.1,967.5c-30.7,0-61.4-11.699-84.9-35.1c-46.8-46.9-46.8-122.9,0-169.801L557.801,240H327.1c-66.3,0-120-53.7-120-120   c0-66.3,53.7-120,120-120h520.401c0.1,0,0.2,0,0.2,0c19.8,0,39.5,5,56.899,14.4c0,0,0.101,0,0.101,0.1   c21.6,11.8,39.199,30.1,50.199,52.1c8.301,16.5,12.5,35,12.5,53.4v520.4c0,66.299-53.699,120-120,120c-66.3,0-120-53.701-120-120   V409.7L204.9,932.301C181.5,955.801,150.8,967.5,120.1,967.5z" />
</g>
<g
   id="g6">
</g>
<g
   id="g8">
</g>
<g
   id="g10">
</g>
<g
   id="g12">
</g>
<g
   id="g14">
</g>
<g
   id="g16">
</g>
<g
   id="g18">
</g>
<g
   id="g20">
</g>
<g
   id="g22">
</g>
<g
   id="g24">
</g>
<g
   id="g26">
</g>
<g
   id="g28">
</g>
<g
   id="g30">
</g>
<g
   id="g32">
</g>
<g
   id="g34">
</g>
</g></svg>