<?xml version="1.0" encoding="UTF-8" standalone="no"?>
<svg
   xmlns:dc="http://purl.org/dc/elements/1.1/"
   xmlns:cc="http://creativecommons.org/ns#"
   xmlns:rdf="http://www.w3.org/1999/02/22-rdf-syntax-ns#"
   xmlns:svg="http://www.w3.org/2000/svg"
   xmlns="http://www.w3.org/2000/svg"
   xmlns:sodipodi="http://sodipodi.sourceforge.net/DTD/sodipodi-0.dtd"
   xmlns:inkscape="http://www.inkscape.org/namespaces/inkscape"
   version="1.1"
   width="512"
   height="512"
   x="0"
   y="0"
   viewBox="0 0 512 512"
   style="enable-background:new 0 0 512 512"
   xml:space="preserve"
   class=""
   id="svg8"
   sodipodi:docname="exequextnumber.svg"
   inkscape:version="0.92.3 (2405546, 2018-03-11)"><metadata
     id="metadata14"><rdf:RDF><cc:Work
         rdf:about=""><dc:format>image/svg+xml</dc:format><dc:type
           rdf:resource="http://purl.org/dc/dcmitype/StillImage" /></cc:Work></rdf:RDF></metadata><defs
     id="defs12" /><sodipodi:namedview
     pagecolor="#ffffff"
     bordercolor="#666666"
     borderopacity="1"
     objecttolerance="10"
     gridtolerance="10"
     guidetolerance="10"
     inkscape:pageopacity="0"
     inkscape:pageshadow="2"
     inkscape:window-width="1280"
     inkscape:window-height="751"
     id="namedview10"
     showgrid="false"
     inkscape:zoom="0.4609375"
     inkscape:cx="-184.40678"
     inkscape:cy="256"
     inkscape:window-x="0"
     inkscape:window-y="0"
     inkscape:window-maximized="1"
     inkscape:current-layer="svg8" /><g
     id="g6"><g
       id="g4"><path
         d="m461 111h-27.58l15.106-53.832c6.715-23.928-7.239-48.768-31.166-55.482-23.927-6.718-48.768 7.239-55.482 31.167l-21.929 78.147h-86.52l15.106-53.832c6.714-23.928-7.239-48.768-31.167-55.482-23.927-6.718-48.767 7.239-55.482 31.167l-21.929 78.147h-58.957c-24.853 0-45 20.147-45 45s20.147 45 45 45h33.702l-30.867 110h-52.835c-24.853 0-45 20.147-45 45s20.147 45 45 45h27.58l-15.106 53.833c-6.715 23.927 7.239 48.768 31.167 55.482 4.066 1.142 8.157 1.686 12.182 1.686 19.662 0 37.727-12.991 43.3-32.852l21.928-78.149h86.52l-15.106 53.833c-6.714 23.927 7.239 48.768 31.167 55.482 4.066 1.142 8.157 1.686 12.182 1.686 19.662 0 37.727-12.991 43.3-32.852l21.929-78.149h58.957c24.853 0 45-20.147 45-45s-20.147-45-45-45h-33.702l30.867-110h52.835c24.853 0 45-20.147 45-45s-20.147-45-45-45zm-177.173 200h-86.52l30.867-110h86.52z"
         fill="#fd2ca9"
         data-original="#000000"
         style="fill:#ff0000;fill-opacity:1"
         class=""
         id="path2" /></g></g></svg>