<?xml version="1.0" encoding="UTF-8" standalone="no"?>
<svg
   xmlns:dc="http://purl.org/dc/elements/1.1/"
   xmlns:cc="http://creativecommons.org/ns#"
   xmlns:rdf="http://www.w3.org/1999/02/22-rdf-syntax-ns#"
   xmlns:svg="http://www.w3.org/2000/svg"
   xmlns="http://www.w3.org/2000/svg"
   xmlns:sodipodi="http://sodipodi.sourceforge.net/DTD/sodipodi-0.dtd"
   xmlns:inkscape="http://www.inkscape.org/namespaces/inkscape"
   version="1.1"
   width="512"
   height="512"
   x="0"
   y="0"
   viewBox="0 0 126 126"
   style="enable-background:new 0 0 512 512"
   xml:space="preserve"
   class=""
   id="svg38"
   sodipodi:docname="exequexttime.svg"
   inkscape:version="0.92.3 (2405546, 2018-03-11)"><metadata
     id="metadata44"><rdf:RDF><cc:Work
         rdf:about=""><dc:format>image/svg+xml</dc:format><dc:type
           rdf:resource="http://purl.org/dc/dcmitype/StillImage" /></cc:Work></rdf:RDF></metadata><defs
     id="defs42" /><sodipodi:namedview
     pagecolor="#ffffff"
     bordercolor="#666666"
     borderopacity="1"
     objecttolerance="10"
     gridtolerance="10"
     guidetolerance="10"
     inkscape:pageopacity="0"
     inkscape:pageshadow="2"
     inkscape:window-width="1280"
     inkscape:window-height="751"
     id="namedview40"
     showgrid="false"
     inkscape:zoom="0.4609375"
     inkscape:cx="-433.89831"
     inkscape:cy="256"
     inkscape:window-x="0"
     inkscape:window-y="0"
     inkscape:window-maximized="1"
     inkscape:current-layer="svg38" /><g
     transform="matrix(0.85,0,0,0.85,9.450045204162592,9.449925041198732)"
     id="g36">
<g
   id="g4">
	<path
   d="M90.101,63l23-35.2c3.6-5.5,3.899-12.6,0.8-18.4C110.7,3.6,104.601,0,98,0H63H28c-6.6,0-12.7,3.6-15.8,9.4   C9,15.3,9.3,22.3,12.9,27.8l23,35.2l-23,35.2c-3.6,5.5-3.9,12.6-0.8,18.399c3.1,5.801,9.2,9.4,15.8,9.4h35h35   c6.6,0,12.7-3.6,15.8-9.4c3.1-5.8,2.9-12.899-0.8-18.399L90.101,63z M56,86.2c0,1.5-1,2.8-2.5,3c-7.5,1-14.4,3.1-20.4,6.2   c-1.8,0.899-3.6-1.101-2.5-2.801L48.5,63.9c0.4-0.601,1-0.9,1.7-0.9h4c1.1,0,1.8,0.9,1.8,2V86.2z M27.701,26c-1,0-2-0.5-2.5-1.4   L23,21.3c-2.6-4,0.3-9.3,5-9.3h35h35c4.8,0,7.601,5.3,5,9.3l-2.2,3.4c-0.6,0.8-1.5,1.4-2.5,1.4H63h-35.3V26z M92.9,95.4   C86.9,92.3,80,90.1,72.5,89.2C71,89,70,87.7,70,86.2V65c0-1.1,0.7-2,1.8-2h4c0.7,0,1.4,0.4,1.7,0.9L95.4,92.6   C96.5,94.3,94.7,96.4,92.9,95.4z"
   fill="#fd2ca9"
   data-original="#000000"
   style="fill:#ff0000;fill-opacity:1"
   class=""
   id="path2" />
</g>
<g
   id="g6">
</g>
<g
   id="g8">
</g>
<g
   id="g10">
</g>
<g
   id="g12">
</g>
<g
   id="g14">
</g>
<g
   id="g16">
</g>
<g
   id="g18">
</g>
<g
   id="g20">
</g>
<g
   id="g22">
</g>
<g
   id="g24">
</g>
<g
   id="g26">
</g>
<g
   id="g28">
</g>
<g
   id="g30">
</g>
<g
   id="g32">
</g>
<g
   id="g34">
</g>
</g></svg>