<?xml version="1.0" encoding="UTF-8" standalone="no"?>
<svg
   xmlns:dc="http://purl.org/dc/elements/1.1/"
   xmlns:cc="http://creativecommons.org/ns#"
   xmlns:rdf="http://www.w3.org/1999/02/22-rdf-syntax-ns#"
   xmlns:svg="http://www.w3.org/2000/svg"
   xmlns="http://www.w3.org/2000/svg"
   xmlns:sodipodi="http://sodipodi.sourceforge.net/DTD/sodipodi-0.dtd"
   xmlns:inkscape="http://www.inkscape.org/namespaces/inkscape"
   version="1.1"
   width="512"
   height="512"
   x="0"
   y="0"
   viewBox="0 0 512 512"
   style="enable-background:new 0 0 512 512"
   xml:space="preserve"
   class=""
   id="svg12"
   sodipodi:docname="exequextscore.svg"
   inkscape:version="0.92.3 (2405546, 2018-03-11)"><metadata
     id="metadata18"><rdf:RDF><cc:Work
         rdf:about=""><dc:format>image/svg+xml</dc:format><dc:type
           rdf:resource="http://purl.org/dc/dcmitype/StillImage" /></cc:Work></rdf:RDF></metadata><defs
     id="defs16" /><sodipodi:namedview
     pagecolor="#ffffff"
     bordercolor="#666666"
     borderopacity="1"
     objecttolerance="10"
     gridtolerance="10"
     guidetolerance="10"
     inkscape:pageopacity="0"
     inkscape:pageshadow="2"
     inkscape:window-width="816"
     inkscape:window-height="480"
     id="namedview14"
     showgrid="false"
     inkscape:zoom="0.4609375"
     inkscape:cx="97.62712"
     inkscape:cy="256"
     inkscape:window-x="0"
     inkscape:window-y="0"
     inkscape:window-maximized="0"
     inkscape:current-layer="svg12" /><g
     transform="matrix(0.88,0,0,0.8800000000000001,79.93609374999997,30.720000114440893)"
     id="g10"><path
       d="m134.191406 342.785156c-.046875.050782-.09375.101563-.144531.148438-4.675781 4.675781-7.25 10.890625-7.25 17.5s2.574219 12.824218 7.25 17.496094c.050781.050781.097656.101562.148437.152343 9.664063 9.515625 25.265626 9.472657 34.875-.132812l17.519532-17.515625-17.523438-17.523438c-9.605468-9.601562-25.214844-9.640625-34.875-.125zm0 0"
       fill="#fd2ca9"
       data-original="#000000"
       style="fill:#ff0000;fill-opacity:1"
       class=""
       id="path2" /><path
       d="m281.554688 342.933594c-.054688-.050782-.105469-.101563-.15625-.15625-9.664063-9.507813-25.261719-9.460938-34.871094.136718l-17.515625 17.519532 17.519531 17.523437c9.601562 9.59375 25.199219 9.644531 34.863281.140625.050781-.058594.105469-.109375.160157-.164062 4.675781-4.675782 7.25-10.886719 7.25-17.5 0-6.609375-2.574219-12.824219-7.25-17.5zm0 0"
       fill="#fd2ca9"
       data-original="#000000"
       style="fill:#ff0000;fill-opacity:1"
       class=""
       id="path4" /><path
       d="m343.007812 229.789062-68.019531-71.257812h-56.375l-28.714843 86.144531c-2.09375 6.285157-7.949219 10.261719-14.230469 10.261719-1.570313 0-3.171875-.25-4.742188-.773438-7.859375-2.617187-12.109375-11.113281-9.488281-18.972656l25.550781-76.65625h-46.375l-68.019531 71.253906c-46.8125 49.039063-72.59375 113.386719-72.59375 181.191407 0 26.980469 10.507812 52.351562 29.585938 71.429687 19.078124 19.082032 44.449218 29.589844 71.433593 29.589844h213.558594c26.988281 0 52.355469-10.507812 71.4375-29.589844 19.078125-19.078125 29.585937-44.445312 29.585937-71.429687v-.003907c0-67.800781-25.78125-132.148437-72.59375-181.1875zm-40.039062 169.152344c-.074219.078125-.148438.152344-.222656.226563-21.347656 21.339843-56.078125 21.339843-77.425782 0l-17.519531-17.519531-17.519531 17.515624c-10.671875 10.671876-24.695312 16.007813-38.714844 16.007813-14.019531 0-28.039062-5.332031-38.710937-16.003906-.070313-.066407-.136719-.136719-.203125-.203125-10.226563-10.320313-15.855469-23.992188-15.855469-38.53125 0-14.539063 5.628906-28.210938 15.855469-38.53125.066406-.066406.132812-.136719.203125-.203125 21.34375-21.339844 56.078125-21.339844 77.425781 0l17.519531 17.519531 17.515625-17.519531c21.351563-21.339844 56.082032-21.339844 77.429688 0 .074218.074219.148437.148437.222656.222656 10.214844 10.316406 15.835938 23.980469 15.835938 38.511719 0 14.527344-5.621094 28.191406-15.835938 38.507812zm0 0"
       fill="#fd2ca9"
       data-original="#000000"
       style="fill:#ff0000;fill-opacity:1"
       class=""
       id="path6" /><path
       d="m154.351562 128.53125h53.703126.0625 53.132812l86.605469-103.929688c3.726562-4.46875 4.53125-10.695312 2.0625-15.964843s-7.765625-8.636719-13.585938-8.636719h-257.066406c-5.820313 0-11.113281 3.367188-13.582031 8.636719-2.46875 5.273437-1.667969 11.496093 2.058594 15.964843zm0 0"
       fill="#fd2ca9"
       data-original="#000000"
       style="fill:#ff0000;fill-opacity:1"
       class=""
       id="path8" /></g></svg>