<?xml version="1.0" encoding="UTF-8" standalone="no"?>
<svg
   xmlns:dc="http://purl.org/dc/elements/1.1/"
   xmlns:cc="http://creativecommons.org/ns#"
   xmlns:rdf="http://www.w3.org/1999/02/22-rdf-syntax-ns#"
   xmlns:svg="http://www.w3.org/2000/svg"
   xmlns="http://www.w3.org/2000/svg"
   xmlns:sodipodi="http://sodipodi.sourceforge.net/DTD/sodipodi-0.dtd"
   xmlns:inkscape="http://www.inkscape.org/namespaces/inkscape"
   fill="#ff0000"
   viewBox="0 0 50 50"
   width="100px"
   height="100px"
   version="1.1"
   id="svg997"
   sodipodi:docname="mapam124.svg"
   inkscape:version="0.92.3 (2405546, 2018-03-11)">
  <metadata
     id="metadata1003">
    <rdf:RDF>
      <cc:Work
         rdf:about="">
        <dc:format>image/svg+xml</dc:format>
        <dc:type
           rdf:resource="http://purl.org/dc/dcmitype/StillImage" />
        <dc:title />
      </cc:Work>
    </rdf:RDF>
  </metadata>
  <defs
     id="defs1001" />
  <sodipodi:namedview
     pagecolor="#ffffff"
     bordercolor="#666666"
     borderopacity="1"
     objecttolerance="10"
     gridtolerance="10"
     guidetolerance="10"
     inkscape:pageopacity="0"
     inkscape:pageshadow="2"
     inkscape:window-width="1680"
     inkscape:window-height="1001"
     id="namedview999"
     showgrid="false"
     inkscape:zoom="5.68"
     inkscape:cx="-20.070422"
     inkscape:cy="43.277083"
     inkscape:window-x="0"
     inkscape:window-y="0"
     inkscape:window-maximized="1"
     inkscape:current-layer="layer2" />
  <g
     inkscape:groupmode="layer"
     id="layer2"
     inkscape:label="capa2">
    <rect
       style="opacity:0.93999999;fill:#333333;fill-opacity:1;stroke:#ffffff;stroke-width:0.5;stroke-miterlimit:4;stroke-dasharray:none;stroke-opacity:1"
       id="rect1021"
       width="22.62324"
       height="31.690142"
       x="13.644366"
       y="9.7711267" />
  </g>
  <path
     d="M25,2C12.297,2,2,12.297,2,25s10.297,23,23,23s23-10.297,23-23S37.703,2,25,2z M25,11c1.657,0,3,1.343,3,3s-1.343,3-3,3 s-3-1.343-3-3S23.343,11,25,11z M29,38h-2h-4h-2v-2h2V23h-2v-2h2h4v2v13h2V38z"
     id="path995"
     style="fill:#ffff00;fill-opacity:1" />
  <g
     inkscape:groupmode="layer"
     id="layer1"
     inkscape:label="fondo" />
</svg>
