<?xml version="1.0" encoding="UTF-8" standalone="no"?>
<svg
   xmlns:dc="http://purl.org/dc/elements/1.1/"
   xmlns:cc="http://creativecommons.org/ns#"
   xmlns:rdf="http://www.w3.org/1999/02/22-rdf-syntax-ns#"
   xmlns:svg="http://www.w3.org/2000/svg"
   xmlns="http://www.w3.org/2000/svg"
   xmlns:sodipodi="http://sodipodi.sourceforge.net/DTD/sodipodi-0.dtd"
   xmlns:inkscape="http://www.inkscape.org/namespaces/inkscape"
   version="1.1"
   width="512"
   height="512"
   x="0"
   y="0"
   viewBox="0 0 471.04 471.04"
   style="enable-background:new 0 0 512 512"
   xml:space="preserve"
   class=""
   id="svg3314"
   sodipodi:docname="mapam108.svg"
   inkscape:version="0.92.3 (2405546, 2018-03-11)"><metadata
     id="metadata3320"><rdf:RDF><cc:Work
         rdf:about=""><dc:format>image/svg+xml</dc:format><dc:type
           rdf:resource="http://purl.org/dc/dcmitype/StillImage" /><dc:title /></cc:Work></rdf:RDF></metadata><defs
     id="defs3318" /><sodipodi:namedview
     pagecolor="#ffffff"
     bordercolor="#666666"
     borderopacity="1"
     objecttolerance="10"
     gridtolerance="10"
     guidetolerance="10"
     inkscape:pageopacity="0"
     inkscape:pageshadow="2"
     inkscape:window-width="816"
     inkscape:window-height="480"
     id="namedview3316"
     showgrid="false"
     inkscape:zoom="0.4609375"
     inkscape:cx="-264.67797"
     inkscape:cy="256"
     inkscape:window-x="0"
     inkscape:window-y="0"
     inkscape:window-maximized="0"
     inkscape:current-layer="svg3314" /><circle
     r="235.52"
     cx="235.52"
     cy="235.52"
     fill="#246cb6"
     shape="circle"
     id="circle3268"
     style="fill:#e6e6e6;fill-opacity:1" /><g
     transform="matrix(0.7,0,0,0.7,70.6560012817383,70.65600471496583)"
     id="g3312"
     style="fill:#000000">
<g
   id="g3274"
   style="fill:#000000">
	<g
   id="g3272"
   style="fill:#000000">
		<path
   d="M414.72,112.64h-49.152l-27.136-40.96c-10.24-15.36-28.16-24.576-46.592-24.576H179.2    c-18.432,0-36.352,9.216-46.592,24.576l-27.136,40.96H56.32C25.088,112.64,0,137.728,0,168.96v198.656    c0,31.232,25.088,56.32,56.32,56.32h358.4c31.232,0,56.32-25.088,56.32-56.32V168.96C471.04,137.728,445.952,112.64,414.72,112.64    z M235.52,377.856c-70.144,0-126.976-56.832-126.976-126.976c0-70.144,56.832-126.464,126.976-126.464    s126.976,56.832,126.976,126.976C362.496,321.024,305.664,377.856,235.52,377.856z M407.552,192c-0.512,0-1.024,0-2.048,0h-20.48    c-9.216-0.512-16.384-8.192-15.872-17.408c0.512-8.704,7.168-15.36,15.872-15.872h20.48c9.216-0.512,16.896,6.656,17.408,15.872    C423.424,183.808,416.768,191.488,407.552,192z"
   fill="#ffffff"
   data-original="#000000"
   style="fill:#333333"
   class=""
   id="path3270" />
	</g>
</g>
<g
   id="g3280"
   style="fill:#000000">
	<g
   id="g3278"
   style="fill:#000000">
		<path
   d="M235.52,180.736c-38.912,0-70.656,31.744-70.656,70.656s31.744,70.144,70.656,70.144s70.656-31.744,70.656-70.656    C306.176,211.968,274.432,180.736,235.52,180.736z"
   fill="#ffffff"
   data-original="#000000"
   style="fill:#333333"
   class=""
   id="path3276" />
	</g>
</g>
<g
   id="g3282"
   style="fill:#000000">
</g>
<g
   id="g3284"
   style="fill:#000000">
</g>
<g
   id="g3286"
   style="fill:#000000">
</g>
<g
   id="g3288"
   style="fill:#000000">
</g>
<g
   id="g3290"
   style="fill:#000000">
</g>
<g
   id="g3292"
   style="fill:#000000">
</g>
<g
   id="g3294"
   style="fill:#000000">
</g>
<g
   id="g3296"
   style="fill:#000000">
</g>
<g
   id="g3298"
   style="fill:#000000">
</g>
<g
   id="g3300"
   style="fill:#000000">
</g>
<g
   id="g3302"
   style="fill:#000000">
</g>
<g
   id="g3304"
   style="fill:#000000">
</g>
<g
   id="g3306"
   style="fill:#000000">
</g>
<g
   id="g3308"
   style="fill:#000000">
</g>
<g
   id="g3310"
   style="fill:#000000">
</g>
</g></svg>