<?xml version="1.0"?>
<svg xmlns="http://www.w3.org/2000/svg" xmlns:xlink="http://www.w3.org/1999/xlink" xmlns:svgjs="http://svgjs.com/svgjs" version="1.1" width="512" height="512" x="0" y="0" viewBox="0 0 512 512" style="enable-background:new 0 0 512 512" xml:space="preserve" class=""><g>
<path xmlns="http://www.w3.org/2000/svg" style="" d="M511.342,501.574l-73.78-178.607c-1.16-2.808-3.882-4.637-6.901-4.637H81.339  c-3.019,0-5.742,1.83-6.901,4.637L0.657,501.574c-0.961,2.324-0.705,4.979,0.683,7.073C2.727,510.742,5.06,512,7.559,512h496.882  c2.498,0,4.832-1.259,6.219-3.353C512.047,506.554,512.302,503.899,511.342,501.574z" fill="#00e2ff" data-original="#a8eefc" class=""/>
<path xmlns="http://www.w3.org/2000/svg" style="" d="M480.641,512h23.8c2.498,0,4.832-1.259,6.219-3.353c1.387-2.093,1.643-4.748,0.683-7.073  l-73.78-178.607c-1.16-2.808-3.882-4.637-6.901-4.637h-30.023L480.641,512z" fill="#00e2ff" data-original="#7ee5f2" class=""/>
<g xmlns="http://www.w3.org/2000/svg">
	<path style="" d="M123.166,385.691l25.459-67.528H80.866c-3.019,0-5.742,1.83-6.901,4.637l-25.98,62.891H123.166z" fill="#00e2ff" data-original="#4ce166" class=""/>
	<path style="" d="M430.188,318.163H194.912l68.623,59.839h196.358l-22.803-55.201   C435.929,319.994,433.207,318.163,430.188,318.163z" fill="#00e2ff" data-original="#4ce166" class=""/>
	<polygon style="" points="461.655,382.269 463.069,385.691 463.069,385.691  " fill="#00e2ff" data-original="#4ce166" class=""/>
</g>
<polygon xmlns="http://www.w3.org/2000/svg" style="" points="482.581,432.928 459.893,378.002 263.534,378.002 194.912,318.163 148.878,318.163   143.02,318.163 118.18,377.987 51.169,377.987 36.117,414.423 28.473,432.928 95.555,432.928 62.962,511.833 123.941,511.833   176.291,383.658 327.257,511.833 416.385,511.833 326.161,432.928 " fill="#fbad00" data-original="#ffdb56" class=""/>
<path xmlns="http://www.w3.org/2000/svg" style="" d="M255.527,0C166.495,0,94.063,72.977,94.063,162.678c0,30.924,8.352,63.733,24.827,97.515  c13.036,26.734,31.175,54.161,53.91,81.52c38.572,46.415,76.553,76.214,78.152,77.461c1.348,1.051,2.961,1.574,4.575,1.574  s3.228-0.525,4.575-1.574c1.598-1.247,39.579-31.046,78.152-77.461c22.736-27.359,40.875-54.786,53.91-81.52  c16.475-33.783,24.827-66.591,24.827-97.515C416.991,72.977,344.559,0,255.527,0z M255.527,100.798  c33.92,0,61.418,27.705,61.418,61.88s-27.498,61.88-61.418,61.88s-61.418-27.705-61.418-61.88  C194.109,128.503,221.607,100.798,255.527,100.798z" fill="#ff0606" data-original="#ff4a4a" class=""/>
<path xmlns="http://www.w3.org/2000/svg" style="" d="M255.527,0c-5.313,0-10.566,0.268-15.749,0.775c81.668,8.002,145.715,77.555,145.715,161.903  c0,30.924-8.352,63.733-24.827,97.515c-13.036,26.734-31.175,54.161-53.91,81.52c-26.454,31.833-52.626,55.846-66.978,68.197  c6.575,5.658,10.672,8.872,11.173,9.263c1.348,1.051,2.961,1.574,4.575,1.574s3.228-0.525,4.575-1.574  c1.598-1.247,39.579-31.046,78.152-77.461c22.736-27.359,40.875-54.786,53.91-81.52c16.475-33.783,24.827-66.591,24.827-97.515  C416.991,72.977,344.559,0,255.527,0z" fill="#e20000" data-original="#e7343f" class=""/>
<polygon xmlns="http://www.w3.org/2000/svg" style="" points="123.941,511.833 327.257,511.833 176.291,383.658 " fill="#00e2ff" data-original="#4ce166" class=""/>
<polygon xmlns="http://www.w3.org/2000/svg" style="" points="424.884,378.002 447.573,432.928 482.581,432.928 459.893,378.002 " fill="#fbad00" data-original="#ffbb24" class=""/>
<path xmlns="http://www.w3.org/2000/svg" style="" d="M424.884,378.002h35.009l-22.803-55.201c-1.16-2.808-3.882-4.637-6.901-4.637h-30.023  L424.884,378.002z" fill="#00e2ff" data-original="#44c868" class=""/>
<g xmlns="http://www.w3.org/2000/svg">
</g>
<g xmlns="http://www.w3.org/2000/svg">
</g>
<g xmlns="http://www.w3.org/2000/svg">
</g>
<g xmlns="http://www.w3.org/2000/svg">
</g>
<g xmlns="http://www.w3.org/2000/svg">
</g>
<g xmlns="http://www.w3.org/2000/svg">
</g>
<g xmlns="http://www.w3.org/2000/svg">
</g>
<g xmlns="http://www.w3.org/2000/svg">
</g>
<g xmlns="http://www.w3.org/2000/svg">
</g>
<g xmlns="http://www.w3.org/2000/svg">
</g>
<g xmlns="http://www.w3.org/2000/svg">
</g>
<g xmlns="http://www.w3.org/2000/svg">
</g>
<g xmlns="http://www.w3.org/2000/svg">
</g>
<g xmlns="http://www.w3.org/2000/svg">
</g>
<g xmlns="http://www.w3.org/2000/svg">
</g>
</g></svg>
