<?xml version="1.0" encoding="UTF-8" standalone="no"?>
<svg
   xmlns:dc="http://purl.org/dc/elements/1.1/"
   xmlns:cc="http://creativecommons.org/ns#"
   xmlns:rdf="http://www.w3.org/1999/02/22-rdf-syntax-ns#"
   xmlns:svg="http://www.w3.org/2000/svg"
   xmlns="http://www.w3.org/2000/svg"
   xmlns:sodipodi="http://sodipodi.sourceforge.net/DTD/sodipodi-0.dtd"
   xmlns:inkscape="http://www.inkscape.org/namespaces/inkscape"
   version="1.1"
   width="512"
   height="512"
   x="0"
   y="0"
   viewBox="0 0 512 512"
   style="enable-background:new 0 0 512 512"
   xml:space="preserve"
   class=""
   id="svg66"
   sodipodi:docname="mapam46.svg"
   inkscape:version="0.92.3 (2405546, 2018-03-11)"><metadata
     id="metadata72"><rdf:RDF><cc:Work
         rdf:about=""><dc:format>image/svg+xml</dc:format><dc:type
           rdf:resource="http://purl.org/dc/dcmitype/StillImage" /><dc:title></dc:title></cc:Work></rdf:RDF></metadata><defs
     id="defs70" /><sodipodi:namedview
     pagecolor="#ffffff"
     bordercolor="#666666"
     borderopacity="1"
     objecttolerance="10"
     gridtolerance="10"
     guidetolerance="10"
     inkscape:pageopacity="0"
     inkscape:pageshadow="2"
     inkscape:window-width="1280"
     inkscape:window-height="911"
     id="namedview68"
     showgrid="false"
     inkscape:zoom="0.4609375"
     inkscape:cx="260.33898"
     inkscape:cy="256"
     inkscape:window-x="0"
     inkscape:window-y="0"
     inkscape:window-maximized="1"
     inkscape:current-layer="svg66" /><circle
     r="256"
     cx="256"
     cy="256"
     fill="#ff0000"
     shape="circle"
     transform="matrix(1,0,0,1,0,0)"
     id="circle2"
     style="fill:#069a1c;fill-opacity:1" /><g
     transform="matrix(0.8099999999999999,0,0,0.81,48.640000000000015,48.6400913238526)"
     id="g64">
<g
   id="g8">
	<g
   id="g6">
		<path
   d="M381.156,122.88H130.844c-9.426,0-17.067,7.64-17.067,17.067v232.107c0,9.426,7.64,17.067,17.067,17.067h250.311    c9.426,0,17.067-7.64,17.067-17.067V139.947C398.222,130.52,390.582,122.88,381.156,122.88z M364.089,354.987H147.911V157.013    h216.178V354.987z"
   fill="#fff8f8"
   data-original="#000000"
   style=""
   class=""
   id="path4" />
	</g>
</g>
<g
   id="g14">
	<g
   id="g12">
		<path
   d="M73.956,151.324c-9.427,0-17.067,7.64-17.067,17.067v175.218c0,9.427,7.64,17.067,17.067,17.067    c9.426,0,17.067-7.64,17.067-17.067V168.391C91.022,158.965,83.382,151.324,73.956,151.324z"
   fill="#fff8f8"
   data-original="#000000"
   style=""
   class=""
   id="path10" />
	</g>
</g>
<g
   id="g20">
	<g
   id="g18">
		<path
   d="M17.067,179.769C7.64,179.769,0,187.409,0,196.836v118.329c0,9.426,7.64,17.067,17.067,17.067    c9.427,0,17.067-7.64,17.067-17.067V196.836C34.133,187.409,26.493,179.769,17.067,179.769z"
   fill="#fff8f8"
   data-original="#000000"
   style=""
   class=""
   id="path16" />
	</g>
</g>
<g
   id="g26">
	<g
   id="g24">
		<path
   d="M438.044,151.324c-9.426,0-17.067,7.64-17.067,17.067v175.218c0,9.427,7.64,17.067,17.067,17.067    c9.427,0,17.067-7.64,17.067-17.067V168.391C455.111,158.965,447.471,151.324,438.044,151.324z"
   fill="#fff8f8"
   data-original="#000000"
   style=""
   class=""
   id="path22" />
	</g>
</g>
<g
   id="g32">
	<g
   id="g30">
		<path
   d="M494.933,179.769c-9.426,0-17.067,7.64-17.067,17.067v118.329c0,9.426,7.64,17.067,17.067,17.067S512,324.591,512,315.164    V196.836C512,187.409,504.36,179.769,494.933,179.769z"
   fill="#fff8f8"
   data-original="#000000"
   style=""
   class=""
   id="path28" />
	</g>
</g>
<g
   id="g34">
</g>
<g
   id="g36">
</g>
<g
   id="g38">
</g>
<g
   id="g40">
</g>
<g
   id="g42">
</g>
<g
   id="g44">
</g>
<g
   id="g46">
</g>
<g
   id="g48">
</g>
<g
   id="g50">
</g>
<g
   id="g52">
</g>
<g
   id="g54">
</g>
<g
   id="g56">
</g>
<g
   id="g58">
</g>
<g
   id="g60">
</g>
<g
   id="g62">
</g>
</g></svg>