<?xml version="1.0"?>
<svg xmlns="http://www.w3.org/2000/svg" xmlns:xlink="http://www.w3.org/1999/xlink" xmlns:svgjs="http://svgjs.com/svgjs" version="1.1" width="512" height="512" x="0" y="0" viewBox="0 0 512.00533 512" style="enable-background:new 0 0 512 512" xml:space="preserve" class=""><g><path xmlns="http://www.w3.org/2000/svg" d="m21.339844 512.003906c-5.460938 0-10.925782-2.09375-15.082032-6.25-8.34375-8.34375-8.34375-21.824218 0-30.167968l225.066407-225.066407c8.339843-8.339843 21.824219-8.339843 30.164062 0 8.339844 8.34375 8.339844 21.824219 0 30.164063l-225.066406 225.070312c-4.160156 4.15625-9.621094 6.25-15.082031 6.25zm0 0" fill="#686666" data-original="#607d8b" style="" class=""/><path xmlns="http://www.w3.org/2000/svg" d="m512.003906 165.335938c0 91.3125-74.019531 165.332031-165.332031 165.332031s-165.332031-74.019531-165.332031-165.332031 74.019531-165.33203175 165.332031-165.33203175 165.332031 74.01953175 165.332031 165.33203175zm0 0" fill="#000000" data-original="#4caf50" style="" class=""/><path xmlns="http://www.w3.org/2000/svg" d="m261.339844 181.335938c-8.832032 0-16-7.167969-16-16 0-55.871094 45.460937-101.332032 101.332031-101.332032 8.832031 0 16 7.167969 16 16 0 8.832032-7.167969 16-16 16-38.230469 0-69.332031 31.101563-69.332031 69.332032 0 8.832031-7.167969 16-16 16zm0 0" fill="#ffffff" data-original="#ffffff" style="" class=""/></g></svg>
