<?xml version="1.0"?>
<svg xmlns="http://www.w3.org/2000/svg" xmlns:xlink="http://www.w3.org/1999/xlink" xmlns:svgjs="http://svgjs.com/svgjs" version="1.1" width="512" height="512" x="0" y="0" viewBox="0 0 97.536 97.536" style="enable-background:new 0 0 512 512" xml:space="preserve" class=""><circle r="48.768" cx="48.768" cy="48.768" fill="#000000" shape="circle" transform="matrix(1,0,0,1,0,0)"/><g transform="matrix(0.7,0,0,0.7,14.63040046691895,14.630549097061163)">
<g xmlns="http://www.w3.org/2000/svg">
	<g>
		<path d="M1.5,19.546h41.758c0.398,0,0.779-0.158,1.061-0.439c0.282-0.281,0.439-0.663,0.439-1.061V8.159    c0-0.829-0.672-1.5-1.5-1.5H1.5c-0.828,0-1.5,0.671-1.5,1.5v9.889C0,18.875,0.672,19.546,1.5,19.546z" fill="#fffdfd" data-original="#000000" style="" class=""/>
		<path d="M1.5,43.324h41.758c0.398,0,0.779-0.158,1.061-0.439c0.282-0.281,0.439-0.663,0.439-1.061v-9.888    c0-0.829-0.672-1.5-1.5-1.5H1.5c-0.828,0-1.5,0.671-1.5,1.5v9.888C0,42.651,0.672,43.324,1.5,43.324z" fill="#fffdfd" data-original="#000000" style="" class=""/>
		<path d="M95.977,77.989H1.5c-0.828,0-1.5,0.671-1.5,1.5v9.889c0,0.829,0.672,1.5,1.5,1.5h94.477c0.398,0,0.779-0.158,1.062-0.439    c0.282-0.28,0.438-0.662,0.438-1.061v-9.889C97.477,78.66,96.805,77.989,95.977,77.989z" fill="#fffdfd" data-original="#000000" style="" class=""/>
		<path d="M1.522,54.211c-0.828,0-1.5,0.672-1.5,1.5V65.6c0,0.828,0.672,1.5,1.5,1.5h94.514c0.397,0,0.778-0.158,1.062-0.439    c0.281-0.281,0.438-0.663,0.438-1.061v-9.889c0-0.828-0.672-1.5-1.5-1.5H1.522z" fill="#fffdfd" data-original="#000000" style="" class=""/>
		<path d="M96.499,6.659H55.705c-0.54,0-0.979,0.438-0.979,0.978v34.795c0,0.54,0.438,0.978,0.979,0.978H96.5    c0.54,0,0.979-0.438,0.979-0.978V7.636C97.477,7.096,97.039,6.659,96.499,6.659z M84.409,25.958l-10.854,8.539    c-0.211,0.166-0.47,0.251-0.728,0.251c-0.177,0-0.353-0.039-0.515-0.118c-0.405-0.197-0.662-0.607-0.662-1.058V16.495    c0-0.451,0.257-0.861,0.662-1.058c0.404-0.196,0.887-0.146,1.24,0.134l10.855,8.539c0.283,0.223,0.447,0.564,0.447,0.924    S84.691,25.734,84.409,25.958z" fill="#fffdfd" data-original="#000000" style="" class=""/>
	</g>
</g>
<g xmlns="http://www.w3.org/2000/svg">
</g>
<g xmlns="http://www.w3.org/2000/svg">
</g>
<g xmlns="http://www.w3.org/2000/svg">
</g>
<g xmlns="http://www.w3.org/2000/svg">
</g>
<g xmlns="http://www.w3.org/2000/svg">
</g>
<g xmlns="http://www.w3.org/2000/svg">
</g>
<g xmlns="http://www.w3.org/2000/svg">
</g>
<g xmlns="http://www.w3.org/2000/svg">
</g>
<g xmlns="http://www.w3.org/2000/svg">
</g>
<g xmlns="http://www.w3.org/2000/svg">
</g>
<g xmlns="http://www.w3.org/2000/svg">
</g>
<g xmlns="http://www.w3.org/2000/svg">
</g>
<g xmlns="http://www.w3.org/2000/svg">
</g>
<g xmlns="http://www.w3.org/2000/svg">
</g>
<g xmlns="http://www.w3.org/2000/svg">
</g>
</g></svg>
