<?xml version="1.0" encoding="iso-8859-1"?>
<!-- Generator: Adobe Illustrator 16.0.0, SVG Export Plug-In . SVG Version: 6.00 Build 0)  -->
<!DOCTYPE svg PUBLIC "-//W3C//DTD SVG 1.1//EN" "http://www.w3.org/Graphics/SVG/1.1/DTD/svg11.dtd">
<svg version="1.1" id="Capa_1" xmlns="http://www.w3.org/2000/svg" xmlns:xlink="http://www.w3.org/1999/xlink" x="0px" y="0px"
	 width="967.5px" height="967.5px" viewBox="0 0 967.5 967.5" style="enable-background:new 0 0 967.5 967.5;" xml:space="preserve"
	>
<g>
	<path d="M120.1,967.5c-30.7,0-61.4-11.699-84.9-35.1c-46.8-46.9-46.8-122.9,0-169.801L557.801,240H327.1c-66.3,0-120-53.7-120-120
		c0-66.3,53.7-120,120-120h520.401c0.1,0,0.2,0,0.2,0c19.8,0,39.5,5,56.899,14.4c0,0,0.101,0,0.101,0.1
		c21.6,11.8,39.199,30.1,50.199,52.1c8.301,16.5,12.5,35,12.5,53.4v520.4c0,66.299-53.699,120-120,120c-66.3,0-120-53.701-120-120
		V409.7L204.9,932.301C181.5,955.801,150.8,967.5,120.1,967.5z"/>
</g>
<g>
</g>
<g>
</g>
<g>
</g>
<g>
</g>
<g>
</g>
<g>
</g>
<g>
</g>
<g>
</g>
<g>
</g>
<g>
</g>
<g>
</g>
<g>
</g>
<g>
</g>
<g>
</g>
<g>
</g>
</svg>
