<?xml version="1.0" encoding="UTF-8" standalone="no"?>
<svg
   xmlns:dc="http://purl.org/dc/elements/1.1/"
   xmlns:cc="http://creativecommons.org/ns#"
   xmlns:rdf="http://www.w3.org/1999/02/22-rdf-syntax-ns#"
   xmlns:svg="http://www.w3.org/2000/svg"
   xmlns="http://www.w3.org/2000/svg"
   xmlns:sodipodi="http://sodipodi.sourceforge.net/DTD/sodipodi-0.dtd"
   xmlns:inkscape="http://www.inkscape.org/namespaces/inkscape"
   version="1.1"
   width="512"
   height="512"
   x="0"
   y="0"
   viewBox="0 0 967.5 967.5"
   style="enable-background:new 0 0 512 512"
   xml:space="preserve"
   class=""
   id="svg8986"
   sodipodi:docname="mapam96.svg"
   inkscape:version="0.92.3 (2405546, 2018-03-11)"><metadata
     id="metadata8992"><rdf:RDF><cc:Work
         rdf:about=""><dc:format>image/svg+xml</dc:format><dc:type
           rdf:resource="http://purl.org/dc/dcmitype/StillImage" /><dc:title></dc:title></cc:Work></rdf:RDF></metadata><defs
     id="defs8990" /><sodipodi:namedview
     pagecolor="#ffffff"
     bordercolor="#666666"
     borderopacity="1"
     objecttolerance="10"
     gridtolerance="10"
     guidetolerance="10"
     inkscape:pageopacity="0"
     inkscape:pageshadow="2"
     inkscape:window-width="812"
     inkscape:window-height="480"
     id="namedview8988"
     showgrid="false"
     inkscape:zoom="0.4609375"
     inkscape:cx="256"
     inkscape:cy="256"
     inkscape:window-x="0"
     inkscape:window-y="0"
     inkscape:window-maximized="0"
     inkscape:current-layer="svg8986" /><g
     transform="matrix(-1,0,0,1,967.4999847412109,0)"
     id="g8984">
<g
   id="g8952">
	<path
   d="M120.1,967.5c-30.7,0-61.4-11.699-84.9-35.1c-46.8-46.9-46.8-122.9,0-169.801L557.801,240H327.1c-66.3,0-120-53.7-120-120   c0-66.3,53.7-120,120-120h520.401c0.1,0,0.2,0,0.2,0c19.8,0,39.5,5,56.899,14.4c0,0,0.101,0,0.101,0.1   c21.6,11.8,39.199,30.1,50.199,52.1c8.301,16.5,12.5,35,12.5,53.4v520.4c0,66.299-53.699,120-120,120c-66.3,0-120-53.701-120-120   V409.7L204.9,932.301C181.5,955.801,150.8,967.5,120.1,967.5z"
   fill="#ff0000"
   data-original="#000000"
   style="fill:#ffff00;fill-opacity:1"
   class=""
   id="path8950" />
</g>
<g
   id="g8954">
</g>
<g
   id="g8956">
</g>
<g
   id="g8958">
</g>
<g
   id="g8960">
</g>
<g
   id="g8962">
</g>
<g
   id="g8964">
</g>
<g
   id="g8966">
</g>
<g
   id="g8968">
</g>
<g
   id="g8970">
</g>
<g
   id="g8972">
</g>
<g
   id="g8974">
</g>
<g
   id="g8976">
</g>
<g
   id="g8978">
</g>
<g
   id="g8980">
</g>
<g
   id="g8982">
</g>
</g></svg>