<?xml version="1.0"?>
<svg xmlns="http://www.w3.org/2000/svg" xmlns:xlink="http://www.w3.org/1999/xlink" xmlns:svgjs="http://svgjs.com/svgjs" version="1.1" width="512" height="512" x="0" y="0" viewBox="0 0 512 512" style="enable-background:new 0 0 512 512" xml:space="preserve" class=""><g><path d="m414.898438 450.207031 15.6875 27.453125c4.058593 7.105469 4.03125 15.832032-.078126 22.90625-4.105468 7.078125-11.667968 11.433594-19.847656 11.433594h-.097656c-8.234375 0-15.839844-4.414062-19.925781-11.5625l-28.707031-50.230469 26.484374-17.65625zm0 0" fill="#2e081b" data-original="#af8066" class=""/><path d="m97.101562 450.207031-15.6875 27.453125c-4.058593 7.105469-4.03125 15.832032.078126 22.90625 4.105468 7.078125 11.667968 11.433594 19.847656 11.433594h.097656c8.234375 0 15.839844-4.414062 19.925781-11.5625l28.707031-50.230469-26.484374-17.65625zm0 0" fill="#2e081b" data-original="#af8066" class=""/><path d="m256 0c14.625 0 26.484375 11.855469 26.484375 26.484375v35.308594h-52.96875v-35.308594c0-14.628906 11.859375-26.484375 26.484375-26.484375zm0 0" fill="#2e081b" data-original="#af8066" class=""/><path d="m335.449219 450.207031h141.242187c9.363282.003907 18.347656-3.71875 24.96875-10.339843 6.625-6.621094 10.34375-15.605469 10.339844-24.96875v-335.449219c.003906-9.367188-3.714844-18.347657-10.339844-24.972657-6.621094-6.621093-15.605468-10.339843-24.96875-10.339843h-441.382812c-9.363282 0-18.347656 3.71875-24.96875 10.339843-6.625 6.625-10.34375025 15.605469-10.339844 24.972657v335.449219c-.00390625 9.363281 3.714844 18.347656 10.339844 24.96875 6.621094 6.621093 15.605468 10.34375 24.96875 10.339843h141.242187" fill="#95a5a5" data-original="#95a5a5" class=""/><path d="m335.449219 414.898438h132.414062c4.867188-.015626 8.8125-3.960938 8.828125-8.828126v-317.792968c-.015625-4.871094-3.960937-8.816406-8.828125-8.828125h-423.726562c-4.867188.011719-8.8125 3.957031-8.828125 8.828125v317.792968c.015625 4.867188 3.960937 8.8125 8.828125 8.828126zm0 0" fill="#ffffff" data-original="#ffffff" class=""/><path d="m335.449219 300.136719v203.035156c0 4.875-3.953125 8.828125-8.828125 8.828125h-141.242188c-4.875 0-8.828125-3.953125-8.828125-8.828125v-203.035156zm0 0" fill="#e64c3c" data-original="#e64c3c" class=""/><path d="m335.449219 300.136719c0 14.628906-11.859375 26.484375-26.484375 26.484375s-26.480469-11.855469-26.480469-26.484375c0 14.628906-11.859375 26.484375-26.484375 26.484375s-26.484375-11.855469-26.484375-26.484375c0 14.628906-11.855469 26.484375-26.480469 26.484375s-26.484375-11.855469-26.484375-26.484375l9.621094-26.480469 32.222656-89.070312 2.296875.792968 35.308594-17.65625 35.308594 17.65625 2.296875-.792968 32.222656 89.070312zm0 0" fill="#fdd7ad" data-original="#fdd7ad" class=""/><path d="m229.515625 379.585938c-4.875 0-8.824219-3.953126-8.824219-8.828126v-8.828124c0-4.875 3.949219-8.828126 8.824219-8.828126 4.878906 0 8.828125 3.953126 8.828125 8.828126v8.828124c0 4.875-3.949219 8.828126-8.828125 8.828126zm0 0" fill="#c03a2b" data-original="#c03a2b" class=""/><path d="m238.34375 406.070312v105.929688h-17.652344v-105.929688c0-4.875 3.949219-8.828124 8.824219-8.828124 4.878906 0 8.828125 3.953124 8.828125 8.828124zm0 0" fill="#c03a2b" data-original="#c03a2b" class=""/><path d="m282.484375 379.585938c-4.878906 0-8.828125-3.953126-8.828125-8.828126v-8.828124c0-4.875 3.949219-8.828126 8.828125-8.828126 4.875 0 8.824219 3.953126 8.824219 8.828126v8.828124c0 4.875-3.949219 8.828126-8.824219 8.828126zm0 0" fill="#c03a2b" data-original="#c03a2b" class=""/><path d="m291.308594 406.070312v105.929688h-17.652344v-105.929688c0-4.875 3.949219-8.828124 8.828125-8.828124 4.875 0 8.824219 3.953124 8.824219 8.828124zm0 0" fill="#c03a2b" data-original="#c03a2b" class=""/><path d="m105.929688 203.035156c-3.097657 0-5.972657-1.628906-7.566407-4.285156l-23.914062-39.851562h-12.65625c-4.875 0-8.828125-3.953126-8.828125-8.828126s3.953125-8.828124 8.828125-8.828124h17.65625c3.097656 0 5.972656 1.625 7.566406 4.285156l16.609375 27.679687 20.414062-61.242187c1.203126-3.601563 4.574219-6.035156 8.375-6.035156h61.792969c4.875 0 8.828125 3.953124 8.828125 8.828124s-3.953125 8.828126-8.828125 8.828126h-55.429687l-24.472656 73.414062c-1.089844 3.269531-3.984376 5.609375-7.414063 5.980469-.320313.035156-.640625.054687-.960937.054687zm0 0" fill="#ff005d" data-original="#f29c1f" class=""/><path d="m167.722656 203.035156c-14.617187-.015625-26.464844-11.863281-26.480468-26.484375v-17.652343c0-14.628907 11.855468-26.484376 26.480468-26.484376 14.628906 0 26.484375 11.855469 26.484375 26.484376v17.652343c-.015625 14.621094-11.863281 26.46875-26.484375 26.484375zm0-52.964844c-4.871094.003907-8.820312 3.953126-8.824218 8.828126v17.652343c0 4.875 3.949218 8.828125 8.824218 8.828125s8.828125-3.953125 8.828125-8.828125v-17.652343c-.003906-4.875-3.953125-8.824219-8.828125-8.828126zm0 0" fill="#ff005d" data-original="#f29c1f" class=""/><path d="m105.929688 282.484375h-17.652344c-4.875 0-8.828125-3.953125-8.828125-8.828125s3.953125-8.828125 8.828125-8.828125v-17.65625c-3.570313 0-6.789063-2.152344-8.15625-5.449219-1.363282-3.296875-.609375-7.09375 1.914062-9.617187l8.828125-8.828125c2.523438-2.523438 6.320313-3.28125 9.617188-1.914063 3.300781 1.367188 5.449219 4.585938 5.449219 8.152344v35.3125c4.875 0 8.828124 3.953125 8.828124 8.828125s-3.953124 8.828125-8.828124 8.828125zm0 0" fill="#894b9d" data-original="#894b9d" class=""/><path d="m123.585938 317.792969h-52.964844c-4.875 0-8.828125-3.953125-8.828125-8.828125s3.953125-8.828125 8.828125-8.828125h52.964844c4.875 0 8.828124 3.953125 8.828124 8.828125s-3.953124 8.828125-8.828124 8.828125zm0 0" fill="#894b9d" data-original="#894b9d" class=""/><path d="m114.757812 388.414062h-35.308593c-3.179688 0-6.117188-1.710937-7.683594-4.480468-1.566406-2.765625-1.523437-6.164063.113281-8.890625l26.484375-44.136719c1.609375-2.730469 4.558594-4.386719 7.730469-4.339844 3.167969.046875 6.066406 1.789063 7.597656 4.5625 1.53125 2.773438 1.457032 6.15625-.191406 8.863282l-18.460938 30.765624h19.71875c4.875 0 8.828126 3.953126 8.828126 8.828126s-3.953126 8.828124-8.828126 8.828124zm0 0" fill="#894b9d" data-original="#894b9d" class=""/><path d="m105.929688 397.242188c-4.875 0-8.828126-3.953126-8.828126-8.828126v-8.828124c0-4.875 3.953126-8.828126 8.828126-8.828126s8.828124 3.953126 8.828124 8.828126v8.828124c0 4.875-3.953124 8.828126-8.828124 8.828126zm0 0" fill="#894b9d" data-original="#894b9d" class=""/><g fill="#4482c3"><path d="m365.585938 158.898438c-4.875 0-8.828126-3.953126-8.828126-8.828126s3.953126-8.828124 8.828126-8.828124c3.570312 0 6.789062-2.148438 8.15625-5.449219 1.367187-3.296875.613281-7.09375-1.910157-9.621094-3.492187-3.332031-8.988281-3.332031-12.484375 0-2.214844 2.289063-5.492187 3.207031-8.574218 2.398437-3.082032-.808593-5.492188-3.210937-6.300782-6.292968-.8125-3.082032.101563-6.359375 2.386719-8.578125 10.476563-10.011719 26.972656-10.011719 37.453125-.003907 7.570312 7.574219 9.835938 18.960938 5.734375 28.855469-4.097656 9.894531-13.75 16.34375-24.460937 16.347657zm0 0" fill="#009ffc" data-original="#4482c3" class=""/><path d="m365.585938 194.207031c-7.027344.019531-13.773438-2.777343-18.726563-7.761719-2.285156-2.222656-3.199219-5.5-2.386719-8.582031.808594-3.078125 3.21875-5.484375 6.300782-6.292969 3.082031-.804687 6.359374.109376 8.574218 2.398438 3.496094 3.332031 8.992188 3.332031 12.484375 0 2.527344-2.523438 3.285157-6.324219 1.917969-9.625s-4.589844-5.449219-8.164062-5.445312c-4.875 0-8.828126-3.953126-8.828126-8.828126s3.953126-8.828124 8.828126-8.828124c14.625 0 26.484374 11.855468 26.484374 26.480468 0 14.628906-11.859374 26.484375-26.484374 26.484375zm0 0" fill="#009ffc" data-original="#4482c3" class=""/><path d="m427.378906 282.484375c-4.875 0-8.828125-3.953125-8.828125-8.828125s3.953125-8.828125 8.828125-8.828125c3.570313 0 6.789063-2.148437 8.15625-5.445313 1.367188-3.300781.609375-7.097656-1.914062-9.621093-3.488282-3.339844-8.992188-3.34375-12.484375-.003907-3.460938 3.359376-8.976563 3.316407-12.386719-.09375-3.410156-3.410156-3.453125-8.925781-.09375-12.386718 10.480469-10.007813 26.976562-10.003906 37.457031.007812 7.566407 7.574219 9.824219 18.960938 5.726563 28.855469-4.101563 9.890625-13.753906 16.339844-24.460938 16.34375zm0 0" fill="#009ffc" data-original="#4482c3" class=""/><path d="m427.378906 317.792969c-7.027344.019531-13.769531-2.773438-18.722656-7.757813-3.359375-3.460937-3.316406-8.980468.09375-12.390625 3.410156-3.410156 8.925781-3.449219 12.386719-.09375 3.488281 3.335938 8.980469 3.339844 12.476562.007813 2.527344-2.519532 3.289063-6.320313 1.921875-9.621094-1.363281-3.300781-4.582031-5.453125-8.15625-5.453125-4.875 0-8.828125-3.953125-8.828125-8.828125s3.953125-8.828125 8.828125-8.828125c14.625 0 26.484375 11.855469 26.484375 26.480469 0 14.628906-11.859375 26.484375-26.484375 26.484375zm0 0" fill="#009ffc" data-original="#4482c3" class=""/><path d="m361.929688 256c-3.570313 0-6.785157-2.152344-8.152344-5.449219-1.367188-3.296875-.609375-7.09375 1.914062-9.621093l79.445313-79.445313c3.464843-3.347656 8.972656-3.300781 12.375.105469 3.40625 3.40625 3.453125 8.910156.109375 12.375l-79.449219 79.449218c-1.652344 1.65625-3.898437 2.589844-6.242187 2.585938zm0 0" fill="#009ffc" data-original="#4482c3" class=""/></g><path d="m379.585938 353.101562h-8.828126c-4.875 0-8.828124-3.949218-8.828124-8.824218s3.953124-8.828125 8.828124-8.828125h8.828126c4.875 0 8.828124 3.953125 8.828124 8.828125s-3.953124 8.824218-8.828124 8.824218zm0 0" fill="#66bc6a" data-original="#71c285" class=""/><path d="m441.378906 353.101562h-35.308594c-4.875 0-8.828124-3.949218-8.828124-8.824218s3.953124-8.828125 8.828124-8.828125h35.308594c4.875 0 8.828125 3.953125 8.828125 8.828125s-3.953125 8.824218-8.828125 8.824218zm0 0" fill="#66bc6a" data-original="#71c285" class=""/><path d="m441.378906 388.414062h-70.621094c-4.875 0-8.828124-3.953124-8.828124-8.828124s3.953124-8.828126 8.828124-8.828126h70.621094c4.875 0 8.828125 3.953126 8.828125 8.828126s-3.953125 8.828124-8.828125 8.828124zm0 0" fill="#66bc6a" data-original="#71c285" class=""/><path d="m293.605469 184.585938-2.296875.792968h-70.617188l-2.296875-.792968 21.007813-58.175782c2.527344-6.992187 9.164062-11.652344 16.597656-11.652344s14.070312 4.660157 16.597656 11.652344zm0 0" fill="#2c2f38" data-original="#2c2f38" class=""/></g></svg>
