<svg xmlns="http://www.w3.org/2000/svg" preserveAspectRatio="xMinYMid" viewbox="0 0 60 60"><defs><style>.cls-1{fill:#a25ac4;}.cls-2{fill:#fff;}</style></defs><title>estilos iconos paraeducaand_adultos</title><g id="elements"><rect class="cls-1" width="60" height="60" rx="8.13"/><path class="cls-2" d="M45.06,43.26h-.44V43a2.82,2.82,0,0,0-2.82-2.82h-.23A2.82,2.82,0,0,0,38.75,43v.29h-.21V31.43a3.73,3.73,0,0,0-1.71-3.14v-.9A2.76,2.76,0,0,0,36.47,26,2.53,2.53,0,0,0,38,23.69V16.52a2.82,2.82,0,0,0-.58-1.7L33.57,9.76A3.31,3.31,0,0,0,31,8.47H18.75V8.21A.76.76,0,0,0,18,7.45H13.68V9h3.56V17.1H13.68v1.51H18a.76.76,0,0,0,.76-.75v-.77h.75a7,7,0,0,0,5.75,4.05l3.91,4.51a2.8,2.8,0,0,0,1.9,1h0a2.67,2.67,0,0,0-.11.75v.9a3.73,3.73,0,0,0-1.71,3.14v4H29v-.29a2.82,2.82,0,0,0-2.82-2.82H26a2.82,2.82,0,0,0-2.82,2.82v.29h-.44a1.26,1.26,0,0,0-1.27,1.26v6.53h-.21V43a2.82,2.82,0,0,0-2.82-2.82H18.2A2.82,2.82,0,0,0,15.38,43v.29h-.44a1.26,1.26,0,0,0-1.27,1.26v6.76a1.27,1.27,0,0,0,1.27,1.27H45.06a1.27,1.27,0,0,0,1.27-1.27V44.52A1.26,1.26,0,0,0,45.06,43.26ZM40.25,43a1.32,1.32,0,0,1,1.32-1.32h.23A1.32,1.32,0,0,1,43.12,43v.29H40.25ZM18.75,10H31a1.79,1.79,0,0,1,1.41.7l3.89,5.06a1.28,1.28,0,0,1,.26.78v7.17a1,1,0,1,1-2,0V17.86a.78.78,0,0,0-.17-.48l-2-2.53a.72.72,0,0,0-.59-.29H30.18a1.78,1.78,0,0,0-1.78,1.77v2a.74.74,0,0,0,.19.5L32.27,23a1.28,1.28,0,0,1-.15,1.8,1.35,1.35,0,0,1-.93.29,1.25,1.25,0,0,1-.87-.46L26.18,19.9a.73.73,0,0,0-.57-.26,5.38,5.38,0,0,1-4.87-3.55.74.74,0,0,0-.72-.51H18.75Zm11.17,6.35a.25.25,0,0,1,.26-.25h1.15l1.64,2v3.42l-3-3.46Zm2.54,11.35v-.29a1.32,1.32,0,0,1,1.32-1.32H34a1.32,1.32,0,0,1,1.32,1.32v.29H32.46Zm-1.71,3.75A2.25,2.25,0,0,1,33,29.18h1.79A2.25,2.25,0,0,1,37,31.43v4h-.21v-.29A2.82,2.82,0,0,0,34,32.36h-.23A2.82,2.82,0,0,0,31,35.18v.29h-.21Zm4.58,4H32.46v-.29a1.32,1.32,0,0,1,1.32-1.32H34a1.32,1.32,0,0,1,1.32,1.32Zm-10.66-.29A1.32,1.32,0,0,1,26,33.86h.23a1.32,1.32,0,0,1,1.32,1.32v.29H24.67ZM23,37H37v6.29h-.21V43A2.82,2.82,0,0,0,34,40.15h-.23A2.82,2.82,0,0,0,31,43v.29H29V43a2.82,2.82,0,0,0-2.82-2.82H26A2.82,2.82,0,0,0,23.17,43v.29H23Zm12.37,6.29H32.46V43a1.32,1.32,0,0,1,1.32-1.32H34A1.32,1.32,0,0,1,35.33,43Zm-7.79,0H24.67V43A1.32,1.32,0,0,1,26,41.65h.23A1.32,1.32,0,0,1,27.54,43ZM16.88,43a1.32,1.32,0,0,1,1.32-1.32h.23A1.32,1.32,0,0,1,19.75,43v.29H16.88Zm-1.71,1.79H29.25v6.29H15.17Zm29.66,6.29H30.75V44.76H44.83Z"/></g></svg>