<svg xmlns="http://www.w3.org/2000/svg" preserveAspectRatio="xMinYMid" viewbox="0 0 60 60"><defs><style>.cls-1{fill:#0065ab;}.cls-2{fill:#fff;}</style></defs><title>estilos iconos paraeducaand_adultos</title><g id="elements"><circle class="cls-1" cx="30" cy="30" r="30"/><path class="cls-2" d="M46.47,45.46h0a6.27,6.27,0,0,1-2.57-.59,15.67,15.67,0,0,1-5-4.21,18.8,18.8,0,0,0-3.23-3.1,10,10,0,0,0-11.32,0,18.8,18.8,0,0,0-3.23,3.1,15.52,15.52,0,0,1-5,4.2,6.13,6.13,0,0,1-2.57.6,5.14,5.14,0,0,1-3.79-1.68,7.86,7.86,0,0,1-1.93-3.91c-.71-3.59,0-7.16.75-10.62.07-.38.16-.77.23-1.15A25.28,25.28,0,0,1,10.86,22a17.26,17.26,0,0,1,3.85-5.24,8.75,8.75,0,0,1,6.07-2.23,15.94,15.94,0,0,1,5.23,1c.51.18,1,.4,1.49.62A7.73,7.73,0,0,0,30,17a7.73,7.73,0,0,0,2.5-.83c.48-.22,1-.44,1.49-.62a15.94,15.94,0,0,1,5.23-1,8.75,8.75,0,0,1,6.07,2.23A17.26,17.26,0,0,1,49.14,22a25.28,25.28,0,0,1,2.07,6.09c.07.38.16.77.23,1.15.72,3.46,1.46,7,.75,10.62a7.81,7.81,0,0,1-1.93,3.91A5.14,5.14,0,0,1,46.47,45.46ZM30,34a11.67,11.67,0,0,1,6.66,2.08,20.73,20.73,0,0,1,3.56,3.37,14.06,14.06,0,0,0,4.41,3.78,4.47,4.47,0,0,0,1.84.43c1.91,0,3.47-1.63,4-4.16.65-3.24,0-6.63-.73-9.91-.08-.38-.17-.77-.24-1.16-.86-4.23-2.86-8.11-5.37-10.37a7.06,7.06,0,0,0-4.88-1.77,14,14,0,0,0-4.64.9c-.44.15-.88.35-1.35.56a9,9,0,0,1-3.18,1H30a9,9,0,0,1-3.18-1c-.47-.21-.91-.41-1.35-.56a14,14,0,0,0-4.64-.9,7.06,7.06,0,0,0-4.88,1.77c-2.51,2.26-4.51,6.14-5.37,10.37-.07.39-.16.78-.24,1.16-.68,3.28-1.38,6.67-.73,9.91.5,2.53,2.06,4.16,4,4.16a4.47,4.47,0,0,0,1.84-.43,14.06,14.06,0,0,0,4.41-3.78,21,21,0,0,1,3.55-3.37A11.72,11.72,0,0,1,30,34Z"/><path class="cls-2" d="M22.35,25.48H20V23.05c0-.84-2.36-.84-2.36,0v2.43H15.15c-.81,0-.81,2.39,0,2.39H17.6v2.35c0,.84,2.36.84,2.36,0V27.87h2.39C23.15,27.87,23.15,25.48,22.35,25.48Z"/><path class="cls-2" d="M43.19,25.69a1.31,1.31,0,0,1,1.86,1.85,1.31,1.31,0,1,1-1.86-1.85Z"/><path class="cls-2" d="M36.9,25.69a1.31,1.31,0,1,1,1.85,1.85,1.31,1.31,0,0,1-1.85-1.85Z"/><path class="cls-2" d="M41.9,28.84a1.31,1.31,0,1,1-1.86,0A1.31,1.31,0,0,1,41.9,28.84Z"/><path class="cls-2" d="M41.9,22.54a1.32,1.32,0,1,1-1.86,0A1.32,1.32,0,0,1,41.9,22.54Z"/></g></svg>