<svg xmlns="http://www.w3.org/2000/svg" preserveAspectRatio="xMinYMid" viewbox="0 0 60 60"><defs><style>.cls-1{fill:#a25ac4;}.cls-2{fill:#fff;stroke:#a25ac4;stroke-miterlimit:10;stroke-width:0.5px;}</style></defs><title>estilos iconos paraeducaand_adultos</title><g id="elements"><rect class="cls-1" width="60" height="60" rx="8.13"/><path class="cls-2" d="M51.62,12.34a1.4,1.4,0,0,0-1.44-1.21L34.31,12.55V10.13a3.53,3.53,0,0,0-7,0v3l-.83.08h0l-13.2-2.47a1.38,1.38,0,0,0-1,.21,1.33,1.33,0,0,0-.55.86L5.35,45.5a1.3,1.3,0,0,0,.21,1,1.35,1.35,0,0,0,.85.56L17.86,49.2l0,.54A1.38,1.38,0,0,0,19.3,51h.06l5.28-.47h0l15.4,2.88a1.28,1.28,0,0,0,1-.21,1.33,1.33,0,0,0,.55-.85l.64-3.4h.1l11.08-1a1.34,1.34,0,0,0,1.22-1.45Zm-21.7-2.21a.86.86,0,1,1,1.72,0v2.66L29.92,13ZM8.21,44.68l0-.13L14,13.65l4.87.4-3.11.19a1.28,1.28,0,0,0-.63.42h0a1.27,1.27,0,0,0-.3,1l2.75,30.82Zm31,5.82-.13,0-4.68-.88,5.07-.45Zm12.51-5.12L20.44,48.17V48l-2.8-31.32h.14l13.87-1.24v7a1.59,1.59,0,0,1-3.18,0V18.71a1.34,1.34,0,1,0-2.67,0v3.77a4.26,4.26,0,0,0,8.52,0V15.23h.12l14.65-1.31v.14l2.8,31.31Zm2.37,1.12Z"/></g></svg>