<svg xmlns="http://www.w3.org/2000/svg" preserveAspectRatio="xMinYMid" viewbox="0 0 60 60"><defs><style>.cls-1{fill:#499113;}.cls-2{fill:#fff;}</style></defs><title>estilos iconos paraeducaand_adultos</title><g id="back"><path class="cls-1" d="M58.08,25.37,34.63,1.92a6.55,6.55,0,0,0-9.26,0L1.92,25.37a6.54,6.54,0,0,0,0,9.26L25.37,58.08a6.54,6.54,0,0,0,9.26,0L58.08,34.63a6.54,6.54,0,0,0,0-9.26Z"/></g><g id="elements"><path class="cls-2" d="M42,44.28H18a3.84,3.84,0,0,1-3.83-3.83V24.29A3.84,3.84,0,0,1,18,20.46H42a3.84,3.84,0,0,1,3.83,3.83V40.45A3.84,3.84,0,0,1,42,44.28ZM18,21.31a3,3,0,0,0-3,3V40.45a3,3,0,0,0,3,3H42a3,3,0,0,0,3-3V24.29a3,3,0,0,0-3-3Z"/><path class="cls-2" d="M21.07,33.27a4.1,4.1,0,1,1,4.09-4.1A4.11,4.11,0,0,1,21.07,33.27Zm0-7.34a3.25,3.25,0,1,0,3.24,3.24A3.25,3.25,0,0,0,21.07,25.93Z"/><path class="cls-2" d="M40,42.35a4.1,4.1,0,1,1,4.09-4.09A4.1,4.1,0,0,1,40,42.35ZM40,35a3.25,3.25,0,1,0,3.24,3.25A3.26,3.26,0,0,0,40,35Z"/><path class="cls-2" d="M28.12,39.48l-2.67-4.06,8.74-5.73,2.67,4.07Zm-1.49-3.82,1.73,2.65,7.32-4.8L34,30.87Z"/><path class="cls-2" d="M41.79,44.28H38.26V41.05l.58.22a3.23,3.23,0,0,0,2.37,0l.58-.22Zm-2.68-.85h1.83V42.25a4.19,4.19,0,0,1-1.83,0Z"/><path class="cls-2" d="M41.79,35.47l-.58-.23a3.23,3.23,0,0,0-2.37,0l-.58.23v-15h3.53ZM39.11,21.31v13a4,4,0,0,1,1.83,0v-13Z"/><path class="cls-2" d="M22.83,26.38l-.58-.23a3.31,3.31,0,0,0-2.36,0l-.58.23V20.46h3.52Zm-1.76-1.3a4,4,0,0,1,.91.1V21.31H20.16v3.87A4,4,0,0,1,21.07,25.08Z"/><path class="cls-2" d="M22.83,44.28H19.31V32l.58.23a3.21,3.21,0,0,0,2.36,0l.58-.23Zm-2.67-.85H22V33.16a4,4,0,0,1-1.82,0Z"/><path class="cls-2" d="M37.05,21.31h-3V19a.23.23,0,0,0-.23-.23H27.28A.23.23,0,0,0,27,19v2.35H24V19a3.24,3.24,0,0,1,3.24-3.24h6.54A3.24,3.24,0,0,1,37.05,19Zm-2.15-.85h1.3V19a2.39,2.39,0,0,0-2.38-2.39H27.28A2.39,2.39,0,0,0,24.89,19v1.5h1.3V19a1.09,1.09,0,0,1,1.09-1.09h6.54A1.09,1.09,0,0,1,34.9,19Z"/></g></svg>