<svg xmlns="http://www.w3.org/2000/svg" preserveAspectRatio="xMinYMid" viewbox="0 0 60 60"><defs><style>.cls-1{fill:#0065ab;}.cls-2{fill:#fff;}</style></defs><title>estilos iconos paraeducaand_adultos</title><g id="elements"><circle class="cls-1" cx="30" cy="30" r="30"/><path class="cls-2" d="M40.69,10.7H14a2.55,2.55,0,0,0-2.55,2.55V41.08A2.55,2.55,0,0,0,14,43.63h26.7a2.55,2.55,0,0,0,2.55-2.55V13.25A2.55,2.55,0,0,0,40.69,10.7Zm1,30.38a1,1,0,0,1-1,1H14a1,1,0,0,1-1-1V13.25a1,1,0,0,1,1-1h26.7a1,1,0,0,1,1,1Z"/><path class="cls-2" d="M35.66,29.39H30.22a1,1,0,0,0-1,1V36a1,1,0,0,0,1,1h5.44a1,1,0,0,0,1-1V30.37A1,1,0,0,0,35.66,29.39Zm-.26,1.24v5.15H30.48V30.63Z"/><path class="cls-2" d="M24.83,29.39H19.39a1,1,0,0,0-1,1V36a1,1,0,0,0,1,1h5.44a1,1,0,0,0,1-1V30.37A1,1,0,0,0,24.83,29.39Zm-.26,1.24v5.15H19.65V30.63Z"/><path class="cls-2" d="M35.87,18.54H19.09a.78.78,0,1,0,0,1.56H35.87a.78.78,0,0,0,0-1.56Z"/><path class="cls-2" d="M35.87,24.18H19.09a.79.79,0,0,0-.78.79.78.78,0,0,0,.78.78H35.87a.78.78,0,0,0,.78-.78A.79.79,0,0,0,35.87,24.18Z"/><path class="cls-2" d="M43.39,15.13h.16a1.1,1.1,0,0,1,1.1,1.1V44.06a1.1,1.1,0,0,1-1.1,1.1H16.85a1.1,1.1,0,0,1-1.1-1.1v-.17h0v-.23H14.41v.23h0v.17a2.44,2.44,0,0,0,2.43,2.44h26.7A2.45,2.45,0,0,0,46,44.06V16.23a2.44,2.44,0,0,0-2.44-2.43h-.16"/><path class="cls-2" d="M46,17.94h.16a1.1,1.1,0,0,1,1.1,1.1V46.87a1.1,1.1,0,0,1-1.1,1.1H19.43a1.11,1.11,0,0,1-1.11-1.1V46.7h0v-.23H17v.23h0v.17a2.43,2.43,0,0,0,2.44,2.43h26.7a2.43,2.43,0,0,0,2.43-2.43V19a2.44,2.44,0,0,0-2.43-2.44H46"/></g></svg>