<svg xmlns="http://www.w3.org/2000/svg" preserveAspectRatio="xMinYMid" viewbox="0 0 60 60"><defs><style>.cls-1{fill:#0065ab;}.cls-2{fill:#fff;}</style></defs><title>estilos iconos paraeducaand_adultos</title><g id="elements"><circle class="cls-1" cx="30" cy="30" r="30"/><path class="cls-2" d="M45.58,32.28a3.31,3.31,0,0,0-4.89-2.92l-.32.17,0-.36a3.35,3.35,0,0,0-3.31-3,3.29,3.29,0,0,0-1.57.39l-.32.18,0-.37a3.31,3.31,0,0,0-4.86-2.62l-.36.19v-9.1a3.32,3.32,0,0,0-6.64,0V31.57l-.44-.63c-2.54-3.67-4.84-4.06-5.71-4.06a2.64,2.64,0,0,0-2.37,1.27,2.53,2.53,0,0,0,.09,2.57c1.24,2.11,2,3.91,2.85,8.45a16.51,16.51,0,0,0,3.73,8.2,9.09,9.09,0,0,1,2,3.32,2.44,2.44,0,0,0,2.33,1.75H40a2.43,2.43,0,0,0,2.41-2.06,9.34,9.34,0,0,1,1-3.15c2.26-4,2.22-11.2,2.2-14.29ZM42.16,46.53A11.23,11.23,0,0,0,41,50.16,1,1,0,0,1,40,51H25.73a1,1,0,0,1-1-.74,10.41,10.41,0,0,0-2.35-3.9A15.39,15.39,0,0,1,19,38.91c-.89-4.72-1.72-6.7-3-8.91a1.12,1.12,0,0,1-.08-1.15,1.25,1.25,0,0,1,1.15-.56c1.51,0,3.93,1.66,6.22,6.33a.71.71,0,0,0,.79.37.69.69,0,0,0,.55-.68V14.83a1.91,1.91,0,0,1,3.82,0V26.67a.71.71,0,0,0,.71.71.7.7,0,0,0,.7-.71,1.92,1.92,0,0,1,3.83,0v2.81a.7.7,0,0,0,.7.7.7.7,0,0,0,.71-.7,1.91,1.91,0,1,1,3.82,0v2.8a.71.71,0,1,0,1.41,0,1.92,1.92,0,0,1,3.83,0V33C44.19,35.93,44.23,42.9,42.16,46.53Z"/><path class="cls-2" d="M22.17,19.57a6.21,6.21,0,1,1,8.78,0,.72.72,0,0,0,0,1,.74.74,0,0,0,1,0,7.62,7.62,0,0,0-5.39-13h0a7.62,7.62,0,0,0-5.39,13,.71.71,0,0,0,1-1Z"/></g></svg>