<svg id="back" xmlns="http://www.w3.org/2000/svg" preserveAspectRatio="xMinYMid" viewbox="0 0 60 60"><defs><style>.cls-1{fill:#a25ac4;}.cls-2{fill:#fff;}</style></defs><title>estilos iconos paraeducaand_adultos</title><rect class="cls-1" width="60" height="60" rx="8.13"/><path class="cls-2" d="M47.82,41.75c-.06,0-5.83-3.42-5.83-15.67a12,12,0,0,0-8.86-11.57V12a3.13,3.13,0,0,0-6.26,0v2.49A12,12,0,0,0,18,26.08c0,6.37-1.59,10.3-2.93,12.47a9.52,9.52,0,0,1-2.9,3.2.81.81,0,0,0-.4.7,2.74,2.74,0,0,0,2.74,2.74h8.81a6.72,6.72,0,0,0,13.34,0h8.81a2.74,2.74,0,0,0,2.74-2.74A.81.81,0,0,0,47.82,41.75ZM28.46,12a1.54,1.54,0,1,1,3.08,0v2H28.46ZM30,49.52a5.13,5.13,0,0,1-5.06-4.33H35.06A5.13,5.13,0,0,1,30,49.52ZM45.48,43.6h-31a1.16,1.16,0,0,1-1.09-.77,12.39,12.39,0,0,0,2.94-3.32c1.48-2.36,3.24-6.6,3.24-13.43a10.39,10.39,0,1,1,20.78,0c0,6.83,1.76,11.07,3.24,13.43a12.39,12.39,0,0,0,2.94,3.32A1.16,1.16,0,0,1,45.48,43.6Z"/><path class="cls-2" d="M16.66,18.21a15.44,15.44,0,0,0-2.15,7.87.79.79,0,0,0,.8.79.79.79,0,0,0,.79-.79,14,14,0,0,1,7-12,.8.8,0,0,0,.29-1.09.79.79,0,0,0-1.08-.29A15.55,15.55,0,0,0,16.66,18.21Z"/><path class="cls-2" d="M36.92,14a14,14,0,0,1,7,12,.79.79,0,0,0,.79.79.79.79,0,0,0,.8-.79,15.48,15.48,0,0,0-7.78-13.43.79.79,0,0,0-1.08.29A.8.8,0,0,0,36.92,14Z"/></svg>