<svg id="back" xmlns="http://www.w3.org/2000/svg" preserveAspectRatio="xMinYMid" viewbox="0 0 60 60"><defs><style>.cls-1{fill:#499113;}.cls-2{fill:#fff;}</style></defs><title>estilos iconos paraeducaand_adultos</title><path class="cls-1" d="M58.08,25.37,34.63,1.92a6.55,6.55,0,0,0-9.26,0L1.92,25.37a6.54,6.54,0,0,0,0,9.26L25.37,58.08a6.54,6.54,0,0,0,9.26,0L58.08,34.63a6.54,6.54,0,0,0,0-9.26Z"/><path class="cls-2" d="M18.47,27.06a1.14,1.14,0,0,0,0,2.28A12.23,12.23,0,0,1,30.69,41.56a1.14,1.14,0,0,0,2.28,0A14.52,14.52,0,0,0,18.47,27.06Z"/><path class="cls-2" d="M18.47,15.11a1.14,1.14,0,0,0,0,2.28A24.19,24.19,0,0,1,42.64,41.56a1.14,1.14,0,0,0,2.28,0A26.49,26.49,0,0,0,18.47,15.11Z"/><path class="cls-2" d="M19.17,39A1.85,1.85,0,1,0,21,40.86,1.85,1.85,0,0,0,19.17,39Z"/></svg>