<svg id="back" xmlns="http://www.w3.org/2000/svg" preserveAspectRatio="xMinYMid" viewbox="0 0 60 60"><defs><style>.cls-1{fill:#a25ac4;}.cls-2{fill:#fff;}</style></defs><title>estilos iconos paraeducaand_adultos</title><rect class="cls-1" width="60" height="60" rx="8.13"/><path class="cls-2" d="M52.61,15.72H51a.92.92,0,1,0,0,1.84h.71V44.14a.64.64,0,0,1-.63.63H34.15l.71-.28A35.68,35.68,0,0,1,47,42.1a1.65,1.65,0,0,0,1.63-1.64V14.6A1.62,1.62,0,0,0,47,13h0a36.25,36.25,0,0,0-16.62,4.33l-.07,0-.07,0A36.25,36.25,0,0,0,13.61,13h0a1.62,1.62,0,0,0-1.16.47A1.65,1.65,0,0,0,12,14.6V40.46a1.65,1.65,0,0,0,1.63,1.64,35.76,35.76,0,0,1,12.16,2.39l.7.28H9.54a.64.64,0,0,1-.63-.63V17.56h.71a.92.92,0,0,0,0-1.84H8a.92.92,0,0,0-.92.92v27.5a2.48,2.48,0,0,0,2.47,2.47H51.06a2.48,2.48,0,0,0,2.47-2.47V16.64A.92.92,0,0,0,52.61,15.72ZM29.38,44.12,29.17,44a36.53,36.53,0,0,0-15.23-3.75H13.8V14.8H14A33.92,33.92,0,0,1,29.3,18.88l.08,0Zm1.84,0V18.92l.08,0a33.92,33.92,0,0,1,15.35-4.07h.15V40.26h-.14A36.53,36.53,0,0,0,31.43,44Z"/></svg>