<svg xmlns="http://www.w3.org/2000/svg" preserveAspectRatio="xMinYMid" viewbox="0 0 60 60"><defs><style>.cls-1{fill:#a25ac4;}.cls-2{fill:#fff;}</style></defs><title>estilos iconos paraeducaand_adultos</title><g id="elements"><rect class="cls-1" width="60" height="60" rx="8.13"/><path class="cls-2" d="M35.79,47.67V47.6a1.75,1.75,0,0,1,.47-1.18l8.19-9.92H37.16A1.13,1.13,0,0,1,36,35.38a1.15,1.15,0,0,1,1.13-1.14h9.56a1.15,1.15,0,0,1,1.14,1.12v.06a1.9,1.9,0,0,1-.45,1.19l-8.22,9.91h7.57a1.16,1.16,0,0,1,1.15,1.15,1.14,1.14,0,0,1-1.15,1.12H36.93A1.16,1.16,0,0,1,35.79,47.67Z"/><path class="cls-2" d="M34.86,23.87l5.41-12a1.61,1.61,0,0,1,1.53-1h.13a1.59,1.59,0,0,1,1.52,1l5.4,12.05a1.08,1.08,0,0,1,.15.54,1.2,1.2,0,0,1-1.21,1.23,1.32,1.32,0,0,1-1.25-.89L45.36,22H38.29l-1.23,2.81a1.22,1.22,0,0,1-1.18.81,1.17,1.17,0,0,1-1.19-1.18A1.4,1.4,0,0,1,34.86,23.87Zm9.52-4.11-2.56-5.89-2.55,5.89Z"/><path class="cls-2" d="M30.82,37.65a1.2,1.2,0,0,0-1.68,0l-6.87,7V12a1.19,1.19,0,0,0-2.38,0V44.69l-6.87-7a1.19,1.19,0,1,0-1.7,1.66l8.91,9.1a1.18,1.18,0,0,0,.85.36h0a1.18,1.18,0,0,0,.85-.36l8.91-9.1A1.19,1.19,0,0,0,30.82,37.65Z"/></g></svg>