<svg xmlns="http://www.w3.org/2000/svg" preserveAspectRatio="xMinYMid" viewbox="0 0 60 60"><defs><style>.cls-1{fill:#499113;}.cls-2{fill:#fff;}</style></defs><title>estilos iconos paraeducaand_adultos</title><g id="elements"><path class="cls-1" d="M58.08,25.37,34.63,1.92a6.55,6.55,0,0,0-9.26,0L1.92,25.37a6.54,6.54,0,0,0,0,9.26L25.37,58.08a6.54,6.54,0,0,0,9.26,0L58.08,34.63a6.54,6.54,0,0,0,0-9.26Z"/><path class="cls-2" d="M31.69,14.07H31l-2.15-2.86s0-.05-.08-.11a1.4,1.4,0,0,1-.12-.18l-.12-.19a.76.76,0,0,1-.08-.15v3.49h-.62V9.67h.7l2.05,2.76a.83.83,0,0,1,.12.17,1.37,1.37,0,0,1,.13.2A1.51,1.51,0,0,1,31,13l.09.15V9.67h.62Z"/><path class="cls-2" d="M31.12,49a1.35,1.35,0,0,1-.09.5,1.2,1.2,0,0,1-.28.41,1.28,1.28,0,0,1-.45.28,1.74,1.74,0,0,1-.63.1l-.34,0L29,50.24l-.29-.1a.84.84,0,0,1-.23-.12v-.68a1.28,1.28,0,0,0,.26.16l.31.13a2.33,2.33,0,0,0,.32.1,1.11,1.11,0,0,0,.29,0,1.18,1.18,0,0,0,.35-.05.68.68,0,0,0,.25-.14.86.86,0,0,0,.15-.22.87.87,0,0,0,.05-.28.52.52,0,0,0-.07-.29.68.68,0,0,0-.17-.21,1.47,1.47,0,0,0-.28-.16l-.37-.15c-.18-.07-.34-.15-.49-.22a1.64,1.64,0,0,1-.36-.25,1,1,0,0,1-.22-.33,1.15,1.15,0,0,1-.08-.44,1.06,1.06,0,0,1,.12-.5,1.14,1.14,0,0,1,.3-.39,1.54,1.54,0,0,1,.46-.24,1.63,1.63,0,0,1,.55-.09,2.49,2.49,0,0,1,.57.06,2.88,2.88,0,0,1,.47.15v.61l-.23-.09-.27-.08a1.5,1.5,0,0,0-.29-.06l-.27,0a1,1,0,0,0-.32,0,.73.73,0,0,0-.23.13.48.48,0,0,0-.15.2.66.66,0,0,0-.05.25.53.53,0,0,0,.06.26.89.89,0,0,0,.19.2,1.88,1.88,0,0,0,.29.16l.37.15a3,3,0,0,1,.47.22,1.66,1.66,0,0,1,.36.26,1.11,1.11,0,0,1,.22.34A1.25,1.25,0,0,1,31.12,49Z"/><path class="cls-2" d="M47.82,32.2h-2.2V27.8h2.19v.57H46.28v1.34h1.54v.56H46.28v1.36h1.54Z"/><path class="cls-2" d="M10.38,30c0-1.42.7-2.24,1.71-2.24s1.7.82,1.7,2.24-.7,2.29-1.7,2.29S10.38,31.44,10.38,30Zm2.71,0c0-1-.4-1.66-1-1.66s-1,.61-1,1.66.4,1.71,1,1.71S13.09,31.07,13.09,30Z"/><path class="cls-2" d="M29.75,44.12a14,14,0,1,1,14-13.95A14,14,0,0,1,29.75,44.12Zm0-26.79A12.84,12.84,0,1,0,42.58,30.17,12.85,12.85,0,0,0,29.75,17.33Z"/><path class="cls-2" d="M31.17,20.12A10.16,10.16,0,0,1,39.83,29v.13h1.21l0-.17a11.32,11.32,0,0,0-9.86-10Z"/><path class="cls-2" d="M19.67,29a10.17,10.17,0,0,1,8.66-8.85V18.91a11.33,11.33,0,0,0-9.86,10l0,.17h1.21Z"/><path class="cls-2" d="M28.33,40.21a10.17,10.17,0,0,1-8.66-8.85v-.13H18.45l0,.17a11.33,11.33,0,0,0,9.86,10Z"/><path class="cls-2" d="M39.83,31.36a10.16,10.16,0,0,1-8.66,8.85v1.21A11.32,11.32,0,0,0,41,31.4l0-.17H39.84Z"/><polygon class="cls-2" points="32.68 27.92 33.89 24.48 31.18 26.92 28.47 29.36 27.26 32.79 26.04 36.23 28.75 33.79 31.46 31.35 32.68 27.92"/></g></svg>