<svg xmlns="http://www.w3.org/2000/svg" preserveAspectRatio="xMinYMid" viewbox="0 0 60 60"><defs><style>.cls-1{fill:#0065ab;}.cls-2{fill:#fff;}</style></defs><title>estilos iconos paraeducaand_adultos</title><g id="elements"><circle class="cls-1" cx="30" cy="30" r="30"/><path class="cls-2" d="M46.12,17.13a4.41,4.41,0,0,0-1.78-3l-5.9-4.33A4.49,4.49,0,0,0,35,9a4.78,4.78,0,0,0-3,1.91L15.68,33.16a.72.72,0,0,0-.12.27.72.72,0,0,0-.35.55l-1.37,14.5a.76.76,0,0,0,.3.67.79.79,0,0,0,.44.14.72.72,0,0,0,.29-.06l13.41-5.67A.78.78,0,0,0,28.7,43a.66.66,0,0,0,.22-.19l16.3-22.26A4.78,4.78,0,0,0,46.12,17.13ZM21.6,44.51l-5.23-3.82a.69.69,0,0,0-.29-.13l.56-6a1.07,1.07,0,0,0,.18.19l10.44,7.64L21.77,44.7A.77.77,0,0,0,21.6,44.51ZM15.92,42.2l4.31,3.15-4.79,2ZM44,19.71,28.25,41.26,17.7,33.53a.83.83,0,0,0-.36-.13L33.18,11.77a3.32,3.32,0,0,1,2.09-1.32,3,3,0,0,1,2.29.52l5.91,4.33a2.94,2.94,0,0,1,1.18,2A3.28,3.28,0,0,1,44,19.71Z"/><path class="cls-2" d="M39.17,19.31,27.7,35a.75.75,0,0,0,.16,1,.82.82,0,0,0,.44.14.75.75,0,0,0,.6-.3L40.37,20.19a.74.74,0,0,0-1.2-.88Z"/><path class="cls-2" d="M40.51,49.46H17.44a.81.81,0,1,0,0,1.62H40.51a.81.81,0,1,0,0-1.62Z"/></g></svg>