<svg id="back" xmlns="http://www.w3.org/2000/svg" preserveAspectRatio="xMinYMid" viewbox="0 0 60 60"><defs><style>.cls-1{fill:#0065ab;}.cls-2,.cls-4{fill:#fff;}.cls-2,.cls-3,.cls-4{stroke:#fff;}.cls-2{stroke-miterlimit:10;stroke-width:0.4px;}.cls-3{fill:none;stroke-width:1.78px;}.cls-3,.cls-4{stroke-linecap:round;stroke-linejoin:round;}.cls-4{stroke-width:0.39px;}</style></defs><title>estilos iconos paraeducaand_adultos</title><circle class="cls-1" cx="30.1" cy="30" r="30"/><path class="cls-2" d="M53.09,18.74a.59.59,0,0,0-.84,0l-1.44,1.35a6.45,6.45,0,0,0-1.09-4.5,6,6,0,0,0-5.1-2.36.6.6,0,0,0,.11,1.2,4.84,4.84,0,0,1,4,1.89,5.43,5.43,0,0,1,.82,4L48,19.1a.6.6,0,0,0-.7,1L49.87,22a.57.57,0,0,0,.29.11.61.61,0,0,0,.47-.17l2.44-2.3A.6.6,0,0,0,53.09,18.74Z"/><path class="cls-2" d="M20.17,33l-2.1,1.16a.75.75,0,0,0-.3,1,.76.76,0,0,0,.66.38.8.8,0,0,0,.36-.09l2.1-1.16A.75.75,0,1,0,20.17,33Z"/><path class="cls-2" d="M25.78,30l-2.1,1.16A.75.75,0,0,0,24,32.52a.7.7,0,0,0,.36-.1l2.1-1.16a.73.73,0,0,0,.3-1A.76.76,0,0,0,25.78,30Z"/><path class="cls-2" d="M37,23.78l-2.1,1.16a.74.74,0,0,0-.29,1,.73.73,0,0,0,.65.39.77.77,0,0,0,.36-.09l2.11-1.16A.75.75,0,0,0,37,23.78Z"/><path class="cls-2" d="M31.39,26.87,29.29,28a.75.75,0,0,0,.36,1.41.77.77,0,0,0,.36-.09l2.1-1.16a.75.75,0,1,0-.72-1.31Z"/><path class="cls-2" d="M14.56,36.13l-2.1,1.16a.73.73,0,0,0-.3,1,.75.75,0,0,0,.66.39.8.8,0,0,0,.36-.09l2.1-1.16a.75.75,0,1,0-.72-1.31Z"/><path class="cls-2" d="M48,24.44l-5.65-3.21.14-7.45a.73.73,0,0,0-.36-.65.75.75,0,0,0-.75,0L32.66,17.8,8,31.12a.74.74,0,0,0-.39.65v8.68l0,.14,0,.15a0,0,0,0,0,0,0h0a.75.75,0,0,0,.42.5l5.84,2.52a.72.72,0,0,0,.29.06.74.74,0,0,0,.36-.09l7.36-4-1.44-.92-6.31,3.4L9.83,40.39a.73.73,0,0,0-.76-1.21v-7L32.5,19.58,40.94,15l-.13,6.48a.76.76,0,0,0,0,.16l-.33.18a.75.75,0,0,0,.36,1.4.77.77,0,0,0,.36-.09l.74-.41,4.09,2.33-1.48.8L45.9,26l1.56-.6c.24-.13.48.15.48-.12S48.21,24.58,48,24.44Z"/><path class="cls-3" d="M7.89,9.13l3.57,2.63L8.64,18.42,4.76,23.94l-2,5.17L5,28.73l1.71-3.54,2.11-3.11h0l1.27-2.19L8.83,22.42l-.3,8.46,2.58-1.23,1.23-8.57,2-3.8-2,3.8-1,8.43,3.45-2.79-.34-1.08L19.14,16l-2.29,4.75L14.4,25.73l3.39.08L21,20.75A7.74,7.74,0,0,1,25.18,17c.87-.31,3.88-1,3.88-1l6.1,0L39,14l-7.74-1.39-8.67-5L17,2.8"/><path class="cls-4" d="M59.76,34.92,52.1,41.16h0L43.81,54.35a1,1,0,0,1-1.37.31l-.58-.37a1,1,0,0,1-.32-1.37L46,43.55l0,0-1-.67h0L32.94,51.4a1,1,0,0,1-1.39-.21l-.41-.56a1,1,0,0,1,.22-1.39l9.91-8.08,0,0-.7-1h0L26.75,47.75a1,1,0,0,1-1.37-.33L25,46.83a1,1,0,0,1,.34-1.37s12.49-8.24,12.51-8.24l-.4-.69-.41-.86L24,39.64A1,1,0,0,1,22.74,39l-.22-.65a1,1,0,0,1,.62-1.26l17.31-5.8-.37-1.16-3.35-.24a2.33,2.33,0,0,1-1.86-1.59.93.93,0,0,1-.06-.34h.07l9.56-1.13h0l15-4.13-.4-1.28-14.6,4.14L34.9,26.69a1.28,1.28,0,0,0-1.11.53,1.65,1.65,0,0,0-.1,1.54,4.46,4.46,0,0,0,.63,1.09l.19.18a1.77,1.77,0,0,0,1,.76,16.3,16.3,0,0,0,2,.21L22.75,35.94a2.22,2.22,0,0,0-1.4,2.81l.22.65a2.21,2.21,0,0,0,1.12,1.28,2.16,2.16,0,0,0,1.41.19l.28-.07,11.46-3.71L24.72,44.42a2.21,2.21,0,0,0-.74,3l.35.58a2.22,2.22,0,0,0,2.8.88l.25-.13,7.92-4.35-4.67,3.81a2.22,2.22,0,0,0-.48,3.1l.41.55a2.24,2.24,0,0,0,2.86.64,2,2,0,0,0,.24-.16l10.27-7.27L40.5,52.27a2.23,2.23,0,0,0,.7,3.06l.59.37a2.22,2.22,0,0,0,1.67.28,2.24,2.24,0,0,0,1.22-.74l.17-.24,8.06-12.84h0l7.68-6.25Z"/></svg>