<svg xmlns="http://www.w3.org/2000/svg" preserveAspectRatio="xMinYMid" viewbox="0 0 60 60"><defs><style>.cls-1{fill:#a25ac4;}.cls-2{fill:none;}.cls-3{fill:#fff;}</style></defs><title>estilos iconos paraeducaand_adultos</title><g id="elements"><rect class="cls-1" width="60" height="60" rx="8.13"/><polygon class="cls-2" points="35.76 21.61 32.3 21.11 31.78 21.03 31.55 20.56 30 17.43 28.45 20.56 28.22 21.03 27.7 21.11 24.24 21.61 26.74 24.05 27.12 24.42 27.03 24.94 26.44 28.38 29.54 26.76 30 26.51 30.46 26.76 33.56 28.38 32.97 24.94 32.88 24.42 33.26 24.05 35.76 21.61"/><path class="cls-2" d="M30,11.39A11.44,11.44,0,1,0,41.44,22.82,11.45,11.45,0,0,0,30,11.39Zm4.89,18.82L30,27.64l-4.89,2.57.94-5.44-4-3.86,5.47-.79,2.44-5,2.44,5,5.47.79-4,3.86Z"/><path class="cls-2" d="M30,6.54A16.3,16.3,0,0,0,13.72,22.82C13.72,30.89,27,49,30,53c3-4,16.28-22.08,16.28-30.15A16.3,16.3,0,0,0,30,6.54Zm0,29.22A12.94,12.94,0,1,1,42.94,22.82,13,13,0,0,1,30,35.76Z"/><path class="cls-3" d="M30,5A17.81,17.81,0,0,0,12.22,22.82c0,9.56,16.49,30.94,17.19,31.85l.59.76.59-.76c.71-.91,17.19-22.29,17.19-31.85A17.81,17.81,0,0,0,30,5ZM30,53c-3-4-16.28-22.08-16.28-30.15a16.28,16.28,0,0,1,32.56,0C46.28,30.89,33,49,30,53Z"/><path class="cls-3" d="M30,9.89A12.94,12.94,0,1,0,42.94,22.82,13,13,0,0,0,30,9.89Zm0,24.37A11.44,11.44,0,1,1,41.44,22.82,11.45,11.45,0,0,1,30,34.26Z"/><path class="cls-3" d="M32.44,20.12l-2.44-5-2.44,5-5.47.79,4,3.86-.94,5.44L30,27.64l4.89,2.57L34,24.77l4-3.86ZM33,24.94l.59,3.44-3.09-1.62L30,26.51l-.47.25-3.09,1.62L27,24.94l.09-.52-.38-.37-2.5-2.44,3.46-.5.52-.08.23-.47L30,17.43l1.55,3.13.23.47.52.08,3.46.5-2.5,2.44-.38.37Z"/></g></svg>