<svg xmlns="http://www.w3.org/2000/svg" preserveAspectRatio="xMinYMid" viewbox="0 0 60 60"><defs><style>.cls-1{fill:#0065ab;}.cls-2{fill:#fff;}</style></defs><title>estilos iconos paraeducaand_adultos</title><g id="elements"><circle class="cls-1" cx="30" cy="30" r="30"/><path class="cls-2" d="M45.2,28.28c2.75,0,5-2.68,5-6a4.67,4.67,0,0,0-5-4.95,4.67,4.67,0,0,0-5,4.95C40.2,25.6,42.45,28.28,45.2,28.28Zm-3.77-6a3.44,3.44,0,0,1,3.77-3.72A3.44,3.44,0,0,1,49,22.31c0,2.62-1.69,4.74-3.77,4.74S41.43,24.93,41.43,22.31Z"/><path class="cls-2" d="M16.28,28.28c2.75,0,5-2.68,5-6a4.66,4.66,0,0,0-5-4.95,4.66,4.66,0,0,0-5,4.95C11.28,25.6,13.52,28.28,16.28,28.28Zm-3.77-6a3.44,3.44,0,0,1,3.77-3.72A3.43,3.43,0,0,1,20,22.31c0,2.62-1.69,4.74-3.76,4.74S12.51,24.93,12.51,22.31Z"/><path class="cls-2" d="M30.74,27.9c3.16,0,5.73-3.08,5.73-6.87,0-3.5-2.19-5.68-5.73-5.68S25,17.53,25,21C25,24.82,27.58,27.9,30.74,27.9ZM26.23,21a4.12,4.12,0,0,1,4.51-4.46A4.12,4.12,0,0,1,35.24,21c0,3.11-2,5.64-4.5,5.64S26.23,24.14,26.23,21Z"/><path class="cls-2" d="M55,38l-.91-4.74a5.45,5.45,0,0,0-5.37-4.65h-.8L45.2,31.63l-2.69-3,0,0h-.8a5.37,5.37,0,0,0-3.17,1.06,6.17,6.17,0,0,0-3.64-1.19H34l-3.23,3.63-3.2-3.59,0,0h-.88A6.2,6.2,0,0,0,23,29.63a5.32,5.32,0,0,0-3.17-1.06H19l-2.72,3.06-2.7-3,0,0h-.8a5.43,5.43,0,0,0-5.37,4.64L6.46,38a2.85,2.85,0,0,0,1.81,3,23.11,23.11,0,0,0,12,1.06,3.09,3.09,0,0,0,1.11.72,27,27,0,0,0,18.64,0,3.27,3.27,0,0,0,1.11-.72,23,23,0,0,0,4,.36h0a23,23,0,0,0,8-1.42A2.85,2.85,0,0,0,55,38ZM50.2,34.52v6.13a22,22,0,0,1-8.29.32,3.18,3.18,0,0,0,.1-.33l0-.09c0-.08,0-.17.05-.25l0-.29c0-.06,0-.12,0-.17a2.8,2.8,0,0,0,0-.5L41,33.81a7.48,7.48,0,0,0-.18-.82c0-.06,0-.12,0-.17a5.8,5.8,0,0,0-.28-.73l-.1-.2c-.11-.21-.23-.42-.36-.62L40,31.1a5.43,5.43,0,0,0-.42-.53l-.09-.12a4.12,4.12,0,0,1,2.23-.66h.25l3.19,3.59.09.09,3.28-3.68h.25a4.23,4.23,0,0,1,4.16,3.62l.91,4.75a1.59,1.59,0,0,1-1,1.72c-.45.16-.9.31-1.36.45V34.52ZM37.91,42.21V35.32H36.68v7.21a25.68,25.68,0,0,1-11.89,0V35.32H23.57v6.89c-.58-.17-1.16-.34-1.72-.55a2,2,0,0,1-.59-.35L21,41a1.94,1.94,0,0,1-.45-1.48L21.65,34a6.77,6.77,0,0,1,.21-.89,5,5,0,0,1,.37-.82c.05-.09.12-.17.17-.26a5.11,5.11,0,0,1,.33-.48c.08-.1.18-.18.26-.27a4.21,4.21,0,0,1,.36-.37,5,5,0,0,1,3.27-1.22H27l3.7,4.15.09.1,3.78-4.25h.34a5.06,5.06,0,0,1,5,4.34l1.06,5.53a1.7,1.7,0,0,1,0,.39h0A2,2,0,0,1,40.44,41l-.22.27a1.85,1.85,0,0,1-.59.35C39.06,41.87,38.49,42,37.91,42.21ZM10.05,34.52v5.81c-.45-.14-.91-.29-1.35-.45a1.61,1.61,0,0,1-1-1.69l.92-4.78a4.23,4.23,0,0,1,4.16-3.62H13l3.19,3.59.09.09,3.27-3.68h.25a4.13,4.13,0,0,1,2.24.66s0,0,0,0A6.3,6.3,0,0,0,21,32v0a6.32,6.32,0,0,0-.32.82l0,.11a5.7,5.7,0,0,0-.19.84l-1.07,5.56v0a3.87,3.87,0,0,0,0,.48,1.8,1.8,0,0,0,0,.22,1.5,1.5,0,0,0,0,.2,3.27,3.27,0,0,0,.18.7,21.76,21.76,0,0,1-8.28-.32V34.52Z"/></g></svg>