<svg xmlns="http://www.w3.org/2000/svg" preserveAspectRatio="xMinYMid" viewbox="0 0 60 60"><defs><style>.cls-1{fill:#0065ab;}.cls-2{fill:#fff;}</style></defs><title>estilos iconos paraeducaand_adultos</title><g id="elements"><circle class="cls-1" cx="30" cy="30" r="30"/><path class="cls-2" d="M28.08,21.33a3,3,0,0,0-1.2-2l-4-2.91a3,3,0,0,0-2.31-.53,3.24,3.24,0,0,0-2,1.29l-11,15a.76.76,0,0,0-.09.18.49.49,0,0,0-.23.37l-.92,9.77a.49.49,0,0,0,.2.45.47.47,0,0,0,.3.1A.43.43,0,0,0,7,43l9-3.82a.52.52,0,0,0,.28-.35.45.45,0,0,0,.15-.13l11-15A3.21,3.21,0,0,0,28.08,21.33ZM11.55,39.78,8,37.2a.5.5,0,0,0-.2-.08l.39-4.06a.69.69,0,0,0,.11.13l7,5.15-3.7,1.57A.37.37,0,0,0,11.55,39.78ZM7.73,38.22l2.9,2.12L7.4,41.71ZM26.67,23.07,16,37.59,8.92,32.38a.5.5,0,0,0-.23-.09L19.36,17.72a2.22,2.22,0,0,1,1.41-.89,2,2,0,0,1,1.54.35l4,2.91a2,2,0,0,1,.8,1.37A2.29,2.29,0,0,1,26.67,23.07Z"/><path class="cls-2" d="M23.4,22.8,15.67,33.36a.5.5,0,0,0,.11.69.46.46,0,0,0,.29.1.51.51,0,0,0,.41-.2l7.73-10.56a.5.5,0,0,0-.81-.59Z"/><path class="cls-2" d="M24.3,43.12H8.75a.54.54,0,0,0-.54.54.55.55,0,0,0,.54.55H24.3a.55.55,0,0,0,.54-.55A.54.54,0,0,0,24.3,43.12Z"/><path class="cls-2" d="M53.65,21.33a3,3,0,0,0-1.2-2l-4-2.91a3,3,0,0,0-2.31-.53,3.21,3.21,0,0,0-2,1.29l-11,15a.48.48,0,0,0-.08.18.5.5,0,0,0-.24.37l-.92,9.77a.49.49,0,0,0,.21.45.45.45,0,0,0,.29.1.48.48,0,0,0,.2,0l9-3.82a.49.49,0,0,0,.28-.35.37.37,0,0,0,.15-.13l11-15A3.21,3.21,0,0,0,53.65,21.33ZM37.12,39.78,33.6,37.2a.5.5,0,0,0-.2-.08l.38-4.06a.49.49,0,0,0,.12.13l7,5.15-3.71,1.57A.35.35,0,0,0,37.12,39.78ZM33.3,38.22l2.9,2.12L33,41.71ZM52.23,23.07,41.6,37.59l-7.11-5.21a.54.54,0,0,0-.24-.09L44.92,17.72a2.22,2.22,0,0,1,1.41-.89,2,2,0,0,1,1.55.35l4,2.91a2,2,0,0,1,.8,1.37A2.25,2.25,0,0,1,52.23,23.07Z"/><path class="cls-2" d="M49,22.8,41.24,33.36a.48.48,0,0,0,.1.69.49.49,0,0,0,.3.1A.51.51,0,0,0,42,34l7.73-10.56a.5.5,0,0,0-.11-.7A.51.51,0,0,0,49,22.8Z"/><path class="cls-2" d="M49.86,43.12H34.32a.55.55,0,0,0-.55.54.55.55,0,0,0,.55.55H49.86a.55.55,0,0,0,.55-.55A.54.54,0,0,0,49.86,43.12Z"/></g></svg>