<svg xmlns="http://www.w3.org/2000/svg" preserveAspectRatio="xMinYMid" viewbox="0 0 60 60"><defs><style>.cls-1{fill:#499113;}.cls-2{fill:#fff;}</style></defs><title>estilos iconos paraeducaand_adultos</title><g id="back"><path class="cls-1" d="M58.08,25.37,34.63,1.92a6.55,6.55,0,0,0-9.26,0L1.92,25.37a6.54,6.54,0,0,0,0,9.26L25.37,58.08a6.54,6.54,0,0,0,9.26,0L58.08,34.63a6.54,6.54,0,0,0,0-9.26Z"/></g><g id="elements"><path class="cls-2" d="M43.86,39.73,36.11,32a12.58,12.58,0,1,0-4.73,4.73l7.75,7.75a3.34,3.34,0,1,0,4.73-4.73Zm-30-14A11.29,11.29,0,1,1,25.17,37.06,11.29,11.29,0,0,1,13.89,25.77ZM43,43.55a2.1,2.1,0,0,1-2.91,0L32.49,36a13,13,0,0,0,2.91-2.91L43,40.64a2,2,0,0,1,.6,1.46A2,2,0,0,1,43,43.55Z"/><path class="cls-2" d="M33.28,25.37c-.15-.18-3.65-4.51-8.11-4.51s-8,4.33-8.1,4.51a.63.63,0,0,0,0,.8c.15.19,3.65,4.52,8.1,4.52s8-4.33,8.11-4.52A.66.66,0,0,0,33.28,25.37Zm-8.11,4c-3.09,0-5.8-2.61-6.74-3.63.94-1,3.64-3.62,6.74-3.62s5.81,2.6,6.75,3.62C31,26.79,28.28,29.4,25.17,29.4Z"/><path class="cls-2" d="M25.17,23.51a2.27,2.27,0,1,0,2.27,2.26A2.26,2.26,0,0,0,25.17,23.51Zm0,3.24a1,1,0,1,1,1-1A1,1,0,0,1,25.17,26.75Z"/></g></svg>