<svg id="back" xmlns="http://www.w3.org/2000/svg" preserveAspectRatio="xMinYMid" viewbox="0 0 60 60"><defs><style>.cls-1{fill:#a25ac4;}.cls-2{fill:#fff;}</style></defs><title>estilos iconos paraeducaand_adultos</title><rect class="cls-1" width="60" height="60" rx="8.13"/><path class="cls-2" d="M16.79,29.3h1.82c.89,0,1.56-.9,1.56-2.09V19.28a3.15,3.15,0,0,0,0-.44V18.4c0-4.35,4.42-7.9,9.87-7.9s9.87,3.55,9.87,7.9v.48a2.6,2.6,0,0,0,0,.4v7.93c0,1.19.67,2.09,1.56,2.09h1.82c.89,0,1.56-.9,1.56-2.09V19.28c0-1.2-.67-2.1-1.56-2.1H41.46C40.74,12.47,35.88,8.81,30,8.81s-10.73,3.66-11.46,8.37H16.79c-.89,0-1.56.9-1.56,2.1v7.93C15.23,28.4,15.9,29.3,16.79,29.3ZM43,18.87a1,1,0,0,1,.07.41v7.93a1,1,0,0,1-.07.41H41.61a1.22,1.22,0,0,1-.07-.41V19.6h0V19a.54.54,0,0,1,0-.15Zm-26.12.41a1.17,1.17,0,0,1,.07-.41h1.43a1,1,0,0,1,0,.13v.6h0v7.61a1.22,1.22,0,0,1-.07.41H17a1.22,1.22,0,0,1-.07-.41Z"/><path class="cls-2" d="M46,39.51a7.36,7.36,0,0,0-.79-.69h0a12.39,12.39,0,0,0-4.55-1.67c-2.2-.49-4.28-.95-5.81-3h0l-.06,0c-.13-.29-.11-1.31,1.34-3.09,3.23-3.94,2.5-10.14,2.2-11.95a8.43,8.43,0,0,0-8.42-6.74,8.44,8.44,0,0,0-8.42,6.74c-.3,1.81-1,8,2.2,12,1.5,1.84,1.47,2.86,1.33,3.11h0c-1.53,2-3.61,2.49-5.81,3a12.28,12.28,0,0,0-4.54,1.67C11.25,41.24,12,46.47,12,46.69l.11.71H47.69l.1-.71C47.82,46.5,48.45,42.12,46,39.51Zm.22,6.21H13.64c-.06-1.33.06-4.14,2-5.52a10.55,10.55,0,0,1,3.93-1.4c2.29-.51,4.88-1.09,6.78-3.6.26-.33,1.28-2-1.36-5.22-2.77-3.39-2.1-9-1.83-10.6a6.73,6.73,0,0,1,6.75-5.33,6.72,6.72,0,0,1,6.75,5.33c.27,1.63.94,7.21-1.83,10.6-2.63,3.22-1.62,4.89-1.36,5.22,1.91,2.51,4.5,3.09,6.78,3.6a10.66,10.66,0,0,1,3.94,1.4,4.11,4.11,0,0,1,.55.48C46.14,42.14,46.23,44.53,46.18,45.72Z"/></svg>