<svg xmlns="http://www.w3.org/2000/svg" preserveAspectRatio="xMinYMid" viewbox="0 0 60 60"><defs><style>.cls-1{fill:#499113;}.cls-2{fill:#fff;}</style></defs><title>estilos iconos paraeducaand_adultos</title><g id="back"><path class="cls-1" d="M58.08,25.37,34.63,1.92a6.55,6.55,0,0,0-9.26,0L1.92,25.37a6.54,6.54,0,0,0,0,9.26L25.37,58.08a6.54,6.54,0,0,0,9.26,0L58.08,34.63a6.54,6.54,0,0,0,0-9.26Z"/></g><g id="elements"><path class="cls-2" d="M43.41,40.24,30.61,23V14H35.8l-2.21,2.17a.61.61,0,0,0-.18.46.64.64,0,0,0,.23.45l1.89,1.48H31.81a.61.61,0,1,0,0,1.21h5.47a.59.59,0,0,0,.57-.41.58.58,0,0,0-.2-.67l-2.72-2.14,2.77-2.72a.61.61,0,0,0-.42-1H30a.61.61,0,0,0-.61.61V23L16.58,40.24a.62.62,0,0,0,0,.63.6.6,0,0,0,.54.34H42.93a.61.61,0,0,0,.48-1Zm-10.58-7.8-2.4-2.38a.62.62,0,0,0-.86,0l-2.4,2.38-1.81-2L30,24.2l4.64,6.25Zm-8.2-1,2.07,2.28a.58.58,0,0,0,.43.2h0a.59.59,0,0,0,.42-.17L30,31.34l2.43,2.41a.57.57,0,0,0,.39.17h0a.6.6,0,0,0,.43-.2l2.07-2.28L41.73,40H18.28Z"/></g></svg>