<svg xmlns="http://www.w3.org/2000/svg" preserveAspectRatio="xMinYMid" viewbox="0 0 60 60"><defs><style>.cls-1{fill:#a25ac4;}.cls-2{fill:#fff;}</style></defs><title>estilos iconos paraeducaand_adultos</title><g id="elements"><rect class="cls-1" width="60" height="60" rx="8.13"/><path class="cls-2" d="M45.46,32.09l-2.83-5.2V23.37a15.08,15.08,0,0,0-30.15,0V26a15.51,15.51,0,0,0,2.8,8.92l0,0V46.3c0,.25,0,.47.22.58l.74.36.11.06s16.28,7.07,16.28,7.07a.83.83,0,0,0,.75-.06.79.79,0,0,0,.35-.66V45.33a.55.55,0,0,1,.55-.55H37a5.62,5.62,0,0,0,5.61-5.61V35.92h.55a2.59,2.59,0,0,0,2.28-3.83Zm-1.4,1.76a1,1,0,0,1-.87.5H41.85a.79.79,0,0,0-.79.79v4a4,4,0,0,1-4,4H34.3a2.12,2.12,0,0,0-2.12,2.12v7.1L32,52.36,17.16,45.9h0l-.29-.13V34.68a.75.75,0,0,0-.15-.46A13.93,13.93,0,0,1,14.05,26V23.37a13.51,13.51,0,0,1,27,0v3.76a.69.69,0,0,0,.1.37l2.92,5.35A1,1,0,0,1,44.06,33.85Z"/><path class="cls-2" d="M36.39,20.37l-.68-.09,0-.06-.12-.29,0-.07.42-.54a2,2,0,0,0,0-2.71L34.34,15a2.05,2.05,0,0,0-2.72,0l-.53.43-.07,0-.29-.12-.07,0-.08-.68a2.05,2.05,0,0,0-1.94-1.9H26.39a2,2,0,0,0-1.94,1.9l-.09.68-.06,0-.29.12-.07,0L23.41,15a2.05,2.05,0,0,0-2.72,0L19.1,16.61a2,2,0,0,0,0,2.71l.42.54,0,.07-.12.29,0,.07-.68.08a2,2,0,0,0-1.9,1.94v2.25a2.05,2.05,0,0,0,1.9,1.94l.68.08,0,.07.12.29,0,.06-.42.54a2,2,0,0,0,0,2.72l1.59,1.59a2.05,2.05,0,0,0,2.72,0l.53-.42.07,0,.29.12.06,0,.09.68a2,2,0,0,0,1.94,1.9h2.25a2,2,0,0,0,1.94-1.9l.08-.68.07,0,.29-.12.07,0,.53.42a2.05,2.05,0,0,0,2.72,0l1.59-1.59a2.05,2.05,0,0,0,0-2.72L35.54,27l0-.07.12-.29,0-.07.68-.08a2,2,0,0,0,1.9-1.94V22.31A2,2,0,0,0,36.39,20.37Zm.33,4.19c0,.18-.23.35-.51.38L35,25.08a.79.79,0,0,0-.65.54,7.3,7.3,0,0,1-.47,1.13.78.78,0,0,0,.08.84l.73.93c.18.22.22.51.09.63l-1.59,1.59a.53.53,0,0,1-.63-.09l-.93-.73a.78.78,0,0,0-.84-.08,7.47,7.47,0,0,1-1.13.47.79.79,0,0,0-.54.65L29,32.13c0,.28-.2.51-.38.51H26.39c-.18,0-.35-.23-.38-.51L25.87,31a.79.79,0,0,0-.54-.65,7.47,7.47,0,0,1-1.13-.47.82.82,0,0,0-.85.08l-.92.73c-.22.18-.51.22-.63.09l-1.59-1.59c-.13-.13-.09-.41.09-.63l.73-.93a.78.78,0,0,0,.08-.84,7.3,7.3,0,0,1-.47-1.13.79.79,0,0,0-.66-.54l-1.16-.14c-.28,0-.51-.2-.51-.38V22.31c0-.18.23-.35.51-.38L20,21.79a.79.79,0,0,0,.66-.54,6.57,6.57,0,0,1,.47-1.13.8.8,0,0,0-.08-.85l-.73-.92c-.18-.22-.22-.51-.09-.63l1.59-1.59c.12-.13.41-.09.63.09l.92.72a.78.78,0,0,0,.85.09,6.57,6.57,0,0,1,1.13-.47.79.79,0,0,0,.54-.66L26,14.74c0-.28.2-.51.38-.51h2.25c.18,0,.35.23.38.51l.14,1.16a.79.79,0,0,0,.54.66,6.57,6.57,0,0,1,1.13.47.78.78,0,0,0,.84-.08l.93-.73c.22-.18.5-.22.63-.09l1.59,1.59c.13.12.09.41-.09.63l-.73.92a.8.8,0,0,0-.08.85,7.47,7.47,0,0,1,.47,1.13.79.79,0,0,0,.65.54l1.17.14c.28,0,.51.2.51.38Z"/><path class="cls-2" d="M27.51,19A4.47,4.47,0,1,0,32,23.43,4.46,4.46,0,0,0,27.51,19Zm2,6.51a2.89,2.89,0,0,1-2,.84h0a2.89,2.89,0,1,1,2.9-2.89A2.92,2.92,0,0,1,29.56,25.48Z"/></g></svg>