<svg xmlns="http://www.w3.org/2000/svg" preserveAspectRatio="xMinYMid" viewbox="0 0 60 60"><defs><style>.cls-1{fill:#a25ac4;}.cls-2{fill:#fff;}</style></defs><title>estilos iconos paraeducaand_adultos</title><g id="elements"><rect class="cls-1" width="60" height="60" rx="8.13"/><path class="cls-2" d="M36.21,41.27l-12.48,0A2.56,2.56,0,0,1,22,40.65a2.66,2.66,0,0,1-.83-2.48l1.41-7a2.65,2.65,0,0,1,2.19-2.07L24.68,6.73a2,2,0,0,1,2-2l6.38,0a2,2,0,0,1,1.33.51A2,2,0,0,1,35,6.69l.08,22.41a2.75,2.75,0,0,1,1.38.64,2.6,2.6,0,0,1,.82,1.42l1.46,7a2.62,2.62,0,0,1-2.56,3.15ZM33.68,6.7a.63.63,0,0,0-.63-.63l-6.38,0a.64.64,0,0,0-.64.63l.08,22.39h3.82l3.82,0ZM36,31.44a1.35,1.35,0,0,0-.4-.69,1.3,1.3,0,0,0-.85-.32l-9.61,0a1.28,1.28,0,0,0-1.24,1L22.77,37,37.15,37Zm1.2,8a1.26,1.26,0,0,0,.25-1.06v-.06l-14.94.05v.06a1.26,1.26,0,0,0,.4,1.2,1.21,1.21,0,0,0,.84.32l12.49,0A1.25,1.25,0,0,0,37.19,39.45Z"/><path class="cls-2" d="M29.87,20a2,2,0,0,1-2-1.95V14.47a1.93,1.93,0,0,1,1.94-2,1.94,1.94,0,0,1,2,1.94V18A2,2,0,0,1,29.87,20Zm.58-5.53a.6.6,0,0,0-.6-.6.6.6,0,0,0-.43.18.59.59,0,0,0-.17.42v1.11h1.2Zm0,3.57V16.92h-1.2V18a.57.57,0,0,0,.2.44.59.59,0,0,0,.4.15A.6.6,0,0,0,30.46,18Z"/><path class="cls-2" d="M29.94,44.68a.62.62,0,0,1,.45.17.66.66,0,0,1,.23.5l0,9.26a.68.68,0,0,1-1.36,0l0-9.26A.67.67,0,0,1,29.94,44.68Z"/><path class="cls-2" d="M39.79,50.6a.67.67,0,0,1-.95-.08l-4.11-4.9a.68.68,0,0,1,1-.94l.06.07,4.11,4.9A.67.67,0,0,1,39.79,50.6Z"/><path class="cls-2" d="M25.15,44.7l0,0a.68.68,0,0,1,.07.94l-4.08,4.92a.67.67,0,0,1-.95.09.68.68,0,0,1-.09-1l4.08-4.93A.67.67,0,0,1,25.15,44.7Z"/></g></svg>