<svg xmlns="http://www.w3.org/2000/svg" xmlns:xlink="http://www.w3.org/1999/xlink" preserveAspectRatio="xMinYMid" viewbox="0 0 60 60"><defs><style>.cls-1{fill:none;}.cls-2{fill:#499113;}.cls-3{clip-path:url(#clip-path);}.cls-4{fill:#cd1719;}.cls-5{fill:#fff;}</style><clipPath id="clip-path"><rect class="cls-1" x="7.63" y="11.72" width="42.38" height="37.4"/></clipPath></defs><title>nuevos iconos_</title><g id="elements"><path class="cls-2" d="M58,25.19,34.6,1.75a6.55,6.55,0,0,0-9.25,0L1.92,25.19a6.53,6.53,0,0,0,0,9.25L25.35,57.88a6.55,6.55,0,0,0,9.25,0L58,34.44a6.53,6.53,0,0,0,0-9.25Z"/><g class="cls-3"><path class="cls-4" d="M31.32,19.2h0a.93.93,0,0,1-.78-1V12.74a.93.93,0,0,1,.78-1c.42,0,.77.46.77,1v5.43c0,.57-.35,1-.77,1"/><path class="cls-4" d="M31.32,49.12h0a.93.93,0,0,1-.78-1V42.67a.93.93,0,0,1,.78-1c.42,0,.77.46.77,1V48.1c0,.56-.35,1-.77,1"/><path class="cls-5" d="M31.32,19.2h0a.93.93,0,0,1-.78-1V12.74a.93.93,0,0,1,.78-1c.42,0,.77.46.77,1v5.43c0,.57-.35,1-.77,1"/><path class="cls-5" d="M31.32,49.12h0a.93.93,0,0,1-.78-1V42.67a.93.93,0,0,1,.78-1c.42,0,.77.46.77,1V48.1c0,.56-.35,1-.77,1"/><path class="cls-5" d="M23.38,22.48h0a.91.91,0,0,1-1.27-.17l-3.84-3.84a.93.93,0,0,1-.18-1.27.93.93,0,0,1,1.28.17l3.84,3.84a.92.92,0,0,1,.17,1.27"/><path class="cls-5" d="M44.54,43.64h0a.91.91,0,0,1-1.27-.17l-3.84-3.84a.93.93,0,0,1-.18-1.27.91.91,0,0,1,1.27.17l3.84,3.84a.93.93,0,0,1,.18,1.27"/><path class="cls-5" d="M50,30.42h0c0,.43-.46.77-1,.77H43.56c-.56,0-1-.34-1-.77s.46-.77,1-.77H49c.57,0,1,.34,1,.77"/><path class="cls-5" d="M23.38,38.36h0a.92.92,0,0,1-.17,1.27l-3.84,3.84a.93.93,0,0,1-1.28.17.93.93,0,0,1,.18-1.27l3.84-3.84a.91.91,0,0,1,1.27-.17"/><path class="cls-5" d="M44.54,17.2h0a.93.93,0,0,1-.18,1.27l-3.84,3.84a.91.91,0,0,1-1.27.17.93.93,0,0,1,.18-1.27l3.84-3.84a.91.91,0,0,1,1.27-.17"/><path class="cls-5" d="M31.32,40.37a10,10,0,1,0-9.95-9.95,10,10,0,0,0,10,9.95"/><path class="cls-5" d="M24.07,32.78a.21.21,0,0,1,0-.06V30.56c0-.43-.19-.62-.63-.62-2.61,0-6.41,0-9,0-.45,0-.63.19-.64.61,0,.75,0,1.49,0,2.24A1.48,1.48,0,0,1,12.4,34.3c-1.1.05-1,0-2.08,0a1.53,1.53,0,0,1-1.13-.56,1.4,1.4,0,0,1-.34-.95c0-2.2,0-4.4,0-6.6a1.79,1.79,0,0,1,.13-.6,1.27,1.27,0,0,1,.84-.79,3,3,0,0,1,.78-.14c.88,0,.54,0,1.41,0a1.61,1.61,0,0,1,1.76,1.71,5.61,5.61,0,0,0,0,.58c0,.52,0,1.05,0,1.57a.51.51,0,0,0,.55.55H27v.85h-.22c-.49,0-1,0-1.45,0a.62.62,0,0,0-.64.62c0,.68,0,1.35,0,2v.21ZM22.85,31v.21c0,.67,0,1.34,0,2a.6.6,0,0,0,.61.6h1.84a.54.54,0,0,0,.58-.6c0-.68,0-1.36,0-2V31h1.71a.59.59,0,0,0,.61-.6c0-.57,0-1.14,0-1.72a.53.53,0,0,0-.56-.58H15c0-.07,0-.14,0-.2,0-.62,0-1.25,0-1.88a2.23,2.23,0,0,0-.71-1.48,3.15,3.15,0,0,0-2.32-.85c-1,0-.76,0-1.74,0a2.8,2.8,0,0,0-1.79.77,2.77,2.77,0,0,0-.78,1.39v7.36c.07.18.12.36.19.53A2.44,2.44,0,0,0,9,35a3.43,3.43,0,0,0,1.78.4c1,0,.71,0,1.67,0a2.74,2.74,0,0,0,1.81-.8,2.06,2.06,0,0,0,.63-1,4.19,4.19,0,0,0,.12-.79c0-.53,0-1.06,0-1.58V31"/><path class="cls-5" d="M11.52,29.64v2.43c0,.24-.08.32-.32.32h.21c-.23,0-.31-.09-.31-.31V27.21c0-.22.09-.31.31-.31h-.25c.29,0,.36.07.36.36v2.38m1.22,0c0-.8,0-1.6,0-2.4a1.44,1.44,0,0,0-.15-.68,1.37,1.37,0,0,0-1.21-.69c-.5,0,.2,0-.29,0a1.28,1.28,0,0,0-1.15.93,1.68,1.68,0,0,0,0,.45c0,1.58,0,3.16,0,4.74a1.93,1.93,0,0,0,0,.42,1.23,1.23,0,0,0,1.13.94c.57.07-.06.07.51,0a1.25,1.25,0,0,0,1.17-1.3c0-.81,0-1.62,0-2.43"/><path class="cls-2" d="M31.32,29.51a1.16,1.16,0,0,0,0-2.31,1.16,1.16,0,1,0,0,2.31"/></g><rect class="cls-2" x="30.7" y="28.06" width="1.3" height="4.73"/><path class="cls-2" d="M28.21,28.65a.54.54,0,0,0-.56-.59h-6c-.07.33-.13.68-.18,1H27v.85H25.3a.62.62,0,0,0-.64.62c0,.68,0,1.35,0,2v.2h-.58a.13.13,0,0,1,0,0c0-.73,0-1.45,0-2.17,0-.43-.18-.63-.63-.63H21.39c0,.12,0,.23,0,.35s0,.47,0,.7h1.45v.21c0,.67,0,1.35,0,2a.61.61,0,0,0,.61.61c1,0,.84,0,1.85,0a.55.55,0,0,0,.59-.6c0-.68,0-1.37,0-2V31h1.72a.6.6,0,0,0,.61-.6C28.19,29.79,28.21,29.22,28.21,28.65Z"/></g></svg>