<svg xmlns="http://www.w3.org/2000/svg" preserveAspectRatio="xMinYMid" viewbox="0 0 60 60"><defs><style>.cls-1{fill:#a25ac4;}.cls-2{fill:#fff;}</style></defs><title>estilos iconos paraeducaand_adultos</title><g id="elements"><rect class="cls-1" width="60" height="60" rx="8.13"/><path class="cls-2" d="M46.59,19.76a5.78,5.78,0,0,0-1.83-1.23,5.56,5.56,0,0,0-2.08-.42h0a.82.82,0,0,0-.83.82.86.86,0,0,0,.23.59.87.87,0,0,0,.59.24,4.05,4.05,0,0,1,1.46.3,4.19,4.19,0,0,1,1.29.87,3.91,3.91,0,0,1,.87,1.3,4,4,0,0,1,.3,1.46.79.79,0,0,0,.25.58.84.84,0,0,0,.58.24h0a.89.89,0,0,0,.58-.24.85.85,0,0,0,.24-.6,5.66,5.66,0,0,0-1.65-3.91Z"/><path class="cls-2" d="M49.87,16.48a10.4,10.4,0,0,0-7.24-3.07h0a.83.83,0,0,0-.58.24.83.83,0,0,0,0,1.17.83.83,0,0,0,.59.25,8.82,8.82,0,0,1,6.09,2.58,8.86,8.86,0,0,1,1.91,2.86,8.55,8.55,0,0,1,.66,3.23.79.79,0,0,0,.25.58.84.84,0,0,0,.58.24h0a.82.82,0,0,0,.82-.84,10.19,10.19,0,0,0-.79-3.85A10.31,10.31,0,0,0,49.87,16.48Z"/><path class="cls-2" d="M56.47,18.15A15.24,15.24,0,0,0,42.58,8.72h0A.83.83,0,0,0,42,9a.79.79,0,0,0-.25.58.82.82,0,0,0,.82.84,13.27,13.27,0,0,1,5,1,13.52,13.52,0,0,1,4.42,3,13.68,13.68,0,0,1,3,4.42,13.22,13.22,0,0,1,1,5,.83.83,0,0,0,.25.58.86.86,0,0,0,.58.24h0a.84.84,0,0,0,.58-.24h0a.81.81,0,0,0,.24-.6A14.94,14.94,0,0,0,56.47,18.15Z"/><path class="cls-2" d="M39.3,21.76A10.4,10.4,0,0,0,33,19.94a11.28,11.28,0,0,0-4.6.85A10.32,10.32,0,0,0,25,23.29l-.68.74-.54-.86a5.43,5.43,0,0,0-2.17-2.05,14.78,14.78,0,0,0-6.42-1.18,14.65,14.65,0,0,0-5.46.93A7.93,7.93,0,0,0,6.3,23.32a10.7,10.7,0,0,0-1.66,3.54l2.84.34a8,8,0,0,1,1.17-2.71,5.24,5.24,0,0,1,2.58-1.76,12,12,0,0,1,3.94-.57c2.42,0,4.1.48,5.14,1.48s1.55,2.63,1.55,5c0,.28,0,.63,0,1.06l0,.55-.54.15a45.75,45.75,0,0,1-6.43,1.26A27.44,27.44,0,0,0,8,33.18a7.11,7.11,0,0,0-3.13,2.6,6.49,6.49,0,0,0-1.12,3.64,6.32,6.32,0,0,0,2.15,4.85,8.87,8.87,0,0,0,6.2,2,13.26,13.26,0,0,0,5.45-1.13,18,18,0,0,0,5.06-3.62l.62-.61.53.7a12,12,0,0,0,4.06,3.54A11.53,11.53,0,0,0,33,46.28a10.65,10.65,0,0,0,10.74-7.35l-3.15-.41a8.18,8.18,0,0,1-2.54,3.92A7.43,7.43,0,0,1,33.2,44.1a8.65,8.65,0,0,1-4.44-1.2,7.59,7.59,0,0,1-3-3,13.19,13.19,0,0,1-1-5.59V33.5h19.3c0-.32,0-.58,0-.76a17.28,17.28,0,0,0-1.18-6.11A10.66,10.66,0,0,0,39.3,21.76ZM21.91,33.06a24.85,24.85,0,0,1-.4,5.64,7.38,7.38,0,0,1-3.11,4,9.71,9.71,0,0,1-5.46,1.56,6.27,6.27,0,0,1-4.38-1.42A4.66,4.66,0,0,1,7,39.26a4.47,4.47,0,0,1,1.77-3.68A9.31,9.31,0,0,1,13,34.14a41.11,41.11,0,0,0,7.9-1.78l1.06-.46Zm2.84-1.74.05-.82a9.14,9.14,0,0,1,2.48-6.11A7.79,7.79,0,0,1,33,22.16a7.65,7.65,0,0,1,5.5,2c1.4,1.35,2.24,3.46,2.49,6.28l.07.84Z"/></g></svg>