<svg xmlns="http://www.w3.org/2000/svg" preserveAspectRatio="xMinYMid" viewbox="0 0 60 60"><defs><style>.cls-1{fill:#a25ac4;}.cls-2{fill:#fff;}</style></defs><title>estilos iconos paraeducaand_adultos</title><g id="elements"><rect class="cls-1" width="60" height="60" rx="8.13"/><path class="cls-2" d="M25.42,49.3a3,3,0,0,0,1.79-1.91,2.85,2.85,0,0,0,.05-1.73A3.13,3.13,0,0,0,28,44.37a3.07,3.07,0,0,0,0-2,2.9,2.9,0,0,0,.64-1.26,3.26,3.26,0,0,0-.08-1.81,2.83,2.83,0,0,0,.66-1.26,3,3,0,0,0-.49-2.49,2.33,2.33,0,0,0-1.88-.9H23.62a8.4,8.4,0,0,0,.75-1.84,6.18,6.18,0,0,0-.22-3.06,5.88,5.88,0,0,0-1.61-2.57A3.88,3.88,0,0,0,21,26.32a3,3,0,0,0-1.68,0,2.22,2.22,0,0,0-1.68,1.55,3.57,3.57,0,0,0,0,1.63,2.47,2.47,0,0,1-.26,2.09,23.06,23.06,0,0,1-1.41,2.16c-1.08,1.45-1.89,2-2.26,2l-5,0a2,2,0,0,0-1.95,1.95v10a2,2,0,0,0,1.95,1.95H11a.75.75,0,0,0,.53-.22A.75.75,0,0,0,11,48.16H8.77a.47.47,0,0,1-.46-.46v-10a.47.47,0,0,1,.47-.46l5.07,0a3.2,3.2,0,0,0,1.9-.94,11.87,11.87,0,0,0,1.5-1.68,24.87,24.87,0,0,0,1.5-2.29,3.49,3.49,0,0,0,.57-1.74,5.31,5.31,0,0,0-.14-1.39,2.58,2.58,0,0,1-.07-1c0-.11.1-.35.66-.51a1.85,1.85,0,0,1,1.77.55,4.76,4.76,0,0,1,1.36,4.23A11.66,11.66,0,0,1,21.73,35a.74.74,0,0,0,.65,1.11h4.48a.85.85,0,0,1,.71.33,1.44,1.44,0,0,1,.21,1.22,1.37,1.37,0,0,1-.25.53H26.08a.74.74,0,0,0-.74.74.75.75,0,0,0,.74.75h1a1.6,1.6,0,0,1,.07,1.06,1.43,1.43,0,0,1-.32.64h-1.5a.74.74,0,0,0-.74.74.75.75,0,0,0,.74.75h1.25a1.58,1.58,0,0,1,0,1,1.67,1.67,0,0,1-.53.78H24.66a.75.75,0,0,0-.75.74.76.76,0,0,0,.75.75h1.19a1.43,1.43,0,0,1-.05.73c-.26.74-.81,1.24-2.67,1.24H17.74a4.07,4.07,0,0,1-3-.73,1.18,1.18,0,0,1-.36-.79l0-6.63a.75.75,0,0,0-.75-.75.74.74,0,0,0-.74.74l0,6.54a2.18,2.18,0,0,0,.06.64,2.7,2.7,0,0,0,.69,1.26,4.92,4.92,0,0,0,3.71,1.22h5.76A6.24,6.24,0,0,0,25.42,49.3Z"/><path class="cls-2" d="M51.65,16.54v0a.22.22,0,0,0,0-.08l-.07-.2s0-.05,0-.05l-8.47-8.5V7.53H42.9l-.11-.09L19.46,7.38a.76.76,0,0,0-.76.76V23.89a.76.76,0,0,0,1.52,0v-15H41.69v7.69a.76.76,0,0,0,.76.76h7.68V51.26H19.46a.76.76,0,0,0,0,1.52H50.89a.76.76,0,0,0,.76-.76V16.54Zm-8.44-.72V10l5.85,5.85Zm-.47-8.1Z"/><path class="cls-2" d="M32.9,42.27a7.42,7.42,0,0,0,14.83,0A7.51,7.51,0,0,0,47.38,40a.77.77,0,0,0-1-.49.77.77,0,0,0-.45.38.71.71,0,0,0,0,.57,6.09,6.09,0,0,1,.27,1.8,5.88,5.88,0,1,1-2.43-4.78.78.78,0,0,0,.57.14.75.75,0,0,0,.49-.3.78.78,0,0,0,.14-.57.76.76,0,0,0-.31-.49,7.41,7.41,0,0,0-11.77,6Z"/><path class="cls-2" d="M37.29,41.1a.75.75,0,0,0-.54-.21.81.81,0,0,0-.53.24.77.77,0,0,0,0,1.07l3.54,3.34a.81.81,0,0,0,.57.21h0a.79.79,0,0,0,.53-.28L48,36.75a.76.76,0,0,0-.67-1.23.75.75,0,0,0-.51.28l-6.53,8.08Z"/><path class="cls-2" d="M27.51,21.77H36a.76.76,0,0,0,0-1.52H27.51a.76.76,0,0,0,0,1.52Z"/><path class="cls-2" d="M40.51,21.77h2.33a.76.76,0,0,0,0-1.52H40.51a.76.76,0,1,0,0,1.52Z"/><path class="cls-2" d="M27.51,27.2H36a.78.78,0,0,0,0-1.55H27.51a.77.77,0,0,0-.75.8A.76.76,0,0,0,27.51,27.2Z"/><path class="cls-2" d="M40.51,27.2h2.33a.78.78,0,0,0,0-1.55H40.51a.77.77,0,0,0-.76.8A.76.76,0,0,0,40.51,27.2Z"/><path class="cls-2" d="M27.51,32.6H36a.76.76,0,0,0,0-1.51H27.51a.76.76,0,0,0,0,1.51Z"/><path class="cls-2" d="M40.51,32.6h2.33a.76.76,0,0,0,0-1.51H40.51a.76.76,0,1,0,0,1.51Z"/></g></svg>