<svg xmlns="http://www.w3.org/2000/svg" preserveAspectRatio="xMinYMid" viewbox="0 0 60 60"><defs><style>.cls-1{fill:#a25ac4;}.cls-2{fill:#fff;}</style></defs><title>estilos iconos paraeducaand_adultos</title><g id="elements"><rect class="cls-1" width="60" height="60" rx="8.13"/><path class="cls-2" d="M48.82,47.78H16.35a3,3,0,0,1-3-3V21.27a3,3,0,0,1,3-3H48.82a3,3,0,0,1,3,3V44.83A3,3,0,0,1,48.82,47.78Zm-32.47-28a1.46,1.46,0,0,0-1.46,1.46V44.83a1.47,1.47,0,0,0,1.46,1.46H48.82a1.47,1.47,0,0,0,1.46-1.46V21.27a1.46,1.46,0,0,0-1.46-1.46Z"/><path class="cls-2" d="M16.35,47.78a.74.74,0,0,1-.61-1.17L26.93,30.34a.72.72,0,0,1,.6-.32.76.76,0,0,1,.62.31l5.66,7.76,3.66-3.59a.75.75,0,0,1,1.08,0l10.82,12a.75.75,0,0,1,0,1.06.76.76,0,0,1-1.06-.05L38,36.12l-3.72,3.64a.71.71,0,0,1-.59.21.78.78,0,0,1-.54-.3l-5.55-7.61L17,47.46A.74.74,0,0,1,16.35,47.78Z"/><path class="cls-2" d="M41.09,31.51A3.55,3.55,0,1,1,44.63,28,3.55,3.55,0,0,1,41.09,31.51Zm0-5.59a2,2,0,1,0,2,2A2.05,2.05,0,0,0,41.09,25.92Z"/><path class="cls-2" d="M11.45,42.7a3,3,0,0,1-3-3V16.19a3,3,0,0,1,3-3H43.91a3,3,0,0,1,3,3,.75.75,0,1,1-1.5,0,1.47,1.47,0,0,0-1.46-1.46H11.45A1.46,1.46,0,0,0,10,16.19V39.75a1.46,1.46,0,0,0,1.46,1.46.75.75,0,0,1,0,1.49Z"/></g></svg>