<svg xmlns="http://www.w3.org/2000/svg" preserveAspectRatio="xMinYMid" viewbox="0 0 60 60"><defs><style>.cls-1{fill:#0065ab;}.cls-2{fill:none;}.cls-3{fill:#fff;}</style></defs><title>estilos iconos paraeducaand_adultos</title><g id="elements"><circle class="cls-1" cx="30" cy="30" r="30"/><circle class="cls-2" cx="30.77" cy="10.36" r="4.11"/><path class="cls-2" d="M14.16,30a4.11,4.11,0,1,0-4.11-4.11A4.11,4.11,0,0,0,14.16,30Z"/><path class="cls-2" d="M46.86,30a4.11,4.11,0,1,0-4.12-4.11A4.12,4.12,0,0,0,46.86,30Z"/><circle class="cls-2" cx="30.25" cy="42.54" r="4.11"/><path class="cls-3" d="M45.11,19.54l.1.23.24-.07.5-.11.38-.06-.16-.35a17.3,17.3,0,0,0-8-8.36l-.4-.2,0,.45a4.52,4.52,0,0,1-.06.53l0,.21.19.1A16.22,16.22,0,0,1,45.11,19.54Z"/><path class="cls-3" d="M40.58,38.67a16.2,16.2,0,0,1-3,1.9l-.23.11.07.24c0,.17.09.33.13.5l.08.38.34-.17a17.33,17.33,0,0,0,3.76-2.5l.6-.53H40.66Z"/><path class="cls-3" d="M24.35,42.21l0-.38c0-.17.05-.33.09-.5l.06-.24-.24-.1a15.91,15.91,0,0,1-3.87-2.32l-.08-.07H18.64l.61.53A17.25,17.25,0,0,0,24,42.07Z"/><path class="cls-3" d="M15.57,19.7l.24.07.1-.23a16.13,16.13,0,0,1,8.26-8.09l.2-.08,0-.22c0-.17,0-.35,0-.53v-.45l-.41.18a17.15,17.15,0,0,0-9.06,8.83l-.16.35.38.06Z"/><path class="cls-3" d="M30.77,15.59a5.23,5.23,0,1,0-5.23-5.23A5.23,5.23,0,0,0,30.77,15.59Zm0-9.34a4.11,4.11,0,1,1-4.11,4.11A4.12,4.12,0,0,1,30.77,6.25Z"/><path class="cls-3" d="M39.37,23.12V19.31a3.55,3.55,0,0,0-3.54-3.54h-9.6a3.55,3.55,0,0,0-3.55,3.54v3.81H23.8V19.31a2.43,2.43,0,0,1,2.43-2.42h9.6a2.42,2.42,0,0,1,2.42,2.42v3.81Z"/><path class="cls-3" d="M25,42.54a5.23,5.23,0,1,0,5.23-5.23A5.24,5.24,0,0,0,25,42.54Zm9.34,0a4.11,4.11,0,1,1-4.11-4.11A4.12,4.12,0,0,1,34.36,42.54Z"/><path class="cls-3" d="M35.42,48v0H25.71a3.54,3.54,0,0,0-3.54,3.54v3.8h1.11v-3.8a2.43,2.43,0,0,1,2.43-2.43h9.6a2.42,2.42,0,0,1,2.42,2.43v3.8h1.12v-3.8A3.52,3.52,0,0,0,35.42,48Z"/><path class="cls-3" d="M14.16,31.16a5.23,5.23,0,1,0-5.23-5.23A5.23,5.23,0,0,0,14.16,31.16Zm0-9.34a4.11,4.11,0,1,1-4.11,4.11A4.11,4.11,0,0,1,14.16,21.82Z"/><path class="cls-3" d="M21.65,34.88v3.81h1.12V34.88a3.55,3.55,0,0,0-3.55-3.54H9.62a3.55,3.55,0,0,0-3.54,3.54v3.81H7.2V34.88a2.43,2.43,0,0,1,2.42-2.42h9.6A2.43,2.43,0,0,1,21.65,34.88Z"/><path class="cls-3" d="M41.63,25.93a5.23,5.23,0,1,0,5.23-5.23A5.23,5.23,0,0,0,41.63,25.93Zm5.23-4.11a4.11,4.11,0,1,1-4.12,4.11A4.12,4.12,0,0,1,46.86,21.82Z"/><path class="cls-3" d="M51.92,31.34h-9.6a3.55,3.55,0,0,0-3.55,3.54v3.81h1.12V34.88a2.43,2.43,0,0,1,2.43-2.42h9.6a2.43,2.43,0,0,1,2.42,2.42v3.81h1.12V34.88A3.55,3.55,0,0,0,51.92,31.34Z"/></g></svg>