<svg xmlns="http://www.w3.org/2000/svg" preserveAspectRatio="xMinYMid" viewbox="0 0 60 60"><defs><style>.cls-1{fill:#499113;}.cls-2{fill:#fff;}</style></defs><title>estilos iconos paraeducaand_adultos</title><g id="elements"><path class="cls-1" d="M58.08,25.37,34.63,1.92a6.55,6.55,0,0,0-9.26,0L1.92,25.37a6.54,6.54,0,0,0,0,9.26L25.37,58.08a6.54,6.54,0,0,0,9.26,0L58.08,34.63a6.54,6.54,0,0,0,0-9.26Z"/><path class="cls-2" d="M30,46.86A16.86,16.86,0,1,1,46.86,30,16.87,16.87,0,0,1,30,46.86Zm0-32.37A15.51,15.51,0,1,0,45.51,30,15.53,15.53,0,0,0,30,14.49Z"/><rect class="cls-2" x="29.43" y="15.22" width="1.14" height="3.23"/><rect class="cls-2" x="15.22" y="29.43" width="3.23" height="1.14"/><rect class="cls-2" x="41.56" y="29.43" width="3.23" height="1.14"/><rect class="cls-2" x="29.43" y="41.63" width="1.14" height="3.23"/><path class="cls-2" d="M37.42,24.63a.9.9,0,0,0,0-1.27h0a.9.9,0,0,0-1.27,0l-5.47,5.47h0a2.08,2.08,0,0,0-.66-.11,1.94,1.94,0,0,0-.73.14l-7.52-7.52a.9.9,0,0,0-1.27,0v0a.89.89,0,0,0,0,1.26l7.62,7.62a2.12,2.12,0,0,0-.05.44,2,2,0,0,0,3.92,0,2.33,2.33,0,0,0-.07-.53l.06,0Z"/></g></svg>