<svg xmlns="http://www.w3.org/2000/svg" preserveAspectRatio="xMinYMid" viewbox="0 0 60 60"><defs><style>.cls-1{fill:#0065ab;}.cls-2{fill:#fff;}</style></defs><title>estilos iconos paraeducaand_adultos</title><g id="elements"><circle class="cls-1" cx="30" cy="30" r="30"/><path class="cls-2" d="M32.8,17.62H15.59a.81.81,0,0,0,0,1.61H32.8a.81.81,0,1,0,0-1.61Z"/><path class="cls-2" d="M15.59,23.12H32.8a.8.8,0,1,0,0-1.6H15.59a.8.8,0,1,0,0,1.6Z"/><path class="cls-2" d="M52.3,28.06V28h0a2.61,2.61,0,0,0-2.6-2.46H40.37V16a2.61,2.61,0,0,0-2.61-2.61H10.36A2.61,2.61,0,0,0,7.74,16V32.2a2.62,2.62,0,0,0,2.62,2.62h9.83v9a2.62,2.62,0,0,0,2.38,2.59v0H49.68a2.61,2.61,0,0,0,2.62-2.61V28.4h0v-.34ZM10.64,33.21h-.28a1,1,0,0,1-1-1V16a1,1,0,0,1,1-1h27.4a1,1,0,0,1,1,1V32.2a1,1,0,0,1-.93,1H27.52l-.08,0H10.64Zm40.05-3.64V43.88a1,1,0,0,1-1,1H23.09v0h-.28a1,1,0,0,1-1-1v-9h16l.16,0h6.81a.81.81,0,0,0,0-1.61H40.17a2.5,2.5,0,0,0,.2-1V30.91h4.36a.81.81,0,0,0,0-1.61H40.37V27.1h9.32a1,1,0,0,1,1,1Z"/><path class="cls-2" d="M41.11,35.27H36.75a.79.79,0,0,0-.79.79v3.06a.79.79,0,0,0,.79.79h4.36a.79.79,0,0,0,.78-.79V36.06A.79.79,0,0,0,41.11,35.27Zm-.21,1v2.64H37V36.27Z"/><path class="cls-2" d="M32.43,35.27H28.07a.8.8,0,0,0-.79.79v3.06a.8.8,0,0,0,.79.79h4.36a.8.8,0,0,0,.79-.79V36.06A.8.8,0,0,0,32.43,35.27Zm-.21,1v2.64H28.28V36.27Z"/><path class="cls-2" d="M31.87,26.42H27.51a.78.78,0,0,0-.78.78v3.07a.78.78,0,0,0,.78.78h4.36a.78.78,0,0,0,.79-.78V27.2A.78.78,0,0,0,31.87,26.42Zm-.21,1v2.65H27.72V27.41Z"/><path class="cls-2" d="M23.2,26.42H18.84a.78.78,0,0,0-.79.78v3.07a.78.78,0,0,0,.79.78H23.2a.78.78,0,0,0,.78-.78V27.2A.78.78,0,0,0,23.2,26.42Zm-.21,1v2.65H19.05V27.41Z"/></g></svg>