<svg xmlns="http://www.w3.org/2000/svg" preserveAspectRatio="xMinYMid" viewbox="0 0 60 60"><defs><style>.cls-1{fill:#499113;}.cls-2{fill:#fff;}</style></defs><title>estilos iconos paraeducaand_adultos</title><g id="back"><path class="cls-1" d="M58.08,25.37,34.63,1.92a6.55,6.55,0,0,0-9.26,0L1.92,25.37a6.54,6.54,0,0,0,0,9.26L25.37,58.08a6.54,6.54,0,0,0,9.26,0L58.08,34.63a6.54,6.54,0,0,0,0-9.26Z"/></g><g id="elements"><path class="cls-2" d="M43.14,16.93,32,17.93v-2a2,2,0,0,0-4,0v2.41l-1,.09-9-1.7a.6.6,0,0,0-.41.09.57.57,0,0,0-.22.34L13,40a.52.52,0,0,0,.08.4.54.54,0,0,0,.34.23l8.05,1.5.06.65a.52.52,0,0,0,.53.48h0l3.64-.32h0l10.5,2a.5.5,0,0,0,.4-.08.56.56,0,0,0,.23-.35l.48-2.58,7.88-.71a.54.54,0,0,0,.37-.19.55.55,0,0,0,.12-.39L43.73,17.41A.56.56,0,0,0,43.14,16.93ZM29,15.88a1,1,0,0,1,1.91,0V18L29,18.19ZM14.18,39.64l4.09-21.81,4.77.9L20,19a.52.52,0,0,0-.36.19.51.51,0,0,0-.12.39L21.41,41ZM36,43.73l-6.26-1.17L36.32,42Zm-13.4-1.61-2-22.1L27,19.45H27l3.87-.35v5.17a1.45,1.45,0,0,1-2.9,0V21.7a.54.54,0,0,0-1.07,0v2.57a2.52,2.52,0,0,0,5,0V19l10.74-1,2,22.1Z"/></g></svg>