<svg xmlns="http://www.w3.org/2000/svg" preserveAspectRatio="xMinYMid" viewbox="0 0 60 60"><defs><style>.cls-1{fill:#0065ab;}.cls-2{fill:#fff;}</style></defs><title>estilos iconos paraeducaand_adultos</title><g id="elements"><circle class="cls-1" cx="30" cy="30" r="30"/><path class="cls-2" d="M28.16,29.27h0a.71.71,0,0,1,0-1l2.21-2.21a.71.71,0,0,1,1,0h0a.72.72,0,0,1,0,1l-2.22,2.22A.72.72,0,0,1,28.16,29.27Z"/><path class="cls-2" d="M46.15,11.28a9.27,9.27,0,0,0-15.74,7.85L12.55,39.6l2.23,2.23-2.25,2.25a4.77,4.77,0,0,0,.13,6.85,4.84,4.84,0,0,0,6.68-.21L33,37.06a3.24,3.24,0,0,1,2.33-1,3.31,3.31,0,0,1,2.77,1.49,3.24,3.24,0,0,1,.48,1.19,3.3,3.3,0,0,1-.91,3l-9.53,9.52a.71.71,0,0,0,1,1l9.53-9.53A4.72,4.72,0,1,0,32,36.06L18.32,49.73a3.43,3.43,0,0,1-4.78.07,3.29,3.29,0,0,1-1-2.29,3.46,3.46,0,0,1,1-2.5l2.18-2.18,2,2.05L38.3,27a9.27,9.27,0,0,0,7.85-2.63h0A9.29,9.29,0,0,0,46.15,11.28ZM14.48,39.54l2.9-3.33L21.21,40l-3.32,2.9Zm7.8-.43-4-4L31.13,20.46,37,26.3ZM45.14,23.39a7.76,7.76,0,0,1-5.55,2.3,8.33,8.33,0,0,1-1.33-.11l-6.41-6.41a7.39,7.39,0,0,1-.12-1.33,7.87,7.87,0,0,1,1.19-4.17l8.59,8.59a.71.71,0,0,0,1-1l-8.72-8.72.24-.26A7.86,7.86,0,0,1,45.14,23.39Z"/><path class="cls-2" d="M25.1,7.77a.89.89,0,0,0-.68-.23l-6.66.57A.9.9,0,0,0,17,9v5.56a2.41,2.41,0,1,0,1.41,2.2V9.48L24,9v5.56a2.35,2.35,0,0,0-1-.22,2.42,2.42,0,1,0,2.41,2.42V8.43A.88.88,0,0,0,25.1,7.77ZM16,17.75a1,1,0,1,1,1-1A1,1,0,0,1,16,17.75Zm7,0a1,1,0,1,1,1-1A1,1,0,0,1,23,17.75Z"/></g></svg>