<svg xmlns="http://www.w3.org/2000/svg" preserveAspectRatio="xMinYMid" viewbox="0 0 60 60"><defs><style>.cls-1{fill:#0065ab;}.cls-2{fill:#fff;}</style></defs><title>estilos iconos paraeducaand_adultos</title><g id="elements"><circle class="cls-1" cx="30" cy="30" r="30"/><path class="cls-2" d="M44.39,9.25H15.61A2.75,2.75,0,0,0,12.86,12V48a2.75,2.75,0,0,0,2.75,2.75H44.39A2.75,2.75,0,0,0,47.14,48V12A2.75,2.75,0,0,0,44.39,9.25ZM45.45,48a1.06,1.06,0,0,1-1.06,1.06H15.61A1.07,1.07,0,0,1,14.54,48V12a1.07,1.07,0,0,1,1.07-1.06H44.39A1.06,1.06,0,0,1,45.45,12Z"/><path class="cls-2" d="M21.93,22.47a.86.86,0,0,0,.65-.31l2.8-3.41a.85.85,0,0,0,.19-.62.88.88,0,0,0-.31-.57.81.81,0,0,0-.62-.18.82.82,0,0,0-.56.3L22,20.24l-.48-.67a.82.82,0,0,0-.55-.34l-.14,0a.84.84,0,0,0-.49.16.86.86,0,0,0-.2,1.18l1.12,1.56a.85.85,0,0,0,.66.36"/><path class="cls-2" d="M39.19,19.7H29.1a.85.85,0,1,0,0,1.69H39.19a.85.85,0,0,0,0-1.69Z"/><path class="cls-2" d="M21.93,32.55a.83.83,0,0,0,.65-.31l2.8-3.41a.85.85,0,0,0,.19-.62.88.88,0,0,0-.31-.57.79.79,0,0,0-.61-.18.82.82,0,0,0-.57.3L22,30.32l-.48-.67a.87.87,0,0,0-.69-.36.82.82,0,0,0-.49.16.86.86,0,0,0-.2,1.18l1.12,1.56a.85.85,0,0,0,.66.36"/><path class="cls-2" d="M39.19,29.78H29.1a.85.85,0,1,0,0,1.69H39.19a.85.85,0,0,0,0-1.69Z"/><path class="cls-2" d="M24.64,37.54a.82.82,0,0,0-.56.3L22,40.4l-.48-.67a.87.87,0,0,0-.69-.36.82.82,0,0,0-.49.16.86.86,0,0,0-.2,1.18l1.12,1.56a.84.84,0,0,0,.66.36h0a.86.86,0,0,0,.65-.31l2.8-3.41a.85.85,0,0,0,.19-.62.88.88,0,0,0-.31-.57A.81.81,0,0,0,24.64,37.54Z"/><path class="cls-2" d="M39.19,39.86H29.1a.85.85,0,1,0,0,1.69H39.19a.85.85,0,0,0,0-1.69Z"/></g></svg>