<svg xmlns="http://www.w3.org/2000/svg" preserveAspectRatio="xMinYMid" viewbox="0 0 60 60"><defs><style>.cls-1{fill:#a25ac4;}.cls-2{fill:#fff;}</style></defs><title>estilos iconos paraeducaand_adultos</title><g id="elements"><rect class="cls-1" width="60" height="60" rx="8.13"/><path class="cls-2" d="M33.37,6.52a8.59,8.59,0,0,0-8.58,8.58v26a4.71,4.71,0,0,0,1.41,3.37,4.93,4.93,0,0,0,6.76,0,4.68,4.68,0,0,0,1.42-3.37V19.43a1,1,0,0,0-2,0V41.06A2.67,2.67,0,0,1,31.55,43a2.61,2.61,0,0,1-2,.77A2.55,2.55,0,0,1,27.62,43a2.67,2.67,0,0,1-.81-1.92v-26a6.56,6.56,0,0,1,13.12,0V43.22c0,5.29-4.72,9.77-10.36,9.79s-10.33-4.49-10.33-9.79v-13a1,1,0,0,0-2,0v13A11.82,11.82,0,0,0,29,55h.65A11.82,11.82,0,0,0,42,43.22V15.1A8.59,8.59,0,0,0,33.37,6.52Z"/></g></svg>