<svg xmlns="http://www.w3.org/2000/svg" preserveAspectRatio="xMinYMid" viewbox="0 0 60 60"><defs><style>.cls-1{fill:#a25ac4;}.cls-2{fill:#fff;}</style></defs><title>estilos iconos paraeducaand_adultos</title><g id="elements"><rect class="cls-1" width="60" height="60" rx="8.13"/><path class="cls-2" d="M40.06,28.32l-14-8.1A2,2,0,0,0,24,20a2,2,0,0,0-.86,1.86V38.11A2,2,0,0,0,24,40a1.55,1.55,0,0,0,.77.2A2.52,2.52,0,0,0,26,39.78l14-8.1A2,2,0,0,0,41.25,30,2,2,0,0,0,40.06,28.32Zm-.75,2.05-14,8.1a1.43,1.43,0,0,1-.52.2,1,1,0,0,1-.12-.56V21.89c0-.36.09-.53.12-.54a1.07,1.07,0,0,1,.52.18l14,8.1a1.88,1.88,0,0,1,.43.35A1.14,1.14,0,0,1,39.31,30.37Z"/><path class="cls-2" d="M30,10.44A19.56,19.56,0,1,0,49.56,30,19.59,19.59,0,0,0,30,10.44Zm0,37.49A17.93,17.93,0,1,1,47.93,30,17.95,17.95,0,0,1,30,47.93Z"/></g></svg>