<svg xmlns="http://www.w3.org/2000/svg" preserveAspectRatio="xMinYMid" viewbox="0 0 60 60"><defs><style>.cls-1{fill:#0065ab;}.cls-2{fill:#fff;}</style></defs><title>estilos iconos paraeducaand_adultos</title><g id="elements"><circle class="cls-1" cx="30" cy="30" r="30"/><path class="cls-1" d="M24,7.7c0,3.52,1.92,9.24,1.94,9.3l.2.58-.53.3h0a2.5,2.5,0,0,0-.37,1.61,4.34,4.34,0,0,0,.37,2l.11.17v.23l0,9.79L25.91,50l4-45.16H24.31A10.13,10.13,0,0,0,24,7.7Z"/><path class="cls-1" d="M34.27,21.91v-.23l.11-.17a4.34,4.34,0,0,0,.37-2,2.5,2.5,0,0,0-.37-1.61h0l-.53-.3.2-.58c0-.06,1.94-5.78,1.94-9.3a10.13,10.13,0,0,0-.31-2.88H30.07l4,45.16.16-18.28Z"/><path class="cls-2" d="M37.5,7.7c0-2.93-.59-3.9-.7-4.07l-.23-.31H23.43l-.23.31c-.11.17-.7,1.14-.7,4.07,0,3.22,1.42,7.9,1.88,9.34a4,4,0,0,0-.64,2.45,6.07,6.07,0,0,0,.49,2.61l0,9.61.23,25.94,1.5,0L25.91,50,25.75,31.7l0-9.79v-.23l-.11-.17a4.34,4.34,0,0,1-.37-2,2.5,2.5,0,0,1,.37-1.61h0l.53-.3-.2-.58c0-.06-1.94-5.78-1.94-9.3a10.13,10.13,0,0,1,.31-2.88H35.69A10.13,10.13,0,0,1,36,7.7c0,3.52-1.92,9.24-1.94,9.3l-.2.58.53.3h0a2.5,2.5,0,0,1,.37,1.61,4.34,4.34,0,0,1-.37,2l-.11.17v.23l0,9.79L34.09,50,34,57.63l1.5,0,.23-25.94,0-9.61a6.07,6.07,0,0,0,.49-2.61A4,4,0,0,0,35.62,17C36.08,15.6,37.5,10.92,37.5,7.7Z"/><path class="cls-2" d="M29.07,34.39a1.31,1.31,0,1,1,1.86,1.85,1.31,1.31,0,0,1-1.86-1.85Z"/><path class="cls-2" d="M29.07,28.47a1.31,1.31,0,0,1,1.86,1.85,1.31,1.31,0,0,1-1.86-1.85Z"/><path class="cls-2" d="M29.07,40.48a1.31,1.31,0,0,1,1.86,1.85,1.31,1.31,0,1,1-1.86-1.85Z"/><path class="cls-2" d="M29.07,46.57a1.32,1.32,0,1,1,0,1.86A1.32,1.32,0,0,1,29.07,46.57Z"/><path class="cls-2" d="M29.07,52.66a1.32,1.32,0,1,1,0,1.86A1.32,1.32,0,0,1,29.07,52.66Z"/><path class="cls-1" d="M30,13.07c-2.1,0-2.54-.7-2.54-.7l.75-3.89h3.58l.75,3.89S32.1,13.07,30,13.07Z"/></g></svg>