<svg xmlns="http://www.w3.org/2000/svg" preserveAspectRatio="xMinYMid" viewbox="0 0 60 60"><defs><style>.cls-1{fill:#0065ab;}.cls-2{fill:#fff;}</style></defs><title>estilos iconos paraeducaand_adultos</title><g id="elements"><circle class="cls-1" cx="30" cy="30" r="30"/><path class="cls-2" d="M45.16,11.31H14.84A2.89,2.89,0,0,0,12,14.2V45.8a2.89,2.89,0,0,0,2.89,2.89H45.16a2.89,2.89,0,0,0,2.89-2.89V14.2A2.89,2.89,0,0,0,45.16,11.31ZM46.28,45.8a1.12,1.12,0,0,1-1.12,1.12H14.84a1.12,1.12,0,0,1-1.12-1.12V14.2a1.12,1.12,0,0,1,1.12-1.12H45.16a1.12,1.12,0,0,1,1.12,1.12Z"/><path class="cls-2" d="M39.45,32.53H33.27a1.11,1.11,0,0,0-1.11,1.11v6.44a1.12,1.12,0,0,0,1.11,1.12h6.18a1.12,1.12,0,0,0,1.12-1.12V33.64A1.12,1.12,0,0,0,39.45,32.53Zm-.3,1.41v5.84H33.57V33.94Z"/><path class="cls-2" d="M27.15,32.53H21a1.12,1.12,0,0,0-1.12,1.11v6.44A1.12,1.12,0,0,0,21,41.2h6.17a1.12,1.12,0,0,0,1.12-1.12V33.64A1.12,1.12,0,0,0,27.15,32.53Zm-.29,1.41v5.84H21.27V33.94Z"/><path class="cls-2" d="M39.68,20.21h-19a.89.89,0,1,0,0,1.78h19a.89.89,0,1,0,0-1.78Z"/><path class="cls-2" d="M39.68,26.62h-19a.89.89,0,1,0,0,1.78h19a.89.89,0,1,0,0-1.78Z"/></g></svg>