<svg xmlns="http://www.w3.org/2000/svg" preserveAspectRatio="xMinYMid" viewbox="0 0 60 60"><defs><style>.cls-1{fill:#499113;}.cls-2{fill:#fff;}</style></defs><title>estilos iconos paraeducaand_adultos</title><g id="back"><path class="cls-1" d="M58.08,25.37,34.63,1.92a6.55,6.55,0,0,0-9.26,0L1.92,25.37a6.54,6.54,0,0,0,0,9.26L25.37,58.08a6.54,6.54,0,0,0,9.26,0L58.08,34.63a6.54,6.54,0,0,0,0-9.26Z"/><path class="cls-2" d="M30.36,27.08H26.55v3.78a1.38,1.38,0,1,1-2.75,0V27.08H20a1.32,1.32,0,0,1,0-2.64H23.8V20.63a1.38,1.38,0,0,1,2.75,0v3.81h3.81a1.32,1.32,0,1,1,0,2.64Z"/></g><g id="elements"><path class="cls-2" d="M43.86,39.73,36.11,32a12.58,12.58,0,1,0-4.73,4.73l7.75,7.75a3.34,3.34,0,1,0,4.73-4.73Zm-30-14A11.29,11.29,0,1,1,25.17,37.06,11.29,11.29,0,0,1,13.89,25.77ZM43,43.55a2.1,2.1,0,0,1-2.91,0L32.49,36a13,13,0,0,0,2.91-2.91L43,40.64a2,2,0,0,1,.6,1.46A2,2,0,0,1,43,43.55Z"/></g></svg>