<svg id="back" xmlns="http://www.w3.org/2000/svg" preserveAspectRatio="xMinYMid" viewbox="0 0 60 60"><defs><style>.cls-1{fill:#a25ac4;}.cls-2{fill:#fff;}</style></defs><title>estilos iconos paraeducaand_adultos</title><rect class="cls-1" width="60" height="60" rx="8.13"/><path class="cls-2" d="M28.7,50l-5-8.15a.39.39,0,0,0-.33-.19H14.27a4.65,4.65,0,0,1-4.62-4.68V14a4.65,4.65,0,0,1,4.62-4.68H45.73A4.65,4.65,0,0,1,50.35,14V36.93a4.65,4.65,0,0,1-4.62,4.68H36.45a.39.39,0,0,0-.33.19l-5,8.15A1.43,1.43,0,0,1,28.7,50ZM14.27,11.09A2.93,2.93,0,0,0,11.37,14V36.93a2.93,2.93,0,0,0,2.9,3H23.4a2.13,2.13,0,0,1,1.8,1l4.72,7.73,4.73-7.73a2.13,2.13,0,0,1,1.8-1h9.28a2.93,2.93,0,0,0,2.9-3V14a2.93,2.93,0,0,0-2.9-2.95Z"/><path class="cls-2" d="M30.4,32.09h-.8a2.21,2.21,0,0,1-2.12-2.15l-1-13a2.26,2.26,0,0,1,2.12-2.55h2.82a2.27,2.27,0,0,1,2.12,2.55l-1,13A2.21,2.21,0,0,1,30.4,32.09Zm-1.81-16c-.17,0-.43.26-.4.7l1,13c0,.33.23.56.4.56h.8c.17,0,.37-.23.4-.56l1-13c0-.44-.23-.7-.4-.7Z"/><path class="cls-2" d="M29.78,39a2.63,2.63,0,1,1,2.63-2.62A2.62,2.62,0,0,1,29.78,39Zm0-3.52a.9.9,0,1,0,.9.9A.9.9,0,0,0,29.78,35.43Z"/></svg>