<svg xmlns="http://www.w3.org/2000/svg" preserveAspectRatio="xMinYMid" viewbox="0 0 60 60"><defs><style>.cls-1{fill:#a25ac4;}.cls-2{fill:#fff;}.cls-3{fill:none;stroke:#a25ac4;stroke-miterlimit:10;stroke-width:1px;}</style></defs><title>lengua de signos</title><g id="elements"><rect class="cls-1" width="60" height="60" rx="8.13"/><polyline class="cls-2" points="8.75 10.97 8.75 50.64 51.23 50.64 51.23 10.97"/><g id="_6VivcC.tif" data-name="6VivcC.tif"><path class="cls-1" d="M47.66,50.64H8.75V11H51.22V31.14h-.1l-5.69.17a.36.36,0,0,1-.23-.08c-.46-.48-.94-.95-1.37-1.45a2.16,2.16,0,0,1-.46-.82c-.28-1.07-.52-2.15-.74-3.23a11.73,11.73,0,0,0-1.07-3.22A31,31,0,0,1,39.38,17,7.69,7.69,0,0,1,39,14.28a3.54,3.54,0,0,0,0-.65A1.64,1.64,0,0,0,37,12a4.6,4.6,0,0,0-3.54,3.16,6.09,6.09,0,0,0-.07,2.33,22.12,22.12,0,0,0,.81,3.4l.18.67,0,.05c-.34-.16-.69-.3-1-.47a17,17,0,0,1-2.54-1.82c-1-.79-1.91-1.62-2.9-2.39a40.67,40.67,0,0,0-5-3.28A23.49,23.49,0,0,0,19.3,12a5.1,5.1,0,0,0-2.07-.41,1.85,1.85,0,0,0-1.57.95,2.24,2.24,0,0,0,.4,2.79,7.65,7.65,0,0,0,1.35,1.12,48.83,48.83,0,0,1,6.28,4.72c.22.2.23.26.08.55l-.18-.11Q20.88,19.89,18,18.48c-1-.5-2-1-3.05-1.49a4.89,4.89,0,0,0-2.16-.5A2.15,2.15,0,0,0,10.71,19a2.62,2.62,0,0,0,1,1.54,16.42,16.42,0,0,0,1.72,1.25c1.8,1.1,3.62,2.16,5.44,3.24l.44.25a.3.3,0,0,1-.19,0c-.84-.33-1.69-.64-2.52-1-1.11-.46-2.2-.94-3.31-1.39a4.08,4.08,0,0,0-1.92-.38,2.09,2.09,0,0,0-1.93,2.26,2.54,2.54,0,0,0,1,1.7,10.59,10.59,0,0,0,1.33,1,29.15,29.15,0,0,0,4.44,2.12l.19.09a.61.61,0,0,1-.27,0c-.57-.13-1.14-.27-1.72-.39A8,8,0,0,0,12.18,29a1.75,1.75,0,0,0-.71.19.73.73,0,0,0-.11,1.28,2.23,2.23,0,0,0,.41.27c.54.24,1.09.46,1.64.69.14.06.29.1.43.15v.05c-.4,0-.79,0-1.19,0a5,5,0,0,0-2.08.44,1.79,1.79,0,0,0-1,1.93,2.35,2.35,0,0,0,1.17,1.71,6.46,6.46,0,0,0,2.49.81l.8.11a.09.09,0,0,1-.09,0c-.81.13-1.63.25-2.45.4a2.53,2.53,0,0,0-1.21.5.9.9,0,0,0,.08,1.52,2.42,2.42,0,0,0,.64.27,6.25,6.25,0,0,0,2.2.1c.88-.08,1.76-.2,2.63-.31,1.62-.2,3.24-.41,4.86-.58.81-.08,1.64-.11,2.46-.14a1.27,1.27,0,0,1,.54.14.58.58,0,0,1,.06,1,3.81,3.81,0,0,1-.81.4c-1.2.38-2.4.78-3.62,1.1-1.79.47-3.61.86-5.41,1.31a6.7,6.7,0,0,0-1.26.49.89.89,0,0,0-.39,1c.07.39.36.48.67.55a1,1,0,0,0,.17,0c.67,0,1.35,0,2-.07a39,39,0,0,0,4.79-.94l4.93-1.22a4.71,4.71,0,0,1,1-.13.48.48,0,0,1,.52.7,1.38,1.38,0,0,1-.31.57,8.85,8.85,0,0,1-1.08,1,15.1,15.1,0,0,1-3.23,1.7c-1.05.44-2.12.83-3.18,1.25a5,5,0,0,0-.78.43.63.63,0,0,0-.27.76c.11.38.35.55.83.58a7.66,7.66,0,0,0,2.52-.32A22.46,22.46,0,0,0,27.17,46a4,4,0,0,1,1.5-.62c.77-.13,1.53-.27,2.31-.36a23.49,23.49,0,0,0,7-1.77.26.26,0,0,1,.32,0c2,1.59,4,3.18,6,4.76C45.4,48.9,46.53,49.77,47.66,50.64Z"/><path class="cls-1" d="M51.23,50.64H49.66l-.07-.08c-2.15-1.65-4.32-3.29-6.45-5-1.64-1.29-3.25-2.63-4.87-4a2.13,2.13,0,0,0-1.07-.48c-.54-.09-1.09-.13-1.61-.26-1.26-.31-2.51-.64-3.76-1a24.65,24.65,0,0,1-5.19-2.13,17.6,17.6,0,0,0-2.3-1,19.12,19.12,0,0,0-5.4-1c-1.77-.14-3.53-.24-5.3-.39a5.58,5.58,0,0,1-2.08-.55,1.51,1.51,0,0,1-.73-.66.69.69,0,0,1,.4-1.07,2,2,0,0,1,.42-.13,10,10,0,0,1,1.54-.14c1.67.07,3.34.21,5,.28,1.27.06,2.55.06,3.82.06A5.08,5.08,0,0,0,23.18,33a.65.65,0,0,0,.57-.55c.07-.72,0-.91-.55-1.24a1.91,1.91,0,0,0-.28-.15c-.73-.32-1.45-.66-2.19-.94-2.08-.78-4.16-1.56-6.19-2.48a14.62,14.62,0,0,1-3-1.68,2.78,2.78,0,0,1-.83-.91.87.87,0,0,1,.62-1.26.85.85,0,0,1,.42,0,9.86,9.86,0,0,1,1.28.38c1.45.58,2.88,1.22,4.34,1.77,1.67.64,3.37,1.22,5.06,1.8a6.32,6.32,0,0,0,1.15.22.42.42,0,0,0,.47-.31.55.55,0,0,0-.17-.66A8.51,8.51,0,0,0,22.74,26c-1.95-1.18-3.92-2.33-5.88-3.51-1.25-.76-2.5-1.53-3.72-2.33a5.82,5.82,0,0,1-1-.91.85.85,0,0,1-.25-.78,1,1,0,0,1,1.26-.8,7.26,7.26,0,0,1,2.3.81c2.69,1.36,5.38,2.73,8,4.32A20.12,20.12,0,0,0,25.66,24a1.79,1.79,0,0,0,.76.12.57.57,0,0,0,.53-.78,3.46,3.46,0,0,0-.52-1,20.36,20.36,0,0,0-1.6-1.75,42.28,42.28,0,0,0-6.35-4.87,12.74,12.74,0,0,1-1.33-1,2.14,2.14,0,0,1-.53-.73.85.85,0,0,1,.84-1.22,5.32,5.32,0,0,1,1.72.44A26.38,26.38,0,0,1,22.86,15a36.52,36.52,0,0,1,5.42,3.74c1.07.91,2.18,1.78,3.29,2.65a7.52,7.52,0,0,0,2.86,1.41,3,3,0,0,0,.84.08c.37,0,.5-.18.47-.56a4.71,4.71,0,0,0-.14-.85c-.27-1.06-.58-2.11-.84-3.17a6.58,6.58,0,0,1-.19-2.65,3.23,3.23,0,0,1,2.55-2.52c.36-.05.55.07.6.43a3.55,3.55,0,0,1,.05.8,8.75,8.75,0,0,0,.4,2.78,34.58,34.58,0,0,0,2.36,6,8.16,8.16,0,0,1,.65,1.7A33.75,33.75,0,0,1,42,28.28a5.8,5.8,0,0,0,1.93,3.38c.41.38.82.76,1.26,1.11q2.94,2.29,5.89,4.58a.49.49,0,0,1,.2.42Z"/></g><polyline class="cls-3" points="8.75 10.7 8.75 50.64 51.23 50.64 51.23 10.7 8.75 10.98"/></g></svg>