<svg id="back" xmlns="http://www.w3.org/2000/svg" preserveAspectRatio="xMinYMid" viewbox="0 0 60 60"><defs><style>.cls-1{fill:#499113;}.cls-2{fill:#fff;}</style></defs><title>estilos iconos paraeducaand_adultos</title><path class="cls-1" d="M58.08,25.37,34.63,1.92a6.55,6.55,0,0,0-9.26,0L1.92,25.37a6.54,6.54,0,0,0,0,9.26L25.37,58.08a6.54,6.54,0,0,0,9.26,0L58.08,34.63a6.54,6.54,0,0,0,0-9.26Z"/><path class="cls-2" d="M45.72,26.61a1,1,0,0,0-1,1v8.69a4.28,4.28,0,0,1-4.28,4.28h-21a4.28,4.28,0,0,1-4.28-4.28V27.43a1,1,0,1,0-1.91,0v8.83a6.19,6.19,0,0,0,6.19,6.19h21a6.19,6.19,0,0,0,6.19-6.19V27.57a1,1,0,0,0-1-1Zm0,0"/><path class="cls-2" d="M29.33,34.86a.93.93,0,0,0,.67.29.9.9,0,0,0,.67-.29l6.07-6.07a.94.94,0,0,0,0-1.35,1,1,0,0,0-1.35,0L31,31.89V12.5a1,1,0,0,0-1.92,0V31.89L24.6,27.44a1,1,0,0,0-1.35,0,.94.94,0,0,0,0,1.35Zm0,0"/></svg>