<svg xmlns="http://www.w3.org/2000/svg" preserveAspectRatio="xMinYMid" viewbox="0 0 60 60"><defs><style>.cls-1{fill:#a25ac4;}.cls-2{fill:#fff;stroke:#fff;stroke-miterlimit:10;stroke-width:0.15px;}</style></defs><title>estilos iconos paraeducaand_adultos</title><g id="elements"><rect class="cls-1" x="-0.08" width="60" height="60" rx="8.13"/><path class="cls-2" d="M44,19.43l.19.42.45-.12.48-.1.69-.13-.29-.64a17.49,17.49,0,0,0-8.14-8.47L36.67,10l-.06.83c0,.17,0,.33,0,.5l-.06.39.35.18A15.9,15.9,0,0,1,44,19.43Z"/><path class="cls-2" d="M23.7,42.35l.1-.69c0-.17.05-.33.08-.48l.11-.45-.43-.18a15.88,15.88,0,0,1-3.81-2.29l-.15-.12H17.13l1.11,1a17.74,17.74,0,0,0,4.81,3Z"/><path class="cls-2" d="M14.65,19.73l.45.12.19-.42a15.86,15.86,0,0,1,8.13-8l.36-.16,0-.39c0-.17,0-.34,0-.51V9.58L23,9.9a17.45,17.45,0,0,0-9.19,9l-.29.64.7.13Z"/><path class="cls-2" d="M34.79,47.5l-.46,0h-3.1a5.49,5.49,0,1,0-3.66,0H24.86a3.8,3.8,0,0,0-3.79,3.8v4h1.62v-4a2.18,2.18,0,0,1,2.17-2.18h9.6a2.19,2.19,0,0,1,2.18,2.18v4h1.62v-4A3.78,3.78,0,0,0,34.79,47.5Zm-1.53-5.18a3.86,3.86,0,1,1-3.86-3.86A3.87,3.87,0,0,1,33.26,42.32Z"/><path class="cls-2" d="M20.55,34.67v4h1.62v-4a3.79,3.79,0,0,0-3.79-3.79H15.15a5.48,5.48,0,1,0-3.66,0H8.77A3.79,3.79,0,0,0,5,34.67v4H6.6v-4A2.17,2.17,0,0,1,8.77,32.5h9.61A2.17,2.17,0,0,1,20.55,34.67Zm-3.37-9a3.87,3.87,0,1,1-3.86-3.86A3.87,3.87,0,0,1,17.18,25.72Z"/><path class="cls-2" d="M28.09,15.31H25.38a3.79,3.79,0,0,0-3.79,3.79v4h1.62v-4a2.17,2.17,0,0,1,2.17-2.17H35a2.18,2.18,0,0,1,2.18,2.17v4h1.61v-4A3.79,3.79,0,0,0,35,15.31H31.75a5.48,5.48,0,1,0-3.66,0Zm-2-5.16A3.86,3.86,0,1,1,29.92,14,3.86,3.86,0,0,1,26.06,10.15Z"/><path class="cls-2" d="M51.07,30.88H47.84a5.48,5.48,0,1,0-3.66,0H41.47a3.8,3.8,0,0,0-3.8,3.79v4h1.27a16.35,16.35,0,0,1-2.28,1.42l-.41.2.13.44.12.47.14.7.64-.31a18,18,0,0,0,3.81-2.53l1.1-1H39.73l-.16.12a2.92,2.92,0,0,1-.28.21v-3.8a2.18,2.18,0,0,1,2.18-2.17h9.6a2.17,2.17,0,0,1,2.17,2.17v4h1.62v-4A3.79,3.79,0,0,0,51.07,30.88Zm-1.2-5.16A3.86,3.86,0,1,1,46,21.86,3.86,3.86,0,0,1,49.87,25.72Z"/></g></svg>