<svg xmlns="http://www.w3.org/2000/svg" preserveAspectRatio="xMinYMid" viewbox="0 0 64 64"><defs><style>.cls-1{fill:#0065ab;}.cls-2{fill:#fff;}.cls-3{fill:none;stroke:#0065ab;stroke-miterlimit:10;stroke-width:1px;}</style></defs><title>lengua de signos</title><g id="elements"><circle class="cls-1" cx="31.86" cy="32.14" r="31.86"/><polyline class="cls-2" points="10.79 12.97 10.79 52.64 53.27 52.64 53.27 12.97"/><g id="_6VivcC.tif" data-name="6VivcC.tif"><path class="cls-1" d="M49.7,52.64H10.79V13H53.26V33.14h-.1l-5.69.17a.36.36,0,0,1-.23-.08c-.46-.48-.94-1-1.37-1.45a2.31,2.31,0,0,1-.46-.82c-.27-1.07-.52-2.15-.73-3.23a12.1,12.1,0,0,0-1.08-3.22A31.8,31.8,0,0,1,41.42,19a7.92,7.92,0,0,1-.4-2.74,4.72,4.72,0,0,0,0-.65A1.65,1.65,0,0,0,39,14a4,4,0,0,0-1.16.39,4.09,4.09,0,0,0-2.38,2.77,6.3,6.3,0,0,0-.07,2.33,23.35,23.35,0,0,0,.81,3.4c.07.22.13.45.19.67l0,.05c-.34-.16-.68-.3-1-.47a17.44,17.44,0,0,1-2.53-1.82c-1-.79-1.92-1.62-2.91-2.39a39.93,39.93,0,0,0-5-3.28A23,23,0,0,0,21.34,14a5.07,5.07,0,0,0-2.07-.41,1.83,1.83,0,0,0-1.56.95,2.24,2.24,0,0,0,.39,2.79,7.65,7.65,0,0,0,1.35,1.12,48.15,48.15,0,0,1,6.28,4.72c.22.2.23.26.09.55l-.19-.11c-1.81-1.12-3.66-2.15-5.57-3.09-1-.5-2-1-3.06-1.49a4.82,4.82,0,0,0-2.15-.5A2.16,2.16,0,0,0,12.75,21a2.59,2.59,0,0,0,1,1.54,17.4,17.4,0,0,0,1.71,1.25c1.8,1.1,3.63,2.16,5.44,3.24l.44.25a.31.31,0,0,1-.19,0l-2.52-1c-1.1-.46-2.2-.94-3.31-1.39a4.08,4.08,0,0,0-1.92-.38,2.09,2.09,0,0,0-1.93,2.26,2.55,2.55,0,0,0,1,1.7,10.49,10.49,0,0,0,1.32,1,29.72,29.72,0,0,0,4.45,2.12l.18.09a.57.57,0,0,1-.26,0l-1.72-.39A8.1,8.1,0,0,0,14.23,31a1.75,1.75,0,0,0-.71.19.73.73,0,0,0-.11,1.28,2.16,2.16,0,0,0,.4.27l1.65.69c.13.06.28.1.42.15v0c-.39,0-.79,0-1.18,0a5,5,0,0,0-2.09.44,1.82,1.82,0,0,0-1,1.93,2.38,2.38,0,0,0,1.17,1.71,6.46,6.46,0,0,0,2.49.81l.8.11s-.05,0-.08,0c-.82.13-1.64.25-2.46.4a2.45,2.45,0,0,0-1.2.5.9.9,0,0,0,.07,1.52,2.42,2.42,0,0,0,.64.27,6.27,6.27,0,0,0,2.2.1c.88-.08,1.76-.2,2.64-.31,1.62-.2,3.23-.41,4.85-.58.82-.08,1.64-.11,2.46-.14a1.36,1.36,0,0,1,.55.14.58.58,0,0,1,.06,1A3.66,3.66,0,0,1,25,42c-1.2.38-2.4.78-3.62,1.1-1.79.47-3.6.86-5.4,1.31a6.21,6.21,0,0,0-1.26.49.88.88,0,0,0-.4,1c.07.39.36.48.68.55l.16,0c.67,0,1.35,0,2-.07a39,39,0,0,0,4.79-.94l4.93-1.22a4.71,4.71,0,0,1,1-.13.49.49,0,0,1,.53.7,1.53,1.53,0,0,1-.32.57,8.85,8.85,0,0,1-1.08,1,15.26,15.26,0,0,1-3.22,1.7c-1.06.44-2.13.83-3.19,1.25a5,5,0,0,0-.78.43.63.63,0,0,0-.26.76c.1.38.34.55.83.58a7.69,7.69,0,0,0,2.52-.32A22.52,22.52,0,0,0,29.21,48a4,4,0,0,1,1.5-.62c.77-.13,1.54-.27,2.31-.36a23.41,23.41,0,0,0,7-1.77.26.26,0,0,1,.32,0l6,4.76Z"/><path class="cls-1" d="M53.28,52.64H51.7a.27.27,0,0,0-.07-.08c-2.15-1.65-4.31-3.29-6.45-5-1.64-1.29-3.25-2.63-4.86-4a2.21,2.21,0,0,0-1.07-.48c-.54-.09-1.09-.13-1.62-.26-1.26-.31-2.51-.64-3.75-1a24.51,24.51,0,0,1-5.2-2.13,17.6,17.6,0,0,0-2.3-1,19.12,19.12,0,0,0-5.4-1c-1.76-.14-3.53-.24-5.29-.39a5.68,5.68,0,0,1-2.09-.55,1.49,1.49,0,0,1-.72-.66.69.69,0,0,1,.39-1.07,2.25,2.25,0,0,1,.42-.13,10.15,10.15,0,0,1,1.55-.14c1.67.07,3.33.21,5,.28,1.28.06,2.55.06,3.83.06A5.08,5.08,0,0,0,25.22,35a.64.64,0,0,0,.57-.55c.08-.72,0-.91-.55-1.24A1.51,1.51,0,0,0,25,33c-.73-.32-1.45-.66-2.19-.94-2.08-.78-4.16-1.56-6.19-2.48a14.89,14.89,0,0,1-3-1.68,2.75,2.75,0,0,1-.82-.91.92.92,0,0,1,1-1.27,9.41,9.41,0,0,1,1.28.38c1.45.58,2.88,1.22,4.34,1.77,1.68.64,3.37,1.22,5.07,1.8a6.21,6.21,0,0,0,1.14.22c.24,0,.38-.1.47-.31a.56.56,0,0,0-.16-.66A8.59,8.59,0,0,0,24.78,28c-2-1.18-3.92-2.33-5.87-3.51-1.26-.76-2.5-1.53-3.73-2.33a6.65,6.65,0,0,1-1-.91.85.85,0,0,1-.25-.78,1,1,0,0,1,1.27-.8,7.2,7.2,0,0,1,2.29.81c2.69,1.36,5.38,2.73,8,4.32A21,21,0,0,0,27.7,26a1.81,1.81,0,0,0,.77.12.58.58,0,0,0,.53-.78,4,4,0,0,0-.52-1,22.25,22.25,0,0,0-1.61-1.75,42.28,42.28,0,0,0-6.35-4.87,11.65,11.65,0,0,1-1.32-1,1.91,1.91,0,0,1-.53-.73.84.84,0,0,1,.84-1.22,5.33,5.33,0,0,1,1.71.44A26.5,26.5,0,0,1,24.91,17a36.43,36.43,0,0,1,5.41,3.74c1.07.91,2.18,1.78,3.3,2.65a7.4,7.4,0,0,0,2.85,1.41,3,3,0,0,0,.84.08c.37,0,.51-.18.48-.56a4.72,4.72,0,0,0-.15-.85c-.27-1.06-.58-2.11-.84-3.17a6.58,6.58,0,0,1-.19-2.65,3.25,3.25,0,0,1,2.55-2.52c.36-.05.55.07.61.43a4.25,4.25,0,0,1,0,.8,8.47,8.47,0,0,0,.4,2.78,33.8,33.8,0,0,0,2.36,6,8.76,8.76,0,0,1,.65,1.7c.29,1.13.58,2.27.76,3.42a5.85,5.85,0,0,0,1.93,3.38c.41.38.82.76,1.26,1.11q2.94,2.29,5.89,4.58a.48.48,0,0,1,.21.42Q53.27,46.21,53.28,52.64Z"/></g><polyline class="cls-3" points="10.79 12.7 10.79 52.64 53.27 52.64 53.27 12.7 10.79 12.98"/></g></svg>