<svg xmlns="http://www.w3.org/2000/svg" preserveAspectRatio="xMinYMid" viewbox="0 0 60 60"><defs><style>.cls-1{fill:#a25ac4;}.cls-2{fill:#fff;}</style></defs><title>estilos iconos paraeducaand_adultos</title><g id="elements"><rect class="cls-1" width="60" height="60" rx="8.13"/><path class="cls-2" d="M30.61,53.85l1.65-4.39A11.49,11.49,0,0,0,33,45.4v-15H44.83a.65.65,0,0,0,.65-.65,8.45,8.45,0,0,0-7.77-8.43h-.1l0-.11L36.2,10.15H37a2.24,2.24,0,0,0,1.57-.64,2.17,2.17,0,0,0,0-3.12h0A2.22,2.22,0,0,0,37,5.72H23a2.23,2.23,0,0,0-2.22,2.22,2.17,2.17,0,0,0,.65,1.56,2.21,2.21,0,0,0,1.57.65h.82l0,.15L22.4,21.36h-.11a8.5,8.5,0,0,0-7.77,8.42.66.66,0,0,0,.65.65H27v15a11.26,11.26,0,0,0,.73,4.06l1.65,4.39a.66.66,0,0,0,.61.43.65.65,0,0,0,.61-.43ZM23,8.85h0a.92.92,0,0,1-.64-.27.88.88,0,0,1-.27-.64A.91.91,0,0,1,23,7H37a.94.94,0,0,1,.91.91.87.87,0,0,1-.27.64.93.93,0,0,1-.63.27Zm2.14,1.3h9.76l0,.11,1.38,11.07H23.72l0-.14Zm2.59,19-.05.06-.05-.06H15.86V29A7.14,7.14,0,0,1,23,22.64H37A7.14,7.14,0,0,1,44.13,29v.14H27.71ZM29,49a10.07,10.07,0,0,1-.66-3.6v-15h3.38v15a10.15,10.15,0,0,1-.63,3.53L31,49l-1,2.76Z"/></g></svg>