<svg xmlns="http://www.w3.org/2000/svg" preserveAspectRatio="xMinYMid" viewbox="0 0 60 60"><defs><style>.cls-1{fill:#a25ac4;}.cls-2{fill:none;stroke:#fff;stroke-width:2.93px;}.cls-3{fill:#fff;}</style></defs><title>nuevos iconos_</title><g id="elements"><rect class="cls-1" x="0.1" y="0.05" width="59.9" height="59.9" rx="8.12"/><path class="cls-2" d="M27.37,39.88a6.66,6.66,0,1,0-6.52-6.66A6.6,6.6,0,0,0,27.37,39.88Z"/><path class="cls-3" d="M11.5,52.62A4.63,4.63,0,1,0,6.87,48a4.62,4.62,0,0,0,4.63,4.63"/><rect class="cls-3" x="9.63" y="42.15" width="13.89" height="1.78" transform="translate(-25.75 24.7) rotate(-45.51)"/><path class="cls-3" d="M43.63,17.12a4.62,4.62,0,1,0-5.15-4,4.62,4.62,0,0,0,5.15,4"/><rect class="cls-3" x="27.22" y="18.78" width="20.75" height="1.78" transform="translate(-0.9 37.52) rotate(-52.5)"/><path class="cls-3" d="M9.66,22.08a4.62,4.62,0,1,0-5.15-4,4.61,4.61,0,0,0,5.15,4"/><rect class="cls-3" x="14.4" y="13.37" width="1.78" height="17.66" transform="matrix(0.61, -0.79, 0.79, 0.61, -11.63, 20.82)"/><path class="cls-3" d="M47.4,55.22a4.62,4.62,0,1,0-4.62-4.62,4.62,4.62,0,0,0,4.62,4.62"/><rect class="cls-3" x="39.83" y="34.03" width="1.78" height="20.75" transform="translate(-19.41 48.11) rotate(-51)"/><path class="cls-3" d="M55.58,31.77a4.62,4.62,0,1,0-6.5.68,4.62,4.62,0,0,0,6.5-.68"/><rect class="cls-3" x="33.06" y="29.8" width="20.75" height="1.78" transform="translate(-5.44 9.71) rotate(-12.01)"/></g></svg>