<svg xmlns="http://www.w3.org/2000/svg" xmlns:xlink="http://www.w3.org/1999/xlink" preserveAspectRatio="xMinYMid" viewbox="0 0 60 60"><defs><style>.cls-1,.cls-5{fill:none;}.cls-2{fill:#0065ab;}.cls-3{clip-path:url(#clip-path);}.cls-4{fill:#fff;}.cls-5{stroke:#fff;stroke-linecap:round;stroke-linejoin:round;stroke-width:1.09px;}</style><clipPath id="clip-path"><rect class="cls-1" x="-1.9" y="-1.9" width="63.81" height="63.81"/></clipPath></defs><title>nuevos iconos_</title><g id="elements"><circle class="cls-2" cx="30" cy="30.1" r="30"/><g class="cls-3"><path class="cls-4" d="M44.41,31.34c-2.69,2.37-6.1,5.06-8,6.53A3.31,3.31,0,0,0,36,36.64a48.58,48.58,0,0,0,6.49-5.09,1.59,1.59,0,0,1,1.91-.21m7.1-2.14h0a3.6,3.6,0,0,0-4.9.1l-.85.82a3.4,3.4,0,0,0-4.51.17,49.57,49.57,0,0,1-6.5,5.07A3.36,3.36,0,0,0,33,34.87H26.87a11.8,11.8,0,0,1-2.45-.28A11.08,11.08,0,0,0,14.24,37.8a4.87,4.87,0,0,1-1.24.92L8.85,40.86a.88.88,0,0,0-.39,1.19.9.9,0,0,0,.79.49,1,1,0,0,0,.41-.1l4.15-2.14A6.75,6.75,0,0,0,15.51,39a9.32,9.32,0,0,1,8.54-2.72,13.45,13.45,0,0,0,2.82.33H33a1.72,1.72,0,0,1,0,3.43H26a.89.89,0,1,0,0,1.77H33a3.41,3.41,0,0,0,2.29-.9h0c.35-.27,8.59-6.49,12.52-10.38a1.81,1.81,0,0,1,2.46,0,1.86,1.86,0,0,1,.63,1.3,1.92,1.92,0,0,1-.49,1.37l-1,1c-3,3.32-7.49,8.34-12.74,11.94a5.21,5.21,0,0,1-3,.91h-.08c-2.18,0-6.41-.18-10.16-.61a10.2,10.2,0,0,0-6.38,1.41l-4.35,2.63a.88.88,0,0,0-.31,1.21.89.89,0,0,0,.76.43.9.9,0,0,0,.46-.12l4.36-2.63a8.35,8.35,0,0,1,5.26-1.16c3.81.43,8.1.57,10.33.62h.12a7,7,0,0,0,4-1.22c5.42-3.72,10-8.84,13.06-12.22l1-1a3.67,3.67,0,0,0-.27-5.19"/><path class="cls-5" d="M37.22,14.74,39.1,18M39,15.44l-2-1.15v2.3m5.47,5.12H21.13V9.28h21.3Zm-7.67,3.44V26a.24.24,0,0,1-.24.24H29a.25.25,0,0,1-.25-.24v-.8h-9v1.78a.91.91,0,0,0,1,.82H42.84a.91.91,0,0,0,1-.82V25.15Zm8.11-1.7H20.69a1,1,0,0,1-1-1V8.53a1,1,0,0,1,1-1H42.87a1,1,0,0,1,1,1V22.47A1,1,0,0,1,42.87,23.45Z"/></g></g></svg>