<svg xmlns="http://www.w3.org/2000/svg" preserveAspectRatio="xMinYMid" viewbox="0 0 60 60"><defs><style>.cls-1{fill:#a25ac4;}.cls-2{fill:#fff;}</style></defs><title>estilos iconos paraeducaand_adultos</title><g id="elements"><rect class="cls-1" width="60" height="60" rx="8.13"/><path class="cls-2" d="M48.65,31.45a.8.8,0,0,0-1.28,1c3,4,4.06,7.44,2.83,9.3-2.32,3.49-13,1.8-25.12-6.28A51.67,51.67,0,0,1,12,23.47c-2.72-3.78-3.6-7-2.42-8.75s5-2.25,10.08-.89a.8.8,0,0,0,.42-1.55,23.35,23.35,0,0,0-5.89-.89c-2.82,0-4.86.82-5.94,2.44-1.6,2.41-.73,6.17,2.45,10.58A53.25,53.25,0,0,0,24.2,36.78C32,41.93,39.93,45,45.55,45c2.87,0,4.94-.83,6-2.4C53.21,40.08,52.18,36.12,48.65,31.45Z"/><polygon class="cls-2" points="31.88 23.75 31.88 23.75 31.88 23.75 31.88 23.75"/><path class="cls-2" d="M14.87,22.79a16,16,0,0,1,1.61-2.38l.24-.3v.39a2.12,2.12,0,0,0,.95,2,3.56,3.56,0,0,0,3.08-.16A4.91,4.91,0,0,1,22.07,22h.12l0,.11a5.8,5.8,0,0,1,.12.65l0,.08c.21,1.27.5,3,2.27,3.6a2.51,2.51,0,0,0,1.74-.27,5.2,5.2,0,0,1,.55-.22H27c.34.08.67.19,1,.3l.06,0a11.51,11.51,0,0,0,2.19.56,4.83,4.83,0,0,0,.67,0,3.7,3.7,0,0,0,3-1.33,2.1,2.1,0,0,0,.45-1.64,2.54,2.54,0,0,0-1.71-1.71,3.79,3.79,0,0,1-.7-.38,1.13,1.13,0,0,1-.41-1.16,1.16,1.16,0,0,1,.91-.82h.15a4.74,4.74,0,0,0,1.25-.21,2.63,2.63,0,0,0,1.27-2.19,3.21,3.21,0,0,1,.55-.83l.13-.17.06-.14.13.08a15.88,15.88,0,0,1,8,9.83l.07.26-.25-.1a3.93,3.93,0,0,0-4.41,1.21c-1.06,1.31-4.75,1.66-4.88,1.63a4,4,0,0,0-2.19,0,3.68,3.68,0,0,0-2,2.19,2.52,2.52,0,0,0-.07,1.94c.61,1.49,2.24,1.62,3.33,1.7,1.48.11,2.06.89,2.18,1.34v0l0,0a1.83,1.83,0,0,0,.78,2.21,3.54,3.54,0,0,0,2.11.72,2.42,2.42,0,0,0,1.82-.75,3.12,3.12,0,0,0,.74-1.52l0-.1c0-.14.08-.29.13-.43l0,0,0,0c.06,0,.15-.06,1.48.49l.13,0-.06.14a16,16,0,0,1-1.81,2.9l1.26,1a17.22,17.22,0,0,0,3.69-10.71A17.39,17.39,0,0,0,13.47,22Zm29.74,5.5v.08s-.08,1.13-.08,2a15.9,15.9,0,0,1-.82,5l-.05.15L42.59,35a1.41,1.41,0,0,0-1.19-.3A2.18,2.18,0,0,0,39.87,36a5.58,5.58,0,0,0-.22.7,2,2,0,0,1-.33.81l0,0a.79.79,0,0,1-.63.25l-.3,0a1.91,1.91,0,0,1-1.07-.59l-.06-.06,0-.08a1.84,1.84,0,0,0-.14-1.58,3.92,3.92,0,0,0-3.43-2c-1-.07-1.74-.17-2-.7a1,1,0,0,1,.07-.71,2.23,2.23,0,0,1,1.06-1.32,2.8,2.8,0,0,1,1.34,0l.48.09a6.67,6.67,0,0,0,5.94-2.28,3.33,3.33,0,0,1,3.94-.32ZM18.73,18.4a.6.6,0,0,0,0-.22v-.06l.05,0a15.85,15.85,0,0,1,9.9-3.49,15.66,15.66,0,0,1,5.18.88l.17.06-.1.15a14,14,0,0,0-.44,1.46c-.11.62-.19.94-.36,1a3.34,3.34,0,0,1-.59.06l-.36,0A2.7,2.7,0,0,0,31,23.09a5.43,5.43,0,0,0,1,.54h0c.53.26.76.39.79.55a.55.55,0,0,1-.15.38,2.21,2.21,0,0,1-1.78.7,2.9,2.9,0,0,1-.43,0,10.76,10.76,0,0,1-1.89-.49l-.05,0-1.09-.33a2.57,2.57,0,0,0-1.66.29l0,0a3.57,3.57,0,0,1-.53.19h-.07c-.76-.28-.94-1.07-1.16-2.33v0A6.47,6.47,0,0,0,23.54,21l-.14-.3-.3-.13a4.06,4.06,0,0,0-2.89.3c-.83.31-1.36.48-1.71.29l0,0C18.33,21,18.14,20.17,18.73,18.4Z"/><path class="cls-2" d="M28.72,46.18a15,15,0,0,1-2-.13l-.25,0,.16-.2A5.05,5.05,0,0,0,27.71,44a2.9,2.9,0,0,0-.9-3.16,3.2,3.2,0,0,0-2.49-.5,2.08,2.08,0,0,0-1.32.59,1.17,1.17,0,0,0-.2.61v.18l-.18-.06a1.51,1.51,0,0,1-.91-1,3.52,3.52,0,0,0-2.93-2.43l-.17,0v-.11a3,3,0,0,0-1.72-2.4,2.92,2.92,0,0,0-2.76.26L14,36l-.06-.17a15.82,15.82,0,0,1-1-5.46c0-.27,0-.53,0-.78l-1.6-.09c0,.29,0,.58,0,.87A17.41,17.41,0,0,0,28.72,47.78,17.17,17.17,0,0,0,36.39,46l-.72-1.43A15.71,15.71,0,0,1,28.72,46.18Zm-2.54-2.69A4.87,4.87,0,0,1,25,45.24a.7.7,0,0,0-.18.31l0,.13-.13,0a15.8,15.8,0,0,1-10-8l-.06-.13.13-.06a.7.7,0,0,0,.16-.1,1.32,1.32,0,0,1,1.32-.2A1.37,1.37,0,0,1,17,38.23v.06a1.57,1.57,0,0,0,.24.89,1.44,1.44,0,0,0,1,.56,1.46,1.46,0,0,1,.34.1c.5.24,1.38.71,1.58,1.29a3.12,3.12,0,0,0,2.33,2.11,1.57,1.57,0,0,0,1.89-1.1v0a.52.52,0,0,1,.36-.3,1.52,1.52,0,0,1,1.1.28A1.33,1.33,0,0,1,26.18,43.49Z"/></g></svg>