<svg xmlns="http://www.w3.org/2000/svg" preserveAspectRatio="xMinYMid" viewbox="0 0 60 60"><defs><style>.cls-1{fill:#0065ab;}.cls-2{fill:#fff;}</style></defs><title>estilos iconos paraeducaand_adultos</title><g id="elements"><circle class="cls-1" cx="30" cy="30" r="30"/><path class="cls-2" d="M17.87,37.07a6.25,6.25,0,0,0,6.24-6.24V18.43a6.24,6.24,0,0,0-12.48,0v12.4A6.24,6.24,0,0,0,17.87,37.07ZM13,28.75h2.76a.69.69,0,0,0,0-1.37H13V25h2.76a.68.68,0,0,0,0-1.36H13V21.32h2.76a.69.69,0,0,0,0-1.37H13V18.43a4.88,4.88,0,0,1,9.75,0V20H19.9a.69.69,0,1,0,0,1.37h2.84v2.35H19.9a.68.68,0,1,0,0,1.36h2.84v2.35H19.9a.69.69,0,1,0,0,1.37h2.84v2.08a4.88,4.88,0,1,1-9.75,0Z"/><path class="cls-2" d="M18.72,40.37a9.76,9.76,0,0,0,8.85-9.66.69.69,0,0,0-1.37,0,8.34,8.34,0,0,1-16.67,0,.68.68,0,0,0-1.36,0A9.75,9.75,0,0,0,17,40.37h.16v6.06H13.07a.69.69,0,0,0,0,1.37h9.59a.69.69,0,1,0,0-1.37H18.55V40.38Z"/><path class="cls-2" d="M42.13,37.07a6.24,6.24,0,0,0,6.24-6.24V18.43a6.24,6.24,0,1,0-12.48,0v12.4A6.25,6.25,0,0,0,42.13,37.07Zm-4.87-8.32H40a.69.69,0,0,0,0-1.37H37.26V25H40a.68.68,0,0,0,0-1.36H37.26V21.32H40A.69.69,0,0,0,40,20H37.26V18.43a4.88,4.88,0,0,1,9.75,0V20H44.16a.69.69,0,0,0,0,1.37H47v2.35H44.16a.68.68,0,1,0,0,1.36H47v2.35H44.16a.69.69,0,0,0,0,1.37H47v2.08a4.88,4.88,0,1,1-9.75,0Z"/><path class="cls-2" d="M43,40.37a9.75,9.75,0,0,0,8.85-9.66.68.68,0,0,0-1.36,0,8.34,8.34,0,0,1-16.67,0,.69.69,0,0,0-1.37,0,9.76,9.76,0,0,0,8.85,9.66h.17v6.06H37.34a.69.69,0,1,0,0,1.37h9.59a.69.69,0,0,0,0-1.37H42.82V40.38Z"/></g></svg>