<svg xmlns="http://www.w3.org/2000/svg" preserveAspectRatio="xMinYMid" viewbox="0 0 60 60"><defs><style>.cls-1{fill:#499113;}.cls-2{fill:#fff;}</style></defs><title>estilos iconos paraeducaand_adultos</title><g id="elements"><path class="cls-1" d="M58.08,25.37,34.63,1.92a6.55,6.55,0,0,0-9.26,0L1.92,25.37a6.54,6.54,0,0,0,0,9.26L25.37,58.08a6.54,6.54,0,0,0,9.26,0L58.08,34.63a6.54,6.54,0,0,0,0-9.26Z"/><g id="icon"><path id="_1" data-name="1" class="cls-2" d="M29.15,33.38a3.25,3.25,0,1,1,3.25-3.25A3.26,3.26,0,0,1,29.15,33.38Zm0-5.85a2.6,2.6,0,1,0,2.6,2.6A2.61,2.61,0,0,0,29.15,27.53Z"/><path id="_2" data-name="2" class="cls-2" d="M29.15,39.88a9.75,9.75,0,1,1,9.75-9.75A9.76,9.76,0,0,1,29.15,39.88Zm0-18.85a9.1,9.1,0,1,0,9.1,9.1A9.11,9.11,0,0,0,29.15,21Z"/><path id="_3" data-name="3" class="cls-2" d="M29.15,46.38A16.25,16.25,0,1,1,45.4,30.13,16.27,16.27,0,0,1,29.15,46.38Zm0-31.85a15.6,15.6,0,1,0,15.6,15.6A15.62,15.62,0,0,0,29.15,14.53Z"/><g id="arrow"><path id="_1-2" data-name="1" class="cls-2" d="M45.57,17.46a.32.32,0,0,0-.33-.18l-3.73.41L41.92,14a.31.31,0,0,0-.18-.33.34.34,0,0,0-.37.06l-4.14,4.14a.34.34,0,0,0-.09.19l-.45,4-7.84,7.84a.34.34,0,0,0,0,.46.35.35,0,0,0,.23.09.32.32,0,0,0,.23-.09l7.84-7.84,4-.45a.34.34,0,0,0,.19-.09l4.14-4.14A.32.32,0,0,0,45.57,17.46Z"/></g></g></g></svg>