<svg xmlns="http://www.w3.org/2000/svg" preserveAspectRatio="xMinYMid" viewbox="0 0 60 60"><defs><style>.cls-1{fill:#0065ab;}.cls-2{fill:#fff;}</style></defs><title>estilos iconos paraeducaand_adultos</title><g id="elements"><circle class="cls-1" cx="30" cy="30" r="30"/><circle class="cls-2" cx="25.43" cy="28.17" r="1.83"/><circle class="cls-2" cx="18.11" cy="28.17" r="1.83"/><circle class="cls-2" cx="32.74" cy="28.17" r="1.83"/><path class="cls-2" d="M42.57,28.17c0-7.94-7.69-14.4-17.14-14.4S8.28,20.23,8.28,28.17a12.75,12.75,0,0,0,3,8.13L9.22,43.53a.69.69,0,0,0,.24.72.66.66,0,0,0,.42.15.69.69,0,0,0,.34-.09l6.63-3.68a19.75,19.75,0,0,0,8.58,1.94C34.88,42.57,42.57,36.11,42.57,28.17Zm-17.14,13a18.23,18.23,0,0,1-8.28-2,.71.71,0,0,0-.65,0L11,42.31l1.71-6a.71.71,0,0,0-.14-.64,11.45,11.45,0,0,1-2.91-7.52c0-7.18,7.07-13,15.77-13S41.2,21,41.2,28.17,34.13,41.2,25.43,41.2Z"/><path class="cls-2" d="M50.49,39.76a11.52,11.52,0,0,0,1.23-5.19A11.66,11.66,0,0,0,45.5,24.26a.68.68,0,1,0-.64,1.21,10.28,10.28,0,0,1,5.48,9.1,10.1,10.1,0,0,1-1.18,4.78.72.72,0,0,0-.06.46l1,4.62L46.5,43a.73.73,0,0,0-.64.07,10.28,10.28,0,0,1-11.44.12.68.68,0,0,0-1,.2.69.69,0,0,0,.2.95,11.66,11.66,0,0,0,12.65.07l4.46,1.78a.67.67,0,0,0,.69-.11.68.68,0,0,0,.23-.67Z"/></g></svg>