<svg xmlns="http://www.w3.org/2000/svg" preserveAspectRatio="xMinYMid" viewbox="0 0 60 60"><defs><style>.cls-1{fill:#a25ac4;}.cls-2{fill:#fff;}</style></defs><title>estilos iconos paraeducaand_adultos</title><g id="elements"><rect class="cls-1" width="60" height="60" rx="8.13"/><path class="cls-2" d="M30,12.17a1.07,1.07,0,0,0,1.07-1.07V6.85a1.08,1.08,0,0,0-2.15,0V11.1A1.08,1.08,0,0,0,30,12.17Z"/><path class="cls-2" d="M21.51,13.66a1.07,1.07,0,0,0,.93.54,1,1,0,0,0,.53-.15,1.07,1.07,0,0,0,.4-1.47L21.25,8.91A1.08,1.08,0,0,0,19.38,10Z"/><path class="cls-2" d="M17.44,17.73l-3.68-2.12a1.07,1.07,0,0,0-1.07,1.86l3.67,2.12a1.06,1.06,0,0,0,.54.14,1.07,1.07,0,0,0,.54-2Z"/><path class="cls-2" d="M16,26.22a1.07,1.07,0,0,0-1.08-1.07H10.63a1.08,1.08,0,0,0,0,2.15h4.24A1.08,1.08,0,0,0,16,26.22Z"/><path class="cls-2" d="M16.36,32.85,12.69,35a1.07,1.07,0,0,0-.39,1.47,1.05,1.05,0,0,0,.93.54,1.13,1.13,0,0,0,.53-.14l3.68-2.12a1.08,1.08,0,0,0-1.08-1.87Z"/><path class="cls-2" d="M47.31,35l-3.67-2.13a1.08,1.08,0,0,0-1.08,1.87l3.68,2.12a1,1,0,0,0,.53.14,1.07,1.07,0,0,0,.54-2Z"/><path class="cls-2" d="M49.37,25.15H45.13a1.08,1.08,0,1,0,0,2.15h4.24a1.08,1.08,0,0,0,0-2.15Z"/><path class="cls-2" d="M43.1,19.73a1.06,1.06,0,0,0,.54-.14l3.67-2.12A1.07,1.07,0,0,0,47.7,16a1.06,1.06,0,0,0-1.46-.39l-3.68,2.12a1.07,1.07,0,0,0,.54,2Z"/><path class="cls-2" d="M37,14.05a1,1,0,0,0,.53.15,1.07,1.07,0,0,0,.93-.54L40.62,10a1.08,1.08,0,0,0-1.87-1.08l-2.12,3.67A1.07,1.07,0,0,0,37,14.05Z"/><path class="cls-2" d="M30,14.56A11.69,11.69,0,0,0,18.32,26.24c0,3.52,1.54,5.65,2.9,7.53,1.15,1.59,2.14,3,2.28,5l.07,1.06a2,2,0,0,0,2,1.84h8.94a2,2,0,0,0,2-1.85l.06-1c.15-2.1,1.14-3.47,2.29-5.06,1.36-1.88,2.9-4,2.9-7.53A11.69,11.69,0,0,0,30,14.56Zm7,17.95a11.35,11.35,0,0,0-2.69,6.18l-.06.87H25.71l-.06-.88A11.35,11.35,0,0,0,23,32.51c-1.28-1.77-2.49-3.44-2.49-6.27a9.53,9.53,0,0,1,19.06,0C39.53,29.07,38.32,30.74,37,32.51Z"/><path class="cls-2" d="M34.37,43.33H25.63a1.08,1.08,0,1,0,0,2.15h8.74a1.08,1.08,0,1,0,0-2.15Z"/><path class="cls-2" d="M34.37,46.93H25.63a1.08,1.08,0,1,0,0,2.15h8.74a1.08,1.08,0,1,0,0-2.15Z"/><path class="cls-2" d="M30,18a8.28,8.28,0,0,0-8.27,8.27,1.08,1.08,0,1,0,2.15,0A6.13,6.13,0,0,1,30,20.1,1.08,1.08,0,0,0,30,18Z"/><path class="cls-2" d="M26.71,53.35a1.52,1.52,0,0,0,1.39.87h3.8a1.5,1.5,0,0,0,1.39-.87l1.35-2.85H25.36Z"/></g></svg>