<svg xmlns="http://www.w3.org/2000/svg" preserveAspectRatio="xMinYMid" viewbox="0 0 60 60"><defs><style>.cls-1{fill:#0065ab;}.cls-2{fill:#fff;}</style></defs><title>estilos iconos paraeducaand_adultos</title><g id="elements"><circle class="cls-1" cx="30" cy="30" r="30"/><path class="cls-2" d="M30,39.24a8.16,8.16,0,0,0,8.15-8.15V14.9a8.15,8.15,0,0,0-16.3,0V31.09A8.16,8.16,0,0,0,30,39.24ZM23.63,28.37h3.61a.9.9,0,0,0,0-1.79H23.63V23.51h3.61a.89.89,0,0,0,0-1.78H23.63V18.66h3.61a.89.89,0,0,0,0-1.78H23.63v-2a6.37,6.37,0,1,1,12.74,0v2H32.65a.89.89,0,0,0,0,1.78h3.72v3.07H32.65a.89.89,0,0,0,0,1.78h3.72v3.07H32.65a.9.9,0,0,0,0,1.79h3.72v2.72a6.37,6.37,0,0,1-12.74,0Z"/><path class="cls-2" d="M31.11,43.54A12.74,12.74,0,0,0,42.66,30.93a.89.89,0,0,0-1.78,0,10.88,10.88,0,0,1-21.76,0,.89.89,0,0,0-1.78,0A12.74,12.74,0,0,0,28.89,43.54l.22,0v7.91H23.74a.89.89,0,1,0,0,1.78H36.26a.89.89,0,1,0,0-1.78H30.89V43.56Z"/></g></svg>