<svg xmlns="http://www.w3.org/2000/svg" preserveAspectRatio="xMinYMid" viewbox="0 0 60 60"><defs><style>.cls-1{fill:#499113;}.cls-2{fill:#fff;}</style></defs><title>estilos iconos paraeducaand_adultos</title><g id="back"><path class="cls-1" d="M58.08,25.37,34.63,1.92a6.55,6.55,0,0,0-9.26,0L1.92,25.37a6.54,6.54,0,0,0,0,9.26L25.37,58.08a6.54,6.54,0,0,0,9.26,0L58.08,34.63a6.54,6.54,0,0,0,0-9.26Z"/></g><g id="elements"><path class="cls-2" d="M44.22,18.19a2.29,2.29,0,0,0-2.28-2.28H18.41a2.5,2.5,0,0,0-2.5,2.5V41.59a2.5,2.5,0,0,0,2.5,2.5H41.59a2.49,2.49,0,0,0,2.48-2.34,2.91,2.91,0,0,0,.15-.89Zm-1.13,10H37.8v-7h5.29Zm-6.29,0H31.74v-7H36.8Zm-6.06,0H25.58v-7h5.16Zm0,1v6.63H25.58V29.15Zm1,0H36.8v6.63H31.74Zm6.06,0h5.29v6.63H37.8Zm3.79-12.24a1.5,1.5,0,0,1,1.5,1.5v1.73H37.8v-3a.23.23,0,0,1,.23-.23Zm-4.74,0a1,1,0,0,0-.05.23v3H31.74V16.91Zm-6.11,0v3.23H25.58V16.91Zm-13.83,1.5a1.5,1.5,0,0,1,1.5-1.5h6.17v3.23H16.91Zm0,2.73h7.67v7H16.91Zm7.67,8v6.63H16.91V29.15ZM18.41,43.09a1.5,1.5,0,0,1-1.5-1.5V36.78h7.67v6.31Zm7.17,0V36.78h5.16v6.31Zm6.16-6.31H36.8v6.08a1,1,0,0,0,.05.23H31.74ZM38,43.09a.23.23,0,0,1-.23-.23V36.78h5.29v4.78A2.22,2.22,0,0,1,41,43.09Z"/><polygon class="cls-2" points="27.68 34.17 30 31.85 29.29 31.14 27.74 32.7 27.05 31.91 26.29 32.56 27.68 34.17"/><polygon class="cls-2" points="39.98 26.22 42.3 23.9 41.59 23.2 40.04 24.75 39.35 23.96 38.59 24.61 39.98 26.22"/><polygon class="cls-2" points="33.85 39.77 33.16 38.97 32.41 39.63 33.8 41.23 36.11 38.92 35.41 38.21 33.85 39.77"/><rect class="cls-2" x="18.74" y="24.12" width="4.41" height="1"/><rect class="cls-2" x="18.74" y="39.03" width="4.41" height="1"/><rect class="cls-2" x="18.74" y="31.96" width="4.41" height="1"/><path class="cls-1" d="M16.93,16.91H43.07a0,0,0,0,1,0,0v1.63a1.58,1.58,0,0,1-1.58,1.58h-23a1.58,1.58,0,0,1-1.58-1.58V16.91a0,0,0,0,1,0,0Z" transform="translate(60 37.03) rotate(180)"/></g></svg>