<svg xmlns="http://www.w3.org/2000/svg" preserveAspectRatio="xMinYMid" viewbox="0 0 60 60"><defs><style>.cls-1{fill:#0065ab;}.cls-2{fill:#fff;}</style></defs><title>estilos iconos paraeducaand_adultos</title><g id="elements"><circle class="cls-1" cx="30" cy="30" r="30"/><path class="cls-2" d="M49.08,18H47.69a.79.79,0,1,0,0,1.57h.6V42.27a.54.54,0,0,1-.54.54H33.29l.6-.24a30.71,30.71,0,0,1,10.4-2,1.4,1.4,0,0,0,1.39-1.4V17a1.37,1.37,0,0,0-.41-1,1.43,1.43,0,0,0-1-.41h0a31,31,0,0,0-14.21,3.71l-.06,0-.06,0a31,31,0,0,0-14.21-3.71h0a1.43,1.43,0,0,0-1,.41,1.37,1.37,0,0,0-.41,1V39.13a1.4,1.4,0,0,0,1.39,1.4,30.71,30.71,0,0,1,10.4,2l.6.24H12.25a.54.54,0,0,1-.54-.54V19.55h.6a.79.79,0,1,0,0-1.57H10.92a.78.78,0,0,0-.78.78V42.27a2.11,2.11,0,0,0,2.11,2.12h35.5a2.11,2.11,0,0,0,2.11-2.12V18.76A.78.78,0,0,0,49.08,18ZM29.21,42.26l-.18-.1A31.33,31.33,0,0,0,16,39h-.12V17.19H16a29.17,29.17,0,0,1,13.13,3.48l.06,0Zm1.58,0V20.71l.06,0A29.17,29.17,0,0,1,44,17.19h.13V39H44a31.33,31.33,0,0,0-13,3.2Z"/></g></svg>