<svg xmlns="http://www.w3.org/2000/svg" preserveAspectRatio="xMinYMid" viewbox="0 0 60 60"><defs><style>.cls-1{fill:#a25ac4;}.cls-2{fill:#fff;}</style></defs><title>nuevos iconos_</title><g id="elements"><rect class="cls-1" y="-0.13" width="60.08" height="60.08" rx="8.14"/><path class="cls-2" d="M17.5,22.25A12.59,12.59,0,0,1,24.5,11Q15,13.06,5.46,22.25q9.51,9.2,19,11.28a12.57,12.57,0,0,1-7-11.28"/><path class="cls-2" d="M42.66,22.25a12.57,12.57,0,0,1-7,11.28q9.51-2.09,19-11.28-9.53-9.19-19-11.28a12.59,12.59,0,0,1,7,11.28"/><path class="cls-2" d="M30.08,31.77a9.52,9.52,0,1,0-9.52-9.52,9.52,9.52,0,0,0,9.52,9.52"/><path class="cls-2" d="M41.39,46.55v-.39a2.21,2.21,0,0,0-2.22-2.22,2.29,2.29,0,0,0-.93.2A2.23,2.23,0,0,0,36,42.26a2.14,2.14,0,0,0-.93.21,2.24,2.24,0,0,0-2.2-1.88,2.14,2.14,0,0,0-.9.19V35.73a2.23,2.23,0,0,0-4.45,0V45c-1.51-2.06-2.89-2.29-3.43-2.29a1.84,1.84,0,0,0-1.63.88,1.78,1.78,0,0,0,.06,1.78,13.15,13.15,0,0,1,1.67,5,10.24,10.24,0,0,0,2.29,5,5.13,5.13,0,0,1,1.15,1.89,1.69,1.69,0,0,0,1.62,1.21h8.5A1.68,1.68,0,0,0,39.46,57,5.37,5.37,0,0,1,40,55.2C41.42,52.78,41.4,48.41,41.39,46.55ZM29.78,34.83a.9.9,0,0,1,.91.9v7.08a.66.66,0,0,0,1.32,0,.91.91,0,1,1,1.81,0v1.67a.66.66,0,1,0,1.31,0,.91.91,0,0,1,1.81,0v1.68a.66.66,0,0,0,1.32,0,.91.91,0,1,1,1.81,0v.4c0,1.76,0,5.88-1.17,8a6.48,6.48,0,0,0-.74,2.25.37.37,0,0,1-.37.32h-8.5a.37.37,0,0,1-.36-.27,6.48,6.48,0,0,0-1.46-2.43,8.88,8.88,0,0,1-1.94-4.35,14.42,14.42,0,0,0-1.84-5.39.45.45,0,0,1,0-.45.52.52,0,0,1,.48-.22c.79,0,2.18,1,3.5,3.65a.68.68,0,0,0,.74.35.65.65,0,0,0,.51-.64V35.73A.9.9,0,0,1,29.78,34.83Z"/><circle class="cls-1" cx="29.71" cy="22.25" r="3.87"/></g></svg>