<svg xmlns="http://www.w3.org/2000/svg" preserveAspectRatio="xMinYMid" viewbox="0 0 60 60"><defs><style>.cls-1{fill:#0065ab;}.cls-2{fill:#fff;}</style></defs><title>estilos iconos paraeducaand_adultos</title><g id="elements"><circle class="cls-1" cx="30" cy="30" r="30"/><path class="cls-2" d="M23.89,15.48A1.58,1.58,0,0,0,22.83,17V21h0V38.1a6.59,6.59,0,1,0,2.44,5V22.76L40.54,17V31.51A6.56,6.56,0,0,0,36,30,6.59,6.59,0,1,0,43,36.53V10.58a1.6,1.6,0,0,0-2.13-1.51ZM18.68,47.37a4.15,4.15,0,1,1,4.15-4.15A4.16,4.16,0,0,1,18.68,47.37Zm21.86-33-15.27,5.8V17.58l15.27-5.8v2.59ZM36.39,40.78a4.16,4.16,0,1,1,4.15-4.15A4.15,4.15,0,0,1,36.39,40.78Z"/></g></svg>