<svg id="back" xmlns="http://www.w3.org/2000/svg" preserveAspectRatio="xMinYMid" viewbox="0 0 60 60"><defs><style>.cls-1{fill:#0065ab;}.cls-2{fill:#a25ac4;}</style></defs><title>estilos iconos paraeducaand_adultos</title><path class="cls-1" d="M46.54,5.43a9.13,9.13,0,0,0-6.73-4.28,11.76,11.76,0,0,0-9.47,3.21l-.44.42-.43-.42A11.77,11.77,0,0,0,20,1.15a9.09,9.09,0,0,0-6.73,4.28,10,10,0,0,0,.89,11.62L29.05,32.12a1.21,1.21,0,0,0,.85.36,1.18,1.18,0,0,0,.85-.36L45.72,17A9.89,9.89,0,0,0,46.54,5.43Z"/><path class="cls-2" d="M58.16,27.78h0a4.82,4.82,0,0,0-6.59.13c-.35.35-.74.72-1.16,1.11a4.54,4.54,0,0,0-6.07.23,65.45,65.45,0,0,1-8.76,6.82,4.69,4.69,0,0,0-2.34-.65H25a15.63,15.63,0,0,1-3.3-.38A14.94,14.94,0,0,0,7.93,39.36a6.33,6.33,0,0,1-1.68,1.25L.65,43.49a1.2,1.2,0,0,0,.55,2.26,1.13,1.13,0,0,0,.54-.13l5.6-2.88A8.79,8.79,0,0,0,9.63,41a12.56,12.56,0,0,1,11.52-3.66,18.51,18.51,0,0,0,3.8.43h8.29a2.32,2.32,0,0,1,0,4.63H23.73a1.2,1.2,0,0,0,0,2.39h9.51a4.65,4.65,0,0,0,3.1-1.21l0,0c.47-.36,11.58-8.75,16.88-14a2.43,2.43,0,0,1,3.32-.05,2.55,2.55,0,0,1,.19,3.6l-1.28,1.42c-4,4.48-10.11,11.25-17.19,16.11a7.05,7.05,0,0,1-4,1.22h-.11c-2.94-.06-8.63-.24-13.7-.82A13.71,13.71,0,0,0,11.88,53L6,56.53a1.2,1.2,0,0,0,.62,2.22,1.23,1.23,0,0,0,.62-.17L13.11,55a11.32,11.32,0,0,1,7.09-1.57c5.13.58,10.93.77,13.93.83h.16a9.39,9.39,0,0,0,5.36-1.64c7.31-5,13.5-11.91,17.61-16.48l1.27-1.41a4.93,4.93,0,0,0-.37-7Zm-9.57,2.88c-3.62,3.19-8.21,6.82-10.76,8.8a4.73,4.73,0,0,0-.55-1.65A66,66,0,0,0,46,31,2.12,2.12,0,0,1,48.59,30.66Z"/></svg>