<svg version="1.1" xmlns="http://www.w3.org/2000/svg" xmlns:xlink="http://www.w3.org/1999/xlink" width="360" height="356"><defs><clipPath id="CfokWzMhCrmO"><path fill="none" stroke="none" d=" M 0 0 L 360 0 L 360 356 L 0 356 L 0 0 Z"/></clipPath></defs><g transform="scale(1,1)" clip-path="url(#CfokWzMhCrmO)"><g transform="translate(-15.999999999999957,-26.999999999999886)"><path fill="#000000" stroke="none" paint-order="stroke fill markers" fill-rule="evenodd" d=" M 441.5 238 L 462.5 238 C 463.880711874577 238 465 239.11928812542303 465 240.5 L 465 261.5 C 465 262.880711874577 463.880711874577 264 462.5 264 L 441.5 264 C 440.119288125423 264 439 262.880711874577 439 261.5 L 439 240.5 C 439 239.11928812542303 440.119288125423 238 441.5 238 Z"/><path fill="none" stroke="rgb(0,0,0)" paint-order="fill stroke markers" d=" M 441.5 238 L 462.5 238 C 463.880711874577 238 465 239.11928812542303 465 240.5 L 465 261.5 C 465 262.880711874577 463.880711874577 264 462.5 264 L 441.5 264 C 440.119288125423 264 439 262.880711874577 439 261.5 L 439 240.5 C 439 239.11928812542303 440.119288125423 238 441.5 238 Z" stroke-opacity="1" stroke-linecap="round" stroke-linejoin="round" stroke-miterlimit="10"/><text fill="rgb(0,0,0)" stroke="none" font-family="geogebra-sans-serif, sans-serif" font-size="16px" font-style="normal" font-weight="normal" text-decoration="normal" x="474" y="257" text-anchor="start" dominant-baseline="alphabetic" fill-opacity="1">Configurar</text><path fill="rgb(255,255,255)" stroke="none" paint-order="stroke fill markers" fill-rule="evenodd" d=" M 438.5 78 L 459.5 78 C 460.880711874577 78 462 79.11928812542301 462 80.5 L 462 101.5 C 462 102.88071187457699 460.880711874577 104 459.5 104 L 438.5 104 C 437.119288125423 104 436 102.88071187457699 436 101.5 L 436 80.5 C 436 79.11928812542301 437.119288125423 78 438.5 78 Z" fill-opacity="1"/><path fill="none" stroke="rgb(0,0,0)" paint-order="fill stroke markers" d=" M 438.5 78 L 459.5 78 C 460.880711874577 78 462 79.11928812542301 462 80.5 L 462 101.5 C 462 102.88071187457699 460.880711874577 104 459.5 104 L 438.5 104 C 437.119288125423 104 436 102.88071187457699 436 101.5 L 436 80.5 C 436 79.11928812542301 437.119288125423 78 438.5 78 Z" stroke-opacity="1" stroke-linecap="round" stroke-linejoin="round" stroke-miterlimit="10"/><text fill="rgb(0,0,0)" stroke="none" font-family="geogebra-sans-serif, sans-serif" font-size="16px" font-style="normal" font-weight="normal" text-decoration="normal" x="471" y="97" text-anchor="start" dominant-baseline="alphabetic" fill-opacity="1">Brillo</text><path fill="rgb(255,255,255)" stroke="none" paint-order="stroke fill markers" fill-rule="evenodd" d=" M 442.5 313 L 463.5 313 C 464.880711874577 313 466 314.119288125423 466 315.5 L 466 336.5 C 466 337.880711874577 464.880711874577 339 463.5 339 L 442.5 339 C 441.119288125423 339 440 337.880711874577 440 336.5 L 440 315.5 C 440 314.119288125423 441.119288125423 313 442.5 313 Z" fill-opacity="1"/><path fill="none" stroke="rgb(0,0,0)" paint-order="fill stroke markers" d=" M 442.5 313 L 463.5 313 C 464.880711874577 313 466 314.119288125423 466 315.5 L 466 336.5 C 466 337.880711874577 464.880711874577 339 463.5 339 L 442.5 339 C 441.119288125423 339 440 337.880711874577 440 336.5 L 440 315.5 C 440 314.119288125423 441.119288125423 313 442.5 313 Z" stroke-opacity="1" stroke-linecap="round" stroke-linejoin="round" stroke-miterlimit="10"/><text fill="rgb(0,0,0)" stroke="none" font-family="geogebra-sans-serif, sans-serif" font-size="16px" font-style="normal" font-weight="normal" text-decoration="normal" x="475" y="332" text-anchor="start" dominant-baseline="alphabetic" fill-opacity="1">Zona a exportar</text><path fill="rgb(255,255,255)" stroke="none" paint-order="stroke fill markers" fill-rule="evenodd" d=" M 438.5 133 L 459.5 133 C 460.880711874577 133 462 134.11928812542303 462 135.5 L 462 156.5 C 462 157.88071187457697 460.880711874577 159 459.5 159 L 438.5 159 C 437.119288125423 159 436 157.88071187457697 436 156.5 L 436 135.5 C 436 134.11928812542303 437.119288125423 133 438.5 133 Z" fill-opacity="1"/><path fill="none" stroke="rgb(0,0,0)" paint-order="fill stroke markers" d=" M 438.5 133 L 459.5 133 C 460.880711874577 133 462 134.11928812542303 462 135.5 L 462 156.5 C 462 157.88071187457697 460.880711874577 159 459.5 159 L 438.5 159 C 437.119288125423 159 436 157.88071187457697 436 156.5 L 436 135.5 C 436 134.11928812542303 437.119288125423 133 438.5 133 Z" stroke-opacity="1" stroke-linecap="round" stroke-linejoin="round" stroke-miterlimit="10"/><path fill="none" stroke="rgb(68,68,68)" paint-order="fill stroke markers" d=" M 441 148 L 446 153 Z" stroke-opacity="1" stroke-linecap="round" stroke-linejoin="round" stroke-miterlimit="10" stroke-width="4"/><path fill="none" stroke="rgb(68,68,68)" paint-order="fill stroke markers" d=" M 446 153 L 456 139 Z" stroke-opacity="1" stroke-linecap="round" stroke-linejoin="round" stroke-miterlimit="10" stroke-width="4"/><text fill="rgb(0,0,0)" stroke="none" font-family="geogebra-sans-serif, sans-serif" font-size="16px" font-style="normal" font-weight="normal" text-decoration="normal" x="471" y="152" text-anchor="start" dominant-baseline="alphabetic" fill-opacity="1">Fondo</text><path fill="rgb(255,255,255)" stroke="none" paint-order="stroke fill markers" fill-rule="evenodd" d=" M 437.5 43 L 458.5 43 C 459.880711874577 43 461 44.11928812542302 461 45.5 L 461 66.5 C 461 67.88071187457699 459.880711874577 69 458.5 69 L 437.5 69 C 436.119288125423 69 435 67.88071187457699 435 66.5 L 435 45.5 C 435 44.11928812542302 436.119288125423 43 437.5 43 Z" fill-opacity="1"/><path fill="none" stroke="rgb(0,0,0)" paint-order="fill stroke markers" d=" M 437.5 43 L 458.5 43 C 459.880711874577 43 461 44.11928812542302 461 45.5 L 461 66.5 C 461 67.88071187457699 459.880711874577 69 458.5 69 L 437.5 69 C 436.119288125423 69 435 67.88071187457699 435 66.5 L 435 45.5 C 435 44.11928812542302 436.119288125423 43 437.5 43 Z" stroke-opacity="1" stroke-linecap="round" stroke-linejoin="round" stroke-miterlimit="10"/><text fill="rgb(0,0,0)" stroke="none" font-family="geogebra-sans-serif, sans-serif" font-size="16px" font-style="normal" font-weight="normal" text-decoration="normal" x="470" y="62" text-anchor="start" dominant-baseline="alphabetic" fill-opacity="1">Encendido</text><path fill="rgb(255,255,255)" stroke="none" paint-order="stroke fill markers" fill-rule="evenodd" d=" M 560.5 44 L 581.5 44 C 582.880711874577 44 584 45.11928812542302 584 46.5 L 584 67.5 C 584 68.88071187457699 582.880711874577 70 581.5 70 L 560.5 70 C 559.119288125423 70 558 68.88071187457699 558 67.5 L 558 46.5 C 558 45.11928812542302 559.119288125423 44 560.5 44 Z" fill-opacity="1"/><path fill="none" stroke="rgb(0,0,0)" paint-order="fill stroke markers" d=" M 560.5 44 L 581.5 44 C 582.880711874577 44 584 45.11928812542302 584 46.5 L 584 67.5 C 584 68.88071187457699 582.880711874577 70 581.5 70 L 560.5 70 C 559.119288125423 70 558 68.88071187457699 558 67.5 L 558 46.5 C 558 45.11928812542302 559.119288125423 44 560.5 44 Z" stroke-opacity="1" stroke-linecap="round" stroke-linejoin="round" stroke-miterlimit="10"/><text fill="rgb(0,0,0)" stroke="none" font-family="geogebra-sans-serif, sans-serif" font-size="16px" font-style="normal" font-weight="normal" text-decoration="normal" x="593" y="63" text-anchor="start" dominant-baseline="alphabetic" fill-opacity="1">Filamento</text><path fill="rgb(255,255,255)" stroke="none" paint-order="stroke fill markers" fill-rule="evenodd" d=" M 439.5 170 L 460.5 170 C 461.880711874577 170 463 171.11928812542303 463 172.5 L 463 193.5 C 463 194.88071187457697 461.880711874577 196 460.5 196 L 439.5 196 C 438.119288125423 196 437 194.88071187457697 437 193.5 L 437 172.5 C 437 171.11928812542303 438.119288125423 170 439.5 170 Z" fill-opacity="1"/><path fill="none" stroke="rgb(0,0,0)" paint-order="fill stroke markers" d=" M 439.5 170 L 460.5 170 C 461.880711874577 170 463 171.11928812542303 463 172.5 L 463 193.5 C 463 194.88071187457697 461.880711874577 196 460.5 196 L 439.5 196 C 438.119288125423 196 437 194.88071187457697 437 193.5 L 437 172.5 C 437 171.11928812542303 438.119288125423 170 439.5 170 Z" stroke-opacity="1" stroke-linecap="round" stroke-linejoin="round" stroke-miterlimit="10"/><text fill="rgb(0,0,0)" stroke="none" font-family="geogebra-sans-serif, sans-serif" font-size="16px" font-style="normal" font-weight="normal" text-decoration="normal" x="472" y="189" text-anchor="start" dominant-baseline="alphabetic" fill-opacity="1">Sombra</text><path fill="rgb(255,255,255)" stroke="none" paint-order="stroke fill markers" fill-rule="evenodd" d=" M 559.5 78 L 580.5 78 C 581.880711874577 78 583 79.11928812542301 583 80.5 L 583 101.5 C 583 102.88071187457699 581.880711874577 104 580.5 104 L 559.5 104 C 558.119288125423 104 557 102.88071187457699 557 101.5 L 557 80.5 C 557 79.11928812542301 558.119288125423 78 559.5 78 Z" fill-opacity="1"/><path fill="none" stroke="rgb(0,0,0)" paint-order="fill stroke markers" d=" M 559.5 78 L 580.5 78 C 581.880711874577 78 583 79.11928812542301 583 80.5 L 583 101.5 C 583 102.88071187457699 581.880711874577 104 580.5 104 L 559.5 104 C 558.119288125423 104 557 102.88071187457699 557 101.5 L 557 80.5 C 557 79.11928812542301 558.119288125423 78 559.5 78 Z" stroke-opacity="1" stroke-linecap="round" stroke-linejoin="round" stroke-miterlimit="10"/><path fill="none" stroke="rgb(68,68,68)" paint-order="fill stroke markers" d=" M 562 93 L 567 98 Z" stroke-opacity="1" stroke-linecap="round" stroke-linejoin="round" stroke-miterlimit="10" stroke-width="4"/><path fill="none" stroke="rgb(68,68,68)" paint-order="fill stroke markers" d=" M 567 98 L 577 84 Z" stroke-opacity="1" stroke-linecap="round" stroke-linejoin="round" stroke-miterlimit="10" stroke-width="4"/><text fill="rgb(0,0,0)" stroke="none" font-family="geogebra-sans-serif, sans-serif" font-size="16px" font-style="normal" font-weight="normal" text-decoration="normal" x="592" y="97" text-anchor="start" dominant-baseline="alphabetic" fill-opacity="1">Casquillo</text><path fill="rgb(149,75,181)" stroke="none" paint-order="stroke fill markers" d=" M 366.99999999999994 204.25 C 366.99999999999994 299.79526172072724 289.5452617207272 377.2500000000001 193.99999999999994 377.2500000000001 C 98.45473827927269 377.2500000000001 20.999999999999943 299.79526172072724 20.999999999999943 204.25 C 20.999999999999943 108.7047382792727 98.45473827927269 31.249999999999915 193.99999999999994 31.249999999999915 C 289.5452617207272 31.249999999999915 366.99999999999994 108.7047382792727 366.99999999999994 204.25 Z" fill-opacity="0.6352941176470588"/><path fill="none" stroke="rgb(149,75,181)" paint-order="fill stroke markers" d=" M 366.99999999999994 204.25 C 366.99999999999994 299.79526172072724 289.5452617207272 377.2500000000001 193.99999999999994 377.2500000000001 C 98.45473827927269 377.2500000000001 20.999999999999943 299.79526172072724 20.999999999999943 204.25 C 20.999999999999943 108.7047382792727 98.45473827927269 31.249999999999915 193.99999999999994 31.249999999999915 C 289.5452617207272 31.249999999999915 366.99999999999994 108.7047382792727 366.99999999999994 204.25 Z" stroke-opacity="0.6980392156862745" stroke-linecap="round" stroke-linejoin="round" stroke-miterlimit="10" stroke-width="2.5"/><path fill="rgb(255,255,255)" stroke="none" paint-order="stroke fill markers" d=" M 193.99999999999994 104.99999999999993 C 152.02635901285964 104.99999999999993 117.99999999999991 139.02635901285967 117.99999999999991 181 C 117.99999999999991 200.0475373199231 125.00712490687653 217.45847292636554 136.5842442132939 230.79567631199154 L 136.5842441996355 230.79567631199154 C 151.12311737381964 247.967901663254 160.1669589537427 269.94085802244814 161.00122354983088 294.00000000000006 L 226.99877645016906 294.00000000000006 C 227.8330410375601 269.94085827326285 236.87688243761758 247.9679021213868 251.41575534566454 230.79567684904896 L 251.41575532052298 230.79567684904896 C 262.99287490501655 217.4584733937635 270 200.04753757558942 270 181 C 270 139.02635901285967 235.97364098714024 104.99999999999993 193.99999999999994 104.99999999999993 Z" fill-opacity="1"/><path fill="none" stroke="rgb(187,187,187)" paint-order="fill stroke markers" d=" M 210.49999999999994 294.00000000000006 L 226.99999999999994 181 L 160.99999999999994 181 L 177.49999999999994 294.00000000000006" stroke-opacity="1" stroke-linecap="round" stroke-linejoin="round" stroke-miterlimit="10" stroke-width="10"/><path fill="rgb(192,192,192)" stroke="none" paint-order="stroke fill markers" d=" M 193.99999999999994 294.00000000000006 L 193.99999999999994 346.0000000000001 C 212.22539674441614 346.0000000000001 227 331.2253967444163 227 313.00000000000006 L 226.99999999999994 313.00000000000006 L 226.99999999999994 294.00000000000006 Z" fill-opacity="1"/><path fill="rgb(224,224,224)" stroke="none" paint-order="stroke fill markers" d=" M 160.99999999999991 294.00000000000006 L 160.99999999999994 313.00000000000006 L 160.99999999999983 313.00000000000006 C 160.99999999999983 331.2253967444163 175.77460325558368 346.00000000000017 193.99999999999994 346.00000000000017 L 193.99999999999991 294.00000000000006 Z" fill-opacity="1"/><path fill="rgb(255,102,0)" stroke="none" paint-order="stroke fill markers" d=" M 193.99999999999994 294.00000000000006 L 193.99999999999994 346.0000000000001 C 212.22539674441614 346.0000000000001 227 331.2253967444163 227 313.00000000000006 L 226.99999999999994 313.00000000000006 L 226.99999999999994 294.00000000000006 Z" fill-opacity="0.7490196078431373"/><path fill="rgb(255,153,51)" stroke="none" paint-order="stroke fill markers" d=" M 160.99999999999991 294.00000000000006 L 160.99999999999994 313.00000000000006 L 160.99999999999983 313.00000000000006 C 160.99999999999983 331.2253967444163 175.77460325558368 346.00000000000017 193.99999999999994 346.00000000000017 L 193.99999999999991 294.00000000000006 Z" fill-opacity="0.7490196078431373"/><path fill="rgb(224,176,255)" stroke="none" paint-order="stroke fill markers" fill-rule="evenodd" d=" M 484 359 L 612 359 C 613.6568542494924 359 615 360.34314575050763 615 362 L 615 385 C 615 386.65685424949237 613.6568542494924 388 612 388 L 484 388 C 482.34314575050763 388 481 386.65685424949237 481 385 L 481 362 C 481 360.34314575050763 482.34314575050763 359 484 359 Z" fill-opacity="1"/><path fill="none" stroke="rgb(156,123,178)" paint-order="fill stroke markers" d=" M 484 359 L 612 359 C 613.6568542494924 359 615 360.34314575050763 615 362 L 615 385 C 615 386.65685424949237 613.6568542494924 388 612 388 L 484 388 C 482.34314575050763 388 481 386.65685424949237 481 385 L 481 362 C 481 360.34314575050763 482.34314575050763 359 484 359 Z" stroke-opacity="1" stroke-linecap="round" stroke-linejoin="round" stroke-miterlimit="10"/><text fill="rgb(0,0,0)" stroke="none" font-family="geogebra-sans-serif, sans-serif" font-size="16px" font-style="normal" font-weight="normal" text-decoration="normal" x="493" y="380" text-anchor="start" dominant-baseline="alphabetic" fill-opacity="1">Guarda imagen</text><path fill="rgb(255,255,255)" stroke="none" paint-order="stroke fill markers" fill-rule="evenodd" d=" M 542 129 L 612 129 C 614.2091389993232 129 616 130.7908610006768 616 133 L 616 155 C 616 157.2091389993232 614.2091389993232 159 612 159 L 542 159 C 539.7908610006768 159 538 157.2091389993232 538 155 L 538 133 C 538 130.7908610006768 539.7908610006768 129 542 129 Z" fill-opacity="1"/><path fill="none" stroke="rgb(0,0,0)" paint-order="fill stroke markers" d=" M 542 129 L 612 129 C 614.2091389993232 129 616 130.7908610006768 616 133 L 616 155 C 616 157.2091389993232 614.2091389993232 159 612 159 L 542 159 C 539.7908610006768 159 538 157.2091389993232 538 155 L 538 133 C 538 130.7908610006768 539.7908610006768 129 542 129 Z" stroke-opacity="1" stroke-linecap="round" stroke-linejoin="round" stroke-miterlimit="10"/><text fill="rgb(0,0,0)" stroke="none" font-family="geogebra-sans-serif, sans-serif" font-size="16px" font-style="normal" font-weight="normal" text-decoration="normal" x="550" y="150" text-anchor="start" dominant-baseline="alphabetic" fill-opacity="1">954bb5</text><text fill="rgb(0,0,0)" stroke="none" font-family="geogebra-sans-serif, sans-serif" font-size="16px" font-style="normal" font-weight="normal" text-decoration="normal" x="527" y="150" text-anchor="start" dominant-baseline="alphabetic" fill-opacity="1">#</text></g></g></svg>