<svg id="Layer_1" enable-background="new 0 0 512 512" height="512" viewBox="0 0 512 512" width="512" xmlns="http://www.w3.org/2000/svg"><g><g><g><path d="m291.5 78.5h71v71h-71z" fill="#fff9df"/></g><g><path d="m291.5 78.5h71v71h-71z" fill="#ffbee7"/></g><path d="m327 78.5h35.5v71h-35.5z" fill="#feaee1"/><g><path d="m291.5 149.5h71v71h-71z" fill="#fe93d3"/></g><g><path d="m7.5 220.5h71v71h-71z" fill="#c8effe"/><path d="m78.5 220.5h71v71h-71z" fill="#62dbfb"/><path d="m149.5 220.5h71v71h-71z" fill="#ffbee7"/><path d="m220.5 220.5h71v71h-71z" fill="#62dbfb"/><path d="m291.5 220.5h71v71h-71z" fill="#ffbee7"/><path d="m362.5 220.5h71v71h-71z" fill="#62dbfb"/></g><g fill="#fe93d3"><path d="m149.5 291.5h71v71h-71z"/><path d="m291.5 291.5h71v71h-71z"/></g><g><path d="m149.5 362.5h71v71h-71z" fill="#ffbee7"/></g><g><path d="m78.5 362.5h71v71h-71z" fill="#62dbfb"/><path d="m149.5 433.5h71v71h-71z" fill="#fe93d3"/><path d="m220.5 362.5h71v71h-71z" fill="#62dbfb"/><path d="m291.5 362.5h71v71h-71z" fill="#ffbee7"/><path d="m362.5 362.5h71v71h-71z" fill="#62dbfb"/></g><g><path d="m291.5 7.5h71v71h-71z" fill="#fe93d3"/><g fill="#fe73c5"><path d="m327 7.5h35.5v71h-35.5z"/><path d="m327 149.5h35.5v71h-35.5z"/><path d="m327 291.5h35.5v71h-35.5z"/></g><path d="m7.5 78.5h71v71h-71z" fill="#c8effe"/><path d="m78.5 78.5h71v71h-71z" fill="#62dbfb"/><path d="m149.5 78.5h71v71h-71z" fill="#c8effe"/><path d="m220.5 78.5h71v71h-71z" fill="#62dbfb"/><path d="m362.5 78.5h71v71h-71z" fill="#62dbfb"/><path d="m433.5 78.5h71v71h-71z" fill="#c8effe"/><path d="m433.5 362.5h71v71h-71z" fill="#c8effe"/></g><path d="m327 220.5h35.5v71h-35.5z" fill="#feaee1"/><path d="m327 362.5h35.5v71h-35.5z" fill="#feaee1"/><path d="m185 291.5h35.5v71h-35.5z" fill="#fe73c5"/><path d="m185 433.5h35.5v71h-35.5z" fill="#fe73c5"/><g fill="#feaee1"><path d="m185 220.5h35.5v71h-35.5z"/><path d="m185 362.5h35.5v71h-35.5z"/></g></g><path d="m504.5 157c4.143 0 7.5-3.358 7.5-7.5v-71c0-4.142-3.357-7.5-7.5-7.5h-134.5v-63.5c0-4.142-3.357-7.5-7.5-7.5h-71c-4.143 0-7.5 3.358-7.5 7.5v63.5h-220.998c-9.916.307-9.909 14.696 0 15h7.998v56h-56v-56h8.015c9.916-.307 9.909-14.696 0-15h-15.515c-4.142 0-7.5 3.358-7.5 7.5v71c0 4.142 3.358 7.5 7.5 7.5h276.5v56h-276.5c-4.142 0-7.5 3.358-7.5 7.5v71c0 4.142 3.358 7.5 7.5 7.5h134.5v56h-63.5c-4.142 0-7.5 3.358-7.5 7.5v71c0 4.142 3.358 7.5 7.5 7.5h63.5v63.5c0 4.142 3.358 7.5 7.5 7.5h71c4.142 0 7.5-3.358 7.5-7.5v-63.5h276.5c4.143 0 7.5-3.358 7.5-7.5v-71c0-4.142-3.357-7.5-7.5-7.5h-134.5v-8.014c-.307-9.916-14.696-9.909-15 0v8.014h-56v-56h56v8.025c.307 9.916 14.696 9.909 15 0v-8.025h63.5c4.143 0 7.5-3.358 7.5-7.5v-71c0-4.142-3.357-7.5-7.5-7.5h-63.5v-56zm-149.5 56h-56v-56h56zm-127 142v-56h56v56zm-71 71v-56h56v56zm0-127h56v56h-56zm142-157v-56h56v56zm198 0h-56v-56h56zm-71 0h-56v-56h56zm-127-127h56v56h-56zm-213 71h56v56h-56zm71 0h56v56h-56zm71 0h56v56h-56zm56 198h-56v-56h56zm-71 0h-56v-56h56zm-198-56h56v56h-56zm71 0h56v56h-56zm0 142h56v56h-56zm127 127h-56v-56h56zm15-127h56v56h-56zm269 56h-56v-56h56zm-71 0h-56v-56h56zm-71-56v56h-56v-56zm-56-86v-56h56v56zm127 0h-56v-56h56z"/></g></svg>