<?xml version="1.0" standalone="no"?> <!DOCTYPE svg PUBLIC "-//W3C//DTD SVG 1.0//EN" "http://www.w3.org/TR/2001/REC-SVG-20010904/DTD/svg10.dtd" > <svg xmlns="http://www.w3.org/2000/svg" width="100%" height="100%">
<defs >
<font horiz-adv-x="1132" ><font-face
    font-family="DejaVu Sans MonoBoldItalic"
    units-per-em="2048"
    panose-1="2 11 7 9 3 3 4 11 2 4"
    ascent="1901"
    descent="-483"
    alphabetic="0" />
<missing-glyph horiz-adv-x="1086" d="M31 -362V1444H1055V-362H31ZM146 -248H941V1329H146V-248Z" />
<glyph unicode=" " glyph-name="space" horiz-adv-x="1233" />
<glyph unicode="!" glyph-name="exclam" horiz-adv-x="559" d="M56 283H322L267 0H1L56 283ZM292 1493H558L431 838L329 481H130L163 838L292 1493Z" />
<glyph unicode="&quot;" glyph-name="quotedbl" horiz-adv-x="831" d="M799 1493V938H543V1493H799ZM287 1493V938H31V1493H287Z" />
<glyph unicode="#" glyph-name="numbersign" horiz-adv-x="1317" d="M797 881H594L520 588H723L797 881ZM741 1470L647 1096H852L946 1470H1167L1073 1096H1313L1259 881H1018L946 588H1186L1132 373H891L797 0H575L670 373H465L371 0H149L244 373H4L57 588H299L371
881H131L184 1096H426L520 1470H741Z" />
<glyph unicode="$" glyph-name="dollar" horiz-adv-x="1055" d="M608 532L549 227Q631 238 680 285T729 401Q729 453 701 484T608 532ZM522 821L575 1099Q503 1090 462 1045T420 932Q420 890 446 862T522 821ZM446 -301H305L362 0Q277 2 187 25T0 92L51 354Q140
293 229 260T405 223L473 569Q316 609 238 691T160 897Q160 1074 287 1192T618 1319L666 1556H807L760 1319Q831 1315 904 1301T1053 1262L1003 1012Q943 1051 872 1073T719 1100L655 782Q827 736 908 652T989 438Q989 254 858 135T504 0L446 -301Z" />
<glyph unicode="%" glyph-name="percent" horiz-adv-x="1192" d="M3 1112Q3 1246 96 1339T322 1432Q455 1432 548 1339T642 1112Q642 979 549 886T322 793Q189 793 96 885T3 1112ZM322 1249Q265 1249 225 1210T185 1112Q185 1054 225 1015T322 975Q380 975 419
1014T459 1112Q459 1169 419 1209T322 1249ZM56 561L1098 979L1139 883L91 465L56 561ZM550 319Q550 453 642 546T869 639Q1001 639 1095 546T1189 319Q1189 187 1095 94T869 0Q735 0 643 92T550 319ZM867 457Q811 457 772 417T732 319Q732 261 771 222T867 182Q925
182 965 222T1006 319Q1006 376 965 416T867 457Z" />
<glyph unicode="&amp;" glyph-name="ampersand" horiz-adv-x="1265" d="M779 72Q693 22 604 -3T427 -29Q235 -29 121 77T7 360Q7 523 105 665T390 913Q364 971 352 1021T339 1118Q339 1301 473 1410T835 1520Q905 1520 972 1509T1105 1477L1056 1221Q1002 1256
938 1275T808 1294Q720 1294 673 1259T626 1157Q626 1123 645 1065T704 920L925 440Q967 498 991 575T1019 745H1254Q1243 588 1183 463T1015 246L1130 0H814L779 72ZM476 731Q386 679 339 605T292 438Q292 339 355 273T513 207Q557 207 602 220T693 262L476 731Z"
/>
<glyph unicode="&apos;" glyph-name="quotesingle" horiz-adv-x="320" d="M287 1493V938H31V1493H287Z" />
<glyph unicode="(" glyph-name="parenleft" horiz-adv-x="748" d="M748 1554Q515 1242 398 941T281 346Q281 203 309 50T394 -270H169Q87 -98 47 67T7 393Q7 683 136 974T523 1554H748Z" />
<glyph unicode=")" glyph-name="parenright" horiz-adv-x="747" d="M0 -270Q233 42 350 343T467 938Q467 1081 439 1234T354 1554H579Q660 1383 700 1218T741 891Q741 601 612 310T225 -270H0Z" />
<glyph unicode="*" glyph-name="asterisk" horiz-adv-x="993" d="M990 1217L660 1044L990 870L914 729L582 913V569H410V913L79 729L3 870L335 1044L3 1217L79 1358L410 1176V1520H582V1176L914 1358L990 1217Z" />
<glyph unicode="+" glyph-name="plus" horiz-adv-x="1099" d="M669 1192V762H1099V524H669V92H432V524H0V762H432V1192H669Z" />
<glyph unicode="," glyph-name="comma" horiz-adv-x="544" d="M228 367H542L488 96L218 -287H3L175 96L228 367Z" />
<glyph unicode="-" glyph-name="hyphen" horiz-adv-x="732" d="M79 735H708L652 444H24L79 735Z" />
<glyph unicode="." glyph-name="period" horiz-adv-x="437" d="M87 367H421L351 0H17L87 367Z" />
<glyph unicode="/" glyph-name="slash" horiz-adv-x="1075" d="M852 1493H1075L221 -190H0L852 1493Z" />
<glyph unicode="0" glyph-name="zero" horiz-adv-x="1083" d="M414 745Q414 798 450 834T539 870Q592 870 629 834T666 745Q666 694 629 658T539 621Q487 621 451 656T414 745ZM308 440Q308 327 342 273T447 219Q511 219 564 272T654 424Q708 576 740 750T773
1051Q773 1165 740 1218T636 1272Q569 1272 516 1220T427 1067Q373 918 341 744T308 440ZM1068 1071Q1068 858 1017 639T881 260Q808 123 688 47T423 -29Q230 -29 123 89T15 420Q15 631 65 852T199 1229Q273 1366 394 1443T658 1520Q851 1520 959 1402T1068 1071Z"
/>
<glyph unicode="1" glyph-name="one" horiz-adv-x="1002" d="M56 260H386L574 1229L253 1153L304 1419L630 1493H912L673 260H982L931 0H5L56 260Z" />
<glyph unicode="2" glyph-name="two" horiz-adv-x="1186" d="M391 260H1008L957 0H8L57 252L334 500Q385 546 479 628Q881 982 881 1135Q881 1207 825 1247T670 1288Q588 1288 484 1259T262 1171L313 1438Q422 1478 529 1499T737 1520Q930 1520 1051 1425T1172
1180Q1172 931 718 542L678 508L391 260Z" />
<glyph unicode="3" glyph-name="three" horiz-adv-x="1171" d="M552 668H394L446 928H603Q727 928 804 983T882 1124Q882 1194 825 1232T661 1270Q578 1270 479 1249T269 1188L323 1456Q427 1488 523 1504T708 1520Q912 1520 1035 1423T1158 1167Q1158 1027 1064
931T802 805Q936 769 1002 687T1068 473Q1068 243 905 107T460 -29Q358 -29 244 -10T7 45L61 315Q157 269 260 245T472 221Q626 221 707 289T788 487Q788 569 724 618T552 668Z" />
<glyph unicode="4" glyph-name="four" horiz-adv-x="1115" d="M754 1153L271 575H644L754 1153ZM793 1493H1102L924 575H1088L1039 322H875L813 0H531L594 322H0L58 608L793 1493Z" />
<glyph unicode="5" glyph-name="five" horiz-adv-x="1164" d="M342 1493H1153L1102 1233H530L477 956Q510 969 546 975T623 981Q820 981 936 865T1053 551Q1053 284 875 128T389 -29Q294 -29 199 -13T8 35L59 301Q129 261 214 240T395 219Q567 219 666 298T766
512Q766 616 695 676T502 737Q424 737 342 717T180 659L342 1493Z" />
<glyph unicode="6" glyph-name="six" horiz-adv-x="1099" d="M720 557Q720 645 675 696T552 748Q447 748 374 648T300 401Q300 313 345 260T466 207Q574 207 647 307T720 557ZM1086 1458L1035 1190Q975 1234 905 1257T763 1280Q606 1280 500 1172T347 854Q407
919 483 952T648 985Q815 985 912 874T1009 569Q1009 310 855 139T468 -33Q241 -33 127 92T13 469Q13 686 73 891T243 1247Q341 1383 480 1450T804 1518Q871 1518 940 1503T1086 1458Z" />
<glyph unicode="7" glyph-name="seven" d="M169 1493H1132L1091 1284L335 0H16L751 1233H118L169 1493Z" />
<glyph unicode="8" glyph-name="eight" horiz-adv-x="1097" d="M725 477Q725 565 672 616T527 668Q415 668 344 593T273 399Q273 313 328 261T475 209Q584 209 654 284T725 477ZM381 799Q277 826 224 896T170 1077Q170 1260 317 1390T678 1520Q859 1520 971 1421T1084
1163Q1084 1015 995 913T756 786Q865 757 926 673T987 465Q987 245 839 108T451 -29Q241 -29 126 70T10 350Q10 519 109 638T381 799ZM432 1069Q432 996 477 950T594 903Q695 903 759 963T824 1116Q824 1195 778 1239T649 1284Q557 1284 495 1222T432 1069Z" />
<glyph unicode="9" glyph-name="nine" horiz-adv-x="1099" d="M13 29L64 297Q125 253 195 230T337 207Q493 207 599 315T753 633Q692 568 616 535T452 502Q286 502 190 613T93 918Q93 1177 246 1348T632 1520Q859 1520 972 1394T1086 1018Q1086 801 1026 595T857
238Q760 102 621 36T296 -31Q229 -31 159 -16T13 29ZM382 928Q382 840 426 790T548 739Q652 739 726 839T800 1085Q800 1173 755 1226T634 1280Q526 1280 454 1179T382 928Z" />
<glyph unicode=":" glyph-name="colon" horiz-adv-x="549" d="M210 1063H544L472 698H138L210 1063ZM75 367H409L339 0H5L75 367Z" />
<glyph unicode=";" glyph-name="semicolon" horiz-adv-x="676" d="M206 367H540L486 96L216 -287H1L153 96L206 367ZM341 1063H675L603 698H269L341 1063Z" />
<glyph unicode="&lt;" glyph-name="less" horiz-adv-x="1071" d="M1057 926L262 641L1057 358V109L0 524V760L1057 1176V926Z" />
<glyph unicode="=" glyph-name="equal" horiz-adv-x="1095" d="M31 532H1088V295H31V532ZM31 987H1088V752H31V987Z" />
<glyph unicode="&gt;" glyph-name="greater" horiz-adv-x="1088" d="M31 926V1176L1088 760V524L31 109V358L826 641L31 926Z" />
<glyph unicode="?" glyph-name="question" horiz-adv-x="868" d="M73 283H339L284 0H18L73 283ZM362 401H96L126 555Q144 651 188 722T325 872L432 965L440 972Q585 1098 585 1165Q585 1222 548 1253T442 1284Q353 1284 251 1248T32 1139L85 1407Q187 1462 294
1491T505 1520Q670 1520 769 1438T868 1221Q868 1126 819 1043T653 862L548 776L540 769Q414 664 386 524L362 401Z" />
<glyph unicode="@" glyph-name="at" horiz-adv-x="1270" d="M750 301Q854 301 925 392T996 621Q996 698 956 742T844 786Q741 786 670 697T598 477Q598 394 638 348T750 301ZM1094 135H897L914 217Q871 168 814 142T697 115Q558 115 478 203T398 444Q398 666 525
819T836 973Q908 973 960 949T1041 877Q1050 912 1054 945T1059 1008Q1059 1099 997 1152T830 1206Q706 1206 593 1143T392 961Q301 838 253 690T205 387Q205 148 323 9T641 -131Q720 -131 801 -107T963 -35L1026 -209Q919 -266 824 -292T633 -319Q348 -319 181
-128T13 387Q13 551 57 709T185 1004Q301 1190 469 1292T826 1395Q1020 1395 1138 1293T1256 1022Q1256 992 1253 960T1241 892L1094 135Z" />
<glyph unicode="A" glyph-name="A" horiz-adv-x="1190" d="M830 1219L566 612H850L830 1219ZM695 1493H1055L1168 0H875L861 369H461L299 0H0L695 1493Z" />
<glyph unicode="B" glyph-name="B" horiz-adv-x="1226" d="M429 678L343 236H540Q696 236 769 302T843 510Q843 596 790 637T626 678H429ZM542 1260L474 913H671Q792 913 853 967T915 1128Q915 1196 872 1228T739 1260H542ZM302 1495H784Q995 1495 1102 1412T1210
1165Q1210 1004 1115 905T845 786Q984 774 1061 695T1138 485Q1138 377 1100 284T993 127Q918 60 803 30T493 0H12L302 1495Z" />
<glyph unicode="C" glyph-name="C" horiz-adv-x="1110" d="M828 43Q751 7 671 -11T505 -29Q266 -29 140 108T13 506Q13 736 83 947T275 1296Q372 1406 502 1463T785 1520Q867 1520 945 1502T1101 1448L1037 1120Q987 1188 915 1222T754 1257Q674 1257 597 1209T466
1075Q397 968 355 818T312 532Q312 386 375 309T556 231Q637 231 717 264T892 371L828 43Z" />
<glyph unicode="D" glyph-name="D" horiz-adv-x="1200" d="M544 1227L358 266H454Q566 266 643 310T763 442Q815 548 847 694T880 967Q880 1099 818 1163T626 1227H544ZM303 1493H618Q903 1493 1044 1370T1185 999Q1185 912 1172 814T1130 602Q1093 451 1041 346T917
172Q823 80 692 40T342 0H12L303 1493Z" />
<glyph unicode="E" glyph-name="E" horiz-adv-x="1244" d="M941 0H12L300 1493H1232L1181 1233H546L483 911H1058L1009 651H434L358 260H993L941 0Z" />
<glyph unicode="F" glyph-name="F" horiz-adv-x="1233" d="M1217 1233H582L520 911H1098L1047 651H469L342 0H47L338 1493H1268L1217 1233Z" />
<glyph unicode="G" glyph-name="G" horiz-adv-x="1116" d="M902 94Q832 35 734 3T521 -29Q279 -29 146 116T13 524Q13 739 85 949T278 1294Q376 1405 506 1462T788 1520Q869 1520 947 1502T1103 1448L1037 1120Q986 1187 917 1222T767 1257Q696 1257 632 1228T515
1141Q474 1094 440 1031T380 891Q348 793 331 702T314 532Q314 388 378 310T558 231Q594 231 625 239T681 264L738 555H532L581 803H1041L902 94Z" />
<glyph unicode="H" glyph-name="H" horiz-adv-x="1273" d="M303 1493H598L487 924H856L966 1493H1261L970 0H675L804 664H436L307 0H12L303 1493Z" />
<glyph unicode="I" glyph-name="I" horiz-adv-x="1201" d="M250 1233L301 1493H1190L1139 1233H842L654 260H951L899 0H11L62 260H359L547 1233H250Z" />
<glyph unicode="J" glyph-name="J" horiz-adv-x="1185" d="M3 78L68 422Q146 326 234 279T426 231Q542 231 598 285T682 479L830 1233H469L521 1493H1176L977 479Q944 309 903 223T795 82Q728 27 637 -1T433 -29Q322 -29 215 -3T3 78Z" />
<glyph unicode="K" glyph-name="K" horiz-adv-x="1407" d="M302 1493H597L489 936L1052 1493H1400L794 889L1132 0H829L575 670L403 500L308 0H14L302 1493Z" />
<glyph unicode="L" glyph-name="L" horiz-adv-x="988" d="M9 0L300 1493H595L355 260H986L935 0H9Z" />
<glyph unicode="M" glyph-name="M" horiz-adv-x="1373" d="M301 1493H654L703 838L1000 1493H1360L1071 0H818L1055 1198L762 543H543L496 1198L265 0H13L301 1493Z" />
<glyph unicode="N" glyph-name="N" horiz-adv-x="1306" d="M304 1493H607L822 408L1033 1493H1293L1005 0H712L487 1085L276 0H13L304 1493Z" />
<glyph unicode="O" glyph-name="O" horiz-adv-x="1140" d="M822 1020Q822 1140 782 1200T661 1260Q602 1260 552 1225T466 1120Q444 1081 423 1017T378 860Q349 745 334 646T319 471Q319 351 359 292T480 233Q539 233 588 268T675 373Q698 417 720 482T763 631Q792
746 807 845T822 1020ZM15 465Q15 665 65 870T200 1229Q277 1369 402 1444T683 1520Q898 1520 1011 1394T1125 1030Q1125 828 1076 622T943 264Q865 123 740 47T458 -29Q241 -29 128 97T15 465Z" />
<glyph unicode="P" glyph-name="P" horiz-adv-x="1206" d="M549 1245L465 807H608Q754 807 826 874T899 1077Q899 1168 847 1206T670 1245H549ZM303 1493H723Q959 1493 1082 1402T1206 1135Q1206 1021 1170 909T1075 731Q997 640 881 600T580 559H416L307 0H12L303 1493Z" />
<glyph unicode="Q" glyph-name="Q" horiz-adv-x="1130" d="M482 -29H455Q237 -29 123 96T8 461Q8 663 57 869T191 1227Q269 1368 394 1444T676 1520Q887 1520 1002 1397T1118 1049Q1118 836 1070 627T936 262Q901 196 849 141T723 39L871 -147L660 -281L482 -29ZM815
1020Q815 1140 775 1200T654 1260Q595 1260 545 1225T459 1120Q437 1081 416 1017T371 860Q342 745 327 646T312 471Q312 351 352 292T473 233Q532 233 581 268T668 373Q691 417 713 482T756 631Q785 746 800 845T815 1020Z" />
<glyph unicode="R" glyph-name="R" horiz-adv-x="1187" d="M791 705Q852 696 886 660T947 537L1111 0H810L704 376Q701 386 696 403Q643 590 538 590H421L306 0H11L302 1493H712Q944 1493 1056 1406T1168 1137Q1168 950 1070 838T791 705ZM550 1245L470 838H593Q728
838 797 902T867 1090Q867 1168 821 1206T683 1245H550Z" />
<glyph unicode="S" glyph-name="S" horiz-adv-x="1174" d="M509 664Q317 744 255 819T193 1020Q193 1240 354 1380T773 1520Q876 1520 973 1500T1162 1438L1105 1153Q1037 1215 946 1246T744 1278Q626 1278 552 1222T478 1077Q478 993 662 910L669 907L785 856Q931
791 998 700T1066 475Q1066 245 905 108T470 -29Q360 -29 246 -3T7 76L66 381Q163 300 269 258T482 215Q615 215 691 273T767 432Q767 494 732 539T628 614L509 664Z" />
<glyph unicode="T" glyph-name="T" horiz-adv-x="1124" d="M454 0H160L399 1235H16L65 1493H1124L1073 1235H694L454 0Z" />
<glyph unicode="U" glyph-name="U" horiz-adv-x="1254" d="M41 551L225 1493H520L321 477Q321 475 320 471Q313 424 313 403Q313 321 359 276T489 231Q597 231 661 292T751 477L950 1493H1245L1060 551Q1025 371 985 279T882 123Q806 49 702 10T473 -29Q254 -29
136 70T18 352Q18 394 23 444T41 551Z" />
<glyph unicode="V" glyph-name="V" horiz-adv-x="1147" d="M340 242L846 1493H1147L502 0H90L25 1493H316L340 242Z" />
<glyph unicode="W" glyph-name="W" horiz-adv-x="1358" d="M125 1493H379L271 397L543 1106H781L793 397L1090 1493H1352L891 0H621L609 784L291 0H23L125 1493Z" />
<glyph unicode="X" glyph-name="X" horiz-adv-x="1502" d="M1221 0H930L730 512L330 0H7L621 782L334 1493H625L812 1030L1172 1493H1493L920 756L1221 0Z" />
<glyph unicode="Y" glyph-name="Y" horiz-adv-x="1227" d="M14 1493H307L494 844L905 1493H1227L594 588L479 0H186L301 588L14 1493Z" />
<glyph unicode="Z" glyph-name="Z" horiz-adv-x="1348" d="M326 1493H1335L1286 1249L410 260H1110L1059 0H12L59 244L917 1233H274L326 1493Z" />
<glyph unicode="[" glyph-name="bracketleft" horiz-adv-x="868" d="M361 1556H868L830 1366H588L307 -80H549L512 -270H4L361 1556Z" />
<glyph unicode="\" glyph-name="backslash" horiz-adv-x="403" d="M204 1493L402 -190H200L1 1493H204Z" />
<glyph unicode="]" glyph-name="bracketright" horiz-adv-x="867" d="M506 -270H0L37 -80H279L560 1366H318L355 1556H863L506 -270Z" />
<glyph unicode="^" glyph-name="asciicircum" horiz-adv-x="1129" d="M687 1493L1124 936H882L564 1237L247 936H5L442 1493H687Z" />
<glyph unicode="_" glyph-name="underscore" horiz-adv-x="1295" d="M1264 -293V-483H31V-293H1264Z" />
<glyph unicode="`" glyph-name="grave" horiz-adv-x="497" d="M284 1638L493 1262H295L0 1638H284Z" />
<glyph unicode="a" glyph-name="a" horiz-adv-x="1125" d="M655 530Q483 530 400 478T317 317Q317 254 357 213T461 172Q579 172 659 265T768 530H655ZM1079 639L956 0H665L690 125Q623 48 537 10T340 -29Q189 -29 101 58T12 295Q12 510 167 623T616 737H809L817
786Q818 792 818 797T819 815Q819 872 768 902T620 932Q538 932 435 904T213 819L260 1069Q373 1108 473 1127T665 1147Q882 1147 994 1071T1106 848Q1106 809 1099 756T1079 639Z" />
<glyph unicode="b" glyph-name="b" horiz-adv-x="1134" d="M563 209Q674 209 753 350T833 694Q833 795 792 851T676 907Q562 907 480 769T397 432Q397 328 442 269T563 209ZM344 207L303 0H10L313 1556H606L487 952Q550 1048 633 1097T811 1147Q957 1147 1042
1038T1128 739Q1128 608 1098 479T1012 244Q943 115 838 43T616 -29Q505 -29 433 33T344 207Z" />
<glyph unicode="c" glyph-name="c" horiz-adv-x="1032" d="M820 37Q743 4 662 -12T497 -29Q271 -29 143 95T14 434Q14 751 197 949T677 1147Q775 1147 860 1127T1021 1063L968 795Q907 853 839 881T693 909Q523 909 417 785T310 463Q310 335 371 272T556 209Q626
209 705 235T876 313L820 37Z" />
<glyph unicode="d" glyph-name="d" horiz-adv-x="1218" d="M569 909Q458 909 378 768T298 424Q298 323 339 267T454 211Q568 211 651 349T735 686Q735 790 690 849T569 909ZM790 911L915 1556H1208L905 0H614L645 166Q579 70 497 21T319 -29Q173 -29 88 81T2 381Q2
510 33 638T120 874Q189 1003 294 1076T516 1149Q628 1149 701 1086T790 911Z" />
<glyph unicode="e" glyph-name="e" horiz-adv-x="1109" d="M932 55Q837 13 734 -8T521 -29Q273 -29 144 89T15 436Q15 577 59 709T183 938Q267 1040 383 1094T633 1149Q842 1149 968 1029T1094 711Q1094 666 1088 607T1067 465H308Q305 448 304 433T301 403Q301
304 368 254T566 203Q674 203 782 234T983 324L932 55ZM815 684Q819 698 820 711T822 737Q822 822 771 871T631 920Q531 920 460 861T349 684H815Z" />
<glyph unicode="f" glyph-name="f" horiz-adv-x="1040" d="M628 1196L612 1120H956L913 895H569L395 0H102L276 895H3L46 1120H319L335 1198Q377 1409 469 1482T800 1556H1040L997 1331H767Q702 1331 673 1304T628 1196Z" />
<glyph unicode="g" glyph-name="g" horiz-adv-x="1196" d="M517 246Q632 246 716 378T800 698Q800 798 759 853T646 909Q532 909 448 777T364 459Q364 357 404 302T517 246ZM984 84Q931 -193 793 -308T382 -424Q284 -424 193 -409T15 -365L69 -100Q144 -145 226
-167T396 -190Q521 -190 591 -132T685 51L712 184Q658 101 581 59T407 16Q250 16 158 120T65 403Q65 542 107 683T222 932Q292 1035 392 1093T599 1151Q703 1151 770 1096T859 938L894 1120H1187L984 84Z" />
<glyph unicode="h" glyph-name="h" horiz-adv-x="1077" d="M1052 728L911 0H618L751 682Q756 708 758 734T761 788Q761 846 732 876T648 907Q565 907 507 836T423 629L302 0H9L312 1556H603L487 952Q535 1044 619 1095T804 1147Q932 1147 1001 1078T1070 881Q1070
851 1066 813T1052 728Z" />
<glyph unicode="i" glyph-name="i" horiz-adv-x="1082" d="M295 1120H875L701 225H1065L1022 0H0L43 225H408L539 895H252L295 1120ZM688 1665H981L914 1323H621L688 1665Z" />
<glyph unicode="j" glyph-name="j" horiz-adv-x="1116" d="M796 43Q763 -124 733 -195T655 -313Q596 -372 515 -398T307 -424H0L45 -199H276Q376 -199 427 -146T503 43L669 895H372L415 1120H1005L796 43ZM1046 1323H753L819 1665H1112L1046 1323Z" />
<glyph unicode="k" glyph-name="k" horiz-adv-x="1228" d="M313 1556H606L454 774L858 1120H1228L723 702L1036 0H725L503 524L387 428L305 0H12L313 1556Z" />
<glyph unicode="l" glyph-name="l" horiz-adv-x="822" d="M405 365Q401 345 399 329T396 307Q396 262 427 244T536 225H814L769 0H472Q267 0 182 56T97 242Q97 265 102 300T116 379L319 1331H13L56 1556H654L405 365Z" />
<glyph unicode="m" glyph-name="m" horiz-adv-x="1275" d="M818 1008Q850 1072 914 1109T1054 1147Q1146 1147 1200 1091T1254 938Q1254 891 1249 843T1228 719L1088 0H849L988 719Q998 770 1002 800T1006 846Q1006 886 989 907T937 928Q889 928 861 883T810 719L671
0H431L572 719Q580 761 584 794T589 846Q589 886 571 907T519 928Q472 928 445 885T394 719L255 0H15L232 1120H445L423 1004Q464 1072 524 1109T654 1147Q723 1147 766 1110T818 1008Z" />
<glyph unicode="n" glyph-name="n" horiz-adv-x="1094" d="M1056 728L915 0H622L755 682Q760 708 762 734T765 788Q765 846 736 876T652 907Q570 907 512 835T427 629L306 0H13L230 1120H523L491 952Q539 1044 623 1095T808 1147Q936 1147 1005 1078T1074 881Q1074
851 1070 813T1056 728Z" />
<glyph unicode="o" glyph-name="o" horiz-adv-x="1089" d="M778 684Q778 793 732 852T600 911Q477 911 394 775T311 434Q311 328 359 268T491 207Q612 207 695 343T778 684ZM16 426Q16 748 182 948T616 1149Q831 1149 952 1029T1073 694Q1073 371 907 171T473
-29Q258 -29 137 91T16 426Z" />
<glyph unicode="p" glyph-name="p" horiz-adv-x="1218" d="M426 207L303 -426H10L311 1120H604L571 952Q642 1050 724 1098T899 1147Q1046 1147 1131 1038T1216 739Q1216 610 1185 480T1098 244Q1029 115 924 43T702 -29Q590 -29 518 33T426 207ZM649 209Q760
209 840 351T921 694Q921 795 880 851T764 907Q650 907 567 769T483 432Q483 328 528 269T649 209Z" />
<glyph unicode="q" glyph-name="q" horiz-adv-x="1134" d="M792 911L831 1120H1124L823 -426H532L647 166Q584 71 501 21T323 -29Q177 -29 92 81T6 381Q6 510 37 638T124 874Q194 1004 298 1076T518 1149Q629 1149 701 1087T792 911ZM571 909Q460 909 380 768T300
424Q300 324 342 268T458 211Q572 211 654 349T737 686Q737 790 692 849T571 909Z" />
<glyph unicode="r" glyph-name="r" horiz-adv-x="1086" d="M1033 815Q985 858 926 878T793 899Q627 899 538 811T408 516L308 0H13L232 1120H525L490 946Q552 1042 651 1094T869 1147Q931 1147 986 1132T1086 1090L1033 815Z" />
<glyph unicode="s" glyph-name="s" horiz-adv-x="1028" d="M1014 1085L964 831Q889 884 802 911T622 938Q528 938 473 903T418 809Q418 764 454 737T620 672L694 651Q822 614 881 544T940 360Q940 178 803 75T420 -29Q316 -29 213 -12T10 41L61 297Q147 241 242
212T430 182Q540 182 601 219T663 324Q663 370 633 396T469 461L381 485Q259 521 202 590T145 772Q145 940 281 1043T643 1147Q736 1147 829 1132T1014 1085Z" />
<glyph unicode="t" glyph-name="t" horiz-adv-x="1010" d="M687 1438L625 1120H1008L965 895H582L478 365Q474 345 472 330T470 307Q470 262 500 244T609 225H834L791 0H546Q342 0 257 55T171 240Q171 261 175 295T189 379L290 895H3L46 1120H333L394 1438H687Z" />
<glyph unicode="u" glyph-name="u" horiz-adv-x="1092" d="M37 391L180 1120H471L340 436Q335 409 333 383T330 332Q330 274 359 243T442 211Q525 211 581 281T666 489L788 1120H1079L862 0H569L602 166Q558 76 473 24T287 -29Q158 -29 89 41T20 244Q20 272 24
308T37 391Z" />
<glyph unicode="v" glyph-name="v" horiz-adv-x="1079" d="M1078 1120L527 0H158L19 1120H302L382 242L771 1120H1078Z" />
<glyph unicode="w" glyph-name="w" horiz-adv-x="1273" d="M37 1120H277L244 262L471 827H701L723 262L1014 1120H1266L848 0H568L549 590L310 0H31L37 1120Z" />
<glyph unicode="x" glyph-name="x" horiz-adv-x="1323" d="M1312 1120L835 567L1113 0H814L644 356L341 0H9L521 594L263 1120H564L712 803L980 1120H1312Z" />
<glyph unicode="y" glyph-name="y" horiz-adv-x="1360" d="M654 -121Q542 -319 461 -371T253 -424H13L58 -201H175Q262 -201 312 -171T422 -29L461 45L244 1120H541L668 420L1051 1120H1360L654 -121Z" />
<glyph unicode="z" glyph-name="z" horiz-adv-x="1167" d="M257 1120H1152L1107 891L400 219H976L933 0H13L58 229L765 901H214L257 1120Z" />
<glyph unicode="{" glyph-name="braceleft" horiz-adv-x="1080" d="M748 -143L711 -334H563Q367 -334 283 -280T199 -100Q199 -77 202 -49T217 35L260 250Q269 298 273 328T277 379Q277 455 229 485T62 516H0L37 707H98Q241 707 305 762T399 973L440 1188Q483
1412 576 1484T930 1556H1079L1043 1366H920Q816 1366 772 1323T700 1139L662 930Q630 763 568 696T375 612Q470 591 511 548T553 428Q553 399 549 365T537 291L496 86Q487 40 483 12T479 -33Q479 -92 513 -117T627 -143H748Z" />
<glyph unicode="|" glyph-name="bar" horiz-adv-x="291" d="M258 1565V-483H31V1565H258Z" />
<glyph unicode="}" glyph-name="braceright" horiz-adv-x="1081" d="M38 -143H161Q264 -143 308 -101T380 86L419 291Q451 455 514 524T706 612Q612 628 570 670T528 791Q528 817 532 852T544 930L585 1139Q594 1187 597 1214T601 1257Q601 1317 568 1341T454
1366H333L370 1556H517Q722 1556 804 1508T886 1346Q886 1311 866 1202L863 1187L822 972Q816 940 812 911T808 862Q808 777 855 742T1019 707H1081L1044 516H982Q841 516 776 458T681 250L640 35Q597 -187 498 -260T151 -334H1L38 -143Z" />
<glyph unicode="~" glyph-name="asciitilde" horiz-adv-x="1109" d="M1083 811V578Q1008 518 937 491T786 463Q696 463 583 514Q561 524 550 528Q473 562 422 574T319 586Q241 586 171 557T26 465V694Q104 755 177 782T333 809Q386 809 436 798T560 756Q571 751
593 741Q709 686 802 686Q872 686 941 716T1083 811Z" />
<glyph unicode="&#xa0;" glyph-name="nbspace" horiz-adv-x="1233" />
<glyph unicode="&#xa1;" glyph-name="exclamdown" horiz-adv-x="559" d="M503 1210H236L292 1493H558L503 1210ZM267 0H1L128 655L230 1012H429L394 655L267 0Z" />
<glyph unicode="&#xa2;" glyph-name="cent" horiz-adv-x="1000" d="M999 1077L946 813Q901 853 846 876T727 907L592 215Q656 220 720 243T849 307L798 43Q736 12 673 -5T544 -25L489 -313H348L403 -25Q209 -3 105 115T1 434Q1 589 55 727T212 971Q292 1054 399
1098T630 1145L685 1432H827L772 1145Q825 1142 882 1125T999 1077ZM449 215L585 907Q449 892 356 762T262 457Q262 351 314 285T449 215Z" />
<glyph unicode="&#xa3;" glyph-name="sterling" horiz-adv-x="1283" d="M1270 1456L1217 1190Q1157 1231 1098 1251T977 1272Q872 1272 809 1205T717 995L684 819H1020L977 594H639L576 260H1057L1006 0H2L54 260H289L353 594H154L199 819H398L435 1016Q486 1284
614 1402T981 1520Q1055 1520 1127 1504T1270 1456Z" />
<glyph unicode="&#xa4;" glyph-name="currency" horiz-adv-x="974" d="M662 643Q662 716 612 765T488 815Q415 815 365 766T314 643Q314 569 364 518T488 467Q562 467 612 518T662 643ZM654 938L826 1108L953 979L783 809Q806 768 817 727T828 641Q828 594 817
554T781 477L953 307L822 176L652 348Q616 324 576 313T488 301Q449 301 407 311T320 344L150 176L21 305L191 475Q169 517 158 558T146 641Q146 688 157 728T193 807L21 977L152 1108L318 936Q359 960 400 971T488 983Q527 983 567 972T654 938Z" />
<glyph unicode="&#xa5;" glyph-name="yen" horiz-adv-x="1380" d="M163 1493H480L654 893L1062 1493H1379L1005 965H1228L1191 778H870L755 627H1162L1126 438H714L628 0H335L419 438H7L44 627H452L394 778H73L110 965H333L163 1493Z" />
<glyph unicode="&#xa6;" glyph-name="brokenbar" horiz-adv-x="277" d="M258 408V-350H31V408H258ZM258 1432V674H31V1432H258Z" />
<glyph unicode="&#xa7;" glyph-name="section" horiz-adv-x="974" d="M553 795Q552 795 512 822T434 877Q376 833 345 789T314 707Q314 668 331 639T387 584L465 530Q487 515 516 496T586 451Q643 490 674 534T705 618Q705 653 686 685T633 741L553 795ZM963 1460L918
1231Q850 1265 785 1281T656 1298Q571 1298 524 1264T477 1167Q477 1126 507 1090T647 985L752 918Q851 853 893 792T936 655Q936 571 881 496T711 354Q756 311 777 261T799 147Q799 -5 680 -100T365 -195Q283 -195 195 -180T8 -135L54 94Q128 61 207 44T361 27Q447
27 494 61T541 158Q541 227 389 328L371 340L271 408Q162 480 122 537T82 670Q82 763 143 840T318 967Q267 1008 243 1057T219 1169Q219 1326 336 1423T645 1520Q716 1520 796 1505T963 1460Z" />
<glyph unicode="&#xa8;" glyph-name="dieresis" horiz-adv-x="729" d="M467 1585H705L656 1339H420L467 1585ZM72 1585H309L260 1339H25L72 1585Z" />
<glyph unicode="&#xa9;" glyph-name="copyright" horiz-adv-x="1262" d="M863 1049V881Q811 912 766 926T672 940Q575 940 522 888T468 741Q468 646 521 595T672 543Q725 543 773 557T863 602V434Q808 417 755 408T652 399Q483 399 382 492T281 741Q281 897 382
990T652 1083Q707 1083 759 1075T863 1049ZM631 1358Q758 1358 867 1313T1066 1178Q1156 1087 1202 977T1248 741Q1248 616 1203 507T1066 307Q975 216 866 171T631 125Q506 125 397 170T197 307Q106 398 61 507T15 741Q15 867 61 977T197 1178Q287 1268 396 1313T631
1358ZM631 1229Q532 1229 447 1194T289 1085Q218 1014 182 928T146 741Q146 643 182 558T289 401Q360 329 446 293T631 256Q731 256 817 292T973 401Q1045 473 1081 558T1117 741Q1117 842 1081 928T973 1085Q901 1158 817 1193T631 1229Z" />
<glyph unicode="&#xaa;" glyph-name="ordfeminine" horiz-adv-x="864" d="M829 1165L741 717H534L553 805Q507 751 446 725T305 698Q198 698 135 759T71 924Q71 1073 182 1153T502 1233H637L643 1268Q644 1271 644 1275T645 1286Q645 1326 609 1347T502 1368Q445
1368 372 1348T215 1290L248 1464Q328 1492 399 1506T536 1520Q684 1520 766 1468T848 1321Q848 1289 844 1255T829 1165ZM528 1087Q406 1087 348 1051T289 940Q289 896 318 867T391 838Q476 838 532 902T608 1087H528ZM43 598H731L696 428H8L43 598Z" />
<glyph unicode="&#xab;" glyph-name="guillemotleft" horiz-adv-x="1044" d="M1028 1059L983 821L663 600L897 379L852 141L458 535L483 666L1028 1059ZM575 1059L528 821L209 600L442 379L397 141L4 535L28 666L575 1059Z" />
<glyph unicode="&#xac;" glyph-name="logicalnot" horiz-adv-x="1088" d="M0 899H1057V362H819V662H0V899Z" />
<glyph unicode="&#xad;" glyph-name="sfthyphen" horiz-adv-x="732" d="M79 735H708L652 444H24L79 735Z" />
<glyph unicode="&#xae;" glyph-name="registered" horiz-adv-x="1262" d="M631 1358Q758 1358 867 1313T1066 1178Q1156 1087 1202 977T1248 741Q1248 616 1203 507T1066 307Q975 216 866 171T631 125Q506 125 397 170T197 307Q106 398 61 507T15 741Q15 867 61
977T197 1178Q287 1268 396 1313T631 1358ZM603 944H539V780H603Q660 780 688 800T717 860Q717 903 689 923T603 944ZM621 1055Q754 1055 818 1011T883 877Q883 812 844 770T734 715Q772 701 799 673T851 596L930 430H758L695 563Q668 621 640 644T570 670H539V430H375V1055H621ZM631
1229Q532 1229 447 1194T289 1085Q218 1014 182 928T146 741Q146 643 182 558T289 399Q361 328 446 292T631 256Q730 256 816 292T973 399Q1045 473 1081 558T1117 741Q1117 842 1081 928T973 1085Q901 1158 817 1193T631 1229Z" />
<glyph unicode="&#xaf;" glyph-name="overscore" horiz-adv-x="720" d="M63 1556H694L657 1368H26L63 1556Z" />
<glyph unicode="&#xb0;" glyph-name="degree" horiz-adv-x="695" d="M348 1520Q415 1520 476 1495T584 1421Q631 1374 655 1314T680 1186Q680 1120 655 1059T584 952Q536 905 475 880T346 854Q205 854 110 949T15 1186Q15 1327 111 1423T348 1520ZM348 1358Q276
1358 226 1308T176 1186Q176 1114 225 1065T346 1016Q418 1016 468 1065T518 1186Q518 1258 469 1308T348 1358Z" />
<glyph unicode="&#xb1;" glyph-name="plusminus" horiz-adv-x="1075" d="M656 1284V930H1066V694H656V340H419V694H9V930H419V1284H656ZM9 238H1066V0H9V238Z" />
<glyph unicode="&#xb2;" glyph-name="twosuperior" horiz-adv-x="795" d="M264 813H702L674 668H10L39 809Q90 846 181 911Q581 1197 581 1288Q581 1333 545 1357T442 1382Q379 1382 305 1364T153 1311L184 1473Q260 1496 333 1508T479 1520Q623 1520 700 1466T778
1313Q778 1173 368 886Q300 839 264 813Z" />
<glyph unicode="&#xb3;" glyph-name="threesuperior" horiz-adv-x="788" d="M372 1042H261L290 1188H399Q487 1188 534 1215T581 1294Q581 1334 541 1357T431 1380Q383 1380 314 1368T165 1333L194 1485Q267 1502 337 1511T474 1520Q615 1520 694 1469T773 1329Q773
1239 713 1184T540 1116Q623 1107 672 1058T722 934Q722 800 613 727T300 653Q225 653 152 663T9 694L40 848Q102 821 175 807T327 793Q423 793 478 833T534 944Q534 989 491 1015T372 1042Z" />
<glyph unicode="&#xb4;" glyph-name="acute" horiz-adv-x="641" d="M320 1638H641L199 1262H2L320 1638Z" />
<glyph unicode="&#xb5;" glyph-name="mu" horiz-adv-x="1215" d="M11 -428L312 1120H601L469 440Q463 412 460 388T457 346Q457 283 491 248T586 213Q668 213 719 269T793 440L924 1120H1213L1063 344Q1058 309 1056 293T1053 268Q1053 241 1063 227T1094 213Q1106
213 1120 219T1156 238L1113 16Q1067 -7 1027 -18T951 -29Q879 -29 841 8T791 129Q738 50 677 11T545 -29Q487 -29 449 -5T396 66L299 -428H11Z" />
<glyph unicode="&#xb6;" glyph-name="paragraph" horiz-adv-x="1106" d="M580 1493H1098L770 -197H580L881 1346H690L391 -197H201L365 649Q194 667 102 753T10 981Q10 1198 172 1345T580 1493Z" />
<glyph unicode="&#xb7;" glyph-name="middot" horiz-adv-x="438" d="M88 895H422L350 530H17L88 895Z" />
<glyph unicode="&#xb8;" glyph-name="cedilla" horiz-adv-x="1233" d="M414 0Q450 -48 468 -94T486 -184Q486 -283 410 -342T203 -401Q151 -401 100 -395T1 -375L29 -219Q72 -236 113 -245T189 -254Q257 -254 293 -227T330 -150Q330 -124 317 -90T273 0H414Z" />
<glyph unicode="&#xb9;" glyph-name="onesuperior" horiz-adv-x="711" d="M35 813H271L377 1356L148 1313L177 1462L406 1503H603L468 813H695L666 668H9L35 813Z" />
<glyph unicode="&#xba;" glyph-name="ordmasculine" horiz-adv-x="870" d="M95 1016Q95 1240 214 1380T527 1520Q682 1520 768 1436T855 1202Q855 977 736 838T425 698Q269 698 182 782T95 1016ZM644 1196Q644 1272 610 1314T515 1356Q428 1356 368 1260T308 1022Q308
947 342 905T437 862Q524 862 584 958T644 1196ZM42 598H730L697 428H9L42 598Z" />
<glyph unicode="&#xbb;" glyph-name="guillemotright" horiz-adv-x="1045" d="M194 1059L587 666L561 535L16 141L61 379L383 600L149 821L194 1059ZM649 1059L1042 666L1015 535L471 141L516 379L837 600L604 821L649 1059Z" />
<glyph unicode="&#xbc;" glyph-name="onequarter" horiz-adv-x="1233" d="M617 384L303 54H553L617 384ZM635 566H840L739 54H848L821 -89H713L678 -269H490L526 -89H137L168 73L635 566ZM-222 969H14L120 1512L-109 1469L-80 1618L149 1659H346L211 969H438L409
824H-248L-222 969ZM37 500L0 618L1059 879L1096 762L37 500Z" />
<glyph unicode="&#xbd;" glyph-name="onehalf" horiz-adv-x="1233" d="M-222 969H14L120 1512L-109 1469L-80 1618L149 1659H346L211 969H438L409 824H-248L-222 969ZM37 500L0 618L1059 879L1096 762L37 500ZM418 -124H856L828 -269H164L193 -128Q244 -91 335
-26Q735 260 735 351Q735 396 699 420T596 445Q533 445 459 427T307 374L338 536Q414 559 487 571T633 583Q777 583 854 529T932 376Q932 236 522 -51Q454 -98 418 -124Z" />
<glyph unicode="&#xbe;" glyph-name="threequarters" horiz-adv-x="1233" d="M617 384L303 54H553L617 384ZM635 566H840L739 54H848L821 -89H713L678 -269H490L526 -89H137L168 73L635 566ZM146 1198H35L64 1344H173Q261 1344 308 1371T355 1450Q355 1490 315
1513T205 1536Q157 1536 88 1524T-61 1489L-32 1641Q41 1658 111 1667T248 1676Q389 1676 468 1625T547 1485Q547 1395 487 1340T314 1272Q397 1263 446 1214T496 1090Q496 956 387 883T74 809Q-1 809 -74 819T-217 850L-186 1004Q-124 977 -51 963T101 949Q197
949 252 989T308 1100Q308 1145 265 1171T146 1198ZM37 500L0 618L1059 879L1096 762L37 500Z" />
<glyph unicode="&#xbf;" glyph-name="questiondown" horiz-adv-x="868" d="M504 1092H770L741 938Q724 843 680 772T541 621L436 528L421 515Q281 393 281 328Q281 271 318 240T424 209Q513 209 615 245T834 354L782 86Q681 31 574 2T363 -27Q198 -27 99 55T0
272Q0 367 49 450T215 631L320 717L328 724Q454 829 481 969L504 1092ZM795 1210H528L582 1493H850L795 1210Z" />
<glyph unicode="&#xc0;" glyph-name="Agrave" horiz-adv-x="1233" d="M830 1219L566 612H850L830 1219ZM695 1493H1055L1168 0H875L861 369H461L299 0H0L695 1493ZM315 1899L458 1635H280L51 1899H315Z" />
<glyph unicode="&#xc1;" glyph-name="Aacute" horiz-adv-x="1233" d="M830 1219L566 612H850L830 1219ZM695 1493H1055L1168 0H875L861 369H461L299 0H0L695 1493ZM300 1899H581L261 1635H54L300 1899Z" />
<glyph unicode="&#xc2;" glyph-name="Acircumflex" horiz-adv-x="1233" d="M830 1219L566 612H850L830 1219ZM695 1493H1055L1168 0H875L861 369H461L299 0H0L695 1493ZM303 1899H651L802 1635H633L469 1796L239 1635H59L303 1899Z" />
<glyph unicode="&#xc3;" glyph-name="Atilde" horiz-adv-x="1233" d="M830 1219L566 612H850L830 1219ZM695 1493H1055L1168 0H875L861 369H461L299 0H0L695 1493ZM428 1686L379 1723Q354 1742 338 1748T303 1755Q268 1755 242 1723T205 1635H68Q93 1763 158 1832T320
1901Q357 1901 389 1889T457 1850L510 1809Q525 1796 543 1789T578 1782Q617 1782 643 1812T680 1901H817Q791 1773 726 1704T567 1635Q530 1635 498 1646T428 1686Z" />
<glyph unicode="&#xc4;" glyph-name="Adieresis" horiz-adv-x="1233" d="M830 1219L566 612H850L830 1219ZM695 1493H1055L1168 0H875L861 369H461L299 0H0L695 1493ZM521 1899H756L709 1653H472L521 1899ZM126 1899H361L312 1653H76L126 1899Z" />
<glyph unicode="&#xc5;" glyph-name="Aring" horiz-adv-x="1193" d="M736 1616Q736 1562 774 1524T867 1485Q921 1485 959 1523T998 1616Q998 1670 959 1708T867 1747Q813 1747 775 1709T736 1616ZM1061 1409L1168 0H873L852 369H457L295 0H0L660 1421Q624 1457
603 1510T582 1616Q582 1733 665 1817T867 1901Q983 1901 1067 1817T1151 1616Q1151 1557 1128 1503T1061 1409ZM822 1223L564 612H842L822 1223Z" />
<glyph unicode="&#xc6;" glyph-name="AE" horiz-adv-x="1479" d="M1464 1493L1413 1233H1122L1062 922H1322L1271 662H1011L933 260H1243L1191 0H628L700 362H417L262 0H3L655 1493H1464ZM790 1233L518 598H745L870 1233H790Z" />
<glyph unicode="&#xc7;" glyph-name="Ccedilla" horiz-adv-x="1233" d="M828 43Q751 7 671 -11T505 -29Q266 -29 140 108T13 506Q13 736 83 947T275 1296Q372 1406 502 1463T785 1520Q867 1520 945 1502T1101 1448L1037 1120Q987 1188 915 1222T754 1257Q674 1257
597 1209T466 1075Q397 968 355 818T312 532Q312 386 375 309T556 231Q637 231 717 264T892 371L828 43ZM531 0Q567 -48 585 -94T603 -184Q603 -283 527 -342T320 -401Q268 -401 217 -395T118 -375L146 -219Q189 -236 230 -245T306 -254Q374 -254 410 -227T447
-150Q447 -124 434 -90T390 0H531Z" />
<glyph unicode="&#xc8;" glyph-name="Egrave" horiz-adv-x="1233" d="M941 0H12L300 1493H1232L1181 1233H546L483 911H1058L1009 651H434L358 260H993L941 0ZM352 1899L495 1635H317L88 1899H352Z" />
<glyph unicode="&#xc9;" glyph-name="Eacute" horiz-adv-x="1233" d="M941 0H12L300 1493H1232L1181 1233H546L483 911H1058L1009 651H434L358 260H993L941 0ZM337 1899H618L298 1635H91L337 1899Z" />
<glyph unicode="&#xca;" glyph-name="Ecircumflex" horiz-adv-x="1233" d="M941 0H12L300 1493H1232L1181 1233H546L483 911H1058L1009 651H434L358 260H993L941 0ZM340 1899H688L839 1635H670L506 1796L276 1635H96L340 1899Z" />
<glyph unicode="&#xcb;" glyph-name="Edieresis" horiz-adv-x="1233" d="M941 0H12L300 1493H1232L1181 1233H546L483 911H1058L1009 651H434L358 260H993L941 0ZM558 1899H793L746 1653H509L558 1899ZM163 1899H398L349 1653H113L163 1899Z" />
<glyph unicode="&#xcc;" glyph-name="Igrave" horiz-adv-x="1233" d="M250 1233L301 1493H1190L1139 1233H842L654 260H951L899 0H11L62 260H359L547 1233H250ZM311 1899L454 1635H276L47 1899H311Z" />
<glyph unicode="&#xcd;" glyph-name="Iacute" horiz-adv-x="1233" d="M250 1233L301 1493H1190L1139 1233H842L654 260H951L899 0H11L62 260H359L547 1233H250ZM296 1899H577L257 1635H50L296 1899Z" />
<glyph unicode="&#xce;" glyph-name="Icircumflex" horiz-adv-x="1233" d="M250 1233L301 1493H1190L1139 1233H842L654 260H951L899 0H11L62 260H359L547 1233H250ZM299 1899H647L798 1635H629L465 1796L235 1635H55L299 1899Z" />
<glyph unicode="&#xcf;" glyph-name="Idieresis" horiz-adv-x="1233" d="M250 1233L301 1493H1190L1139 1233H842L654 260H951L899 0H11L62 260H359L547 1233H250ZM517 1899H752L705 1653H468L517 1899ZM122 1899H357L308 1653H72L122 1899Z" />
<glyph unicode="&#xd0;" glyph-name="Eth" horiz-adv-x="1209" d="M312 1493H627Q912 1493 1053 1370T1194 999Q1194 912 1181 814T1139 602Q1102 451 1050 346T926 172Q832 80 701 40T351 0H21L150 664H13L60 901H195L312 1493ZM553 1227L490 901H701L656 664H445L367
266H463Q575 266 652 310T772 442Q824 548 856 694T889 967Q889 1099 827 1163T635 1227H553Z" />
<glyph unicode="&#xd1;" glyph-name="Ntilde" horiz-adv-x="1233" d="M304 1493H607L822 408L1033 1493H1293L1005 0H712L487 1085L276 0H13L304 1493ZM428 1686L379 1723Q354 1742 338 1748T303 1755Q268 1755 242 1723T205 1635H68Q93 1763 158 1832T320 1901Q357
1901 389 1889T457 1850L510 1809Q525 1796 543 1789T578 1782Q617 1782 643 1812T680 1901H817Q791 1773 726 1704T567 1635Q530 1635 498 1646T428 1686Z" />
<glyph unicode="&#xd2;" glyph-name="Ograve" horiz-adv-x="1233" d="M822 1020Q822 1140 782 1200T661 1260Q602 1260 552 1225T466 1120Q444 1081 423 1017T378 860Q349 745 334 646T319 471Q319 351 359 292T480 233Q539 233 588 268T675 373Q698 417 720 482T763
631Q792 746 807 845T822 1020ZM15 465Q15 665 65 870T200 1229Q277 1369 402 1444T683 1520Q898 1520 1011 1394T1125 1030Q1125 828 1076 622T943 264Q865 123 740 47T458 -29Q241 -29 128 97T15 465ZM315 1899L458 1635H280L51 1899H315Z" />
<glyph unicode="&#xd3;" glyph-name="Oacute" horiz-adv-x="1233" d="M822 1020Q822 1140 782 1200T661 1260Q602 1260 552 1225T466 1120Q444 1081 423 1017T378 860Q349 745 334 646T319 471Q319 351 359 292T480 233Q539 233 588 268T675 373Q698 417 720 482T763
631Q792 746 807 845T822 1020ZM15 465Q15 665 65 870T200 1229Q277 1369 402 1444T683 1520Q898 1520 1011 1394T1125 1030Q1125 828 1076 622T943 264Q865 123 740 47T458 -29Q241 -29 128 97T15 465ZM300 1899H581L261 1635H54L300 1899Z" />
<glyph unicode="&#xd4;" glyph-name="Ocircumflex" horiz-adv-x="1233" d="M822 1020Q822 1140 782 1200T661 1260Q602 1260 552 1225T466 1120Q444 1081 423 1017T378 860Q349 745 334 646T319 471Q319 351 359 292T480 233Q539 233 588 268T675 373Q698 417
720 482T763 631Q792 746 807 845T822 1020ZM15 465Q15 665 65 870T200 1229Q277 1369 402 1444T683 1520Q898 1520 1011 1394T1125 1030Q1125 828 1076 622T943 264Q865 123 740 47T458 -29Q241 -29 128 97T15 465ZM303 1899H651L802 1635H633L469 1796L239 1635H59L303
1899Z" />
<glyph unicode="&#xd5;" glyph-name="Otilde" horiz-adv-x="1233" d="M822 1020Q822 1140 782 1200T661 1260Q602 1260 552 1225T466 1120Q444 1081 423 1017T378 860Q349 745 334 646T319 471Q319 351 359 292T480 233Q539 233 588 268T675 373Q698 417 720 482T763
631Q792 746 807 845T822 1020ZM15 465Q15 665 65 870T200 1229Q277 1369 402 1444T683 1520Q898 1520 1011 1394T1125 1030Q1125 828 1076 622T943 264Q865 123 740 47T458 -29Q241 -29 128 97T15 465ZM428 1686L379 1723Q354 1742 338 1748T303 1755Q268 1755
242 1723T205 1635H68Q93 1763 158 1832T320 1901Q357 1901 389 1889T457 1850L510 1809Q525 1796 543 1789T578 1782Q617 1782 643 1812T680 1901H817Q791 1773 726 1704T567 1635Q530 1635 498 1646T428 1686Z" />
<glyph unicode="&#xd6;" glyph-name="Odieresis" horiz-adv-x="1233" d="M822 1020Q822 1140 782 1200T661 1260Q602 1260 552 1225T466 1120Q444 1081 423 1017T378 860Q349 745 334 646T319 471Q319 351 359 292T480 233Q539 233 588 268T675 373Q698 417 720
482T763 631Q792 746 807 845T822 1020ZM15 465Q15 665 65 870T200 1229Q277 1369 402 1444T683 1520Q898 1520 1011 1394T1125 1030Q1125 828 1076 622T943 264Q865 123 740 47T458 -29Q241 -29 128 97T15 465ZM521 1899H756L709 1653H472L521 1899ZM126 1899H361L312
1653H76L126 1899Z" />
<glyph unicode="&#xd7;" glyph-name="multiply" horiz-adv-x="1029" d="M1011 971L681 643L1011 313L843 147L513 475L186 147L18 313L348 643L18 971L186 1139L513 811L843 1139L1011 971Z" />
<glyph unicode="&#xd8;" glyph-name="Oslash" horiz-adv-x="1508" d="M521 354Q539 294 577 264T672 233Q797 233 874 386T1004 889L521 354ZM224 295Q216 329 212 366T207 442Q207 656 256 865T390 1227Q468 1369 594 1444T877 1520Q982 1520 1065 1487T1209
1389L1363 1559L1502 1444L1297 1217Q1307 1161 1312 1113T1317 1020Q1317 958 1310 887T1289 737Q1264 598 1226 480T1135 264Q1057 123 932 47T650 -29Q536 -29 450 8T306 117L146 -63L5 51L224 295ZM998 1153Q980 1205 943 1232T853 1260Q732 1260 656 1114T525
629L998 1153Z" />
<glyph unicode="&#xd9;" glyph-name="Ugrave" horiz-adv-x="1233" d="M41 551L225 1493H520L321 477Q321 475 320 471Q313 424 313 403Q313 321 359 276T489 231Q597 231 661 292T751 477L950 1493H1245L1060 551Q1025 371 985 279T882 123Q806 49 702 10T473
-29Q254 -29 136 70T18 352Q18 394 23 444T41 551ZM321 1899L464 1635H286L57 1899H321Z" />
<glyph unicode="&#xda;" glyph-name="Uacute" horiz-adv-x="1233" d="M41 551L225 1493H520L321 477Q321 475 320 471Q313 424 313 403Q313 321 359 276T489 231Q597 231 661 292T751 477L950 1493H1245L1060 551Q1025 371 985 279T882 123Q806 49 702 10T473
-29Q254 -29 136 70T18 352Q18 394 23 444T41 551ZM306 1899H587L267 1635H60L306 1899Z" />
<glyph unicode="&#xdb;" glyph-name="Ucircumflex" horiz-adv-x="1233" d="M41 551L225 1493H520L321 477Q321 475 320 471Q313 424 313 403Q313 321 359 276T489 231Q597 231 661 292T751 477L950 1493H1245L1060 551Q1025 371 985 279T882 123Q806 49 702 10T473
-29Q254 -29 136 70T18 352Q18 394 23 444T41 551ZM309 1899H657L808 1635H639L475 1796L245 1635H65L309 1899Z" />
<glyph unicode="&#xdc;" glyph-name="Udieresis" horiz-adv-x="1233" d="M41 551L225 1493H520L321 477Q321 475 320 471Q313 424 313 403Q313 321 359 276T489 231Q597 231 661 292T751 477L950 1493H1245L1060 551Q1025 371 985 279T882 123Q806 49 702 10T473
-29Q254 -29 136 70T18 352Q18 394 23 444T41 551ZM527 1899H762L715 1653H478L527 1899ZM132 1899H367L318 1653H82L132 1899Z" />
<glyph unicode="&#xdd;" glyph-name="Yacute" horiz-adv-x="1233" d="M14 1493H307L494 844L905 1493H1227L594 588L479 0H186L301 588L14 1493ZM296 1899H577L257 1635H50L296 1899Z" />
<glyph unicode="&#xde;" glyph-name="Thorn" horiz-adv-x="1160" d="M370 332L306 0H11L302 1493H597L550 1266H677Q913 1266 1036 1174T1160 907Q1160 794 1124 683T1029 506Q951 414 835 373T534 332H370ZM505 1018L419 580H564Q710 580 781 647T853 850Q853
941 802 979T626 1018H505Z" />
<glyph unicode="&#xdf;" glyph-name="germandbls" horiz-adv-x="1156" d="M1124 1059Q983 1051 905 1001T827 868Q827 811 923 715L929 709L1005 633Q1064 574 1093 512T1122 381Q1122 193 994 82T645 -29Q579 -29 514 -17T385 20L434 270Q492 239 545 223T645
207Q735 207 787 246T839 354Q839 420 728 531L722 537L653 608Q609 653 588 704T567 815Q567 950 658 1043T919 1174V1190Q919 1254 874 1289T747 1325Q654 1325 597 1274T520 1122L301 0H8L227 1126Q268 1338 399 1448T743 1559Q941 1559 1038 1472T1136 1208Q1136
1165 1125 1065L1124 1059Z" />
<glyph unicode="&#xe0;" glyph-name="agrave" horiz-adv-x="1233" d="M655 530Q483 530 400 478T317 317Q317 254 357 213T461 172Q579 172 659 265T768 530H655ZM1079 639L956 0H665L690 125Q623 48 537 10T340 -29Q189 -29 101 58T12 295Q12 510 167 623T616
737H809L817 786Q818 792 818 797T819 815Q819 872 768 902T620 932Q538 932 435 904T213 819L260 1069Q373 1108 473 1127T665 1147Q882 1147 994 1071T1106 848Q1106 809 1099 756T1079 639ZM315 1638L524 1262H326L31 1638H315Z" />
<glyph unicode="&#xe1;" glyph-name="aacute" horiz-adv-x="1233" d="M655 530Q483 530 400 478T317 317Q317 254 357 213T461 172Q579 172 659 265T768 530H655ZM1079 639L956 0H665L690 125Q623 48 537 10T340 -29Q189 -29 101 58T12 295Q12 510 167 623T616
737H809L817 786Q818 792 818 797T819 815Q819 872 768 902T620 932Q538 932 435 904T213 819L260 1069Q373 1108 473 1127T665 1147Q882 1147 994 1071T1106 848Q1106 809 1099 756T1079 639ZM351 1638H672L230 1262H33L351 1638Z" />
<glyph unicode="&#xe2;" glyph-name="acircumflex" horiz-adv-x="1233" d="M655 530Q483 530 400 478T317 317Q317 254 357 213T461 172Q579 172 659 265T768 530H655ZM1079 639L956 0H665L690 125Q623 48 537 10T340 -29Q189 -29 101 58T12 295Q12 510 167 623T616
737H809L817 786Q818 792 818 797T819 815Q819 872 768 902T620 932Q538 932 435 904T213 819L260 1069Q373 1108 473 1127T665 1147Q882 1147 994 1071T1106 848Q1106 809 1099 756T1079 639ZM366 1638H609L792 1262H616L464 1487L224 1262H34L366 1638Z" />
<glyph unicode="&#xe3;" glyph-name="atilde" horiz-adv-x="1233" d="M655 530Q483 530 400 478T317 317Q317 254 357 213T461 172Q579 172 659 265T768 530H655ZM1079 639L956 0H665L690 125Q623 48 537 10T340 -29Q189 -29 101 58T12 295Q12 510 167 623T616
737H809L817 786Q818 792 818 797T819 815Q819 872 768 902T620 932Q538 932 435 904T213 819L260 1069Q373 1108 473 1127T665 1147Q882 1147 994 1071T1106 848Q1106 809 1099 756T1079 639ZM410 1364L361 1401Q360 1402 356 1405Q314 1438 283 1438Q249 1438
223 1404T187 1309H48Q67 1439 135 1516T298 1593Q332 1593 362 1581T439 1532L490 1493Q509 1478 527 1470T560 1462Q598 1462 624 1495T660 1591H799Q776 1450 714 1379T550 1307Q515 1307 483 1320T410 1364Z" />
<glyph unicode="&#xe4;" glyph-name="adieresis" horiz-adv-x="1233" d="M655 530Q483 530 400 478T317 317Q317 254 357 213T461 172Q579 172 659 265T768 530H655ZM1079 639L956 0H665L690 125Q623 48 537 10T340 -29Q189 -29 101 58T12 295Q12 510 167 623T616
737H809L817 786Q818 792 818 797T819 815Q819 872 768 902T620 932Q538 932 435 904T213 819L260 1069Q373 1108 473 1127T665 1147Q882 1147 994 1071T1106 848Q1106 809 1099 756T1079 639ZM498 1585H736L687 1339H451L498 1585ZM103 1585H340L291 1339H56L103
1585Z" />
<glyph unicode="&#xe5;" glyph-name="aring" horiz-adv-x="1233" d="M655 530Q483 530 400 478T317 317Q317 254 357 213T461 172Q579 172 659 265T768 530H655ZM1079 639L956 0H665L690 125Q623 48 537 10T340 -29Q189 -29 101 58T12 295Q12 510 167 623T616
737H809L817 786Q818 792 818 797T819 815Q819 872 768 902T620 932Q538 932 435 904T213 819L260 1069Q373 1108 473 1127T665 1147Q882 1147 994 1071T1106 848Q1106 809 1099 756T1079 639ZM46 1534Q46 1652 129 1735T331 1819Q449 1819 532 1736T615 1534Q615
1416 532 1333T331 1249Q212 1249 129 1332T46 1534ZM199 1534Q199 1479 237 1441T331 1403Q385 1403 423 1441T462 1534Q462 1588 423 1626T331 1665Q276 1665 238 1627T199 1534Z" />
<glyph unicode="&#xe6;" glyph-name="ae" horiz-adv-x="1298" d="M510 401L524 479H450Q352 479 294 428T235 291Q235 240 264 210T342 180Q409 180 449 232T510 401ZM1038 688L1050 755Q1054 772 1055 789T1057 834Q1057 885 1037 908T973 932Q917 932 882 890T827
760L813 688H1038ZM1223 477H772Q764 428 761 402T758 356Q758 276 800 228T913 180Q969 180 1037 208T1171 289L1124 51Q1067 11 999 -9T850 -29Q756 -29 689 13T590 135Q529 52 456 12T293 -29Q166 -29 91 50T16 262Q16 455 137 572T463 690H571L582 748Q585
763 586 778T588 807Q588 868 554 900T455 932Q403 932 334 907T178 831L225 1069Q304 1108 376 1127T518 1147Q600 1147 658 1112T741 1014Q793 1079 862 1113T1016 1147Q1142 1147 1210 1077T1278 877Q1278 828 1270 761T1245 606L1223 477Z" />
<glyph unicode="&#xe7;" glyph-name="ccedilla" horiz-adv-x="1233" d="M820 37Q743 4 662 -12T497 -29Q271 -29 143 95T14 434Q14 751 197 949T677 1147Q775 1147 860 1127T1021 1063L968 795Q907 853 839 881T693 909Q523 909 417 785T310 463Q310 335 371 272T556
209Q626 209 705 235T876 313L820 37ZM486 0Q522 -48 540 -94T558 -184Q558 -283 482 -342T275 -401Q223 -401 172 -395T73 -375L101 -219Q144 -236 185 -245T261 -254Q329 -254 365 -227T402 -150Q402 -124 389 -90T345 0H486Z" />
<glyph unicode="&#xe8;" glyph-name="egrave" horiz-adv-x="1233" d="M932 55Q837 13 734 -8T521 -29Q273 -29 144 89T15 436Q15 577 59 709T183 938Q267 1040 383 1094T633 1149Q842 1149 968 1029T1094 711Q1094 666 1088 607T1067 465H308Q305 448 304 433T301
403Q301 304 368 254T566 203Q674 203 782 234T983 324L932 55ZM815 684Q819 698 820 711T822 737Q822 822 771 871T631 920Q531 920 460 861T349 684H815ZM284 1638L493 1262H295L0 1638H284Z" />
<glyph unicode="&#xe9;" glyph-name="eacute" horiz-adv-x="1233" d="M932 55Q837 13 734 -8T521 -29Q273 -29 144 89T15 436Q15 577 59 709T183 938Q267 1040 383 1094T633 1149Q842 1149 968 1029T1094 711Q1094 666 1088 607T1067 465H308Q305 448 304 433T301
403Q301 304 368 254T566 203Q674 203 782 234T983 324L932 55ZM815 684Q819 698 820 711T822 737Q822 822 771 871T631 920Q531 920 460 861T349 684H815ZM320 1638H641L199 1262H2L320 1638Z" />
<glyph unicode="&#xea;" glyph-name="ecircumflex" horiz-adv-x="1233" d="M932 55Q837 13 734 -8T521 -29Q273 -29 144 89T15 436Q15 577 59 709T183 938Q267 1040 383 1094T633 1149Q842 1149 968 1029T1094 711Q1094 666 1088 607T1067 465H308Q305 448 304
433T301 403Q301 304 368 254T566 203Q674 203 782 234T983 324L932 55ZM815 684Q819 698 820 711T822 737Q822 822 771 871T631 920Q531 920 460 861T349 684H815ZM335 1638H578L761 1262H585L433 1487L193 1262H3L335 1638Z" />
<glyph unicode="&#xeb;" glyph-name="edieresis" horiz-adv-x="1233" d="M932 55Q837 13 734 -8T521 -29Q273 -29 144 89T15 436Q15 577 59 709T183 938Q267 1040 383 1094T633 1149Q842 1149 968 1029T1094 711Q1094 666 1088 607T1067 465H308Q305 448 304 433T301
403Q301 304 368 254T566 203Q674 203 782 234T983 324L932 55ZM815 684Q819 698 820 711T822 737Q822 822 771 871T631 920Q531 920 460 861T349 684H815ZM467 1585H705L656 1339H420L467 1585ZM72 1585H309L260 1339H25L72 1585Z" />
<glyph unicode="&#xec;" glyph-name="igrave" horiz-adv-x="1233" d="M305 1120H885L711 225H1075L1032 0H10L53 225H418L549 895H262L305 1120ZM496 1638L705 1262H507L212 1638H496Z" />
<glyph unicode="&#xed;" glyph-name="iacute" horiz-adv-x="1233" d="M305 1120H885L711 225H1075L1032 0H10L53 225H418L549 895H262L305 1120ZM532 1638H853L411 1262H214L532 1638Z" />
<glyph unicode="&#xee;" glyph-name="icircumflex" horiz-adv-x="1233" d="M305 1120H885L711 225H1075L1032 0H10L53 225H418L549 895H262L305 1120ZM547 1638H790L973 1262H797L645 1487L405 1262H215L547 1638Z" />
<glyph unicode="&#xef;" glyph-name="idieresis" horiz-adv-x="1233" d="M305 1120H885L711 225H1075L1032 0H10L53 225H418L549 895H262L305 1120ZM679 1585H917L868 1339H632L679 1585ZM284 1585H521L472 1339H237L284 1585Z" />
<glyph unicode="&#xf0;" glyph-name="eth" horiz-adv-x="1143" d="M763 778Q725 799 684 809T599 819Q470 819 385 709T300 428Q300 327 350 267T484 207Q610 207 691 332T773 655Q773 688 771 718T763 778ZM828 1329Q948 1147 1007 980T1066 653Q1066 345 901
158T464 -29Q246 -29 127 86T7 412Q7 693 167 873T576 1053Q618 1053 651 1047T713 1028Q686 1091 659 1144T603 1243L273 1120L232 1235L539 1350L414 1556H693L767 1436L1090 1554L1131 1442L828 1329Z" />
<glyph unicode="&#xf1;" glyph-name="ntilde" horiz-adv-x="1233" d="M1056 728L915 0H622L755 682Q760 708 762 734T765 788Q765 846 736 876T652 907Q570 907 512 835T427 629L306 0H13L230 1120H523L491 952Q539 1044 623 1095T808 1147Q936 1147 1005 1078T1074
881Q1074 851 1070 813T1056 728ZM379 1364L330 1401Q329 1402 325 1405Q283 1438 252 1438Q218 1438 192 1404T156 1309H17Q36 1439 104 1516T267 1593Q301 1593 331 1581T408 1532L459 1493Q478 1478 496 1470T529 1462Q567 1462 593 1495T629 1591H768Q745 1450
683 1379T519 1307Q484 1307 452 1320T379 1364Z" />
<glyph unicode="&#xf2;" glyph-name="ograve" horiz-adv-x="1233" d="M778 684Q778 793 732 852T600 911Q477 911 394 775T311 434Q311 328 359 268T491 207Q612 207 695 343T778 684ZM16 426Q16 748 182 948T616 1149Q831 1149 952 1029T1073 694Q1073 371 907
171T473 -29Q258 -29 137 91T16 426ZM284 1638L493 1262H295L0 1638H284Z" />
<glyph unicode="&#xf3;" glyph-name="oacute" horiz-adv-x="1233" d="M778 684Q778 793 732 852T600 911Q477 911 394 775T311 434Q311 328 359 268T491 207Q612 207 695 343T778 684ZM16 426Q16 748 182 948T616 1149Q831 1149 952 1029T1073 694Q1073 371 907
171T473 -29Q258 -29 137 91T16 426ZM320 1638H641L199 1262H2L320 1638Z" />
<glyph unicode="&#xf4;" glyph-name="ocircumflex" horiz-adv-x="1233" d="M778 684Q778 793 732 852T600 911Q477 911 394 775T311 434Q311 328 359 268T491 207Q612 207 695 343T778 684ZM16 426Q16 748 182 948T616 1149Q831 1149 952 1029T1073 694Q1073 371
907 171T473 -29Q258 -29 137 91T16 426ZM335 1638H578L761 1262H585L433 1487L193 1262H3L335 1638Z" />
<glyph unicode="&#xf5;" glyph-name="otilde" horiz-adv-x="1233" d="M778 684Q778 793 732 852T600 911Q477 911 394 775T311 434Q311 328 359 268T491 207Q612 207 695 343T778 684ZM16 426Q16 748 182 948T616 1149Q831 1149 952 1029T1073 694Q1073 371 907
171T473 -29Q258 -29 137 91T16 426ZM379 1364L330 1401Q329 1402 325 1405Q283 1438 252 1438Q218 1438 192 1404T156 1309H17Q36 1439 104 1516T267 1593Q301 1593 331 1581T408 1532L459 1493Q478 1478 496 1470T529 1462Q567 1462 593 1495T629 1591H768Q745
1450 683 1379T519 1307Q484 1307 452 1320T379 1364Z" />
<glyph unicode="&#xf6;" glyph-name="odieresis" horiz-adv-x="1233" d="M778 684Q778 793 732 852T600 911Q477 911 394 775T311 434Q311 328 359 268T491 207Q612 207 695 343T778 684ZM16 426Q16 748 182 948T616 1149Q831 1149 952 1029T1073 694Q1073 371
907 171T473 -29Q258 -29 137 91T16 426ZM467 1585H705L656 1339H420L467 1585ZM72 1585H309L260 1339H25L72 1585Z" />
<glyph unicode="&#xf7;" glyph-name="divide" horiz-adv-x="1099" d="M395 1198H704V889H395V1198ZM395 395H704V86H395V395ZM0 762H1099V524H0V762Z" />
<glyph unicode="&#xf8;" glyph-name="oslash" horiz-adv-x="1403" d="M521 266Q545 236 576 222T648 207Q769 207 845 328T937 670L521 266ZM216 209Q196 255 186 308T175 422Q175 749 340 949T775 1149Q867 1149 944 1124T1088 1049L1281 1235L1398 1114L1191
913Q1211 864 1221 810T1232 696Q1232 370 1066 171T630 -29Q532 -29 457 -4T320 72L122 -117L5 2L216 209ZM888 856Q863 884 832 897T761 911Q640 911 565 793T470 453L888 856Z" />
<glyph unicode="&#xf9;" glyph-name="ugrave" horiz-adv-x="1233" d="M37 391L180 1120H471L340 436Q335 409 333 383T330 332Q330 274 359 243T442 211Q525 211 581 281T666 489L788 1120H1079L862 0H569L602 166Q558 76 473 24T287 -29Q158 -29 89 41T20 244Q20
272 24 308T37 391ZM284 1638L493 1262H295L0 1638H284Z" />
<glyph unicode="&#xfa;" glyph-name="uacute" horiz-adv-x="1233" d="M37 391L180 1120H471L340 436Q335 409 333 383T330 332Q330 274 359 243T442 211Q525 211 581 281T666 489L788 1120H1079L862 0H569L602 166Q558 76 473 24T287 -29Q158 -29 89 41T20 244Q20
272 24 308T37 391ZM320 1638H641L199 1262H2L320 1638Z" />
<glyph unicode="&#xfb;" glyph-name="ucircumflex" horiz-adv-x="1233" d="M37 391L180 1120H471L340 436Q335 409 333 383T330 332Q330 274 359 243T442 211Q525 211 581 281T666 489L788 1120H1079L862 0H569L602 166Q558 76 473 24T287 -29Q158 -29 89 41T20
244Q20 272 24 308T37 391ZM335 1638H578L761 1262H585L433 1487L193 1262H3L335 1638Z" />
<glyph unicode="&#xfc;" glyph-name="udieresis" horiz-adv-x="1233" d="M37 391L180 1120H471L340 436Q335 409 333 383T330 332Q330 274 359 243T442 211Q525 211 581 281T666 489L788 1120H1079L862 0H569L602 166Q558 76 473 24T287 -29Q158 -29 89 41T20
244Q20 272 24 308T37 391ZM467 1585H705L656 1339H420L467 1585ZM72 1585H309L260 1339H25L72 1585Z" />
<glyph unicode="&#xfd;" glyph-name="yacute" horiz-adv-x="1233" d="M654 -121Q542 -319 461 -371T253 -424H13L58 -201H175Q262 -201 312 -171T422 -29L461 45L244 1120H541L668 420L1051 1120H1360L654 -121ZM320 1638H641L199 1262H2L320 1638Z" />
<glyph unicode="&#xfe;" glyph-name="thorn" horiz-adv-x="1214" d="M647 209Q758 209 838 351T919 694Q919 795 878 851T762 907Q648 907 565 769T481 432Q481 328 526 269T647 209ZM424 207L301 -426H8L393 1556H686L569 952Q640 1050 722 1098T897 1147Q1044
1147 1129 1038T1214 739Q1214 610 1183 480T1096 244Q1027 115 922 43T700 -29Q588 -29 516 33T424 207Z" />
<glyph unicode="&#xff;" glyph-name="ydieresis" horiz-adv-x="1233" d="M654 -121Q542 -319 461 -371T253 -424H13L58 -201H175Q262 -201 312 -171T422 -29L461 45L244 1120H541L668 420L1051 1120H1360L654 -121ZM467 1585H705L656 1339H420L467 1585ZM72 1585H309L260
1339H25L72 1585Z" />
<glyph unicode="&#x100;" glyph-name="Amacron" horiz-adv-x="1233" d="M830 1219L566 612H850L830 1219ZM695 1493H1055L1168 0H875L861 369H461L299 0H0L695 1493ZM62 1870H693L657 1682H26L62 1870Z" />
<glyph unicode="&#x101;" glyph-name="amacron" horiz-adv-x="1233" d="M655 530Q483 530 400 478T317 317Q317 254 357 213T461 172Q579 172 659 265T768 530H655ZM1079 639L956 0H665L690 125Q623 48 537 10T340 -29Q189 -29 101 58T12 295Q12 510 167 623T616
737H809L817 786Q818 792 818 797T819 815Q819 872 768 902T620 932Q538 932 435 904T213 819L260 1069Q373 1108 473 1127T665 1147Q882 1147 994 1071T1106 848Q1106 809 1099 756T1079 639ZM63 1556H694L657 1368H26L63 1556Z" />
<glyph unicode="&#x102;" glyph-name="Abreve" horiz-adv-x="1233" d="M19 1899H162Q172 1839 213 1812T333 1784Q404 1784 457 1814T533 1899H687Q647 1770 548 1703T302 1635Q166 1635 93 1702T19 1895V1899ZM830 1219L566 612H850L830 1219ZM695 1493H1055L1168
0H875L861 369H461L299 0H0L695 1493Z" />
<glyph unicode="&#x103;" glyph-name="abreve" horiz-adv-x="1233" d="M20 1606H164V1593Q164 1532 208 1496T328 1460Q409 1460 467 1498T551 1606H694Q665 1464 566 1387T315 1309Q167 1309 94 1374T20 1573V1606ZM655 530Q483 530 400 478T317 317Q317 254
357 213T461 172Q579 172 659 265T768 530H655ZM1079 639L956 0H665L690 125Q623 48 537 10T340 -29Q189 -29 101 58T12 295Q12 510 167 623T616 737H809L817 786Q818 792 818 797T819 815Q819 872 768 902T620 932Q538 932 435 904T213 819L260 1069Q373 1108
473 1127T665 1147Q882 1147 994 1071T1106 848Q1106 809 1099 756T1079 639Z" />
<glyph unicode="&#x104;" glyph-name="Aogonek" horiz-adv-x="1233" d="M525 0H666Q591 -80 567 -117T543 -180Q543 -213 569 -233T637 -254Q674 -254 714 -247T799 -223L768 -379Q719 -390 673 -395T584 -401Q485 -401 427 -363T369 -258Q369 -198 408 -134T525
0ZM830 1219L566 612H850L830 1219ZM695 1493H1055L1168 0H875L861 369H461L299 0H0L695 1493Z" />
<glyph unicode="&#x105;" glyph-name="aogonek" horiz-adv-x="1233" d="M458 0H599Q524 -80 500 -117T476 -180Q476 -213 502 -233T570 -254Q607 -254 647 -247T732 -223L701 -379Q652 -390 606 -395T517 -401Q418 -401 360 -363T302 -258Q302 -198 341 -134T458
0ZM655 530Q483 530 400 478T317 317Q317 254 357 213T461 172Q579 172 659 265T768 530H655ZM1079 639L956 0H665L690 125Q623 48 537 10T340 -29Q189 -29 101 58T12 295Q12 510 167 623T616 737H809L817 786Q818 792 818 797T819 815Q819 872 768 902T620 932Q538
932 435 904T213 819L260 1069Q373 1108 473 1127T665 1147Q882 1147 994 1071T1106 848Q1106 809 1099 756T1079 639Z" />
<glyph unicode="&#x106;" glyph-name="Cacute" horiz-adv-x="1233" d="M828 43Q751 7 671 -11T505 -29Q266 -29 140 108T13 506Q13 736 83 947T275 1296Q372 1406 502 1463T785 1520Q867 1520 945 1502T1101 1448L1037 1120Q987 1188 915 1222T754 1257Q674 1257
597 1209T466 1075Q397 968 355 818T312 532Q312 386 375 309T556 231Q637 231 717 264T892 371L828 43ZM442 1899H723L403 1635H196L442 1899Z" />
<glyph unicode="&#x107;" glyph-name="cacute" horiz-adv-x="1233" d="M820 37Q743 4 662 -12T497 -29Q271 -29 143 95T14 434Q14 751 197 949T677 1147Q775 1147 860 1127T1021 1063L968 795Q907 853 839 881T693 909Q523 909 417 785T310 463Q310 335 371 272T556
209Q626 209 705 235T876 313L820 37ZM406 1638H727L285 1262H88L406 1638Z" />
<glyph unicode="&#x108;" glyph-name="Ccircumflex" horiz-adv-x="1233" d="M445 1899H793L944 1635H775L611 1796L381 1635H201L445 1899ZM828 43Q751 7 671 -11T505 -29Q266 -29 140 108T13 506Q13 736 83 947T275 1296Q372 1406 502 1463T785 1520Q867 1520
945 1502T1101 1448L1037 1120Q987 1188 915 1222T754 1257Q674 1257 597 1209T466 1075Q397 968 355 818T312 532Q312 386 375 309T556 231Q637 231 717 264T892 371L828 43Z" />
<glyph unicode="&#x109;" glyph-name="ccircumflex" horiz-adv-x="1233" d="M421 1638H664L847 1262H671L519 1487L279 1262H89L421 1638ZM820 37Q743 4 662 -12T497 -29Q271 -29 143 95T14 434Q14 751 197 949T677 1147Q775 1147 860 1127T1021 1063L968 795Q907
853 839 881T693 909Q523 909 417 785T310 463Q310 335 371 272T556 209Q626 209 705 235T876 313L820 37Z" />
<glyph unicode="&#x10a;" glyph-name="Cdotaccent" horiz-adv-x="1233" d="M167 1899H442L394 1653H119L167 1899ZM828 43Q751 7 671 -11T505 -29Q266 -29 140 108T13 506Q13 736 83 947T275 1296Q372 1406 502 1463T785 1520Q867 1520 945 1502T1101 1448L1037
1120Q987 1188 915 1222T754 1257Q674 1257 597 1209T466 1075Q397 968 355 818T312 532Q312 386 375 309T556 231Q637 231 717 264T892 371L828 43Z" />
<glyph unicode="&#x10b;" glyph-name="cdotaccent" horiz-adv-x="1233" d="M143 1585H415L368 1339H94L143 1585ZM820 37Q743 4 662 -12T497 -29Q271 -29 143 95T14 434Q14 751 197 949T677 1147Q775 1147 860 1127T1021 1063L968 795Q907 853 839 881T693 909Q523
909 417 785T310 463Q310 335 371 272T556 209Q626 209 705 235T876 313L820 37Z" />
<glyph unicode="&#x10c;" glyph-name="Ccaron" horiz-adv-x="1233" d="M828 43Q751 7 671 -11T505 -29Q266 -29 140 108T13 506Q13 736 83 947T275 1296Q372 1406 502 1463T785 1520Q867 1520 945 1502T1101 1448L1037 1120Q987 1188 915 1222T754 1257Q674 1257
597 1209T466 1075Q397 968 355 818T312 532Q312 386 375 309T556 231Q637 231 717 264T892 371L828 43ZM693 1635H345L208 1899H378L527 1737L756 1899H937L693 1635Z" />
<glyph unicode="&#x10d;" glyph-name="ccaron" horiz-adv-x="1233" d="M820 37Q743 4 662 -12T497 -29Q271 -29 143 95T14 434Q14 751 197 949T677 1147Q775 1147 860 1127T1021 1063L968 795Q907 853 839 881T693 909Q523 909 417 785T310 463Q310 335 371 272T556
209Q626 209 705 235T876 313L820 37ZM522 1262H280L98 1638H272L425 1411L663 1638H853L522 1262Z" />
<glyph unicode="&#x10e;" glyph-name="Dcaron" horiz-adv-x="1233" d="M544 1227L358 266H454Q566 266 643 310T763 442Q815 548 847 694T880 967Q880 1099 818 1163T626 1227H544ZM303 1493H618Q903 1493 1044 1370T1185 999Q1185 912 1172 814T1130 602Q1093
451 1041 346T917 172Q823 80 692 40T342 0H12L303 1493ZM573 1635H225L88 1899H258L407 1737L636 1899H817L573 1635Z" />
<glyph unicode="&#x10f;" glyph-name="dcaron" horiz-adv-x="1233" d="M773 1557H1094L837 1181H640L773 1557ZM569 909Q458 909 378 768T298 424Q298 323 339 267T454 211Q568 211 651 349T735 686Q735 790 690 849T569 909ZM790 911L915 1556H1208L905 0H614L645
166Q579 70 497 21T319 -29Q173 -29 88 81T2 381Q2 510 33 638T120 874Q189 1003 294 1076T516 1149Q628 1149 701 1086T790 911Z" />
<glyph unicode="&#x110;" glyph-name="Dcroat" horiz-adv-x="1233" d="M312 1493H627Q912 1493 1053 1370T1194 999Q1194 912 1181 814T1139 602Q1102 451 1050 346T926 172Q832 80 701 40T351 0H21L150 664H13L60 901H195L312 1493ZM553 1227L490 901H701L656
664H445L367 266H463Q575 266 652 310T772 442Q824 548 856 694T889 967Q889 1099 827 1163T635 1227H553Z" />
<glyph unicode="&#x111;" glyph-name="" horiz-adv-x="1340" d="M794 911L860 1251H556L593 1440H896L919 1556H1212L1189 1440H1335L1298 1251H1152L909 0H618L649 166Q583 70 501 21T323 -29Q177 -29 92 81T6 381Q6 510 37 638T124 874Q193 1003 298 1076T520
1149Q632 1149 705 1086T794 911ZM573 909Q462 909 382 768T302 424Q302 323 343 267T458 211Q572 211 655 349T739 686Q739 790 694 849T573 909Z" />
<glyph unicode="&#x112;" glyph-name="Emacron" horiz-adv-x="1233" d="M941 0H12L300 1493H1232L1181 1233H546L483 911H1058L1009 651H434L358 260H993L941 0ZM93 1870H724L688 1682H57L93 1870Z" />
<glyph unicode="&#x113;" glyph-name="emacron" horiz-adv-x="1233" d="M932 55Q837 13 734 -8T521 -29Q273 -29 144 89T15 436Q15 577 59 709T183 938Q267 1040 383 1094T633 1149Q842 1149 968 1029T1094 711Q1094 666 1088 607T1067 465H308Q305 448 304 433T301
403Q301 304 368 254T566 203Q674 203 782 234T983 324L932 55ZM815 684Q819 698 820 711T822 737Q822 822 771 871T631 920Q531 920 460 861T349 684H815ZM102 1556H733L696 1368H65L102 1556Z" />
<glyph unicode="&#x114;" glyph-name="Ebreve" horiz-adv-x="1233" d="M50 1899H193Q203 1839 244 1812T364 1784Q435 1784 488 1814T564 1899H718Q678 1770 579 1703T333 1635Q197 1635 124 1702T50 1895V1899ZM941 0H12L300 1493H1232L1181 1233H546L483 911H1058L1009
651H434L358 260H993L941 0Z" />
<glyph unicode="&#x115;" glyph-name="ebreve" horiz-adv-x="1233" d="M59 1606H203V1593Q203 1532 247 1496T367 1460Q448 1460 506 1498T590 1606H733Q704 1464 605 1387T354 1309Q206 1309 133 1374T59 1573V1606ZM932 55Q837 13 734 -8T521 -29Q273 -29 144
89T15 436Q15 577 59 709T183 938Q267 1040 383 1094T633 1149Q842 1149 968 1029T1094 711Q1094 666 1088 607T1067 465H308Q305 448 304 433T301 403Q301 304 368 254T566 203Q674 203 782 234T983 324L932 55ZM815 684Q819 698 820 711T822 737Q822 822 771
871T631 920Q531 920 460 861T349 684H815Z" />
<glyph unicode="&#x116;" glyph-name="Edotaccent" horiz-adv-x="1233" d="M98 1899H373L325 1653H50L98 1899ZM941 0H12L300 1493H1232L1181 1233H546L483 911H1058L1009 651H434L358 260H993L941 0Z" />
<glyph unicode="&#x117;" glyph-name="edotaccent" horiz-adv-x="1233" d="M107 1585H379L332 1339H58L107 1585ZM932 55Q837 13 734 -8T521 -29Q273 -29 144 89T15 436Q15 577 59 709T183 938Q267 1040 383 1094T633 1149Q842 1149 968 1029T1094 711Q1094 666
1088 607T1067 465H308Q305 448 304 433T301 403Q301 304 368 254T566 203Q674 203 782 234T983 324L932 55ZM815 684Q819 698 820 711T822 737Q822 822 771 871T631 920Q531 920 460 861T349 684H815Z" />
<glyph unicode="&#x118;" glyph-name="Eogonek" horiz-adv-x="1233" d="M445 0H586Q511 -80 487 -117T463 -180Q463 -213 489 -233T557 -254Q594 -254 634 -247T719 -223L688 -379Q639 -390 593 -395T504 -401Q405 -401 347 -363T289 -258Q289 -198 328 -134T445
0ZM941 0H12L300 1493H1232L1181 1233H546L483 911H1058L1009 651H434L358 260H993L941 0Z" />
<glyph unicode="&#x119;" glyph-name="eogonek" horiz-adv-x="1233" d="M446 0H587Q512 -80 488 -117T464 -180Q464 -213 490 -233T558 -254Q595 -254 635 -247T720 -223L689 -379Q640 -390 594 -395T505 -401Q406 -401 348 -363T290 -258Q290 -198 329 -134T446
0ZM932 55Q837 13 734 -8T521 -29Q273 -29 144 89T15 436Q15 577 59 709T183 938Q267 1040 383 1094T633 1149Q842 1149 968 1029T1094 711Q1094 666 1088 607T1067 465H308Q305 448 304 433T301 403Q301 304 368 254T566 203Q674 203 782 234T983 324L932 55ZM815
684Q819 698 820 711T822 737Q822 822 771 871T631 920Q531 920 460 861T349 684H815Z" />
<glyph unicode="&#x11a;" glyph-name="Ecaron" horiz-adv-x="1233" d="M941 0H12L300 1493H1232L1181 1233H546L483 911H1058L1009 651H434L358 260H993L941 0ZM609 1635H261L124 1899H294L443 1737L672 1899H853L609 1635Z" />
<glyph unicode="&#x11b;" glyph-name="ecaron" horiz-adv-x="1233" d="M932 55Q837 13 734 -8T521 -29Q273 -29 144 89T15 436Q15 577 59 709T183 938Q267 1040 383 1094T633 1149Q842 1149 968 1029T1094 711Q1094 666 1088 607T1067 465H308Q305 448 304 433T301
403Q301 304 368 254T566 203Q674 203 782 234T983 324L932 55ZM815 684Q819 698 820 711T822 737Q822 822 771 871T631 920Q531 920 460 861T349 684H815ZM502 1262H260L78 1638H252L405 1411L643 1638H833L502 1262Z" />
<glyph unicode="&#x11c;" glyph-name="Gcircumflex" horiz-adv-x="1233" d="M437 1899H785L936 1635H767L603 1796L373 1635H193L437 1899ZM902 94Q832 35 734 3T521 -29Q279 -29 146 116T13 524Q13 739 85 949T278 1294Q376 1405 506 1462T788 1520Q869 1520
947 1502T1103 1448L1037 1120Q986 1187 917 1222T767 1257Q696 1257 632 1228T515 1141Q474 1094 440 1031T380 891Q348 793 331 702T314 532Q314 388 378 310T558 231Q594 231 625 239T681 264L738 555H532L581 803H1041L902 94Z" />
<glyph unicode="&#x11d;" glyph-name="gcircumflex" horiz-adv-x="1233" d="M335 1638H578L761 1262H585L433 1487L193 1262H3L335 1638ZM517 246Q632 246 716 378T800 698Q800 798 759 853T646 909Q532 909 448 777T364 459Q364 357 404 302T517 246ZM984 84Q931
-193 793 -308T382 -424Q284 -424 193 -409T15 -365L69 -100Q144 -145 226 -167T396 -190Q521 -190 591 -132T685 51L712 184Q658 101 581 59T407 16Q250 16 158 120T65 403Q65 542 107 683T222 932Q292 1035 392 1093T599 1151Q703 1151 770 1096T859 938L894
1120H1187L984 84Z" />
<glyph unicode="&#x11e;" glyph-name="Gbreve" horiz-adv-x="1233" d="M69 1899H212Q222 1839 263 1812T383 1784Q454 1784 507 1814T583 1899H737Q697 1770 598 1703T352 1635Q216 1635 143 1702T69 1895V1899ZM902 94Q832 35 734 3T521 -29Q279 -29 146 116T13
524Q13 739 85 949T278 1294Q376 1405 506 1462T788 1520Q869 1520 947 1502T1103 1448L1037 1120Q986 1187 917 1222T767 1257Q696 1257 632 1228T515 1141Q474 1094 440 1031T380 891Q348 793 331 702T314 532Q314 388 378 310T558 231Q594 231 625 239T681 264L738
555H532L581 803H1041L902 94Z" />
<glyph unicode="&#x11f;" glyph-name="gbreve" horiz-adv-x="1233" d="M20 1606H164V1593Q164 1532 208 1496T328 1460Q409 1460 467 1498T551 1606H694Q665 1464 566 1387T315 1309Q167 1309 94 1374T20 1573V1606ZM517 246Q632 246 716 378T800 698Q800 798
759 853T646 909Q532 909 448 777T364 459Q364 357 404 302T517 246ZM984 84Q931 -193 793 -308T382 -424Q284 -424 193 -409T15 -365L69 -100Q144 -145 226 -167T396 -190Q521 -190 591 -132T685 51L712 184Q658 101 581 59T407 16Q250 16 158 120T65 403Q65 542
107 683T222 932Q292 1035 392 1093T599 1151Q703 1151 770 1096T859 938L894 1120H1187L984 84Z" />
<glyph unicode="&#x120;" glyph-name="Gdotaccent" horiz-adv-x="1233" d="M117 1899H392L344 1653H69L117 1899ZM902 94Q832 35 734 3T521 -29Q279 -29 146 116T13 524Q13 739 85 949T278 1294Q376 1405 506 1462T788 1520Q869 1520 947 1502T1103 1448L1037
1120Q986 1187 917 1222T767 1257Q696 1257 632 1228T515 1141Q474 1094 440 1031T380 891Q348 793 331 702T314 532Q314 388 378 310T558 231Q594 231 625 239T681 264L738 555H532L581 803H1041L902 94Z" />
<glyph unicode="&#x121;" glyph-name="gdotaccent" horiz-adv-x="1233" d="M68 1585H340L293 1339H19L68 1585ZM517 246Q632 246 716 378T800 698Q800 798 759 853T646 909Q532 909 448 777T364 459Q364 357 404 302T517 246ZM984 84Q931 -193 793 -308T382 -424Q284
-424 193 -409T15 -365L69 -100Q144 -145 226 -167T396 -190Q521 -190 591 -132T685 51L712 184Q658 101 581 59T407 16Q250 16 158 120T65 403Q65 542 107 683T222 932Q292 1035 392 1093T599 1151Q703 1151 770 1096T859 938L894 1120H1187L984 84Z" />
<glyph unicode="&#x122;" glyph-name="Gcommaaccent" horiz-adv-x="1233" d="M361 -187H643L407 -493H213L361 -187ZM902 94Q832 35 734 3T521 -29Q279 -29 146 116T13 524Q13 739 85 949T278 1294Q376 1405 506 1462T788 1520Q869 1520 947 1502T1103 1448L1037
1120Q986 1187 917 1222T767 1257Q696 1257 632 1228T515 1141Q474 1094 440 1031T380 891Q348 793 331 702T314 532Q314 388 378 310T558 231Q594 231 625 239T681 264L738 555H532L581 803H1041L902 94Z" />
<glyph unicode="&#x123;" glyph-name="gcommaaccent" horiz-adv-x="1233" d="M373 1273H91L327 1579H521L373 1273ZM517 246Q632 246 716 378T800 698Q800 798 759 853T646 909Q532 909 448 777T364 459Q364 357 404 302T517 246ZM984 84Q931 -193 793 -308T382
-424Q284 -424 193 -409T15 -365L69 -100Q144 -145 226 -167T396 -190Q521 -190 591 -132T685 51L712 184Q658 101 581 59T407 16Q250 16 158 120T65 403Q65 542 107 683T222 932Q292 1035 392 1093T599 1151Q703 1151 770 1096T859 938L894 1120H1187L984 84Z"
/>
<glyph unicode="&#x124;" glyph-name="Hcircumflex" horiz-adv-x="1233" d="M328 1899H676L827 1635H658L494 1796L264 1635H84L328 1899ZM303 1493H598L487 924H856L966 1493H1261L970 0H675L804 664H436L307 0H12L303 1493Z" />
<glyph unicode="&#x125;" glyph-name="hcircumflex" horiz-adv-x="1233" d="M42 1899H390L541 1635H372L208 1796L-22 1635H-202L42 1899ZM1052 728L911 0H618L751 682Q756 708 758 734T761 788Q761 846 732 876T648 907Q565 907 507 836T423 629L302 0H9L312
1556H603L487 952Q535 1044 619 1095T804 1147Q932 1147 1001 1078T1070 881Q1070 851 1066 813T1052 728Z" />
<glyph unicode="&#x126;" glyph-name="Hbar" horiz-adv-x="1362" d="M305 1493H600L557 1269H926L969 1493H1263L1220 1269H1355L1323 1105H1188L973 0H679L808 664H439L310 0H15L230 1105H96L128 1269H262L305 1493ZM525 1105L490 924H859L894 1105H525Z" />
<glyph unicode="&#x127;" glyph-name="hbar" horiz-adv-x="1086" d="M1055 727L914 0H623L755 682Q764 726 766 746Q768 773 768 800Q768 858 739 888T655 919Q572 919 514 848T430 641L306 0H15L262 1270H102L134 1434H294L317 1556H608L585 1434H862L830 1270H553L491
952Q539 1044 623 1095T808 1147Q936 1147 1005 1078T1074 881Q1074 851 1070 813Q1066 784 1055 727Z" />
<glyph unicode="&#x128;" glyph-name="Itilde" horiz-adv-x="1233" d="M424 1686L375 1723Q350 1742 334 1748T299 1755Q264 1755 238 1723T201 1635H64Q89 1763 154 1832T316 1901Q353 1901 385 1889T453 1850L506 1809Q521 1796 539 1789T574 1782Q613 1782
639 1812T676 1901H813Q787 1773 722 1704T563 1635Q526 1635 494 1646T424 1686ZM250 1233L301 1493H1190L1139 1233H842L654 260H951L899 0H11L62 260H359L547 1233H250Z" />
<glyph unicode="&#x129;" glyph-name="itilde" horiz-adv-x="1233" d="M591 1364L542 1401Q541 1402 537 1405Q495 1438 464 1438Q430 1438 404 1404T368 1309H229Q248 1439 316 1516T479 1593Q513 1593 543 1581T620 1532L671 1493Q690 1478 708 1470T741 1462Q779
1462 805 1495T841 1591H980Q957 1450 895 1379T731 1307Q696 1307 664 1320T591 1364ZM305 1120H885L711 225H1075L1032 0H10L53 225H418L549 895H262L305 1120Z" />
<glyph unicode="&#x12a;" glyph-name="Imacron" horiz-adv-x="1233" d="M250 1233L301 1493H1190L1139 1233H842L654 260H951L899 0H11L62 260H359L547 1233H250ZM62 1870H693L657 1682H26L62 1870Z" />
<glyph unicode="&#x12b;" glyph-name="imacron" horiz-adv-x="1233" d="M305 1120H885L711 225H1075L1032 0H10L53 225H418L549 895H262L305 1120ZM63 1556H694L657 1368H26L63 1556Z" />
<glyph unicode="&#x12c;" glyph-name="Ibreve" horiz-adv-x="1233" d="M19 1899H162Q172 1839 213 1812T333 1784Q404 1784 457 1814T533 1899H687Q647 1770 548 1703T302 1635Q166 1635 93 1702T19 1895V1899ZM250 1233L301 1493H1190L1139 1233H842L654 260H951L899
0H11L62 260H359L547 1233H250Z" />
<glyph unicode="&#x12d;" glyph-name="ibreve" horiz-adv-x="1233" d="M20 1606H164V1593Q164 1532 208 1496T328 1460Q409 1460 467 1498T551 1606H694Q665 1464 566 1387T315 1309Q167 1309 94 1374T20 1573V1606ZM305 1120H885L711 225H1075L1032 0H10L53 225H418L549
895H262L305 1120Z" />
<glyph unicode="&#x12e;" glyph-name="Iogonek" horiz-adv-x="1233" d="M290 1233L341 1493H1230L1179 1233H882L694 260H991L939 0H51L102 260H399L587 1233H290ZM275 0H416Q341 -80 317 -117T293 -180Q293 -213 319 -233T387 -254Q424 -254 464 -247T549 -223L518
-379Q469 -390 423 -395T334 -401Q235 -401 177 -363T119 -258Q119 -198 158 -134T275 0Z" />
<glyph unicode="&#x12f;" glyph-name="iogonek" horiz-adv-x="1233" d="M301 1120H881L707 225H1071L1028 0H6L49 225H414L545 895H258L301 1120ZM694 1665H987L920 1323H627L694 1665ZM295 0H436Q361 -80 337 -117T313 -180Q313 -213 339 -233T407 -254Q444 -254
484 -247T569 -223L538 -379Q489 -390 443 -395T354 -401Q255 -401 197 -363T139 -258Q139 -198 178 -134T295 0Z" />
<glyph unicode="&#x130;" glyph-name="Idot" horiz-adv-x="1233" d="M67 1899H342L294 1653H19L67 1899ZM250 1233L301 1493H1190L1139 1233H842L654 260H951L899 0H11L62 260H359L547 1233H250Z" />
<glyph unicode="&#x131;" glyph-name="dotlessi" horiz-adv-x="1088" d="M305 1120H885L711 225H1075L1032 0H10L53 225H418L549 895H262L305 1120Z" />
<glyph unicode="&#x132;" glyph-name="IJ" horiz-adv-x="1478" d="M630 74L692 418Q736 322 790 275T910 227Q984 227 1023 281T1088 475L1227 1229H996L1045 1489H1464L1277 475Q1246 305 1215 219T1138 78T1032 -5T899 -33Q828 -33 761 -7T630 74ZM238 1233L285
1493H854L807 1233H616L439 260H629L581 0H12L60 260H250L428 1233H238Z" />
<glyph unicode="&#x133;" glyph-name="ij" horiz-adv-x="1452" d="M1109 72Q1074 -95 1047 -166T983 -284Q936 -343 875 -369T721 -395H497L545 -170H713Q786 -170 827 -117T895 72L1071 924H854L900 1149H1331L1109 72ZM1374 1352H1160L1231 1694H1445L1374 1352ZM288
1120H712L527 225H792L746 0H0L46 225H313L452 895H242L288 1120ZM611 1665H824L753 1323H539L611 1665Z" />
<glyph unicode="&#x134;" glyph-name="Jcircumflex" horiz-adv-x="1233" d="M391 1899H739L890 1635H721L557 1796L327 1635H147L391 1899ZM3 78L68 422Q146 326 234 279T426 231Q542 231 598 285T682 479L830 1233H469L521 1493H1176L977 479Q944 309 903 223T795
82Q728 27 637 -1T433 -29Q322 -29 215 -3T3 78Z" />
<glyph unicode="&#x135;" glyph-name="jcircumflex" horiz-adv-x="1233" d="M554 1638H797L980 1262H804L652 1487L412 1262H222L554 1638ZM798 43Q765 -124 735 -195T657 -313Q598 -372 517 -398T309 -424H2L47 -199H278Q378 -199 429 -146T505 43L671 895H374L417
1120H1007L798 43Z" />
<glyph unicode="&#x136;" glyph-name="Kcommaaccent" horiz-adv-x="1233" d="M292 -158H574L338 -464H144L292 -158ZM302 1493H597L489 936L1052 1493H1400L794 889L1132 0H829L575 670L403 500L308 0H14L302 1493Z" />
<glyph unicode="&#x137;" glyph-name="kcommaaccent" horiz-adv-x="1233" d="M345 -158H627L391 -464H197L345 -158ZM313 1556H606L454 774L858 1120H1228L723 702L1036 0H725L503 524L387 428L305 0H12L313 1556Z" />
<glyph unicode="&#x138;" glyph-name="kgreenlandic" horiz-adv-x="1243" d="M234 1120H527L453 739L879 1120H1234L729 702L1040 0H716L511 524L392 428L309 0H16L234 1120Z" />
<glyph unicode="&#x139;" glyph-name="Lacute" horiz-adv-x="1233" d="M296 1900H577L257 1636H50L296 1900ZM9 0L300 1493H595L355 260H986L935 0H9Z" />
<glyph unicode="&#x13a;" glyph-name="lacute" horiz-adv-x="1233" d="M295 1901H576L256 1637H49L295 1901ZM405 365Q401 345 399 329T396 307Q396 262 427 244T536 225H814L769 0H472Q267 0 182 56T97 242Q97 265 102 300T116 379L319 1331H13L56 1556H654L405 365Z" />
<glyph unicode="&#x13b;" glyph-name="Lcommaaccent" horiz-adv-x="1233" d="M294 -158H576L340 -464H146L294 -158ZM9 0L300 1493H595L355 260H986L935 0H9Z" />
<glyph unicode="&#x13c;" glyph-name="lcommaaccent" horiz-adv-x="1233" d="M231 -153H513L277 -459H83L231 -153ZM405 365Q401 345 399 329T396 307Q396 262 427 244T536 225H814L769 0H472Q267 0 182 56T97 242Q97 265 102 300T116 379L319 1331H13L56 1556H654L405
365Z" />
<glyph unicode="&#x13d;" glyph-name="Lcaron" horiz-adv-x="1233" d="M348 1493H669L412 1117H215L348 1493ZM9 0L300 1493H595L355 260H986L935 0H9Z" />
<glyph unicode="&#x13e;" glyph-name="lcaron" horiz-adv-x="1233" d="M432 1557H753L496 1181H299L432 1557ZM405 365Q401 345 399 329T396 307Q396 262 427 244T536 225H814L769 0H472Q267 0 182 56T97 242Q97 265 102 300T116 379L319 1331H13L56 1556H654L405 365Z" />
<glyph unicode="&#x13f;" glyph-name="Ldot" horiz-adv-x="1233" d="M511 1067H845L773 702H440L511 1067ZM9 0L300 1493H595L355 260H986L935 0H9Z" />
<glyph unicode="&#x140;" glyph-name="ldot" horiz-adv-x="1233" d="M663 1063H997L925 698H592L663 1063ZM405 365Q401 345 399 329T396 307Q396 262 427 244T536 225H814L769 0H472Q267 0 182 56T97 242Q97 265 102 300T116 379L319 1331H13L56 1556H654L405 365Z" />
<glyph unicode="&#x141;" glyph-name="Lslash" horiz-adv-x="1135" d="M152 0L248 502L117 403L2 557L301 768L443 1493H738L643 1012L893 1186L1008 1032L590 737L498 260H1129L1078 0H152Z" />
<glyph unicode="&#x142;" glyph-name="lslash" horiz-adv-x="1158" d="M605 364Q601 345 599 329T597 307Q597 262 627 244T736 225H1015L970 0H673Q467 0 383 56T298 242Q298 265 302 300T316 379L369 639L93 444L3 590L421 874L519 1331H214L257 1556H855L761
1102L1051 1305L1154 1167L711 866L605 364Z" />
<glyph unicode="&#x143;" glyph-name="Nacute" horiz-adv-x="1233" d="M315 1900H596L276 1636H69L315 1900ZM304 1493H607L822 408L1033 1493H1293L1005 0H712L487 1085L276 0H13L304 1493Z" />
<glyph unicode="&#x144;" glyph-name="nacute" horiz-adv-x="1233" d="M571 1647H892L450 1271H253L571 1647ZM1056 728L915 0H622L755 682Q760 708 762 734T765 788Q765 846 736 876T652 907Q570 907 512 835T427 629L306 0H13L230 1120H523L491 952Q539 1044
623 1095T808 1147Q936 1147 1005 1078T1074 881Q1074 851 1070 813T1056 728Z" />
<glyph unicode="&#x145;" glyph-name="Ncommaaccent" horiz-adv-x="1233" d="M222 -158H504L268 -464H74L222 -158ZM304 1493H607L822 408L1033 1493H1293L1005 0H712L487 1085L276 0H13L304 1493Z" />
<glyph unicode="&#x146;" glyph-name="ncommaaccent" horiz-adv-x="1233" d="M261 -158H543L307 -464H113L261 -158ZM1056 728L915 0H622L755 682Q760 708 762 734T765 788Q765 846 736 876T652 907Q570 907 512 835T427 629L306 0H13L230 1120H523L491 952Q539
1044 623 1095T808 1147Q936 1147 1005 1078T1074 881Q1074 851 1070 813T1056 728Z" />
<glyph unicode="&#x147;" glyph-name="Ncaron" horiz-adv-x="1233" d="M304 1493H607L822 408L1033 1493H1293L1005 0H712L487 1085L276 0H13L304 1493ZM627 1635H279L142 1899H312L461 1737L690 1899H871L627 1635Z" />
<glyph unicode="&#x148;" glyph-name="ncaron" horiz-adv-x="1233" d="M1056 728L915 0H622L755 682Q760 708 762 734T765 788Q765 846 736 876T652 907Q570 907 512 835T427 629L306 0H13L230 1120H523L491 952Q539 1044 623 1095T808 1147Q936 1147 1005 1078T1074
881Q1074 851 1070 813T1056 728ZM456 1262H214L32 1638H206L359 1411L597 1638H787L456 1262Z" />
<glyph unicode="&#x149;" glyph-name="napostrophe" horiz-adv-x="1233" d="M-313 1556H0L-52 1285L-323 903H-538L-365 1285L-313 1556ZM1215 728L1074 0H781L914 682Q919 708 921 734T924 788Q924 846 895 876T811 907Q729 907 671 835T586 629L465 0H172L389
1120H682L650 952Q698 1044 782 1095T967 1147Q1095 1147 1164 1078T1233 881Q1233 851 1229 813T1215 728Z" />
<glyph unicode="&#x14a;" glyph-name="Eng" horiz-adv-x="1276" d="M929 1015Q954 1144 918 1199T775 1255Q666 1255 593 1180Q516 1102 490 972L301 0H6L297 1493H592L545 1253Q607 1381 710 1451T939 1522Q1128 1522 1196 1377T1209 942L1037 58Q985 -208 872
-318Q759 -426 551 -426H430L474 -199H511Q611 -199 662 -144T740 44L929 1015Z" />
<glyph unicode="&#x14b;" glyph-name="eng" horiz-adv-x="1076" d="M1047 727L914 43Q865 -209 753 -316Q642 -424 432 -424H311L355 -199H394Q494 -199 546 -144Q597 -89 623 43L747 682Q759 743 759 786Q759 830 747 856Q722 909 644 909Q565 909 506 838T422
641L298 0H7L224 1120H515L483 952Q532 1045 617 1096T808 1147Q967 1147 1027 1042Q1063 979 1063 878Q1063 811 1047 727Z" />
<glyph unicode="&#x14c;" glyph-name="Omacron" horiz-adv-x="1233" d="M822 1020Q822 1140 782 1200T661 1260Q602 1260 552 1225T466 1120Q444 1081 423 1017T378 860Q349 745 334 646T319 471Q319 351 359 292T480 233Q539 233 588 268T675 373Q698 417 720
482T763 631Q792 746 807 845T822 1020ZM15 465Q15 665 65 870T200 1229Q277 1369 402 1444T683 1520Q898 1520 1011 1394T1125 1030Q1125 828 1076 622T943 264Q865 123 740 47T458 -29Q241 -29 128 97T15 465ZM62 1870H693L657 1682H26L62 1870Z" />
<glyph unicode="&#x14d;" glyph-name="omacron" horiz-adv-x="1233" d="M778 684Q778 793 732 852T600 911Q477 911 394 775T311 434Q311 328 359 268T491 207Q612 207 695 343T778 684ZM16 426Q16 748 182 948T616 1149Q831 1149 952 1029T1073 694Q1073 371
907 171T473 -29Q258 -29 137 91T16 426ZM63 1556H694L657 1368H26L63 1556Z" />
<glyph unicode="&#x14e;" glyph-name="Obreve" horiz-adv-x="1233" d="M19 1899H162Q172 1839 213 1812T333 1784Q404 1784 457 1814T533 1899H687Q647 1770 548 1703T302 1635Q166 1635 93 1702T19 1895V1899ZM822 1020Q822 1140 782 1200T661 1260Q602 1260
552 1225T466 1120Q444 1081 423 1017T378 860Q349 745 334 646T319 471Q319 351 359 292T480 233Q539 233 588 268T675 373Q698 417 720 482T763 631Q792 746 807 845T822 1020ZM15 465Q15 665 65 870T200 1229Q277 1369 402 1444T683 1520Q898 1520 1011 1394T1125
1030Q1125 828 1076 622T943 264Q865 123 740 47T458 -29Q241 -29 128 97T15 465Z" />
<glyph unicode="&#x14f;" glyph-name="obreve" horiz-adv-x="1233" d="M20 1606H164V1593Q164 1532 208 1496T328 1460Q409 1460 467 1498T551 1606H694Q665 1464 566 1387T315 1309Q167 1309 94 1374T20 1573V1606ZM778 684Q778 793 732 852T600 911Q477 911
394 775T311 434Q311 328 359 268T491 207Q612 207 695 343T778 684ZM16 426Q16 748 182 948T616 1149Q831 1149 952 1029T1073 694Q1073 371 907 171T473 -29Q258 -29 137 91T16 426Z" />
<glyph unicode="&#x150;" glyph-name="Ohungarumlaut" horiz-adv-x="1233" d="M636 1899H920L583 1635H386L636 1899ZM261 1899H545L208 1635H11L261 1899ZM822 1020Q822 1140 782 1200T661 1260Q602 1260 552 1225T466 1120Q444 1081 423 1017T378 860Q349 745
334 646T319 471Q319 351 359 292T480 233Q539 233 588 268T675 373Q698 417 720 482T763 631Q792 746 807 845T822 1020ZM15 465Q15 665 65 870T200 1229Q277 1369 402 1444T683 1520Q898 1520 1011 1394T1125 1030Q1125 828 1076 622T943 264Q865 123 740 47T458
-29Q241 -29 128 97T15 465Z" />
<glyph unicode="&#x151;" glyph-name="ohungarumlaut" horiz-adv-x="1233" d="M646 1638H906L560 1262H388L646 1638ZM250 1638H496L175 1262H11L250 1638ZM778 684Q778 793 732 852T600 911Q477 911 394 775T311 434Q311 328 359 268T491 207Q612 207 695 343T778
684ZM16 426Q16 748 182 948T616 1149Q831 1149 952 1029T1073 694Q1073 371 907 171T473 -29Q258 -29 137 91T16 426Z" />
<glyph unicode="&#x152;" glyph-name="OE" horiz-adv-x="1352" d="M1109 260L1058 0H481Q230 0 124 90T18 391Q18 541 51 724T145 1083Q216 1295 339 1394T653 1493H1339L1287 1233H956L896 922H1197L1146 662H845L767 260H1109ZM651 1233Q564 1233 508 1186T417
1038Q365 886 334 717T302 434Q302 344 340 302T462 260H513L702 1233H651Z" />
<glyph unicode="&#x153;" glyph-name="oe" horiz-adv-x="1322" d="M1062 690L1072 756Q1076 776 1078 795T1080 834Q1080 886 1060 910T996 934Q941 934 906 892T851 760L837 690H1062ZM1246 479H796Q787 426 784 400T781 356Q781 277 824 231T939 184Q996 184
1063 211T1195 289L1148 51Q1091 11 1022 -9T871 -29Q777 -29 711 11T624 121Q574 46 503 9T339 -29Q184 -29 102 55T20 297Q20 437 52 595T138 881Q194 1010 293 1078T525 1147Q608 1147 668 1117T765 1026Q813 1085 882 1116T1033 1147Q1163 1147 1232 1078T1302
877Q1302 828 1294 761T1269 606L1246 479ZM359 184Q411 184 445 216T505 322Q514 344 527 403T560 559Q578 649 587 709T597 797Q597 869 572 901T489 934Q437 934 403 902T343 797Q329 755 314 693T284 559Q268 478 260 417T251 322Q251 249 276 217T359 184Z"
/>
<glyph unicode="&#x154;" glyph-name="Racute" horiz-adv-x="1233" d="M297 1900H578L258 1636H51L297 1900ZM791 705Q852 696 886 660T947 537L1111 0H810L704 376Q701 386 696 403Q643 590 538 590H421L306 0H11L302 1493H712Q944 1493 1056 1406T1168 1137Q1168
950 1070 838T791 705ZM550 1245L470 838H593Q728 838 797 902T867 1090Q867 1168 821 1206T683 1245H550Z" />
<glyph unicode="&#x155;" glyph-name="racute" horiz-adv-x="1233" d="M484 1647H805L363 1271H166L484 1647ZM1033 815Q985 858 926 878T793 899Q627 899 538 811T408 516L308 0H13L232 1120H525L490 946Q552 1042 651 1094T869 1147Q931 1147 986 1132T1086
1090L1033 815Z" />
<glyph unicode="&#x156;" glyph-name="Rcommaaccent" horiz-adv-x="1233" d="M309 -158H591L355 -464H161L309 -158ZM791 705Q852 696 886 660T947 537L1111 0H810L704 376Q701 386 696 403Q643 590 538 590H421L306 0H11L302 1493H712Q944 1493 1056 1406T1168
1137Q1168 950 1070 838T791 705ZM550 1245L470 838H593Q728 838 797 902T867 1090Q867 1168 821 1206T683 1245H550Z" />
<glyph unicode="&#x157;" glyph-name="rcommaaccent" horiz-adv-x="1233" d="M309 -158H591L355 -464H161L309 -158ZM1033 815Q985 858 926 878T793 899Q627 899 538 811T408 516L308 0H13L232 1120H525L490 946Q552 1042 651 1094T869 1147Q931 1147 986 1132T1086
1090L1033 815Z" />
<glyph unicode="&#x158;" glyph-name="Rcaron" horiz-adv-x="1233" d="M791 705Q852 696 886 660T947 537L1111 0H810L704 376Q701 386 696 403Q643 590 538 590H421L306 0H11L302 1493H712Q944 1493 1056 1406T1168 1137Q1168 950 1070 838T791 705ZM550 1245L470
838H593Q728 838 797 902T867 1090Q867 1168 821 1206T683 1245H550ZM555 1635H207L70 1899H240L389 1737L618 1899H799L555 1635Z" />
<glyph unicode="&#x159;" glyph-name="rcaron" horiz-adv-x="1233" d="M1033 815Q985 858 926 878T793 899Q627 899 538 811T408 516L308 0H13L232 1120H525L490 946Q552 1042 651 1094T869 1147Q931 1147 986 1132T1086 1090L1033 815ZM522 1262H280L98 1638H272L425
1411L663 1638H853L522 1262Z" />
<glyph unicode="&#x15a;" glyph-name="Sacute" horiz-adv-x="1233" d="M315 1900H596L276 1636H69L315 1900ZM509 664Q317 744 255 819T193 1020Q193 1240 354 1380T773 1520Q876 1520 973 1500T1162 1438L1105 1153Q1037 1215 946 1246T744 1278Q626 1278 552
1222T478 1077Q478 993 662 910L669 907L785 856Q931 791 998 700T1066 475Q1066 245 905 108T470 -29Q360 -29 246 -3T7 76L66 381Q163 300 269 258T482 215Q615 215 691 273T767 432Q767 494 732 539T628 614L509 664Z" />
<glyph unicode="&#x15b;" glyph-name="sacute" horiz-adv-x="1233" d="M571 1647H892L450 1271H253L571 1647ZM1014 1085L964 831Q889 884 802 911T622 938Q528 938 473 903T418 809Q418 764 454 737T620 672L694 651Q822 614 881 544T940 360Q940 178 803 75T420
-29Q316 -29 213 -12T10 41L61 297Q147 241 242 212T430 182Q540 182 601 219T663 324Q663 370 633 396T469 461L381 485Q259 521 202 590T145 772Q145 940 281 1043T643 1147Q736 1147 829 1132T1014 1085Z" />
<glyph unicode="&#x15c;" glyph-name="Scircumflex" horiz-adv-x="1233" d="M330 1899H678L829 1635H660L496 1796L266 1635H86L330 1899ZM509 664Q317 744 255 819T193 1020Q193 1240 354 1380T773 1520Q876 1520 973 1500T1162 1438L1105 1153Q1037 1215 946
1246T744 1278Q626 1278 552 1222T478 1077Q478 993 662 910L669 907L785 856Q931 791 998 700T1066 475Q1066 245 905 108T470 -29Q360 -29 246 -3T7 76L66 381Q163 300 269 258T482 215Q615 215 691 273T767 432Q767 494 732 539T628 614L509 664Z" />
<glyph unicode="&#x15d;" glyph-name="scircumflex" horiz-adv-x="1233" d="M335 1638H578L761 1262H585L433 1487L193 1262H3L335 1638ZM1014 1085L964 831Q889 884 802 911T622 938Q528 938 473 903T418 809Q418 764 454 737T620 672L694 651Q822 614 881 544T940
360Q940 178 803 75T420 -29Q316 -29 213 -12T10 41L61 297Q147 241 242 212T430 182Q540 182 601 219T663 324Q663 370 633 396T469 461L381 485Q259 521 202 590T145 772Q145 940 281 1043T643 1147Q736 1147 829 1132T1014 1085Z" />
<glyph unicode="&#x15e;" glyph-name="Scedilla" horiz-adv-x="1233" d="M509 664Q317 744 255 819T193 1020Q193 1240 354 1380T773 1520Q876 1520 973 1500T1162 1438L1105 1153Q1037 1215 946 1246T744 1278Q626 1278 552 1222T478 1077Q478 993 662 910L669
907L785 856Q931 791 998 700T1066 475Q1066 245 905 108T470 -29Q360 -29 246 -3T7 76L66 381Q163 300 269 258T482 215Q615 215 691 273T767 432Q767 494 732 539T628 614L509 664ZM414 0Q450 -48 468 -94T486 -184Q486 -283 410 -342T203 -401Q151 -401 100
-395T1 -375L29 -219Q72 -236 113 -245T189 -254Q257 -254 293 -227T330 -150Q330 -124 317 -90T273 0H414Z" />
<glyph unicode="&#x15f;" glyph-name="scedilla" horiz-adv-x="1233" d="M1014 1085L964 831Q889 884 802 911T622 938Q528 938 473 903T418 809Q418 764 454 737T620 672L694 651Q822 614 881 544T940 360Q940 178 803 75T420 -29Q316 -29 213 -12T10 41L61 297Q147
241 242 212T430 182Q540 182 601 219T663 324Q663 370 633 396T469 461L381 485Q259 521 202 590T145 772Q145 940 281 1043T643 1147Q736 1147 829 1132T1014 1085ZM414 0Q450 -48 468 -94T486 -184Q486 -283 410 -342T203 -401Q151 -401 100 -395T1 -375L29
-219Q72 -236 113 -245T189 -254Q257 -254 293 -227T330 -150Q330 -124 317 -90T273 0H414Z" />
<glyph unicode="&#x160;" glyph-name="Scaron" horiz-adv-x="1233" d="M509 664Q317 744 255 819T193 1020Q193 1240 354 1380T773 1520Q876 1520 973 1500T1162 1438L1105 1153Q1037 1215 946 1246T744 1278Q626 1278 552 1222T478 1077Q478 993 662 910L669
907L785 856Q931 791 998 700T1066 475Q1066 245 905 108T470 -29Q360 -29 246 -3T7 76L66 381Q163 300 269 258T482 215Q615 215 691 273T767 432Q767 494 732 539T628 614L509 664ZM547 1635H199L62 1899H232L381 1737L610 1899H791L547 1635Z" />
<glyph unicode="&#x161;" glyph-name="scaron" horiz-adv-x="1233" d="M1014 1085L964 831Q889 884 802 911T622 938Q528 938 473 903T418 809Q418 764 454 737T620 672L694 651Q822 614 881 544T940 360Q940 178 803 75T420 -29Q316 -29 213 -12T10 41L61 297Q147
241 242 212T430 182Q540 182 601 219T663 324Q663 370 633 396T469 461L381 485Q259 521 202 590T145 772Q145 940 281 1043T643 1147Q736 1147 829 1132T1014 1085ZM436 1262H194L12 1638H186L339 1411L577 1638H767L436 1262Z" />
<glyph unicode="&#x162;" glyph-name="Tcommaaccent" horiz-adv-x="1233" d="M454 0H160L399 1235H16L65 1493H1124L1073 1235H694L454 0ZM414 0Q450 -48 468 -94T486 -184Q486 -283 410 -342T203 -401Q151 -401 100 -395T1 -375L29 -219Q72 -236 113 -245T189
-254Q257 -254 293 -227T330 -150Q330 -124 317 -90T273 0H414Z" />
<glyph unicode="&#x163;" glyph-name="tcommaaccent" horiz-adv-x="1233" d="M687 1438L625 1120H1008L965 895H582L478 365Q474 345 472 330T470 307Q470 262 500 244T609 225H834L791 0H546Q342 0 257 55T171 240Q171 261 175 295T189 379L290 895H3L46 1120H333L394
1438H687ZM595 0Q631 -48 649 -94T667 -184Q667 -283 591 -342T384 -401Q332 -401 281 -395T182 -375L210 -219Q253 -236 294 -245T370 -254Q438 -254 474 -227T511 -150Q511 -124 498 -90T454 0H595Z" />
<glyph unicode="&#x164;" glyph-name="Tcaron" horiz-adv-x="1233" d="M454 0H160L399 1235H16L65 1493H1124L1073 1235H694L454 0ZM579 1635H231L94 1899H264L413 1737L642 1899H823L579 1635Z" />
<glyph unicode="&#x165;" glyph-name="tcaron" horiz-adv-x="1233" d="M687 1438L625 1120H1008L965 895H582L478 365Q474 345 472 330T470 307Q470 262 500 244T609 225H834L791 0H546Q342 0 257 55T171 240Q171 261 175 295T189 379L290 895H3L46 1120H333L394
1438H687ZM513 1666H834L577 1290H380L513 1666Z" />
<glyph unicode="&#x166;" glyph-name="Tbar" horiz-adv-x="1125" d="M456 0H161L265 538H18L56 730H303L401 1235H22L72 1493H1125L1075 1235H696L598 730H845L807 538H560L456 0Z" />
<glyph unicode="&#x167;" glyph-name="tbar" horiz-adv-x="1012" d="M689 1438L627 1120H1010L966 895H583L556 753H740L702 561H518L480 365Q475 340 475 320Q475 279 495 258Q526 225 611 225H836L792 0H546Q294 0 221 80Q174 131 174 238Q174 299 190 379L225
561H47L85 753H263L290 895H4L48 1120H334L396 1438H689Z" />
<glyph unicode="&#x168;" glyph-name="Utilde" horiz-adv-x="1233" d="M434 1686L385 1723Q360 1742 344 1748T309 1755Q274 1755 248 1723T211 1635H74Q99 1763 164 1832T326 1901Q363 1901 395 1889T463 1850L516 1809Q531 1796 549 1789T584 1782Q623 1782
649 1812T686 1901H823Q797 1773 732 1704T573 1635Q536 1635 504 1646T434 1686ZM41 551L225 1493H520L321 477Q321 475 320 471Q313 424 313 403Q313 321 359 276T489 231Q597 231 661 292T751 477L950 1493H1245L1060 551Q1025 371 985 279T882 123Q806 49 702
10T473 -29Q254 -29 136 70T18 352Q18 394 23 444T41 551Z" />
<glyph unicode="&#x169;" glyph-name="utilde" horiz-adv-x="1233" d="M379 1364L330 1401Q329 1402 325 1405Q283 1438 252 1438Q218 1438 192 1404T156 1309H17Q36 1439 104 1516T267 1593Q301 1593 331 1581T408 1532L459 1493Q478 1478 496 1470T529 1462Q567
1462 593 1495T629 1591H768Q745 1450 683 1379T519 1307Q484 1307 452 1320T379 1364ZM37 391L180 1120H471L340 436Q335 409 333 383T330 332Q330 274 359 243T442 211Q525 211 581 281T666 489L788 1120H1079L862 0H569L602 166Q558 76 473 24T287 -29Q158 -29
89 41T20 244Q20 272 24 308T37 391Z" />
<glyph unicode="&#x16a;" glyph-name="Umacron" horiz-adv-x="1233" d="M41 551L225 1493H520L321 477Q321 475 320 471Q313 424 313 403Q313 321 359 276T489 231Q597 231 661 292T751 477L950 1493H1245L1060 551Q1025 371 985 279T882 123Q806 49 702 10T473
-29Q254 -29 136 70T18 352Q18 394 23 444T41 551ZM62 1870H693L657 1682H26L62 1870Z" />
<glyph unicode="&#x16b;" glyph-name="umacron" horiz-adv-x="1233" d="M37 391L180 1120H471L340 436Q335 409 333 383T330 332Q330 274 359 243T442 211Q525 211 581 281T666 489L788 1120H1079L862 0H569L602 166Q558 76 473 24T287 -29Q158 -29 89 41T20 244Q20
272 24 308T37 391ZM63 1556H694L657 1368H26L63 1556Z" />
<glyph unicode="&#x16c;" glyph-name="Ubreve" horiz-adv-x="1233" d="M19 1899H162Q172 1839 213 1812T333 1784Q404 1784 457 1814T533 1899H687Q647 1770 548 1703T302 1635Q166 1635 93 1702T19 1895V1899ZM41 551L225 1493H520L321 477Q321 475 320 471Q313
424 313 403Q313 321 359 276T489 231Q597 231 661 292T751 477L950 1493H1245L1060 551Q1025 371 985 279T882 123Q806 49 702 10T473 -29Q254 -29 136 70T18 352Q18 394 23 444T41 551Z" />
<glyph unicode="&#x16d;" glyph-name="ubreve" horiz-adv-x="1233" d="M20 1606H164V1593Q164 1532 208 1496T328 1460Q409 1460 467 1498T551 1606H694Q665 1464 566 1387T315 1309Q167 1309 94 1374T20 1573V1606ZM37 391L180 1120H471L340 436Q335 409 333
383T330 332Q330 274 359 243T442 211Q525 211 581 281T666 489L788 1120H1079L862 0H569L602 166Q558 76 473 24T287 -29Q158 -29 89 41T20 244Q20 272 24 308T37 391Z" />
<glyph unicode="&#x16e;" glyph-name="Uring" horiz-adv-x="1233" d="M41 551L225 1493H520L321 477Q321 475 320 471Q313 424 313 403Q313 321 359 276T489 231Q597 231 661 292T751 477L950 1493H1245L1060 551Q1025 371 985 279T882 123Q806 49 702 10T473
-29Q254 -29 136 70T18 352Q18 394 23 444T41 551ZM71 1872Q71 1990 154 2073T356 2157Q474 2157 557 2074T640 1872Q640 1754 557 1671T356 1587Q237 1587 154 1670T71 1872ZM224 1872Q224 1817 262 1779T356 1741Q410 1741 448 1779T487 1872Q487 1926 448 1964T356
2003Q301 2003 263 1965T224 1872Z" />
<glyph unicode="&#x16f;" glyph-name="uring" horiz-adv-x="1233" d="M37 391L180 1120H471L340 436Q335 409 333 383T330 332Q330 274 359 243T442 211Q525 211 581 281T666 489L788 1120H1079L862 0H569L602 166Q558 76 473 24T287 -29Q158 -29 89 41T20 244Q20
272 24 308T37 391ZM262 1539Q262 1657 345 1740T547 1824Q665 1824 748 1741T831 1539Q831 1421 748 1338T547 1254Q428 1254 345 1337T262 1539ZM415 1539Q415 1484 453 1446T547 1408Q601 1408 639 1446T678 1539Q678 1593 639 1631T547 1670Q492 1670 454 1632T415
1539Z" />
<glyph unicode="&#x170;" glyph-name="Uhungarumlaut" horiz-adv-x="1233" d="M636 1899H920L583 1635H386L636 1899ZM261 1899H545L208 1635H11L261 1899ZM41 551L225 1493H520L321 477Q321 475 320 471Q313 424 313 403Q313 321 359 276T489 231Q597 231 661
292T751 477L950 1493H1245L1060 551Q1025 371 985 279T882 123Q806 49 702 10T473 -29Q254 -29 136 70T18 352Q18 394 23 444T41 551Z" />
<glyph unicode="&#x171;" glyph-name="uhungarumlaut" horiz-adv-x="1233" d="M646 1638H906L560 1262H388L646 1638ZM250 1638H496L175 1262H11L250 1638ZM37 391L180 1120H471L340 436Q335 409 333 383T330 332Q330 274 359 243T442 211Q525 211 581 281T666
489L788 1120H1079L862 0H569L602 166Q558 76 473 24T287 -29Q158 -29 89 41T20 244Q20 272 24 308T37 391Z" />
<glyph unicode="&#x172;" glyph-name="Uogonek" horiz-adv-x="1233" d="M41 551L225 1493H520L321 477Q321 475 320 471Q313 424 313 403Q313 321 359 276T489 231Q597 231 661 292T751 477L950 1493H1245L1060 551Q1025 371 985 279T882 123Q806 49 702 10T473
-29Q254 -29 136 70T18 352Q18 394 23 444T41 551ZM373 241H514Q439 161 415 124T391 61Q391 28 417 8T485 -13Q522 -13 562 -6T647 18L616 -138Q567 -149 521 -154T432 -160Q333 -160 275 -122T217 -17Q217 43 256 107T373 241Z" />
<glyph unicode="&#x173;" glyph-name="uogonek" horiz-adv-x="1233" d="M37 391L180 1120H471L340 436Q335 409 333 383T330 332Q330 274 359 243T442 211Q525 211 581 281T666 489L788 1120H1079L862 0H569L602 166Q558 76 473 24T287 -29Q158 -29 89 41T20 244Q20
272 24 308T37 391ZM563 0H704Q629 -80 605 -117T581 -180Q581 -213 607 -233T675 -254Q712 -254 752 -247T837 -223L806 -379Q757 -390 711 -395T622 -401Q523 -401 465 -363T407 -258Q407 -198 446 -134T563 0Z" />
<glyph unicode="&#x174;" glyph-name="Wcircumflex" horiz-adv-x="1233" d="M323 1906H671L822 1642H653L489 1803L259 1642H79L323 1906ZM125 1493H379L271 397L543 1106H781L793 397L1090 1493H1352L891 0H621L609 784L291 0H23L125 1493Z" />
<glyph unicode="&#x175;" glyph-name="wcircumflex" horiz-adv-x="1233" d="M360 1647H603L786 1271H610L458 1496L218 1271H28L360 1647ZM37 1120H277L244 262L471 827H701L723 262L1014 1120H1266L848 0H568L549 590L310 0H31L37 1120Z" />
<glyph unicode="&#x176;" glyph-name="Ycircumflex" horiz-adv-x="1233" d="M310 1906H658L809 1642H640L476 1803L246 1642H66L310 1906ZM14 1493H307L494 844L905 1493H1227L594 588L479 0H186L301 588L14 1493Z" />
<glyph unicode="&#x177;" glyph-name="ycircumflex" horiz-adv-x="1233" d="M348 1647H591L774 1271H598L446 1496L206 1271H16L348 1647ZM654 -121Q542 -319 461 -371T253 -424H13L58 -201H175Q262 -201 312 -171T422 -29L461 45L244 1120H541L668 420L1051 1120H1360L654
-121Z" />
<glyph unicode="&#x178;" glyph-name="Ydieresis" horiz-adv-x="1233" d="M14 1493H307L494 844L905 1493H1227L594 588L479 0H186L301 588L14 1493ZM517 1899H752L705 1653H468L517 1899ZM122 1899H357L308 1653H72L122 1899Z" />
<glyph unicode="&#x179;" glyph-name="Zacute" horiz-adv-x="1233" d="M315 1900H596L276 1636H69L315 1900ZM326 1493H1335L1286 1249L410 260H1110L1059 0H12L59 244L917 1233H274L326 1493Z" />
<glyph unicode="&#x17a;" glyph-name="zacute" horiz-adv-x="1233" d="M571 1647H892L450 1271H253L571 1647ZM257 1120H1152L1107 891L400 219H976L933 0H13L58 229L765 901H214L257 1120Z" />
<glyph unicode="&#x17b;" glyph-name="Zdotaccent" horiz-adv-x="1233" d="M117 1899H392L344 1653H69L117 1899ZM326 1493H1335L1286 1249L410 260H1110L1059 0H12L59 244L917 1233H274L326 1493Z" />
<glyph unicode="&#x17c;" glyph-name="zdotaccent" horiz-adv-x="1233" d="M68 1585H340L293 1339H19L68 1585ZM257 1120H1152L1107 891L400 219H976L933 0H13L58 229L765 901H214L257 1120Z" />
<glyph unicode="&#x17d;" glyph-name="Zcaron" horiz-adv-x="1233" d="M326 1493H1335L1286 1249L410 260H1110L1059 0H12L59 244L917 1233H274L326 1493ZM547 1635H199L62 1899H232L381 1737L610 1899H791L547 1635Z" />
<glyph unicode="&#x17e;" glyph-name="zcaron" horiz-adv-x="1233" d="M257 1120H1152L1107 891L400 219H976L933 0H13L58 229L765 901H214L257 1120ZM436 1262H194L12 1638H186L339 1411L577 1638H767L436 1262Z" />
<glyph unicode="&#x17f;" glyph-name="longs" horiz-adv-x="1040" d="M395 0H102L276 895H3L46 1120H319L335 1198Q377 1409 469 1482T800 1556H1040L997 1331H767Q702 1331 673 1304T628 1196L395 0Z" />
<glyph unicode="&#x180;" glyph-name="uni0180" horiz-adv-x="1142" d="M349 207L308 0H15L262 1270H76L108 1434H294L318 1556H611L587 1434H836L804 1270H555L492 952Q555 1048 638 1097T816 1147Q962 1147 1047 1038T1133 739Q1133 608 1103 479T1017 244Q948
115 843 43T621 -29Q510 -29 438 33T349 207ZM568 209Q679 209 758 350T838 694Q838 795 797 851T681 907Q567 907 485 769T402 432Q402 328 447 269T568 209Z" />
<glyph unicode="&#x181;" glyph-name="uni0181" horiz-adv-x="1271" d="M464 1495H794Q1043 1495 1150 1401T1221 1118Q1193 974 1104 893T868 799Q1036 782 1103 684T1136 410Q1094 194 946 97T504 0H174L410 1216Q391 1216 390 1215Q346 1214 326 1195Q288 1158
276 1111Q273 1097 267 1064H12L26 1141Q57 1296 117 1361Q140 1385 178 1414Q284 1490 407 1490Q511 1490 464 1495ZM704 1260L636 913H681Q793 913 848 953T921 1085T899 1218T749 1260H704ZM590 678L505 236H550Q691 236 756 284T845 451Q869 572 820 625T635
678H590Z" />
<glyph unicode="&#x182;" glyph-name="uni0182" horiz-adv-x="1233" d="M355 248H476Q621 248 689 297T780 467T755 637T561 686H440L355 248ZM302 1493H1232L1182 1233H547L489 934H599Q908 934 1022 824T1088 467T883 110T417 0H12L302 1493Z" />
<glyph unicode="&#x183;" glyph-name="uni0183" horiz-adv-x="1179" d="M593 -29Q388 -29 334 166L302 0H10L312 1556H1111L1070 1347H563L488 961Q633 1147 812 1147Q1013 1147 1091 991Q1166 841 1111 559Q1057 279 921 125T593 -29ZM714 303Q786 395 817 557T813
811T682 903T514 811T410 557T415 303T548 211T714 303Z" />
<glyph unicode="&#x184;" glyph-name="uni0184" horiz-adv-x="1135" d="M353 248H474Q619 248 687 297T778 467T753 637T559 686H438L353 248ZM10 0L191 934L55 1068L595 1493L486 934H596Q905 934 1019 824T1086 467T881 110T415 0H10Z" />
<glyph unicode="&#x185;" glyph-name="uni0185" horiz-adv-x="1169" d="M713 303Q785 395 816 557T812 811T681 903T513 811T409 557T414 303T547 211T713 303ZM487 961Q559 1054 640 1100T811 1147Q1010 1147 1087 995T1110 559Q1056 279 920 125T592 -29Q491
-29 426 20T333 166L301 0H9L190 934L66 1068L603 1556L487 961Z" />
<glyph unicode="&#x186;" glyph-name="uni0186" horiz-adv-x="1157" d="M10 43Q10 43 74 371Q137 301 202 269T343 236Q505 236 612 364T769 745Q818 998 761 1126T541 1255Q465 1255 387 1223T220 1120L284 1448Q359 1484 440 1502T607 1520Q909 1520 1029 1321T1076
745Q1003 369 805 170T305 -29Q220 -29 147 -11T10 43Z" />
<glyph unicode="&#x187;" glyph-name="uni0187" horiz-adv-x="1383" d="M615 236Q763 236 936 371L872 43Q718 -29 549 -29Q247 -29 127 170T80 745Q186 1292 543 1456Q682 1520 851 1520Q898 1520 943 1514Q1055 1643 1284 1643H1380L1337 1418H1322Q1229 1418
1170 1363Q1120 1317 1093 1176L1082 1120Q962 1255 813 1255Q651 1255 544 1127T387 745Q294 267 578 238Q596 236 615 236Z" />
<glyph unicode="&#x188;" glyph-name="uni0188" horiz-adv-x="1366" d="M581 211Q749 211 902 326L850 57Q685 -29 491 -29Q232 -29 117 127T54 559Q108 836 285 992T722 1149Q749 1149 775 1147Q833 1362 921 1448Q1032 1556 1242 1556H1363L1319 1331H1280Q1185
1331 1129 1276Q1085 1233 1051 1089L1045 1063L993 795Q883 909 716 909Q546 909 446 782Q378 697 351 559Q299 291 473 228Q520 211 581 211Z" />
<glyph unicode="&#x189;" glyph-name="uni0189" horiz-adv-x="1233" d="M312 1493H627Q912 1493 1053 1370T1194 999Q1194 912 1181 814T1139 602Q1102 451 1050 346T926 172Q832 80 701 40T351 0H21L150 664H13L60 901H195L312 1493ZM553 1227L490 901H701L656
664H445L367 266H463Q575 266 652 310T772 442Q824 548 856 694T889 967Q889 1099 827 1163T635 1227H553Z" />
<glyph unicode="&#x18a;" glyph-name="uni018A" horiz-adv-x="1275" d="M353 1206Q324 1206 306 1168Q281 1116 275 1088L271 1064H16L31 1141Q60 1291 122 1361Q217 1470 357 1489Q383 1493 409 1493H645Q1011 1493 1138 1319T1188 748Q1111 351 916 176T355
0H119L353 1206ZM652 1227L466 266Q640 266 735 375T881 748Q932 1009 879 1118T652 1227Z" />
<glyph unicode="&#x18b;" glyph-name="uni018B" horiz-adv-x="1308" d="M852 678H656Q520 678 451 625T357 451Q334 332 381 284T570 236H766L852 678ZM343 1494L1295 1493L1005 0H524Q231 0 120 97T50 410Q52 420 54 429Q91 603 178 684Q186 691 208 713L260
763Q429 910 701 913H897L965 1260H298L343 1494Z" />
<glyph unicode="&#x18c;" glyph-name="uni018C" horiz-adv-x="1259" d="M351 -29Q159 -29 83 125T61 559Q116 841 249 991Q388 1147 590 1147Q769 1147 840 961L915 1347H408L449 1556H1248L946 0H654L686 166Q555 -29 351 -29ZM457 811Q385 719 354 557T358 303T490
211T657 303T761 557T756 811T624 903T457 811Z" />
<glyph unicode="&#x18d;" glyph-name="uni018D" horiz-adv-x="1166" d="M779 53Q911 -10 882 -161Q856 -296 715 -374Q574 -451 351 -451Q252 -451 170 -439Q165 -438 160 -437Q130 -433 15 -403L57 -188Q68 -192 81 -196Q170 -227 207 -234Q294 -249 375 -249Q479
-249 544 -215L568 -200Q608 -175 617 -131Q637 -29 474 -29Q236 -29 126 129T69 559T293 988T702 1147Q939 1147 1049 989T1106 559Q1055 296 882 130Q805 55 779 53ZM520 209Q625 209 703 301T813 559T803 816T656 909Q550 909 472 817T362 559T372 302T520 209Z"
/>
<glyph unicode="&#x18e;" glyph-name="uni018E" horiz-adv-x="1244" d="M12 0L62 260H697L773 651H198L249 911H824L887 1233H252L302 1493H1232L942 0H12Z" />
<glyph unicode="&#x18f;" glyph-name="uni018F" horiz-adv-x="1213" d="M839 840Q869 1036 846 1134Q817 1255 689 1255Q613 1255 535 1223T368 1120L432 1448Q509 1484 589 1502T755 1520Q1015 1520 1109 1324T1129 745Q1055 363 884 167T453 -29Q194 -29 100
167T80 745L98 840H839ZM361 580Q345 436 363 356Q392 236 505 236Q619 236 694 356Q744 436 784 580H361Z" />
<glyph unicode="&#x190;" glyph-name="uni0190" horiz-adv-x="1193" d="M649 668Q521 668 439 606T334 428Q316 334 375 279T554 223T788 247T1005 319L952 45Q845 9 732 -10T505 -29Q240 -29 124 85T49 416Q80 578 183 677T453 805Q317 831 257 915T223 1133Q259
1314 411 1417T799 1520Q891 1520 987 1504T1181 1456L1129 1188Q1034 1228 942 1249T766 1270Q656 1270 587 1224T501 1094Q485 1015 537 972T699 928H857L807 668H649Z" />
<glyph unicode="&#x191;" glyph-name="uni0191" horiz-adv-x="1392" d="M1342 1233H802L739 911H1222L1171 651H689L595 168L571 43L562 0Q512 -216 410 -316Q299 -424 89 -424H3L47 -199Q151 -199 202 -144Q249 -94 276 43L300 168L558 1493H1392L1342 1233Z" />
<glyph unicode="&#x192;" glyph-name="florin" horiz-adv-x="1435" d="M1026 1218L1007 1120H1351L1307 895H963L789 0Q741 -217 638 -316Q525 -424 316 -424H0L43 -199H277Q376 -199 427 -144Q479 -88 504 43L670 895H398L442 1120H714L729 1198Q768 1400 867
1478T1194 1556H1435L1392 1331H1163Q1052 1332 1026 1218Z" />
<glyph unicode="&#x193;" glyph-name="uni0193" horiz-adv-x="1416" d="M601 236Q694 236 743 270L798 555H596L644 803H1104L971 119Q770 -29 535 -29Q245 -29 127 172T80 745Q185 1287 538 1453Q680 1520 851 1520Q911 1520 969 1508Q981 1523 994 1535Q1104
1643 1314 1643H1412L1368 1418H1353Q1260 1418 1201 1363Q1151 1317 1124 1176L1108 1094L1105 1098Q1012 1255 820 1255Q505 1255 399 801Q393 774 387 745Q307 333 503 254Q546 236 601 236Z" />
<glyph unicode="&#x194;" glyph-name="uni0194" horiz-adv-x="1354" d="M443 762L186 1493H508L676 1012L1030 1493H1353L813 762Q947 380 872 -14Q821 -285 417 -290T64 -14Q130 335 443 762ZM578 510Q383 243 361 126Q338 0 474 0Q613 0 638 130Q667 279 578 510Z" />
<glyph unicode="&#x195;" glyph-name="uni0195" horiz-adv-x="1405" d="M1333 569Q1287 316 1153 158Q1025 4 864 0L775 -2Q638 -5 594 116Q547 241 588 460L639 727Q652 813 637 855Q620 907 557 907Q493 907 443 836Q394 766 370 641L245 0H13L315 1556H547L430
952Q473 1045 543 1096T698 1147Q825 1147 870 1042Q914 936 873 727L822 460Q791 289 794 279Q812 227 842 231L855 233Q946 246 1005 330Q1072 424 1099 560L1172 936H1404L1333 569Z" />
<glyph unicode="&#x196;" glyph-name="uni0196" horiz-adv-x="963" d="M160 462L309 1233H12L62 1493H951L901 1233H604L460 495Q433 353 462 307Q491 262 593 261L778 260L728 0H494Q289 0 203 118Q116 238 160 462Z" />
<glyph unicode="&#x197;" glyph-name="uni0197" horiz-adv-x="1201" d="M251 1233L301 1493H1190L1140 1233H843L745 730H992L954 538H707L653 260H950L900 0H11L61 260H358L412 538H165L203 730H450L548 1233H251Z" />
<glyph unicode="&#x198;" glyph-name="uni0198" horiz-adv-x="1475" d="M965 1060L810 905L1122 0H794L571 672L408 506L309 0H14L305 1493H600L485 903L805 1230Q1021 1451 1160 1479Q1295 1505 1415 1392L1469 1341L1294 1165Q1230 1226 1159 1210Q1101 1197 965 1060Z" />
<glyph unicode="&#x199;" glyph-name="uni0199" horiz-adv-x="1228" d="M221 1089Q270 1339 382 1448Q493 1556 703 1556H824L780 1331H741Q643 1331 590 1276Q539 1223 512 1089H514L446 739L872 1120H1227L722 702L1034 0H710L505 524L386 428L303 0H10L197
964L221 1089Z" />
<glyph unicode="&#x19a;" glyph-name="uni019A" horiz-adv-x="829" d="M518 753H702L665 561H481H471L453 467Q427 335 457 280T586 225H820L776 0H460Q251 0 181 108T160 467L178 561H10L47 753H215L327 1331H30L74 1556H664L508 753H518Z" />
<glyph unicode="&#x19b;" glyph-name="uni019B" horiz-adv-x="1096" d="M985 1518L1057 1358L795 1195L1075 0H778L639 596L299 0H2L552 965L536 1034L297 885L228 1047L494 1213L414 1556H711L754 1374L985 1518Z" />
<glyph unicode="&#x19c;" glyph-name="uni019C" horiz-adv-x="1358" d="M469 112Q422 41 365 7T233 -27Q88 -27 52 73T78 489L273 1493H513L300 401Q276 276 287 234T348 192T426 235T478 401L691 1493H928L715 401Q692 278 703 235T765 192T842 234T893 401L1106
1493H1346L1056 0H843L865 116Q827 50 765 12T634 -27T518 13T469 112Z" />
<glyph unicode="&#x19d;" glyph-name="uni019D" horiz-adv-x="1552" d="M526 0Q462 -284 297 -374Q202 -426 53 -426H5L49 -201H109Q167 -201 225 -126Q248 -97 275 41L557 1493H874L1079 408L1290 1493H1550L1260 0H945L738 1085L527 0H526Z" />
<glyph unicode="&#x19e;" glyph-name="uni019E" horiz-adv-x="1096" d="M1043 727L819 -426H528L743 682Q767 804 743 856T641 909Q562 909 503 838T419 641L294 0H3L221 1120H512L479 952Q528 1045 613 1096T804 1147Q963 1147 1023 1042T1043 727Z" />
<glyph unicode="&#x19f;" glyph-name="uni019F" horiz-adv-x="1190" d="M430 -29Q62 -29 28 362Q14 522 57 745Q179 1373 551 1493Q635 1520 732 1520Q992 1520 1086 1324T1106 745Q981 105 596 -7Q518 -29 430 -29ZM825 911Q845 1108 803 1187Q765 1255 680 1255Q532
1255 446 1041Q425 991 402 911H825ZM779 651H348Q318 451 340 356Q369 236 482 236Q596 236 671 356Q730 449 779 651Z" />
<glyph unicode="&#x1a0;" glyph-name="Ohorn" horiz-adv-x="1233" d="M991 1020Q991 1140 951 1200T830 1260Q771 1260 721 1225T635 1120Q613 1081 592 1017T547 860Q518 745 503 646T488 471Q488 351 528 292T649 233Q708 233 757 268T844 373Q867 417 889 482T932
631Q961 746 976 845T991 1020ZM184 465Q184 665 234 870T369 1229Q446 1369 571 1444T852 1520Q1067 1520 1180 1394T1294 1030Q1294 828 1245 622T1112 264Q1034 123 909 47T627 -29Q410 -29 297 97T184 465ZM515 1238L542 1379Q600 1329 632 1310T691 1291Q730
1291 760 1320T800 1399Q808 1438 808 1476T800 1555H956Q956 1500 953 1453T941 1365Q918 1250 860 1189T716 1127Q663 1127 614 1154T515 1238Z" />
<glyph unicode="&#x1a1;" glyph-name="ohorn" horiz-adv-x="1233" d="M946 684Q946 793 900 852T768 911Q645 911 562 775T479 434Q479 328 527 268T659 207Q780 207 863 343T946 684ZM184 426Q184 748 350 948T784 1149Q999 1149 1120 1029T1241 694Q1241 371
1075 171T641 -29Q426 -29 305 91T184 426ZM407 850L434 991Q492 941 524 922T583 903Q622 903 652 932T692 1011Q700 1050 700 1088T692 1167H848Q848 1112 845 1065T833 977Q810 862 752 801T608 739Q555 739 506 766T407 850Z" />
<glyph unicode="&#x1a2;" glyph-name="uni01A2" horiz-adv-x="1392" d="M381 -29Q49 -29 26 362Q16 522 60 745Q184 1384 531 1497Q602 1520 682 1520Q890 1520 977 1365L1095 1493H1379L1088 0H854L1075 1136L929 976L772 167Q615 -29 381 -29ZM336 745Q268 394
332 289Q365 236 432 236Q535 236 605 356L756 1134Q733 1255 630 1255Q489 1255 404 1011Q367 907 336 745Z" />
<glyph unicode="&#x1a3;" glyph-name="uni01A3" horiz-adv-x="1392" d="M687 1147Q842 1147 945 1023L1096 1124H1379L1078 -426H844L1083 804L914 690L805 130Q634 -29 458 -29Q221 -29 112 129T54 559T278 988T687 1147ZM641 909Q536 909 458 817T348 559T358
302T505 209Q548 209 626 302L726 816Q684 909 641 909Z" />
<glyph unicode="&#x1a4;" glyph-name="uni01A4" horiz-adv-x="1248" d="M655 1245L570 807H589Q734 807 802 856T893 1026T868 1196T674 1245H655ZM352 1206Q323 1206 305 1168Q280 1116 274 1088L270 1064H15L30 1141Q59 1291 121 1361Q216 1470 356 1489Q382
1493 408 1493H711Q1020 1493 1134 1383T1200 1026T996 669T530 559H522L413 0H118L352 1206Z" />
<glyph unicode="&#x1a5;" glyph-name="uni01A5" horiz-adv-x="1246" d="M796 307Q868 399 899 561T895 815T763 907T596 815T492 561T497 307T629 215T796 307ZM664 -29Q484 -29 413 158L299 -426H7L298 1063H297L303 1089Q364 1351 464 1448Q575 1556 785 1556H906L862
1331H823Q728 1331 671 1276Q627 1233 594 1089H595L567 952Q698 1147 902 1147Q1094 1147 1170 993T1192 559Q1109 134 855 13Q765 -29 664 -29Z" />
<glyph unicode="&#x1a6;" glyph-name="uni01A6" horiz-adv-x="1150" d="M770 467Q812 458 838 426T893 299L1059 -238H735L616 183Q569 352 462 352H368L300 0H5L295 1493H590L544 1255H675Q963 1255 1069 1153Q1143 1081 1143 946Q1143 889 1130 821Q1100 667
1007 576T770 467ZM496 1007L417 600H556Q677 600 738 647T821 804Q828 840 828 884Q828 1007 635 1007H496Z" />
<glyph unicode="&#x1a7;" glyph-name="uni01A7" horiz-adv-x="1210" d="M696 655Q696 655 541 600Q459 571 409 521T346 403Q329 314 379 265T539 215Q647 215 765 256T1018 381L959 76Q845 24 728 -2T500 -29Q230 -29 119 82T51 420Q83 586 189 695T488 870L625
918Q766 967 815 1007T877 1110Q892 1190 844 1233T688 1276Q592 1276 488 1241T274 1139L330 1427Q440 1473 548 1496T759 1520Q986 1520 1093 1404T1161 1085Q1130 927 1033 834T696 655Z" />
<glyph unicode="&#x1a8;" glyph-name="uni01A8" horiz-adv-x="1075" d="M268 1085Q363 1116 460 1131T653 1147Q865 1147 964 1057T1033 805Q1006 669 914 588T646 469L561 451Q413 417 370 387T316 301Q305 244 352 214T502 184Q596 184 702 213T916 297L866
41Q751 6 642 -11T431 -29Q203 -29 106 57T43 317Q71 461 162 545T420 668L508 688L520 691Q743 741 759 821Q770 877 726 905T583 934Q495 934 403 908T218 829L268 1085Z" />
<glyph unicode="&#x1a9;" glyph-name="uni01A9" horiz-adv-x="1233" d="M559 747L253 1234L303 1493H1349L1299 1233H593L900 747L403 260H1109L1059 0H13L63 260L559 747Z" />
<glyph unicode="&#x1aa;" glyph-name="uni01AA" horiz-adv-x="1091" d="M743 987L534 -86Q522 -150 543 -175Q564 -199 627 -199H856L813 -424H572Q344 -424 275 -346T245 -66L450 987H315Q7 987 57 1263Q109 1545 412 1555V1556H462Q672 1556 742 1448Q800 1359
781 1198H919Q1035 1198 1091 1197L1050 987H882H743ZM481 1197Q481 1247 465 1276Q436 1330 339 1331Q275 1326 265 1273Q252 1197 357 1197Q429 1197 481 1197ZM340 1331H369H340Z" />
<glyph unicode="&#x1ab;" glyph-name="uni01AB" horiz-adv-x="1008" d="M687 1438L625 1120H1008L964 895H581L478 365Q463 290 493 258T609 225H834L798 43L790 0H789Q740 -214 636 -316Q525 -424 315 -424H194L237 -199H276Q374 -199 428 -144Q471 -100 496
1Q285 8 219 80Q145 161 188 379L288 895H2L46 1120H332L394 1438H687Z" />
<glyph unicode="&#x1ac;" glyph-name="uni01AC" horiz-adv-x="1213" d="M410 1237Q391 1237 390 1236Q346 1235 326 1216Q293 1183 272 1111Q269 1097 263 1064H8L22 1141Q53 1296 113 1361Q136 1385 174 1414Q280 1490 403 1490Q507 1490 460 1495L1213 1493L1163
1235H784L544 0H249L489 1235L410 1237Z" />
<glyph unicode="&#x1ad;" glyph-name="uni01AD" horiz-adv-x="1014" d="M332 1120Q375 1339 487 1448Q588 1546 766 1555Q786 1556 808 1556H929L885 1331H846Q748 1331 695 1276Q644 1223 623 1120H1006L963 895H580L477 365Q462 290 492 258T608 225H833L789
0H543Q291 0 218 80T186 379L287 895H1L44 1120H332Z" />
<glyph unicode="&#x1ae;" glyph-name="uni01AE" horiz-adv-x="1116" d="M152 0L392 1235H13L63 1493H1116L1066 1235H687L455 41Q443 -20 443 -64Q443 -201 590 -201H629L585 -426H459Q140 -426 140 -138Q140 -76 152 0Z" />
<glyph unicode="&#x1af;" glyph-name="Uhorn" horiz-adv-x="1233" d="M197 551L381 1493H676L477 477Q477 475 476 471Q469 424 469 403Q469 321 515 276T645 231Q753 231 817 292T907 477L1106 1493H1401L1216 551Q1181 371 1141 279T1038 123Q962 49 858 10T629
-29Q410 -29 292 70T174 352Q174 394 179 444T197 551ZM572 1238L599 1379Q657 1329 689 1310T748 1291Q787 1291 817 1320T857 1399Q865 1438 865 1476T857 1555H1013Q1013 1500 1010 1453T998 1365Q975 1250 917 1189T773 1127Q720 1127 671 1154T572 1238Z"
/>
<glyph unicode="&#x1b0;" glyph-name="uhorn" horiz-adv-x="1233" d="M-114 391L29 1120H320L189 436Q184 409 182 383T179 332Q179 274 208 243T291 211Q374 211 430 281T515 489L637 1120H928L711 0H418L451 166Q407 76 322 24T136 -29Q7 -29 -62 41T-131 244Q-131
272 -127 308T-114 391ZM408 850L435 991Q493 941 525 922T584 903Q623 903 653 932T693 1011Q701 1050 701 1088T693 1167H849Q849 1112 846 1065T834 977Q811 862 753 801T609 739Q556 739 507 766T408 850Z" />
<glyph unicode="&#x1b1;" glyph-name="uni01B1" horiz-adv-x="1277" d="M1229 1249H991Q1090 1140 1117 1005T1108 678Q1047 366 872 183T462 0Q225 0 120 183T75 678Q112 869 192 1004T414 1249H176L217 1460H688L636 1192Q539 1113 478 996T384 712Q342 498
375 382T512 266Q614 266 693 382T814 712Q846 878 829 996T745 1192L797 1460H1270L1229 1249Z" />
<glyph unicode="&#x1b2;" glyph-name="uni01B2" horiz-adv-x="1119" d="M782 707Q846 1035 714 1187L725 1244H960Q1059 1135 1086 1000T1077 673Q1016 361 841 178Q671 0 382 0Q129 0 58 176Q14 286 48 462L197 1233L247 1493H542L348 495Q321 353 350 307Q379
262 481 261Q634 261 728 509Q761 597 782 707Z" />
<glyph unicode="&#x1b3;" glyph-name="uni01B3" horiz-adv-x="1228" d="M851 1026L559 588L445 0H150L264 588L11 1493H313L472 893L611 1104Q820 1424 867 1452Q1018 1544 1172 1467L1228 1439L1123 1224Q1096 1243 1043 1241Q993 1239 851 1026Z" />
<glyph unicode="&#x1b4;" glyph-name="uni01B4" horiz-adv-x="1442" d="M1083 664L652 -121Q486 -424 251 -424H9L53 -201H172Q262 -201 310 -171T422 -29L456 31L272 1120H565L667 393L847 744Q992 1025 1086 1084Q1181 1143 1393 1105L1442 1096L1341 880Q1254
915 1191 836Q1146 779 1083 664Z" />
<glyph unicode="&#x1b5;" glyph-name="uni01B5" horiz-adv-x="1348" d="M324 1493H1334L1287 1249L823 730H1050L1012 538H651L402 260H1108L1058 0H12L59 244L316 538H223L261 730H484L923 1233H274L324 1493Z" />
<glyph unicode="&#x1b6;" glyph-name="uni01B6" horiz-adv-x="1166" d="M256 1120H1151L1106 891L829 632H984L946 438H621L387 219H976L933 0H14L59 229L283 438H172L209 632H491L779 901H213L256 1120Z" />
<glyph unicode="&#x1b7;" glyph-name="uni01B7" horiz-adv-x="1398" d="M1260 425Q1206 144 943 35Q790 -28 572 -28Q234 -28 126 88Q7 216 50 439H368Q347 332 433 275Q494 234 592 234Q827 234 897 380Q910 408 916 439Q951 618 731 642Q698 646 659 646H404L447
864L890 1233H324L375 1493H1385L1337 1249L858 848Q1001 839 1075 816Q1176 785 1230 685Q1289 575 1260 425Z" />
<glyph unicode="&#x1b8;" glyph-name="uni01B8" horiz-adv-x="1343" d="M624 234Q766 234 854 312Q914 365 928 439H1246Q1203 216 1034 88Q880 -28 542 -28Q84 -28 27 246Q11 326 30 425Q58 568 149 670Q250 783 367 816Q450 839 596 848L273 1249L321 1493H1331L1280
1233H714L1015 864L972 646H717Q420 646 380 439Q353 300 482 254Q538 234 624 234Z" />
<glyph unicode="&#x1b9;" glyph-name="uni01B9" horiz-adv-x="1264" d="M949 452L906 234H738Q591 234 506 182Q421 129 401 27Q382 -72 444 -125T645 -178Q738 -178 840 -150Q941 -123 1049 -69L991 -366Q882 -403 774 -422Q666 -440 563 -440Q269 -440 139 -324Q8
-209 51 13Q79 156 170 258Q269 371 388 404Q471 427 618 436L315 891L360 1120H1255L1212 901H646L949 452Z" />
<glyph unicode="&#x1ba;" glyph-name="uni01BA" horiz-adv-x="1241" d="M809 546Q917 529 986 481Q1065 425 1065 322Q1065 294 1059 261Q1032 123 927 56Q826 -9 591 -36L530 -43Q421 -56 386 -73Q344 -94 339 -132Q338 -140 338 -147Q338 -184 376 -204Q422
-228 522 -228Q632 -228 743 -206Q854 -185 963 -142L920 -368Q786 -399 681 -412Q565 -426 459 -426Q213 -426 100 -351Q11 -292 11 -186Q11 -158 17 -127Q45 14 149 81Q238 139 518 175L580 183Q682 196 712 210Q754 230 759 266Q760 274 760 281Q760 315 724
331Q678 352 431 352H179L780 894H215L255 1120H1232L1193 900L809 546Z" />
<glyph unicode="&#x1bb;" glyph-name="uni01BB" horiz-adv-x="1218" d="M378 260H1007L956 0H8L57 252L250 422L382 538H220L257 730H598L669 795Q761 881 806 947T865 1079Q884 1179 835 1233T674 1288Q595 1288 490 1257T267 1165L320 1440Q435 1479 541 1499T742
1520Q979 1520 1093 1410T1170 1108Q1153 1020 1109 943T973 772Q958 756 929 730H1046L1009 538H762H708L623 466L378 260Z" />
<glyph unicode="&#x1bc;" glyph-name="uni01BC" horiz-adv-x="1369" d="M402 646H260L425 1493H1355L1304 1233H669L601 880H863Q978 880 1107 816Q1177 786 1235 670Q1286 568 1258 425Q1215 203 1040 88Q864 -28 570 -28Q232 -28 124 88Q5 216 48 439H366Q347
344 415 287Q479 234 590 234Q728 234 811 287T914 439Q934 541 869 594Q804 646 657 646H555H402Z" />
<glyph unicode="&#x1bd;" glyph-name="uni01BD" horiz-adv-x="1215" d="M675 452Q811 452 921 404Q1018 360 1069 258Q1120 155 1092 13Q1049 -209 874 -324Q698 -440 404 -440Q301 -440 201 -422Q101 -403 6 -366L63 -69Q148 -122 240 -150T424 -178Q562 -178
645 -125T748 27Q768 129 703 182Q638 234 491 234H323H234L407 1120H1206L1165 911H657L568 452H675Z" />
<glyph unicode="&#x1be;" glyph-name="uni01BE" horiz-adv-x="1057" d="M709 1078L699 1029Q863 998 936 904Q1048 759 1003 528Q961 313 816 180Q587 -30 370 -30Q207 -30 138 -12Q68 5 7 40L65 338Q126 295 192 274Q260 252 332 252Q493 252 604 366Q669 432
688 528Q702 599 665 675Q610 789 415 789H331L387 1078H169L206 1272H420H424L457 1438H779L746 1272H979L942 1078H709Z" />
<glyph unicode="&#x1bf;" glyph-name="uni01BF" horiz-adv-x="1267" d="M367 -132L307 -426H10L326 1120H623L589 955Q683 1066 762 1103Q857 1147 1013 1147H1019Q1186 1147 1230 1035Q1267 943 1263 850Q1261 809 1252 769Q1153 342 367 -132ZM423 145Q887 479
919 643Q926 681 927 713Q930 778 908 822Q875 887 770 887Q697 887 534 684Q479 414 423 145Z" />
<glyph unicode="&#x1c0;" glyph-name="uni01C0" horiz-adv-x="559" d="M291 1493H558L268 0H1L291 1493Z" />
<glyph unicode="&#x1c1;" glyph-name="uni01C1" horiz-adv-x="1233" d="M63 1493H330L40 0H-227L63 1493ZM520 1493H787L497 0H230L520 1493Z" />
<glyph unicode="&#x1c2;" glyph-name="uni01C2" horiz-adv-x="1222" d="M612 1493H879L812 1146H1222L1176 911H766L723 691H1133L1087 454H677L589 0H322L410 454H0L46 691H456L499 911H89L135 1146H545L612 1493Z" />
<glyph unicode="&#x1c3;" glyph-name="uni01C3" horiz-adv-x="1233" d="M56 283H322L267 0H1L56 283ZM292 1493H558L431 838L329 481H130L163 838L292 1493Z" />
<glyph unicode="&#x1cd;" glyph-name="uni01CD" horiz-adv-x="1233" d="M830 1219L566 612H850L830 1219ZM695 1493H1055L1168 0H875L861 369H461L299 0H0L695 1493ZM547 1635H199L62 1899H232L381 1737L610 1899H791L547 1635Z" />
<glyph unicode="&#x1ce;" glyph-name="uni01CE" horiz-adv-x="1233" d="M655 530Q483 530 400 478T317 317Q317 254 357 213T461 172Q579 172 659 265T768 530H655ZM1079 639L956 0H665L690 125Q623 48 537 10T340 -29Q189 -29 101 58T12 295Q12 510 167 623T616
737H809L817 786Q818 792 818 797T819 815Q819 872 768 902T620 932Q538 932 435 904T213 819L260 1069Q373 1108 473 1127T665 1147Q882 1147 994 1071T1106 848Q1106 809 1099 756T1079 639ZM436 1262H194L12 1638H186L339 1411L577 1638H767L436 1262Z" />
<glyph unicode="&#x1cf;" glyph-name="uni01CF" horiz-adv-x="1233" d="M250 1233L301 1493H1190L1139 1233H842L654 260H951L899 0H11L62 260H359L547 1233H250ZM547 1635H199L62 1899H232L381 1737L610 1899H791L547 1635Z" />
<glyph unicode="&#x1d0;" glyph-name="uni01D0" horiz-adv-x="1233" d="M305 1120H885L711 225H1075L1032 0H10L53 225H418L549 895H262L305 1120ZM436 1262H194L12 1638H186L339 1411L577 1638H767L436 1262Z" />
<glyph unicode="&#x1d1;" glyph-name="uni01D1" horiz-adv-x="1233" d="M822 1020Q822 1140 782 1200T661 1260Q602 1260 552 1225T466 1120Q444 1081 423 1017T378 860Q349 745 334 646T319 471Q319 351 359 292T480 233Q539 233 588 268T675 373Q698 417 720
482T763 631Q792 746 807 845T822 1020ZM15 465Q15 665 65 870T200 1229Q277 1369 402 1444T683 1520Q898 1520 1011 1394T1125 1030Q1125 828 1076 622T943 264Q865 123 740 47T458 -29Q241 -29 128 97T15 465ZM547 1635H199L62 1899H232L381 1737L610 1899H791L547
1635Z" />
<glyph unicode="&#x1d2;" glyph-name="uni01D2" horiz-adv-x="1233" d="M778 684Q778 793 732 852T600 911Q477 911 394 775T311 434Q311 328 359 268T491 207Q612 207 695 343T778 684ZM16 426Q16 748 182 948T616 1149Q831 1149 952 1029T1073 694Q1073 371
907 171T473 -29Q258 -29 137 91T16 426ZM436 1262H194L12 1638H186L339 1411L577 1638H767L436 1262Z" />
<glyph unicode="&#x1d3;" glyph-name="uni01D3" horiz-adv-x="1233" d="M41 551L225 1493H520L321 477Q321 475 320 471Q313 424 313 403Q313 321 359 276T489 231Q597 231 661 292T751 477L950 1493H1245L1060 551Q1025 371 985 279T882 123Q806 49 702 10T473
-29Q254 -29 136 70T18 352Q18 394 23 444T41 551ZM568 1635H220L83 1899H253L402 1737L631 1899H812L568 1635Z" />
<glyph unicode="&#x1d4;" glyph-name="uni01D4" horiz-adv-x="1233" d="M37 391L180 1120H471L340 436Q335 409 333 383T330 332Q330 274 359 243T442 211Q525 211 581 281T666 489L788 1120H1079L862 0H569L602 166Q558 76 473 24T287 -29Q158 -29 89 41T20 244Q20
272 24 308T37 391ZM451 1262H209L27 1638H201L354 1411L592 1638H782L451 1262Z" />
<glyph unicode="&#x1d5;" glyph-name="uni01D5" horiz-adv-x="1245" d="M516 2017H1147L1110 1829H479L516 2017ZM871 1803H1106L1059 1557H822L871 1803ZM476 1803H711L662 1557H426L476 1803ZM31 551L215 1493H510L311 477Q311 475 310 471Q303 424 303 403Q303
321 349 276T479 231Q587 231 651 292T741 477L940 1493H1235L1050 551Q1015 371 975 279T872 123Q796 49 692 10T463 -29Q244 -29 126 70T8 352Q8 394 13 444T31 551Z" />
<glyph unicode="&#x1d6;" glyph-name="uni01D6" horiz-adv-x="1074" d="M22 391L165 1120H456L325 436Q320 409 318 383T315 332Q315 274 344 243T427 211Q510 211 566 281T651 489L773 1120H1064L847 0H554L587 166Q543 76 458 24T272 -29Q143 -29 74 41T5 244Q5
272 9 308T22 391ZM757 1585H995L946 1339H710L757 1585ZM362 1585H599L550 1339H315L362 1585ZM393 1871H1024L987 1683H356L393 1871Z" />
<glyph unicode="&#x1d7;" glyph-name="uni01D7" horiz-adv-x="1233" d="M327 2063H608L288 1799H81L327 2063ZM524 1771H759L712 1525H475L524 1771ZM129 1771H364L315 1525H79L129 1771ZM41 551L225 1493H520L321 477Q321 475 320 471Q313 424 313 403Q313 321
359 276T489 231Q597 231 661 292T751 477L950 1493H1245L1060 551Q1025 371 985 279T882 123Q806 49 702 10T473 -29Q254 -29 136 70T18 352Q18 394 23 444T41 551Z" />
<glyph unicode="&#x1d8;" glyph-name="uni01D8" horiz-adv-x="1227" d="M19 391L162 1120H453L322 436Q317 409 315 383T312 332Q312 274 341 243T424 211Q507 211 563 281T648 489L770 1120H1061L844 0H551L584 166Q540 76 455 24T269 -29Q140 -29 71 41T2 244Q2
272 6 308T19 391ZM754 1585H992L943 1339H707L754 1585ZM359 1585H596L547 1339H312L359 1585ZM903 2053H1224L782 1677H585L903 2053Z" />
<glyph unicode="&#x1d9;" glyph-name="uni01D9" horiz-adv-x="1233" d="M524 1771H759L712 1525H475L524 1771ZM129 1771H364L315 1525H79L129 1771ZM41 551L225 1493H520L321 477Q321 475 320 471Q313 424 313 403Q313 321 359 276T489 231Q597 231 661 292T751
477L950 1493H1245L1060 551Q1025 371 985 279T882 123Q806 49 702 10T473 -29Q254 -29 136 70T18 352Q18 394 23 444T41 551ZM607 1800H259L122 2064H292L441 1902L670 2064H851L607 1800Z" />
<glyph unicode="&#x1da;" glyph-name="uni01DA" horiz-adv-x="1187" d="M22 391L165 1120H456L325 436Q320 409 318 383T315 332Q315 274 344 243T427 211Q510 211 566 281T651 489L773 1120H1064L847 0H554L587 166Q543 76 458 24T272 -29Q143 -29 74 41T5 244Q5
272 9 308T22 391ZM757 1585H995L946 1339H710L757 1585ZM362 1585H599L550 1339H315L362 1585ZM851 1677H609L427 2053H601L754 1826L992 2053H1182L851 1677Z" />
<glyph unicode="&#x1db;" glyph-name="uni01DB" horiz-adv-x="1233" d="M41 551L225 1493H520L321 477Q321 475 320 471Q313 424 313 403Q313 321 359 276T489 231Q597 231 661 292T751 477L950 1493H1245L1060 551Q1025 371 985 279T882 123Q806 49 702 10T473
-29Q254 -29 136 70T18 352Q18 394 23 444T41 551ZM524 1771H759L712 1525H475L524 1771ZM129 1771H364L315 1525H79L129 1771ZM402 2064L545 1800H367L138 2064H402Z" />
<glyph unicode="&#x1dc;" glyph-name="uni01DC" horiz-adv-x="1071" d="M21 391L164 1120H455L324 436Q319 409 317 383T314 332Q314 274 343 243T426 211Q509 211 565 281T650 489L772 1120H1063L846 0H553L586 166Q542 76 457 24T271 -29Q142 -29 73 41T4 244Q4
272 8 308T21 391ZM756 1585H994L945 1339H709L756 1585ZM361 1585H598L549 1339H314L361 1585ZM667 2053L876 1677H678L383 2053H667Z" />
<glyph unicode="&#x1dd;" glyph-name="uni01DD" horiz-adv-x="1233" d="M214 1063Q324 1105 434 1126T662 1147Q943 1147 1062 996Q1182 846 1127 563Q1074 289 900 130T479 -29Q230 -29 121 118Q12 266 64 534L87 653H846Q871 785 807 850T589 915Q488 915 385
886T162 794L214 1063ZM340 433Q319 317 364 258Q411 198 523 198Q624 198 696 260Q768 321 801 434L340 433Z" />
<glyph unicode="&#x1de;" glyph-name="uni01DE" horiz-adv-x="1312" d="M666 2017H1297L1260 1829H629L666 2017ZM1021 1803H1256L1209 1557H972L1021 1803ZM626 1803H861L812 1557H576L626 1803ZM830 1219L566 612H850L830 1219ZM695 1493H1055L1168 0H875L861
369H461L299 0H0L695 1493Z" />
<glyph unicode="&#x1df;" glyph-name="uni01DF" horiz-adv-x="1110" d="M644 530Q472 530 389 478T306 317Q306 254 346 213T450 172Q568 172 648 265T757 530H644ZM1068 639L945 0H654L679 125Q612 48 526 10T329 -29Q178 -29 90 58T1 295Q1 510 156 623T605
737H798L806 786Q807 792 807 797T808 815Q808 872 757 902T609 932Q527 932 424 904T202 819L249 1069Q362 1108 462 1127T654 1147Q871 1147 983 1071T1095 848Q1095 809 1088 756T1068 639ZM843 1585H1081L1032 1339H796L843 1585ZM448 1585H685L636 1339H401L448
1585ZM448 1871H1079L1042 1683H411L448 1871Z" />
<glyph unicode="&#x1e0;" glyph-name="uni01E0" horiz-adv-x="1309" d="M666 2017H1297L1260 1829H629L666 2017ZM830 1219L566 612H850L830 1219ZM695 1493H1055L1168 0H875L861 369H461L299 0H0L695 1493ZM816 1803H1091L1043 1557H768L816 1803Z" />
<glyph unicode="&#x1e1;" glyph-name="uni01E1" horiz-adv-x="1233" d="M98 1871H729L692 1683H61L98 1871ZM68 1585H340L293 1339H19L68 1585ZM655 530Q483 530 400 478T317 317Q317 254 357 213T461 172Q579 172 659 265T768 530H655ZM1079 639L956 0H665L690
125Q623 48 537 10T340 -29Q189 -29 101 58T12 295Q12 510 167 623T616 737H809L817 786Q818 792 818 797T819 815Q819 872 768 902T620 932Q538 932 435 904T213 819L260 1069Q373 1108 473 1127T665 1147Q882 1147 994 1071T1106 848Q1106 809 1099 756T1079
639Z" />
<glyph unicode="&#x1e2;" glyph-name="uni01E2" horiz-adv-x="1233" d="M1464 1493L1413 1233H1122L1062 922H1322L1271 662H1011L933 260H1243L1191 0H628L700 362H417L262 0H3L655 1493H1464ZM790 1233L518 598H745L870 1233H790ZM205 1870H836L800 1682H169L205 1870Z" />
<glyph unicode="&#x1e3;" glyph-name="uni01E3" horiz-adv-x="1233" d="M510 401L524 479H450Q352 479 294 428T235 291Q235 240 264 210T342 180Q409 180 449 232T510 401ZM1038 688L1050 755Q1054 772 1055 789T1057 834Q1057 885 1037 908T973 932Q917 932
882 890T827 760L813 688H1038ZM1223 477H772Q764 428 761 402T758 356Q758 276 800 228T913 180Q969 180 1037 208T1171 289L1124 51Q1067 11 999 -9T850 -29Q756 -29 689 13T590 135Q529 52 456 12T293 -29Q166 -29 91 50T16 262Q16 455 137 572T463 690H571L582
748Q585 763 586 778T588 807Q588 868 554 900T455 932Q403 932 334 907T178 831L225 1069Q304 1108 376 1127T518 1147Q600 1147 658 1112T741 1014Q793 1079 862 1113T1016 1147Q1142 1147 1210 1077T1278 877Q1278 828 1270 761T1245 606L1223 477ZM63 1556H694L657
1368H26L63 1556Z" />
<glyph unicode="&#x1e6;" glyph-name="Gcaron" horiz-adv-x="1233" d="M685 1635H337L200 1899H370L519 1737L748 1899H929L685 1635ZM902 94Q832 35 734 3T521 -29Q279 -29 146 116T13 524Q13 739 85 949T278 1294Q376 1405 506 1462T788 1520Q869 1520 947 1502T1103
1448L1037 1120Q986 1187 917 1222T767 1257Q696 1257 632 1228T515 1141Q474 1094 440 1031T380 891Q348 793 331 702T314 532Q314 388 378 310T558 231Q594 231 625 239T681 264L738 555H532L581 803H1041L902 94Z" />
<glyph unicode="&#x1e7;" glyph-name="gcaron" horiz-adv-x="1233" d="M436 1262H194L12 1638H186L339 1411L577 1638H767L436 1262ZM517 246Q632 246 716 378T800 698Q800 798 759 853T646 909Q532 909 448 777T364 459Q364 357 404 302T517 246ZM984 84Q931
-193 793 -308T382 -424Q284 -424 193 -409T15 -365L69 -100Q144 -145 226 -167T396 -190Q521 -190 591 -132T685 51L712 184Q658 101 581 59T407 16Q250 16 158 120T65 403Q65 542 107 683T222 932Q292 1035 392 1093T599 1151Q703 1151 770 1096T859 938L894
1120H1187L984 84Z" />
<glyph unicode="&#x1e8;" glyph-name="uni01E8" horiz-adv-x="1233" d="M580 1635H232L95 1899H265L414 1737L643 1899H824L580 1635ZM302 1493H597L489 936L1052 1493H1400L794 889L1132 0H829L575 670L403 500L308 0H14L302 1493Z" />
<glyph unicode="&#x1e9;" glyph-name="uni01E9" horiz-adv-x="1233" d="M660 1635H312L175 1899H345L494 1737L723 1899H904L660 1635ZM313 1556H606L454 774L858 1120H1228L723 702L1036 0H725L503 524L387 428L305 0H12L313 1556Z" />
<glyph unicode="&#x1ea;" glyph-name="uni01EA" horiz-adv-x="1233" d="M822 1020Q822 1140 782 1200T661 1260Q602 1260 552 1225T466 1120Q444 1081 423 1017T378 860Q349 745 334 646T319 471Q319 351 359 292T480 233Q539 233 588 268T675 373Q698 417 720
482T763 631Q792 746 807 845T822 1020ZM15 465Q15 665 65 870T200 1229Q277 1369 402 1444T683 1520Q898 1520 1011 1394T1125 1030Q1125 828 1076 622T943 264Q865 123 740 47T458 -29Q241 -29 128 97T15 465ZM415 241H556Q481 161 457 124T433 61Q433 28 459
8T527 -13Q564 -13 604 -6T689 18L658 -138Q609 -149 563 -154T474 -160Q375 -160 317 -122T259 -17Q259 43 298 107T415 241Z" />
<glyph unicode="&#x1eb;" glyph-name="uni01EB" horiz-adv-x="1233" d="M778 684Q778 793 732 852T600 911Q477 911 394 775T311 434Q311 328 359 268T491 207Q612 207 695 343T778 684ZM16 426Q16 748 182 948T616 1149Q831 1149 952 1029T1073 694Q1073 371
907 171T473 -29Q258 -29 137 91T16 426ZM415 241H556Q481 161 457 124T433 61Q433 28 459 8T527 -13Q564 -13 604 -6T689 18L658 -138Q609 -149 563 -154T474 -160Q375 -160 317 -122T259 -17Q259 43 298 107T415 241Z" />
<glyph unicode="&#x1ec;" glyph-name="uni01EC" horiz-adv-x="1119" d="M812 1020Q812 1140 772 1200T651 1260Q592 1260 542 1225T456 1120Q434 1081 413 1017T368 860Q339 745 324 646T309 471Q309 351 349 292T470 233Q529 233 578 268T665 373Q688 417 710
482T753 631Q782 746 797 845T812 1020ZM5 465Q5 665 55 870T190 1229Q267 1369 392 1444T673 1520Q888 1520 1001 1394T1115 1030Q1115 828 1066 622T933 264Q855 123 730 47T448 -29Q231 -29 118 97T5 465ZM344 -16H485Q410 -96 386 -133T362 -196Q362 -229 388
-249T456 -270Q493 -270 533 -263T618 -239L587 -395Q538 -406 492 -411T403 -417Q304 -417 246 -379T188 -274Q188 -214 227 -150T344 -16ZM463 1870H1094L1058 1682H427L463 1870Z" />
<glyph unicode="&#x1ed;" glyph-name="uni01ED" horiz-adv-x="1064" d="M767 684Q767 793 721 852T589 911Q466 911 383 775T300 434Q300 328 348 268T480 207Q601 207 684 343T767 684ZM5 426Q5 748 171 948T605 1149Q820 1149 941 1029T1062 694Q1062 371 896
171T462 -29Q247 -29 126 91T5 426ZM317 -16H458Q383 -96 359 -133T335 -196Q335 -229 361 -249T429 -270Q466 -270 506 -263T591 -239L560 -395Q511 -406 465 -411T376 -417Q277 -417 219 -379T161 -274Q161 -214 200 -150T317 -16ZM376 1556H1007L970 1368H339L376
1556Z" />
<glyph unicode="&#x1ee;" glyph-name="uni01EE" horiz-adv-x="1233" d="M547 1635H199L62 1899H232L381 1737L610 1899H791L547 1635ZM1260 425Q1206 144 943 35Q790 -28 572 -28Q234 -28 126 88Q7 216 50 439H368Q347 332 433 275Q494 234 592 234Q827 234 897
380Q910 408 916 439Q951 618 731 642Q698 646 659 646H404L447 864L890 1233H324L375 1493H1385L1337 1249L858 848Q1001 839 1075 816Q1176 785 1230 685Q1289 575 1260 425Z" />
<glyph unicode="&#x1ef;" glyph-name="uni01EF" horiz-adv-x="1233" d="M367 452L844 901H278L321 1120H1216L1171 891L692 436Q835 427 908 404Q1015 371 1070 258Q1121 156 1093 13Q1050 -209 875 -324Q699 -440 405 -440Q302 -440 202 -422Q102 -403 7 -366L64
-69Q151 -123 242 -150Q332 -178 425 -178Q563 -178 646 -125T749 27Q769 129 704 182Q639 234 492 234H324L367 452ZM436 1262H194L12 1638H186L339 1411L577 1638H767L436 1262Z" />
<glyph unicode="&#x1f4;" glyph-name="uni01F4" horiz-adv-x="1233" d="M434 1899H715L395 1635H188L434 1899ZM902 94Q832 35 734 3T521 -29Q279 -29 146 116T13 524Q13 739 85 949T278 1294Q376 1405 506 1462T788 1520Q869 1520 947 1502T1103 1448L1037 1120Q986
1187 917 1222T767 1257Q696 1257 632 1228T515 1141Q474 1094 440 1031T380 891Q348 793 331 702T314 532Q314 388 378 310T558 231Q594 231 625 239T681 264L738 555H532L581 803H1041L902 94Z" />
<glyph unicode="&#x1f5;" glyph-name="uni01F5" horiz-adv-x="1233" d="M320 1638H641L199 1262H2L320 1638ZM517 246Q632 246 716 378T800 698Q800 798 759 853T646 909Q532 909 448 777T364 459Q364 357 404 302T517 246ZM984 84Q931 -193 793 -308T382 -424Q284
-424 193 -409T15 -365L69 -100Q144 -145 226 -167T396 -190Q521 -190 591 -132T685 51L712 184Q658 101 581 59T407 16Q250 16 158 120T65 403Q65 542 107 683T222 932Q292 1035 392 1093T599 1151Q703 1151 770 1096T859 938L894 1120H1187L984 84Z" />
<glyph unicode="&#x1f6;" glyph-name="uni01F6" horiz-adv-x="1382" d="M303 1493H554L443 924H665L776 1493H1027L844 551L829 477Q800 325 810 288Q823 238 879 238Q948 238 981 296Q1013 352 1037 477L1124 924H1375L1303 551Q1244 247 1114 109T827 -29Q686
-29 610 109T593 551L615 664H393L264 0H13L303 1493Z" />
<glyph unicode="&#x1f8;" glyph-name="uni01F8" horiz-adv-x="1233" d="M304 1493H607L822 408L1033 1493H1293L1005 0H712L487 1085L276 0H13L304 1493ZM355 1899L498 1635H320L91 1899H355Z" />
<glyph unicode="&#x1f9;" glyph-name="uni01F9" horiz-adv-x="1076" d="M1049 728L908 0H615L748 682Q753 708 755 734T758 788Q758 846 729 876T645 907Q563 907 505 835T420 629L299 0H6L223 1120H516L484 952Q532 1044 616 1095T801 1147Q929 1147 998 1078T1067
881Q1067 851 1063 813T1049 728ZM598 1640L807 1264H609L314 1640H598Z" />
<glyph unicode="&#x1fc;" glyph-name="AEacute" horiz-adv-x="1233" d="M509 1899H790L470 1635H263L509 1899ZM1464 1493L1413 1233H1122L1062 922H1322L1271 662H1011L933 260H1243L1191 0H628L700 362H417L262 0H3L655 1493H1464ZM790 1233L518 598H745L870 1233H790Z" />
<glyph unicode="&#x1fd;" glyph-name="aeacute" horiz-adv-x="1233" d="M320 1638H641L199 1262H2L320 1638ZM510 401L524 479H450Q352 479 294 428T235 291Q235 240 264 210T342 180Q409 180 449 232T510 401ZM1038 688L1050 755Q1054 772 1055 789T1057 834Q1057
885 1037 908T973 932Q917 932 882 890T827 760L813 688H1038ZM1223 477H772Q764 428 761 402T758 356Q758 276 800 228T913 180Q969 180 1037 208T1171 289L1124 51Q1067 11 999 -9T850 -29Q756 -29 689 13T590 135Q529 52 456 12T293 -29Q166 -29 91 50T16 262Q16
455 137 572T463 690H571L582 748Q585 763 586 778T588 807Q588 868 554 900T455 932Q403 932 334 907T178 831L225 1069Q304 1108 376 1127T518 1147Q600 1147 658 1112T741 1014Q793 1079 862 1113T1016 1147Q1142 1147 1210 1077T1278 877Q1278 828 1270 761T1245
606L1223 477Z" />
<glyph unicode="&#x1fe;" glyph-name="Oslashacute" horiz-adv-x="1233" d="M521 354Q539 294 577 264T672 233Q797 233 874 386T1004 889L521 354ZM224 295Q216 329 212 366T207 442Q207 656 256 865T390 1227Q468 1369 594 1444T877 1520Q982 1520 1065 1487T1209
1389L1363 1559L1502 1444L1297 1217Q1307 1161 1312 1113T1317 1020Q1317 958 1310 887T1289 737Q1264 598 1226 480T1135 264Q1057 123 932 47T650 -29Q536 -29 450 8T306 117L146 -63L5 51L224 295ZM998 1153Q980 1205 943 1232T853 1260Q732 1260 656 1114T525
629L998 1153ZM300 1899H581L261 1635H54L300 1899Z" />
<glyph unicode="&#x1ff;" glyph-name="oslashacute" horiz-adv-x="1233" d="M521 266Q545 236 576 222T648 207Q769 207 845 328T937 670L521 266ZM216 209Q196 255 186 308T175 422Q175 749 340 949T775 1149Q867 1149 944 1124T1088 1049L1281 1235L1398 1114L1191
913Q1211 864 1221 810T1232 696Q1232 370 1066 171T630 -29Q532 -29 457 -4T320 72L122 -117L5 2L216 209ZM888 856Q863 884 832 897T761 911Q640 911 565 793T470 453L888 856ZM320 1638H641L199 1262H2L320 1638Z" />
<glyph unicode="&#x200;" glyph-name="uni0200" horiz-adv-x="1233" d="M293 1899L441 1635H244L9 1899H293ZM668 1899L816 1635H619L384 1899H668ZM830 1219L566 612H850L830 1219ZM695 1493H1055L1168 0H875L861 369H461L299 0H0L695 1493Z" />
<glyph unicode="&#x201;" glyph-name="uni0201" horiz-adv-x="1233" d="M603 1638L724 1262H561L386 1638H603ZM240 1638L382 1262H208L9 1638H240ZM655 530Q483 530 400 478T317 317Q317 254 357 213T461 172Q579 172 659 265T768 530H655ZM1079 639L956 0H665L690
125Q623 48 537 10T340 -29Q189 -29 101 58T12 295Q12 510 167 623T616 737H809L817 786Q818 792 818 797T819 815Q819 872 768 902T620 932Q538 932 435 904T213 819L260 1069Q373 1108 473 1127T665 1147Q882 1147 994 1071T1106 848Q1106 809 1099 756T1079
639Z" />
<glyph unicode="&#x202;" glyph-name="uni0202" horiz-adv-x="1233" d="M10 1635Q50 1764 149 1831T396 1899Q544 1899 618 1832Q682 1774 682 1665Q682 1651 681 1635H538Q530 1696 487 1726T368 1756T237 1726Q183 1696 151 1635H10ZM830 1219L566 612H850L830
1219ZM695 1493H1055L1168 0H875L861 369H461L299 0H0L695 1493Z" />
<glyph unicode="&#x203;" glyph-name="uni0203" horiz-adv-x="1233" d="M11 1309Q45 1453 146 1529T404 1606Q561 1606 633 1530Q688 1471 688 1373Q688 1343 682 1309H539Q540 1313 540 1317Q540 1381 500 1416Q457 1453 374 1453T234 1416T152 1309H11ZM655
530Q483 530 400 478T317 317Q317 254 357 213T461 172Q579 172 659 265T768 530H655ZM1079 639L956 0H665L690 125Q623 48 537 10T340 -29Q189 -29 101 58T12 295Q12 510 167 623T616 737H809L817 786Q818 792 818 797T819 815Q819 872 768 902T620 932Q538 932
435 904T213 819L260 1069Q373 1108 473 1127T665 1147Q882 1147 994 1071T1106 848Q1106 809 1099 756T1079 639Z" />
<glyph unicode="&#x204;" glyph-name="uni0204" horiz-adv-x="1233" d="M293 1899L441 1635H244L9 1899H293ZM668 1899L816 1635H619L384 1899H668ZM941 0H12L300 1493H1232L1181 1233H546L483 911H1058L1009 651H434L358 260H993L941 0Z" />
<glyph unicode="&#x205;" glyph-name="uni0205" horiz-adv-x="1233" d="M642 1638L763 1262H600L425 1638H642ZM279 1638L421 1262H247L48 1638H279ZM932 55Q837 13 734 -8T521 -29Q273 -29 144 89T15 436Q15 577 59 709T183 938Q267 1040 383 1094T633 1149Q842
1149 968 1029T1094 711Q1094 666 1088 607T1067 465H308Q305 448 304 433T301 403Q301 304 368 254T566 203Q674 203 782 234T983 324L932 55ZM815 684Q819 698 820 711T822 737Q822 822 771 871T631 920Q531 920 460 861T349 684H815Z" />
<glyph unicode="&#x206;" glyph-name="uni0206" horiz-adv-x="1233" d="M10 1635Q50 1764 149 1831T396 1899Q544 1899 618 1832Q682 1774 682 1665Q682 1651 681 1635H538Q530 1696 487 1726T368 1756T237 1726Q183 1696 151 1635H10ZM941 0H12L300 1493H1232L1181
1233H546L483 911H1058L1009 651H434L358 260H993L941 0Z" />
<glyph unicode="&#x207;" glyph-name="uni0207" horiz-adv-x="1233" d="M50 1309Q84 1453 185 1529T443 1606Q600 1606 672 1530Q727 1471 727 1373Q727 1343 721 1309H578Q579 1313 579 1317Q579 1381 539 1416Q496 1453 413 1453T273 1416T191 1309H50ZM932
55Q837 13 734 -8T521 -29Q273 -29 144 89T15 436Q15 577 59 709T183 938Q267 1040 383 1094T633 1149Q842 1149 968 1029T1094 711Q1094 666 1088 607T1067 465H308Q305 448 304 433T301 403Q301 304 368 254T566 203Q674 203 782 234T983 324L932 55ZM815 684Q819
698 820 711T822 737Q822 822 771 871T631 920Q531 920 460 861T349 684H815Z" />
<glyph unicode="&#x208;" glyph-name="uni0208" horiz-adv-x="1233" d="M293 1899L441 1635H244L9 1899H293ZM668 1899L816 1635H619L384 1899H668ZM250 1233L301 1493H1190L1139 1233H842L654 260H951L899 0H11L62 260H359L547 1233H250Z" />
<glyph unicode="&#x209;" glyph-name="uni0209" horiz-adv-x="1233" d="M603 1638L724 1262H561L386 1638H603ZM240 1638L382 1262H208L9 1638H240ZM305 1120H885L711 225H1075L1032 0H10L53 225H418L549 895H262L305 1120Z" />
<glyph unicode="&#x20a;" glyph-name="uni020A" horiz-adv-x="1233" d="M10 1635Q50 1764 149 1831T396 1899Q544 1899 618 1832Q682 1774 682 1665Q682 1651 681 1635H538Q530 1696 487 1726T368 1756T237 1726Q183 1696 151 1635H10ZM250 1233L301 1493H1190L1139
1233H842L654 260H951L899 0H11L62 260H359L547 1233H250Z" />
<glyph unicode="&#x20b;" glyph-name="uni020B" horiz-adv-x="1233" d="M11 1309Q45 1453 146 1529T404 1606Q561 1606 633 1530Q688 1471 688 1373Q688 1343 682 1309H539Q540 1313 540 1317Q540 1381 500 1416Q457 1453 374 1453T234 1416T152 1309H11ZM305
1120H885L711 225H1075L1032 0H10L53 225H418L549 895H262L305 1120Z" />
<glyph unicode="&#x20c;" glyph-name="uni020C" horiz-adv-x="1233" d="M293 1899L441 1635H244L9 1899H293ZM668 1899L816 1635H619L384 1899H668ZM822 1020Q822 1140 782 1200T661 1260Q602 1260 552 1225T466 1120Q444 1081 423 1017T378 860Q349 745 334 646T319
471Q319 351 359 292T480 233Q539 233 588 268T675 373Q698 417 720 482T763 631Q792 746 807 845T822 1020ZM15 465Q15 665 65 870T200 1229Q277 1369 402 1444T683 1520Q898 1520 1011 1394T1125 1030Q1125 828 1076 622T943 264Q865 123 740 47T458 -29Q241
-29 128 97T15 465Z" />
<glyph unicode="&#x20d;" glyph-name="uni020D" horiz-adv-x="1233" d="M603 1638L724 1262H561L386 1638H603ZM240 1638L382 1262H208L9 1638H240ZM778 684Q778 793 732 852T600 911Q477 911 394 775T311 434Q311 328 359 268T491 207Q612 207 695 343T778 684ZM16
426Q16 748 182 948T616 1149Q831 1149 952 1029T1073 694Q1073 371 907 171T473 -29Q258 -29 137 91T16 426Z" />
<glyph unicode="&#x20e;" glyph-name="uni020E" horiz-adv-x="1233" d="M10 1635Q50 1764 149 1831T396 1899Q544 1899 618 1832Q682 1774 682 1665Q682 1651 681 1635H538Q530 1696 487 1726T368 1756T237 1726Q183 1696 151 1635H10ZM822 1020Q822 1140 782
1200T661 1260Q602 1260 552 1225T466 1120Q444 1081 423 1017T378 860Q349 745 334 646T319 471Q319 351 359 292T480 233Q539 233 588 268T675 373Q698 417 720 482T763 631Q792 746 807 845T822 1020ZM15 465Q15 665 65 870T200 1229Q277 1369 402 1444T683
1520Q898 1520 1011 1394T1125 1030Q1125 828 1076 622T943 264Q865 123 740 47T458 -29Q241 -29 128 97T15 465Z" />
<glyph unicode="&#x20f;" glyph-name="uni020F" horiz-adv-x="1233" d="M11 1309Q45 1453 146 1529T404 1606Q561 1606 633 1530Q688 1471 688 1373Q688 1343 682 1309H539Q540 1313 540 1317Q540 1381 500 1416Q457 1453 374 1453T234 1416T152 1309H11ZM778
684Q778 793 732 852T600 911Q477 911 394 775T311 434Q311 328 359 268T491 207Q612 207 695 343T778 684ZM16 426Q16 748 182 948T616 1149Q831 1149 952 1029T1073 694Q1073 371 907 171T473 -29Q258 -29 137 91T16 426Z" />
<glyph unicode="&#x210;" glyph-name="uni0210" horiz-adv-x="1233" d="M500 1899L648 1635H451L216 1899H500ZM875 1899L1023 1635H826L591 1899H875ZM791 705Q852 696 886 660T947 537L1111 0H810L704 376Q701 386 696 403Q643 590 538 590H421L306 0H11L302
1493H712Q944 1493 1056 1406T1168 1137Q1168 950 1070 838T791 705ZM550 1245L470 838H593Q728 838 797 902T867 1090Q867 1168 821 1206T683 1245H550Z" />
<glyph unicode="&#x211;" glyph-name="uni0211" horiz-adv-x="1233" d="M703 1638L824 1262H661L486 1638H703ZM340 1638L482 1262H308L109 1638H340ZM1033 815Q985 858 926 878T793 899Q627 899 538 811T408 516L308 0H13L232 1120H525L490 946Q552 1042 651
1094T869 1147Q931 1147 986 1132T1086 1090L1033 815Z" />
<glyph unicode="&#x212;" glyph-name="uni0212" horiz-adv-x="1233" d="M217 1635Q257 1764 356 1831T603 1899Q751 1899 825 1832Q889 1774 889 1665Q889 1651 888 1635H745Q737 1696 694 1726T575 1756T444 1726Q390 1696 358 1635H217ZM791 705Q852 696 886
660T947 537L1111 0H810L704 376Q701 386 696 403Q643 590 538 590H421L306 0H11L302 1493H712Q944 1493 1056 1406T1168 1137Q1168 950 1070 838T791 705ZM550 1245L470 838H593Q728 838 797 902T867 1090Q867 1168 821 1206T683 1245H550Z" />
<glyph unicode="&#x213;" glyph-name="uni0213" horiz-adv-x="1233" d="M111 1309Q145 1453 246 1529T504 1606Q661 1606 733 1530Q788 1471 788 1373Q788 1343 782 1309H639Q640 1313 640 1317Q640 1381 600 1416Q557 1453 474 1453T334 1416T252 1309H111ZM1033
815Q985 858 926 878T793 899Q627 899 538 811T408 516L308 0H13L232 1120H525L490 946Q552 1042 651 1094T869 1147Q931 1147 986 1132T1086 1090L1033 815Z" />
<glyph unicode="&#x214;" glyph-name="uni0214" horiz-adv-x="1233" d="M293 1899L441 1635H244L9 1899H293ZM668 1899L816 1635H619L384 1899H668ZM41 551L225 1493H520L321 477Q321 475 320 471Q313 424 313 403Q313 321 359 276T489 231Q597 231 661 292T751
477L950 1493H1245L1060 551Q1025 371 985 279T882 123Q806 49 702 10T473 -29Q254 -29 136 70T18 352Q18 394 23 444T41 551Z" />
<glyph unicode="&#x215;" glyph-name="uni0215" horiz-adv-x="1233" d="M603 1638L724 1262H561L386 1638H603ZM240 1638L382 1262H208L9 1638H240ZM37 391L180 1120H471L340 436Q335 409 333 383T330 332Q330 274 359 243T442 211Q525 211 581 281T666 489L788
1120H1079L862 0H569L602 166Q558 76 473 24T287 -29Q158 -29 89 41T20 244Q20 272 24 308T37 391Z" />
<glyph unicode="&#x216;" glyph-name="uni0216" horiz-adv-x="1233" d="M10 1635Q50 1764 149 1831T396 1899Q544 1899 618 1832Q682 1774 682 1665Q682 1651 681 1635H538Q530 1696 487 1726T368 1756T237 1726Q183 1696 151 1635H10ZM41 551L225 1493H520L321
477Q321 475 320 471Q313 424 313 403Q313 321 359 276T489 231Q597 231 661 292T751 477L950 1493H1245L1060 551Q1025 371 985 279T882 123Q806 49 702 10T473 -29Q254 -29 136 70T18 352Q18 394 23 444T41 551Z" />
<glyph unicode="&#x217;" glyph-name="uni0217" horiz-adv-x="1233" d="M11 1309Q45 1453 146 1529T404 1606Q561 1606 633 1530Q688 1471 688 1373Q688 1343 682 1309H539Q540 1313 540 1317Q540 1381 500 1416Q457 1453 374 1453T234 1416T152 1309H11ZM37 391L180
1120H471L340 436Q335 409 333 383T330 332Q330 274 359 243T442 211Q525 211 581 281T666 489L788 1120H1079L862 0H569L602 166Q558 76 473 24T287 -29Q158 -29 89 41T20 244Q20 272 24 308T37 391Z" />
<glyph unicode="&#x218;" glyph-name="Scommaaccent" horiz-adv-x="1233" d="M155 -198H437L201 -504H7L155 -198ZM509 664Q317 744 255 819T193 1020Q193 1240 354 1380T773 1520Q876 1520 973 1500T1162 1438L1105 1153Q1037 1215 946 1246T744 1278Q626 1278
552 1222T478 1077Q478 993 662 910L669 907L785 856Q931 791 998 700T1066 475Q1066 245 905 108T470 -29Q360 -29 246 -3T7 76L66 381Q163 300 269 258T482 215Q615 215 691 273T767 432Q767 494 732 539T628 614L509 664Z" />
<glyph unicode="&#x219;" glyph-name="scommaaccent" horiz-adv-x="1233" d="M155 -198H437L201 -504H7L155 -198ZM1014 1085L964 831Q889 884 802 911T622 938Q528 938 473 903T418 809Q418 764 454 737T620 672L694 651Q822 614 881 544T940 360Q940 178 803
75T420 -29Q316 -29 213 -12T10 41L61 297Q147 241 242 212T430 182Q540 182 601 219T663 324Q663 370 633 396T469 461L381 485Q259 521 202 590T145 772Q145 940 281 1043T643 1147Q736 1147 829 1132T1014 1085Z" />
<glyph unicode="&#x21a;" glyph-name="uni021A" horiz-adv-x="1233" d="M155 -198H437L201 -504H7L155 -198ZM454 0H160L399 1235H16L65 1493H1124L1073 1235H694L454 0Z" />
<glyph unicode="&#x21b;" glyph-name="uni021B" horiz-adv-x="1233" d="M287 -198H569L333 -504H139L287 -198ZM687 1438L625 1120H1008L965 895H582L478 365Q474 345 472 330T470 307Q470 262 500 244T609 225H834L791 0H546Q342 0 257 55T171 240Q171 261 175
295T189 379L290 895H3L46 1120H333L394 1438H687Z" />
<glyph unicode="&#x21c;" glyph-name="uni021C" horiz-adv-x="1432" d="M1427 1170Q1427 1136 1419 1095T1384 996T1318 884T1207 773T1045 674Q1166 643 1229 563T1293 379Q1293 345 1286 311Q1264 207 1202 120T1039 -40T786 -180T445 -307T4 -430L64 -147Q77
-144 98 -139T176 -119T287 -87T415 -43T551 12T678 79T787 156T860 244T889 342Q889 393 862 429T795 482T710 498Q653 498 585 473L350 388L404 642L659 737Q749 771 818 812T926 892T990 972T1022 1045T1030 1106Q1030 1148 1010 1179T955 1226T886 1249T815
1256Q666 1256 393 1100L447 1356Q722 1520 957 1520Q1061 1520 1144 1498T1279 1441T1365 1359T1413 1266T1427 1170Z" />
<glyph unicode="&#x21d;" glyph-name="uni021D" horiz-adv-x="1263" d="M1257 871Q1257 750 1164 638T922 461Q988 443 1035 415T1106 354T1140 288T1151 221Q1151 194 1145 167Q1059 -241 5 -433L54 -204Q79 -199 111 -192T204 -169T324 -134T452 -90T578 -34T684
31T760 106T787 189Q787 250 738 284T623 319Q571 319 511 299L302 230L346 436L573 513Q655 541 717 575T813 640T867 704T894 761T900 808Q900 843 881 869T830 908T767 927T703 933Q563 933 327 807L371 1014Q603 1147 851 1147Q940 1147 1011 1131T1127 1089T1202
1027T1244 952T1257 871Z" />
<glyph unicode="&#x21e;" glyph-name="uni021E" horiz-adv-x="1233" d="M576 1635H228L91 1899H261L410 1737L639 1899H820L576 1635ZM303 1493H598L487 924H856L966 1493H1261L970 0H675L804 664H436L307 0H12L303 1493Z" />
<glyph unicode="&#x21f;" glyph-name="uni021F" horiz-adv-x="1233" d="M500 1635H152L15 1899H185L334 1737L563 1899H744L500 1635ZM1052 728L911 0H618L751 682Q756 708 758 734T761 788Q761 846 732 876T648 907Q565 907 507 836T423 629L302 0H9L312 1556H603L487
952Q535 1044 619 1095T804 1147Q932 1147 1001 1078T1070 881Q1070 851 1066 813T1052 728Z" />
<glyph unicode="&#x221;" glyph-name="uni0221" horiz-adv-x="1285" d="M939 216Q943 210 988 211Q1091 211 1104 277T1075 344Q1024 344 939 216ZM866 354Q999 588 1124 588Q1277 588 1232 348Q1160 -29 915 -29Q799 -29 798 -19L731 -140H588Q638 -43 675 28Q612
56 575 177Q524 69 481 33Q407 -29 331 -29Q154 -29 78 125T56 559Q111 843 248 995T566 1147Q627 1147 666 1100Q689 1073 705 1028L808 1556H1100L866 354ZM432 811Q380 719 349 557T333 303T409 211T521 303T605 557T621 811T544 903T432 811Z" />
<glyph unicode="&#x224;" glyph-name="uni0224" horiz-adv-x="1330" d="M313 1493H1323L1276 1249L392 260H1098L1047 0H1046Q997 -216 895 -316Q784 -424 574 -424H453L496 -199H535Q634 -199 687 -144Q730 -100 755 0H1L49 244L912 1233H263L313 1493Z" />
<glyph unicode="&#x225;" glyph-name="uni0225" horiz-adv-x="1147" d="M245 1120H1140L1096 891L376 219H965L922 0V0Q872 -216 770 -316Q659 -424 449 -424H328L372 -199H411Q509 -199 562 -144Q605 -100 630 0H3L48 229L768 901H202L245 1120Z" />
<glyph unicode="&#x226;" glyph-name="uni0226" horiz-adv-x="1233" d="M67 1899H342L294 1653H19L67 1899ZM830 1219L566 612H850L830 1219ZM695 1493H1055L1168 0H875L861 369H461L299 0H0L695 1493Z" />
<glyph unicode="&#x227;" glyph-name="uni0227" horiz-adv-x="1233" d="M68 1585H340L293 1339H19L68 1585ZM655 530Q483 530 400 478T317 317Q317 254 357 213T461 172Q579 172 659 265T768 530H655ZM1079 639L956 0H665L690 125Q623 48 537 10T340 -29Q189 -29
101 58T12 295Q12 510 167 623T616 737H809L817 786Q818 792 818 797T819 815Q819 872 768 902T620 932Q538 932 435 904T213 819L260 1069Q373 1108 473 1127T665 1147Q882 1147 994 1071T1106 848Q1106 809 1099 756T1079 639Z" />
<glyph unicode="&#x228;" glyph-name="uni0228" horiz-adv-x="1233" d="M464 0Q500 -48 518 -94T536 -184Q536 -283 460 -342T253 -401Q201 -401 150 -395T51 -375L79 -219Q122 -236 163 -245T239 -254Q307 -254 343 -227T380 -150Q380 -124 367 -90T323 0H464ZM941
0H12L300 1493H1232L1181 1233H546L483 911H1058L1009 651H434L358 260H993L941 0Z" />
<glyph unicode="&#x229;" glyph-name="uni0229" horiz-adv-x="1233" d="M464 0Q500 -48 518 -94T536 -184Q536 -283 460 -342T253 -401Q201 -401 150 -395T51 -375L79 -219Q122 -236 163 -245T239 -254Q307 -254 343 -227T380 -150Q380 -124 367 -90T323 0H464ZM932
55Q837 13 734 -8T521 -29Q273 -29 144 89T15 436Q15 577 59 709T183 938Q267 1040 383 1094T633 1149Q842 1149 968 1029T1094 711Q1094 666 1088 607T1067 465H308Q305 448 304 433T301 403Q301 304 368 254T566 203Q674 203 782 234T983 324L932 55ZM815 684Q819
698 820 711T822 737Q822 822 771 871T631 920Q531 920 460 861T349 684H815Z" />
<glyph unicode="&#x22a;" glyph-name="uni022A" horiz-adv-x="1145" d="M498 2017H1129L1092 1829H461L498 2017ZM853 1803H1088L1041 1557H804L853 1803ZM458 1803H693L644 1557H408L458 1803ZM813 1020Q813 1140 773 1200T652 1260Q593 1260 543 1225T457 1120Q435
1081 414 1017T369 860Q340 745 325 646T310 471Q310 351 350 292T471 233Q530 233 579 268T666 373Q689 417 711 482T754 631Q783 746 798 845T813 1020ZM6 465Q6 665 56 870T191 1229Q268 1369 393 1444T674 1520Q889 1520 1002 1394T1116 1030Q1116 828 1067
622T934 264Q856 123 731 47T449 -29Q232 -29 119 97T6 465Z" />
<glyph unicode="&#x22b;" glyph-name="uni022B" horiz-adv-x="1072" d="M765 684Q765 793 719 852T587 911Q464 911 381 775T298 434Q298 328 346 268T478 207Q599 207 682 343T765 684ZM3 426Q3 748 169 948T603 1149Q818 1149 939 1029T1060 694Q1060 371 894
171T460 -29Q245 -29 124 91T3 426ZM773 1585H1011L962 1339H726L773 1585ZM378 1585H615L566 1339H331L378 1585ZM409 1871H1040L1003 1683H372L409 1871Z" />
<glyph unicode="&#x22c;" glyph-name="uni022C" horiz-adv-x="1144" d="M498 2017H1129L1092 1829H461L498 2017ZM714 1590L665 1627Q640 1646 624 1652T589 1659Q554 1659 528 1627T491 1539H354Q379 1667 444 1736T606 1805Q643 1805 675 1793T743 1754L796
1713Q811 1700 829 1693T864 1686Q903 1686 929 1716T966 1805H1103Q1077 1677 1012 1608T853 1539Q816 1539 784 1550T714 1590ZM813 1020Q813 1140 773 1200T652 1260Q593 1260 543 1225T457 1120Q435 1081 414 1017T369 860Q340 745 325 646T310 471Q310 351
350 292T471 233Q530 233 579 268T666 373Q689 417 711 482T754 631Q783 746 798 845T813 1020ZM6 465Q6 665 56 870T191 1229Q268 1369 393 1444T674 1520Q889 1520 1002 1394T1116 1030Q1116 828 1067 622T934 264Q856 123 731 47T449 -29Q232 -29 119 97T6 465Z"
/>
<glyph unicode="&#x22d;" glyph-name="uni022D" horiz-adv-x="1074" d="M766 684Q766 793 720 852T588 911Q465 911 382 775T299 434Q299 328 347 268T479 207Q600 207 683 343T766 684ZM4 426Q4 748 170 948T604 1149Q819 1149 940 1029T1061 694Q1061 371 895
171T461 -29Q246 -29 125 91T4 426ZM655 1364L606 1401Q605 1402 601 1405Q559 1438 528 1438Q494 1438 468 1404T432 1309H293Q312 1439 380 1516T543 1593Q577 1593 607 1581T684 1532L735 1493Q754 1478 772 1470T805 1462Q843 1462 869 1495T905 1591H1044Q1021
1450 959 1379T795 1307Q760 1307 728 1320T655 1364ZM409 1871H1040L1003 1683H372L409 1871Z" />
<glyph unicode="&#x22e;" glyph-name="uni022E" horiz-adv-x="1233" d="M67 1899H342L294 1653H19L67 1899ZM822 1020Q822 1140 782 1200T661 1260Q602 1260 552 1225T466 1120Q444 1081 423 1017T378 860Q349 745 334 646T319 471Q319 351 359 292T480 233Q539
233 588 268T675 373Q698 417 720 482T763 631Q792 746 807 845T822 1020ZM15 465Q15 665 65 870T200 1229Q277 1369 402 1444T683 1520Q898 1520 1011 1394T1125 1030Q1125 828 1076 622T943 264Q865 123 740 47T458 -29Q241 -29 128 97T15 465Z" />
<glyph unicode="&#x22f;" glyph-name="uni022F" horiz-adv-x="1233" d="M68 1585H340L293 1339H19L68 1585ZM778 684Q778 793 732 852T600 911Q477 911 394 775T311 434Q311 328 359 268T491 207Q612 207 695 343T778 684ZM16 426Q16 748 182 948T616 1149Q831
1149 952 1029T1073 694Q1073 371 907 171T473 -29Q258 -29 137 91T16 426Z" />
<glyph unicode="&#x230;" glyph-name="uni0230" horiz-adv-x="1141" d="M497 2017H1128L1091 1829H460L497 2017ZM812 1020Q812 1140 772 1200T651 1260Q592 1260 542 1225T456 1120Q434 1081 413 1017T368 860Q339 745 324 646T309 471Q309 351 349 292T470 233Q529
233 578 268T665 373Q688 417 710 482T753 631Q782 746 797 845T812 1020ZM5 465Q5 665 55 870T190 1229Q267 1369 392 1444T673 1520Q888 1520 1001 1394T1115 1030Q1115 828 1066 622T933 264Q855 123 730 47T448 -29Q231 -29 118 97T5 465ZM647 1803H922L874
1557H599L647 1803Z" />
<glyph unicode="&#x231;" glyph-name="uni0231" horiz-adv-x="1068" d="M557 1585H829L782 1339H508L557 1585ZM764 684Q764 793 718 852T586 911Q463 911 380 775T297 434Q297 328 345 268T477 207Q598 207 681 343T764 684ZM2 426Q2 748 168 948T602 1149Q817
1149 938 1029T1059 694Q1059 371 893 171T459 -29Q244 -29 123 91T2 426ZM407 1871H1038L1001 1683H370L407 1871Z" />
<glyph unicode="&#x232;" glyph-name="uni0232" horiz-adv-x="1233" d="M14 1493H307L494 844L905 1493H1227L594 588L479 0H186L301 588L14 1493ZM62 1870H693L657 1682H26L62 1870Z" />
<glyph unicode="&#x233;" glyph-name="uni0233" horiz-adv-x="1233" d="M654 -121Q542 -319 461 -371T253 -424H13L58 -201H175Q262 -201 312 -171T422 -29L461 45L244 1120H541L668 420L1051 1120H1360L654 -121ZM63 1556H694L657 1368H26L63 1556Z" />
<glyph unicode="&#x234;" glyph-name="uni0234" horiz-adv-x="1001" d="M662 216Q666 210 711 211Q814 211 827 277T798 344Q747 344 662 216ZM493 200L589 354Q722 588 847 588Q1001 588 955 348Q883 -29 638 -29Q522 -29 521 -19L455 -140H310Q330 -91 367 -25Q213
-9 156 79Q86 187 135 438L308 1331H11L55 1556H645L428 438Q402 306 432 251Q453 213 493 200Z" />
<glyph unicode="&#x235;" glyph-name="uni0235" horiz-adv-x="1289" d="M999 216Q1002 210 1038 211Q1121 211 1133 277T1113 344Q1072 344 999 216ZM889 248L946 354Q1062 588 1161 588Q1284 588 1238 348Q1166 -29 971 -29Q877 -29 877 -19L820 -140H703Q722
-91 753 -25Q631 -9 589 79Q537 187 586 438L633 682Q659 813 648 856Q636 909 609 909Q546 909 501 838Q451 757 428 641L303 0H12L230 1120H521L500 1012Q526 1063 563 1096Q620 1147 704 1147Q831 1147 902 1042T933 727L877 438Q844 270 889 248Z" />
<glyph unicode="&#x236;" glyph-name="uni0236" horiz-adv-x="1009" d="M613 216Q615 210 651 211Q734 211 747 277T726 344Q685 344 613 216ZM490 438Q457 270 502 248L560 354Q675 588 775 588Q898 588 852 348Q780 -29 584 -29Q490 -29 490 -19L433 -140H317Q335
-91 367 -25Q244 -9 202 79Q150 187 199 438L288 895H2L46 1120H332L393 1438H686L625 1120H1008L964 895H581L490 438Z" />
<glyph unicode="&#x237;" glyph-name="dotlessj" horiz-adv-x="1014" d="M798 43Q765 -124 735 -195T657 -313Q598 -372 517 -398T309 -424H2L47 -199H278Q378 -199 429 -146T505 43L671 895H374L417 1120H1007L798 43Z" />
<glyph unicode="&#x238;" glyph-name="uni0238" horiz-adv-x="1311" d="M351 811Q296 719 265 557T253 303T339 211T462 303T550 557T561 811T474 903T351 811ZM953 303Q1009 395 1040 557T1052 811T966 903T843 811T755 557T743 303T830 211T953 303ZM833 961Q889
1054 948 1100T1070 1147Q1209 1147 1255 995T1246 559Q1191 279 1087 125T849 -29Q778 -29 735 20T679 166L646 0H442L474 166Q422 69 361 20T228 -29Q94 -29 50 125T60 559Q115 843 220 995T464 1147Q527 1147 568 1101T629 961L744 1556H949L833 961Z" />
<glyph unicode="&#x239;" glyph-name="uni0239" horiz-adv-x="1311" d="M959 307Q1015 399 1046 561T1058 815T972 907T849 815T761 561T750 307T837 215T959 307ZM358 815Q302 723 271 561T259 307T345 215T468 307T556 561T568 815T481 907T358 815ZM478 157Q422
64 363 18T241 -29Q102 -29 56 123T65 559Q120 839 224 993T462 1147Q533 1147 576 1098T632 952L665 1118H869L837 952Q889 1049 950 1098T1083 1147Q1217 1147 1261 993T1251 559Q1196 275 1091 123T847 -29Q784 -29 743 17T682 157L567 -438H362L478 157Z" />
<glyph unicode="&#x23a;" glyph-name="uni023A" horiz-adv-x="1504" d="M723 1493H1084L1100 1272L1359 1559L1498 1444L1119 1023L1197 0H902L881 369H530L445 275L325 0H197L140 -63L63 0H30L39 20L1 51L109 172L723 1493ZM858 1003L850 1223L669 793L858 1003ZM749
612H872L867 743L749 612Z" />
<glyph unicode="&#x23b;" glyph-name="uni023B" horiz-adv-x="1503" d="M596 711L1082 1250Q1052 1255 1028 1255Q866 1255 759 1127T601 745V720Q599 716 596 711ZM1087 43Q1010 7 930 -11T764 -29Q467 -29 346 164L141 -63L2 51L277 356Q250 519 294 745Q368
1122 565 1321T1065 1520Q1150 1520 1225 1502Q1259 1494 1290 1482L1360 1559L1499 1444L1321 1246L1296 1120Q1273 1146 1250 1167L588 433Q596 395 610 364Q667 236 829 236Q905 236 983 268T1151 371L1087 43Z" />
<glyph unicode="&#x23c;" glyph-name="uni023C" horiz-adv-x="1397" d="M118 -117L2 2L256 247Q218 377 253 559Q307 836 484 992T921 1149Q1011 1149 1090 1128Q1120 1120 1149 1109L1279 1235L1395 1114L1221 947L1192 795Q1160 828 1122 851L568 317Q572 309
577 301Q636 211 779 211Q864 211 943 239T1101 326L1048 57Q966 14 877 -7T690 -29Q457 -29 340 97L118 -117ZM544 526L941 908Q928 909 915 909Q772 909 678 818T550 559Q547 542 544 526Z" />
<glyph unicode="&#x23d;" glyph-name="uni023D" horiz-adv-x="1128" d="M289 730L438 1493H733L584 730H828L791 538H547L493 260H1124L1073 0H147L252 538H2L39 730H289Z" />
<glyph unicode="&#x23e;" glyph-name="uni023E" horiz-adv-x="1501" d="M451 0L519 354L143 -63L4 51L586 698L691 1235H312L362 1493H1302L1362 1559L1501 1444L1379 1308L1365 1235H1313L896 772L746 0H451ZM962 1116L1070 1235H986L962 1116Z" />
<glyph unicode="&#x23f;" glyph-name="uni023F" horiz-adv-x="1020" d="M1010 1085L960 829Q890 881 808 907T637 934Q539 934 484 906T417 821Q401 741 606 691L616 688L696 668Q849 630 907 546T937 317Q903 144 773 58T415 -29Q392 -29 369 -28L462 -193Q507
-273 665 -273H810L768 -492H631Q351 -492 254 -319L123 -86Q116 -74 6 41L56 297Q142 242 237 213T426 184Q529 184 588 214T658 301Q669 357 637 387T471 451L394 469Q233 507 172 588T137 805Q168 967 302 1057T649 1147Q744 1147 835 1132T1010 1085Z" />
<glyph unicode="&#x240;" glyph-name="uni0240" horiz-adv-x="1148" d="M246 1120H1141L1096 891L288 140Q331 99 365 40L495 -193Q540 -273 699 -273H870L827 -492H664Q384 -492 287 -319L157 -86Q109 0 4 0L48 229L769 901H203L246 1120Z" />
<glyph unicode="&#x241;" glyph-name="uni0241" horiz-adv-x="1224" d="M474 1213Q396 1213 394 1213Q351 1213 331 1192Q293 1156 281 1108Q278 1095 271 1061H16L31 1138Q61 1293 122 1359Q145 1383 183 1411Q270 1474 411 1488Q460 1492 528 1492L683 1493Q967
1494 1096 1366Q1224 1240 1179 1006Q1133 771 956 645T494 518L393 0H98L253 797H595Q707 797 778 851T869 1006T838 1160Q788 1214 676 1214L474 1213Z" />
<glyph unicode="&#x243;" glyph-name="uni0243" horiz-adv-x="1284" d="M599 1260L531 913H728Q849 913 910 967T972 1128Q972 1196 929 1228T796 1260H599ZM359 1495H841Q1052 1495 1159 1412T1267 1165Q1267 1004 1172 905T902 786Q1041 774 1118 695T1195 485Q1195
377 1157 284T1050 127Q975 60 860 30T550 0H69L135 338H9L55 575H181L359 1495ZM420 338L400 236H597Q753 236 826 302T900 510Q900 596 847 637T683 678H486L466 575H698L652 338H420Z" />
<glyph unicode="&#x244;" glyph-name="uni0244" horiz-adv-x="1313" d="M75 352Q75 436 95 538H13L51 730H133L282 1493H577L428 730H858L1007 1493H1302L1152 730H1242L1204 538H1114Q1080 366 1041 276T932 118Q784 -29 548 -29T193 70T75 352ZM370 403Q370
321 416 276T558 231Q758 231 808 477L820 538H390Q376 474 370 403Z" />
<glyph unicode="&#x245;" glyph-name="uni0245" horiz-adv-x="1148" d="M807 1251L301 0H0L645 1493H1057L1122 0H831L807 1251Z" />
<glyph unicode="&#x24c;" glyph-name="uni024C" horiz-adv-x="1202" d="M552 590H478L363 0H68L183 590H8L56 838H231L358 1493H726Q958 1493 1070 1406T1182 1137Q1182 950 1084 838T805 705Q866 696 900 660T961 537L1125 0H824L718 376Q715 386 710 403Q655
590 552 590ZM526 838H607Q742 838 811 902T881 1090Q881 1168 835 1206T697 1245H605L526 838Z" />
<glyph unicode="&#x24d;" glyph-name="uni024D" horiz-adv-x="1100" d="M1046 811Q1006 855 946 877T809 899Q716 899 640 867T514 772Q483 734 463 680Q455 660 448 632H826L788 438H406L321 0H28L113 438H14L52 632H151L246 1120H539L505 946Q567 1042 666 1094T884
1147Q944 1147 998 1133T1100 1090L1046 811Z" />
<glyph unicode="&#x250;" glyph-name="uni0250" horiz-adv-x="1185" d="M501 592Q665 592 738 634Q812 676 832 778Q846 854 809 899Q774 944 696 944Q580 944 499 856Q418 769 387 612L383 592H501ZM71 479L196 1118H486L461 993Q530 1067 620 1107Q711 1147
811 1147Q1001 1147 1088 1046T1141 764Q1103 568 956 474Q812 381 546 381H342L333 332Q319 261 364 224Q409 188 509 188Q613 188 717 214Q821 241 938 299L890 49Q786 9 683 -10T467 -29Q193 -29 105 82T71 479Z" />
<glyph unicode="&#x251;" glyph-name="uni0251" horiz-adv-x="1184" d="M847 961L878 1119H1170L952 0H660L693 166Q627 69 543 20Q459 -29 358 -29Q166 -29 90 125T68 559Q123 843 261 995Q397 1147 596 1147Q686 1147 749 1100Q811 1054 847 961ZM464 811Q392
719 361 557T365 303T496 211T664 303T768 557T763 811T631 903T464 811Z" />
<glyph unicode="&#x252;" glyph-name="uni0252" horiz-adv-x="1184" d="M337 157L306 -1H14L232 1118H524L491 952Q557 1049 642 1098Q725 1147 826 1147Q1018 1147 1094 993T1116 559Q1061 275 924 123Q787 -29 588 -29Q498 -29 436 18Q373 64 337 157ZM720 307Q792
399 823 561T819 815T688 907T520 815T416 561T421 307T553 215T720 307Z" />
<glyph unicode="&#x253;" glyph-name="uni0253" horiz-adv-x="1173" d="M487 961Q560 1054 641 1100Q721 1147 811 1147Q1010 1147 1088 995Q1166 843 1110 559Q1056 279 920 125T592 -29Q491 -29 426 20T333 166L301 0H9L220 1088Q269 1340 381 1447Q492 1555
702 1555H823L779 1330H740Q640 1330 589 1275T511 1088H512L487 961ZM713 303Q785 395 816 557T812 811T681 903T513 811T409 557T414 303T547 211T713 303Z" />
<glyph unicode="&#x254;" glyph-name="uni0254" horiz-adv-x="1066" d="M12 57Q12 57 65 326Q119 268 188 240Q256 211 341 211Q484 211 578 301T705 559T679 818T477 909Q395 909 312 880Q230 850 156 795L208 1063Q299 1107 386 1128Q474 1149 564 1149Q823
1149 940 992Q1057 836 1003 559Q949 283 773 127T338 -29Q240 -29 159 -8Q78 14 12 57Z" />
<glyph unicode="&#x255;" glyph-name="uni0255" horiz-adv-x="1060" d="M499 232Q551 208 605 207H610Q757 207 767 264Q781 339 650 339Q567 339 499 232ZM364 334L370 351Q508 532 677 532Q962 527 920 294Q862 -29 547 -29Q445 -29 442 -28Q439 -28 436 -27L414
-141L214 -140Q232 -47 247 24Q173 62 125 127Q9 283 63 559Q116 836 294 992Q472 1149 730 1149Q820 1149 899 1128Q980 1107 1054 1063L1002 795Q948 850 877 880Q807 909 725 909Q582 909 487 818T360 559Q330 405 364 334Z" />
<glyph unicode="&#x256;" glyph-name="uni0256" horiz-adv-x="1166" d="M435 811Q375 719 344 557T337 303T438 211T576 303T669 557T675 811T572 903T435 811ZM748 961L863 1556H1154L878 136Q852 4 863 -51T929 -106H949L906 -331H809Q641 -331 590 -223Q538
-116 587 136L593 166Q537 69 468 20Q399 -29 318 -29Q138 -29 69 125Q0 279 55 559Q110 843 240 995T556 1147Q627 1147 675 1100Q723 1054 748 961Z" />
<glyph unicode="&#x257;" glyph-name="uni0257" horiz-adv-x="1288" d="M443 811Q382 719 351 557T344 303T446 211T583 303T676 557T682 811T580 903T443 811ZM1078 1088L866 0H569L601 166Q545 69 476 20T325 -29Q143 -29 73 125T57 559Q112 843 243 995T563
1147Q635 1147 683 1100Q731 1054 755 961L782 1088Q836 1344 925 1447Q1018 1555 1186 1555H1283L1239 1330H1218Q1166 1330 1135 1275Q1104 1222 1078 1088Z" />
<glyph unicode="&#x258;" glyph-name="uni0258" horiz-adv-x="1184" d="M13 55Q13 55 65 324Q160 261 252 232T446 203Q599 203 688 268T805 465H46L69 584Q121 852 288 1000Q453 1147 702 1147Q949 1147 1061 988T1120 555Q1065 272 887 122Q710 -29 429 -29Q311
-29 209 -8T13 55ZM383 685L844 684Q855 797 807 858Q759 920 658 920Q546 920 477 860Q408 801 383 685Z" />
<glyph unicode="&#x259;" glyph-name="uni0259" horiz-adv-x="1193" d="M214 1063Q324 1105 434 1126T662 1147Q943 1147 1062 996Q1182 846 1127 563Q1074 289 900 130T479 -29Q230 -29 121 118Q12 266 64 534L87 653H846Q871 785 807 850T589 915Q488 915 385
886T162 794L214 1063ZM340 433Q319 317 364 258Q411 198 523 198Q624 198 696 260Q768 321 801 434L340 433Z" />
<glyph unicode="&#x25a;" glyph-name="uni025A" horiz-adv-x="1293" d="M655 540L290 295Q293 283 299 272Q332 209 404 209Q482 209 542 268Q602 326 635 436L655 540ZM955 736Q955 655 936 559Q883 285 729 128T356 -29Q158 -29 70 130Q22 216 15 334L678 777Q670
818 650 846Q603 909 499 909Q414 909 319 876Q223 842 116 774L169 1050Q275 1098 374 1122Q474 1147 569 1147Q797 1147 894 992Q909 969 919 942L1110 1072L1260 1074L1227 903Q1183 678 1185 671Q1203 616 1256 616H1289L1254 436H1182Q1069 436 1032 547Q1025
638 1058 804L955 736Z" />
<glyph unicode="&#x25b;" glyph-name="uni025B" horiz-adv-x="1189" d="M411 573Q276 599 217 663Q156 729 173 816Q207 989 362 1068T759 1147Q852 1147 953 1135Q1057 1123 1173 1099L1127 863Q997 894 915 903Q810 915 806 915Q684 915 629 891Q536 853 527
804Q514 735 591 705Q648 681 752 681H869L826 462H643Q593 462 525 441Q423 409 408 330Q391 241 489 216Q521 201 634 201Q748 201 856 219Q965 236 1059 270L1013 34Q897 6 790 -8Q682 -22 584 -22Q289 -22 150 69Q9 161 31 273Q56 402 155 476T411 573Z" />
<glyph unicode="&#x25c;" glyph-name="uni025C" horiz-adv-x="1201" d="M823 573Q971 550 1041 476T1087 273Q1065 161 888 69Q713 -22 418 -22Q320 -22 218 -8Q117 6 11 34L57 270Q139 236 240 219Q342 201 456 201Q569 201 607 216Q715 241 732 330Q747 409
657 441Q597 462 547 462H364L407 681H524Q628 681 695 705Q784 735 797 804Q806 853 729 891Q684 915 562 915Q558 915 447 903Q361 894 219 863L265 1099Q391 1123 499 1135Q606 1147 699 1147Q940 1147 1064 1068T1155 816Q1138 729 1053 663Q968 599 823 573Z"
/>
<glyph unicode="&#x25d;" glyph-name="uni025D" horiz-adv-x="1268" d="M649 573Q759 550 807 476Q857 402 832 273Q810 161 673 69Q538 -22 316 -22Q242 -22 167 -8T13 34L59 270Q120 236 194 219Q270 201 355 201Q427 201 469 216Q552 246 569 330Q584 409 517
441Q474 462 436 462H299L342 681H430Q505 681 559 705Q628 735 641 804Q650 850 594 891Q561 915 470 915Q467 915 382 903Q318 894 210 863L256 1099Q351 1123 433 1135Q515 1147 584 1147Q764 1147 853 1068Q906 1022 916 944L1100 1072L1250 1074L1217 903Q1176
690 1181 671Q1198 616 1230 616H1263L1228 436H1156Q1066 436 1028 547Q1016 638 1048 804L779 623L778 626Q723 590 649 573Z" />
<glyph unicode="&#x25e;" glyph-name="uni025E" horiz-adv-x="1184" d="M685 915Q420 915 348 552Q277 188 575 188Q645 188 691 216Q751 253 763 316Q777 388 725 420Q692 442 618 442H486L528 661H661Q725 661 772 684Q841 718 856 792Q866 847 814 882Q764
916 685 915ZM480 1099Q578 1144 776 1145Q984 1145 1079 1059Q1172 972 1143 824Q1124 726 1051 650Q981 578 841 552Q967 526 1013 453Q1057 382 1037 279Q1008 131 882 45Q756 -41 546 -42Q347 -43 270 18Q9 220 73 552Q150 948 480 1099Z" />
<glyph unicode="&#x25f;" glyph-name="uni025F" horiz-adv-x="1119" d="M801 43Q752 -209 641 -316T319 -424H3L47 -199H281Q379 -199 430 -144T508 43L584 438H305L343 632H622L673 895H376L420 1120H1010L915 632H1117L1079 438H877L801 43Z" />
<glyph unicode="&#x260;" glyph-name="uni0260" horiz-adv-x="1466" d="M622 887Q533 887 468 805Q402 723 373 573Q343 419 375 340Q408 260 500 260Q590 260 655 342Q721 424 750 573L811 887H622ZM675 190Q597 92 516 46Q436 0 343 0Q179 0 103 162Q27 323
76 573Q119 799 258 960Q397 1120 561 1120H856H858Q903 1324 1007 1438Q1117 1556 1241 1556H1466L1420 1321H1287Q1245 1321 1206 1275Q1166 1229 1140 1094L1097 874H1096L948 113Q899 -141 734 -284Q570 -426 311 -426Q227 -426 151 -410Q77 -394 4 -361L55
-98Q120 -152 187 -178Q253 -205 326 -205Q467 -205 547 -128Q628 -51 660 113L675 190Z" />
<glyph unicode="&#x261;" glyph-name="uni0261" horiz-adv-x="1184" d="M700 190Q620 92 539 46T362 0Q193 0 115 162Q36 323 85 573Q129 799 270 960Q410 1120 579 1120H881H1176L981 113Q931 -141 764 -284Q597 -426 331 -426Q245 -426 168 -410Q90 -394 15
-361L67 -98Q133 -152 202 -178Q271 -205 345 -205Q490 -205 572 -128T686 113L700 190ZM643 887Q552 887 485 805T389 573Q359 419 393 340Q426 260 521 260Q612 260 679 342T775 573L836 887H643Z" />
<glyph unicode="&#x262;" glyph-name="uni0262" horiz-adv-x="1059" d="M896 101Q793 51 687 25Q582 0 475 0Q233 0 122 151Q10 301 60 559Q111 820 284 970Q457 1119 707 1119Q803 1119 888 1099Q972 1079 1043 1039L997 803Q926 852 851 876Q774 900 694 900Q545
900 447 811Q350 723 318 559Q286 397 346 308Q407 219 550 219Q589 219 624 225Q658 230 687 241L718 409H470L513 630H999L896 101Z" />
<glyph unicode="&#x263;" glyph-name="uni0263" horiz-adv-x="1272" d="M819 590Q987 208 914 -179Q870 -411 460 -415Q9 -420 55 -179Q121 163 469 588L232 1135H555L684 803L946 1135H1269L819 590ZM600 369Q349 59 327 -67Q305 -191 486 -191Q660 -191 684
-67Q715 95 600 369Z" />
<glyph unicode="&#x264;" glyph-name="uni0264" horiz-adv-x="1115" d="M401 136Q446 136 463 223Q475 282 445 354Q386 280 375 223Q359 140 401 136ZM312 586L77 1120H400L529 788L791 1120H1114L663 575Q767 336 728 132Q682 -120 354 -120Q17 -120 66 132Q108
344 312 586Z" />
<glyph unicode="&#x265;" glyph-name="uni0265" horiz-adv-x="1097" d="M47 391L188 1118H479L347 436Q323 315 347 263Q372 211 450 211Q530 211 589 282Q647 352 672 477L796 1118H1087L785 -438H494L611 166Q562 73 477 22T286 -29Q127 -29 67 76Q6 182 47 391Z" />
<glyph unicode="&#x266;" glyph-name="uni0266" horiz-adv-x="1099" d="M1048 727L907 0H616L748 682Q772 803 747 855Q723 907 645 907Q565 907 506 836Q448 766 423 641L299 0H8L219 1088Q268 1340 380 1447Q491 1555 701 1555H822L778 1330H739Q639 1330 588
1275T510 1088L484 952Q533 1045 618 1096T809 1147Q968 1147 1028 1042Q1089 936 1048 727Z" />
<glyph unicode="&#x267;" glyph-name="uni0267" horiz-adv-x="1092" d="M620 41L745 682Q768 803 743 855Q720 907 642 907Q562 907 503 836Q444 766 420 641L295 0H4L216 1088Q265 1340 377 1447Q488 1555 698 1555H819L775 1330H736Q636 1330 584 1275T507 1088L480
952Q529 1045 614 1096T805 1147Q964 1147 1025 1042Q1085 936 1045 727L903 0Q853 -220 750 -318Q639 -426 429 -426H308L352 -201H391Q491 -201 543 -146T620 41Z" />
<glyph unicode="&#x268;" glyph-name="uni0268" horiz-adv-x="1082" d="M602 1556H960L903 1264H545L602 1556ZM295 1120H875L781 632H983L945 438H743L702 225H1066L1022 0H0L44 225H408L449 438H385H171L209 632H487L538 895H252L295 1120Z" />
<glyph unicode="&#x269;" glyph-name="uni0269" horiz-adv-x="828" d="M291 895H5L49 1120H629L501 460Q473 318 502 272Q532 227 633 226L819 225L775 -3H541Q336 -3 250 115Q163 235 207 459L291 895Z" />
<glyph unicode="&#x26a;" glyph-name="uni026A" horiz-adv-x="1272" d="M848 895L718 225H1082L1038 0H16L60 225H424L554 895H190L234 1120H1256L1212 895H848Z" />
<glyph unicode="&#x26b;" glyph-name="uni026B" horiz-adv-x="1131" d="M1125 811L1080 578Q994 518 916 490Q839 463 761 463Q707 463 649 481L646 465Q620 333 649 278Q681 223 779 223H1013L969 -2H653Q443 -2 374 106Q303 214 352 465L374 582Q346 586 317
586Q239 586 164 557T2 465L46 694Q136 755 213 782Q292 809 374 809Q397 809 418 807L519 1329H223L267 1554H857L693 709Q759 686 821 686Q891 686 964 716Q1040 747 1125 811Z" />
<glyph unicode="&#x26c;" glyph-name="uni026C" horiz-adv-x="961" d="M324 816Q301 842 270 842Q211 842 203 792Q193 736 243 736H339Q339 799 324 816ZM603 579L582 467Q556 335 586 280T715 225H949L905 0H589Q380 0 310 108T289 467L310 578H187Q3 579 41
786Q84 1020 293 1019Q357 1018 388 977L456 1331H159L203 1556H793L634 736H903L873 580L603 579Z" />
<glyph unicode="&#x26d;" glyph-name="uni026D" horiz-adv-x="730" d="M62 23L317 1331H19L62 1556H652L354 23Q328 -109 360 -164Q389 -219 487 -219H721L678 -444H362Q154 -444 83 -336Q13 -228 62 23Z" />
<glyph unicode="&#x26e;" glyph-name="uni026E" horiz-adv-x="1088" d="M418 452L798 901H376L292 467Q266 335 286 280T380 225H556L512 0H275Q118 0 71 108T72 467L240 1331H18L61 1556H504L419 1120H1087L1043 891L661 436Q768 427 822 404Q899 371 936 258Q970
156 942 13Q899 -209 762 -324Q624 -440 404 -440Q327 -440 252 -422Q178 -403 108 -366L166 -69Q227 -122 295 -150T431 -178Q535 -178 600 -125T684 27Q704 129 658 182Q612 234 502 234H376L418 452Z" />
<glyph unicode="&#x26f;" glyph-name="uni026F" horiz-adv-x="1291" d="M473 112Q426 41 369 7T237 -27Q92 -27 56 73Q19 173 81 489L203 1120H443L304 401Q279 276 290 234T351 192T429 235T482 401L621 1120H858L719 401Q695 278 706 235T768 192T845 234T897
401L1036 1120H1276L1059 0H846L868 116Q830 50 768 12Q706 -27 638 -27T521 14Q473 54 473 112Z" />
<glyph unicode="&#x270;" glyph-name="uni0270" horiz-adv-x="1273" d="M457 112Q411 41 353 7T221 -27Q76 -27 41 73Q4 173 66 489L188 1120H428L288 401Q264 276 275 234T336 192T414 235T466 401L606 1120H843L703 401Q680 278 691 235T753 192T830 234T881
401L1021 1120H1261L961 -426H748L853 116Q815 50 753 12Q690 -27 622 -27T506 14Q458 54 457 112Z" />
<glyph unicode="&#x271;" glyph-name="uni0271" horiz-adv-x="1275" d="M809 1008Q856 1078 913 1113Q970 1147 1045 1147Q1191 1147 1226 1047Q1262 947 1201 631L1078 0Q1031 -218 941 -318Q847 -426 672 -426H573L617 -201H649Q731 -201 776 -146Q820 -91 846
41L978 719Q1002 845 991 886Q980 928 930 928Q880 928 852 885Q823 840 800 719L660 0H423L563 719Q586 840 575 885Q564 928 513 928Q464 928 436 886Q409 845 385 719L245 0H5L223 1120H436L413 1004Q452 1072 513 1108Q576 1147 644 1147Q712 1147 760 1106T809
1008Z" />
<glyph unicode="&#x272;" glyph-name="uni0272" horiz-adv-x="1373" d="M1327 682L1194 0H897L919 111L999 522Q1027 667 1033 722Q1038 777 1030 803Q1019 838 993 858Q967 877 929 877Q837 877 767 790Q697 704 668 551L607 240L564 20L560 0Q521 -203 408 -324Q296
-442 126 -442H4L49 -207H77Q159 -207 201 -161T269 20L312 240L483 1120H778L746 956Q832 1054 916 1100Q1000 1147 1091 1147Q1251 1147 1311 1028T1327 682Z" />
<glyph unicode="&#x273;" glyph-name="uni0273" horiz-adv-x="1128" d="M770 722Q779 767 767 803T730 858Q705 877 666 877Q581 877 504 790Q436 715 405 551L297 0H2L220 1120H515L483 956Q569 1054 653 1100Q738 1147 828 1147Q989 1147 1048 1028Q1108 908
1064 682L935 20Q909 -114 931 -161Q952 -207 1037 -207H1059L1014 -442H897Q728 -442 662 -324Q591 -196 629 0L770 722Z" />
<glyph unicode="&#x274;" glyph-name="uni0274" horiz-adv-x="1243" d="M234 1120H621L771 469L898 1120H1227L1009 0H622L472 651L345 0H16L234 1120Z" />
<glyph unicode="&#x275;" glyph-name="uni0275" horiz-adv-x="1165" d="M287 988Q459 1147 696 1147Q934 1147 1043 988Q1154 830 1101 559T877 130Q706 -29 468 -29Q231 -29 121 130Q11 288 64 559T287 988ZM650 909Q545 909 467 816Q407 745 374 632H782H819Q830
745 798 816Q756 909 650 909ZM775 438H386H343Q342 357 367 302Q409 209 514 209Q620 209 698 302Q745 357 775 438Z" />
<glyph unicode="&#x276;" glyph-name="uni0276" horiz-adv-x="1262" d="M680 902H605Q488 902 414 817T305 561Q272 389 313 304Q355 218 472 218H547L680 902ZM675 1120H1246L1204 902H923L882 693H1144L1102 475H840L790 218H1083L1040 0H457Q451 0 439 -1T421
-2Q197 -2 106 144T66 561Q119 831 267 976T639 1121Q644 1121 657 1120Q669 1120 675 1120Z" />
<glyph unicode="&#x277;" glyph-name="uni0277" horiz-adv-x="1188" d="M803 566Q871 919 676 920Q479 920 409 564Q378 404 379 334T401 264Q432 264 457 342Q475 399 493 490L514 596H711L690 488Q671 392 669 347Q666 264 690 264Q714 263 741 343Q782 461
803 566ZM1150 828Q1171 725 1127 496Q1080 255 978 128Q875 0 742 0Q653 0 598 68Q546 132 553 288Q499 137 421 68Q344 0 251 0Q118 0 66 128Q12 254 58 496Q99 709 166 828Q359 1176 725 1176Q1081 1176 1150 828Z" />
<glyph unicode="&#x278;" glyph-name="uni0278" horiz-adv-x="1314" d="M306 988Q443 1102 622 1134L661 1335H364L408 1560H705H998H1295L1251 1335H954L915 1134Q1082 1102 1175 988Q1306 830 1254 559T1008 130Q871 16 692 -16L656 -201H953L909 -426H612H319H22L66
-201H363L399 -16Q232 16 139 130Q8 288 60 559T306 988ZM450 246L571 872Q532 850 497 816Q404 724 372 559T397 302Q419 268 450 246ZM864 871L743 247Q782 268 817 302Q910 394 942 559T916 816Q895 850 864 871Z" />
<glyph unicode="&#x279;" glyph-name="uni0279" horiz-adv-x="1084" d="M54 309Q93 265 154 243T291 221Q385 221 460 254Q535 286 585 348Q617 386 637 440T679 604L779 1120H1071L854 0H562L596 174Q533 78 435 26Q335 -27 217 -27Q157 -27 101 -12Q46 2 0 30L54 309Z" />
<glyph unicode="&#x27a;" glyph-name="uni027A" horiz-adv-x="1167" d="M55 309Q94 265 155 243T292 221Q386 221 461 254Q536 286 586 348Q616 383 638 440Q657 487 680 604L865 1554H1157L855 0H563L596 174Q534 78 436 26Q335 -27 217 -27Q157 -27 102 -12Q47
2 0 30L55 309Z" />
<glyph unicode="&#x27b;" glyph-name="uni027B" horiz-adv-x="1095" d="M55 309Q94 265 155 243Q215 221 292 221Q385 221 461 254Q536 286 586 348Q618 386 637 440Q658 494 679 604L779 1120H1072L854 0Q836 -92 865 -146Q895 -201 995 -201H1034L991 -426H870Q660
-426 591 -318Q526 -220 562 0V0L570 41L595 174Q534 78 435 26Q335 -27 216 -27Q156 -27 101 -12Q47 2 0 30L55 309Z" />
<glyph unicode="&#x27c;" glyph-name="uni027C" horiz-adv-x="1165" d="M1111 811Q1071 855 1012 877T874 899Q782 899 705 866Q629 834 579 772Q548 734 529 680T487 516L304 -426H10L311 1120H605L571 946Q631 1042 732 1094Q830 1147 950 1147Q1010 1147 1064
1132Q1118 1118 1165 1090L1111 811Z" />
<glyph unicode="&#x27d;" glyph-name="uni027D" horiz-adv-x="1124" d="M1070 811Q1030 855 971 877T833 899Q741 899 664 866Q588 834 538 772Q507 734 488 680T446 516L354 41Q328 -91 358 -146Q388 -201 491 -201H529L485 -426H365Q155 -426 86 -318Q12 -206
60 41L270 1120H564L530 946Q590 1042 691 1094Q789 1147 909 1147Q969 1147 1023 1132Q1077 1118 1124 1090L1070 811Z" />
<glyph unicode="&#x27e;" glyph-name="uni027E" horiz-adv-x="1196" d="M1 0L45 225H331L431 741Q474 959 577 1040Q683 1120 935 1120H1181L1137 895H911Q827 895 784 862Q740 830 726 755L623 225H1007L963 0H1Z" />
<glyph unicode="&#x27f;" glyph-name="uni027F" horiz-adv-x="1030" d="M13 0L57 225H439L542 755Q556 830 527 862Q497 895 411 895H187L231 1120H477Q729 1120 801 1040Q876 959 833 741L733 225H1019L975 0H13Z" />
<glyph unicode="&#x280;" glyph-name="uni0280" horiz-adv-x="1096" d="M717 529Q757 521 783 498Q831 453 847 427Q855 415 860 403L1038 0H686L571 283Q565 295 558 316Q522 403 488 426Q464 442 428 442H410L324 0H14L232 1120H596Q869 1120 973 1043Q1078
967 1044 794Q1022 678 937 610Q854 543 717 529ZM498 894L450 648H512Q599 648 646 676L659 684Q716 724 728 782Q735 819 709 844Q703 850 693 858Q656 890 591 893Q577 894 560 894H498Z" />
<glyph unicode="&#x281;" glyph-name="uni0281" horiz-adv-x="1342" d="M549 490H470L418 219H497Q588 219 633 249Q679 281 693 353Q707 426 673 458Q640 490 549 490ZM513 711H550Q625 711 676 742Q725 771 776 842L975 1120H1338L1109 802Q1039 705 980 658Q921
610 855 596Q964 563 1007 492Q1050 420 1028 309Q997 149 873 74Q748 0 512 0H17L235 1120H593L513 711Z" />
<glyph unicode="&#x282;" glyph-name="uni0282" horiz-adv-x="1065" d="M1062 1085L1012 829Q941 881 859 908Q776 934 688 934Q590 934 535 906Q479 877 469 821Q453 741 657 691L668 688L748 668Q900 630 959 546Q1017 461 989 317Q955 144 824 58Q694 -29 466
-29Q403 -29 339 -22Q331 -105 354 -146Q384 -201 484 -201H523L479 -426H358Q148 -426 79 -318Q9 -211 58 41L108 297Q194 242 288 213Q384 184 478 184Q581 184 639 214T709 301Q720 357 688 387Q657 417 523 451L445 469Q284 507 223 588T188 805Q220 967 354
1057T701 1147Q796 1147 887 1132Q979 1116 1062 1085Z" />
<glyph unicode="&#x283;" glyph-name="uni0283" horiz-adv-x="1435" d="M789 0Q741 -217 638 -316Q525 -424 316 -424H0L43 -199H277Q376 -199 427 -144Q479 -88 504 43L729 1198Q768 1400 867 1478T1194 1556H1435L1392 1331H1163Q1096 1331 1069 1307Q1040 1282
1026 1218L789 0Z" />
<glyph unicode="&#x284;" glyph-name="uni0284" horiz-adv-x="1435" d="M874 438L789 0H788Q739 -218 637 -316Q526 -424 316 -424H0L43 -199H277Q375 -199 427 -144T504 43L581 438H302L340 632H619L670 895H373L417 1120H714L729 1198Q768 1400 867 1478T1194
1556H1435L1392 1331H1163Q1097 1331 1069 1307T1026 1218L912 632H1114L1076 438H874Z" />
<glyph unicode="&#x285;" glyph-name="uni0285" horiz-adv-x="769" d="M95 0L332 1218Q343 1282 323 1307Q305 1331 239 1331H10L53 1556H294Q522 1556 591 1478T621 1198L396 43Q371 -88 401 -144Q430 -199 529 -199H763L720 -424H404Q194 -424 124 -316Q59 -217 95 0Z" />
<glyph unicode="&#x286;" glyph-name="uni0286" horiz-adv-x="1469" d="M851 145H990H1158L1117 -65Q1061 -66 945 -66H808Q764 -227 672 -316Q559 -424 350 -424H300V-423Q0 -413 59 -131Q116 145 423 145H558L763 1198Q802 1400 901 1478T1228 1556H1469L1426
1331H1197Q1133 1331 1103 1307Q1072 1282 1060 1218L851 145ZM508 -65Q455 -65 383 -65Q278 -65 263 -141Q252 -194 314 -199Q411 -198 461 -144Q488 -115 508 -65ZM314 -199H343H314Z" />
<glyph unicode="&#x287;" glyph-name="uni0287" horiz-adv-x="1011" d="M322 -318L384 0H2L46 225H428L531 755Q545 830 516 862Q486 895 400 895H176L220 1120H466Q718 1120 790 1040Q864 959 822 741L722 225H1008L964 0H678L616 -318H322Z" />
<glyph unicode="&#x288;" glyph-name="uni0288" horiz-adv-x="1010" d="M688 1438L626 1120H1010L967 895H583L397 -61Q382 -136 413 -168Q444 -201 528 -201H754L710 -426H464Q212 -426 137 -346Q65 -265 108 -47L291 895H5L48 1120H334L396 1438H688Z" />
<glyph unicode="&#x289;" glyph-name="uni0289" horiz-adv-x="1147" d="M999 438L914 0H620L652 166Q604 73 519 22T330 -29Q170 -29 109 77T88 391L97 438H15L53 632H135L230 1120H524L429 632H743L838 1120H1132L1037 632H1109L1071 438H999ZM704 438H391V436Q367
315 391 263T493 211Q573 211 631 281Q679 340 704 438Z" />
<glyph unicode="&#x28a;" glyph-name="uni028A" horiz-adv-x="1253" d="M592 837Q513 761 467 680Q402 565 381 458Q354 316 394 228Q434 141 528 141Q623 141 696 228Q770 316 797 458Q818 565 797 680Q783 764 733 836L788 1120H1245L1207 923H1001Q1065 864
1108 731Q1143 623 1113 465Q1063 211 887 54Q710 -104 478 -104Q247 -104 132 53T64 457Q96 619 171 731Q258 858 350 923H144L182 1120H647L592 837Z" />
<glyph unicode="&#x28b;" glyph-name="uni028B" horiz-adv-x="1065" d="M938 1027Q992 968 1025 835Q1052 727 1021 569Q972 315 816 158Q660 0 462 0L351 -2Q186 -5 119 116Q52 236 96 460L157 774L180 895H19L63 1120H224H517L450 774L389 460Q356 291 362 279Q385
227 423 231L441 233Q537 233 623 330Q702 418 729 560Q750 667 725 782Q709 866 655 938L688 1120Q859 1115 938 1027Z" />
<glyph unicode="&#x28c;" glyph-name="uni028C" horiz-adv-x="1094" d="M1 0L575 1120H936L1074 0H777L708 874L298 0H1Z" />
<glyph unicode="&#x28d;" glyph-name="uni028D" horiz-adv-x="1280" d="M1240 0H995L1012 772L729 0H518L535 764L252 0H7L433 1120H709L692 350L974 1120H1250L1240 0Z" />
<glyph unicode="&#x28e;" glyph-name="uni028E" horiz-adv-x="1362" d="M706 1241Q796 1399 892 1472Q989 1544 1107 1544H1349L1306 1321H1187Q1097 1321 1049 1290Q1001 1260 936 1149L903 1089L1117 0H809L694 727L308 0H0L706 1241Z" />
<glyph unicode="&#x28f;" glyph-name="uni028F" horiz-adv-x="1109" d="M12 1120H347L493 775L772 1120H1109L573 472L481 0H204L296 472L12 1120Z" />
<glyph unicode="&#x290;" glyph-name="uni0290" horiz-adv-x="1161" d="M241 1120H1137L1093 891L372 219H962L928 41Q902 -91 931 -146Q962 -201 1062 -201H1100L1057 -426H937Q727 -426 658 -318Q592 -220 628 0H0L44 229L765 901H199L241 1120Z" />
<glyph unicode="&#x291;" glyph-name="uni0291" horiz-adv-x="1156" d="M781 220H820Q858 220 872 277Q891 348 859 352Q814 358 781 220ZM248 1120H1143L1098 891L379 219H596Q642 337 709 428Q836 599 913 599Q1115 599 1066 323Q1007 0 764 0H732Q723 -48 713
-112L510 -111Q521 -56 535 0H6L51 229L771 901H205L248 1120Z" />
<glyph unicode="&#x292;" glyph-name="uni0292" horiz-adv-x="1227" d="M367 452L844 901H278L321 1120H1216L1171 891L692 436Q835 427 908 404Q1015 371 1070 258Q1121 156 1093 13Q1050 -209 875 -324Q699 -440 405 -440Q302 -440 202 -422Q102 -403 7 -366L64
-69Q151 -123 242 -150Q332 -178 425 -178Q563 -178 646 -125T749 27Q769 129 704 182Q639 234 492 234H324L367 452Z" />
<glyph unicode="&#x293;" glyph-name="uni0293" horiz-adv-x="1258" d="M672 -125Q641 -60 455 -51Q307 -45 290 -130Q279 -182 418 -183Q430 -183 443 -183Q542 -181 598 -162Q640 -148 672 -125ZM397 452L874 901H308L351 1120H1246L1201 891L721 436Q865 427
937 404Q1044 371 1100 258Q1150 156 1122 13Q1079 -209 904 -324Q913 -370 905 -410L734 -416L736 -404L729 -405Q574 -440 411 -440L414 -438H412Q5 -417 66 -116Q123 159 495 159Q675 159 784 68Q785 140 734 182Q669 234 522 234H354L397 452Z" />
<glyph unicode="&#x294;" glyph-name="uni0294" horiz-adv-x="976" d="M161 736H245Q440 736 540 850Q606 926 620 997Q637 1093 599 1159Q532 1273 371 1273Q299 1273 223 1251Q149 1230 71 1187L129 1485Q203 1520 280 1537Q356 1555 519 1555Q735 1556 883
1345Q976 1212 935 997Q890 766 722 621Q612 527 436 496L340 0H18L161 736Z" />
<glyph unicode="&#x295;" glyph-name="uni0295" horiz-adv-x="1048" d="M722 736L579 0H257L353 496Q189 527 117 621Q5 766 50 997Q91 1212 236 1345Q466 1556 682 1555Q845 1555 915 1537Q984 1520 1046 1485L988 1187Q926 1230 860 1251Q792 1273 720 1273Q559
1273 448 1159Q384 1093 365 997Q351 926 387 850Q443 736 638 736H722Z" />
<glyph unicode="&#x296;" glyph-name="uni0296" horiz-adv-x="1048" d="M326 819L469 1555H791L695 1059Q859 1028 931 934Q1043 789 998 558Q957 343 812 210Q582 -1 366 0Q203 0 133 18Q64 35 2 70L60 368Q122 325 188 304Q256 282 328 282Q489 282 600 396Q664
462 683 558Q697 629 661 705Q605 819 410 819H326Z" />
<glyph unicode="&#x297;" glyph-name="uni0297" horiz-adv-x="1221" d="M365 132Q347 36 385 -30Q452 -144 613 -144Q685 -144 762 -122Q836 -101 914 -58L856 -356Q781 -391 705 -408Q628 -426 465 -426Q249 -427 101 -216Q8 -83 50 132L218 997Q260 1212 405
1345Q635 1556 851 1555Q1014 1555 1083 1537Q1153 1520 1214 1485L1156 1187Q1094 1230 1028 1251Q961 1273 889 1273Q728 1273 617 1159Q552 1092 533 997L365 132Z" />
<glyph unicode="&#x298;" glyph-name="uni0298" horiz-adv-x="1243" d="M331 566Q305 432 373 338Q440 244 561 244Q681 244 784 338T914 566Q939 697 872 794T687 891Q566 891 462 794Q356 697 331 566ZM61 565Q110 818 312 1005Q513 1192 746 1192Q974 1192
1104 1005Q1233 818 1184 565Q1133 306 935 125Q737 -57 504 -57T141 125Q10 306 61 565ZM505 567Q515 620 558 659Q599 698 648 698Q708 698 724 659Q749 612 740 567Q729 513 688 475T598 437T522 475Q494 513 505 567Z" />
<glyph unicode="&#x299;" glyph-name="uni0299" horiz-adv-x="1166" d="M635 698Q707 698 751 722Q794 746 804 796Q813 844 780 870Q747 895 673 895H517L479 698H635ZM561 262Q655 262 707 287Q759 313 769 364T737 440T601 465H434L394 262H561ZM917 599Q1011
572 1052 500Q1093 427 1073 321Q1041 159 908 80Q774 0 532 0H15L233 1120H701Q953 1120 1052 1049Q1151 979 1121 824Q1105 742 1053 684Q1000 627 917 599Z" />
<glyph unicode="&#x29a;" glyph-name="uni029A" horiz-adv-x="1184" d="M499 188Q764 188 836 551Q907 915 609 915Q539 915 493 887Q433 850 421 787Q407 715 459 683Q492 661 566 661H698L656 442H523Q459 442 412 419Q343 385 328 311Q318 256 370 221Q420
187 499 188ZM704 4Q606 -41 408 -42Q200 -42 105 44Q12 131 41 279Q60 377 133 453Q203 525 343 551Q217 577 171 650Q127 721 147 824Q176 972 302 1058Q428 1144 638 1145Q837 1146 914 1085Q1175 883 1111 551Q1034 155 704 4Z" />
<glyph unicode="&#x29b;" glyph-name="uni029B" horiz-adv-x="1360" d="M889 101Q785 51 680 25Q575 0 468 0Q226 0 114 151Q1 301 52 559Q102 820 275 970Q448 1119 698 1119Q729 1119 759 1117Q809 1346 914 1447Q1025 1555 1235 1555H1356L1312 1330H1273Q1173
1330 1122 1275T1044 1088L989 803Q917 852 842 876T687 900Q538 900 440 811Q341 723 310 559Q278 397 338 308T542 219Q581 219 616 225Q651 230 679 241L710 409H462L505 630H991L889 101Z" />
<glyph unicode="&#x29c;" glyph-name="uni029C" horiz-adv-x="1243" d="M234 1120H560L481 715H822L901 1120H1227L1009 0H683L773 463H432L342 0H16L234 1120Z" />
<glyph unicode="&#x29d;" glyph-name="uni029D" horiz-adv-x="1293" d="M1220 1323H927L993 1665H1286L1220 1323ZM990 144H1158L1118 -66Q1061 -67 945 -67H944Q896 -233 810 -316Q699 -423 489 -424L300 -425V-424Q0 -414 59 -132Q116 144 423 144H696H697L843
895H546L590 1120H1180L990 144ZM647 -67Q626 -66 384 -66Q279 -66 263 -142Q250 -206 344 -200L451 -199Q549 -198 600 -144Q627 -116 647 -67Z" />
<glyph unicode="&#x29e;" glyph-name="uni029E" horiz-adv-x="1228" d="M917 -426H625L782 381L356 0H0L505 418L193 1120H517L723 596L842 692L925 1120H1217L917 -426Z" />
<glyph unicode="&#x29f;" glyph-name="uni029F" horiz-adv-x="835" d="M230 1120H554L392 291H831L774 0H11L230 1120Z" />
<glyph unicode="&#x2a0;" glyph-name="uni02A0" horiz-adv-x="1283" d="M600 158Q541 67 472 18Q406 -29 334 -29Q145 -29 73 123T56 559Q110 839 240 993T553 1147Q635 1147 686 1098Q735 1049 754 952L781 1088H779Q827 1338 922 1447Q1015 1555 1183 1555H1280L1236
1330H1215Q1161 1330 1128 1275Q1095 1221 1076 1120L775 -426H486L600 158ZM346 307Q371 215 447 215T585 307T678 561T684 815T582 907T445 815Q383 723 352 561T346 307Z" />
<glyph unicode="&#x2a1;" glyph-name="uni02A1" horiz-adv-x="1147" d="M329 736H413Q608 736 708 850Q774 926 788 997Q806 1093 767 1159Q700 1273 539 1273Q467 1273 391 1251Q317 1230 239 1187L297 1485Q371 1520 448 1537Q524 1555 687 1555Q904 1555 1051
1345Q1144 1212 1103 997Q1058 766 890 621Q780 527 604 496L583 384H615H816L778 190H545L508 0H186L223 190H219H5L43 384H261L329 736Z" />
<glyph unicode="&#x2a2;" glyph-name="uni02A2" horiz-adv-x="1055" d="M336 384L357 496Q193 527 121 621Q9 766 54 997Q95 1212 240 1345Q469 1555 686 1555Q849 1555 919 1537Q988 1520 1050 1485L992 1187Q930 1230 864 1251Q796 1273 724 1273Q564 1273 452
1159Q387 1093 369 997Q355 926 391 850Q447 736 642 736H726L658 384H876L838 190H624H620L583 0H261L298 190H65L103 384H304H336Z" />
<glyph unicode="&#x2a3;" glyph-name="uni02A3" horiz-adv-x="1303" d="M218 303Q234 211 291 211T398 303T480 557T497 811T425 903T317 811Q267 719 236 557T218 303ZM559 961L675 1556H850L765 1120H1300L1256 891L772 219H1125L1083 0H548H532H373L405 166Q357
69 303 20Q249 -29 188 -29Q73 -29 40 125Q6 279 60 559Q115 843 210 995Q304 1147 423 1147Q477 1147 510 1100Q544 1054 559 961ZM723 901L598 259L1061 901H723Z" />
<glyph unicode="&#x2a4;" glyph-name="uni02A4" horiz-adv-x="1301" d="M735 444L1057 893H719L544 -8H369L401 158Q354 61 300 12T185 -37Q70 -37 36 117T56 551Q111 835 206 987Q299 1139 419 1139Q473 1139 507 1092Q541 1046 555 953L671 1548H846L761 1112H1296L1252
883L928 428Q1015 419 1056 396Q1118 363 1142 250Q1165 148 1137 5Q1094 -217 980 -332Q865 -448 689 -448Q627 -448 569 -430Q509 -411 455 -374L513 -77Q562 -131 613 -158Q666 -186 721 -186Q804 -186 858 -133T932 19Q952 121 917 174Q882 226 794 226H693L735
444ZM215 295Q230 203 287 203T394 295T476 549T493 803T421 895T314 803Q263 711 232 549T215 295Z" />
<glyph unicode="&#x2a5;" glyph-name="uni02A5" horiz-adv-x="1306" d="M1012 220H1035Q1057 220 1071 277Q1088 348 1069 352Q1042 358 1012 220ZM218 303Q232 211 289 211T396 303T478 557T495 811T423 903T316 811Q265 719 234 557T218 303ZM557 961L673 1556H848L763
1120H1299L1255 891L770 219H901Q937 337 985 428Q1074 599 1121 599Q1242 599 1190 323Q1130 0 985 0H966Q956 -48 946 -112L824 -111Q835 -56 848 0H546H530H371L403 166Q356 69 302 20Q248 -29 187 -29Q72 -29 38 125Q5 279 59 559Q115 843 208 995Q303 1147
422 1147Q476 1147 509 1100Q544 1054 557 961ZM721 901L596 259L1059 901H721Z" />
<glyph unicode="&#x2a6;" glyph-name="uni02A6" horiz-adv-x="1109" d="M1106 1085L1056 829Q1017 881 971 908Q923 934 870 934Q811 934 775 906Q740 877 729 821Q715 749 832 691L839 688L885 668Q974 629 1002 546Q1030 461 1002 317Q968 144 883 58Q798 -29
661 -29Q601 -29 541 -12Q481 6 424 40L416 0H268Q117 0 80 80Q41 161 84 379L184 895H13L57 1120H228L290 1438H466L404 1120H634L597 931Q629 1006 679 1057Q767 1147 894 1147Q951 1147 1005 1132Q1058 1116 1106 1085ZM458 225L472 297Q519 242 574 213Q629
184 685 184Q747 184 784 214T834 301Q844 357 827 387Q809 421 733 451L688 469Q594 506 563 588Q533 669 560 805Q569 853 583 895H360L257 365Q242 290 258 258Q274 225 325 225H458Z" />
<glyph unicode="&#x2a7;" glyph-name="uni02A7" horiz-adv-x="1097" d="M463 1438L401 1120H631L646 1198Q685 1400 750 1478Q816 1556 953 1556H1097L1054 1331H917Q877 1331 858 1307T826 1218L807 1120L763 895L597 43L589 0Q542 -218 474 -316Q398 -424 272
-424H83L126 -199H266Q325 -199 360 -144Q390 -98 412 0H265Q114 0 77 80Q38 161 81 379L181 895H10L54 1120H225L287 1438H463ZM457 225L587 895H357L254 365Q239 290 255 258Q271 225 322 225H457Z" />
<glyph unicode="&#x2a8;" glyph-name="uni02A8" horiz-adv-x="1105" d="M464 1438L403 1120H633L593 916Q616 957 643 992Q762 1149 917 1149Q971 1149 1017 1128Q1063 1107 1104 1063L1052 795Q1025 850 984 880Q944 909 895 909Q809 909 745 818T649 559Q619
405 634 334L639 351Q736 532 837 532Q1008 527 964 294Q904 -29 716 -29Q654 -29 652 -28Q651 -28 649 -27L627 -141L507 -140Q525 -47 539 24Q498 62 474 127Q462 162 454 202L415 0H267Q116 0 77 80Q40 161 83 379L183 895H11L55 1120H227L288 1438H464ZM707
232Q737 208 769 207H772Q860 207 870 264Q884 339 806 339Q756 339 707 232ZM582 895H359L256 365Q241 290 257 258Q273 225 324 225H451Q432 361 471 559Q509 758 582 895Z" />
<glyph unicode="&#x2a9;" glyph-name="uni02A9" horiz-adv-x="1112" d="M416 1218L397 1120H604H778L745 952Q782 1045 837 1096T955 1147Q1051 1147 1079 1042Q1107 935 1066 727L933 43Q884 -209 809 -316Q734 -424 608 -424H536L579 -199H602Q662 -199 698
-144Q733 -89 758 43L883 682Q906 804 896 856Q886 909 839 909T750 838Q709 767 685 641L560 0H386L560 895H353L179 0H3L177 895H14L58 1120H221L236 1198Q275 1400 341 1478Q406 1556 543 1556H688L645 1331H507Q467 1331 448 1307T416 1218Z" />
<glyph unicode="&#x2aa;" glyph-name="uni02AA" horiz-adv-x="1094" d="M1093 1085L1044 829Q1006 881 958 908Q911 934 858 934Q799 934 764 906Q728 877 717 821Q703 749 820 691L826 688L872 668Q961 629 990 546Q1018 461 990 317Q957 144 872 58Q787 -29
650 -29Q589 -29 529 -12Q469 6 411 41L403 0H213Q88 0 54 108T68 467L236 1331H58L102 1556H456L244 467Q219 335 233 280Q246 225 305 225H446L460 297Q508 242 562 213T673 184Q735 184 772 214Q810 244 821 301Q832 357 816 387Q796 421 721 451L676 469Q583
506 552 588Q522 669 548 805Q580 967 667 1057T882 1147Q939 1147 993 1132Q1047 1116 1093 1085Z" />
<glyph unicode="&#x2ab;" glyph-name="uni02AB" horiz-adv-x="1158" d="M71 467L238 1331H60L104 1556H458L247 467Q221 335 235 280Q248 225 307 225H435L919 896H579L621 1115H1158L1114 886L630 214H983L941 -5H389L390 0H215Q90 0 56 108T71 467Z" />
<glyph unicode="&#x2ac;" glyph-name="uni02AC" horiz-adv-x="1279" d="M19 627H242L278 195L483 627H674L712 199L916 627H1138L828 0H577L540 431L336 0H86L19 627ZM153 1312H376L412 880L617 1312H808L845 884L1050 1312H1272L962 685H711L673 1116L470 685H220L153
1312Z" />
<glyph unicode="&#x2ad;" glyph-name="uni02AD" horiz-adv-x="903" d="M154 177H11L98 627H759L672 177H529L586 474H211L154 177ZM287 862H144L231 1312H892L805 862H662L720 1159H345L287 862Z" />
<glyph unicode="&#x2ae;" glyph-name="uni02AE" horiz-adv-x="1091" d="M479 1118H481L348 436Q325 315 349 263Q373 211 450 211Q530 211 590 282Q648 353 672 477L797 1118H1089L786 -438H494L612 166Q563 73 478 22Q394 -29 288 -29Q127 -29 68 76Q7 182 47
391L183 1088Q208 1217 177 1275Q146 1330 46 1330H8L52 1555H172Q382 1555 451 1447Q517 1348 479 1118Z" />
<glyph unicode="&#x2af;" glyph-name="uni02AF" horiz-adv-x="905" d="M417 1118H419L286 436Q263 315 280 263T360 211Q424 211 474 282Q524 352 548 477L673 1118H902L692 41Q667 -91 689 -146T791 -201H822L778 -426H681Q518 -426 465 -318Q414 -211 463 41L488
166Q444 73 375 22T220 -29Q93 -29 48 76Q5 182 45 391L181 1088Q206 1217 182 1275Q160 1330 80 1330H49L93 1555H190Q358 1555 409 1447Q458 1346 417 1118Z" />
<glyph unicode="&#x2b0;" glyph-name="uni02B0" horiz-adv-x="694" d="M665 1075L586 668H400L475 1050Q488 1118 472 1147T405 1176Q354 1176 317 1137Q281 1097 267 1027L197 668H11L181 1540H367L301 1201Q331 1254 385 1282Q438 1311 506 1311Q607 1311 648
1252Q688 1192 665 1075Z" />
<glyph unicode="&#x2b1;" glyph-name="uni02B1" horiz-adv-x="697" d="M664 1075L585 668H399L474 1050Q487 1118 471 1147T404 1176Q353 1176 317 1137Q280 1097 266 1027L196 668H10L129 1277Q156 1418 227 1478Q296 1539 431 1539H508L483 1413H458Q394 1413
362 1382T316 1277L300 1201Q330 1253 384 1282Q437 1310 505 1310Q606 1310 646 1251T664 1075Z" />
<glyph unicode="&#x2b2;" glyph-name="uni02B2" horiz-adv-x="686" d="M504 623Q477 482 407 422T202 362H0L25 488H175Q238 488 270 518Q302 549 316 623L409 1100H219L243 1226H621L504 623ZM643 1340H455L493 1531H681L643 1340Z" />
<glyph unicode="&#x2b3;" glyph-name="uni02B3" horiz-adv-x="684" d="M654 1122Q628 1147 589 1159Q549 1172 500 1172Q438 1172 393 1154Q342 1134 314 1101Q294 1079 283 1049T259 957L203 668H15L137 1296H325L306 1198Q343 1252 406 1281Q468 1311 544 1311Q588
1311 619 1303Q653 1294 684 1279L654 1122Z" />
<glyph unicode="&#x2b4;" glyph-name="uni02B4" horiz-adv-x="683" d="M30 842Q56 817 95 805Q135 792 184 792Q246 792 291 810Q342 830 370 863Q390 885 401 915T425 1007L481 1296H669L547 668H359L378 766Q341 712 278 683Q216 653 140 653Q96 653 65 661Q31
670 0 685L30 842Z" />
<glyph unicode="&#x2b5;" glyph-name="uni02B5" horiz-adv-x="696" d="M31 841Q57 816 96 804Q134 791 184 791Q243 791 292 810Q339 828 371 863Q390 884 402 914T426 1006L482 1295H670L548 668H547Q539 612 557 586Q577 555 641 555H666L642 429H564Q430 429
384 490Q341 545 360 668L365 691L379 765Q342 711 279 682T139 653Q101 653 66 661T0 684L31 841Z" />
<glyph unicode="&#x2b6;" glyph-name="uni02B6" horiz-adv-x="851" d="M351 943H301L272 791H322Q380 791 408 808Q438 826 445 866Q453 907 431 925Q409 943 351 943ZM326 1067H349Q397 1067 429 1084Q459 1099 491 1140L614 1296H846L705 1118Q662 1063 625
1037Q587 1010 546 1002Q615 984 645 944Q673 904 661 841Q643 752 565 710Q486 668 335 668H19L141 1296H370L326 1067Z" />
<glyph unicode="&#x2b7;" glyph-name="uni02B7" horiz-adv-x="826" d="M30 1296H186L178 815L317 1132H468L483 815L663 1296H819L567 668H389L365 994L216 668H38L30 1296Z" />
<glyph unicode="&#x2b8;" glyph-name="uni02B8" horiz-adv-x="853" d="M420 601Q365 512 305 472Q244 432 168 432H14L38 557H114Q171 557 201 574T272 653L292 686L138 1296H335L420 889L656 1296H853L420 601Z" />
</font>
</defs>
</svg>
