<?xml version="1.0" standalone="no"?> <!DOCTYPE svg PUBLIC "-//W3C//DTD SVG 1.0//EN" "http://www.w3.org/TR/2001/REC-SVG-20010904/DTD/svg10.dtd" > <svg xmlns="http://www.w3.org/2000/svg" width="100%" height="100%">
<defs >
<font horiz-adv-x="1292" ><font-face
    font-family="DejaVu Sans"
    units-per-em="2048"
    panose-1="2 11 6 3 3 3 4 11 2 4"
    ascent="1901"
    descent="-483"
    alphabetic="0" />
<missing-glyph horiz-adv-x="1092" d="M34 -362V1444H1058V-362H34ZM149 -248H944V1329H149V-248Z" />
<glyph unicode=" " glyph-name="space" horiz-adv-x="651" />
<glyph unicode="!" glyph-name="exclam" horiz-adv-x="493" d="M291 1493H493L366 838L276 481H114L164 838L291 1493ZM51 254H254L205 0H0L51 254Z" />
<glyph unicode="&quot;" glyph-name="quotedbl" horiz-adv-x="617" d="M204 1493V938H34V1493H204ZM582 1493V938H412V1493H582Z" />
<glyph unicode="#" glyph-name="numbersign" horiz-adv-x="1444" d="M756 1470L652 1055H944L1049 1470H1209L1106 1055H1442L1403 901H1067L985 567H1325L1289 414H946L842 0H682L785 414H492L389 0H228L332 414H2L39 567H369L453 901H117L156 1055H492L594 1470H756ZM906
901H615L531 567H824L906 901Z" />
<glyph unicode="$" glyph-name="dollar" horiz-adv-x="1100" d="M532 145Q671 151 752 215T833 383Q833 467 782 513T616 578L532 145ZM632 1180Q500 1166 425 1102T350 938Q350 868 397 829T553 770L632 1180ZM1099 1262L1065 1081Q979 1127 896 1152T733 1179L649
752Q833 723 929 637T1026 416Q1026 241 883 127T503 0L444 -301H344L403 0Q287 3 185 26T0 92L34 276Q126 214 226 180T432 142L520 598Q331 634 245 708T159 909Q159 1075 296 1190T659 1323L706 1556H806L762 1323Q852 1320 937 1305T1099 1262Z" />
<glyph unicode="%" glyph-name="percent" horiz-adv-x="1612" d="M314 707Q178 707 99 795T19 1036Q19 1252 135 1386T437 1520Q573 1520 652 1431T732 1188Q732 974 616 841T314 707ZM572 1182Q572 1287 533 1340T417 1393Q305 1393 242 1296T179 1026Q179 934
219 884T335 834Q442 834 507 929T572 1182ZM1432 446Q1432 553 1394 606T1279 659Q1168 659 1105 562T1041 291Q1041 198 1081 148T1197 98Q1304 98 1368 193T1432 446ZM1176 -29Q1040 -29 961 60T882 301Q882 517 997 650T1299 784Q1435 784 1513 696T1592 455Q1592
240 1477 106T1176 -29ZM1516 1520L282 -29H122L1357 1520H1516Z" />
<glyph unicode="&amp;" glyph-name="ampersand" horiz-adv-x="1429" d="M881 260L455 803Q334 715 272 616T209 414Q209 287 294 210T522 133Q616 133 707 165T881 260ZM1421 801Q1376 642 1303 510T1126 270L1335 0H1083L977 139Q871 56 749 14T494 -29Q273 -29
142 80T10 369Q10 523 102 660T377 913Q346 959 332 1006T317 1108Q317 1176 340 1237T406 1348Q475 1430 579 1475T803 1520Q881 1520 960 1502T1120 1448L1085 1266Q1010 1313 936 1337T791 1362Q667 1362 590 1298T512 1133Q512 1089 531 1046T619 915L1026
395Q1101 474 1154 576T1235 801H1421Z" />
<glyph unicode="&apos;" glyph-name="quotesingle" horiz-adv-x="241" d="M204 1493V938H34V1493H204Z" />
<glyph unicode="(" glyph-name="parenleft" horiz-adv-x="721" d="M721 1554Q456 1223 326 926T195 352Q195 194 233 39T347 -270H187Q95 -98 50 64T5 383Q5 680 142 971T558 1554H721Z" />
<glyph unicode=")" glyph-name="parenright" horiz-adv-x="722" d="M0 -270Q266 61 396 358T526 932Q526 1090 489 1245T375 1554H535Q627 1381 672 1220T717 903Q717 605 579 312T164 -270H0Z" />
<glyph unicode="*" glyph-name="asterisk" horiz-adv-x="904" d="M903 1247L544 1053L903 858L845 760L509 963V586H395V963L59 760L1 858L360 1053L1 1247L59 1346L395 1143V1520H509V1143L845 1346L903 1247Z" />
<glyph unicode="+" glyph-name="plus" horiz-adv-x="1282" d="M725 1284V727H1282V557H725V0H557V557H0V727H557V1284H725Z" />
<glyph unicode="," glyph-name="comma" horiz-adv-x="392" d="M180 254H391L358 82L131 -238H2L146 82L180 254Z" />
<glyph unicode="-" glyph-name="hyphen" horiz-adv-x="629" d="M62 643H601L570 479H29L62 643Z" />
<glyph unicode="." glyph-name="period" horiz-adv-x="294" d="M66 254H277L228 0H17L66 254Z" />
<glyph unicode="/" glyph-name="slash" horiz-adv-x="1024" d="M846 1493H1024L177 -190H0L846 1493Z" />
<glyph unicode="0" glyph-name="zero" horiz-adv-x="1129" d="M696 1520Q899 1520 1006 1385T1114 997Q1114 805 1064 616T922 276Q829 126 704 49T426 -29Q230 -29 123 107T16 494Q16 684 67 874T211 1214Q303 1364 426 1442T696 1520ZM684 1360Q608 1360 540
1320T416 1200Q324 1068 270 871T215 465Q215 300 273 216T446 131Q526 131 594 171T717 291Q808 422 861 619T915 1026Q915 1191 857 1275T684 1360Z" />
<glyph unicode="1" glyph-name="one" horiz-adv-x="911" d="M36 170H366L589 1319L216 1247L251 1421L622 1493H825L567 170H896L864 0H3L36 170Z" />
<glyph unicode="2" glyph-name="two" horiz-adv-x="1185" d="M944 721L299 168H1012L977 0H8L41 170L715 748Q850 865 906 953T963 1135Q963 1232 895 1293T717 1354Q622 1354 506 1320T258 1221L295 1421Q419 1470 532 1495T741 1520Q937 1520 1056 1416T1176
1143Q1176 1029 1119 926T944 721Z" />
<glyph unicode="3" glyph-name="three" horiz-adv-x="1188" d="M327 1456Q437 1488 540 1504T744 1520Q942 1520 1058 1432T1174 1196Q1174 1051 1083 947T830 805Q956 769 1015 693T1074 492Q1074 372 1017 267T851 86Q769 28 655 0T392 -29Q298 -29 202 -11T7
45L44 236Q138 184 233 159T429 133Q626 133 748 234T871 498Q871 602 793 658T570 715H396L427 879H611Q777 879 872 955T968 1161Q968 1255 898 1306T701 1358Q605 1358 505 1338T296 1276L327 1456Z" />
<glyph unicode="4" glyph-name="four" horiz-adv-x="1132" d="M844 1493H1098L907 520H1120L1087 352H874L807 0H606L674 352H0L39 547L844 1493ZM862 1317L196 520H706L862 1317Z" />
<glyph unicode="5" glyph-name="five" horiz-adv-x="1165" d="M1157 1493L1126 1325H508L436 956Q482 971 529 978T626 985Q833 985 953 874T1073 573Q1073 440 1012 318T837 104Q757 40 642 6T389 -29Q299 -29 205 -13T8 35L45 223Q137 178 229 156T416 133Q611
133 738 250T866 543Q866 673 783 745T549 817Q470 817 385 799T209 743L354 1493H1157Z" />
<glyph unicode="6" glyph-name="six" horiz-adv-x="1110" d="M825 553Q825 680 760 753T583 827Q428 827 323 708T217 412Q217 280 281 206T460 131Q616 131 720 253T825 553ZM1097 1458L1063 1274Q1005 1312 930 1332T770 1352Q563 1352 438 1222T250 815Q323
900 419 943T628 987Q811 987 919 882T1028 598Q1028 452 975 327T819 106Q749 41 656 6T458 -29Q252 -29 133 102T14 461Q14 673 68 869T221 1210Q324 1362 470 1441T794 1520Q872 1520 948 1505T1097 1458Z" />
<glyph unicode="7" glyph-name="seven" horiz-adv-x="1104" d="M82 1493H1104L1086 1407L232 0H10L817 1323H49L82 1493Z" />
<glyph unicode="8" glyph-name="eight" horiz-adv-x="1171" d="M854 453Q854 566 775 637T568 709Q412 709 311 616T209 379Q209 265 286 198T496 131Q653 131 753 222T854 453ZM957 1149Q957 1244 887 1302T701 1360Q564 1360 476 1283T387 1090Q387 990 456
929T641 868Q779 868 868 947T957 1149ZM820 786Q933 743 993 656T1053 446Q1053 239 893 105T480 -29Q265 -29 138 76T11 358Q11 518 120 642T404 801Q299 837 244 912T189 1096Q189 1277 339 1398T721 1520Q914 1520 1035 1422T1157 1171Q1157 1039 1067 936T820
786Z" />
<glyph unicode="9" glyph-name="nine" horiz-adv-x="1113" d="M13 33L50 217Q108 179 182 159T341 139Q548 139 674 270T863 678Q789 593 692 549T482 504Q300 504 193 609T85 893Q85 1039 138 1164T294 1384Q364 1450 456 1485T652 1520Q859 1520 979 1389T1099
1030Q1099 819 1044 622T890 281Q786 129 640 50T316 -29Q239 -29 163 -14T13 33ZM285 940Q285 813 351 739T529 664Q684 664 789 783T894 1079Q894 1211 829 1285T650 1360Q495 1360 390 1239T285 940Z" />
<glyph unicode=":" glyph-name="colon" horiz-adv-x="421" d="M209 1059H420L371 805H160L209 1059ZM52 254H263L213 0H2L52 254Z" />
<glyph unicode=";" glyph-name="semicolon" horiz-adv-x="545" d="M178 254H389L354 82L129 -238H0L143 82L178 254ZM334 1059H545L496 805H285L334 1059Z" />
<glyph unicode="&lt;" glyph-name="less" d="M1282 1008L250 641L1282 276V94L0 559V725L1282 1190V1008Z" />
<glyph unicode="=" glyph-name="equal" horiz-adv-x="1320" d="M34 930H1316V762H34V930ZM34 522H1316V352H34V522Z" />
<glyph unicode="&gt;" glyph-name="greater" horiz-adv-x="1316" d="M34 1008V1190L1316 725V559L34 94V276L1064 641L34 1008Z" />
<glyph unicode="?" glyph-name="question" horiz-adv-x="817" d="M280 254L231 0H28L77 254H280ZM59 1407Q161 1464 262 1492T470 1520Q631 1520 724 1445T817 1241Q817 1138 764 1048T589 860L485 776Q401 710 373 663T327 524L302 401H112L143 555Q161 649 200
714T350 872L456 961Q540 1031 574 1084T608 1194Q608 1270 554 1313T403 1356Q323 1356 225 1321T22 1219L59 1407Z" />
<glyph unicode="@" glyph-name="at" horiz-adv-x="1853" d="M1149 238Q1080 164 1000 126T832 88Q685 88 589 187T492 438Q492 658 640 822T988 987Q1080 987 1152 947T1264 836L1291 967H1434L1291 229Q1468 257 1582 409T1696 770Q1696 1003 1531 1150T1104
1298Q926 1298 760 1236T467 1059Q322 925 241 749T160 389Q160 128 334 -42T779 -213Q908 -213 1033 -170T1295 -33L1377 -147Q1242 -249 1086 -301T764 -354Q442 -354 229 -140T15 401Q15 626 119 836T412 1200Q551 1314 731 1377T1100 1440Q1421 1440 1631 1251T1842
778Q1842 483 1639 287T1119 84L1149 238ZM990 846Q849 846 751 735T652 467Q652 355 709 292T867 229Q1009 229 1105 343T1201 623Q1201 725 1144 785T990 846Z" />
<glyph unicode="A" glyph-name="A" horiz-adv-x="1385" d="M863 1493H1092L1369 0H1158L1096 383H424L213 0H0L863 1493ZM936 1294L517 551H1065L936 1294Z" />
<glyph unicode="B" glyph-name="B" horiz-adv-x="1255" d="M304 1493H820Q1030 1493 1134 1415T1238 1180Q1238 1036 1149 932T914 805Q1038 777 1100 698T1162 487Q1162 262 996 131T540 0H13L304 1493ZM353 713L247 166H572Q755 166 854 250T953 487Q953 605
888 659T677 713H353ZM472 1327L384 877H685Q846 877 936 947T1027 1141Q1027 1238 966 1282T771 1327H472Z" />
<glyph unicode="C" glyph-name="C" horiz-adv-x="1364" d="M1352 1378L1311 1165Q1215 1262 1108 1309T875 1356Q704 1356 575 1274T351 1024Q291 916 260 796T228 553Q228 349 333 242T640 135Q779 135 907 179T1156 313L1109 74Q990 23 869 -3T625 -29Q338 -29
177 127T15 561Q15 739 76 911T253 1225Q375 1376 531 1448T896 1520Q1024 1520 1138 1485T1352 1378Z" />
<glyph unicode="D" glyph-name="D" horiz-adv-x="1456" d="M307 1493H741Q1087 1493 1263 1347T1440 911Q1440 720 1373 544T1188 246Q1069 122 886 61T453 0H16L307 1493ZM477 1327L252 166H516Q855 166 1041 361T1227 911Q1227 1126 1107 1226T731 1327H477Z" />
<glyph unicode="E" glyph-name="E" horiz-adv-x="1250" d="M304 1493H1248L1215 1323H472L386 881H1099L1066 711H353L249 170H1009L976 0H13L304 1493Z" />
<glyph unicode="F" glyph-name="F" horiz-adv-x="1159" d="M303 1493H1159L1126 1323H471L385 883H977L944 713H352L213 0H12L303 1493Z" />
<glyph unicode="G" glyph-name="G" horiz-adv-x="1424" d="M1041 223L1119 614H787L818 780H1348L1219 123Q1086 50 929 11T613 -29Q332 -29 174 127T15 561Q15 792 111 1000T378 1348Q485 1435 612 1477T894 1520Q1034 1520 1162 1485T1408 1378L1367 1163Q1277
1257 1156 1306T898 1356Q739 1356 618 1296T402 1108Q321 1000 275 854T228 555Q228 346 335 241T654 135Q760 135 859 157T1041 223Z" />
<glyph unicode="H" glyph-name="H" horiz-adv-x="1462" d="M307 1493H510L391 881H1124L1243 1493H1446L1155 0H952L1091 711H358L219 0H16L307 1493Z" />
<glyph unicode="I" glyph-name="I" horiz-adv-x="494" d="M291 1493H494L203 0H0L291 1493Z" />
<glyph unicode="J" glyph-name="J" horiz-adv-x="883" d="M678 1493H881L610 104Q557 -167 432 -288T80 -410H0L33 -240H96Q231 -240 301 -163T408 104L678 1493Z" />
<glyph unicode="K" glyph-name="K" horiz-adv-x="1447" d="M307 1493H510L387 864L1171 1493H1440L553 780L1202 0H956L360 727L219 0H16L307 1493Z" />
<glyph unicode="L" glyph-name="L" horiz-adv-x="972" d="M298 1493H501L245 168H972L939 0H9L298 1493Z" />
<glyph unicode="M" glyph-name="M" horiz-adv-x="1693" d="M309 1493H612L786 487L1364 1493H1675L1384 0H1188L1442 1309L856 287H659L469 1313L215 0H18L309 1493Z" />
<glyph unicode="N" glyph-name="N" horiz-adv-x="1453" d="M307 1493H579L991 213L1241 1493H1438L1147 0H874L463 1288L213 0H16L307 1493Z" />
<glyph unicode="O" glyph-name="O" horiz-adv-x="1480" d="M868 1356Q702 1356 575 1276T354 1030Q294 925 263 807T231 569Q231 361 330 248T612 135Q776 135 904 216T1124 459Q1185 567 1217 685T1249 922Q1249 1129 1149 1242T868 1356ZM606 -29Q331 -29 174
134T16 580Q16 742 77 911T247 1212Q374 1367 530 1443T874 1520Q1148 1520 1306 1359T1464 918Q1464 746 1404 580T1232 279Q1104 123 950 47T606 -29Z" />
<glyph unicode="P" glyph-name="P" horiz-adv-x="1189" d="M304 1493H771Q975 1493 1082 1398T1189 1120Q1189 874 1031 737T587 600H333L216 0H13L304 1493ZM474 1327L366 766H620Q792 766 884 854T976 1106Q976 1211 914 1269T738 1327H474Z" />
<glyph unicode="Q" glyph-name="Q" horiz-adv-x="1467" d="M664 -27Q653 -28 641 -28T605 -29Q325 -29 167 131T9 575Q9 742 69 910T238 1212Q363 1366 519 1443T865 1520Q1139 1520 1297 1359T1455 918Q1455 617 1290 367T859 14L1062 -264H836L664 -27ZM859
1356Q693 1356 566 1276T345 1030Q285 925 254 807T222 569Q222 361 321 248T603 135Q767 135 895 216T1115 459Q1176 567 1208 685T1240 922Q1240 1129 1140 1242T859 1356Z" />
<glyph unicode="R" glyph-name="R" horiz-adv-x="1210" d="M473 1327L371 797H631Q784 797 878 881T973 1102Q973 1211 910 1269T727 1327H473ZM844 717Q908 702 950 643T1049 408L1176 0H963L846 383Q801 531 742 581T561 631H338L215 0H12L303 1493H758Q965
1493 1075 1400T1186 1130Q1186 974 1092 860T844 717Z" />
<glyph unicode="S" glyph-name="S" horiz-adv-x="1244" d="M1231 1444L1192 1247Q1091 1301 992 1328T799 1356Q618 1356 511 1277T404 1067Q404 995 443 957T647 874L768 844Q973 791 1053 710T1133 481Q1133 255 956 113T488 -29Q369 -29 249 -6T8 66L49 274Q160
205 271 170T494 135Q683 135 797 219T911 438Q911 528 866 574T670 659L549 690Q342 744 267 814T191 1012Q191 1235 362 1377T809 1520Q916 1520 1021 1501T1231 1444Z" />
<glyph unicode="T" glyph-name="T" horiz-adv-x="1303" d="M40 1493H1303L1271 1323H738L482 0H279L535 1323H7L40 1493Z" />
<glyph unicode="U" glyph-name="U" horiz-adv-x="1373" d="M219 1493H422L246 586Q235 525 231 486T226 416Q226 278 303 207T529 135Q722 135 829 241T983 586L1159 1493H1362L1182 561Q1123 259 958 115T506 -29Q282 -29 152 83T21 389Q21 424 26 467T41 561L219 1493Z" />
<glyph unicode="V" glyph-name="V" horiz-adv-x="1376" d="M278 0L16 1493H214L431 209L1156 1493H1376L513 0H278Z" />
<glyph unicode="W" glyph-name="W" horiz-adv-x="1926" d="M28 1493H224L296 223L859 1493H1084L1158 223L1715 1493H1920L1256 0H1002L933 1245L374 0H120L28 1493Z" />
<glyph unicode="X" glyph-name="X" horiz-adv-x="1545" d="M375 1493H579L835 954L1298 1493H1534L919 780L1290 0H1087L786 629L241 0H6L704 803L375 1493Z" />
<glyph unicode="Y" glyph-name="Y" horiz-adv-x="1266" d="M11 1493H228L507 879L1039 1493H1266L589 711L451 0H249L386 711L11 1493Z" />
<glyph unicode="Z" glyph-name="Z" horiz-adv-x="1498" d="M319 1493H1491L1462 1339L305 170H1257L1225 0H6L35 154L1192 1323H287L319 1493Z" />
<glyph unicode="[" glyph-name="bracketleft" horiz-adv-x="781" d="M357 1556H781L752 1413H513L214 -127H453L427 -270H3L357 1556Z" />
<glyph unicode="\" glyph-name="backslash" horiz-adv-x="365" d="M171 1493L364 -190H196L1 1493H171Z" />
<glyph unicode="]" glyph-name="bracketright" horiz-adv-x="780" d="M778 1556L424 -270H0L27 -127H266L565 1413H328L354 1556H778Z" />
<glyph unicode="^" glyph-name="asciicircum" horiz-adv-x="1290" d="M743 1493L1286 936H1085L645 1331L205 936H4L547 1493H743Z" />
<glyph unicode="_" glyph-name="underscore" horiz-adv-x="1130" d="M1097 -340V-483H33V-340H1097Z" />
<glyph unicode="`" glyph-name="grave" horiz-adv-x="407" d="M197 1638L406 1264H252L0 1638H197Z" />
<glyph unicode="a" glyph-name="a" horiz-adv-x="1068" d="M1027 639L902 0H718L752 170Q671 70 568 21T337 -29Q194 -29 103 58T11 283Q11 479 167 593T599 707H855L865 756Q867 764 868 773T869 803Q869 892 797 941T593 991Q503 991 409 968T214 899L246 1069Q350
1108 449 1127T642 1147Q840 1147 943 1061T1047 811Q1047 778 1042 734T1027 639ZM828 563H644Q418 563 310 503T201 315Q201 227 256 177T410 127Q560 127 672 234T820 522L828 563Z" />
<glyph unicode="b" glyph-name="b" horiz-adv-x="1142" d="M951 684Q951 829 885 911T701 993Q616 993 542 952T412 831Q354 748 321 639T287 420Q287 282 352 204T533 125Q620 125 694 165T824 285Q881 367 916 476T951 684ZM379 950Q447 1042 549 1094T764 1147Q936
1147 1037 1031T1139 717Q1139 555 1080 403T910 133Q838 55 744 13T547 -29Q438 -29 358 21T228 170L195 0H11L314 1556H498L379 950Z" />
<glyph unicode="c" glyph-name="c" horiz-adv-x="1029" d="M1018 1077L981 895Q915 943 841 967T686 991Q598 991 519 960T385 872Q299 785 252 668T205 426Q205 275 280 201T510 127Q586 127 671 150T850 219L815 37Q735 4 651 -12T477 -29Q254 -29 134 82T14
401Q14 575 76 721T262 985Q346 1065 459 1106T706 1147Q784 1147 861 1130T1018 1077Z" />
<glyph unicode="d" glyph-name="d" horiz-adv-x="1227" d="M763 168Q689 71 588 21T364 -29Q196 -29 99 85T1 399Q1 565 60 715T231 985Q305 1064 398 1105T593 1147Q701 1147 783 1095T911 946L1031 1556H1216L913 0H728L763 168ZM192 432Q192 287 257 206T439
125Q525 125 598 166T728 289Q787 373 821 483T855 700Q855 839 790 917T609 995Q522 995 447 954T319 836Q261 753 227 643T192 432Z" />
<glyph unicode="e" glyph-name="e" horiz-adv-x="1105" d="M906 660Q909 676 910 693T912 727Q912 849 841 920T646 991Q509 991 404 905T245 659L906 660ZM1066 516H210Q204 478 202 456T200 418Q200 279 285 203T527 127Q647 127 754 154T953 233L918 51Q819
11 714 -9T499 -29Q266 -29 141 82T15 399Q15 574 77 724T261 993Q339 1067 446 1107T675 1147Q865 1147 977 1033T1090 727Q1090 681 1084 629T1066 516Z" />
<glyph unicode="f" glyph-name="f" horiz-adv-x="847" d="M847 1556L818 1403H642Q542 1403 497 1364T429 1219L409 1120H712L685 977H382L192 0H7L198 977H22L48 1120H224L239 1198Q277 1396 372 1476T673 1556H847Z" />
<glyph unicode="g" glyph-name="g" horiz-adv-x="1179" d="M1171 1120L980 139Q925 -146 770 -286T351 -426Q254 -426 171 -412T16 -367L50 -188Q118 -232 194 -253T356 -274Q531 -274 643 -179T792 96L808 180Q731 92 629 46T409 0Q239 0 142 112T44 422Q44 577
103 725T269 989Q340 1065 434 1106T632 1147Q745 1147 829 1095T954 946L986 1120H1171ZM894 709Q894 845 830 919T648 993Q575 993 509 964T396 883Q320 797 278 681T235 440Q235 302 299 228T485 154Q660 154 777 312T894 709Z" />
<glyph unicode="h" glyph-name="h" horiz-adv-x="1103" d="M1079 676L948 0H763L894 669Q903 716 908 752T913 809Q913 893 860 940T712 987Q564 987 456 887T315 621L194 0H10L313 1556H497L378 944Q448 1038 557 1092T786 1147Q934 1147 1015 1067T1097 842Q1097
806 1093 765T1079 676Z" />
<glyph unicode="i" glyph-name="i" horiz-adv-x="487" d="M303 1556H487L442 1323H258L303 1556ZM219 1120H403L184 0H0L219 1120Z" />
<glyph unicode="j" glyph-name="j" horiz-adv-x="798" d="M528 1120H712L491 -20L490 -25Q453 -216 405 -287Q360 -354 274 -390T69 -426H0L30 -270H77Q185 -270 230 -225T307 -20L528 1120ZM614 1556H798L753 1323H569L614 1556Z" />
<glyph unicode="k" glyph-name="k" horiz-adv-x="1193" d="M315 1556H499L323 649L954 1120H1193L489 584L1003 0H780L302 547L196 0H12L315 1556Z" />
<glyph unicode="l" glyph-name="l" horiz-adv-x="487" d="M303 1556H487L184 0H0L303 1556Z" />
<glyph unicode="m" glyph-name="m" horiz-adv-x="1830" d="M1788 676L1657 0H1473L1602 670Q1610 713 1614 744T1618 797Q1618 887 1568 937T1428 987Q1294 987 1189 887T1053 625L930 0H746L877 670Q885 707 889 738T893 795Q893 886 843 936T705 987Q569 987
464 887T328 625L205 0H21L240 1120H424L389 946Q464 1044 564 1095T780 1147Q902 1147 980 1083T1075 905Q1159 1023 1269 1085T1503 1147Q1647 1147 1725 1064T1804 829Q1804 796 1800 757T1788 676Z" />
<glyph unicode="n" glyph-name="n" horiz-adv-x="1123" d="M1083 676L952 0H767L898 669Q907 716 912 752T917 809Q917 893 864 940T716 987Q568 987 461 889T321 621L198 0H14L231 1120H415L378 944Q455 1041 563 1094T790 1147Q938 1147 1019 1067T1101 842Q1101
806 1097 765T1083 676Z" />
<glyph unicode="o" glyph-name="o" horiz-adv-x="1097" d="M442 -29Q245 -29 131 92T16 424Q16 546 55 672T158 885Q257 1019 379 1083T655 1147Q846 1147 963 1028T1081 717Q1081 584 1042 452T940 233Q842 99 720 35T442 -29ZM207 430Q207 278 270 203T463 127Q648
127 769 288T891 698Q891 843 826 917T635 991Q531 991 450 943T305 795Q258 721 233 626T207 430Z" />
<glyph unicode="p" glyph-name="p" horiz-adv-x="1224" d="M1033 690Q1033 837 969 915T785 993Q703 993 629 951T496 829Q439 750 405 638T371 416Q371 276 435 201T617 125Q704 125 778 166T906 285Q963 367 998 478T1033 690ZM463 950Q537 1047 637 1097T861
1147Q1033 1147 1128 1035T1223 719Q1223 553 1164 403T994 133Q920 54 827 13T631 -29Q512 -29 431 20T310 168L195 -426H11L312 1120H496L463 950Z" />
<glyph unicode="q" glyph-name="q" horiz-adv-x="1144" d="M764 168Q690 71 590 21T367 -29Q197 -29 101 85T4 401Q4 563 63 714T234 985Q306 1063 399 1105T596 1147Q720 1147 800 1098T916 950L948 1118H1133L834 -422H649L764 168ZM195 428Q195 280 257 203T436
125Q610 125 733 291T856 696Q856 840 793 916T610 993Q523 993 449 953T320 834Q262 752 229 642T195 428Z" />
<glyph unicode="r" glyph-name="r" horiz-adv-x="887" d="M852 950Q824 965 788 973T711 981Q564 981 454 870T308 571L195 0H11L230 1120H414L379 946Q452 1043 553 1095T770 1147Q800 1147 829 1144T887 1132L852 950Z" />
<glyph unicode="s" glyph-name="s" horiz-adv-x="1022" d="M1009 1087L974 913Q901 953 820 973T653 993Q508 993 425 944T341 809Q341 710 535 657Q550 653 557 651L616 633Q800 582 861 526T923 373Q923 195 782 83T411 -29Q322 -29 224 -12T8 41L44 231Q145
179 243 152T431 125Q566 125 650 183T735 330Q735 426 513 485L494 490L431 506Q291 543 226 603T161 758Q161 937 295 1042T661 1147Q752 1147 838 1132T1009 1087Z" />
<glyph unicode="t" glyph-name="t" horiz-adv-x="745" d="M745 1120L717 977H350L231 369Q225 335 222 312T219 276Q219 212 257 183T381 154H567L536 0H360Q196 0 116 64T35 258Q35 281 38 308T47 369L166 977H10L39 1120H192L254 1438H438L377 1120H745Z" />
<glyph unicode="u" glyph-name="u" horiz-adv-x="1125" d="M42 444L173 1120H358L227 451Q217 402 213 367T208 309Q208 224 260 178T407 131Q555 131 663 231T804 500L927 1120H1111L894 0H710L747 176Q669 78 562 25T333 -29Q186 -29 104 51T22 276Q22 306 27
351T42 444Z" />
<glyph unicode="v" glyph-name="v" horiz-adv-x="1106" d="M16 1120H211L375 168L911 1120H1106L469 0H221L16 1120Z" />
<glyph unicode="w" glyph-name="w" horiz-adv-x="1538" d="M28 1120H210L257 219L675 1120H888L950 219L1347 1120H1531L1019 0H804L749 928L321 0H104L28 1120Z" />
<glyph unicode="x" glyph-name="x" horiz-adv-x="1301" d="M1290 1120L776 571L1091 0H880L643 444L231 0H8L559 590L266 1120H477L692 715L1067 1120H1290Z" />
<glyph unicode="y" glyph-name="y" horiz-adv-x="1298" d="M571 -104Q443 -319 363 -372T157 -426H12L43 -272H149Q226 -272 280 -230T401 -66L458 41L210 1120H405L591 262L1105 1120H1298L571 -104Z" />
<glyph unicode="z" glyph-name="z" horiz-adv-x="1137" d="M253 1120H1127L1094 952L251 147H947L918 0H9L42 168L885 973H224L253 1120Z" />
<glyph unicode="{" glyph-name="braceleft" horiz-adv-x="991" d="M991 1556L962 1413H885Q749 1413 702 1374T624 1184L573 932Q541 772 481 700T309 606Q382 588 422 537T463 410Q463 386 459 353T448 282L401 38Q396 7 394 -19T391 -70Q391 -133 433 -161T573
-190H651L622 -334H551Q363 -334 282 -280T201 -102Q201 -70 204 -36T215 35L260 270Q260 273 262 282Q272 332 272 377Q272 462 223 499T61 537H0L28 684H90Q234 684 297 738T393 944L440 1188Q466 1311 501 1382T592 1493Q638 1527 707 1541T909 1556H991Z" />
<glyph unicode="|" glyph-name="bar" horiz-adv-x="239" d="M203 1565V-483H33V1565H203Z" />
<glyph unicode="}" glyph-name="braceright" horiz-adv-x="992" d="M0 -334L29 -190H107Q243 -190 290 -151T367 39L418 291Q451 451 511 523T682 616Q609 635 569 686T529 813Q529 838 532 870T543 940L590 1183Q596 1217 598 1242T600 1292Q600 1356 558 1384T418
1413H340L367 1556H441Q628 1556 709 1502T791 1325Q791 1294 788 1260T776 1187L731 952Q731 949 729 940Q719 891 719 846Q719 760 768 723T930 686H992L963 539H901Q757 539 694 484T602 279L549 35Q523 -91 488 -161T400 -270Q353 -304 284 -319T82 -334H0Z"
/>
<glyph unicode="~" glyph-name="asciitilde" horiz-adv-x="1319" d="M1301 817V639Q1196 560 1107 526T920 492Q810 492 664 551Q653 555 648 557Q641 560 626 565Q471 627 377 627Q289 627 203 589T19 467V645Q124 724 213 758T400 793Q510 793 657 733Q667 729
672 727Q680 724 694 719Q849 657 943 657Q1029 657 1113 695T1301 817Z" />
<glyph unicode="&#xa0;" glyph-name="nbspace" horiz-adv-x="651" />
<glyph unicode="&#xa1;" glyph-name="exclamdown" horiz-adv-x="494" d="M203 0H0L127 655L217 1012H379L330 655L203 0ZM442 1239H240L289 1493H494L442 1239Z" />
<glyph unicode="&#xa2;" glyph-name="cent" horiz-adv-x="1002" d="M607 985Q429 962 309 802T189 426Q189 292 250 219T439 125L607 985ZM738 1145Q811 1138 875 1122T1002 1077L967 895Q920 932 858 954T707 989L539 127Q605 132 679 154T836 219L801 37Q736
9 663 -7T513 -29L453 -313H353L412 -29Q215 -16 108 95T1 401Q1 707 178 914T637 1145L693 1430H793L738 1145Z" />
<glyph unicode="&#xa3;" glyph-name="sterling" horiz-adv-x="1263" d="M1257 1460L1222 1278Q1161 1318 1096 1339T966 1360Q819 1360 745 1281T630 993L589 778H980L951 635H560L470 170H1007L974 0H1L34 170H269L360 635H161L190 778H388L433 1016Q485 1278
615 1399T978 1520Q1048 1520 1118 1505T1257 1460Z" />
<glyph unicode="&#xa4;" glyph-name="currency" horiz-adv-x="1166" d="M821 993L1028 1202L1142 1087L936 881Q973 822 991 763T1009 641Q1009 578 990 521T931 406L1140 199L1026 86L819 293Q760 253 702 234T583 215Q525 215 465 233T344 289L137 82L24 197L231
403Q194 465 176 524T157 641Q157 705 176 763T233 877L26 1083L141 1198L348 991Q403 1030 461 1048T583 1067Q643 1067 701 1049T821 993ZM852 643Q852 755 775 832T583 909Q471 909 392 832T313 643Q313 529 391 451T583 373Q696 373 774 451T852 643Z" />
<glyph unicode="&#xa5;" glyph-name="yen" d="M1036 455H625L537 0H334L422 455H6L29 578H446L457 629L403 784H70L94 907H360L156 1493H346L586 793L1098 1493H1292L862 907H1124L1100 784H772L659 629L649 578H1059L1036 455Z" />
<glyph unicode="&#xa6;" glyph-name="brokenbar" horiz-adv-x="223" d="M203 408V-350H33V408H203ZM203 1432V674H33V1432H203Z" />
<glyph unicode="&#xa7;" glyph-name="section" horiz-adv-x="978" d="M581 410Q663 459 706 514T749 627Q749 681 696 737T499 885L419 936Q338 885 296 829T253 717Q253 667 295 619T464 487L581 410ZM972 1462L940 1298Q868 1337 800 1356T673 1376Q570 1376
504 1328T438 1206Q438 1127 573 1037Q603 1017 620 1006L708 946Q830 861 872 803T915 674Q915 573 849 483T669 340Q710 305 730 260T751 160Q751 3 630 -96T309 -195Q240 -195 163 -181T4 -137L36 27Q112 -11 184 -31T315 -51Q427 -51 494 -4T561 123Q561 221
381 342L366 352L290 403Q167 487 126 543T85 674Q85 770 149 856T331 1006Q288 1044 269 1084T249 1176Q249 1323 370 1421T679 1520Q750 1520 822 1506T972 1462Z" />
<glyph unicode="&#xa8;" glyph-name="dieresis" horiz-adv-x="687" d="M66 1552H271L230 1350H27L66 1552ZM457 1552H660L621 1350H418L457 1552Z" />
<glyph unicode="&#xa9;" glyph-name="copyright" horiz-adv-x="1514" d="M757 1485Q909 1485 1040 1430T1281 1266Q1390 1157 1444 1026T1498 741Q1498 589 1444 459T1281 219Q1172 110 1041 55T757 0Q605 0 474 55T233 219Q124 328 70 458T16 741Q16 895 70 1026T233
1266Q342 1375 473 1430T757 1485ZM757 1382Q626 1382 513 1335T306 1194Q212 1100 164 986T116 741Q116 612 164 499T306 291Q400 197 513 150T757 102Q889 102 1002 149T1210 291Q1303 384 1349 497T1396 741Q1396 874 1349 987T1210 1194Q1116 1288 1003 1335T757
1382ZM1056 1137V1008Q990 1041 925 1057T794 1073Q645 1073 562 986T478 741Q478 582 563 495T804 408Q868 408 929 423T1056 473V346Q989 317 921 303T782 289Q566 289 441 411T315 741Q315 950 440 1071T782 1192Q855 1192 923 1178T1056 1137Z" />
<glyph unicode="&#xaa;" glyph-name="ordfeminine" horiz-adv-x="851" d="M517 1104Q360 1104 289 1067T218 946Q218 887 256 852T359 817Q474 817 552 884T658 1075L664 1104H517ZM826 1165L738 717H589L611 829Q553 764 477 731T304 698Q197 698 132 759T66
920Q66 1060 181 1139T505 1219H687V1223Q689 1242 690 1252T691 1270Q691 1340 645 1372T498 1405Q428 1405 356 1388T210 1337L234 1464Q313 1492 389 1506T533 1520Q683 1520 759 1458T836 1276Q836 1249 834 1222T826 1165ZM27 592H716L693 469H5L27 592Z"
/>
<glyph unicode="&#xab;" glyph-name="guillemotleft" horiz-adv-x="1030" d="M568 1059L529 858L175 588L427 322L390 141L3 559L19 641L568 1059ZM1013 1059L974 858L619 588L871 322L834 141L447 559L464 641L1013 1059Z" />
<glyph unicode="&#xac;" glyph-name="logicalnot" horiz-adv-x="1315" d="M0 862H1282V287H1114V692H0V862Z" />
<glyph unicode="&#xad;" glyph-name="sfthyphen" horiz-adv-x="739" d="M62 643H601L570 479H29L62 643Z" />
<glyph unicode="&#xae;" glyph-name="registered" horiz-adv-x="1514" d="M757 1382Q626 1382 513 1335T306 1194Q212 1100 164 986T116 741Q116 612 164 499T306 291Q400 197 513 150T757 102Q889 102 1002 149T1210 291Q1303 384 1349 497T1396 741Q1396 874
1349 987T1210 1194Q1116 1288 1003 1335T757 1382ZM757 1485Q909 1485 1040 1430T1281 1266Q1390 1157 1444 1026T1498 741Q1498 589 1444 459T1281 219Q1172 110 1041 55T757 0Q605 0 474 55T233 219Q124 328 70 458T16 741Q16 895 70 1026T233 1266Q342 1375
473 1430T757 1485ZM730 1071H607V795H730Q840 795 883 826T927 932Q927 1008 883 1039T730 1071ZM737 1174Q913 1174 1000 1115T1087 934Q1087 848 1035 792T886 719Q910 711 943 673T1023 561L1160 338H988L859 547Q800 643 764 668T673 694H607V338H452V1174H737Z"
/>
<glyph unicode="&#xaf;" glyph-name="overscore" horiz-adv-x="685" d="M58 1526H656L627 1378H29L58 1526Z" />
<glyph unicode="&#xb0;" glyph-name="degree" horiz-adv-x="666" d="M333 1391Q253 1391 198 1336T143 1200Q143 1121 198 1067T333 1012Q413 1012 468 1066T523 1200Q523 1279 468 1335T333 1391ZM333 1520Q397 1520 456 1496T558 1425Q604 1380 627 1323T650
1200Q650 1068 558 977T331 885Q196 885 106 975T16 1200Q16 1334 108 1427T333 1520Z" />
<glyph unicode="&#xb1;" glyph-name="plusminus" horiz-adv-x="1284" d="M726 1284V897H1283V727H726V340H558V727H1V897H558V1284H726ZM1 170H1283V0H1V170Z" />
<glyph unicode="&#xb2;" glyph-name="twosuperior" horiz-adv-x="737" d="M595 1090L210 782H651L628 668H10L32 778L454 1118Q513 1164 542 1207T571 1290Q571 1344 529 1377T417 1411Q362 1411 296 1394T147 1341L172 1464Q248 1492 316 1506T448 1520Q571 1520
647 1463T724 1317Q724 1255 692 1199T595 1090Z" />
<glyph unicode="&#xb3;" glyph-name="threesuperior" horiz-adv-x="744" d="M191 1485Q274 1503 337 1511T455 1520Q580 1520 655 1468T730 1329Q730 1252 673 1195T519 1120Q594 1104 634 1057T674 938Q674 811 563 732T267 653Q203 653 138 663T9 694L33 815Q86
788 142 775T261 762Q384 762 453 808T523 936Q523 998 475 1029T328 1061H242L265 1169H357Q459 1169 516 1205T574 1305Q574 1358 533 1384T410 1411Q354 1411 292 1401T169 1370L191 1485Z" />
<glyph unicode="&#xb4;" glyph-name="acute" horiz-adv-x="553" d="M354 1638H553L154 1262H0L354 1638Z" />
<glyph unicode="&#xb5;" glyph-name="mu" horiz-adv-x="1252" d="M12 -426L313 1120H498L362 423Q358 402 355 376T352 324Q352 231 410 181T578 131Q726 131 817 215T940 467L1067 1120H1251L1084 259Q1080 240 1079 226T1077 201Q1077 170 1089 156T1129 141Q1139
141 1156 146T1206 164L1178 16Q1134 -6 1094 -17T1016 -29Q950 -29 913 13T875 129Q819 49 742 10T559 -29Q466 -29 397 14T305 127L197 -426H12Z" />
<glyph unicode="&#xb6;" glyph-name="paragraph" horiz-adv-x="1030" d="M616 1493H1022L694 -197H555L860 1370H669L364 -197H223L387 649Q209 655 109 749T8 1001Q8 1212 180 1352T616 1493Z" />
<glyph unicode="&#xb7;" glyph-name="middot" horiz-adv-x="294" d="M67 838H278L228 584H17L67 838Z" />
<glyph unicode="&#xb8;" glyph-name="cedilla" horiz-adv-x="465" d="M377 0Q413 -51 430 -94T447 -180Q447 -280 374 -337T172 -395Q129 -395 86 -389T0 -371L23 -240Q62 -256 101 -264T183 -272Q243 -272 278 -242T314 -158Q314 -129 302 -93T258 0H377Z" />
<glyph unicode="&#xb9;" glyph-name="onesuperior" horiz-adv-x="598" d="M28 778H232L351 1389L122 1348L144 1464L374 1503H519L378 778H583L560 668H7L28 778Z" />
<glyph unicode="&#xba;" glyph-name="ordmasculine" horiz-adv-x="882" d="M713 1180Q713 1290 664 1347T517 1405Q401 1405 317 1298T232 1040Q232 931 281 872T423 813Q545 813 629 918T713 1180ZM546 1520Q694 1520 782 1434T871 1204Q871 984 738 841T402
698Q252 698 165 788T77 1032Q77 1100 96 1166T152 1296Q214 1402 318 1461T546 1520ZM29 592H718L695 469H7L29 592Z" />
<glyph unicode="&#xbb;" glyph-name="guillemotright" horiz-adv-x="1028" d="M459 141L498 342L853 612L601 879L640 1059L1025 641L1010 559L459 141ZM17 141L56 342L408 612L158 879L195 1059L580 641L566 559L17 141Z" />
<glyph unicode="&#xbc;" glyph-name="onequarter" horiz-adv-x="1985" d="M1681 711L1288 296H1599L1681 711ZM1681 836H1847L1741 296H1878L1857 187H1720L1683 1H1542L1579 187H1163L1188 318L1681 836ZM28 778H232L351 1389L122 1348L144 1464L374 1503H519L378
778H583L560 668H7L28 778ZM2056 1520H2235L1002 -29H821L2056 1520Z" />
<glyph unicode="&#xbd;" glyph-name="onehalf" horiz-adv-x="1985" d="M28 778H232L351 1389L122 1348L144 1464L374 1503H519L378 778H583L560 668H7L28 778ZM2056 1520H2235L1002 -29H821L2056 1520ZM1758 423L1373 115H1814L1791 1H1173L1195 111L1617 451Q1676
497 1705 540T1734 623Q1734 677 1692 710T1580 744Q1525 744 1459 727T1310 674L1335 797Q1411 825 1479 839T1611 853Q1734 853 1810 796T1887 650Q1887 588 1855 532T1758 423Z" />
<glyph unicode="&#xbe;" glyph-name="threequarters" horiz-adv-x="1985" d="M1681 711L1288 296H1599L1681 711ZM1681 836H1847L1741 296H1878L1857 187H1720L1683 1H1542L1579 187H1163L1188 318L1681 836ZM191 1485Q274 1503 337 1511T455 1520Q580 1520 655
1468T730 1329Q730 1252 673 1195T519 1120Q594 1104 634 1057T674 938Q674 811 563 732T267 653Q203 653 138 663T9 694L33 815Q86 788 142 775T261 762Q384 762 453 808T523 936Q523 998 475 1029T328 1061H242L265 1169H357Q459 1169 516 1205T574 1305Q574
1358 533 1384T410 1411Q354 1411 292 1401T169 1370L191 1485ZM2056 1520H2235L1002 -29H821L2056 1520Z" />
<glyph unicode="&#xbf;" glyph-name="questiondown" horiz-adv-x="815" d="M536 1239L586 1493H788L739 1239H536ZM758 86Q655 29 554 1T346 -27Q185 -27 93 48T0 252Q0 355 53 445T227 633L330 717Q415 785 443 832T489 969L514 1092H704L674 938Q655 844 616
779T467 621L360 532Q276 462 243 409T209 299Q209 223 263 180T413 137Q494 137 592 172T794 274L758 86Z" />
<glyph unicode="&#xc0;" glyph-name="Agrave" horiz-adv-x="1401" d="M863 1493H1092L1369 0H1158L1096 383H424L213 0H0L863 1493ZM936 1294L517 551H1065L936 1294ZM1423 1899L1571 1635H1431L1241 1899H1423Z" />
<glyph unicode="&#xc1;" glyph-name="Aacute" horiz-adv-x="1401" d="M863 1493H1092L1369 0H1158L1096 383H424L213 0H0L863 1493ZM936 1294L517 551H1065L936 1294ZM1500 1899H1707L1400 1635H1242L1500 1899Z" />
<glyph unicode="&#xc2;" glyph-name="Acircumflex" horiz-adv-x="1401" d="M863 1493H1092L1369 0H1158L1096 383H424L213 0H0L863 1493ZM936 1294L517 551H1065L936 1294ZM1508 1901H1723L1881 1635H1746L1606 1813L1397 1635H1246L1508 1901Z" />
<glyph unicode="&#xc3;" glyph-name="Atilde" horiz-adv-x="1401" d="M863 1493H1092L1369 0H1158L1096 383H424L213 0H0L863 1493ZM936 1294L517 551H1065L936 1294ZM1606 1710L1571 1735L1570 1736Q1527 1768 1489 1768Q1455 1768 1428 1743T1383 1667H1258Q1293
1776 1354 1831T1501 1886Q1536 1886 1566 1875T1633 1839L1665 1813Q1683 1799 1702 1793T1741 1786Q1780 1786 1808 1813T1848 1886H1973Q1940 1777 1878 1722T1723 1667Q1692 1667 1665 1677T1606 1710Z" />
<glyph unicode="&#xc4;" glyph-name="Adieresis" horiz-adv-x="1401" d="M863 1493H1092L1369 0H1158L1096 383H424L213 0H0L863 1493ZM936 1294L517 551H1065L936 1294ZM1307 1870H1511L1470 1667H1268L1307 1870ZM1698 1870H1900L1862 1667H1659L1698 1870Z" />
<glyph unicode="&#xc5;" glyph-name="Aring" horiz-adv-x="1389" d="M1129 1626Q1129 1689 1085 1733T977 1778Q913 1778 870 1735T826 1626Q826 1563 869 1519T977 1475Q1040 1475 1084 1519T1129 1626ZM814 1407Q760 1444 732 1500T703 1626Q703 1740 783 1820T977
1901Q1091 1901 1171 1821T1252 1626Q1252 1547 1216 1486T1110 1389L1369 0H1158L1096 383H424L213 0H0L814 1407ZM936 1294L517 551H1065L936 1294Z" />
<glyph unicode="&#xc6;" glyph-name="AE" horiz-adv-x="2141" d="M1027 1335L544 551H1002L1156 1335H1027ZM2131 1493L2098 1323H1357L1269 881H1981L1948 711H1236L1131 170H1891L1858 0H896L969 383H443L208 0H3L918 1493H2131Z" />
<glyph unicode="&#xc7;" glyph-name="Ccedilla" horiz-adv-x="1430" d="M1352 1378L1311 1165Q1215 1262 1108 1309T875 1356Q704 1356 575 1274T351 1024Q291 916 260 796T228 553Q228 349 333 242T640 135Q779 135 907 179T1156 313L1109 74Q990 23 869 -3T625
-29Q338 -29 177 127T15 561Q15 739 76 911T253 1225Q375 1376 531 1448T896 1520Q1024 1520 1138 1485T1352 1378ZM647 0Q683 -51 700 -94T717 -180Q717 -280 644 -337T442 -395Q399 -395 356 -389T270 -371L293 -240Q332 -256 371 -264T453 -272Q513 -272 548
-242T584 -158Q584 -129 572 -93T528 0H647Z" />
<glyph unicode="&#xc8;" glyph-name="Egrave" horiz-adv-x="1294" d="M304 1493H1248L1215 1323H472L386 881H1099L1066 711H353L249 170H1009L976 0H13L304 1493ZM1366 1899L1514 1635H1374L1184 1899H1366Z" />
<glyph unicode="&#xc9;" glyph-name="Eacute" horiz-adv-x="1294" d="M304 1493H1248L1215 1323H472L386 881H1099L1066 711H353L249 170H1009L976 0H13L304 1493ZM1443 1899H1650L1343 1635H1185L1443 1899Z" />
<glyph unicode="&#xca;" glyph-name="Ecircumflex" horiz-adv-x="1294" d="M304 1493H1248L1215 1323H472L386 881H1099L1066 711H353L249 170H1009L976 0H13L304 1493ZM1451 1901H1666L1824 1635H1689L1549 1813L1340 1635H1189L1451 1901Z" />
<glyph unicode="&#xcb;" glyph-name="Edieresis" horiz-adv-x="1294" d="M304 1493H1248L1215 1323H472L386 881H1099L1066 711H353L249 170H1009L976 0H13L304 1493ZM1250 1870H1454L1413 1667H1211L1250 1870ZM1641 1870H1843L1805 1667H1602L1641 1870Z" />
<glyph unicode="&#xcc;" glyph-name="Igrave" horiz-adv-x="604" d="M291 1493H494L203 0H0L291 1493ZM1009 1899L1157 1635H1017L827 1899H1009Z" />
<glyph unicode="&#xcd;" glyph-name="Iacute" horiz-adv-x="604" d="M291 1493H494L203 0H0L291 1493ZM1086 1899H1293L986 1635H828L1086 1899Z" />
<glyph unicode="&#xce;" glyph-name="Icircumflex" horiz-adv-x="604" d="M291 1493H494L203 0H0L291 1493ZM1094 1901H1309L1467 1635H1332L1192 1813L983 1635H832L1094 1901Z" />
<glyph unicode="&#xcf;" glyph-name="Idieresis" horiz-adv-x="604" d="M291 1493H494L203 0H0L291 1493ZM893 1870H1097L1056 1667H854L893 1870ZM1284 1870H1486L1448 1667H1245L1284 1870Z" />
<glyph unicode="&#xd0;" glyph-name="Eth" horiz-adv-x="1516" d="M367 1493H802Q1147 1493 1323 1347T1500 911Q1500 721 1433 545T1246 246Q1127 122 945 61T513 0H77L212 700H11L40 844H240L367 1493ZM537 1327L443 844H779L750 700H414L312 166H576Q916 166
1101 361T1287 911Q1287 1126 1167 1226T791 1327H537Z" />
<glyph unicode="&#xd1;" glyph-name="Ntilde" horiz-adv-x="1532" d="M307 1493H579L991 213L1241 1493H1438L1147 0H874L463 1288L213 0H16L307 1493ZM1643 1710L1608 1735L1607 1736Q1564 1768 1526 1768Q1492 1768 1465 1743T1420 1667H1295Q1330 1776 1391
1831T1538 1886Q1573 1886 1603 1875T1670 1839L1702 1813Q1720 1799 1739 1793T1778 1786Q1817 1786 1845 1813T1885 1886H2010Q1977 1777 1915 1722T1760 1667Q1729 1667 1702 1677T1643 1710Z" />
<glyph unicode="&#xd2;" glyph-name="Ograve" horiz-adv-x="1612" d="M868 1356Q702 1356 575 1276T354 1030Q294 925 263 807T231 569Q231 361 330 248T612 135Q776 135 904 216T1124 459Q1185 567 1217 685T1249 922Q1249 1129 1149 1242T868 1356ZM606 -29Q331
-29 174 134T16 580Q16 742 77 911T247 1212Q374 1367 530 1443T874 1520Q1148 1520 1306 1359T1464 918Q1464 746 1404 580T1232 279Q1104 123 950 47T606 -29ZM1546 1899L1694 1635H1554L1364 1899H1546Z" />
<glyph unicode="&#xd3;" glyph-name="Oacute" horiz-adv-x="1612" d="M868 1356Q702 1356 575 1276T354 1030Q294 925 263 807T231 569Q231 361 330 248T612 135Q776 135 904 216T1124 459Q1185 567 1217 685T1249 922Q1249 1129 1149 1242T868 1356ZM606 -29Q331
-29 174 134T16 580Q16 742 77 911T247 1212Q374 1367 530 1443T874 1520Q1148 1520 1306 1359T1464 918Q1464 746 1404 580T1232 279Q1104 123 950 47T606 -29ZM1623 1899H1830L1523 1635H1365L1623 1899Z" />
<glyph unicode="&#xd4;" glyph-name="Ocircumflex" horiz-adv-x="1612" d="M868 1356Q702 1356 575 1276T354 1030Q294 925 263 807T231 569Q231 361 330 248T612 135Q776 135 904 216T1124 459Q1185 567 1217 685T1249 922Q1249 1129 1149 1242T868 1356ZM606
-29Q331 -29 174 134T16 580Q16 742 77 911T247 1212Q374 1367 530 1443T874 1520Q1148 1520 1306 1359T1464 918Q1464 746 1404 580T1232 279Q1104 123 950 47T606 -29ZM1631 1901H1846L2004 1635H1869L1729 1813L1520 1635H1369L1631 1901Z" />
<glyph unicode="&#xd5;" glyph-name="Otilde" horiz-adv-x="1612" d="M868 1356Q702 1356 575 1276T354 1030Q294 925 263 807T231 569Q231 361 330 248T612 135Q776 135 904 216T1124 459Q1185 567 1217 685T1249 922Q1249 1129 1149 1242T868 1356ZM606 -29Q331
-29 174 134T16 580Q16 742 77 911T247 1212Q374 1367 530 1443T874 1520Q1148 1520 1306 1359T1464 918Q1464 746 1404 580T1232 279Q1104 123 950 47T606 -29ZM1729 1710L1694 1735L1693 1736Q1650 1768 1612 1768Q1578 1768 1551 1743T1506 1667H1381Q1416 1776
1477 1831T1624 1886Q1659 1886 1689 1875T1756 1839L1788 1813Q1806 1799 1825 1793T1864 1786Q1903 1786 1931 1813T1971 1886H2096Q2063 1777 2001 1722T1846 1667Q1815 1667 1788 1677T1729 1710Z" />
<glyph unicode="&#xd6;" glyph-name="Odieresis" horiz-adv-x="1612" d="M868 1356Q702 1356 575 1276T354 1030Q294 925 263 807T231 569Q231 361 330 248T612 135Q776 135 904 216T1124 459Q1185 567 1217 685T1249 922Q1249 1129 1149 1242T868 1356ZM606 -29Q331
-29 174 134T16 580Q16 742 77 911T247 1212Q374 1367 530 1443T874 1520Q1148 1520 1306 1359T1464 918Q1464 746 1404 580T1232 279Q1104 123 950 47T606 -29ZM1430 1870H1634L1593 1667H1391L1430 1870ZM1821 1870H2023L1985 1667H1782L1821 1870Z" />
<glyph unicode="&#xd7;" glyph-name="multiply" horiz-adv-x="1205" d="M1180 1100L723 641L1180 184L1061 63L602 522L143 63L25 184L481 641L25 1100L143 1221L602 762L1061 1221L1180 1100Z" />
<glyph unicode="&#xd8;" glyph-name="Oslash" horiz-adv-x="1744" d="M1301 1235Q1256 1295 1183 1325T1012 1356Q847 1356 720 1275T500 1032Q438 923 406 804T373 571Q373 526 379 483T397 395L1301 1235ZM1366 1116L459 270Q510 202 583 169T756 135Q920 135
1048 216T1268 459Q1330 571 1361 688T1393 928Q1393 984 1387 1030T1366 1116ZM238 246Q199 326 180 408T160 575Q160 741 221 909T391 1212Q516 1366 672 1443T1018 1520Q1148 1520 1253 1482T1442 1366L1645 1559L1735 1460L1526 1262Q1566 1189 1586 1105T1606
922Q1606 745 1547 580T1376 279Q1248 123 1094 47T750 -29Q611 -29 503 13T318 137L98 -66L8 33L238 246Z" />
<glyph unicode="&#xd9;" glyph-name="Ugrave" horiz-adv-x="1499" d="M219 1493H422L246 586Q235 525 231 486T226 416Q226 278 303 207T529 135Q722 135 829 241T983 586L1159 1493H1362L1182 561Q1123 259 958 115T506 -29Q282 -29 152 83T21 389Q21 424 26
467T41 561L219 1493ZM1456 1899L1604 1635H1464L1274 1899H1456Z" />
<glyph unicode="&#xda;" glyph-name="Uacute" horiz-adv-x="1499" d="M219 1493H422L246 586Q235 525 231 486T226 416Q226 278 303 207T529 135Q722 135 829 241T983 586L1159 1493H1362L1182 561Q1123 259 958 115T506 -29Q282 -29 152 83T21 389Q21 424 26
467T41 561L219 1493ZM1533 1899H1740L1433 1635H1275L1533 1899Z" />
<glyph unicode="&#xdb;" glyph-name="Ucircumflex" horiz-adv-x="1499" d="M219 1493H422L246 586Q235 525 231 486T226 416Q226 278 303 207T529 135Q722 135 829 241T983 586L1159 1493H1362L1182 561Q1123 259 958 115T506 -29Q282 -29 152 83T21 389Q21 424
26 467T41 561L219 1493ZM1541 1901H1756L1914 1635H1779L1639 1813L1430 1635H1279L1541 1901Z" />
<glyph unicode="&#xdc;" glyph-name="Udieresis" horiz-adv-x="1499" d="M219 1493H422L246 586Q235 525 231 486T226 416Q226 278 303 207T529 135Q722 135 829 241T983 586L1159 1493H1362L1182 561Q1123 259 958 115T506 -29Q282 -29 152 83T21 389Q21 424
26 467T41 561L219 1493ZM1340 1870H1544L1503 1667H1301L1340 1870ZM1731 1870H1933L1895 1667H1692L1731 1870Z" />
<glyph unicode="&#xdd;" glyph-name="Yacute" horiz-adv-x="1251" d="M11 1493H228L507 879L1039 1493H1266L589 711L451 0H249L386 711L11 1493ZM1410 1899H1617L1310 1635H1152L1410 1899Z" />
<glyph unicode="&#xde;" glyph-name="Thorn" horiz-adv-x="1139" d="M537 338H281L215 0H12L303 1493H506L455 1229H721Q925 1229 1032 1134T1139 856Q1139 610 981 474T537 338ZM424 1063L315 504H569Q741 504 833 591T926 844Q926 948 864 1005T688 1063H424Z" />
<glyph unicode="&#xdf;" glyph-name="germandbls" horiz-adv-x="1139" d="M230 1137Q268 1334 400 1445T730 1556Q904 1556 1012 1463T1121 1223Q1121 1198 1118 1168T1109 1100Q947 1092 847 1025T747 860Q747 820 768 784T837 711L886 672Q1005 578 1046 513T1087
367Q1087 195 948 83T591 -29Q515 -29 445 -17T312 20L343 184Q408 155 477 140T618 125Q742 125 819 182T896 330Q896 375 873 414T771 520L720 563Q623 645 590 700T556 823Q556 949 662 1050T941 1188Q943 1196 944 1206T945 1235Q945 1313 889 1358T732 1403Q599
1403 519 1335T413 1133L194 0H9L230 1137Z" />
<glyph unicode="&#xe0;" glyph-name="agrave" horiz-adv-x="1255" d="M1027 639L902 0H718L752 170Q671 70 568 21T337 -29Q194 -29 103 58T11 283Q11 479 167 593T599 707H855L865 756Q867 764 868 773T869 803Q869 892 797 941T593 991Q503 991 409 968T214
899L246 1069Q350 1108 449 1127T642 1147Q840 1147 943 1061T1047 811Q1047 778 1042 734T1027 639ZM828 563H644Q418 563 310 503T201 315Q201 227 256 177T410 127Q560 127 672 234T820 522L828 563ZM297 1638L506 1264H352L100 1638H297Z" />
<glyph unicode="&#xe1;" glyph-name="aacute" horiz-adv-x="1255" d="M1027 639L902 0H718L752 170Q671 70 568 21T337 -29Q194 -29 103 58T11 283Q11 479 167 593T599 707H855L865 756Q867 764 868 773T869 803Q869 892 797 941T593 991Q503 991 409 968T214
899L246 1069Q350 1108 449 1127T642 1147Q840 1147 943 1061T1047 811Q1047 778 1042 734T1027 639ZM828 563H644Q418 563 310 503T201 315Q201 227 256 177T410 127Q560 127 672 234T820 522L828 563ZM454 1638H653L254 1262H100L454 1638Z" />
<glyph unicode="&#xe2;" glyph-name="acircumflex" horiz-adv-x="1255" d="M1027 639L902 0H718L752 170Q671 70 568 21T337 -29Q194 -29 103 58T11 283Q11 479 167 593T599 707H855L865 756Q867 764 868 773T869 803Q869 892 797 941T593 991Q503 991 409 968T214
899L246 1069Q350 1108 449 1127T642 1147Q840 1147 943 1061T1047 811Q1047 778 1042 734T1027 639ZM828 563H644Q418 563 310 503T201 315Q201 227 256 177T410 127Q560 127 672 234T820 522L828 563ZM421 1638H569L741 1262H602L475 1499L241 1262H102L421 1638Z"
/>
<glyph unicode="&#xe3;" glyph-name="atilde" horiz-adv-x="1255" d="M1027 639L902 0H718L752 170Q671 70 568 21T337 -29Q194 -29 103 58T11 283Q11 479 167 593T599 707H855L865 756Q867 764 868 773T869 803Q869 892 797 941T593 991Q503 991 409 968T214
899L246 1069Q350 1108 449 1127T642 1147Q840 1147 943 1061T1047 811Q1047 778 1042 734T1027 639ZM828 563H644Q418 563 310 503T201 315Q201 227 256 177T410 127Q560 127 672 234T820 522L828 563ZM455 1370L410 1425Q397 1441 381 1451T349 1464Q310 1464
285 1428T242 1309H117Q147 1446 211 1518T367 1591Q404 1591 436 1576T494 1530L541 1475Q553 1459 567 1450T600 1436Q638 1436 662 1471T707 1591H832Q803 1454 739 1382T582 1309Q544 1309 511 1324T455 1370Z" />
<glyph unicode="&#xe4;" glyph-name="adieresis" horiz-adv-x="1255" d="M1027 639L902 0H718L752 170Q671 70 568 21T337 -29Q194 -29 103 58T11 283Q11 479 167 593T599 707H855L865 756Q867 764 868 773T869 803Q869 892 797 941T593 991Q503 991 409 968T214
899L246 1069Q350 1108 449 1127T642 1147Q840 1147 943 1061T1047 811Q1047 778 1042 734T1027 639ZM828 563H644Q418 563 310 503T201 315Q201 227 256 177T410 127Q560 127 672 234T820 522L828 563ZM166 1552H371L330 1350H127L166 1552ZM557 1552H760L721
1350H518L557 1552Z" />
<glyph unicode="&#xe5;" glyph-name="aring" horiz-adv-x="1255" d="M1027 639L902 0H718L752 170Q671 70 568 21T337 -29Q194 -29 103 58T11 283Q11 479 167 593T599 707H855L865 756Q867 764 868 773T869 803Q869 892 797 941T593 991Q503 991 409 968T214 899L246
1069Q350 1108 449 1127T642 1147Q840 1147 943 1061T1047 811Q1047 778 1042 734T1027 639ZM828 563H644Q418 563 310 503T201 315Q201 227 256 177T410 127Q560 127 672 234T820 522L828 563ZM665 1524Q665 1409 586 1329T390 1249Q275 1249 196 1329T116 1524Q116
1640 195 1719T390 1798Q506 1798 585 1719T665 1524ZM542 1524Q542 1588 499 1631T390 1675Q324 1675 282 1633T239 1524Q239 1458 281 1415T390 1372Q457 1372 499 1415T542 1524Z" />
<glyph unicode="&#xe6;" glyph-name="ae" horiz-adv-x="1905" d="M1699 660Q1702 676 1703 693T1705 727Q1705 849 1634 920T1439 991Q1302 991 1197 905T1038 659L1699 660ZM255 1069Q359 1108 458 1127T651 1147Q795 1147 888 1102T1026 965Q1112 1055 1224
1101T1468 1147Q1658 1147 1771 1033T1884 727Q1884 681 1878 629T1859 516H1003Q997 478 995 456T993 418Q993 279 1078 203T1320 127Q1440 127 1547 154T1746 233L1712 51Q1612 11 1507 -9T1292 -29Q1124 -29 1011 28T841 199Q739 81 629 26T387 -29Q213 -29
117 53T20 283Q20 479 176 593T608 707H864L874 756Q876 764 877 773T878 803Q878 892 806 941T602 991Q512 991 418 968T223 899L255 1069ZM837 563H653Q427 563 319 503T210 315Q210 227 265 177T419 127Q569 127 681 234T829 522L837 563Z" />
<glyph unicode="&#xe7;" glyph-name="ccedilla" horiz-adv-x="1126" d="M1018 1077L981 895Q915 943 841 967T686 991Q598 991 519 960T385 872Q299 785 252 668T205 426Q205 275 280 201T510 127Q586 127 671 150T850 219L815 37Q735 4 651 -12T477 -29Q254 -29
134 82T14 401Q14 575 76 721T262 985Q346 1065 459 1106T706 1147Q784 1147 861 1130T1018 1077ZM496 0Q532 -51 549 -94T566 -180Q566 -280 493 -337T291 -395Q248 -395 205 -389T119 -371L142 -240Q181 -256 220 -264T302 -272Q362 -272 397 -242T433 -158Q433
-129 421 -93T377 0H496Z" />
<glyph unicode="&#xe8;" glyph-name="egrave" horiz-adv-x="1260" d="M906 660Q909 676 910 693T912 727Q912 849 841 920T646 991Q509 991 404 905T245 659L906 660ZM1066 516H210Q204 478 202 456T200 418Q200 279 285 203T527 127Q647 127 754 154T953 233L918
51Q819 11 714 -9T499 -29Q266 -29 141 82T15 399Q15 574 77 724T261 993Q339 1067 446 1107T675 1147Q865 1147 977 1033T1090 727Q1090 681 1084 629T1066 516ZM308 1638L517 1264H363L111 1638H308Z" />
<glyph unicode="&#xe9;" glyph-name="eacute" horiz-adv-x="1260" d="M906 660Q909 676 910 693T912 727Q912 849 841 920T646 991Q509 991 404 905T245 659L906 660ZM1066 516H210Q204 478 202 456T200 418Q200 279 285 203T527 127Q647 127 754 154T953 233L918
51Q819 11 714 -9T499 -29Q266 -29 141 82T15 399Q15 574 77 724T261 993Q339 1067 446 1107T675 1147Q865 1147 977 1033T1090 727Q1090 681 1084 629T1066 516ZM465 1638H664L265 1262H111L465 1638Z" />
<glyph unicode="&#xea;" glyph-name="ecircumflex" horiz-adv-x="1260" d="M906 660Q909 676 910 693T912 727Q912 849 841 920T646 991Q509 991 404 905T245 659L906 660ZM1066 516H210Q204 478 202 456T200 418Q200 279 285 203T527 127Q647 127 754 154T953
233L918 51Q819 11 714 -9T499 -29Q266 -29 141 82T15 399Q15 574 77 724T261 993Q339 1067 446 1107T675 1147Q865 1147 977 1033T1090 727Q1090 681 1084 629T1066 516ZM432 1638H580L752 1262H613L486 1499L252 1262H113L432 1638Z" />
<glyph unicode="&#xeb;" glyph-name="edieresis" horiz-adv-x="1260" d="M906 660Q909 676 910 693T912 727Q912 849 841 920T646 991Q509 991 404 905T245 659L906 660ZM1066 516H210Q204 478 202 456T200 418Q200 279 285 203T527 127Q647 127 754 154T953 233L918
51Q819 11 714 -9T499 -29Q266 -29 141 82T15 399Q15 574 77 724T261 993Q339 1067 446 1107T675 1147Q865 1147 977 1033T1090 727Q1090 681 1084 629T1066 516ZM177 1552H382L341 1350H138L177 1552ZM568 1552H771L732 1350H529L568 1552Z" />
<glyph unicode="&#xec;" glyph-name="igrave" horiz-adv-x="569" d="M220 1120H404L185 0H1L220 1120ZM-60 1638L149 1264H-5L-257 1638H-60Z" />
<glyph unicode="&#xed;" glyph-name="iacute" horiz-adv-x="569" d="M220 1120H404L185 0H1L220 1120ZM97 1638H296L-103 1262H-257L97 1638Z" />
<glyph unicode="&#xee;" glyph-name="icircumflex" horiz-adv-x="569" d="M220 1120H404L185 0H1L220 1120ZM64 1638H212L384 1262H245L118 1499L-116 1262H-255L64 1638Z" />
<glyph unicode="&#xef;" glyph-name="idieresis" horiz-adv-x="569" d="M220 1120H404L185 0H1L220 1120ZM-191 1552H14L-27 1350H-230L-191 1552ZM200 1552H403L364 1350H161L200 1552Z" />
<glyph unicode="&#xf0;" glyph-name="eth" horiz-adv-x="1129" d="M931 1141Q999 1039 1033 929T1068 700Q1068 564 1029 438T914 211Q830 95 708 33T441 -29Q243 -29 125 88T7 401Q7 521 48 639T165 858Q253 974 374 1036T634 1098Q654 1098 683 1096T752 1088L628
1268L277 1161L245 1255L572 1352L433 1556H650L746 1411L1082 1520L1117 1425L804 1327L931 1141ZM828 915Q785 932 742 940T654 948Q452 948 325 798T198 408Q198 270 263 199T456 127Q638 127 760 288T882 694Q882 762 869 816T828 915Z" />
<glyph unicode="&#xf1;" glyph-name="ntilde" horiz-adv-x="1298" d="M1083 676L952 0H767L898 669Q907 716 912 752T917 809Q917 893 864 940T716 987Q568 987 461 889T321 621L198 0H14L231 1120H415L378 944Q455 1041 563 1094T790 1147Q938 1147 1019 1067T1101
842Q1101 806 1097 765T1083 676ZM492 1370L447 1425Q434 1441 418 1451T386 1464Q347 1464 322 1428T279 1309H154Q184 1446 248 1518T404 1591Q441 1591 473 1576T531 1530L578 1475Q590 1459 604 1450T637 1436Q675 1436 699 1471T744 1591H869Q840 1454 776
1382T619 1309Q581 1309 548 1324T492 1370Z" />
<glyph unicode="&#xf2;" glyph-name="ograve" horiz-adv-x="1253" d="M442 -29Q245 -29 131 92T16 424Q16 546 55 672T158 885Q257 1019 379 1083T655 1147Q846 1147 963 1028T1081 717Q1081 584 1042 452T940 233Q842 99 720 35T442 -29ZM207 430Q207 278 270
203T463 127Q648 127 769 288T891 698Q891 843 826 917T635 991Q531 991 450 943T305 795Q258 721 233 626T207 430ZM312 1638L521 1264H367L115 1638H312Z" />
<glyph unicode="&#xf3;" glyph-name="oacute" horiz-adv-x="1253" d="M442 -29Q245 -29 131 92T16 424Q16 546 55 672T158 885Q257 1019 379 1083T655 1147Q846 1147 963 1028T1081 717Q1081 584 1042 452T940 233Q842 99 720 35T442 -29ZM207 430Q207 278 270
203T463 127Q648 127 769 288T891 698Q891 843 826 917T635 991Q531 991 450 943T305 795Q258 721 233 626T207 430ZM469 1638H668L269 1262H115L469 1638Z" />
<glyph unicode="&#xf4;" glyph-name="ocircumflex" horiz-adv-x="1253" d="M442 -29Q245 -29 131 92T16 424Q16 546 55 672T158 885Q257 1019 379 1083T655 1147Q846 1147 963 1028T1081 717Q1081 584 1042 452T940 233Q842 99 720 35T442 -29ZM207 430Q207 278
270 203T463 127Q648 127 769 288T891 698Q891 843 826 917T635 991Q531 991 450 943T305 795Q258 721 233 626T207 430ZM436 1638H584L756 1262H617L490 1499L256 1262H117L436 1638Z" />
<glyph unicode="&#xf5;" glyph-name="otilde" horiz-adv-x="1253" d="M442 -29Q245 -29 131 92T16 424Q16 546 55 672T158 885Q257 1019 379 1083T655 1147Q846 1147 963 1028T1081 717Q1081 584 1042 452T940 233Q842 99 720 35T442 -29ZM207 430Q207 278 270
203T463 127Q648 127 769 288T891 698Q891 843 826 917T635 991Q531 991 450 943T305 795Q258 721 233 626T207 430ZM470 1370L425 1425Q412 1441 396 1451T364 1464Q325 1464 300 1428T257 1309H132Q162 1446 226 1518T382 1591Q419 1591 451 1576T509 1530L556
1475Q568 1459 582 1450T615 1436Q653 1436 677 1471T722 1591H847Q818 1454 754 1382T597 1309Q559 1309 526 1324T470 1370Z" />
<glyph unicode="&#xf6;" glyph-name="odieresis" horiz-adv-x="1253" d="M442 -29Q245 -29 131 92T16 424Q16 546 55 672T158 885Q257 1019 379 1083T655 1147Q846 1147 963 1028T1081 717Q1081 584 1042 452T940 233Q842 99 720 35T442 -29ZM207 430Q207 278
270 203T463 127Q648 127 769 288T891 698Q891 843 826 917T635 991Q531 991 450 943T305 795Q258 721 233 626T207 430ZM181 1552H386L345 1350H142L181 1552ZM572 1552H775L736 1350H533L572 1552Z" />
<glyph unicode="&#xf7;" glyph-name="divide" horiz-adv-x="1282" d="M518 1135H764V889H518V1135ZM518 395H764V150H518V395ZM0 727H1282V557H0V727Z" />
<glyph unicode="&#xf8;" glyph-name="oslash" horiz-adv-x="1317" d="M937 922Q900 957 854 974T749 991Q563 991 443 831T323 420Q323 373 324 353T331 315L937 922ZM190 172Q160 221 145 284T130 422Q130 544 169 671T272 885Q370 1019 491 1083T769 1147Q856
1147 930 1121T1062 1044L1224 1208L1310 1122L1138 950Q1166 895 1180 833T1195 702Q1195 578 1156 449T1054 233Q957 99 836 35T556 -29Q469 -29 396 -3T265 76L93 -94L7 -10L190 172ZM997 809L388 199Q427 162 472 145T577 127Q766 127 885 290T1005 717Q1005
756 1003 775T997 809Z" />
<glyph unicode="&#xf9;" glyph-name="ugrave" horiz-adv-x="1298" d="M42 444L173 1120H358L227 451Q217 402 213 367T208 309Q208 224 260 178T407 131Q555 131 663 231T804 500L927 1120H1111L894 0H710L747 176Q669 78 562 25T333 -29Q186 -29 104 51T22 276Q22
306 27 351T42 444ZM303 1638L512 1264H358L106 1638H303Z" />
<glyph unicode="&#xfa;" glyph-name="uacute" horiz-adv-x="1298" d="M42 444L173 1120H358L227 451Q217 402 213 367T208 309Q208 224 260 178T407 131Q555 131 663 231T804 500L927 1120H1111L894 0H710L747 176Q669 78 562 25T333 -29Q186 -29 104 51T22 276Q22
306 27 351T42 444ZM460 1638H659L260 1262H106L460 1638Z" />
<glyph unicode="&#xfb;" glyph-name="ucircumflex" horiz-adv-x="1298" d="M42 444L173 1120H358L227 451Q217 402 213 367T208 309Q208 224 260 178T407 131Q555 131 663 231T804 500L927 1120H1111L894 0H710L747 176Q669 78 562 25T333 -29Q186 -29 104 51T22
276Q22 306 27 351T42 444ZM427 1638H575L747 1262H608L481 1499L247 1262H108L427 1638Z" />
<glyph unicode="&#xfc;" glyph-name="udieresis" horiz-adv-x="1298" d="M42 444L173 1120H358L227 451Q217 402 213 367T208 309Q208 224 260 178T407 131Q555 131 663 231T804 500L927 1120H1111L894 0H710L747 176Q669 78 562 25T333 -29Q186 -29 104 51T22
276Q22 306 27 351T42 444ZM172 1552H377L336 1350H133L172 1552ZM563 1552H766L727 1350H524L563 1552Z" />
<glyph unicode="&#xfd;" glyph-name="yacute" horiz-adv-x="1212" d="M571 -104Q443 -319 363 -372T157 -426H12L43 -272H149Q226 -272 280 -230T401 -66L458 41L210 1120H405L591 262L1105 1120H1298L571 -104ZM448 1638H647L248 1262H94L448 1638Z" />
<glyph unicode="&#xfe;" glyph-name="thorn" horiz-adv-x="1220" d="M1030 690Q1030 837 966 915T782 993Q700 993 626 951T493 829Q436 750 402 638T368 416Q368 276 432 201T614 125Q701 125 775 166T903 285Q960 367 995 478T1030 690ZM460 950Q534 1047 634
1097T858 1147Q1030 1147 1125 1035T1220 719Q1220 553 1161 403T991 133Q917 54 824 13T628 -29Q509 -29 428 20T307 168L192 -426H8L389 1556H573L460 950Z" />
<glyph unicode="&#xff;" glyph-name="ydieresis" horiz-adv-x="1212" d="M571 -104Q443 -319 363 -372T157 -426H12L43 -272H149Q226 -272 280 -230T401 -66L458 41L210 1120H405L591 262L1105 1120H1298L571 -104ZM160 1552H365L324 1350H121L160 1552ZM551 1552H754L715
1350H512L551 1552Z" />
<glyph unicode="&#x100;" glyph-name="Amacron" horiz-adv-x="1401" d="M863 1493H1092L1369 0H1158L1096 383H424L213 0H0L863 1493ZM936 1294L517 551H1065L936 1294ZM246 1841H844L815 1693H217L246 1841Z" />
<glyph unicode="&#x101;" glyph-name="amacron" horiz-adv-x="1255" d="M1027 639L902 0H718L752 170Q671 70 568 21T337 -29Q194 -29 103 58T11 283Q11 479 167 593T599 707H855L865 756Q867 764 868 773T869 803Q869 892 797 941T593 991Q503 991 409 968T214
899L246 1069Q350 1108 449 1127T642 1147Q840 1147 943 1061T1047 811Q1047 778 1042 734T1027 639ZM828 563H644Q418 563 310 503T201 315Q201 227 256 177T410 127Q560 127 672 234T820 522L828 563ZM132 1526H730L701 1378H103L132 1526Z" />
<glyph unicode="&#x102;" glyph-name="Abreve" horiz-adv-x="1401" d="M264 1897H378V1882Q378 1814 420 1781T548 1747Q633 1747 688 1783T774 1897H890Q858 1758 763 1684T522 1610Q394 1610 328 1674T262 1864Q262 1870 263 1881T264 1897ZM863 1493H1092L1369
0H1158L1096 383H424L213 0H0L863 1493ZM936 1294L517 551H1065L936 1294Z" />
<glyph unicode="&#x103;" glyph-name="abreve" horiz-adv-x="1255" d="M137 1815H251V1800Q251 1732 293 1699T421 1665Q506 1665 561 1701T647 1815H763Q731 1676 636 1602T395 1528Q267 1528 201 1592T135 1782Q135 1788 136 1799T137 1815ZM1027 639L902 0H718L752
170Q671 70 568 21T337 -29Q194 -29 103 58T11 283Q11 479 167 593T599 707H855L865 756Q867 764 868 773T869 803Q869 892 797 941T593 991Q503 991 409 968T214 899L246 1069Q350 1108 449 1127T642 1147Q840 1147 943 1061T1047 811Q1047 778 1042 734T1027
639ZM828 563H644Q418 563 310 503T201 315Q201 227 256 177T410 127Q560 127 672 234T820 522L828 563Z" />
<glyph unicode="&#x104;" glyph-name="Aogonek" horiz-adv-x="1401" d="M861 0H980Q916 -67 885 -117T853 -203Q853 -238 875 -255T943 -272Q972 -272 1006 -265T1078 -242L1054 -374Q1017 -386 982 -391T915 -397Q812 -397 760 -359T708 -246Q708 -194 746 -133T861
0ZM863 1493H1092L1369 0H1158L1096 383H424L213 0H0L863 1493ZM936 1294L517 551H1065L936 1294Z" />
<glyph unicode="&#x105;" glyph-name="aogonek" horiz-adv-x="1255" d="M604 0H723Q659 -67 628 -117T596 -203Q596 -238 618 -255T686 -272Q715 -272 749 -265T821 -242L797 -374Q760 -386 725 -391T658 -397Q555 -397 503 -359T451 -246Q451 -194 489 -133T604
0ZM1027 639L902 0H718L752 170Q671 70 568 21T337 -29Q194 -29 103 58T11 283Q11 479 167 593T599 707H855L865 756Q867 764 868 773T869 803Q869 892 797 941T593 991Q503 991 409 968T214 899L246 1069Q350 1108 449 1127T642 1147Q840 1147 943 1061T1047 811Q1047
778 1042 734T1027 639ZM828 563H644Q418 563 310 503T201 315Q201 227 256 177T410 127Q560 127 672 234T820 522L828 563Z" />
<glyph unicode="&#x106;" glyph-name="Cacute" horiz-adv-x="1430" d="M1352 1378L1311 1165Q1215 1262 1108 1309T875 1356Q704 1356 575 1274T351 1024Q291 916 260 796T228 553Q228 349 333 242T640 135Q779 135 907 179T1156 313L1109 74Q990 23 869 -3T625
-29Q338 -29 177 127T15 561Q15 739 76 911T253 1225Q375 1376 531 1448T896 1520Q1024 1520 1138 1485T1352 1378ZM1584 1899H1791L1484 1635H1326L1584 1899Z" />
<glyph unicode="&#x107;" glyph-name="cacute" horiz-adv-x="1126" d="M1018 1077L981 895Q915 943 841 967T686 991Q598 991 519 960T385 872Q299 785 252 668T205 426Q205 275 280 201T510 127Q586 127 671 150T850 219L815 37Q735 4 651 -12T477 -29Q254 -29
134 82T14 401Q14 575 76 721T262 985Q346 1065 459 1106T706 1147Q784 1147 861 1130T1018 1077ZM473 1638H672L273 1262H119L473 1638Z" />
<glyph unicode="&#x108;" glyph-name="Ccircumflex" horiz-adv-x="1430" d="M1626 1901H1841L1999 1635H1864L1724 1813L1515 1635H1364L1626 1901ZM1352 1378L1311 1165Q1215 1262 1108 1309T875 1356Q704 1356 575 1274T351 1024Q291 916 260 796T228 553Q228
349 333 242T640 135Q779 135 907 179T1156 313L1109 74Q990 23 869 -3T625 -29Q338 -29 177 127T15 561Q15 739 76 911T253 1225Q375 1376 531 1448T896 1520Q1024 1520 1138 1485T1352 1378Z" />
<glyph unicode="&#x109;" glyph-name="ccircumflex" horiz-adv-x="1126" d="M473 1638H621L793 1262H654L527 1499L293 1262H154L473 1638ZM1018 1077L981 895Q915 943 841 967T686 991Q598 991 519 960T385 872Q299 785 252 668T205 426Q205 275 280 201T510
127Q586 127 671 150T850 219L815 37Q735 4 651 -12T477 -29Q254 -29 134 82T14 401Q14 575 76 721T262 985Q346 1065 459 1106T706 1147Q784 1147 861 1130T1018 1077Z" />
<glyph unicode="&#x10a;" glyph-name="Cdotaccent" horiz-adv-x="1430" d="M1410 1872H1613L1574 1667H1369L1410 1872ZM1352 1378L1311 1165Q1215 1262 1108 1309T875 1356Q704 1356 575 1274T351 1024Q291 916 260 796T228 553Q228 349 333 242T640 135Q779
135 907 179T1156 313L1109 74Q990 23 869 -3T625 -29Q338 -29 177 127T15 561Q15 739 76 911T253 1225Q375 1376 531 1448T896 1520Q1024 1520 1138 1485T1352 1378Z" />
<glyph unicode="&#x10b;" glyph-name="cdotaccent" horiz-adv-x="1126" d="M1120 1556H1304L1259 1323H1075L1120 1556ZM1018 1077L981 895Q915 943 841 967T686 991Q598 991 519 960T385 872Q299 785 252 668T205 426Q205 275 280 201T510 127Q586 127 671 150T850
219L815 37Q735 4 651 -12T477 -29Q254 -29 134 82T14 401Q14 575 76 721T262 985Q346 1065 459 1106T706 1147Q784 1147 861 1130T1018 1077Z" />
<glyph unicode="&#x10c;" glyph-name="Ccaron" horiz-adv-x="1430" d="M1352 1378L1311 1165Q1215 1262 1108 1309T875 1356Q704 1356 575 1274T351 1024Q291 916 260 796T228 553Q228 349 333 242T640 135Q779 135 907 179T1156 313L1109 74Q990 23 869 -3T625
-29Q338 -29 177 127T15 561Q15 739 76 911T253 1225Q375 1376 531 1448T896 1520Q1024 1520 1138 1485T1352 1378ZM1708 1635H1495L1337 1901H1471L1610 1723L1819 1901H1970L1708 1635Z" />
<glyph unicode="&#x10d;" glyph-name="ccaron" horiz-adv-x="1126" d="M1018 1077L981 895Q915 943 841 967T686 991Q598 991 519 960T385 872Q299 785 252 668T205 426Q205 275 280 201T510 127Q586 127 671 150T850 219L815 37Q735 4 651 -12T477 -29Q254 -29
134 82T14 401Q14 575 76 721T262 985Q346 1065 459 1106T706 1147Q784 1147 861 1130T1018 1077ZM449 1262H302L130 1638H271L398 1401L629 1638H769L449 1262Z" />
<glyph unicode="&#x10e;" glyph-name="Dcaron" horiz-adv-x="1577" d="M307 1493H741Q1087 1493 1263 1347T1440 911Q1440 720 1373 544T1188 246Q1069 122 886 61T453 0H16L307 1493ZM477 1327L252 166H516Q855 166 1041 361T1227 911Q1227 1126 1107 1226T731
1327H477ZM1630 1635H1417L1259 1901H1393L1532 1723L1741 1901H1892L1630 1635Z" />
<glyph unicode="&#x10f;" glyph-name="dcaron" horiz-adv-x="1300" d="M763 168Q689 71 588 21T364 -29Q196 -29 99 85T1 399Q1 565 60 715T231 985Q305 1064 398 1105T593 1147Q701 1147 783 1095T911 946L1031 1556H1216L913 0H728L763 168ZM192 432Q192 287
257 206T439 125Q525 125 598 166T728 289Q787 373 821 483T855 700Q855 839 790 917T609 995Q522 995 447 954T319 836Q261 753 227 643T192 432ZM1992 1555H2191L2017 1179H1863L1992 1555Z" />
<glyph unicode="&#x110;" glyph-name="Dcroat" horiz-adv-x="1587" d="M367 1493H802Q1147 1493 1323 1347T1500 911Q1500 721 1433 545T1246 246Q1127 122 945 61T513 0H77L212 700H11L40 844H240L367 1493ZM537 1327L443 844H779L750 700H414L312 166H576Q916
166 1101 361T1287 911Q1287 1126 1167 1226T791 1327H537Z" />
<glyph unicode="&#x111;" glyph-name="" horiz-adv-x="1350" d="M766 168Q692 71 591 21T367 -29Q199 -29 102 85T4 399Q4 565 63 715T234 985Q308 1064 401 1105T596 1147Q704 1147 786 1095T914 946L981 1284H655L682 1407H1008L1034 1556H1219L1192 1407H1346L1319
1284H1165L916 0H731L766 168ZM195 432Q195 287 260 206T442 125Q528 125 601 166T731 289Q790 373 824 483T858 700Q858 839 793 917T612 995Q525 995 450 954T322 836Q264 753 230 643T195 432Z" />
<glyph unicode="&#x112;" glyph-name="Emacron" horiz-adv-x="1294" d="M304 1493H1248L1215 1323H472L386 881H1099L1066 711H353L249 170H1009L976 0H13L304 1493ZM219 1843H817L788 1695H190L219 1843Z" />
<glyph unicode="&#x113;" glyph-name="emacron" horiz-adv-x="1260" d="M906 660Q909 676 910 693T912 727Q912 849 841 920T646 991Q509 991 404 905T245 659L906 660ZM1066 516H210Q204 478 202 456T200 418Q200 279 285 203T527 127Q647 127 754 154T953 233L918
51Q819 11 714 -9T499 -29Q266 -29 141 82T15 399Q15 574 77 724T261 993Q339 1067 446 1107T675 1147Q865 1147 977 1033T1090 727Q1090 681 1084 629T1066 516ZM208 1526H806L777 1378H179L208 1526Z" />
<glyph unicode="&#x114;" glyph-name="Ebreve" horiz-adv-x="1294" d="M1200 1901H1319Q1331 1840 1370 1813T1485 1786Q1571 1786 1625 1813T1708 1901H1827Q1793 1788 1701 1724T1481 1659Q1360 1659 1290 1719T1200 1901ZM304 1493H1248L1215 1323H472L386
881H1099L1066 711H353L249 170H1009L976 0H13L304 1493Z" />
<glyph unicode="&#x115;" glyph-name="ebreve" horiz-adv-x="1260" d="M135 1608H249V1593Q249 1525 291 1492T419 1458Q504 1458 559 1494T645 1608H761Q729 1469 634 1395T393 1321Q265 1321 199 1385T133 1575Q133 1581 134 1592T135 1608ZM906 660Q909 676
910 693T912 727Q912 849 841 920T646 991Q509 991 404 905T245 659L906 660ZM1066 516H210Q204 478 202 456T200 418Q200 279 285 203T527 127Q647 127 754 154T953 233L918 51Q819 11 714 -9T499 -29Q266 -29 141 82T15 399Q15 574 77 724T261 993Q339 1067 446
1107T675 1147Q865 1147 977 1033T1090 727Q1090 681 1084 629T1066 516Z" />
<glyph unicode="&#x116;" glyph-name="Edotaccent" horiz-adv-x="1294" d="M1243 1872H1446L1407 1667H1202L1243 1872ZM304 1493H1248L1215 1323H472L386 881H1099L1066 711H353L249 170H1009L976 0H13L304 1493Z" />
<glyph unicode="&#x117;" glyph-name="edotaccent" horiz-adv-x="1260" d="M1079 1556H1263L1218 1323H1034L1079 1556ZM906 660Q909 676 910 693T912 727Q912 849 841 920T646 991Q509 991 404 905T245 659L906 660ZM1066 516H210Q204 478 202 456T200 418Q200
279 285 203T527 127Q647 127 754 154T953 233L918 51Q819 11 714 -9T499 -29Q266 -29 141 82T15 399Q15 574 77 724T261 993Q339 1067 446 1107T675 1147Q865 1147 977 1033T1090 727Q1090 681 1084 629T1066 516Z" />
<glyph unicode="&#x118;" glyph-name="Eogonek" horiz-adv-x="1294" d="M616 0H735Q671 -67 640 -117T608 -203Q608 -238 630 -255T698 -272Q727 -272 761 -265T833 -242L809 -374Q772 -386 737 -391T670 -397Q567 -397 515 -359T463 -246Q463 -194 501 -133T616
0ZM304 1493H1248L1215 1323H472L386 881H1099L1066 711H353L249 170H1009L976 0H13L304 1493Z" />
<glyph unicode="&#x119;" glyph-name="eogonek" horiz-adv-x="1260" d="M523 0H642Q578 -67 547 -117T515 -203Q515 -238 537 -255T605 -272Q634 -272 668 -265T740 -242L716 -374Q679 -386 644 -391T577 -397Q474 -397 422 -359T370 -246Q370 -194 408 -133T523
0ZM906 660Q909 676 910 693T912 727Q912 849 841 920T646 991Q509 991 404 905T245 659L906 660ZM1066 516H210Q204 478 202 456T200 418Q200 279 285 203T527 127Q647 127 754 154T953 233L918 51Q819 11 714 -9T499 -29Q266 -29 141 82T15 399Q15 574 77 724T261
993Q339 1067 446 1107T675 1147Q865 1147 977 1033T1090 727Q1090 681 1084 629T1066 516Z" />
<glyph unicode="&#x11a;" glyph-name="Ecaron" horiz-adv-x="1294" d="M304 1493H1248L1215 1323H472L386 881H1099L1066 711H353L249 170H1009L976 0H13L304 1493ZM1594 1635H1381L1223 1901H1357L1496 1723L1705 1901H1856L1594 1635Z" />
<glyph unicode="&#x11b;" glyph-name="ecaron" horiz-adv-x="1260" d="M906 660Q909 676 910 693T912 727Q912 849 841 920T646 991Q509 991 404 905T245 659L906 660ZM1066 516H210Q204 478 202 456T200 418Q200 279 285 203T527 127Q647 127 754 154T953 233L918
51Q819 11 714 -9T499 -29Q266 -29 141 82T15 399Q15 574 77 724T261 993Q339 1067 446 1107T675 1147Q865 1147 977 1033T1090 727Q1090 681 1084 629T1066 516ZM449 1262H302L130 1638H271L398 1401L629 1638H769L449 1262Z" />
<glyph unicode="&#x11c;" glyph-name="Gcircumflex" horiz-adv-x="1587" d="M1630 1901H1845L2003 1635H1868L1728 1813L1519 1635H1368L1630 1901ZM1041 223L1119 614H787L818 780H1348L1219 123Q1086 50 929 11T613 -29Q332 -29 174 127T15 561Q15 792 111 1000T378
1348Q485 1435 612 1477T894 1520Q1034 1520 1162 1485T1408 1378L1367 1163Q1277 1257 1156 1306T898 1356Q739 1356 618 1296T402 1108Q321 1000 275 854T228 555Q228 346 335 241T654 135Q760 135 859 157T1041 223Z" />
<glyph unicode="&#x11d;" glyph-name="gcircumflex" horiz-adv-x="1300" d="M460 1638H608L780 1262H641L514 1499L280 1262H141L460 1638ZM1171 1120L980 139Q925 -146 770 -286T351 -426Q254 -426 171 -412T16 -367L50 -188Q118 -232 194 -253T356 -274Q531
-274 643 -179T792 96L808 180Q731 92 629 46T409 0Q239 0 142 112T44 422Q44 577 103 725T269 989Q340 1065 434 1106T632 1147Q745 1147 829 1095T954 946L986 1120H1171ZM894 709Q894 845 830 919T648 993Q575 993 509 964T396 883Q320 797 278 681T235 440Q235
302 299 228T485 154Q660 154 777 312T894 709Z" />
<glyph unicode="&#x11e;" glyph-name="Gbreve" horiz-adv-x="1587" d="M1041 223L1119 614H787L818 780H1348L1219 123Q1086 50 929 11T613 -29Q332 -29 174 127T15 561Q15 792 111 1000T378 1348Q485 1435 612 1477T894 1520Q1034 1520 1162 1485T1408 1378L1367
1163Q1277 1257 1156 1306T898 1356Q739 1356 618 1296T402 1108Q321 1000 275 854T228 555Q228 346 335 241T654 135Q760 135 859 157T1041 223ZM1335 1901H1454Q1466 1840 1505 1813T1620 1786Q1706 1786 1760 1813T1843 1901H1962Q1928 1788 1836 1724T1616
1659Q1495 1659 1425 1719T1335 1901Z" />
<glyph unicode="&#x11f;" glyph-name="gbreve" horiz-adv-x="1300" d="M1171 1120L980 139Q925 -146 770 -286T351 -426Q254 -426 171 -412T16 -367L50 -188Q118 -232 194 -253T356 -274Q531 -274 643 -179T792 96L808 180Q731 92 629 46T409 0Q239 0 142 112T44
422Q44 577 103 725T269 989Q340 1065 434 1106T632 1147Q745 1147 829 1095T954 946L986 1120H1171ZM894 709Q894 845 830 919T648 993Q575 993 509 964T396 883Q320 797 278 681T235 440Q235 302 299 228T485 154Q660 154 777 312T894 709ZM163 1608H277V1593Q277
1525 319 1492T447 1458Q532 1458 587 1494T673 1608H789Q757 1469 662 1395T421 1321Q293 1321 227 1385T161 1575Q161 1581 162 1592T163 1608Z" />
<glyph unicode="&#x120;" glyph-name="Gdotaccent" horiz-adv-x="1587" d="M1414 1872H1617L1578 1667H1373L1414 1872ZM1041 223L1119 614H787L818 780H1348L1219 123Q1086 50 929 11T613 -29Q332 -29 174 127T15 561Q15 792 111 1000T378 1348Q485 1435 612
1477T894 1520Q1034 1520 1162 1485T1408 1378L1367 1163Q1277 1257 1156 1306T898 1356Q739 1356 618 1296T402 1108Q321 1000 275 854T228 555Q228 346 335 241T654 135Q760 135 859 157T1041 223Z" />
<glyph unicode="&#x121;" glyph-name="gdotaccent" horiz-adv-x="1300" d="M1107 1556H1291L1246 1323H1062L1107 1556ZM1171 1120L980 139Q925 -146 770 -286T351 -426Q254 -426 171 -412T16 -367L50 -188Q118 -232 194 -253T356 -274Q531 -274 643 -179T792
96L808 180Q731 92 629 46T409 0Q239 0 142 112T44 422Q44 577 103 725T269 989Q340 1065 434 1106T632 1147Q745 1147 829 1095T954 946L986 1120H1171ZM894 709Q894 845 830 919T648 993Q575 993 509 964T396 883Q320 797 278 681T235 440Q235 302 299 228T485
154Q660 154 777 312T894 709Z" />
<glyph unicode="&#x122;" glyph-name="Gcommaaccent" horiz-adv-x="1587" d="M1408 -190H1619L1393 -510H1264L1408 -190ZM1041 223L1119 614H787L818 780H1348L1219 123Q1086 50 929 11T613 -29Q332 -29 174 127T15 561Q15 792 111 1000T378 1348Q485 1435 612
1477T894 1520Q1034 1520 1162 1485T1408 1378L1367 1163Q1277 1257 1156 1306T898 1356Q739 1356 618 1296T402 1108Q321 1000 275 854T228 555Q228 346 335 241T654 135Q760 135 859 157T1041 223Z" />
<glyph unicode="&#x123;" glyph-name="gcommaaccent" horiz-adv-x="1300" d="M1255 1269H1044L1269 1588H1398L1255 1269ZM1171 1120L980 139Q925 -146 770 -286T351 -426Q254 -426 171 -412T16 -367L50 -188Q118 -232 194 -253T356 -274Q531 -274 643 -179T792
96L808 180Q731 92 629 46T409 0Q239 0 142 112T44 422Q44 577 103 725T269 989Q340 1065 434 1106T632 1147Q745 1147 829 1095T954 946L986 1120H1171ZM894 709Q894 845 830 919T648 993Q575 993 509 964T396 883Q320 797 278 681T235 440Q235 302 299 228T485
154Q660 154 777 312T894 709Z" />
<glyph unicode="&#x124;" glyph-name="Hcircumflex" horiz-adv-x="1540" d="M1580 1901H1795L1953 1635H1818L1678 1813L1469 1635H1318L1580 1901ZM307 1493H510L391 881H1124L1243 1493H1446L1155 0H952L1091 711H358L219 0H16L307 1493Z" />
<glyph unicode="&#x125;" glyph-name="hcircumflex" horiz-adv-x="1298" d="M1101 1901H1316L1474 1635H1339L1199 1813L990 1635H839L1101 1901ZM1079 676L948 0H763L894 669Q903 716 908 752T913 809Q913 893 860 940T712 987Q564 987 456 887T315 621L194 0H10L313
1556H497L378 944Q448 1038 557 1092T786 1147Q934 1147 1015 1067T1097 842Q1097 806 1093 765T1079 676Z" />
<glyph unicode="&#x126;" glyph-name="Hbar" horiz-adv-x="1580" d="M309 1493H511L468 1269H1202L1245 1493H1447L1404 1269H1572L1540 1105H1372L1157 0H955L1093 711H359L221 0H19L234 1105H66L98 1269H266L309 1493ZM436 1105L392 881H1126L1170 1105H436Z" />
<glyph unicode="&#x127;" glyph-name="hbar" horiz-adv-x="1112" d="M1084 676L953 0H769L899 670Q911 733 911 784Q911 860 883 908Q837 987 713 987Q564 987 459 892Q355 797 323 633L200 0H15L262 1270H137L169 1434H294L317 1556H502L479 1434H831L799 1270H447L384
946Q469 1047 569 1097Q667 1147 785 1147Q977 1147 1053 1028Q1101 952 1101 834Q1101 762 1084 676Z" />
<glyph unicode="&#x128;" glyph-name="Itilde" horiz-adv-x="604" d="M1192 1710L1157 1735L1156 1736Q1113 1768 1075 1768Q1041 1768 1014 1743T969 1667H844Q879 1776 940 1831T1087 1886Q1122 1886 1152 1875T1219 1839L1251 1813Q1269 1799 1288 1793T1327
1786Q1366 1786 1394 1813T1434 1886H1559Q1526 1777 1464 1722T1309 1667Q1278 1667 1251 1677T1192 1710ZM291 1493H494L203 0H0L291 1493Z" />
<glyph unicode="&#x129;" glyph-name="itilde" horiz-adv-x="569" d="M98 1370L53 1425Q40 1441 24 1451T-8 1464Q-47 1464 -72 1428T-115 1309H-240Q-210 1446 -146 1518T10 1591Q47 1591 79 1576T137 1530L184 1475Q196 1459 210 1450T243 1436Q281 1436 305
1471T350 1591H475Q446 1454 382 1382T225 1309Q187 1309 154 1324T98 1370ZM220 1120H404L185 0H1L220 1120Z" />
<glyph unicode="&#x12a;" glyph-name="Imacron" horiz-adv-x="604" d="M291 1493H494L203 0H0L291 1493ZM-151 1841H447L418 1693H-180L-151 1841Z" />
<glyph unicode="&#x12b;" glyph-name="imacron" horiz-adv-x="569" d="M220 1120H404L185 0H1L220 1120ZM-168 1526H430L401 1378H-197L-168 1526Z" />
<glyph unicode="&#x12c;" glyph-name="Ibreve" horiz-adv-x="604" d="M843 1901H962Q974 1840 1013 1813T1128 1786Q1214 1786 1268 1813T1351 1901H1470Q1436 1788 1344 1724T1124 1659Q1003 1659 933 1719T843 1901ZM291 1493H494L203 0H0L291 1493Z" />
<glyph unicode="&#x12d;" glyph-name="ibreve" horiz-adv-x="569" d="M-233 1608H-119V1593Q-119 1525 -77 1492T51 1458Q136 1458 191 1494T277 1608H393Q361 1469 266 1395T25 1321Q-103 1321 -169 1385T-235 1575Q-235 1581 -234 1592T-233 1608ZM220 1120H404L185
0H1L220 1120Z" />
<glyph unicode="&#x12e;" glyph-name="Iogonek" horiz-adv-x="604" d="M-48 0H71Q7 -67 -24 -117T-56 -203Q-56 -238 -34 -255T34 -272Q63 -272 97 -265T169 -242L145 -374Q108 -386 73 -391T6 -397Q-97 -397 -149 -359T-201 -246Q-201 -194 -163 -133T-48 0ZM291
1493H494L203 0H0L291 1493Z" />
<glyph unicode="&#x12f;" glyph-name="iogonek" horiz-adv-x="569" d="M-50 0H69Q5 -67 -26 -117T-58 -203Q-58 -238 -36 -255T32 -272Q61 -272 95 -265T167 -242L143 -374Q106 -386 71 -391T4 -397Q-99 -397 -151 -359T-203 -246Q-203 -194 -165 -133T-50 0ZM303
1556H487L442 1323H258L303 1556ZM219 1120H403L184 0H0L219 1120Z" />
<glyph unicode="&#x130;" glyph-name="Idot" horiz-adv-x="604" d="M291 1493H494L203 0H0L291 1493ZM886 1872H1089L1050 1667H845L886 1872Z" />
<glyph unicode="&#x131;" glyph-name="dotlessi" horiz-adv-x="405" d="M220 1120H404L185 0H1L220 1120Z" />
<glyph unicode="&#x132;" glyph-name="IJ" horiz-adv-x="1208" d="M291 1493H494L203 0H0L291 1493ZM1282 1493H1485L1214 104Q1161 -167 1036 -288T684 -410H604L637 -240H700Q835 -240 905 -163T1012 104L1282 1493Z" />
<glyph unicode="&#x133;" glyph-name="ij" horiz-adv-x="1138" d="M303 1556H487L442 1323H258L303 1556ZM219 1120H403L184 0H0L219 1120ZM1096 1120H1280L1059 -20L1058 -25Q1021 -216 973 -287Q928 -354 842 -390T637 -426H568L598 -270H645Q753 -270 798 -225T875
-20L1096 1120ZM1182 1556H1366L1321 1323H1137L1182 1556Z" />
<glyph unicode="&#x134;" glyph-name="Jcircumflex" horiz-adv-x="604" d="M1108 1901H1323L1481 1635H1346L1206 1813L997 1635H846L1108 1901ZM678 1493H881L610 104Q557 -167 432 -288T80 -410H0L33 -240H96Q231 -240 301 -163T408 104L678 1493Z" />
<glyph unicode="&#x135;" glyph-name="jcircumflex" horiz-adv-x="569" d="M83 1638H231L403 1262H264L137 1499L-97 1262H-236L83 1638ZM528 1120H712L491 -20L490 -25Q453 -216 405 -287Q360 -354 274 -390T69 -426H0L30 -270H77Q185 -270 230 -225T307 -20L528 1120Z" />
<glyph unicode="&#x136;" glyph-name="Kcommaaccent" horiz-adv-x="1343" d="M1366 -162H1577L1351 -482H1222L1366 -162ZM307 1493H510L387 864L1171 1493H1440L553 780L1202 0H956L360 727L219 0H16L307 1493Z" />
<glyph unicode="&#x137;" glyph-name="kcommaaccent" horiz-adv-x="1186" d="M1286 -162H1497L1271 -482H1142L1286 -162ZM315 1556H499L323 649L954 1120H1193L489 584L1003 0H780L302 547L196 0H12L315 1556Z" />
<glyph unicode="&#x138;" glyph-name="kgreenlandic" horiz-adv-x="1211" d="M235 1120H420L326 635L969 1120H1204L508 594L1011 0H771L308 545L202 0H17L235 1120Z" />
<glyph unicode="&#x139;" glyph-name="Lacute" horiz-adv-x="1141" d="M1167 1900H1374L1067 1636H909L1167 1900ZM298 1493H501L245 168H972L939 0H9L298 1493Z" />
<glyph unicode="&#x13a;" glyph-name="lacute" horiz-adv-x="569" d="M1167 1900H1374L1067 1636H909L1167 1900ZM303 1556H487L184 0H0L303 1556Z" />
<glyph unicode="&#x13b;" glyph-name="Lcommaaccent" horiz-adv-x="1141" d="M1238 -162H1449L1223 -482H1094L1238 -162ZM298 1493H501L245 168H972L939 0H9L298 1493Z" />
<glyph unicode="&#x13c;" glyph-name="lcommaaccent" horiz-adv-x="569" d="M882 -162H1093L867 -482H738L882 -162ZM303 1556H487L184 0H0L303 1556Z" />
<glyph unicode="&#x13d;" glyph-name="Lcaron" horiz-adv-x="1141" d="M1280 1493H1479L1305 1117H1151L1280 1493ZM298 1493H501L245 168H972L939 0H9L298 1493Z" />
<glyph unicode="&#x13e;" glyph-name="lcaron" horiz-adv-x="569" d="M1284 1557H1483L1309 1181H1155L1284 1557ZM303 1556H487L184 0H0L303 1556Z" />
<glyph unicode="&#x13f;" glyph-name="Ldot" horiz-adv-x="1141" d="M482 875H693L643 621H432L482 875ZM298 1493H501L245 168H972L939 0H9L298 1493Z" />
<glyph unicode="&#x140;" glyph-name="ldot" horiz-adv-x="569" d="M480 809H691L641 555H430L480 809ZM303 1556H487L184 0H0L303 1556Z" />
<glyph unicode="&#x141;" glyph-name="Lslash" horiz-adv-x="1072" d="M398 1493H601L476 860L828 1016L884 891L445 698L345 168H1072L1039 0H110L224 600L60 524L3 647L255 760L398 1493Z" />
<glyph unicode="&#x142;" glyph-name="lslash" horiz-adv-x="616" d="M354 1556H538L422 950L563 1014L616 895L393 793L235 0H51L188 700L53 639L0 758L219 856L354 1556Z" />
<glyph unicode="&#x143;" glyph-name="Nacute" horiz-adv-x="1532" d="M1547 1900H1754L1447 1636H1289L1547 1900ZM307 1493H579L991 213L1241 1493H1438L1147 0H874L463 1288L213 0H16L307 1493Z" />
<glyph unicode="&#x144;" glyph-name="nacute" horiz-adv-x="1298" d="M408 1645H607L208 1269H54L408 1645ZM1083 676L952 0H767L898 669Q907 716 912 752T917 809Q917 893 864 940T716 987Q568 987 461 889T321 621L198 0H14L231 1120H415L378 944Q455 1041
563 1094T790 1147Q938 1147 1019 1067T1101 842Q1101 806 1097 765T1083 676Z" />
<glyph unicode="&#x145;" glyph-name="Ncommaaccent" horiz-adv-x="1532" d="M1339 -162H1550L1324 -482H1195L1339 -162ZM307 1493H579L991 213L1241 1493H1438L1147 0H874L463 1288L213 0H16L307 1493Z" />
<glyph unicode="&#x146;" glyph-name="ncommaaccent" horiz-adv-x="1298" d="M1259 -162H1470L1244 -482H1115L1259 -162ZM1083 676L952 0H767L898 669Q907 716 912 752T917 809Q917 893 864 940T716 987Q568 987 461 889T321 621L198 0H14L231 1120H415L378 944Q455
1041 563 1094T790 1147Q938 1147 1019 1067T1101 842Q1101 806 1097 765T1083 676Z" />
<glyph unicode="&#x147;" glyph-name="Ncaron" horiz-adv-x="1532" d="M307 1493H579L991 213L1241 1493H1438L1147 0H874L463 1288L213 0H16L307 1493ZM1708 1635H1495L1337 1901H1471L1610 1723L1819 1901H1970L1708 1635Z" />
<glyph unicode="&#x148;" glyph-name="ncaron" horiz-adv-x="1298" d="M1083 676L952 0H767L898 669Q907 716 912 752T917 809Q917 893 864 940T716 987Q568 987 461 889T321 621L198 0H14L231 1120H415L378 944Q455 1041 563 1094T790 1147Q938 1147 1019 1067T1101
842Q1101 806 1097 765T1083 676ZM449 1262H302L130 1638H271L398 1401L629 1638H769L449 1262Z" />
<glyph unicode="&#x149;" glyph-name="napostrophe" horiz-adv-x="1666" d="M207 1493H418L384 1320L158 1001H29L173 1320L207 1493ZM1424 676L1293 0H1108L1239 669Q1248 716 1253 752T1258 809Q1258 893 1205 940T1057 987Q909 987 802 889T662 621L539 0H355L572
1120H756L719 944Q796 1041 904 1094T1131 1147Q1279 1147 1360 1067T1442 842Q1442 806 1438 765T1424 676Z" />
<glyph unicode="&#x14a;" glyph-name="Eng" horiz-adv-x="1322" d="M943 1520Q1306 1520 1306 1122Q1306 1020 1281 893L1104 -20Q1062 -233 962 -329T681 -426H594L624 -270H673Q776 -270 824 -225T903 -20L1081 895Q1098 986 1098 1058Q1098 1323 857 1323Q678
1323 546 1196T370 846L206 0H4L294 1493H496L449 1252Q553 1386 671 1453T943 1520Z" />
<glyph unicode="&#x14b;" glyph-name="eng" horiz-adv-x="1110" d="M1076 676L941 -25Q904 -216 856 -287Q811 -354 725 -390T520 -426H261L291 -270H528Q636 -270 681 -225T758 -20L891 669Q900 716 905 752T910 809Q910 893 857 940T709 987Q561 987 454 889T314
621L191 0H7L224 1120H408L371 944Q448 1041 556 1094T783 1147Q931 1147 1012 1067T1094 842Q1094 806 1090 765T1076 676Z" />
<glyph unicode="&#x14c;" glyph-name="Omacron" horiz-adv-x="1612" d="M868 1356Q702 1356 575 1276T354 1030Q294 925 263 807T231 569Q231 361 330 248T612 135Q776 135 904 216T1124 459Q1185 567 1217 685T1249 922Q1249 1129 1149 1242T868 1356ZM606 -29Q331
-29 174 134T16 580Q16 742 77 911T247 1212Q374 1367 530 1443T874 1520Q1148 1520 1306 1359T1464 918Q1464 746 1404 580T1232 279Q1104 123 950 47T606 -29ZM353 1841H951L922 1693H324L353 1841Z" />
<glyph unicode="&#x14d;" glyph-name="omacron" horiz-adv-x="1253" d="M442 -29Q245 -29 131 92T16 424Q16 546 55 672T158 885Q257 1019 379 1083T655 1147Q846 1147 963 1028T1081 717Q1081 584 1042 452T940 233Q842 99 720 35T442 -29ZM207 430Q207 278 270
203T463 127Q648 127 769 288T891 698Q891 843 826 917T635 991Q531 991 450 943T305 795Q258 721 233 626T207 430ZM173 1526H771L742 1378H144L173 1526Z" />
<glyph unicode="&#x14e;" glyph-name="Obreve" horiz-adv-x="1612" d="M1380 1901H1499Q1511 1840 1550 1813T1665 1786Q1751 1786 1805 1813T1888 1901H2007Q1973 1788 1881 1724T1661 1659Q1540 1659 1470 1719T1380 1901ZM868 1356Q702 1356 575 1276T354 1030Q294
925 263 807T231 569Q231 361 330 248T612 135Q776 135 904 216T1124 459Q1185 567 1217 685T1249 922Q1249 1129 1149 1242T868 1356ZM606 -29Q331 -29 174 134T16 580Q16 742 77 911T247 1212Q374 1367 530 1443T874 1520Q1148 1520 1306 1359T1464 918Q1464
746 1404 580T1232 279Q1104 123 950 47T606 -29Z" />
<glyph unicode="&#x14f;" glyph-name="obreve" horiz-adv-x="1253" d="M139 1608H253V1593Q253 1525 295 1492T423 1458Q508 1458 563 1494T649 1608H765Q733 1469 638 1395T397 1321Q269 1321 203 1385T137 1575Q137 1581 138 1592T139 1608ZM442 -29Q245 -29
131 92T16 424Q16 546 55 672T158 885Q257 1019 379 1083T655 1147Q846 1147 963 1028T1081 717Q1081 584 1042 452T940 233Q842 99 720 35T442 -29ZM207 430Q207 278 270 203T463 127Q648 127 769 288T891 698Q891 843 826 917T635 991Q531 991 450 943T305 795Q258
721 233 626T207 430Z" />
<glyph unicode="&#x150;" glyph-name="Ohungarumlaut" horiz-adv-x="1612" d="M1946 1899H2153L1846 1635H1688L1946 1899ZM1630 1899H1837L1530 1635H1372L1630 1899ZM868 1356Q702 1356 575 1276T354 1030Q294 925 263 807T231 569Q231 361 330 248T612 135Q776
135 904 216T1124 459Q1185 567 1217 685T1249 922Q1249 1129 1149 1242T868 1356ZM606 -29Q331 -29 174 134T16 580Q16 742 77 911T247 1212Q374 1367 530 1443T874 1520Q1148 1520 1306 1359T1464 918Q1464 746 1404 580T1232 279Q1104 123 950 47T606 -29Z"
/>
<glyph unicode="&#x151;" glyph-name="ohungarumlaut" horiz-adv-x="1253" d="M386 1638H556L259 1262H122L386 1638ZM720 1638H898L577 1262H442L720 1638ZM442 -29Q245 -29 131 92T16 424Q16 546 55 672T158 885Q257 1019 379 1083T655 1147Q846 1147 963 1028T1081
717Q1081 584 1042 452T940 233Q842 99 720 35T442 -29ZM207 430Q207 278 270 203T463 127Q648 127 769 288T891 698Q891 843 826 917T635 991Q531 991 450 943T305 795Q258 721 233 626T207 430Z" />
<glyph unicode="&#x152;" glyph-name="OE" horiz-adv-x="2120" d="M1135 1323H1015Q849 1323 720 1285T503 1174Q370 1064 301 914T232 582Q232 379 358 275T732 170H781H910L1135 1323ZM2110 1493L2077 1323H1338L1250 881H1961L1928 711H1217L1113 170H1873L1840
0H750Q588 0 500 15T333 66Q176 136 98 265T19 582Q19 791 111 977T376 1298Q499 1396 674 1444T1074 1493H2110Z" />
<glyph unicode="&#x153;" glyph-name="oe" horiz-adv-x="1966" d="M1920 516H1064Q1060 489 1058 464T1055 418Q1055 279 1140 203T1381 127Q1501 127 1609 154T1809 233L1772 51Q1673 12 1568 -8T1354 -29Q1193 -29 1078 26T916 180Q815 75 700 23T449 -29Q258
-29 141 90T23 401Q23 538 61 667T165 885Q264 1019 386 1083T662 1147Q792 1147 891 1089T1045 922Q1144 1034 1265 1090T1528 1147Q1719 1147 1831 1033T1944 727Q1944 681 1938 629T1920 516ZM1760 660Q1763 676 1764 693T1766 727Q1766 849 1695 920T1500 991Q1362
991 1258 905T1098 659L1760 660ZM214 430Q214 278 277 203T470 127Q655 127 776 287T898 696Q898 843 834 917T642 991Q538 991 457 943T312 795Q265 721 240 626T214 430Z" />
<glyph unicode="&#x154;" glyph-name="Racute" horiz-adv-x="1423" d="M1427 1900H1634L1327 1636H1169L1427 1900ZM473 1327L371 797H631Q784 797 878 881T973 1102Q973 1211 910 1269T727 1327H473ZM844 717Q908 702 950 643T1049 408L1176 0H963L846 383Q801
531 742 581T561 631H338L215 0H12L303 1493H758Q965 1493 1075 1400T1186 1130Q1186 974 1092 860T844 717Z" />
<glyph unicode="&#x155;" glyph-name="racute" horiz-adv-x="842" d="M408 1645H607L208 1269H54L408 1645ZM852 950Q824 965 788 973T711 981Q564 981 454 870T308 571L195 0H11L230 1120H414L379 946Q452 1043 553 1095T770 1147Q800 1147 829 1144T887 1132L852 950Z" />
<glyph unicode="&#x156;" glyph-name="Rcommaaccent" horiz-adv-x="1423" d="M1355 -162H1566L1340 -482H1211L1355 -162ZM473 1327L371 797H631Q784 797 878 881T973 1102Q973 1211 910 1269T727 1327H473ZM844 717Q908 702 950 643T1049 408L1176 0H963L846
383Q801 531 742 581T561 631H338L215 0H12L303 1493H758Q965 1493 1075 1400T1186 1130Q1186 974 1092 860T844 717Z" />
<glyph unicode="&#x157;" glyph-name="rcommaaccent" horiz-adv-x="842" d="M882 -162H1093L867 -482H738L882 -162ZM852 950Q824 965 788 973T711 981Q564 981 454 870T308 571L195 0H11L230 1120H414L379 946Q452 1043 553 1095T770 1147Q800 1147 829 1144T887
1132L852 950Z" />
<glyph unicode="&#x158;" glyph-name="Rcaron" horiz-adv-x="1423" d="M473 1327L371 797H631Q784 797 878 881T973 1102Q973 1211 910 1269T727 1327H473ZM844 717Q908 702 950 643T1049 408L1176 0H963L846 383Q801 531 742 581T561 631H338L215 0H12L303 1493H758Q965
1493 1075 1400T1186 1130Q1186 974 1092 860T844 717ZM1498 1629H1285L1127 1895H1261L1400 1717L1609 1895H1760L1498 1629Z" />
<glyph unicode="&#x159;" glyph-name="rcaron" horiz-adv-x="842" d="M852 950Q824 965 788 973T711 981Q564 981 454 870T308 571L195 0H11L230 1120H414L379 946Q452 1043 553 1095T770 1147Q800 1147 829 1144T887 1132L852 950ZM545 1262H398L226 1638H367L494
1401L725 1638H865L545 1262Z" />
<glyph unicode="&#x15a;" glyph-name="Sacute" horiz-adv-x="1300" d="M1427 1900H1634L1327 1636H1169L1427 1900ZM1231 1444L1192 1247Q1091 1301 992 1328T799 1356Q618 1356 511 1277T404 1067Q404 995 443 957T647 874L768 844Q973 791 1053 710T1133 481Q1133
255 956 113T488 -29Q369 -29 249 -6T8 66L49 274Q160 205 271 170T494 135Q683 135 797 219T911 438Q911 528 866 574T670 659L549 690Q342 744 267 814T191 1012Q191 1235 362 1377T809 1520Q916 1520 1021 1501T1231 1444Z" />
<glyph unicode="&#x15b;" glyph-name="sacute" horiz-adv-x="1067" d="M408 1645H607L208 1269H54L408 1645ZM1009 1087L974 913Q901 953 820 973T653 993Q508 993 425 944T341 809Q341 710 535 657Q550 653 557 651L616 633Q800 582 861 526T923 373Q923 195
782 83T411 -29Q322 -29 224 -12T8 41L44 231Q145 179 243 152T431 125Q566 125 650 183T735 330Q735 426 513 485L494 490L431 506Q291 543 226 603T161 758Q161 937 295 1042T661 1147Q752 1147 838 1132T1009 1087Z" />
<glyph unicode="&#x15c;" glyph-name="Scircumflex" horiz-adv-x="1300" d="M1472 1901H1687L1845 1635H1710L1570 1813L1361 1635H1210L1472 1901ZM1231 1444L1192 1247Q1091 1301 992 1328T799 1356Q618 1356 511 1277T404 1067Q404 995 443 957T647 874L768
844Q973 791 1053 710T1133 481Q1133 255 956 113T488 -29Q369 -29 249 -6T8 66L49 274Q160 205 271 170T494 135Q683 135 797 219T911 438Q911 528 866 574T670 659L549 690Q342 744 267 814T191 1012Q191 1235 362 1377T809 1520Q916 1520 1021 1501T1231 1444Z"
/>
<glyph unicode="&#x15d;" glyph-name="scircumflex" horiz-adv-x="1067" d="M363 1638H511L683 1262H544L417 1499L183 1262H44L363 1638ZM1009 1087L974 913Q901 953 820 973T653 993Q508 993 425 944T341 809Q341 710 535 657Q550 653 557 651L616 633Q800 582
861 526T923 373Q923 195 782 83T411 -29Q322 -29 224 -12T8 41L44 231Q145 179 243 152T431 125Q566 125 650 183T735 330Q735 426 513 485L494 490L431 506Q291 543 226 603T161 758Q161 937 295 1042T661 1147Q752 1147 838 1132T1009 1087Z" />
<glyph unicode="&#x15e;" glyph-name="Scedilla" horiz-adv-x="1300" d="M1231 1444L1192 1247Q1091 1301 992 1328T799 1356Q618 1356 511 1277T404 1067Q404 995 443 957T647 874L768 844Q973 791 1053 710T1133 481Q1133 255 956 113T488 -29Q369 -29 249 -6T8
66L49 274Q160 205 271 170T494 135Q683 135 797 219T911 438Q911 528 866 574T670 659L549 690Q342 744 267 814T191 1012Q191 1235 362 1377T809 1520Q916 1520 1021 1501T1231 1444ZM477 0Q513 -51 530 -94T547 -180Q547 -280 474 -337T272 -395Q229 -395 186
-389T100 -371L123 -240Q162 -256 201 -264T283 -272Q343 -272 378 -242T414 -158Q414 -129 402 -93T358 0H477Z" />
<glyph unicode="&#x15f;" glyph-name="scedilla" horiz-adv-x="1067" d="M1009 1087L974 913Q901 953 820 973T653 993Q508 993 425 944T341 809Q341 710 535 657Q550 653 557 651L616 633Q800 582 861 526T923 373Q923 195 782 83T411 -29Q322 -29 224 -12T8
41L44 231Q145 179 243 152T431 125Q566 125 650 183T735 330Q735 426 513 485L494 490L431 506Q291 543 226 603T161 758Q161 937 295 1042T661 1147Q752 1147 838 1132T1009 1087ZM400 0Q436 -51 453 -94T470 -180Q470 -280 397 -337T195 -395Q152 -395 109 -389T23
-371L46 -240Q85 -256 124 -264T206 -272Q266 -272 301 -242T337 -158Q337 -129 325 -93T281 0H400Z" />
<glyph unicode="&#x160;" glyph-name="Scaron" horiz-adv-x="1300" d="M1231 1444L1192 1247Q1091 1301 992 1328T799 1356Q618 1356 511 1277T404 1067Q404 995 443 957T647 874L768 844Q973 791 1053 710T1133 481Q1133 255 956 113T488 -29Q369 -29 249 -6T8
66L49 274Q160 205 271 170T494 135Q683 135 797 219T911 438Q911 528 866 574T670 659L549 690Q342 744 267 814T191 1012Q191 1235 362 1377T809 1520Q916 1520 1021 1501T1231 1444ZM1559 1635H1346L1188 1901H1322L1461 1723L1670 1901H1821L1559 1635Z" />
<glyph unicode="&#x161;" glyph-name="scaron" horiz-adv-x="1067" d="M1009 1087L974 913Q901 953 820 973T653 993Q508 993 425 944T341 809Q341 710 535 657Q550 653 557 651L616 633Q800 582 861 526T923 373Q923 195 782 83T411 -29Q322 -29 224 -12T8 41L44
231Q145 179 243 152T431 125Q566 125 650 183T735 330Q735 426 513 485L494 490L431 506Q291 543 226 603T161 758Q161 937 295 1042T661 1147Q752 1147 838 1132T1009 1087ZM353 1262H206L34 1638H175L302 1401L533 1638H673L353 1262Z" />
<glyph unicode="&#x162;" glyph-name="Tcommaaccent" horiz-adv-x="1251" d="M453 0Q489 -51 506 -94T523 -180Q523 -280 450 -337T248 -395Q205 -395 162 -389T76 -371L99 -240Q138 -256 177 -264T259 -272Q319 -272 354 -242T390 -158Q390 -129 378 -93T334
0H453ZM40 1493H1303L1271 1323H738L482 0H279L535 1323H7L40 1493Z" />
<glyph unicode="&#x163;" glyph-name="tcommaaccent" horiz-adv-x="803" d="M404 0Q440 -51 457 -94T474 -180Q474 -280 401 -337T199 -395Q156 -395 113 -389T27 -371L50 -240Q89 -256 128 -264T210 -272Q270 -272 305 -242T341 -158Q341 -129 329 -93T285 0H404ZM745
1120L717 977H350L231 369Q225 335 222 312T219 276Q219 212 257 183T381 154H567L536 0H360Q196 0 116 64T35 258Q35 281 38 308T47 369L166 977H10L39 1120H192L254 1438H438L377 1120H745Z" />
<glyph unicode="&#x164;" glyph-name="Tcaron" horiz-adv-x="1251" d="M40 1493H1303L1271 1323H738L482 0H279L535 1323H7L40 1493ZM1534 1635H1321L1163 1901H1297L1436 1723L1645 1901H1796L1534 1635Z" />
<glyph unicode="&#x165;" glyph-name="tcaron" horiz-adv-x="803" d="M745 1120L717 977H350L231 369Q225 335 222 312T219 276Q219 212 257 183T381 154H567L536 0H360Q196 0 116 64T35 258Q35 281 38 308T47 369L166 977H10L39 1120H192L254 1438H438L377 1120H745ZM1291
1645H1490L1316 1269H1162L1291 1645Z" />
<glyph unicode="&#x166;" glyph-name="Tbar" horiz-adv-x="1304" d="M41 1493H1304L1271 1323H741L629 747H894L861 577H596L484 0H281L393 577H124L157 747H426L538 1323H8L41 1493Z" />
<glyph unicode="&#x167;" glyph-name="tbar" horiz-adv-x="806" d="M489 1438L427 1120H806L778 977H399L354 744H544L516 602H326L281 369Q268 304 268 261Q268 214 284 193Q314 154 429 154H618L588 0H399Q186 0 121 80Q80 129 80 227Q80 289 96 369L141 602H6L34
744H169L214 977H79L107 1120H242L304 1438H489Z" />
<glyph unicode="&#x168;" glyph-name="Utilde" horiz-adv-x="1499" d="M1639 1710L1604 1735L1603 1736Q1560 1768 1522 1768Q1488 1768 1461 1743T1416 1667H1291Q1326 1776 1387 1831T1534 1886Q1569 1886 1599 1875T1666 1839L1698 1813Q1716 1799 1735 1793T1774
1786Q1813 1786 1841 1813T1881 1886H2006Q1973 1777 1911 1722T1756 1667Q1725 1667 1698 1677T1639 1710ZM219 1493H422L246 586Q235 525 231 486T226 416Q226 278 303 207T529 135Q722 135 829 241T983 586L1159 1493H1362L1182 561Q1123 259 958 115T506 -29Q282
-29 152 83T21 389Q21 424 26 467T41 561L219 1493Z" />
<glyph unicode="&#x169;" glyph-name="utilde" horiz-adv-x="1298" d="M461 1370L416 1425Q403 1441 387 1451T355 1464Q316 1464 291 1428T248 1309H123Q153 1446 217 1518T373 1591Q410 1591 442 1576T500 1530L547 1475Q559 1459 573 1450T606 1436Q644 1436
668 1471T713 1591H838Q809 1454 745 1382T588 1309Q550 1309 517 1324T461 1370ZM42 444L173 1120H358L227 451Q217 402 213 367T208 309Q208 224 260 178T407 131Q555 131 663 231T804 500L927 1120H1111L894 0H710L747 176Q669 78 562 25T333 -29Q186 -29 104
51T22 276Q22 306 27 351T42 444Z" />
<glyph unicode="&#x16a;" glyph-name="Umacron" horiz-adv-x="1499" d="M219 1493H422L246 586Q235 525 231 486T226 416Q226 278 303 207T529 135Q722 135 829 241T983 586L1159 1493H1362L1182 561Q1123 259 958 115T506 -29Q282 -29 152 83T21 389Q21 424 26
467T41 561L219 1493ZM296 1841H894L865 1693H267L296 1841Z" />
<glyph unicode="&#x16b;" glyph-name="umacron" horiz-adv-x="1298" d="M42 444L173 1120H358L227 451Q217 402 213 367T208 309Q208 224 260 178T407 131Q555 131 663 231T804 500L927 1120H1111L894 0H710L747 176Q669 78 562 25T333 -29Q186 -29 104 51T22
276Q22 306 27 351T42 444ZM189 1526H787L758 1378H160L189 1526Z" />
<glyph unicode="&#x16c;" glyph-name="Ubreve" horiz-adv-x="1499" d="M1290 1901H1409Q1421 1840 1460 1813T1575 1786Q1661 1786 1715 1813T1798 1901H1917Q1883 1788 1791 1724T1571 1659Q1450 1659 1380 1719T1290 1901ZM219 1493H422L246 586Q235 525 231
486T226 416Q226 278 303 207T529 135Q722 135 829 241T983 586L1159 1493H1362L1182 561Q1123 259 958 115T506 -29Q282 -29 152 83T21 389Q21 424 26 467T41 561L219 1493Z" />
<glyph unicode="&#x16d;" glyph-name="ubreve" horiz-adv-x="1298" d="M130 1608H244V1593Q244 1525 286 1492T414 1458Q499 1458 554 1494T640 1608H756Q724 1469 629 1395T388 1321Q260 1321 194 1385T128 1575Q128 1581 129 1592T130 1608ZM42 444L173 1120H358L227
451Q217 402 213 367T208 309Q208 224 260 178T407 131Q555 131 663 231T804 500L927 1120H1111L894 0H710L747 176Q669 78 562 25T333 -29Q186 -29 104 51T22 276Q22 306 27 351T42 444Z" />
<glyph unicode="&#x16e;" glyph-name="Uring" horiz-adv-x="1499" d="M765 1629Q765 1514 686 1434T490 1354Q375 1354 296 1434T216 1629Q216 1745 295 1824T490 1903Q606 1903 685 1824T765 1629ZM642 1629Q642 1693 599 1736T490 1780Q424 1780 382 1738T339
1629Q339 1563 381 1520T490 1477Q557 1477 599 1520T642 1629ZM219 1493H422L246 586Q235 525 231 486T226 416Q226 278 303 207T529 135Q722 135 829 241T983 586L1159 1493H1362L1182 561Q1123 259 958 115T506 -29Q282 -29 152 83T21 389Q21 424 26 467T41
561L219 1493Z" />
<glyph unicode="&#x16f;" glyph-name="uring" horiz-adv-x="1298" d="M42 444L173 1120H358L227 451Q217 402 213 367T208 309Q208 224 260 178T407 131Q555 131 663 231T804 500L927 1120H1111L894 0H710L747 176Q669 78 562 25T333 -29Q186 -29 104 51T22 276Q22
306 27 351T42 444ZM635 1746Q635 1631 556 1551T360 1471Q245 1471 166 1551T86 1746Q86 1862 165 1941T360 2020Q476 2020 555 1941T635 1746ZM512 1746Q512 1810 469 1853T360 1897Q294 1897 252 1855T209 1746Q209 1680 251 1637T360 1594Q427 1594 469 1637T512
1746Z" />
<glyph unicode="&#x170;" glyph-name="Uhungarumlaut" horiz-adv-x="1499" d="M1856 1899H2063L1756 1635H1598L1856 1899ZM1540 1899H1747L1440 1635H1282L1540 1899ZM219 1493H422L246 586Q235 525 231 486T226 416Q226 278 303 207T529 135Q722 135 829 241T983
586L1159 1493H1362L1182 561Q1123 259 958 115T506 -29Q282 -29 152 83T21 389Q21 424 26 467T41 561L219 1493Z" />
<glyph unicode="&#x171;" glyph-name="uhungarumlaut" horiz-adv-x="1298" d="M377 1638H547L250 1262H113L377 1638ZM711 1638H889L568 1262H433L711 1638ZM42 444L173 1120H358L227 451Q217 402 213 367T208 309Q208 224 260 178T407 131Q555 131 663 231T804
500L927 1120H1111L894 0H710L747 176Q669 78 562 25T333 -29Q186 -29 104 51T22 276Q22 306 27 351T42 444Z" />
<glyph unicode="&#x172;" glyph-name="Uogonek" horiz-adv-x="1499" d="M219 1493H422L246 586Q235 525 231 486T226 416Q226 278 303 207T529 135Q722 135 829 241T983 586L1159 1493H1362L1182 561Q1123 259 958 115T506 -29Q282 -29 152 83T21 389Q21 424 26
467T41 561L219 1493ZM285 241H404Q340 174 309 124T277 38Q277 3 299 -14T367 -31Q396 -31 430 -24T502 -1L478 -133Q441 -145 406 -150T339 -156Q236 -156 184 -118T132 -5Q132 47 170 108T285 241Z" />
<glyph unicode="&#x173;" glyph-name="uogonek" horiz-adv-x="1298" d="M42 444L173 1120H358L227 451Q217 402 213 367T208 309Q208 224 260 178T407 131Q555 131 663 231T804 500L927 1120H1111L894 0H710L747 176Q669 78 562 25T333 -29Q186 -29 104 51T22
276Q22 306 27 351T42 444ZM681 0H800Q736 -67 705 -117T673 -203Q673 -238 695 -255T763 -272Q792 -272 826 -265T898 -242L874 -374Q837 -386 802 -391T735 -397Q632 -397 580 -359T528 -246Q528 -194 566 -133T681 0Z" />
<glyph unicode="&#x174;" glyph-name="Wcircumflex" horiz-adv-x="2025" d="M28 1493H224L296 223L859 1493H1084L1158 223L1715 1493H1920L1256 0H1002L933 1245L374 0H120L28 1493ZM1808 1908H2023L2181 1642H2046L1906 1820L1697 1642H1546L1808 1908Z" />
<glyph unicode="&#x175;" glyph-name="wcircumflex" horiz-adv-x="1675" d="M618 1638H766L938 1262H799L672 1499L438 1262H299L618 1638ZM28 1120H210L257 219L675 1120H888L950 219L1347 1120H1531L1019 0H804L749 928L321 0H104L28 1120Z" />
<glyph unicode="&#x176;" glyph-name="Ycircumflex" horiz-adv-x="1251" d="M11 1493H228L507 879L1039 1493H1266L589 711L451 0H249L386 711L11 1493ZM1414 1908H1629L1787 1642H1652L1512 1820L1303 1642H1152L1414 1908Z" />
<glyph unicode="&#x177;" glyph-name="ycircumflex" horiz-adv-x="1212" d="M383 1638H531L703 1262H564L437 1499L203 1262H64L383 1638ZM571 -104Q443 -319 363 -372T157 -426H12L43 -272H149Q226 -272 280 -230T401 -66L458 41L210 1120H405L591 262L1105 1120H1298L571
-104Z" />
<glyph unicode="&#x178;" glyph-name="Ydieresis" horiz-adv-x="1251" d="M11 1493H228L507 879L1039 1493H1266L589 711L451 0H249L386 711L11 1493ZM1217 1870H1421L1380 1667H1178L1217 1870ZM1608 1870H1810L1772 1667H1569L1608 1870Z" />
<glyph unicode="&#x179;" glyph-name="Zacute" horiz-adv-x="1403" d="M1427 1900H1634L1327 1636H1169L1427 1900ZM319 1493H1491L1462 1339L305 170H1257L1225 0H6L35 154L1192 1323H287L319 1493Z" />
<glyph unicode="&#x17a;" glyph-name="zacute" horiz-adv-x="1075" d="M408 1645H607L208 1269H54L408 1645ZM253 1120H1127L1094 952L251 147H947L918 0H9L42 168L885 973H224L253 1120Z" />
<glyph unicode="&#x17b;" glyph-name="Zdotaccent" horiz-adv-x="1403" d="M319 1493H1491L1462 1339L305 170H1257L1225 0H6L35 154L1192 1323H287L319 1493ZM1301 1868H1504L1465 1663H1260L1301 1868Z" />
<glyph unicode="&#x17c;" glyph-name="zdotaccent" horiz-adv-x="1075" d="M999 1556H1183L1138 1323H954L999 1556ZM253 1120H1127L1094 952L251 147H947L918 0H9L42 168L885 973H224L253 1120Z" />
<glyph unicode="&#x17d;" glyph-name="Zcaron" horiz-adv-x="1403" d="M319 1493H1491L1462 1339L305 170H1257L1225 0H6L35 154L1192 1323H287L319 1493ZM1610 1635H1397L1239 1901H1373L1512 1723L1721 1901H1872L1610 1635Z" />
<glyph unicode="&#x17e;" glyph-name="zcaron" horiz-adv-x="1075" d="M253 1120H1127L1094 952L251 147H947L918 0H9L42 168L885 973H224L253 1120ZM357 1262H210L38 1638H179L306 1401L537 1638H677L357 1262Z" />
<glyph unicode="&#x17f;" glyph-name="longs" horiz-adv-x="847" d="M192 0H7L198 977H22L48 1120H224L239 1198Q277 1396 372 1476Q468 1556 673 1556H847L818 1403H642Q542 1403 496 1364Q451 1324 429 1219L192 0Z" />
<glyph unicode="&#x180;" glyph-name="uni0180" horiz-adv-x="1181" d="M934 559Q974 762 913 878Q852 993 706 993T454 878Q348 762 308 559Q269 356 330 240Q391 125 537 125T789 240Q895 356 934 559ZM384 950Q462 1050 560 1098Q658 1147 781 1147Q985 1147
1081 985T1125 559Q1074 295 915 133T552 -29Q429 -29 350 20Q271 68 232 168L200 0H15L264 1284H110L134 1409H288L317 1556H502L473 1409H798L774 1284H449L384 950Z" />
<glyph unicode="&#x181;" glyph-name="uni0181" horiz-adv-x="1476" d="M551 713L444 166H768Q931 166 1023 234Q1115 301 1142 440Q1169 580 1103 646Q1038 713 875 713H551ZM1016 1493Q1247 1493 1354 1397Q1460 1301 1425 1124Q1399 987 1319 906T1111 805Q1254
773 1317 672Q1380 570 1350 418Q1311 218 1154 109T746 0H210L468 1327Q326 1327 257 1280Q201 1242 179 1128L170 1079H14L27 1149Q63 1330 174 1412Q286 1493 500 1493H1016ZM670 1327L582 877H881Q1029 877 1113 932Q1196 988 1218 1102Q1240 1215 1179 1271Q1117
1327 969 1327H670Z" />
<glyph unicode="&#x182;" glyph-name="uni0182" horiz-adv-x="1405" d="M952 514Q952 713 677 713H353L247 166H571Q891 166 944 439Q952 479 952 514ZM1257 1493L1225 1327H473L386 879H720Q971 879 1085 770Q1169 691 1169 552Q1169 500 1157 439Q1114 218 957
109T549 0H13L303 1493H1257Z" />
<glyph unicode="&#x183;" glyph-name="uni0183" horiz-adv-x="1184" d="M380 950Q458 1050 556 1098Q654 1147 777 1147Q981 1147 1077 985T1121 559Q1070 295 911 133T548 -29Q425 -29 346 20Q267 68 228 168L196 0H11L313 1556H1159L1127 1390L466 1391L380
950ZM930 559Q970 762 909 878Q848 993 702 993T450 878Q344 762 304 559Q265 356 326 240Q387 125 533 125T785 240Q891 356 930 559Z" />
<glyph unicode="&#x184;" glyph-name="uni0184" horiz-adv-x="1201" d="M945 439Q972 578 907 646Q842 713 679 713H355L248 166H572Q735 166 826 234Q919 301 945 439ZM506 1493L387 879H721Q972 879 1087 770Q1201 661 1158 439Q1115 218 958 109T550 0H14L226
1092H25L415 1493H506Z" />
<glyph unicode="&#x185;" glyph-name="uni0185" horiz-adv-x="1177" d="M383 950Q460 1050 558 1098Q656 1147 779 1147Q983 1147 1079 985T1124 559Q1072 295 913 133T550 -29Q427 -29 348 20Q269 68 231 168L198 0H13L225 1092H39L420 1557H501L383 950ZM933
559Q972 762 911 878Q850 993 704 993T452 878Q346 762 307 559Q267 356 328 240Q389 125 535 125T787 240Q893 356 933 559Z" />
<glyph unicode="&#x186;" glyph-name="uni0186" horiz-adv-x="1362" d="M11 113L52 326Q148 229 255 182T488 135Q659 135 788 217T1012 467Q1072 575 1103 695T1135 938Q1135 1142 1030 1249T723 1356Q584 1356 456 1312T207 1178L254 1417Q373 1468 494 1494T738
1520Q1025 1520 1186 1364T1348 930Q1348 752 1287 580T1110 266Q988 115 832 43T467 -29Q339 -29 225 6T11 113Z" />
<glyph unicode="&#x187;" glyph-name="uni0187" horiz-adv-x="1808" d="M1220 1477Q1274 1672 1375 1770Q1502 1892 1729 1892H1806L1773 1722H1710Q1576 1722 1506 1647Q1437 1572 1399 1378L1357 1165Q1274 1260 1167 1307Q1061 1354 931 1354Q701 1354 543
1227Q543 1227 542 1226Q542 1226 541 1225Q541 1225 540 1225Q540 1225 539 1224Q539 1224 538 1223Q538 1223 537 1222Q537 1222 536 1221Q536 1221 535 1220Q535 1220 533 1220Q533 1220 532 1219Q532 1219 531 1218Q531 1218 530 1217Q530 1217 529 1216Q529
1216 528 1215Q528 1215 527 1214Q527 1214 526 1213Q526 1213 525 1213Q525 1213 524 1212Q524 1212 523 1211Q523 1211 522 1210Q522 1210 521 1209Q521 1209 520 1208Q520 1208 519 1207Q519 1207 518 1206Q518 1206 517 1205Q517 1205 516 1204Q516 1204 515
1204Q515 1204 514 1203Q514 1203 513 1202Q513 1202 512 1201Q512 1201 511 1200Q511 1200 510 1199Q510 1199 509 1198Q342 1041 285 745Q227 450 333 294Q439 137 695 137Q825 137 949 184Q1074 231 1194 326L1153 115Q1033 43 908 7Q782 -29 650 -29Q311 -29
157 178Q2 386 72 745Q142 1105 377 1312Q612 1520 951 1520Q1085 1520 1197 1484Q1209 1481 1220 1477Z" />
<glyph unicode="&#x188;" glyph-name="uni0188" horiz-adv-x="1352" d="M870 1135Q913 1304 999 1387Q1099 1483 1280 1483H1350L1320 1327H1271Q1166 1327 1118 1278Q1071 1230 1041 1077L1008 905Q938 948 864 970Q789 991 709 991Q530 991 409 878Q288 764
248 559T285 240Q362 127 541 127Q621 127 704 148Q787 170 873 213L840 43Q756 7 670 -11T491 -29Q238 -29 120 130T54 559Q108 833 289 990T732 1147Q803 1147 870 1135Z" />
<glyph unicode="&#x189;" glyph-name="uni0189" horiz-adv-x="1587" d="M367 1493H802Q1147 1493 1323 1347T1500 911Q1500 721 1433 545T1246 246Q1127 122 945 61T513 0H77L212 700H11L40 844H240L367 1493ZM537 1327L443 844H779L750 700H414L312 166H576Q916
166 1101 361T1287 911Q1287 1126 1167 1226T791 1327H537Z" />
<glyph unicode="&#x18a;" glyph-name="uni018A" horiz-adv-x="1700" d="M672 1327L446 166H690Q999 166 1170 306T1399 748Q1458 1048 1341 1188Q1225 1327 916 1327H672ZM917 1493Q1351 1493 1519 1312Q1687 1132 1612 748Q1537 362 1298 181T627 0H212L470 1327Q328
1327 259 1280Q203 1242 181 1128L172 1079H16L29 1149Q65 1330 176 1412Q288 1493 502 1493H917Z" />
<glyph unicode="&#x18b;" glyph-name="uni018B" horiz-adv-x="1324" d="M259 439Q232 301 298 234Q363 166 526 166H850L956 713H632Q469 713 378 646Q286 578 259 439ZM464 1493H1310L1020 0H484Q233 0 118 109T46 439Q89 661 247 770Q404 879 655 879H989L1076
1327H432L464 1493Z" />
<glyph unicode="&#x18c;" glyph-name="uni018C" horiz-adv-x="1263" d="M950 950L1036 1391L375 1390L407 1556H1252L950 0H766L798 168Q721 68 623 20Q525 -29 402 -29Q198 -29 102 133T57 559Q109 823 268 985T631 1147Q754 1147 833 1098Q912 1050 950 950ZM248
559Q209 356 270 240Q331 125 477 125T729 240Q835 356 874 559Q914 762 853 878Q792 993 646 993T394 878Q288 762 248 559Z" />
<glyph unicode="&#x18d;" glyph-name="uni018D" horiz-adv-x="1154" d="M59 -203Q147 -273 386 -273Q639 -273 662 -156Q680 -64 425 -16Q225 21 129 133Q13 268 67 545Q119 810 286 966Q454 1123 694 1123Q933 1123 1040 966Q1147 810 1093 535Q1054 331 885
166Q819 102 737 66Q878 -13 850 -154Q797 -426 356 -426Q135 -426 29 -356L59 -203ZM609 116Q682 145 752 218Q860 331 899 535Q939 738 876 852Q812 967 663 967Q516 967 408 851Q299 735 262 545Q224 346 296 250Q373 147 497 136Q560 130 609 116Z" />
<glyph unicode="&#x18e;" glyph-name="uni018E" horiz-adv-x="1266" d="M1253 1493L963 0H1L34 170H794L899 711H188L221 881H932L1018 1323H276L309 1493H1253Z" />
<glyph unicode="&#x18f;" glyph-name="uni018F" horiz-adv-x="1546" d="M1283 780Q1318 952 1267 1108Q1221 1235 1124 1296Q1026 1356 867 1356Q730 1356 590 1306Q450 1257 323 1163L366 1378Q510 1449 653 1484Q795 1520 935 1520Q1090 1520 1200 1478Q1311
1435 1384 1348Q1500 1209 1515 1000Q1531 803 1450 580Q1390 414 1278 279Q1150 123 996 47Q841 -29 652 -29Q360 -29 220 134Q7 380 85 780H1283ZM1246 614H278Q266 375 376 248Q476 135 658 135Q822 135 950 216Q1079 298 1170 459Q1223 553 1246 614Z" />
<glyph unicode="&#x190;" glyph-name="uni0190" horiz-adv-x="1198" d="M430 805Q306 838 252 924Q197 1009 221 1133Q256 1311 410 1416Q564 1520 794 1520Q883 1520 981 1504Q1078 1488 1187 1456L1152 1276Q1045 1314 954 1332Q862 1350 779 1350Q627 1350
534 1288Q441 1227 418 1112Q396 1000 464 940Q531 881 680 881H862L830 715H656Q491 715 384 640Q277 566 251 434Q224 291 308 216Q393 141 583 141Q692 141 797 166T996 240L958 45Q845 8 741 -10Q638 -29 544 -29Q264 -29 136 92Q7 213 50 434Q78 578 179 676Q279
774 430 805Z" />
<glyph unicode="&#x191;" glyph-name="uni0191" horiz-adv-x="1536" d="M678 1493H1536L1503 1323H847L761 883H1353L1320 713H728L610 104Q557 -166 431 -288T78 -410H1L34 -240H97Q231 -240 301 -165Q370 -90 408 104L678 1493Z" />
<glyph unicode="&#x192;" glyph-name="florin" horiz-adv-x="1275" d="M1275 1556L1245 1403H1069Q970 1403 924 1363Q877 1323 857 1219L838 1120H1141L1113 977H810L607 -68Q571 -255 467 -340Q363 -426 174 -426H0L30 -273H206Q305 -273 351 -233Q398 -193
418 -89L625 977H449L477 1120H653L668 1198Q704 1385 808 1470Q912 1556 1101 1556H1275Z" />
<glyph unicode="&#x193;" glyph-name="uni0193" horiz-adv-x="1871" d="M1073 213L1151 614H821L854 780H1384L1259 139Q1126 56 977 14Q827 -29 667 -29Q317 -29 160 176Q2 380 73 745Q144 1111 381 1316Q618 1520 968 1520Q1114 1520 1239 1484Q1260 1478 1280
1471Q1334 1670 1437 1770Q1564 1892 1791 1892H1868L1835 1722H1772Q1638 1722 1568 1647T1461 1378L1419 1163Q1325 1258 1209 1306Q1092 1354 953 1354Q679 1354 512 1201T286 745Q227 443 335 290T717 137Q824 137 911 156Q999 174 1073 213Z" />
<glyph unicode="&#x194;" glyph-name="uni0194" horiz-adv-x="1414" d="M378 -259Q532 -259 532 -93Q532 -23 468 202L332 -11Q271 -109 271 -182Q271 -214 287 -227Q324 -259 378 -259ZM624 420Q736 70 736 -85Q736 -115 732 -139Q705 -278 617 -343Q500 -430
345 -430Q191 -430 107 -343Q63 -298 63 -217Q63 -181 74 -127Q84 -73 170 73Q255 220 397 420L24 1493H246L551 631L1192 1493H1414L624 420Z" />
<glyph unicode="&#x195;" glyph-name="uni0195" horiz-adv-x="1822" d="M788 1147Q1104 1147 1104 833Q1104 763 1087 676L1035 406Q1020 331 1020 282T1034 206Q1061 156 1159 156Q1163 156 1167 156L1218 157Q1367 160 1471 255T1607 510Q1626 611 1626 689Q1626
918 1440 972L1469 1122Q1820 1076 1820 725Q1820 636 1797 527Q1747 282 1577 141T1186 0H1116Q929 0 870 100Q835 160 835 241T851 406L902 670Q914 733 914 784Q914 987 716 987Q567 987 463 892T326 633L203 0H18L320 1556H505L387 946Q557 1147 788 1147Z"
/>
<glyph unicode="&#x196;" glyph-name="uni0196" horiz-adv-x="508" d="M55 514L245 1493H447L257 514Q219 320 260 245Q300 170 434 170H497L464 0H387Q160 0 81 122T55 514Z" />
<glyph unicode="&#x197;" glyph-name="uni0197" horiz-adv-x="612" d="M345 1493H547L421 844H612L584 700H393L257 0H55L191 700H0L28 844H219L345 1493Z" />
<glyph unicode="&#x198;" glyph-name="uni0198" horiz-adv-x="1593" d="M1408 1217Q1411 1231 1411 1245Q1411 1282 1390 1311Q1361 1351 1323 1351Q1253 1351 1209 1316L561 797L1200 0H934L357 719L217 0H15L305 1493H507L385 862L1117 1441Q1217 1520 1331
1520Q1467 1520 1534 1428Q1585 1359 1585 1279Q1585 1254 1580 1227L1554 1096H1384L1408 1217Z" />
<glyph unicode="&#x199;" glyph-name="uni0199" horiz-adv-x="1196" d="M242 1198Q278 1384 383 1470Q487 1556 676 1556H850L820 1403H644Q545 1403 499 1363T432 1219L319 637L961 1120H1196L501 596L1004 0H764L301 547L195 0H10L242 1198Z" />
<glyph unicode="&#x19a;" glyph-name="uni019A" horiz-adv-x="572" d="M349 1556H533L395 844H572L544 700H367L231 0H47L183 700H0L28 844H211L349 1556Z" />
<glyph unicode="&#x19b;" glyph-name="uni019B" horiz-adv-x="1200" d="M0 0L700 1074L665 1262L345 1161L332 1260L647 1359L611 1556H811L836 1418L1171 1522L1185 1425L853 1321L1090 0H895L742 828L195 0H0Z" />
<glyph unicode="&#x19c;" glyph-name="uni019C" horiz-adv-x="1940" d="M776 213Q683 89 576 30Q468 -29 338 -29Q163 -29 92 94Q21 216 65 442L269 1493H472L270 452Q233 266 262 213Q304 135 421 135Q564 135 665 230Q767 325 799 489L994 1493H1197L995 452Q963
290 1005 212Q1047 135 1166 135Q1289 135 1391 230Q1492 326 1524 489L1719 1493H1922L1631 -2H1428L1462 172Q1379 69 1282 20Q1184 -29 1063 -29Q941 -29 868 33Q794 95 776 213Z" />
<glyph unicode="&#x19d;" glyph-name="uni019D" horiz-adv-x="1813" d="M680 1493H952L1371 244L1614 1493H1810L1520 0H1248L829 1249L606 104Q553 -170 433 -286Q304 -410 80 -410H3L36 -240H99Q233 -240 303 -165Q372 -90 410 104L680 1493Z" />
<glyph unicode="&#x19e;" glyph-name="uni019E" horiz-adv-x="1298" d="M1071 676L857 -426H673L886 670Q917 829 870 908Q824 987 700 987Q551 987 446 892Q342 797 310 633L187 0H2L220 1120H405L371 946Q456 1047 556 1097Q655 1147 772 1147Q965 1147 1041
1028Q1116 908 1071 676Z" />
<glyph unicode="&#x19f;" glyph-name="uni019F" horiz-adv-x="1478" d="M605 -29Q330 -29 173 134T15 580Q15 742 76 911T246 1212Q373 1367 529 1443T873 1520Q1147 1520 1305 1359T1463 918Q1463 746 1403 580T1231 279Q1103 123 949 47T605 -29ZM1210 710H255Q241
628 241 557Q241 404 304 299Q401 135 621 135T996 293T1210 710ZM1235 880Q1237 910 1237 938Q1237 1086 1175 1192Q1079 1356 859 1356T477 1192Q358 1071 296 880H1235Z" />
<glyph unicode="&#x1a0;" glyph-name="Ohorn" horiz-adv-x="1870" d="M1544 1293L1567 1412Q1619 1367 1659 1346T1730 1324Q1776 1324 1804 1351T1843 1433Q1849 1465 1848 1496T1837 1558H1970Q1973 1520 1972 1486T1964 1422Q1940 1300 1886 1243T1738 1185Q1690
1185 1643 1211T1544 1293ZM1113 1356Q947 1356 820 1276T599 1030Q539 925 508 807T476 569Q476 361 575 248T857 135Q1021 135 1149 216T1369 459Q1430 567 1462 685T1494 922Q1494 1129 1394 1242T1113 1356ZM851 -29Q576 -29 419 134T261 580Q261 742 322 911T492
1212Q619 1367 775 1443T1119 1520Q1393 1520 1551 1359T1709 918Q1709 746 1649 580T1477 279Q1349 123 1195 47T851 -29Z" />
<glyph unicode="&#x1a1;" glyph-name="ohorn" horiz-adv-x="1253" d="M1205 983L1228 1102Q1280 1057 1320 1036T1391 1014Q1437 1014 1465 1041T1504 1123Q1510 1155 1509 1186T1498 1248H1631Q1634 1210 1633 1176T1625 1112Q1601 990 1547 933T1399 875Q1351
875 1304 901T1205 983ZM447 -29Q250 -29 136 92T21 424Q21 546 60 672T163 885Q262 1019 384 1083T660 1147Q851 1147 968 1028T1086 717Q1086 584 1047 452T945 233Q847 99 725 35T447 -29ZM212 430Q212 278 275 203T468 127Q653 127 774 288T896 698Q896 843
831 917T640 991Q536 991 455 943T310 795Q263 721 238 626T212 430Z" />
<glyph unicode="&#x1a2;" glyph-name="uni01A2" horiz-adv-x="1829" d="M895 1356Q675 1356 513 1192Q352 1028 297 745Q242 463 340 299Q437 135 657 135Q832 135 992 299L1166 1192Q1060 1356 895 1356ZM1365 0L1555 979Q1593 1173 1552 1248Q1512 1323 1390
1323L1168 182Q939 -29 625 -29Q310 -29 163 181Q15 391 84 745T382 1310Q612 1520 927 1520Q1039 1520 1130 1493H1425Q1652 1493 1731 1371Q1809 1249 1757 979L1567 0H1365Z" />
<glyph unicode="&#x1a3;" glyph-name="uni01A3" horiz-adv-x="1399" d="M654 991Q507 993 397 876Q289 760 250 559T274 242Q337 127 486 127T696 216L828 896Q803 991 654 991ZM936 -426L1158 714Q1187 867 1159 916Q1130 964 1025 964L863 128Q695 -29 455 -29Q214
-29 108 128Q2 284 56 559Q109 835 276 991T684 1147Q784 1147 860 1120H1077Q1258 1120 1320 1024Q1383 928 1342 714L1120 -426H936Z" />
<glyph unicode="&#x1a4;" glyph-name="uni01A4" horiz-adv-x="1419" d="M669 1327L560 766H814Q955 766 1046 839T1164 1047Q1190 1181 1127 1254T923 1327H669ZM955 1493Q1206 1493 1313 1380Q1419 1266 1377 1047Q1334 826 1183 713Q1033 600 782 600H528L411
0H209L467 1327Q339 1327 255 1271Q199 1233 178 1128L169 1079H13L26 1149Q62 1330 173 1412Q285 1493 499 1493H955Z" />
<glyph unicode="&#x1a5;" glyph-name="uni01A5" horiz-adv-x="1253" d="M1011 559Q1050 762 989 878Q928 993 782 993T530 878Q424 762 385 559Q345 356 406 240Q467 125 613 125T865 240Q971 356 1011 559ZM513 1219L461 950Q538 1050 636 1098Q734 1147 857
1147Q1061 1147 1157 985T1202 559T992 133T629 -29Q506 -29 426 20Q347 68 309 168L193 -426H8L324 1198Q360 1385 464 1470Q568 1556 757 1556H931L901 1403H725Q626 1403 580 1363Q533 1323 513 1219Z" />
<glyph unicode="&#x1a6;" glyph-name="uni01A6" horiz-adv-x="1142" d="M697 1229Q1134 1229 1134 913Q1134 861 1122 799Q1094 658 1011 565T795 436Q914 393 989 144L1114 -264H897L781 119Q736 269 676 318T496 367H276L205 0H3L293 1493H495L443 1229H697ZM411
1063L303 504H557Q698 504 789 577T906 784Q914 823 914 858Q914 939 870 990Q807 1063 665 1063H411Z" />
<glyph unicode="&#x1a7;" glyph-name="uni01A7" horiz-adv-x="1282" d="M341 1444Q462 1482 575 1501T793 1520Q1038 1520 1155 1406T1234 1094Q1200 923 1081 827Q961 731 726 686L599 662Q439 631 359 569Q280 507 258 397Q234 271 315 203Q395 135 568 135Q682
135 807 170T1068 274L1028 66Q891 19 767 -5Q642 -29 536 -29Q255 -29 132 83Q8 195 50 412Q86 594 214 702Q343 811 577 854L704 879Q876 910 945 960Q1015 1011 1034 1110Q1057 1228 980 1292T738 1356Q643 1356 535 1329Q428 1302 302 1247L341 1444Z" />
<glyph unicode="&#x1a8;" glyph-name="uni01A8" horiz-adv-x="1029" d="M251 1087Q332 1117 425 1132T620 1147Q826 1147 922 1061Q1017 975 986 817Q961 687 870 612Q780 538 602 502L535 487Q357 450 299 410Q240 370 226 295Q210 214 271 170Q333 125 463 125Q560
125 664 152Q768 178 880 231L843 41Q729 6 628 -12Q527 -29 437 -29Q221 -29 115 62T39 309Q66 446 163 522Q261 599 465 641L531 655Q685 688 741 724Q797 761 810 825Q826 909 766 951Q705 993 568 993Q478 993 390 973Q303 953 217 913L251 1087Z" />
<glyph unicode="&#x1a9;" glyph-name="uni01A9" horiz-adv-x="1294" d="M277 170H1007L974 0H12L45 170L645 794L269 1323L302 1493H1246L1213 1323H501L878 798L277 170Z" />
<glyph unicode="&#x1aa;" glyph-name="uni01AA" horiz-adv-x="864" d="M485 1284Q486 1329 473 1352Q449 1400 339 1400Q215 1400 200 1335Q187 1284 306 1284H485ZM652 1130L413 -89Q393 -192 424 -233Q453 -273 553 -273H729L699 -426H525Q331 -426 266 -340Q197
-248 232 -68L465 1130H275Q5 1130 46 1340Q88 1556 391 1556Q571 1556 635 1460Q676 1396 672 1285H863L833 1130H652Z" />
<glyph unicode="&#x1ab;" glyph-name="uni01AB" horiz-adv-x="759" d="M442 1438L380 1120H759L732 977H353L234 369Q208 232 238 193T383 154H572L537 -20Q496 -234 395 -330Q295 -426 114 -426H44L75 -270H124Q229 -270 276 -222Q324 -173 353 -20L357 0H353Q140
0 74 80Q9 159 49 369L168 977H33L60 1120H195L257 1438H442Z" />
<glyph unicode="&#x1ac;" glyph-name="uni01AC" horiz-adv-x="1321" d="M461 1323Q328 1323 249 1271Q194 1233 173 1128L164 1079H8L21 1149Q56 1330 168 1412Q280 1493 494 1493H1321L1288 1323H758L501 0H298L555 1323H461Z" />
<glyph unicode="&#x1ad;" glyph-name="uni01AD" horiz-adv-x="816" d="M210 1198Q246 1385 350 1470Q453 1556 642 1556H816L786 1403H610Q511 1403 465 1363Q419 1322 399 1219L379 1120H758L731 977H352L233 369Q207 232 237 193T382 154H571L541 0H352Q139
0 73 80Q8 159 48 369L167 977H32L59 1120H194L210 1198Z" />
<glyph unicode="&#x1ae;" glyph-name="uni01AE" horiz-adv-x="1300" d="M534 1323H4L37 1493H1300L1267 1323H737L500 104Q462 -91 502 -165Q542 -240 676 -240H739L706 -410H629Q402 -410 323 -288T297 104L534 1323Z" />
<glyph unicode="&#x1af;" glyph-name="Uhorn" horiz-adv-x="1717" d="M1609 1293L1632 1412Q1684 1367 1724 1346T1795 1324Q1841 1324 1869 1351T1908 1433Q1914 1465 1913 1496T1902 1558H2035Q2038 1520 2037 1486T2029 1422Q2005 1300 1951 1243T1803 1185Q1755
1185 1708 1211T1609 1293ZM471 1513H674L498 606Q487 545 483 506T478 436Q478 298 555 227T781 155Q974 155 1081 261T1235 606L1411 1513H1614L1434 581Q1375 279 1210 135T758 -9Q534 -9 404 103T273 409Q273 444 278 487T293 581L471 1513Z" />
<glyph unicode="&#x1b0;" glyph-name="uhorn" horiz-adv-x="1298" d="M44 444L175 1120H360L229 451Q219 402 215 367T210 309Q210 224 262 178T409 131Q557 131 665 231T806 500L929 1120H1113L896 0H712L749 176Q671 78 564 25T335 -29Q188 -29 106 51T24 276Q24
306 29 351T44 444ZM1334 994L1357 1113Q1409 1068 1449 1047T1520 1025Q1566 1025 1594 1052T1633 1134Q1639 1166 1638 1197T1627 1259H1760Q1763 1221 1762 1187T1754 1123Q1730 1001 1676 944T1528 886Q1480 886 1433 912T1334 994Z" />
<glyph unicode="&#x1b1;" glyph-name="uni01B1" horiz-adv-x="1634" d="M1591 1304H1271Q1405 1163 1447 1015T1452 673Q1392 364 1161 168Q930 -29 627 -29Q322 -29 169 168T78 683Q113 867 215 1016Q316 1165 501 1304H182L217 1482H817L782 1304Q585 1207 454
1041Q322 875 283 673Q236 434 340 288Q445 143 661 143T1037 288T1244 673Q1283 875 1216 1041T991 1304L1026 1482H1626L1591 1304Z" />
<glyph unicode="&#x1b2;" glyph-name="uni01B2" horiz-adv-x="1348" d="M511 170Q727 170 887 315Q1048 460 1094 700Q1133 902 1067 1068Q1023 1177 930 1264L943 1332L1122 1331Q1255 1190 1298 1042Q1340 894 1302 700Q1242 391 1011 194Q781 -2 478 -2L401
0Q170 6 95 122Q17 244 69 514L259 1493H461L271 514Q233 320 274 245Q314 170 448 170H511Z" />
<glyph unicode="&#x1b3;" glyph-name="uni01B3" horiz-adv-x="1489" d="M1227 1351Q1170 1351 1146 1337Q1104 1313 1082 1288L590 711L452 0H249L387 711L11 1493H228L523 879L955 1384Q1072 1520 1235 1520Q1371 1520 1438 1428Q1489 1359 1489 1279Q1489 1254
1484 1227L1458 1096H1288L1312 1217Q1315 1231 1315 1245Q1315 1282 1294 1311Q1265 1351 1227 1351Z" />
<glyph unicode="&#x1b4;" glyph-name="uni01B4" horiz-adv-x="1595" d="M572 -104Q455 -304 369 -365T159 -426H12L42 -272H150Q226 -272 275 -236T401 -66L450 18L212 1120H407L586 244L1005 948Q1036 1000 1094 1051Q1201 1147 1336 1147Q1467 1147 1541 1052Q1595
981 1595 889Q1595 857 1589 822L1567 708H1389L1411 822Q1414 837 1414 851Q1414 891 1390 922Q1357 964 1300 964T1194 922Q1170 902 1155 877L572 -104Z" />
<glyph unicode="&#x1b5;" glyph-name="uni01B5" horiz-adv-x="1499" d="M319 1493H1492L1462 1339L966 844H1247L1219 700H822L291 170H1258L1225 0H6L36 154L583 700H284L312 844H727L1207 1323H286L319 1493Z" />
<glyph unicode="&#x1b6;" glyph-name="uni01B6" horiz-adv-x="1134" d="M251 1120H1125L1092 952L784 660H978L950 516H633L244 147H936L907 0H8L41 168L408 516H195L223 660H559L889 973H222L251 1120Z" />
<glyph unicode="&#x1b7;" glyph-name="uni01B7" horiz-adv-x="1305" d="M520 107Q712 107 825 182Q940 257 968 400Q994 534 916 607Q837 681 672 681H498L531 847L1008 1323H236L269 1493H1293L1261 1325L757 849Q863 849 980 793Q1070 751 1135 642Q1196 538
1169 400Q1139 249 1064 164L1028 123Q1002 94 950 58Q775 -63 495 -63Q376 -63 254 -44Q132 -26 5 11L43 206Q140 157 262 132Q383 107 520 107Z" />
<glyph unicode="&#x1b8;" glyph-name="uni01B8" horiz-adv-x="1367" d="M575 107Q712 107 843 132Q975 157 1090 206L1052 11Q911 -26 781 -44Q653 -63 534 -63Q254 -63 125 58Q87 94 73 123L53 164Q10 249 40 400Q67 538 168 642Q275 751 381 793Q520 849 626
849L308 1325L340 1493H1364L1331 1323H559L852 847L819 681H645Q480 681 373 607Q267 534 241 400Q213 257 298 182T575 107Z" />
<glyph unicode="&#x1b9;" glyph-name="uni01B9" horiz-adv-x="1221" d="M630 476L312 952L344 1120H1218L1190 973H523L856 474L823 308H649Q484 308 377 234Q270 159 245 27Q217 -116 302 -191T577 -266Q686 -266 791 -241T989 -167L951 -362Q838 -399 734 -418Q632
-436 538 -436Q258 -436 129 -315Q123 -309 118 -304L91 -271Q8 -157 44 27Q71 165 172 269Q279 378 385 420Q524 476 630 476Z" />
<glyph unicode="&#x1ba;" glyph-name="uni01BA" horiz-adv-x="1120" d="M494 -274Q578 -274 659 -253Q742 -232 832 -188L797 -367Q703 -399 621 -412Q532 -426 435 -426Q4 -426 4 -199Q4 -174 10 -145Q56 93 472 146Q764 183 783 281Q785 293 785 303Q785 405
572 405H282L877 973H210L239 1120H1113L1080 952L646 540Q973 540 973 358Q973 336 969 311Q915 35 441 -14Q211 -38 192 -135Q190 -146 190 -155Q190 -274 494 -274Z" />
<glyph unicode="&#x1bb;" glyph-name="uni01BB" horiz-adv-x="1206" d="M284 170H989L956 0H8L41 170L417 490L555 607H210L238 751H720Q837 860 888 932Q941 1008 955 1081Q979 1200 910 1275T707 1350Q612 1350 500 1317T255 1217L294 1421Q426 1470 537 1495T736
1520Q968 1520 1083 1404Q1199 1288 1161 1094Q1143 1002 1092 920Q1048 847 955 751H1059L1031 607H795L738 558L284 170Z" />
<glyph unicode="&#x1bc;" glyph-name="uni01BC" horiz-adv-x="1296" d="M806 849Q910 849 1029 793Q1119 750 1184 642Q1245 538 1218 400Q1188 249 1113 164L1077 123Q1051 94 999 58Q824 -63 544 -63Q252 -63 123 58Q85 94 71 123L51 164Q8 249 38 400H239Q211
257 296 182T571 107Q760 107 874 182Q989 257 1017 400Q1043 534 965 607Q886 681 721 681H402V680H200L358 1493H1287L1254 1323H527L435 848L806 849Z" />
<glyph unicode="&#x1bd;" glyph-name="uni01BD" horiz-adv-x="1174" d="M654 476Q759 476 877 420Q967 377 1032 269Q1093 165 1066 27Q1036 -124 961 -209L925 -250Q899 -279 847 -315Q672 -436 392 -436Q298 -436 202 -418Q106 -399 7 -362L45 -167Q120 -216
215 -241T419 -266Q608 -266 722 -191Q837 -116 865 27Q891 161 813 234Q734 308 569 308H215L248 476H249L377 1120H1167L1134 950H528L433 476H654Z" />
<glyph unicode="&#x1be;" glyph-name="uni01BE" horiz-adv-x="964" d="M644 998L618 873Q782 843 871 724Q956 609 923 439Q887 253 753 128Q585 -29 310 -29Q225 -29 148 -11Q70 6 1 41L34 213Q100 173 179 149Q253 127 333 127Q512 127 633 241Q703 306 729
439Q748 537 705 613Q641 727 449 727H387L442 998H213L245 1162H474L528 1438H730L676 1162H907L875 998H644Z" />
<glyph unicode="&#x1bf;" glyph-name="uni01BF" horiz-adv-x="1256" d="M255 -122L196 -426H11L312 1120H497L464 950Q532 1020 680 1098Q770 1147 980 1147Q1164 1147 1219 1035Q1256 961 1256 870Q1256 822 1246 769Q1163 344 255 -122ZM291 60Q995 460 1043
709Q1053 759 1053 799Q1053 868 1025 908Q983 973 865 973H861Q641 973 422 734Q356 397 291 60Z" />
<glyph unicode="&#x1c0;" glyph-name="uni01C0" horiz-adv-x="576" d="M374 1493H576L202 -426H0L374 1493Z" />
<glyph unicode="&#x1c1;" glyph-name="uni01C1" horiz-adv-x="1008" d="M778 1493H980L606 -426H404L778 1493ZM374 1493H576L202 -426H0L374 1493Z" />
<glyph unicode="&#x1c2;" glyph-name="uni01C2" horiz-adv-x="1017" d="M584 1493H786L666 876H1017L984 708H633L586 468H937L904 298H553L412 -426H210L351 298H0L33 468H384L431 708H80L113 876H464L584 1493Z" />
<glyph unicode="&#x1c3;" glyph-name="uni01C3" horiz-adv-x="605" d="M440 1493H642L515 838L425 481H263L313 838L440 1493ZM200 254H403L354 0H149L200 254Z" />
<glyph unicode="&#x1c4;" glyph-name="uni01C4" horiz-adv-x="2976" d="M296 1493H730Q1076 1493 1252 1347T1429 911Q1429 720 1362 544T1177 246Q1058 122 875 61T442 0H5L296 1493ZM466 1327L241 166H505Q844 166 1030 361T1216 911Q1216 1126 1096 1226T720
1327H466ZM1795 1493H2967L2938 1339L1781 170H2733L2701 0H1482L1511 154L2668 1323H1763L1795 1493ZM2502 1635H2289L2131 1901H2265L2404 1723L2613 1901H2764L2502 1635Z" />
<glyph unicode="&#x1c5;" glyph-name="uni01C5" horiz-adv-x="2666" d="M307 1493H741Q1087 1493 1263 1347T1440 911Q1440 720 1373 544T1188 246Q1069 122 886 61T453 0H16L307 1493ZM477 1327L252 166H516Q855 166 1041 361T1227 911Q1227 1126 1107 1226T731
1327H477ZM1776 1120H2650L2617 952L1774 147H2470L2441 0H1532L1565 168L2408 973H1747L1776 1120ZM2294 1262H2147L1975 1638H2116L2243 1401L2474 1638H2614L2294 1262Z" />
<glyph unicode="&#x1c6;" glyph-name="uni01C6" horiz-adv-x="2337" d="M769 168Q695 71 594 21T370 -29Q202 -29 105 85T7 399Q7 565 66 715T237 985Q311 1064 404 1105T599 1147Q707 1147 789 1095T917 946L1037 1556H1222L919 0H734L769 168ZM198 432Q198 287
263 206T445 125Q531 125 604 166T734 289Q793 373 827 483T861 700Q861 839 796 917T615 995Q528 995 453 954T325 836Q267 753 233 643T198 432ZM1451 1120H2325L2292 952L1449 147H2145L2116 0H1207L1240 168L2083 973H1422L1451 1120ZM1969 1262H1822L1650
1638H1791L1918 1401L2149 1638H2289L1969 1262Z" />
<glyph unicode="&#x1c7;" glyph-name="uni01C7" horiz-adv-x="1745" d="M1819 1493H2022L1751 104Q1698 -167 1573 -288T1221 -410H1141L1174 -240H1237Q1372 -240 1442 -163T1549 104L1819 1493ZM298 1493H501L245 168H972L939 0H9L298 1493Z" />
<glyph unicode="&#x1c8;" glyph-name="uni01C8" horiz-adv-x="1710" d="M1669 1120H1853L1632 -20L1631 -25Q1594 -216 1546 -287Q1501 -354 1415 -390T1210 -426H1141L1171 -270H1218Q1326 -270 1371 -225T1448 -20L1669 1120ZM1755 1556H1939L1894 1323H1710L1755
1556ZM298 1493H501L245 168H972L939 0H9L298 1493Z" />
<glyph unicode="&#x1c9;" glyph-name="uni01C9" horiz-adv-x="1138" d="M1097 1120H1281L1060 -20L1059 -25Q1022 -216 974 -287Q929 -354 843 -390T638 -426H569L599 -270H646Q754 -270 799 -225T876 -20L1097 1120ZM1183 1556H1367L1322 1323H1138L1183 1556ZM303
1556H487L184 0H0L303 1556Z" />
<glyph unicode="&#x1ca;" glyph-name="uni01CA" horiz-adv-x="2136" d="M2210 1493H2413L2142 104Q2089 -167 1964 -288T1612 -410H1532L1565 -240H1628Q1763 -240 1833 -163T1940 104L2210 1493ZM307 1493H579L991 213L1241 1493H1438L1147 0H874L463 1288L213
0H16L307 1493Z" />
<glyph unicode="&#x1cb;" glyph-name="uni01CB" horiz-adv-x="2101" d="M2060 1120H2244L2023 -20L2022 -25Q1985 -216 1937 -287Q1892 -354 1806 -390T1601 -426H1532L1562 -270H1609Q1717 -270 1762 -225T1839 -20L2060 1120ZM2146 1556H2330L2285 1323H2101L2146
1556ZM307 1493H579L991 213L1241 1493H1438L1147 0H874L463 1288L213 0H16L307 1493Z" />
<glyph unicode="&#x1cc;" glyph-name="uni01CC" horiz-adv-x="1867" d="M1826 1120H2010L1789 -20L1788 -25Q1751 -216 1703 -287Q1658 -354 1572 -390T1367 -426H1298L1328 -270H1375Q1483 -270 1528 -225T1605 -20L1826 1120ZM1912 1556H2096L2051 1323H1867L1912
1556ZM1083 676L952 0H767L898 669Q907 716 912 752T917 809Q917 893 864 940T716 987Q568 987 461 889T321 621L198 0H14L231 1120H415L378 944Q455 1041 563 1094T790 1147Q938 1147 1019 1067T1101 842Q1101 806 1097 765T1083 676Z" />
<glyph unicode="&#x1cd;" glyph-name="uni01CD" horiz-adv-x="1401" d="M863 1493H1092L1369 0H1158L1096 383H424L213 0H0L863 1493ZM936 1294L517 551H1065L936 1294ZM1624 1635H1411L1253 1901H1387L1526 1723L1735 1901H1886L1624 1635Z" />
<glyph unicode="&#x1ce;" glyph-name="uni01CE" horiz-adv-x="1255" d="M420 1262H273L101 1638H242L369 1401L600 1638H740L420 1262ZM1027 639L902 0H718L752 170Q671 70 568 21T337 -29Q194 -29 103 58T11 283Q11 479 167 593T599 707H855L865 756Q867 764
868 773T869 803Q869 892 797 941T593 991Q503 991 409 968T214 899L246 1069Q350 1108 449 1127T642 1147Q840 1147 943 1061T1047 811Q1047 778 1042 734T1027 639ZM828 563H644Q418 563 310 503T201 315Q201 227 256 177T410 127Q560 127 672 234T820 522L828
563Z" />
<glyph unicode="&#x1cf;" glyph-name="uni01CF" horiz-adv-x="604" d="M291 1493H494L203 0H0L291 1493ZM1220 1635H1007L849 1901H983L1122 1723L1331 1901H1482L1220 1635Z" />
<glyph unicode="&#x1d0;" glyph-name="uni01D0" horiz-adv-x="569" d="M101 1262H-46L-218 1638H-77L50 1401L281 1638H421L101 1262ZM220 1120H404L185 0H1L220 1120Z" />
<glyph unicode="&#x1d1;" glyph-name="uni01D1" horiz-adv-x="1612" d="M868 1356Q702 1356 575 1276T354 1030Q294 925 263 807T231 569Q231 361 330 248T612 135Q776 135 904 216T1124 459Q1185 567 1217 685T1249 922Q1249 1129 1149 1242T868 1356ZM606 -29Q331
-29 174 134T16 580Q16 742 77 911T247 1212Q374 1367 530 1443T874 1520Q1148 1520 1306 1359T1464 918Q1464 746 1404 580T1232 279Q1104 123 950 47T606 -29ZM1743 1635H1530L1372 1901H1506L1645 1723L1854 1901H2005L1743 1635Z" />
<glyph unicode="&#x1d2;" glyph-name="uni01D2" horiz-adv-x="1253" d="M505 1262H358L186 1638H327L454 1401L685 1638H825L505 1262ZM442 -29Q245 -29 131 92T16 424Q16 546 55 672T158 885Q257 1019 379 1083T655 1147Q846 1147 963 1028T1081 717Q1081 584
1042 452T940 233Q842 99 720 35T442 -29ZM207 430Q207 278 270 203T463 127Q648 127 769 288T891 698Q891 843 826 917T635 991Q531 991 450 943T305 795Q258 721 233 626T207 430Z" />
<glyph unicode="&#x1d3;" glyph-name="uni01D3" horiz-adv-x="1499" d="M219 1493H422L246 586Q235 525 231 486T226 416Q226 278 303 207T529 135Q722 135 829 241T983 586L1159 1493H1362L1182 561Q1123 259 958 115T506 -29Q282 -29 152 83T21 389Q21 424 26
467T41 561L219 1493ZM1645 1635H1432L1274 1901H1408L1547 1723L1756 1901H1907L1645 1635Z" />
<glyph unicode="&#x1d4;" glyph-name="uni01D4" horiz-adv-x="1298" d="M450 1262H303L131 1638H272L399 1401L630 1638H770L450 1262ZM42 444L173 1120H358L227 451Q217 402 213 367T208 309Q208 224 260 178T407 131Q555 131 663 231T804 500L927 1120H1111L894
0H710L747 176Q669 78 562 25T333 -29Q186 -29 104 51T22 276Q22 306 27 351T42 444Z" />
<glyph unicode="&#x1d5;" glyph-name="uni01D5" horiz-adv-x="1354" d="M204 1493H407L231 586Q220 525 216 486T211 416Q211 278 288 207T514 135Q707 135 814 241T968 586L1144 1493H1347L1167 561Q1108 259 943 115T491 -29Q267 -29 137 83T6 389Q6 424 11
467T26 561L204 1493ZM621 2099H1219L1190 1951H592L621 2099ZM571 1838H775L734 1635H532L571 1838ZM962 1838H1164L1126 1635H923L962 1838Z" />
<glyph unicode="&#x1d6;" glyph-name="uni01D6" horiz-adv-x="1099" d="M453 1841H1051L1022 1693H424L453 1841ZM23 444L154 1120H339L208 451Q198 402 194 367T189 309Q189 224 241 178T388 131Q536 131 644 231T785 500L908 1120H1092L875 0H691L728 176Q650
78 543 25T314 -29Q167 -29 85 51T3 276Q3 306 8 351T23 444ZM408 1552H613L572 1350H369L408 1552ZM799 1552H1002L963 1350H760L799 1552Z" />
<glyph unicode="&#x1d7;" glyph-name="uni01D7" horiz-adv-x="1353" d="M202 1493H405L229 586Q218 525 214 486T209 416Q209 278 286 207T512 135Q705 135 812 241T966 586L1142 1493H1345L1165 561Q1106 259 941 115T489 -29Q265 -29 135 83T4 389Q4 424 9 467T24
561L202 1493ZM1013 2144H1220L913 1880H755L1013 2144ZM539 1844H743L702 1641H500L539 1844ZM930 1844H1132L1094 1641H891L930 1844Z" />
<glyph unicode="&#x1d8;" glyph-name="uni01D8" horiz-adv-x="1102" d="M22 444L153 1120H338L207 451Q197 402 193 367T188 309Q188 224 240 178T387 131Q535 131 643 231T784 500L907 1120H1091L874 0H690L727 176Q649 78 542 25T313 -29Q166 -29 84 51T2 276Q2
306 7 351T22 444ZM881 1850H1088L781 1586H623L881 1850ZM407 1550H611L570 1347H368L407 1550ZM798 1550H1000L962 1347H759L798 1550Z" />
<glyph unicode="&#x1d9;" glyph-name="uni01D9" horiz-adv-x="1355" d="M204 1493H407L231 586Q220 525 216 486T211 416Q211 278 288 207T514 135Q707 135 814 241T968 586L1144 1493H1347L1167 561Q1108 259 943 115T491 -29Q267 -29 137 83T6 389Q6 424 11
467T26 561L204 1493ZM949 1872H736L578 2138H712L851 1960L1060 2138H1211L949 1872ZM535 1838H739L698 1635H496L535 1838ZM926 1838H1128L1090 1635H887L926 1838Z" />
<glyph unicode="&#x1da;" glyph-name="uni01DA" horiz-adv-x="1105" d="M24 444L155 1120H340L209 451Q199 402 195 367T190 309Q190 224 242 178T389 131Q537 131 645 231T786 500L909 1120H1093L876 0H692L729 176Q651 78 544 25T315 -29Q168 -29 86 51T4 276Q4
306 9 351T24 444ZM823 1590H610L452 1856H586L725 1678L934 1856H1085L823 1590ZM409 1556H613L572 1353H370L409 1556ZM800 1556H1002L964 1353H761L800 1556Z" />
<glyph unicode="&#x1db;" glyph-name="uni01DB" horiz-adv-x="1352" d="M204 1493H407L231 586Q220 525 216 486T211 416Q211 278 288 207T514 135Q707 135 814 241T968 586L1144 1493H1347L1167 561Q1108 259 943 115T491 -29Q267 -29 137 83T6 389Q6 424 11
467T26 561L204 1493ZM776 2138L924 1874H784L594 2138H776ZM535 1838H739L698 1635H496L535 1838ZM926 1838H1128L1090 1635H887L926 1838Z" />
<glyph unicode="&#x1dc;" glyph-name="uni01DC" horiz-adv-x="1099" d="M24 444L155 1120H340L209 451Q199 402 195 367T190 309Q190 224 242 178T389 131Q537 131 645 231T786 500L909 1120H1093L876 0H692L729 176Q651 78 544 25T315 -29Q168 -29 86 51T4 276Q4
306 9 351T24 444ZM650 1850L798 1586H658L468 1850H650ZM409 1550H613L572 1347H370L409 1550ZM800 1550H1002L964 1347H761L800 1550Z" />
<glyph unicode="&#x1dd;" glyph-name="uni01DD" horiz-adv-x="1260" d="M61 512L78 602H924Q949 792 866 892Q783 991 600 991Q494 991 390 965Q285 939 177 887L211 1061Q318 1103 426 1125T641 1147Q909 1147 1035 991Q1162 835 1110 569Q1056 294 876 132Q697
-29 445 -29Q219 -29 115 116Q12 262 61 512ZM234 458Q207 307 273 217Q337 127 473 127Q627 127 736 214Q846 301 891 459L234 458Z" />
<glyph unicode="&#x1de;" glyph-name="uni01DE" horiz-adv-x="1404" d="M863 1493H1092L1369 0H1158L1096 383H424L213 0H0L863 1493ZM936 1294L517 551H1065L936 1294ZM794 2099H1392L1363 1951H765L794 2099ZM744 1838H948L907 1635H705L744 1838ZM1135 1838H1337L1299
1635H1096L1135 1838Z" />
<glyph unicode="&#x1df;" glyph-name="uni01DF" horiz-adv-x="1051" d="M441 1841H1039L1010 1693H412L441 1841ZM1016 639L891 0H707L741 170Q660 70 557 21T326 -29Q183 -29 92 58T0 283Q0 479 156 593T588 707H844L854 756Q856 764 857 773T858 803Q858 892
786 941T582 991Q492 991 398 968T203 899L235 1069Q339 1108 438 1127T631 1147Q829 1147 932 1061T1036 811Q1036 778 1031 734T1016 639ZM817 563H633Q407 563 299 503T190 315Q190 227 245 177T399 127Q549 127 661 234T809 522L817 563ZM432 1552H637L596
1350H393L432 1552ZM823 1552H1026L987 1350H784L823 1552Z" />
<glyph unicode="&#x1e0;" glyph-name="uni01E0" horiz-adv-x="1403" d="M863 1493H1092L1369 0H1158L1096 383H424L213 0H0L863 1493ZM936 1294L517 551H1065L936 1294ZM939 1835H1142L1103 1630H898L939 1835ZM796 2099H1394L1365 1951H767L796 2099Z" />
<glyph unicode="&#x1e1;" glyph-name="uni01E1" horiz-adv-x="1096" d="M1016 639L891 0H707L741 170Q660 70 557 21T326 -29Q183 -29 92 58T0 283Q0 479 156 593T588 707H844L854 756Q856 764 857 773T858 803Q858 892 786 941T582 991Q492 991 398 968T203 899L235
1069Q339 1108 438 1127T631 1147Q829 1147 932 1061T1036 811Q1036 778 1031 734T1016 639ZM817 563H633Q407 563 299 503T190 315Q190 227 245 177T399 127Q549 127 661 234T809 522L817 563ZM634 1513H837L798 1308H593L634 1513ZM491 1777H1089L1060 1629H462L491
1777Z" />
<glyph unicode="&#x1e2;" glyph-name="uni01E2" horiz-adv-x="1995" d="M1027 1335L544 551H1002L1156 1335H1027ZM2131 1493L2098 1323H1357L1269 881H1981L1948 711H1236L1131 170H1891L1858 0H896L969 383H443L208 0H3L918 1493H2131ZM785 1844H1383L1354 1696H756L785
1844Z" />
<glyph unicode="&#x1e3;" glyph-name="uni01E3" horiz-adv-x="2038" d="M1699 660Q1702 676 1703 693T1705 727Q1705 849 1634 920T1439 991Q1302 991 1197 905T1038 659L1699 660ZM255 1069Q359 1108 458 1127T651 1147Q795 1147 888 1102T1026 965Q1112 1055
1224 1101T1468 1147Q1658 1147 1771 1033T1884 727Q1884 681 1878 629T1859 516H1003Q997 478 995 456T993 418Q993 279 1078 203T1320 127Q1440 127 1547 154T1746 233L1712 51Q1612 11 1507 -9T1292 -29Q1124 -29 1011 28T841 199Q739 81 629 26T387 -29Q213
-29 117 53T20 283Q20 479 176 593T608 707H864L874 756Q876 764 877 773T878 803Q878 892 806 941T602 991Q512 991 418 968T223 899L255 1069ZM837 563H653Q427 563 319 503T210 315Q210 227 265 177T419 127Q569 127 681 234T829 522L837 563ZM546 1523H1144L1115
1375H517L546 1523Z" />
<glyph unicode="&#x1e4;" glyph-name="uni01E4" horiz-adv-x="1458" d="M1270 381L1219 123Q1086 50 929 10Q772 -29 613 -29Q332 -29 173 127Q15 283 15 561Q15 792 111 1000Q208 1209 378 1348Q485 1435 612 1478Q739 1520 894 1520Q1034 1520 1163 1484Q1291
1449 1408 1378L1367 1163Q1277 1257 1156 1306Q1035 1356 898 1356Q739 1356 618 1296Q497 1235 402 1108Q321 1000 275 854Q228 707 228 555Q228 346 335 240Q442 135 654 135Q760 135 859 158Q958 180 1041 223L1073 381H843L871 469H1090L1119 614H787L818
780H1348L1287 469H1445L1417 381H1270Z" />
<glyph unicode="&#x1e5;" glyph-name="uni01E5" horiz-adv-x="1180" d="M894 709Q894 845 830 919T648 993Q575 993 509 964T396 883Q320 797 278 680Q235 564 235 440Q235 302 300 228Q364 154 485 154Q660 154 777 312Q894 471 894 709ZM724 -84Q771 -8 792
96L808 180Q731 92 629 46T409 0Q239 0 142 112Q44 225 44 422Q44 577 103 726Q162 874 269 989Q340 1065 434 1106Q529 1147 632 1147Q745 1147 829 1094Q913 1042 954 946L986 1120H1171L980 139Q956 13 912 -83L1084 -84L1051 -154H876Q830 -231 770 -286Q614
-426 351 -426Q254 -426 171 -412Q88 -397 16 -367L50 -188Q118 -232 194 -253T356 -274Q531 -274 644 -178L670 -154H363L397 -84H724Z" />
<glyph unicode="&#x1e6;" glyph-name="Gcaron" horiz-adv-x="1587" d="M1041 223L1119 614H787L818 780H1348L1219 123Q1086 50 929 11T613 -29Q332 -29 174 127T15 561Q15 792 111 1000T378 1348Q485 1435 612 1477T894 1520Q1034 1520 1162 1485T1408 1378L1367
1163Q1277 1257 1156 1306T898 1356Q739 1356 618 1296T402 1108Q321 1000 275 854T228 555Q228 346 335 241T654 135Q760 135 859 157T1041 223ZM1666 1635H1453L1295 1901H1429L1568 1723L1777 1901H1928L1666 1635Z" />
<glyph unicode="&#x1e7;" glyph-name="gcaron" horiz-adv-x="1300" d="M485 1262H338L166 1638H307L434 1401L665 1638H805L485 1262ZM1171 1120L980 139Q925 -146 770 -286T351 -426Q254 -426 171 -412T16 -367L50 -188Q118 -232 194 -253T356 -274Q531 -274
643 -179T792 96L808 180Q731 92 629 46T409 0Q239 0 142 112T44 422Q44 577 103 725T269 989Q340 1065 434 1106T632 1147Q745 1147 829 1095T954 946L986 1120H1171ZM894 709Q894 845 830 919T648 993Q575 993 509 964T396 883Q320 797 278 681T235 440Q235 302
299 228T485 154Q660 154 777 312T894 709Z" />
<glyph unicode="&#x1e8;" glyph-name="uni01E8" horiz-adv-x="1343" d="M307 1493H510L387 864L1171 1493H1440L553 780L1202 0H956L360 727L219 0H16L307 1493ZM1666 1635H1453L1295 1901H1429L1568 1723L1777 1901H1928L1666 1635Z" />
<glyph unicode="&#x1e9;" glyph-name="uni01E9" horiz-adv-x="1186" d="M315 1556H499L323 649L954 1120H1193L489 584L1003 0H780L302 547L196 0H12L315 1556ZM1253 1635H1040L882 1901H1016L1155 1723L1364 1901H1515L1253 1635Z" />
<glyph unicode="&#x1ea;" glyph-name="uni01EA" horiz-adv-x="1612" d="M868 1356Q702 1356 575 1276T354 1030Q294 925 263 807T231 569Q231 361 330 248T612 135Q776 135 904 216T1124 459Q1185 567 1217 685T1249 922Q1249 1129 1149 1242T868 1356ZM606 -29Q331
-29 174 134T16 580Q16 742 77 911T247 1212Q374 1367 530 1443T874 1520Q1148 1520 1306 1359T1464 918Q1464 746 1404 580T1232 279Q1104 123 950 47T606 -29ZM474 -15H593Q529 -82 498 -132T466 -218Q466 -253 488 -270T556 -287Q585 -287 619 -280T691 -257L667
-389Q630 -401 595 -406T528 -412Q425 -412 373 -374T321 -261Q321 -209 359 -148T474 -15Z" />
<glyph unicode="&#x1eb;" glyph-name="uni01EB" horiz-adv-x="1253" d="M442 -29Q245 -29 131 92T16 424Q16 546 55 672T158 885Q257 1019 379 1083T655 1147Q846 1147 963 1028T1081 717Q1081 584 1042 452T940 233Q842 99 720 35T442 -29ZM207 430Q207 278 270
203T463 127Q648 127 769 288T891 698Q891 843 826 917T635 991Q531 991 450 943T305 795Q258 721 233 626T207 430ZM294 -15H413Q349 -82 318 -132T286 -218Q286 -253 308 -270T376 -287Q405 -287 439 -280T511 -257L487 -389Q450 -401 415 -406T348 -412Q245
-412 193 -374T141 -261Q141 -209 179 -148T294 -15Z" />
<glyph unicode="&#x1ec;" glyph-name="uni01EC" horiz-adv-x="1454" d="M855 1356Q689 1356 562 1276T341 1030Q281 925 250 807T218 569Q218 361 317 248T599 135Q763 135 891 216T1111 459Q1172 567 1204 685T1236 922Q1236 1129 1136 1242T855 1356ZM593 -29Q318
-29 161 134T3 580Q3 742 64 911T234 1212Q361 1367 517 1443T861 1520Q1135 1520 1293 1359T1451 918Q1451 746 1391 580T1219 279Q1091 123 937 47T593 -29ZM583 -16H702Q638 -83 607 -133T575 -219Q575 -254 597 -271T665 -288Q694 -288 728 -281T800 -258L776
-390Q739 -402 704 -407T637 -413Q534 -413 482 -375T430 -262Q430 -210 468 -149T583 -16ZM626 1841H1224L1195 1693H597L626 1841Z" />
<glyph unicode="&#x1ed;" glyph-name="uni01ED" horiz-adv-x="1069" d="M428 -29Q231 -29 117 92T2 424Q2 546 41 672T144 885Q243 1019 365 1083T641 1147Q832 1147 949 1028T1067 717Q1067 584 1028 452T926 233Q828 99 706 35T428 -29ZM193 430Q193 278 256
203T449 127Q634 127 755 288T877 698Q877 843 812 917T621 991Q517 991 436 943T291 795Q244 721 219 626T193 430ZM390 -16H509Q445 -83 414 -133T382 -219Q382 -254 404 -271T472 -288Q501 -288 535 -281T607 -258L583 -390Q546 -402 511 -407T444 -413Q341
-413 289 -375T237 -262Q237 -210 275 -149T390 -16ZM433 1525H1031L1002 1377H404L433 1525Z" />
<glyph unicode="&#x1ee;" glyph-name="uni01EE" horiz-adv-x="1364" d="M1610 1635H1397L1239 1901H1373L1512 1723L1721 1901H1872L1610 1635ZM520 107Q712 107 825 182Q940 257 968 400Q994 534 916 607Q837 681 672 681H498L531 847L1008 1323H236L269 1493H1293L1261
1325L757 849Q863 849 980 793Q1070 751 1135 642Q1196 538 1169 400Q1139 249 1064 164L1028 123Q1002 94 950 58Q775 -63 495 -63Q376 -63 254 -44Q132 -26 5 11L43 206Q140 157 262 132Q383 107 520 107Z" />
<glyph unicode="&#x1ef;" glyph-name="uni01EF" horiz-adv-x="1075" d="M858 476Q964 476 1081 420Q1171 378 1236 269Q1297 165 1270 27Q1227 -194 1051 -315Q876 -436 596 -436Q502 -436 406 -418Q310 -399 211 -362L249 -167Q324 -216 419 -241T623 -266Q813
-266 926 -191Q1041 -116 1069 27Q1094 159 1017 234Q938 308 773 308H599L632 474L1159 973H492L520 1120H1394L1362 952L858 476ZM353 1506H206L34 1882H175L302 1645L533 1882H673L353 1506Z" />
<glyph unicode="&#x1f0;" glyph-name="uni01F0" horiz-adv-x="569" d="M84 1250H-63L-235 1626H-94L33 1389L264 1626H404L84 1250ZM528 1120H712L491 -20L490 -25Q453 -216 405 -287Q360 -354 274 -390T69 -426H0L30 -270H77Q185 -270 230 -225T307 -20L528 1120Z" />
<glyph unicode="&#x1f1;" glyph-name="uni01F1" horiz-adv-x="2980" d="M307 1493H741Q1087 1493 1263 1347T1440 911Q1440 720 1373 544T1188 246Q1069 122 886 61T453 0H16L307 1493ZM477 1327L252 166H516Q855 166 1041 361T1227 911Q1227 1126 1107 1226T731
1327H477ZM1896 1493H3068L3039 1339L1882 170H2834L2802 0H1583L1612 154L2769 1323H1864L1896 1493Z" />
<glyph unicode="&#x1f2;" glyph-name="uni01F2" horiz-adv-x="2652" d="M307 1493H741Q1087 1493 1263 1347T1440 911Q1440 720 1373 544T1188 246Q1069 122 886 61T453 0H16L307 1493ZM477 1327L252 166H516Q855 166 1041 361T1227 911Q1227 1126 1107 1226T731
1327H477ZM1830 1120H2704L2671 952L1828 147H2524L2495 0H1586L1619 168L2462 973H1801L1830 1120Z" />
<glyph unicode="&#x1f3;" glyph-name="uni01F3" horiz-adv-x="2375" d="M763 168Q689 71 588 21T364 -29Q196 -29 99 85T1 399Q1 565 60 715T231 985Q305 1064 398 1105T593 1147Q701 1147 783 1095T911 946L1031 1556H1216L913 0H728L763 168ZM192 432Q192 287
257 206T439 125Q525 125 598 166T728 289Q787 373 821 483T855 700Q855 839 790 917T609 995Q522 995 447 954T319 836Q261 753 227 643T192 432ZM1553 1120H2427L2394 952L1551 147H2247L2218 0H1309L1342 168L2185 973H1524L1553 1120Z" />
<glyph unicode="&#x1f4;" glyph-name="uni01F4" horiz-adv-x="1587" d="M1547 1900H1754L1447 1636H1289L1547 1900ZM1041 223L1119 614H787L818 780H1348L1219 123Q1086 50 929 11T613 -29Q332 -29 174 127T15 561Q15 792 111 1000T378 1348Q485 1435 612 1477T894
1520Q1034 1520 1162 1485T1408 1378L1367 1163Q1277 1257 1156 1306T898 1356Q739 1356 618 1296T402 1108Q321 1000 275 854T228 555Q228 346 335 241T654 135Q760 135 859 157T1041 223Z" />
<glyph unicode="&#x1f5;" glyph-name="uni01F5" horiz-adv-x="1300" d="M1171 1120L980 139Q925 -146 770 -286T351 -426Q254 -426 171 -412T16 -367L50 -188Q118 -232 194 -253T356 -274Q531 -274 643 -179T792 96L808 180Q731 92 629 46T409 0Q239 0 142 112T44
422Q44 577 103 725T269 989Q340 1065 434 1106T632 1147Q745 1147 829 1095T954 946L986 1120H1171ZM894 709Q894 845 830 919T648 993Q575 993 509 964T396 883Q320 797 278 681T235 440Q235 302 299 228T485 154Q660 154 777 312T894 709ZM526 1638H725L326
1262H172L526 1638Z" />
<glyph unicode="&#x1f6;" glyph-name="uni01F6" horiz-adv-x="2140" d="M2129 1120L1998 442Q1954 219 1829 91Q1710 -29 1428 -29Q1153 -29 1073 91Q996 209 1042 442L1094 711H360L222 0H20L310 1493H512L393 881H1127L1246 1493H1448L1245 449Q1214 290 1261
210Q1307 132 1459 131Q1607 131 1689 210Q1765 285 1797 449L1927 1120H2129Z" />
<glyph unicode="&#x1f7;" glyph-name="uni01F7" horiz-adv-x="1401" d="M325 156L212 -426H10L383 1493H585L549 1308Q619 1380 781 1467Q878 1520 1104 1520Q1302 1520 1362 1400Q1401 1320 1401 1222Q1401 1171 1390 1114Q1302 657 325 156ZM363 351Q1120 781
1172 1049Q1182 1102 1182 1145Q1182 1218 1152 1263Q1106 1333 977 1333Q740 1333 504 1076L363 351Z" />
<glyph unicode="&#x1f8;" glyph-name="uni01F8" horiz-adv-x="1532" d="M1477 1899L1625 1635H1485L1295 1899H1477ZM307 1493H579L991 213L1241 1493H1438L1147 0H874L463 1288L213 0H16L307 1493Z" />
<glyph unicode="&#x1f9;" glyph-name="uni01F9" horiz-adv-x="1298" d="M1083 676L952 0H767L898 669Q907 716 912 752T917 809Q917 893 864 940T716 987Q568 987 461 889T321 621L198 0H14L231 1120H415L378 944Q455 1041 563 1094T790 1147Q938 1147 1019 1067T1101
842Q1101 806 1097 765T1083 676ZM243 1638L452 1264H298L46 1638H243Z" />
<glyph unicode="&#x1fa;" glyph-name="Aringacute" horiz-adv-x="1401" d="M1129 1626Q1129 1689 1085 1733T977 1778Q913 1778 870 1735T826 1626Q826 1563 869 1519T977 1475Q1040 1475 1084 1519T1129 1626ZM814 1407Q760 1444 732 1500T703 1626Q703 1740
783 1820T977 1901Q1091 1901 1171 1821T1252 1626Q1252 1547 1216 1486T1110 1389L1369 0H1158L1096 383H424L213 0H0L814 1407ZM936 1294L517 551H1065L936 1294ZM1912 1900H2119L1812 1636H1654L1912 1900Z" />
<glyph unicode="&#x1fb;" glyph-name="aringacute" horiz-adv-x="1502" d="M1295 1900H1502L1195 1636H1037L1295 1900ZM1020 639L895 0H711L745 170Q664 70 561 21T330 -29Q187 -29 96 58T4 283Q4 479 160 593T592 707H848L858 756Q860 764 861 773T862 803Q862
892 790 941T586 991Q496 991 402 968T207 899L239 1069Q343 1108 442 1127T635 1147Q833 1147 936 1061T1040 811Q1040 778 1035 734T1020 639ZM821 563H637Q411 563 303 503T194 315Q194 227 249 177T403 127Q553 127 665 234T813 522L821 563ZM997 1524Q997
1409 918 1329T722 1249Q607 1249 528 1329T448 1524Q448 1640 527 1719T722 1798Q838 1798 917 1719T997 1524ZM874 1524Q874 1588 831 1631T722 1675Q656 1675 614 1633T571 1524Q571 1458 613 1415T722 1372Q789 1372 831 1415T874 1524Z" />
<glyph unicode="&#x1fc;" glyph-name="AEacute" horiz-adv-x="1995" d="M2023 1900H2230L1923 1636H1765L2023 1900ZM1027 1335L544 551H1002L1156 1335H1027ZM2131 1493L2098 1323H1357L1269 881H1981L1948 711H1236L1131 170H1891L1858 0H896L969 383H443L208
0H3L918 1493H2131Z" />
<glyph unicode="&#x1fd;" glyph-name="aeacute" horiz-adv-x="2038" d="M1699 660Q1702 676 1703 693T1705 727Q1705 849 1634 920T1439 991Q1302 991 1197 905T1038 659L1699 660ZM255 1069Q359 1108 458 1127T651 1147Q795 1147 888 1102T1026 965Q1112 1055
1224 1101T1468 1147Q1658 1147 1771 1033T1884 727Q1884 681 1878 629T1859 516H1003Q997 478 995 456T993 418Q993 279 1078 203T1320 127Q1440 127 1547 154T1746 233L1712 51Q1612 11 1507 -9T1292 -29Q1124 -29 1011 28T841 199Q739 81 629 26T387 -29Q213
-29 117 53T20 283Q20 479 176 593T608 707H864L874 756Q876 764 877 773T878 803Q878 892 806 941T602 991Q512 991 418 968T223 899L255 1069ZM837 563H653Q427 563 319 503T210 315Q210 227 265 177T419 127Q569 127 681 234T829 522L837 563ZM539 1638H738L339
1262H185L539 1638Z" />
<glyph unicode="&#x1fe;" glyph-name="Oslashacute" horiz-adv-x="1612" d="M1662 1900H1869L1562 1636H1404L1662 1900ZM1301 1235Q1256 1295 1183 1325T1012 1356Q847 1356 720 1275T500 1032Q438 923 406 804T373 571Q373 526 379 483T397 395L1301 1235ZM1366
1116L459 270Q510 202 583 169T756 135Q920 135 1048 216T1268 459Q1330 571 1361 688T1393 928Q1393 984 1387 1030T1366 1116ZM238 246Q199 326 180 408T160 575Q160 741 221 909T391 1212Q516 1366 672 1443T1018 1520Q1148 1520 1253 1482T1442 1366L1645 1559L1735
1460L1526 1262Q1566 1189 1586 1105T1606 922Q1606 745 1547 580T1376 279Q1248 123 1094 47T750 -29Q611 -29 503 13T318 137L98 -66L8 33L238 246Z" />
<glyph unicode="&#x1ff;" glyph-name="oslashacute" horiz-adv-x="1253" d="M937 922Q900 957 854 974T749 991Q563 991 443 831T323 420Q323 373 324 353T331 315L937 922ZM190 172Q160 221 145 284T130 422Q130 544 169 671T272 885Q370 1019 491 1083T769 1147Q856
1147 930 1121T1062 1044L1224 1208L1310 1122L1138 950Q1166 895 1180 833T1195 702Q1195 578 1156 449T1054 233Q957 99 836 35T556 -29Q469 -29 396 -3T265 76L93 -94L7 -10L190 172ZM997 809L388 199Q427 162 472 145T577 127Q766 127 885 290T1005 717Q1005
756 1003 775T997 809ZM354 1638H553L154 1262H0L354 1638Z" />
<glyph unicode="&#x200;" glyph-name="uni0200" horiz-adv-x="1401" d="M863 1493H1092L1369 0H1158L1096 383H424L213 0H0L863 1493ZM936 1294L517 551H1065L936 1294ZM1737 1904L1885 1640H1745L1555 1904H1737ZM1457 1904L1605 1640H1465L1275 1904H1457Z" />
<glyph unicode="&#x201;" glyph-name="uni0201" horiz-adv-x="1255" d="M1027 639L902 0H718L752 170Q671 70 568 21T337 -29Q194 -29 103 58T11 283Q11 479 167 593T599 707H855L865 756Q867 764 868 773T869 803Q869 892 797 941T593 991Q503 991 409 968T214
899L246 1069Q350 1108 449 1127T642 1147Q840 1147 943 1061T1047 811Q1047 778 1042 734T1027 639ZM828 563H644Q418 563 310 503T201 315Q201 227 256 177T410 127Q560 127 672 234T820 522L828 563ZM1204 1638L1409 1262H1274L1026 1638H1204ZM1538 1638L1728
1262H1591L1368 1638H1538Z" />
<glyph unicode="&#x202;" glyph-name="uni0202" horiz-adv-x="1401" d="M863 1493H1092L1369 0H1158L1096 383H424L213 0H0L863 1493ZM936 1294L517 551H1065L936 1294ZM1898 1636H1779Q1767 1697 1728 1724T1613 1751Q1527 1751 1473 1724T1390 1636H1271Q1305
1749 1397 1813T1617 1878Q1738 1878 1808 1818T1898 1636Z" />
<glyph unicode="&#x203;" glyph-name="uni0203" horiz-adv-x="1255" d="M1027 639L902 0H718L752 170Q671 70 568 21T337 -29Q194 -29 103 58T11 283Q11 479 167 593T599 707H855L865 756Q867 764 868 773T869 803Q869 892 797 941T593 991Q503 991 409 968T214
899L246 1069Q350 1108 449 1127T642 1147Q840 1147 943 1061T1047 811Q1047 778 1042 734T1027 639ZM828 563H644Q418 563 310 503T201 315Q201 227 256 177T410 127Q560 127 672 234T820 522L828 563ZM1640 1321H1526V1336Q1526 1404 1484 1437T1356 1471Q1271
1471 1216 1435T1130 1321H1014Q1046 1460 1141 1534T1382 1608Q1510 1608 1576 1544T1642 1354Q1642 1348 1641 1337T1640 1321Z" />
<glyph unicode="&#x204;" glyph-name="uni0204" horiz-adv-x="1294" d="M304 1493H1248L1215 1323H472L386 881H1099L1066 711H353L249 170H1009L976 0H13L304 1493ZM1632 1904L1780 1640H1640L1450 1904H1632ZM1352 1904L1500 1640H1360L1170 1904H1352Z" />
<glyph unicode="&#x205;" glyph-name="uni0205" horiz-adv-x="1260" d="M906 660Q909 676 910 693T912 727Q912 849 841 920T646 991Q509 991 404 905T245 659L906 660ZM1066 516H210Q204 478 202 456T200 418Q200 279 285 203T527 127Q647 127 754 154T953 233L918
51Q819 11 714 -9T499 -29Q266 -29 141 82T15 399Q15 574 77 724T261 993Q339 1067 446 1107T675 1147Q865 1147 977 1033T1090 727Q1090 681 1084 629T1066 516ZM1215 1638L1420 1262H1285L1037 1638H1215ZM1549 1638L1739 1262H1602L1379 1638H1549Z" />
<glyph unicode="&#x206;" glyph-name="uni0206" horiz-adv-x="1294" d="M304 1493H1248L1215 1323H472L386 881H1099L1066 711H353L249 170H1009L976 0H13L304 1493ZM1835 1636H1716Q1704 1697 1665 1724T1550 1751Q1464 1751 1410 1724T1327 1636H1208Q1242 1749
1334 1813T1554 1878Q1675 1878 1745 1818T1835 1636Z" />
<glyph unicode="&#x207;" glyph-name="uni0207" horiz-adv-x="1260" d="M906 660Q909 676 910 693T912 727Q912 849 841 920T646 991Q509 991 404 905T245 659L906 660ZM1066 516H210Q204 478 202 456T200 418Q200 279 285 203T527 127Q647 127 754 154T953 233L918
51Q819 11 714 -9T499 -29Q266 -29 141 82T15 399Q15 574 77 724T261 993Q339 1067 446 1107T675 1147Q865 1147 977 1033T1090 727Q1090 681 1084 629T1066 516ZM1651 1321H1537V1336Q1537 1404 1495 1437T1367 1471Q1282 1471 1227 1435T1141 1321H1025Q1057
1460 1152 1534T1393 1608Q1521 1608 1587 1544T1653 1354Q1653 1348 1652 1337T1651 1321Z" />
<glyph unicode="&#x208;" glyph-name="uni0208" horiz-adv-x="604" d="M291 1493H494L203 0H0L291 1493ZM1303 1904L1451 1640H1311L1121 1904H1303ZM1023 1904L1171 1640H1031L841 1904H1023Z" />
<glyph unicode="&#x209;" glyph-name="uni0209" horiz-adv-x="569" d="M907 1638L1112 1262H977L729 1638H907ZM1241 1638L1431 1262H1294L1071 1638H1241ZM220 1120H404L185 0H1L220 1120Z" />
<glyph unicode="&#x20a;" glyph-name="uni020A" horiz-adv-x="604" d="M291 1493H494L203 0H0L291 1493ZM1450 1636H1331Q1319 1697 1280 1724T1165 1751Q1079 1751 1025 1724T942 1636H823Q857 1749 949 1813T1169 1878Q1290 1878 1360 1818T1450 1636Z" />
<glyph unicode="&#x20b;" glyph-name="uni020B" horiz-adv-x="569" d="M1273 1321H1159V1336Q1159 1404 1117 1437T989 1471Q904 1471 849 1435T763 1321H647Q679 1460 774 1534T1015 1608Q1143 1608 1209 1544T1275 1354Q1275 1348 1274 1337T1273 1321ZM220
1120H404L185 0H1L220 1120Z" />
<glyph unicode="&#x20c;" glyph-name="uni020C" horiz-adv-x="1612" d="M868 1356Q702 1356 575 1276T354 1030Q294 925 263 807T231 569Q231 361 330 248T612 135Q776 135 904 216T1124 459Q1185 567 1217 685T1249 922Q1249 1129 1149 1242T868 1356ZM606 -29Q331
-29 174 134T16 580Q16 742 77 911T247 1212Q374 1367 530 1443T874 1520Q1148 1520 1306 1359T1464 918Q1464 746 1404 580T1232 279Q1104 123 950 47T606 -29ZM1856 1904L2004 1640H1864L1674 1904H1856ZM1576 1904L1724 1640H1584L1394 1904H1576Z" />
<glyph unicode="&#x20d;" glyph-name="uni020D" horiz-adv-x="1253" d="M1186 1638L1391 1262H1256L1008 1638H1186ZM1520 1638L1710 1262H1573L1350 1638H1520ZM442 -29Q245 -29 131 92T16 424Q16 546 55 672T158 885Q257 1019 379 1083T655 1147Q846 1147 963
1028T1081 717Q1081 584 1042 452T940 233Q842 99 720 35T442 -29ZM207 430Q207 278 270 203T463 127Q648 127 769 288T891 698Q891 843 826 917T635 991Q531 991 450 943T305 795Q258 721 233 626T207 430Z" />
<glyph unicode="&#x20e;" glyph-name="uni020E" horiz-adv-x="1612" d="M868 1356Q702 1356 575 1276T354 1030Q294 925 263 807T231 569Q231 361 330 248T612 135Q776 135 904 216T1124 459Q1185 567 1217 685T1249 922Q1249 1129 1149 1242T868 1356ZM606 -29Q331
-29 174 134T16 580Q16 742 77 911T247 1212Q374 1367 530 1443T874 1520Q1148 1520 1306 1359T1464 918Q1464 746 1404 580T1232 279Q1104 123 950 47T606 -29ZM2038 1636H1919Q1907 1697 1868 1724T1753 1751Q1667 1751 1613 1724T1530 1636H1411Q1445 1749 1537
1813T1757 1878Q1878 1878 1948 1818T2038 1636Z" />
<glyph unicode="&#x20f;" glyph-name="uni020F" horiz-adv-x="1253" d="M1651 1321H1537V1336Q1537 1404 1495 1437T1367 1471Q1282 1471 1227 1435T1141 1321H1025Q1057 1460 1152 1534T1393 1608Q1521 1608 1587 1544T1653 1354Q1653 1348 1652 1337T1651 1321ZM442
-29Q245 -29 131 92T16 424Q16 546 55 672T158 885Q257 1019 379 1083T655 1147Q846 1147 963 1028T1081 717Q1081 584 1042 452T940 233Q842 99 720 35T442 -29ZM207 430Q207 278 270 203T463 127Q648 127 769 288T891 698Q891 843 826 917T635 991Q531 991 450
943T305 795Q258 721 233 626T207 430Z" />
<glyph unicode="&#x210;" glyph-name="uni0210" horiz-adv-x="1423" d="M473 1327L371 797H631Q784 797 878 881T973 1102Q973 1211 910 1269T727 1327H473ZM844 717Q908 702 950 643T1049 408L1176 0H963L846 383Q801 531 742 581T561 631H338L215 0H12L303 1493H758Q965
1493 1075 1400T1186 1130Q1186 974 1092 860T844 717ZM1625 1904L1773 1640H1633L1443 1904H1625ZM1345 1904L1493 1640H1353L1163 1904H1345Z" />
<glyph unicode="&#x211;" glyph-name="uni0211" horiz-adv-x="842" d="M852 950Q824 965 788 973T711 981Q564 981 454 870T308 571L195 0H11L230 1120H414L379 946Q452 1043 553 1095T770 1147Q800 1147 829 1144T887 1132L852 950ZM1074 1638L1279 1262H1144L896
1638H1074ZM1408 1638L1598 1262H1461L1238 1638H1408Z" />
<glyph unicode="&#x212;" glyph-name="uni0212" horiz-adv-x="1423" d="M473 1327L371 797H631Q784 797 878 881T973 1102Q973 1211 910 1269T727 1327H473ZM844 717Q908 702 950 643T1049 408L1176 0H963L846 383Q801 531 742 581T561 631H338L215 0H12L303 1493H758Q965
1493 1075 1400T1186 1130Q1186 974 1092 860T844 717ZM1765 1636H1646Q1634 1697 1595 1724T1480 1751Q1394 1751 1340 1724T1257 1636H1138Q1172 1749 1264 1813T1484 1878Q1605 1878 1675 1818T1765 1636Z" />
<glyph unicode="&#x213;" glyph-name="uni0213" horiz-adv-x="842" d="M852 950Q824 965 788 973T711 981Q564 981 454 870T308 571L195 0H11L230 1120H414L379 946Q452 1043 553 1095T770 1147Q800 1147 829 1144T887 1132L852 950ZM1510 1321H1396V1336Q1396
1404 1354 1437T1226 1471Q1141 1471 1086 1435T1000 1321H884Q916 1460 1011 1534T1252 1608Q1380 1608 1446 1544T1512 1354Q1512 1348 1511 1337T1510 1321Z" />
<glyph unicode="&#x214;" glyph-name="uni0214" horiz-adv-x="1499" d="M219 1493H422L246 586Q235 525 231 486T226 416Q226 278 303 207T529 135Q722 135 829 241T983 586L1159 1493H1362L1182 561Q1123 259 958 115T506 -29Q282 -29 152 83T21 389Q21 424 26
467T41 561L219 1493ZM1737 1904L1885 1640H1745L1555 1904H1737ZM1457 1904L1605 1640H1465L1275 1904H1457Z" />
<glyph unicode="&#x215;" glyph-name="uni0215" horiz-adv-x="1298" d="M42 444L173 1120H358L227 451Q217 402 213 367T208 309Q208 224 260 178T407 131Q555 131 663 231T804 500L927 1120H1111L894 0H710L747 176Q669 78 562 25T333 -29Q186 -29 104 51T22
276Q22 306 27 351T42 444ZM1210 1638L1415 1262H1280L1032 1638H1210ZM1544 1638L1734 1262H1597L1374 1638H1544Z" />
<glyph unicode="&#x216;" glyph-name="uni0216" horiz-adv-x="1499" d="M219 1493H422L246 586Q235 525 231 486T226 416Q226 278 303 207T529 135Q722 135 829 241T983 586L1159 1493H1362L1182 561Q1123 259 958 115T506 -29Q282 -29 152 83T21 389Q21 424 26
467T41 561L219 1493ZM1898 1636H1779Q1767 1697 1728 1724T1613 1751Q1527 1751 1473 1724T1390 1636H1271Q1305 1749 1397 1813T1617 1878Q1738 1878 1808 1818T1898 1636Z" />
<glyph unicode="&#x217;" glyph-name="uni0217" horiz-adv-x="1298" d="M42 444L173 1120H358L227 451Q217 402 213 367T208 309Q208 224 260 178T407 131Q555 131 663 231T804 500L927 1120H1111L894 0H710L747 176Q669 78 562 25T333 -29Q186 -29 104 51T22
276Q22 306 27 351T42 444ZM1646 1321H1532V1336Q1532 1404 1490 1437T1362 1471Q1277 1471 1222 1435T1136 1321H1020Q1052 1460 1147 1534T1388 1608Q1516 1608 1582 1544T1648 1354Q1648 1348 1647 1337T1646 1321Z" />
<glyph unicode="&#x218;" glyph-name="Scommaaccent" horiz-adv-x="1300" d="M1199 -172H1410L1184 -492H1055L1199 -172ZM1231 1444L1192 1247Q1091 1301 992 1328T799 1356Q618 1356 511 1277T404 1067Q404 995 443 957T647 874L768 844Q973 791 1053 710T1133
481Q1133 255 956 113T488 -29Q369 -29 249 -6T8 66L49 274Q160 205 271 170T494 135Q683 135 797 219T911 438Q911 528 866 574T670 659L549 690Q342 744 267 814T191 1012Q191 1235 362 1377T809 1520Q916 1520 1021 1501T1231 1444Z" />
<glyph unicode="&#x219;" glyph-name="scommaaccent" horiz-adv-x="1067" d="M1126 -172H1337L1111 -492H982L1126 -172ZM1009 1087L974 913Q901 953 820 973T653 993Q508 993 425 944T341 809Q341 710 535 657Q550 653 557 651L616 633Q800 582 861 526T923 373Q923
195 782 83T411 -29Q322 -29 224 -12T8 41L44 231Q145 179 243 152T431 125Q566 125 650 183T735 330Q735 426 513 485L494 490L431 506Q291 543 226 603T161 758Q161 937 295 1042T661 1147Q752 1147 838 1132T1009 1087Z" />
<glyph unicode="&#x21a;" glyph-name="uni021A" horiz-adv-x="1251" d="M1132 -172H1343L1117 -492H988L1132 -172ZM40 1493H1303L1271 1323H738L482 0H279L535 1323H7L40 1493Z" />
<glyph unicode="&#x21b;" glyph-name="uni021B" horiz-adv-x="803" d="M1125 -172H1336L1110 -492H981L1125 -172ZM745 1120L717 977H350L231 369Q225 335 222 312T219 276Q219 212 257 183T381 154H567L536 0H360Q196 0 116 64T35 258Q35 281 38 308T47 369L166
977H10L39 1120H192L254 1438H438L377 1120H745Z" />
<glyph unicode="&#x21c;" glyph-name="uni021C" horiz-adv-x="1295" d="M1290 1200Q1290 1153 1281 1107T1256 1024T1217 949T1171 884T1119 827T1066 779T1015 740T970 710T933 688T910 674Q980 658 1030 627T1105 554T1141 472T1152 388Q1152 129 853 -92T1
-430L35 -270Q233 -219 390 -156T650 -30T821 102T918 232T947 356Q947 441 900 490T760 545T532 496L354 424L390 595L661 701Q770 744 854 803T986 925T1058 1050T1082 1173Q1082 1223 1061 1259T1005 1314T931 1341T851 1350Q666 1350 385 1166L425 1356Q699
1520 905 1520Q1076 1520 1183 1434T1290 1200Z" />
<glyph unicode="&#x21d;" glyph-name="uni021D" horiz-adv-x="1136" d="M800 461Q847 455 885 437T948 393T989 336T1012 274T1019 213Q1019 116 949 20T750 -160T429 -316T2 -433L30 -303Q446 -191 642 -65T839 216Q839 286 793 328T666 370Q607 370 538 345L304
259L334 398L575 483Q753 547 848 650T944 862Q944 903 926 933T875 979T808 1002T733 1009Q665 1009 575 980T318 860L351 1014Q645 1147 779 1147Q878 1147 957 1118T1083 1031T1131 894Q1131 859 1124 826T1105 764T1075 707T1039 656T996 609T953 569T907 534T866
505T829 480T800 461Z" />
<glyph unicode="&#x21e;" glyph-name="uni021E" horiz-adv-x="1540" d="M1696 1635H1483L1325 1901H1459L1598 1723L1807 1901H1958L1696 1635ZM307 1493H510L391 881H1124L1243 1493H1446L1155 0H952L1091 711H358L219 0H16L307 1493Z" />
<glyph unicode="&#x21f;" glyph-name="uni021F" horiz-adv-x="1298" d="M1217 1635H1004L846 1901H980L1119 1723L1328 1901H1479L1217 1635ZM1079 676L948 0H763L894 669Q903 716 908 752T913 809Q913 893 860 940T712 987Q564 987 456 887T315 621L194 0H10L313
1556H497L378 944Q448 1038 557 1092T786 1147Q934 1147 1015 1067T1097 842Q1097 806 1093 765T1079 676Z" />
<glyph unicode="&#x220;" glyph-name="uni0220" horiz-adv-x="1321" d="M1279 893L1023 -426H822L1079 895Q1096 984 1096 1055Q1096 1153 1063 1216Q1008 1323 855 1323Q676 1323 542 1194Q411 1068 368 846L204 0H2L292 1493H494L447 1252Q551 1387 669 1453Q787
1520 941 1520Q1168 1520 1253 1361Q1304 1267 1304 1122Q1304 1020 1279 893Z" />
<glyph unicode="&#x221;" glyph-name="uni0221" horiz-adv-x="1539" d="M1063 130Q1079 125 1116 125Q1276 125 1310 300Q1319 345 1267 346Q1215 346 1063 130ZM1007 314Q1153 498 1289 498Q1533 498 1493 292Q1430 -29 1088 -29Q1015 -29 965 -14Q917 -86 882
-144H686Q728 -75 824 72Q787 132 794 168Q717 68 620 20Q521 -29 397 -29Q194 -29 98 133T53 559Q105 823 263 985Q423 1147 626 1147Q750 1147 829 1098Q908 1050 946 950L1064 1556H1248L1007 314ZM243 559Q204 356 264 240Q326 125 472 125T724 240Q831 356
870 559Q910 762 848 878Q787 993 641 993T388 878Q283 762 243 559Z" />
<glyph unicode="&#x222;" glyph-name="uni0222" horiz-adv-x="1342" d="M676 709Q492 709 371 632Q249 555 222 420Q217 390 217 363Q217 268 288 208Q379 131 563 131T869 208Q991 286 1017 420Q1023 450 1023 478Q1023 572 953 632Q862 709 676 709ZM725 1260Q594
1257 497 1195T385 1054Q383 1044 383 1034Q383 975 452 913Q503 868 707 868Q875 868 982 933Q1091 998 1117 1134Q1127 1183 1127 1221Q1127 1305 1080 1335Q986 1412 858 1420L877 1520Q1105 1520 1235 1416Q1327 1341 1327 1214Q1327 1176 1319 1133Q1294 1005
1192 916T931 795Q1097 761 1173 662Q1229 589 1229 493Q1229 458 1221 420Q1179 203 1001 87T532 -29T109 87Q7 175 7 322Q7 368 17 420Q45 563 161 662T454 795Q289 826 236 896Q182 967 182 1037Q182 1055 185 1073Q211 1203 357 1286Q487 1360 744 1360L725
1260Z" />
<glyph unicode="&#x223;" glyph-name="uni0223" horiz-adv-x="1155" d="M594 709Q450 709 352 632Q255 555 229 420Q221 382 221 349Q221 263 270 208Q338 131 482 131T724 208Q822 286 848 420Q855 458 855 491Q855 576 806 632Q739 709 594 709ZM1113 1327Q1141
1273 1141 1206Q1141 1171 1133 1133Q1104 980 1039 916Q949 827 814 795Q953 761 1016 662Q1058 594 1058 505Q1058 464 1050 420Q1008 203 852 87Q697 -29 450 -29T94 87Q14 171 14 308Q14 360 26 420Q54 563 155 662T409 795Q273 830 229 916Q208 959 208 1025Q208
1073 219 1133Q240 1239 320 1327L475 1295Q419 1230 397 1114Q391 1082 391 1055Q391 980 434 933Q494 868 625 868Q755 868 840 933Q927 998 950 1114Q959 1164 959 1204Q959 1259 941 1295L1113 1327Z" />
<glyph unicode="&#x224;" glyph-name="uni0224" horiz-adv-x="1496" d="M1215 -20Q1159 -309 986 -389Q907 -426 792 -426H538L569 -270H802Q907 -270 954 -222Q1002 -173 1031 -20L1035 0H0L30 154L1201 1323H280L314 1493H1487L1457 1339L285 170H1252L1215 -20Z" />
<glyph unicode="&#x225;" glyph-name="uni0225" horiz-adv-x="1123" d="M895 -20Q839 -309 665 -389Q586 -426 472 -426H218L248 -270H481Q586 -270 633 -222Q681 -173 711 -20L715 0H0L32 168L881 973H214L242 1120H1116L1084 952L235 147H927L895 -20Z" />
<glyph unicode="&#x226;" glyph-name="uni0226" horiz-adv-x="1401" d="M1300 1872H1503L1464 1667H1259L1300 1872ZM863 1493H1092L1369 0H1158L1096 383H424L213 0H0L863 1493ZM936 1294L517 551H1065L936 1294Z" />
<glyph unicode="&#x227;" glyph-name="uni0227" horiz-adv-x="1255" d="M1068 1556H1252L1207 1323H1023L1068 1556ZM1027 639L902 0H718L752 170Q671 70 568 21T337 -29Q194 -29 103 58T11 283Q11 479 167 593T599 707H855L865 756Q867 764 868 773T869 803Q869
892 797 941T593 991Q503 991 409 968T214 899L246 1069Q350 1108 449 1127T642 1147Q840 1147 943 1061T1047 811Q1047 778 1042 734T1027 639ZM828 563H644Q418 563 310 503T201 315Q201 227 256 177T410 127Q560 127 672 234T820 522L828 563Z" />
<glyph unicode="&#x228;" glyph-name="uni0228" horiz-adv-x="1294" d="M304 1493H1248L1215 1323H472L386 881H1099L1066 711H353L249 170H1009L976 0H13L304 1493ZM530 7Q566 -44 583 -87T600 -173Q600 -273 527 -330T325 -388Q282 -388 239 -382T153 -364L176
-233Q215 -249 254 -257T336 -265Q396 -265 431 -235T467 -151Q467 -122 455 -86T411 7H530Z" />
<glyph unicode="&#x229;" glyph-name="uni0229" horiz-adv-x="1260" d="M906 660Q909 676 910 693T912 727Q912 849 841 920T646 991Q509 991 404 905T245 659L906 660ZM1066 516H210Q204 478 202 456T200 418Q200 279 285 203T527 127Q647 127 754 154T953 233L918
51Q819 11 714 -9T499 -29Q266 -29 141 82T15 399Q15 574 77 724T261 993Q339 1067 446 1107T675 1147Q865 1147 977 1033T1090 727Q1090 681 1084 629T1066 516ZM446 0Q482 -51 499 -94T516 -180Q516 -280 443 -337T241 -395Q198 -395 155 -389T69 -371L92 -240Q131
-256 170 -264T252 -272Q312 -272 347 -242T383 -158Q383 -129 371 -93T327 0H446Z" />
<glyph unicode="&#x22a;" glyph-name="uni022A" horiz-adv-x="1461" d="M855 1356Q689 1356 562 1276T341 1030Q281 925 250 807T218 569Q218 361 317 248T599 135Q763 135 891 216T1111 459Q1172 567 1204 685T1236 922Q1236 1129 1136 1242T855 1356ZM593 -29Q318
-29 161 134T3 580Q3 742 64 911T234 1212Q361 1367 517 1443T861 1520Q1135 1520 1293 1359T1451 918Q1451 746 1391 580T1219 279Q1091 123 937 47T593 -29ZM708 2099H1306L1277 1951H679L708 2099ZM658 1838H862L821 1635H619L658 1838ZM1049 1838H1251L1213
1635H1010L1049 1838Z" />
<glyph unicode="&#x22b;" glyph-name="uni022B" horiz-adv-x="1107" d="M502 1841H1100L1071 1693H473L502 1841ZM428 -29Q231 -29 117 92T2 424Q2 546 41 672T144 885Q243 1019 365 1083T641 1147Q832 1147 949 1028T1067 717Q1067 584 1028 452T926 233Q828
99 706 35T428 -29ZM193 430Q193 278 256 203T449 127Q634 127 755 288T877 698Q877 843 812 917T621 991Q517 991 436 943T291 795Q244 721 219 626T193 430ZM439 1552H644L603 1350H400L439 1552ZM830 1552H1033L994 1350H791L830 1552Z" />
<glyph unicode="&#x22c;" glyph-name="uni022C" horiz-adv-x="1463" d="M855 1356Q689 1356 562 1276T341 1030Q281 925 250 807T218 569Q218 361 317 248T599 135Q763 135 891 216T1111 459Q1172 567 1204 685T1236 922Q1236 1129 1136 1242T855 1356ZM593 -29Q318
-29 161 134T3 580Q3 742 64 911T234 1212Q361 1367 517 1443T861 1520Q1135 1520 1293 1359T1451 918Q1451 746 1391 580T1219 279Q1091 123 937 47T593 -29ZM991 1685L956 1710L955 1711Q912 1743 874 1743Q840 1743 813 1718T768 1642H643Q678 1751 739 1806T886
1861Q921 1861 951 1850T1018 1814L1050 1788Q1068 1774 1087 1768T1126 1761Q1165 1761 1193 1788T1233 1861H1358Q1325 1752 1263 1697T1108 1642Q1077 1642 1050 1652T991 1685ZM772 2099H1370L1341 1951H743L772 2099Z" />
<glyph unicode="&#x22d;" glyph-name="uni022D" horiz-adv-x="1105" d="M429 -29Q232 -29 118 92T3 424Q3 546 42 672T145 885Q244 1019 366 1083T642 1147Q833 1147 950 1028T1068 717Q1068 584 1029 452T927 233Q829 99 707 35T429 -29ZM194 430Q194 278 257
203T450 127Q635 127 756 288T878 698Q878 843 813 917T622 991Q518 991 437 943T292 795Q245 721 220 626T194 430ZM715 1349L680 1374L679 1375Q636 1407 598 1407Q564 1407 537 1382T492 1306H367Q402 1415 463 1470T610 1525Q645 1525 675 1514T742 1478L774
1452Q792 1438 811 1432T850 1425Q889 1425 917 1452T957 1525H1082Q1049 1416 987 1361T832 1306Q801 1306 774 1316T715 1349ZM496 1763H1094L1065 1615H467L496 1763Z" />
<glyph unicode="&#x22e;" glyph-name="uni022E" horiz-adv-x="1612" d="M868 1356Q702 1356 575 1276T354 1030Q294 925 263 807T231 569Q231 361 330 248T612 135Q776 135 904 216T1124 459Q1185 567 1217 685T1249 922Q1249 1129 1149 1242T868 1356ZM606 -29Q331
-29 174 134T16 580Q16 742 77 911T247 1212Q374 1367 530 1443T874 1520Q1148 1520 1306 1359T1464 918Q1464 746 1404 580T1232 279Q1104 123 950 47T606 -29ZM1378 1871H1581L1542 1666H1337L1378 1871Z" />
<glyph unicode="&#x22f;" glyph-name="uni022F" horiz-adv-x="1253" d="M1083 1556H1267L1222 1323H1038L1083 1556ZM442 -29Q245 -29 131 92T16 424Q16 546 55 672T158 885Q257 1019 379 1083T655 1147Q846 1147 963 1028T1081 717Q1081 584 1042 452T940 233Q842
99 720 35T442 -29ZM207 430Q207 278 270 203T463 127Q648 127 769 288T891 698Q891 843 826 917T635 991Q531 991 450 943T305 795Q258 721 233 626T207 430Z" />
<glyph unicode="&#x230;" glyph-name="uni0230" horiz-adv-x="1458" d="M854 1356Q688 1356 561 1276T340 1030Q280 925 249 807T217 569Q217 361 316 248T598 135Q762 135 890 216T1110 459Q1171 567 1203 685T1235 922Q1235 1129 1135 1242T854 1356ZM592 -29Q317
-29 160 134T2 580Q2 742 63 911T233 1212Q360 1367 516 1443T860 1520Q1134 1520 1292 1359T1450 918Q1450 746 1390 580T1218 279Q1090 123 936 47T592 -29ZM854 1843H1057L1018 1638H813L854 1843ZM711 2107H1309L1280 1959H682L711 2107Z" />
<glyph unicode="&#x231;" glyph-name="uni0231" horiz-adv-x="1073" d="M465 1841H1063L1034 1693H436L465 1841ZM627 1556H811L766 1323H582L627 1556ZM427 -29Q230 -29 116 92T1 424Q1 546 40 672T143 885Q242 1019 364 1083T640 1147Q831 1147 948 1028T1066
717Q1066 584 1027 452T925 233Q827 99 705 35T427 -29ZM192 430Q192 278 255 203T448 127Q633 127 754 288T876 698Q876 843 811 917T620 991Q516 991 435 943T290 795Q243 721 218 626T192 430Z" />
<glyph unicode="&#x232;" glyph-name="uni0232" horiz-adv-x="1251" d="M11 1493H228L507 879L1039 1493H1266L589 711L451 0H249L386 711L11 1493ZM172 1841H770L741 1693H143L172 1841Z" />
<glyph unicode="&#x233;" glyph-name="uni0233" horiz-adv-x="1212" d="M571 -104Q443 -319 363 -372T157 -426H12L43 -272H149Q226 -272 280 -230T401 -66L458 41L210 1120H405L591 262L1105 1120H1298L571 -104ZM152 1526H750L721 1378H123L152 1526Z" />
<glyph unicode="&#x234;" glyph-name="uni0234" horiz-adv-x="848" d="M379 130Q395 125 432 125Q592 125 626 300Q634 345 583 346Q531 346 379 130ZM322 314Q468 498 604 498Q848 498 808 292Q746 -29 404 -29Q331 -29 281 -14Q233 -86 197 -144H1Q44 -75 139
72Q102 132 121 222L379 1550H563L322 314Z" />
<glyph unicode="&#x235;" glyph-name="uni0235" horiz-adv-x="1542" d="M1070 130Q1086 125 1123 125Q1283 125 1317 300Q1326 345 1274 346Q1222 346 1070 130ZM1014 314Q1159 498 1295 498Q1539 498 1499 292Q1437 -29 1095 -29Q1022 -29 972 -14Q924 -86 889
-144H693Q735 -75 831 72Q793 132 812 222L899 670Q930 829 883 908T712 987Q563 987 459 892Q354 797 323 633L200 0H15L232 1120H417L383 946Q469 1047 568 1097T784 1147Q977 1147 1053 1028Q1129 908 1084 676L1014 314Z" />
<glyph unicode="&#x236;" glyph-name="uni0236" horiz-adv-x="860" d="M381 130Q397 125 434 125Q594 125 628 300Q636 345 584 346Q532 346 381 130ZM324 314Q470 498 606 498Q850 498 810 292Q748 -29 406 -29Q333 -29 282 -14Q235 -86 199 -144H3Q46 -75 141
72Q104 132 121 222L268 977H133L161 1120H296L358 1438H543L481 1120H860L832 977H453L324 314Z" />
<glyph unicode="&#x237;" glyph-name="dotlessj" horiz-adv-x="715" d="M528 1120H712L491 -20L490 -25Q453 -216 405 -287Q360 -354 274 -390T69 -426H0L30 -270H77Q185 -270 230 -225T307 -20L528 1120Z" />
<glyph unicode="&#x238;" glyph-name="uni0238" horiz-adv-x="1938" d="M247 559Q208 356 269 240Q330 125 476 125T728 240Q835 356 874 559Q914 762 852 878Q791 993 645 993T393 878Q287 762 247 559ZM1135 950Q1213 1050 1311 1098Q1409 1147 1532 1147Q1736
1147 1832 985T1876 559Q1825 295 1666 133T1303 -29Q1180 -29 1101 20Q1022 68 983 168L951 0H950H766L798 168Q721 68 623 20Q525 -29 401 -29Q198 -29 102 133T57 559Q109 823 268 985T630 1147Q754 1147 833 1098Q912 1050 950 950L1068 1556H1252H1253L1135
950ZM1685 559Q1725 762 1664 878Q1603 993 1457 993T1205 878Q1099 762 1059 559Q1020 356 1081 240Q1142 125 1288 125T1540 240Q1646 356 1685 559Z" />
<glyph unicode="&#x239;" glyph-name="uni0239" horiz-adv-x="1938" d="M1690 559Q1729 762 1668 878Q1607 993 1461 993T1209 878Q1103 762 1064 559Q1024 356 1085 240Q1146 125 1292 125T1544 240Q1650 356 1690 559ZM988 168L872 -426H871H687L803 168Q725
68 627 20Q529 -29 405 -29Q202 -29 106 133T62 559Q113 823 272 985T634 1147Q758 1147 837 1098Q916 1050 955 950L988 1120H1172H1173L1140 950Q1217 1050 1315 1098Q1413 1147 1536 1147Q1740 1147 1836 985T1881 559Q1829 295 1670 133T1307 -29Q1184 -29
1105 20Q1026 68 988 168ZM252 559Q212 356 273 240Q334 125 480 125T733 240Q839 356 879 559Q918 762 856 878Q795 993 649 993T397 878Q291 762 252 559Z" />
<glyph unicode="&#x23a;" glyph-name="uni023A" horiz-adv-x="1695" d="M875 1493H1104L1170 1142L1604 1559L1689 1470L1197 997L1383 0H1173L1112 383H557L306 142L228 0H159L86 -70L17 0H15L16 1L0 18L58 74L875 1493ZM951 1294L532 551H555L1005 984L951 1294ZM732
551H1081L1031 838L732 551Z" />
<glyph unicode="&#x23b;" glyph-name="uni023B" horiz-adv-x="1699" d="M90 -70L4 18L276 279Q195 466 249 745Q319 1105 554 1312Q790 1520 1129 1520Q1263 1520 1374 1484Q1432 1466 1483 1439L1609 1559L1694 1470L1571 1352L1535 1165Q1497 1208 1455 1241L495
319Q502 306 510 294Q616 137 872 137Q1002 137 1127 184Q1251 231 1372 326L1331 115Q1211 43 1085 7Q960 -29 828 -29Q495 -29 340 170L90 -70ZM451 447L1346 1307H1345Q1238 1354 1108 1354Q852 1354 686 1198Q520 1041 462 745Q429 572 451 447Z" />
<glyph unicode="&#x23c;" glyph-name="uni023C" horiz-adv-x="1337" d="M84 -94L3 -16L237 214Q179 355 219 559Q272 833 453 990T896 1147Q981 1147 1059 1130Q1103 1120 1145 1104L1255 1212L1335 1133L1189 990L1172 905Q1150 919 1128 930L441 256Q445 248
450 240Q527 127 706 127Q786 127 869 148Q951 170 1038 213L1005 43Q921 7 835 -11T656 -29Q415 -29 297 115L84 -94ZM402 376L1012 974Q945 991 874 991Q695 991 574 878Q453 764 413 559Q393 456 402 376Z" />
<glyph unicode="&#x23d;" glyph-name="uni023D" horiz-adv-x="1023" d="M351 1493H553L427 844H618L590 700H399L296 170H1023L990 0H61L197 700H6L34 844H225L351 1493Z" />
<glyph unicode="&#x23e;" glyph-name="uni023E" horiz-adv-x="1692" d="M1604 1385L1591 1323H1539L952 759L804 0H601L702 519L89 -70L3 18L743 729L858 1323H328L361 1493H1538L1607 1559L1692 1470L1604 1385ZM993 969L1361 1323H1061L993 969Z" />
<glyph unicode="&#x23f;" glyph-name="uni023F" horiz-adv-x="1010" d="M999 1087L965 913Q895 953 815 973T645 993Q508 993 431 951T338 825Q326 761 368 724Q409 688 551 655L611 641Q801 597 867 522Q934 446 908 309Q877 153 736 62Q637 -2 502 -21L630 -180L752
-306Q787 -342 863 -342L833 -496H794Q710 -496 608 -435Q544 -397 473 -306L283 -63Q260 -33 227 -17Q211 -14 195 -12Q101 6 0 41L37 231Q121 182 207 156Q303 154 361 127Q387 125 413 125Q543 125 622 170Q700 214 716 295Q731 370 688 410T481 487L420 502Q256
538 195 612Q133 687 159 817Q189 975 318 1061T653 1147Q755 1147 842 1132T999 1087Z" />
<glyph unicode="&#x240;" glyph-name="uni0240" horiz-adv-x="1126" d="M243 1120H1117L1084 952L238 149Q327 133 367 84L579 -180L702 -306Q737 -342 813 -342H921L891 -496H744Q660 -496 558 -435Q494 -397 423 -306L233 -63Q184 0 94 0H0L31 156L33 168L881
973H214L243 1120Z" />
<glyph unicode="&#x241;" glyph-name="uni0241" horiz-adv-x="1109" d="M263 768H504Q645 768 736 841Q828 914 854 1048T817 1254Q755 1327 613 1327H359Q290 1327 196 1305Q106 1284 19 1241L55 1423Q137 1458 222 1475Q306 1493 391 1493Q391 1493 645 1493Q896
1493 1003 1380Q1109 1268 1067 1048Q1024 828 873 715Q723 602 472 602H433L316 0H114L263 768Z" />
<glyph unicode="&#x242;" glyph-name="uni0242" horiz-adv-x="858" d="M252 422Q393 422 484 495T601 702Q628 843 565 908Q497 978 360 981Q294 982 197 959Q107 938 20 895L56 1077Q139 1112 223 1129Q307 1147 392 1147Q641 1147 750 1034Q857 922 814 702Q721
298 322 260L272 0H70L152 422H252Z" />
<glyph unicode="&#x243;" glyph-name="uni0243" horiz-adv-x="1391" d="M416 1493H932Q1163 1493 1269 1397Q1376 1301 1341 1124Q1315 987 1235 906T1027 805Q1170 773 1233 672Q1296 570 1266 418Q1227 218 1070 109T662 0H126L197 368H6L34 512H225L416 1493ZM586
1327L498 877H797Q945 877 1029 932Q1112 988 1134 1102Q1156 1215 1094 1271Q1033 1327 885 1327H586ZM774 512L746 368H399L360 166H684Q847 166 939 234Q1030 301 1057 440Q1085 580 1019 646Q953 713 790 713H466L427 512H774Z" />
<glyph unicode="&#x244;" glyph-name="uni0244" horiz-adv-x="1528" d="M330 1493H533L413 875H1150L1270 1493H1473L1353 875H1518L1486 711H1321L1292 561Q1235 269 1062 120Q888 -29 606 -29Q323 -29 208 120Q92 269 149 561L178 711H12L44 875H210L330 1493ZM1118
711H381L357 586Q310 346 376 240Q443 135 638 135Q832 135 939 240Q1047 346 1094 586L1118 711Z" />
<glyph unicode="&#x245;" glyph-name="uni0245" horiz-adv-x="1401" d="M213 0H0L860 1493H1089L1368 0H1158L935 1294L213 0Z" />
<glyph unicode="&#x246;" glyph-name="uni0246" horiz-adv-x="1256" d="M1085 1683H1255L1153 1493H1241L1208 1323H1062L825 881H1091L1058 711H734L444 170H1002L969 0H353L251 -190H81L183 0H7L297 1493H983L1085 1683ZM274 170L564 711H347L242 170H274ZM655
881L892 1323H466L380 881H655Z" />
<glyph unicode="&#x247;" glyph-name="uni0247" horiz-adv-x="1110" d="M917 660Q926 705 926 744Q926 862 855 930L691 660H917ZM949 1086Q1106 984 1106 755Q1106 686 1091 606L1073 516H604L386 155Q455 127 556 127Q759 127 975 231L941 57Q722 -29 511 -29Q388
-29 294 4L177 -190H7L168 75Q27 193 27 404Q27 472 42 549Q95 824 275 985T707 1147Q763 1147 811 1138L915 1310H1085L949 1086ZM521 659L720 989Q700 991 679 991Q525 991 416 904T261 659H521ZM271 246L434 516H227Q222 472 222 433Q222 319 271 246Z" />
<glyph unicode="&#x248;" glyph-name="uni0248" horiz-adv-x="936" d="M677 1493H879L744 797H935L902 631H711L609 104Q556 -166 430 -288T77 -410H0L33 -240H96Q230 -240 299 -165T407 104L509 631H318L351 797H542L677 1493Z" />
<glyph unicode="&#x249;" glyph-name="uni0249" horiz-adv-x="801" d="M616 1556H800L754 1323H570L616 1556ZM531 1120H715L617 616H780L748 452H585L493 -20Q452 -234 352 -330T70 -426H0L31 -270H80Q185 -270 232 -222T309 -20L401 452H220L252 616H433L531 1120Z" />
<glyph unicode="&#x24a;" glyph-name="uni024A" horiz-adv-x="1520" d="M599 135Q804 135 953 297T1157 745T1127 1192T836 1355Q632 1355 484 1193T280 745T309 298T599 135ZM1258 1261L1303 1493H1499L1229 104Q1192 -90 1232 -165T1406 -240H1475L1442 -410H1365Q1138
-410 1060 -288T1033 104L1058 231Q955 99 825 35T529 -29Q259 -29 131 184T70 746T349 1307T831 1521Q996 1521 1101 1457T1258 1261Z" />
<glyph unicode="&#x24b;" glyph-name="uni024B" horiz-adv-x="1183" d="M1092 -426H1022Q841 -426 778 -330T757 -20L794 168Q716 68 618 20T396 -29Q193 -29 97 133T52 559T263 985T625 1147Q749 1147 828 1099T946 950L979 1120H1163L941 -20Q911 -173 939 -221T1073
-270H1122L1092 -426ZM388 877Q282 762 243 559T264 241T471 125T723 240T869 559T848 877T640 993T388 877Z" />
<glyph unicode="&#x24c;" glyph-name="uni024C" horiz-adv-x="1273" d="M536 1327L434 797H694Q847 797 941 881T1036 1102Q1036 1211 973 1269T790 1327H536ZM907 717Q971 702 1013 643T1112 408L1239 0H1026L909 383Q864 531 805 581Q746 631 624 631H401L278
0H75L198 631H8L40 797H230L366 1493H821Q1028 1493 1138 1400T1249 1130Q1249 974 1155 860T907 717Z" />
<glyph unicode="&#x24d;" glyph-name="uni024D" horiz-adv-x="966" d="M930 948Q902 966 867 974Q833 983 789 983Q633 983 529 882Q426 780 394 616H565L533 452H362L275 0H90L177 452H5L37 616H209L307 1120H492L458 946Q536 1048 639 1098Q741 1147 874 1147Q893
1147 916 1144Q939 1142 966 1137L930 948Z" />
<glyph unicode="&#x24e;" glyph-name="uni024E" horiz-adv-x="1347" d="M88 1493H305L413 1269H937L1130 1493H1347L1153 1269H1309L1277 1105H1010L667 711L529 0H326L464 711L275 1105H7L39 1269H196L88 1493ZM795 1105H492L600 879L795 1105Z" />
<glyph unicode="&#x24f;" glyph-name="uni024F" horiz-adv-x="1302" d="M572 -104Q455 -304 370 -365Q284 -426 160 -426H13L43 -272H151Q227 -272 276 -236T402 -66L451 18L343 516H45L73 659H313L212 1120H407L502 659H834L1107 1120H1302L1028 659H1267L1239
516H942L572 -104ZM749 516H531L587 244L749 516Z" />
<glyph unicode="&#x250;" glyph-name="uni0250" horiz-adv-x="1114" d="M448 555Q671 555 767 606T887 780Q906 878 852 936Q799 993 688 993Q535 993 422 884Q308 776 273 596L265 555H448ZM66 479L191 1118H375L342 948Q424 1050 528 1098Q631 1147 767 1147Q939
1147 1022 1050Q1105 954 1073 792Q1037 603 891 507Q746 411 495 411H237L234 393Q209 266 278 196Q349 127 500 127Q596 127 691 150Q787 173 880 219L847 49Q738 10 639 -10Q541 -29 451 -29Q208 -29 112 97Q17 223 66 479Z" />
<glyph unicode="&#x251;" glyph-name="uni0251" horiz-adv-x="1189" d="M957 950L990 1120H1174L956 0H772L805 168Q728 68 630 20Q532 -29 408 -29Q205 -29 108 133Q13 295 64 559T274 985T636 1147Q760 1147 840 1098Q918 1050 957 950ZM275 240Q337 125 483
125T735 240Q842 356 881 559T859 878Q797 993 651 993T399 878Q293 762 254 559T275 240Z" />
<glyph unicode="&#x252;" glyph-name="uni0252" horiz-adv-x="1189" d="M232 168L199 -2H15L233 1118H417L384 950Q461 1050 560 1098Q657 1147 781 1147Q984 1147 1080 985T1125 559T914 133Q756 -29 553 -29Q429 -29 350 20Q271 68 232 168ZM913 878Q852 993
706 993T454 878Q347 762 308 559T330 240Q392 125 538 125T789 240Q896 356 935 559T913 878Z" />
<glyph unicode="&#x253;" glyph-name="uni0253" horiz-adv-x="1179" d="M929 559Q969 762 908 878Q847 993 701 993T448 878Q343 762 303 559Q264 356 324 240Q386 125 532 125T784 240Q890 356 929 559ZM378 950Q456 1050 555 1098Q653 1147 776 1147Q980 1147
1075 985Q1172 823 1120 559Q1069 295 909 133Q751 -29 547 -29Q424 -29 345 20Q266 68 227 168L195 0H10L204 1002L233 1150Q275 1364 375 1460T656 1556H910L880 1400H647Q538 1400 494 1352Q446 1300 417 1150L388 1002L378 950Z" />
<glyph unicode="&#x254;" glyph-name="uni0254" horiz-adv-x="1029" d="M11 41L48 223Q114 175 188 151T343 127Q431 127 510 158T644 246Q730 333 777 450T824 692Q824 843 749 917T519 991Q443 991 358 968T179 899L214 1081Q294 1114 378 1130T552 1147Q775
1147 895 1036T1015 717Q1015 543 953 397T767 133Q683 53 570 12T323 -29Q245 -29 168 -12T11 41Z" />
<glyph unicode="&#x255;" glyph-name="uni0255" horiz-adv-x="1053" d="M418 146Q473 127 549 127Q695 127 706 184Q719 259 589 259Q488 259 418 146ZM350 -16Q333 -73 320 -141L167 -144Q187 -40 215 44Q165 79 128 130Q10 291 62 559Q115 833 297 990Q477 1147
739 1147Q822 1147 902 1130Q977 1113 1049 1077L1015 905Q949 947 871 970Q797 991 717 991Q539 991 417 878Q296 764 256 559T293 240Q296 235 303 226Q422 402 618 402Q916 402 870 156Q835 -33 500 -33Q420 -33 350 -16Z" />
<glyph unicode="&#x256;" glyph-name="uni0256" horiz-adv-x="1261" d="M241 559Q201 356 262 240Q323 125 469 125T722 240Q828 356 868 559Q907 762 846 878Q784 993 638 993T386 878Q280 762 241 559ZM944 950L1062 1556H1246L939 -20Q910 -173 938 -222Q967
-270 1072 -270H1121L1090 -426H1020Q839 -426 777 -330Q714 -234 755 -20L784 128L792 168Q714 68 617 20Q519 -29 395 -29Q192 -29 95 133Q0 295 51 559T261 985T623 1147Q747 1147 827 1098Q905 1050 944 950Z" />
<glyph unicode="&#x257;" glyph-name="uni0257" horiz-adv-x="1663" d="M1141 1002L947 0H763L795 168Q718 68 620 20Q522 -29 398 -29Q195 -29 98 133Q3 295 54 559Q106 823 264 985Q424 1147 627 1147Q751 1147 830 1098Q909 1050 947 950L957 1002L986 1150Q1028
1364 1128 1460T1409 1556H1663L1633 1400H1400Q1291 1400 1247 1352Q1199 1300 1170 1150L1141 1002ZM244 559Q205 356 265 240Q327 125 473 125T725 240Q832 356 871 559Q911 762 849 878Q788 993 642 993T389 878Q284 762 244 559Z" />
<glyph unicode="&#x258;" glyph-name="uni0258" horiz-adv-x="1168" d="M76 606Q125 856 284 1002Q444 1147 670 1147Q922 1147 1039 986Q1157 824 1103 549Q1051 283 864 127Q678 -29 410 -29Q303 -29 203 -7T12 57L46 231Q134 179 229 153Q323 127 429 127Q612
127 733 226Q856 326 905 516H59L76 606ZM271 660L926 659Q943 817 867 904Q792 991 638 991Q502 991 402 901T271 660Z" />
<glyph unicode="&#x259;" glyph-name="uni0259" horiz-adv-x="1173" d="M61 512L78 602H924Q949 792 866 892Q783 991 600 991Q494 991 390 965Q285 939 177 887L211 1061Q318 1103 426 1125T641 1147Q909 1147 1035 991Q1162 835 1110 569Q1056 294 876 132Q697
-29 445 -29Q219 -29 115 116Q12 262 61 512ZM234 458Q207 307 273 217Q337 127 473 127Q627 127 736 214Q846 301 891 459L234 458Z" />
<glyph unicode="&#x25a;" glyph-name="uni025A" horiz-adv-x="1615" d="M711 214Q839 352 878 559Q890 621 891 677L205 321Q222 252 247 217Q312 127 448 127Q615 127 711 214ZM1095 783Q1108 687 1085 569Q1031 294 851 132Q671 -29 419 -29Q191 -29 90 116Q17
219 20 375L872 818Q860 857 840 892Q784 992 575 991Q467 990 365 965Q260 939 151 887L185 1061Q292 1103 401 1125Q509 1147 616 1147Q884 1147 1010 991Q1038 956 1058 915L1284 1032H1468L1439 884Q1409 731 1438 682Q1466 634 1571 634H1614L1584 478H1520Q1345
478 1277 574Q1212 664 1251 864L1095 783Z" />
<glyph unicode="&#x25b;" glyph-name="uni025B" horiz-adv-x="1116" d="M335 604Q227 628 180 693Q145 739 145 801Q145 971 307 1070Q435 1148 631 1148Q707 1148 790 1136T966 1100L934 933Q842 962 765 975Q686 988 615 988Q496 988 418 942Q324 887 324 807Q324
754 373 717Q431 673 547 673H702L673 521H525Q387 521 306 470Q196 401 196 293Q196 225 255 180Q329 124 480 124Q573 124 662 142Q751 161 829 198L795 27Q700 -1 613 -15Q526 -29 446 -29Q208 -29 96 62Q11 132 11 250Q11 409 123 507Q206 580 335 604Z" />
<glyph unicode="&#x25c;" glyph-name="uni025C" horiz-adv-x="1071" d="M736 607Q863 584 923 510T962 327Q930 161 773 69Q617 -22 362 -22Q277 -22 189 -8T10 34L44 207Q113 173 201 156Q288 138 388 138Q561 138 662 190Q763 243 782 341Q798 422 723 477Q650
532 500 532H342L370 676H535Q671 676 752 720Q832 763 844 824Q858 898 793 941Q726 984 588 984Q513 984 424 972Q335 959 226 932L258 1099Q368 1123 461 1135Q556 1147 636 1147Q846 1147 952 1068Q1059 989 1033 855Q1015 761 937 697Q860 632 736 607Z" />
<glyph unicode="&#x25d;" glyph-name="uni025D" horiz-adv-x="1579" d="M702 604Q821 580 876 507T910 326Q876 153 729 62Q583 -29 345 -29Q265 -29 182 -15Q101 -1 16 27L50 198Q114 161 195 142Q276 124 369 124Q520 124 616 180Q711 236 729 326Q746 414 679
470Q617 521 480 521H332L361 673H516Q632 673 708 717Q784 762 798 832Q810 896 749 942Q689 988 570 988Q499 988 416 975T231 933L263 1100Q366 1124 453 1136T616 1148Q812 1148 910 1070Q992 1004 987 898L1249 1032H1433L1404 884Q1374 731 1403 682Q1431
634 1536 634H1579L1549 478H1485Q1311 478 1242 574Q1177 664 1216 864L896 698Q818 628 702 604Z" />
<glyph unicode="&#x25e;" glyph-name="uni025E" horiz-adv-x="1241" d="M788 988Q538 988 420 878Q299 764 259 559Q218 351 296 240Q377 124 587 124Q738 124 834 180Q929 236 947 326Q964 414 897 470Q835 521 698 521H550L579 673H734Q850 673 926 717Q1002
762 1016 832Q1028 896 967 942Q907 988 788 988ZM834 1148Q1030 1148 1128 1070Q1227 991 1199 850Q1181 757 1109 693Q1036 628 920 604Q1039 580 1094 507T1128 326Q1094 153 947 62Q801 -29 563 -29Q249 -29 131 130Q12 289 65 559Q118 833 299 990Q481 1148
834 1148Z" />
<glyph unicode="&#x25f;" glyph-name="uni025F" horiz-adv-x="779" d="M530 1120H714L616 616H779L747 452H584L493 -20Q451 -234 351 -330T70 -426H0L30 -270H79Q184 -270 231 -222Q279 -173 309 -20L400 452H219L251 616H432L530 1120Z" />
<glyph unicode="&#x260;" glyph-name="uni0260" horiz-adv-x="1597" d="M872 573Q910 773 849 883T639 993Q491 993 387 883T245 573Q206 374 267 264T476 154Q625 154 729 264T872 573ZM971 139Q916 -147 761 -286Q607 -426 345 -426Q248 -426 165 -412Q82 -397
7 -367L42 -188Q114 -232 189 -253T346 -274Q527 -274 635 -180Q744 -85 781 106L798 197Q722 98 624 49Q525 0 401 0Q195 0 100 157Q4 314 55 573Q105 833 262 990Q418 1147 624 1147Q748 1147 828 1098Q907 1049 945 950L984 1150Q1025 1364 1125 1460Q1226 1556
1407 1556H1597L1566 1400H1397Q1292 1400 1245 1352Q1197 1303 1168 1150L971 139Z" />
<glyph unicode="&#x261;" glyph-name="uni0261" horiz-adv-x="1181" d="M883 573L965 993H651Q503 993 399 883T256 573Q217 374 279 264Q339 154 487 154Q636 154 741 264Q844 374 883 573ZM1173 1120L983 139Q927 -147 773 -286Q619 -426 357 -426Q260 -426
176 -412Q93 -397 18 -367L53 -188Q125 -232 200 -253T357 -274Q538 -274 647 -180Q755 -85 792 106L810 197Q734 98 635 49Q537 0 413 0Q207 0 111 157Q16 314 66 573Q111 806 268 963Q424 1120 630 1120H1173Z" />
<glyph unicode="&#x262;" glyph-name="uni0262" horiz-adv-x="1132" d="M807 178L862 460H707L734 600H1055L953 72Q874 38 783 18Q702 0 500 0Q247 0 129 159T63 588Q116 862 298 1019Q478 1176 740 1176Q802 1176 903 1158Q1003 1141 1116 1066L1082 894Q977
971 872 998Q789 1020 718 1020Q539 1020 418 906Q297 793 257 588T294 270Q371 156 550 156Q723 156 807 178Z" />
<glyph unicode="&#x263;" glyph-name="uni0263" horiz-adv-x="1111" d="M474 488L919 1120H1111L537 316Q609 139 631 56Q665 -72 646 -171Q621 -300 533 -365T295 -430T83 -365T46 -171Q65 -72 149 56Q203 139 343 316L83 1120H275L474 488ZM326 -274Q392 -274
429 -247Q462 -223 470 -178Q484 -109 470 -36Q449 64 411 163Q333 64 274 -36Q232 -109 218 -178Q210 -223 233 -247Q259 -274 326 -274Z" />
<glyph unicode="&#x264;" glyph-name="uni0264" horiz-adv-x="1050" d="M458 721L833 1120H1050L548 586Q600 488 629 412Q675 292 663 230Q638 100 550 36Q462 -29 312 -29T100 36Q38 100 63 230Q75 292 167 412Q225 488 316 586L22 1120H239L458 721ZM343 127Q409
127 446 154Q479 178 487 223Q494 256 467 320Q445 370 403 440Q334 370 294 320Q242 256 235 223Q227 178 250 154Q276 127 343 127Z" />
<glyph unicode="&#x265;" glyph-name="uni0265" horiz-adv-x="1129" d="M48 442L180 1120H364L234 449Q203 290 249 210Q296 131 420 131Q569 131 674 226T811 485L934 1120H1118L818 -426H634L750 172Q663 70 564 20Q467 -29 350 -29Q157 -29 80 91Q4 211 48 442Z" />
<glyph unicode="&#x266;" glyph-name="uni0266" horiz-adv-x="1134" d="M377 946H378Q463 1047 562 1097Q662 1147 779 1147Q972 1147 1048 1028Q1123 908 1078 676L947 0H763L893 670Q924 829 877 908Q831 987 707 987Q558 987 453 892Q349 797 317 633L194 0H9L204
1002L232 1150Q274 1364 375 1460Q474 1556 655 1556H909L879 1400H646Q541 1400 494 1352Q446 1303 416 1150L377 946Z" />
<glyph unicode="&#x267;" glyph-name="uni0267" horiz-adv-x="1127" d="M373 946H374Q460 1047 558 1097Q658 1147 775 1147Q968 1147 1044 1028Q1120 908 1075 676L939 -20Q898 -234 797 -330Q697 -426 516 -426H262L293 -270H526Q631 -270 678 -222Q726 -173
755 -20L889 670Q920 829 874 908Q827 987 703 987Q554 987 450 892Q345 797 313 633L190 0H5L200 1002L229 1150Q270 1364 371 1460Q471 1556 652 1556H906L875 1400H642Q537 1400 490 1352Q442 1303 413 1150L373 946Z" />
<glyph unicode="&#x268;" glyph-name="uni0268" horiz-adv-x="580" d="M0 452L32 616H212L310 1120H494L396 616H560L528 452H364L276 0H92L180 452H0ZM395 1556H579L533 1323H349L395 1556Z" />
<glyph unicode="&#x269;" glyph-name="uni0269" horiz-adv-x="424" d="M368 1120L229 406Q199 253 228 204Q256 156 361 156H410L380 0H310Q129 0 66 96T45 406L184 1120H368Z" />
<glyph unicode="&#x26a;" glyph-name="uni026A" horiz-adv-x="759" d="M192 956L224 1120H752L720 956H551L398 164H567L535 0H7L39 164H214L367 956H192Z" />
<glyph unicode="&#x26b;" glyph-name="uni026B" horiz-adv-x="715" d="M422 1556H606L453 769Q455 768 456 767Q471 758 484 758Q522 758 547 795Q572 831 590 913H715Q687 778 622 705Q556 631 465 631Q445 631 427 635L304 0H120L269 770Q264 774 260 777Q245
786 232 786Q194 786 168 749Q143 713 125 631H0Q29 766 94 839Q159 913 250 913Q275 913 296 907L422 1556Z" />
<glyph unicode="&#x26c;" glyph-name="uni026C" horiz-adv-x="808" d="M523 1556H707L558 786H808L776 626H526L405 0H221L337 596Q337 596 341 626H280Q0 626 38 815Q87 1061 332 1061Q385 1061 422 1036L523 1556ZM357 786Q360 918 305 918Q228 918 213 843Q202
786 294 786H357Z" />
<glyph unicode="&#x26d;" glyph-name="uni026D" horiz-adv-x="534" d="M348 1556H532L225 -20Q196 -173 224 -222Q253 -270 358 -270H407L376 -426H306Q125 -426 63 -330Q0 -234 41 -20L348 1556Z" />
<glyph unicode="&#x26e;" glyph-name="uni026E" horiz-adv-x="1283" d="M746 476Q850 476 969 420Q1059 377 1123 269Q1184 165 1157 27Q1114 -194 939 -315Q763 -436 483 -436Q389 -436 294 -418Q198 -399 99 -362L137 -167Q211 -216 306 -241T510 -266Q700 -266
814 -191Q929 -116 956 27Q982 159 905 234Q828 308 661 308H487L519 474L1046 973H384L195 0H11L314 1556H498L413 1120H1282L1249 952L746 476Z" />
<glyph unicode="&#x26f;" glyph-name="uni026F" horiz-adv-x="1856" d="M779 216Q686 92 579 34Q471 -26 341 -26Q166 -26 95 97T68 446L200 1122H385L254 452Q223 290 265 212T424 134Q567 134 668 230Q769 324 801 488L925 1122H1110L979 452Q948 290 990 212T1151
134Q1292 134 1393 230Q1495 326 1526 488L1650 1122H1835L1617 2H1432L1466 176Q1382 72 1285 24Q1187 -26 1066 -26Q944 -26 870 36Q798 98 779 216Z" />
<glyph unicode="&#x270;" glyph-name="uni0270" horiz-adv-x="1831" d="M758 216Q665 92 558 33Q450 -26 320 -26Q145 -26 74 96Q3 219 47 445L178 1121H363L233 451Q202 290 244 212T402 134Q546 134 647 229T780 488L903 1121H1088L958 451Q927 289 969 212Q1010
134 1130 134Q1270 134 1372 230Q1474 325 1505 488L1628 1121H1813L1513 -426H1328L1444 175Q1361 72 1264 23Q1166 -26 1045 -26Q923 -26 849 36Q777 98 758 216Z" />
<glyph unicode="&#x271;" glyph-name="uni0271" horiz-adv-x="1834" d="M1060 905Q1153 1029 1260 1088Q1368 1147 1498 1147Q1673 1147 1744 1024Q1815 902 1771 676L1636 -20Q1594 -234 1494 -330T1213 -426H959L989 -270H1222Q1327 -270 1375 -222Q1422 -173
1452 -20Q1466 66 1549 480Q1571 590 1585 670Q1616 831 1575 909Q1533 987 1416 987Q1273 987 1171 892Q1070 797 1038 633L915 0H730L860 670Q892 832 850 910Q808 987 689 987Q548 987 446 892Q345 796 313 633L190 0H5L223 1120H408L374 946Q457 1049 554 1098Q652
1147 773 1147Q895 1147 968 1085Q1042 1023 1060 905Z" />
<glyph unicode="&#x272;" glyph-name="uni0272" horiz-adv-x="1432" d="M496 -20Q454 -234 355 -330Q254 -426 73 -426H3L33 -270H82Q187 -270 235 -222Q282 -173 312 -20L534 1120H719L685 946Q770 1047 870 1097Q969 1147 1086 1147Q1279 1147 1355 1028Q1430
908 1385 676L1254 0H1070L1200 670Q1231 829 1184 908Q1138 987 1014 987Q865 987 760 892Q656 797 624 633L496 -20Z" />
<glyph unicode="&#x273;" glyph-name="uni0273" horiz-adv-x="1138" d="M885 670Q916 829 869 908Q823 987 699 987Q550 987 445 892Q341 797 309 633L186 0H1L219 1120H404L370 946Q455 1047 554 1097Q654 1147 771 1147Q964 1147 1040 1028Q1115 908 1070 676L935
-20Q905 -173 934 -222Q962 -270 1067 -270H1116L1086 -426H1016Q835 -426 773 -330Q709 -234 751 -20L885 670Z" />
<glyph unicode="&#x274;" glyph-name="uni0274" horiz-adv-x="1195" d="M234 1120H506L807 217L983 1120H1179L961 0H689L382 876L212 0H16L234 1120Z" />
<glyph unicode="&#x275;" glyph-name="uni0275" horiz-adv-x="1159" d="M693 1147Q933 1147 1040 991T1093 559Q1040 284 872 128Q705 -29 465 -29Q224 -29 118 128Q12 284 65 559Q119 835 286 991Q452 1147 693 1147ZM489 127Q637 127 745 242Q839 343 881 507H245Q224
344 279 244Q342 127 489 127ZM283 671H907Q914 797 870 876Q806 991 657 991Q510 991 401 875Q325 794 283 671Z" />
<glyph unicode="&#x276;" glyph-name="uni0276" horiz-adv-x="1638" d="M1623 1120L1593 966H1037L980 675H1513L1483 520H950L879 156H1449L1419 0H620Q295 0 156 142Q16 285 69 561Q122 835 318 977Q513 1120 838 1120H1623ZM855 990H818Q578 990 437 882Q296
775 254 559Q212 342 311 234Q409 125 649 125H686L855 990Z" />
<glyph unicode="&#x277;" glyph-name="uni0277" horiz-adv-x="1295" d="M369 780Q291 684 285 664Q239 552 230 486Q206 319 239 256Q283 171 361 171Q438 171 508 250Q546 293 582 478L618 660H774L738 478Q702 293 724 250Q764 171 841 171Q916 171 995 256Q1041
304 1094 486Q1103 561 1109 664Q1110 687 1068 780Q994 940 740 940Q498 940 369 780ZM176 780Q343 1148 790 1147Q1210 1145 1257 780Q1272 660 1275 658Q1270 557 1252 468Q1208 238 1095 104T835 -30Q732 -30 674 41Q617 112 615 243Q561 112 476 41Q392 -30
289 -30Q142 -30 81 104Q13 253 64 468Q71 487 115 658Q150 724 176 780Z" />
<glyph unicode="&#x278;" glyph-name="uni0278" horiz-adv-x="1351" d="M901 1556L820 1143Q1020 1143 1123 990Q1229 834 1176 559Q1122 284 955 128Q793 -25 593 -25L515 -426H332L410 -25Q211 -25 107 128Q1 284 55 559Q108 834 275 990Q438 1143 637 1143L718
1556H901ZM625 139Q738 139 835 242Q941 357 982 559Q1022 759 958 876Q901 979 788 979L625 139ZM442 139L605 979Q493 979 396 876Q287 759 249 559Q211 357 273 242Q329 139 442 139Z" />
<glyph unicode="&#x279;" glyph-name="uni0279" horiz-adv-x="887" d="M36 172Q64 154 98 146Q133 137 177 137Q333 137 436 238Q540 340 577 530L691 1120H876L659 0H474L508 174Q430 72 327 22Q225 -27 92 -27Q73 -27 50 -24Q27 -22 0 -17L36 172Z" />
<glyph unicode="&#x27a;" glyph-name="uni027A" horiz-adv-x="966" d="M36 172Q63 154 98 146Q133 137 177 137Q336 137 436 238Q540 343 576 530L774 1546H959L658 0H473L507 174Q429 72 327 22Q224 -27 91 -27Q72 -27 50 -24Q27 -22 0 -17L36 172Z" />
<glyph unicode="&#x27b;" glyph-name="uni027B" horiz-adv-x="895" d="M36 172Q63 154 98 146Q133 137 177 137Q333 137 436 238Q540 340 577 530L691 1120H876L655 -20Q625 -173 653 -222Q682 -270 787 -270H836L806 -426H736Q555 -426 492 -330T471 -20L507
174Q430 72 327 22Q224 -27 91 -27Q72 -27 50 -24Q27 -22 0 -17L36 172Z" />
<glyph unicode="&#x27c;" glyph-name="uni027C" horiz-adv-x="966" d="M930 948Q903 966 868 974Q833 983 789 983Q633 983 530 882Q427 780 390 590L192 -426H7L308 1120H493L459 946Q537 1048 639 1098Q742 1147 875 1147Q894 1147 916 1144Q939 1142 966 1137L930
948Z" />
<glyph unicode="&#x27d;" glyph-name="uni027D" horiz-adv-x="933" d="M897 948Q870 966 835 974Q800 983 756 983Q600 983 497 882T357 590L242 0H240L236 -20Q206 -173 235 -222Q263 -270 368 -270H601L571 -426H317Q136 -426 74 -330Q10 -234 52 -20L274 1120H460L426
946Q504 1048 606 1098Q709 1147 842 1147Q861 1147 883 1144Q906 1142 933 1137L897 948Z" />
<glyph unicode="&#x27e;" glyph-name="uni027E" horiz-adv-x="1002" d="M325 741Q381 1030 554 1110Q633 1147 747 1147H1001L971 991H738Q633 991 586 943Q537 893 509 741L480 590L397 164H560L529 0H1L32 164H212L325 741Z" />
<glyph unicode="&#x27f;" glyph-name="uni027F" horiz-adv-x="645" d="M563 741L450 164H630L599 0H71L102 164H265L348 590L379 741Q409 893 380 943Q351 991 246 991H13L43 1147H297Q412 1147 476 1110Q619 1030 563 741Z" />
<glyph unicode="&#x280;" glyph-name="uni0280" horiz-adv-x="1042" d="M718 525Q770 508 812 454T889 306L1003 0H808L702 287Q661 400 609 436Q557 473 460 473H291L199 0H14L232 1120H620Q837 1120 929 1040Q1021 959 989 797Q969 692 899 622T718 525ZM387
965L321 628H519Q638 628 710 671T798 797Q814 881 759 923T585 965H387Z" />
<glyph unicode="&#x281;" glyph-name="uni0281" horiz-adv-x="1226" d="M735 595Q836 568 878 498T900 323Q868 161 746 80Q622 0 405 0H17L235 1120H420L328 647H497Q594 647 660 684Q726 720 811 833L1029 1120H1224L990 814Q919 720 857 666Q793 612 735 595ZM232
155H430Q549 155 620 197Q693 239 709 323Q725 406 669 449Q615 492 496 492H298L232 155Z" />
<glyph unicode="&#x282;" glyph-name="uni0282" horiz-adv-x="1063" d="M1061 1087L1027 913Q957 953 877 973T707 993Q570 993 494 951Q417 909 400 825Q388 761 430 724Q472 688 613 655L674 641Q861 599 928 522Q997 446 970 309Q940 153 799 62Q657 -29 441
-29Q351 -29 257 -12L236 -8L234 -20Q204 -173 233 -222Q261 -270 366 -270H599L569 -426H315Q134 -426 72 -330Q8 -234 50 -20L62 41L99 231Q191 178 284 152Q378 125 475 125Q605 125 684 170Q763 214 778 295Q793 370 751 410Q707 450 544 487L483 502Q319 538
257 612Q195 687 221 817Q251 975 380 1061T715 1147Q817 1147 904 1132T1061 1087Z" />
<glyph unicode="&#x283;" glyph-name="uni0283" horiz-adv-x="1150" d="M309 -20Q430 604 543 1198Q578 1379 683 1470Q781 1556 976 1556H1150L1120 1403H944Q845 1403 799 1363Q752 1323 732 1219L493 -20Q452 -234 352 -330Q251 -426 70 -426H0L31 -270H80Q185
-270 232 -222Q280 -173 309 -20Z" />
<glyph unicode="&#x284;" glyph-name="uni0284" horiz-adv-x="1152" d="M530 1120L545 1198Q581 1385 685 1470Q789 1556 978 1556H1152L1122 1403H946Q847 1403 801 1363Q754 1323 734 1219L617 619L618 616H780L748 452H585L493 -20Q452 -234 352 -330Q251 -426
70 -426H0L31 -270H80Q185 -270 232 -222Q279 -173 308 -20L400 452H220L252 616H432L502 977H327L355 1120H530Z" />
<glyph unicode="&#x285;" glyph-name="uni0285" horiz-adv-x="550" d="M342 -20Q312 -173 341 -222Q370 -270 475 -270H524L493 -426H423Q242 -426 179 -330Q116 -233 158 -20L317 788Q337 892 306 932Q276 972 177 972H1L31 1125H205Q400 1125 464 1039Q538 942
498 767Q478 678 342 -20Z" />
<glyph unicode="&#x286;" glyph-name="uni0286" horiz-adv-x="1383" d="M503 -154H324Q205 -154 198 -205Q189 -270 313 -270Q423 -270 465 -222Q487 -199 503 -154ZM730 0H911L881 -155H690Q651 -266 585 -330Q484 -426 303 -426Q0 -426 42 -210Q83 0 353 0H543L776
1198Q811 1378 916 1470Q1014 1556 1209 1556H1383L1353 1403H1177Q1077 1403 1032 1363Q985 1322 965 1219L730 0Z" />
<glyph unicode="&#x287;" glyph-name="uni0287" horiz-adv-x="761" d="M317 -318L379 0H0L28 143H407L525 751Q552 888 521 927Q492 966 377 966H188L218 1120H407Q620 1120 685 1040Q751 961 710 751L592 143H727L699 0H564L502 -318H317Z" />
<glyph unicode="&#x288;" glyph-name="uni0288" horiz-adv-x="839" d="M522 1438L460 1120H839L811 977H432L232 -56Q205 -193 234 -232Q265 -271 380 -271H569L539 -425H350Q137 -425 71 -346Q6 -267 47 -56L247 977H112L140 1120H275L337 1438H522Z" />
<glyph unicode="&#x289;" glyph-name="uni0289" horiz-adv-x="1349" d="M9 452L41 616H215L313 1120H497L399 616H969L1067 1120H1251L1153 616H1339L1307 452H1121L1033 0H849L882 172Q796 70 697 20Q599 -29 482 -29Q289 -29 213 91Q136 211 181 442L183 452H9ZM936
452H367L366 449Q335 290 382 210Q428 131 552 131Q701 131 807 226Q901 311 936 452Z" />
<glyph unicode="&#x28a;" glyph-name="uni028A" horiz-adv-x="1221" d="M138 956L170 1120H612L569 900Q447 831 363 726Q276 615 249 480Q218 321 288 224Q357 127 501 127T752 224Q859 322 889 480Q918 626 871 726Q822 837 734 900L777 1120H1213L1181 956H945Q1039
856 1073 743Q1106 633 1080 497Q1034 262 864 116Q693 -30 468 -30T129 115Q16 261 60 489Q89 636 161 743Q236 852 375 956H138Z" />
<glyph unicode="&#x28b;" glyph-name="uni028B" horiz-adv-x="1053" d="M1005 527Q956 289 789 146Q619 0 394 0H324Q143 0 80 96T59 406L198 1120H382L243 406Q213 253 242 204Q272 154 375 156L426 157Q570 157 677 254Q784 352 815 510Q860 742 806 843Q752
942 648 972L677 1122Q779 1114 858 1066Q1005 977 1025 804Q1039 689 1005 527Z" />
</font>
</defs>
</svg>
