<?xml version="1.0" standalone="no"?> <!DOCTYPE svg PUBLIC "-//W3C//DTD SVG 1.0//EN" "http://www.w3.org/TR/2001/REC-SVG-20010904/DTD/svg10.dtd" > <svg xmlns="http://www.w3.org/2000/svg" width="100%" height="100%">
<defs >
<font horiz-adv-x="1089" ><font-face
    font-family="DejaVu Sans MonoBold"
    units-per-em="2048"
    panose-1="2 11 7 9 3 6 4 2 2 4"
    ascent="1901"
    descent="-483"
    alphabetic="0" />
<missing-glyph horiz-adv-x="1086" d="M31 -362V1444H1055V-362H31ZM146 -248H941V1329H146V-248Z" />
<glyph unicode=" " glyph-name="space" horiz-adv-x="1233" />
<glyph unicode="!" glyph-name="exclam" horiz-adv-x="307" d="M31 283H298V0H31V283ZM31 1493H298V838L265 481H66L31 838V1493Z" />
<glyph unicode="&quot;" glyph-name="quotedbl" horiz-adv-x="831" d="M799 1493V938H543V1493H799ZM287 1493V938H31V1493H287Z" />
<glyph unicode="#" glyph-name="numbersign" horiz-adv-x="1238" d="M710 1470L615 1096H818L912 1470H1136L1039 1096H1232V881H986L912 588H1117V373H859L765 0H544L638 373H433L339 0H118L212 373H5V588H265L339 881H120V1096H394L488 1470H710ZM765 881H560L486
588H691L765 881Z" />
<glyph unicode="$" glyph-name="dollar" horiz-adv-x="933" d="M533 528V226Q596 235 631 274T666 375Q666 437 632 476T533 528ZM392 817V1100Q330 1092 299 1059T267 967Q267 910 298 872T392 817ZM533 -301H392L391 0Q304 3 209 26T11 92V354Q114 293 210 260T392
226V555Q195 594 99 689T3 942Q3 1109 105 1208T392 1319V1556H533L534 1319Q605 1315 681 1301T838 1262V1006Q776 1046 700 1070T533 1100V793Q730 762 830 659T931 383Q931 219 823 114T534 0L533 -301Z" />
<glyph unicode="%" glyph-name="percent" horiz-adv-x="1192" d="M3 1112Q3 1246 96 1339T322 1432Q455 1432 548 1339T642 1112Q642 979 549 886T322 793Q189 793 96 885T3 1112ZM322 1249Q265 1249 225 1210T185 1112Q185 1054 225 1015T322 975Q380 975 419
1014T459 1112Q459 1169 419 1209T322 1249ZM56 561L1098 979L1139 883L91 465L56 561ZM550 319Q550 453 642 546T869 639Q1001 639 1095 546T1189 319Q1189 187 1095 94T869 0Q735 0 643 92T550 319ZM867 457Q811 457 772 417T732 319Q732 261 771 222T867 182Q925
182 965 222T1006 319Q1006 376 965 416T867 457Z" />
<glyph unicode="&amp;" glyph-name="ampersand" horiz-adv-x="1219" d="M845 72Q770 22 686 -3T514 -29Q290 -29 151 102T12 442Q12 587 82 706T292 913Q242 991 218 1057T194 1184Q194 1346 303 1433T618 1520Q691 1520 761 1509T899 1477V1221Q835 1257 770
1275T639 1294Q559 1294 518 1266T477 1184Q477 1148 507 1085T606 920L919 440Q940 478 951 527T962 633Q962 663 960 691T954 745H1189V694Q1189 549 1155 441T1048 246L1210 0H893L845 72ZM415 731Q349 688 316 629T282 496Q282 374 360 291T553 207Q581 207
610 213T668 232Q670 233 676 236Q705 250 723 262L415 731Z" />
<glyph unicode="&apos;" glyph-name="quotesingle" horiz-adv-x="320" d="M287 1493V938H31V1493H287Z" />
<glyph unicode="(" glyph-name="parenleft" horiz-adv-x="556" d="M546 1554Q414 1315 350 1091T286 643Q286 421 350 196T546 -270H318Q159 -39 82 185T5 643Q5 875 82 1100T318 1554H546Z" />
<glyph unicode=")" glyph-name="parenright" horiz-adv-x="556" d="M10 1554H238Q396 1326 473 1101T551 643Q551 410 474 186T238 -270H10Q142 -30 206 195T270 643Q270 867 206 1091T10 1554Z" />
<glyph unicode="*" glyph-name="asterisk" horiz-adv-x="993" d="M990 1217L660 1044L990 870L914 729L582 913V569H410V913L79 729L3 870L335 1044L3 1217L79 1358L410 1176V1520H582V1176L914 1358L990 1217Z" />
<glyph unicode="+" glyph-name="plus" horiz-adv-x="1099" d="M669 1192V762H1099V524H669V92H432V524H0V762H432V1192H669Z" />
<glyph unicode="," glyph-name="comma" horiz-adv-x="432" d="M109 367H422V96L226 -287H10L109 96V367Z" />
<glyph unicode="-" glyph-name="hyphen" horiz-adv-x="694" d="M31 735H662V444H31V735Z" />
<glyph unicode="." glyph-name="period" horiz-adv-x="396" d="M31 367H364V0H31V367Z" />
<glyph unicode="/" glyph-name="slash" horiz-adv-x="1007" d="M786 1493H1007L221 -190H0L786 1493Z" />
<glyph unicode="0" glyph-name="zero" horiz-adv-x="1023" d="M387 745Q387 798 423 834T511 870Q564 870 600 834T636 745Q636 693 600 657T511 621Q459 621 423 656T387 745ZM511 1270Q409 1270 362 1145T315 745Q315 471 362 346T511 221Q614 221 661 346T708
745Q708 1020 661 1145T511 1270ZM18 745Q18 1133 141 1326T511 1520Q759 1520 882 1327T1005 745Q1005 357 882 164T511 -29Q264 -29 141 164T18 745Z" />
<glyph unicode="1" glyph-name="one" horiz-adv-x="979" d="M26 260H356V1229L49 1153V1419L358 1493H643V260H973V0H26V260Z" />
<glyph unicode="2" glyph-name="two" horiz-adv-x="995" d="M344 260H973V0H25V252L185 422Q470 725 531 795Q606 881 639 947T672 1079Q672 1179 612 1233T440 1288Q361 1288 263 1257T57 1165V1440Q164 1479 266 1499T463 1520Q700 1520 835 1410T971 1108Q971
1020 942 943T840 772Q787 704 549 466Q420 337 344 260Z" />
<glyph unicode="3" glyph-name="three" horiz-adv-x="1014" d="M446 668H288V928H446Q556 928 616 971T677 1094Q677 1177 617 1223T446 1270Q362 1270 266 1249T67 1188V1456Q170 1487 270 1503T462 1520Q698 1520 830 1417T962 1133Q962 1000 886 916T669 805Q829
777 913 678T997 416Q997 199 858 85T454 -29Q341 -29 232 -10T22 45V319Q116 272 225 248T454 223Q574 223 644 278T714 428Q714 543 644 605T446 668Z" />
<glyph unicode="4" glyph-name="four" horiz-adv-x="1049" d="M592 1165L215 575H592V1165ZM566 1493H875V575H1039V322H875V0H592V322H0V608L566 1493Z" />
<glyph unicode="5" glyph-name="five" horiz-adv-x="991" d="M74 1493H885V1233H313V956Q349 970 390 976T477 983Q699 983 837 843T975 479Q975 244 826 108T418 -29Q322 -29 224 -13T24 35V301Q107 260 194 240T370 219Q526 219 607 285T688 479Q688 596 608
666T393 737Q314 737 235 718T74 659V1493Z" />
<glyph unicode="6" glyph-name="six" horiz-adv-x="1025" d="M529 748Q433 748 383 679T332 477Q332 346 382 277T529 207Q625 207 676 276T728 477Q728 608 677 678T529 748ZM916 1458V1190Q837 1235 765 1257T625 1280Q465 1280 382 1173T294 855Q341 920 414
952T586 985Q788 985 898 858T1008 496Q1008 245 885 107T537 -31Q264 -31 141 152T17 743Q17 1131 168 1324T621 1518Q691 1518 765 1503T916 1458Z" />
<glyph unicode="7" glyph-name="seven" horiz-adv-x="961" d="M15 1493H959V1284L453 0H152L638 1233H15V1493Z" />
<glyph unicode="8" glyph-name="eight" horiz-adv-x="1009" d="M504 666Q405 666 344 604T283 438Q283 335 344 272T504 209Q603 209 664 273T726 438Q726 541 665 603T504 666ZM285 791Q172 830 113 913T54 1118Q54 1304 175 1412T504 1520Q713 1520 834 1412T955
1118Q955 998 897 915T728 791Q852 753 922 655T992 420Q992 205 865 88T504 -29Q271 -29 144 88T17 420Q17 558 88 656T285 791ZM316 1094Q316 1006 366 955T504 903Q592 903 642 954T693 1094Q693 1181 643 1231T504 1282Q418 1282 367 1231T316 1094Z" />
<glyph unicode="9" glyph-name="nine" horiz-adv-x="1025" d="M109 20V289Q188 243 260 221T400 199Q559 199 642 305T731 624Q684 559 611 527T438 494Q237 494 127 621T17 983Q17 1233 140 1370T488 1507Q761 1507 884 1325T1008 735Q1008 348 857 155T404 -39Q334
-39 260 -24T109 20ZM496 741Q591 741 641 810T692 1012Q692 1143 642 1212T496 1282Q400 1282 349 1213T297 1012Q297 881 348 811T496 741Z" />
<glyph unicode=":" glyph-name="colon" horiz-adv-x="372" d="M31 1063H364V698H31V1063ZM31 367H364V0H31V367Z" />
<glyph unicode=";" glyph-name="semicolon" horiz-adv-x="438" d="M90 367H423V96L227 -287H12L90 96V367ZM90 1063H423V698H90V1063Z" />
<glyph unicode="&lt;" glyph-name="less" horiz-adv-x="1071" d="M1057 926L262 641L1057 358V109L0 524V760L1057 1176V926Z" />
<glyph unicode="=" glyph-name="equal" horiz-adv-x="1095" d="M31 532H1088V295H31V532ZM31 987H1088V752H31V987Z" />
<glyph unicode="&gt;" glyph-name="greater" horiz-adv-x="1088" d="M31 926V1176L1088 760V524L31 109V358L826 641L31 926Z" />
<glyph unicode="?" glyph-name="question" horiz-adv-x="843" d="M216 283H483V0H216V283ZM483 401H216V555Q216 654 247 724T358 872L448 961Q511 1022 533 1062T556 1145Q556 1212 510 1246T372 1280Q288 1280 197 1245T9 1139V1407Q107 1463 207 1491T409 1520Q611
1520 726 1426T841 1167Q841 1091 807 1026T679 868L591 782Q523 716 504 674T485 571Q485 562 485 550T483 524V401Z" />
<glyph unicode="@" glyph-name="at" horiz-adv-x="1191" d="M980 545Q980 658 929 722T789 786Q700 786 650 722T599 545Q599 431 649 367T789 303Q878 303 929 367T980 545ZM1166 135H970V217Q932 164 881 140T757 115Q593 115 493 233T392 545Q392 738 492 855T757
973Q828 973 882 949T970 877V918Q970 1054 896 1128T683 1202Q475 1202 344 1019T212 543Q212 236 364 55T769 -127Q849 -127 924 -104T1068 -33L1160 -209Q1079 -264 984 -291T779 -319Q429 -319 221 -86T13 543Q13 930 200 1162T695 1395Q913 1395 1039 1264T1166
905V135Z" />
<glyph unicode="A" glyph-name="A" horiz-adv-x="1179" d="M589 1223L450 612H729L589 1223ZM409 1493H770L1173 0H878L786 369H391L301 0H6L409 1493Z" />
<glyph unicode="B" glyph-name="B" horiz-adv-x="1082" d="M316 678V236H512Q653 236 709 284T766 451Q766 572 707 625T512 678H316ZM316 1260V913H512Q624 913 671 953T719 1085Q719 1177 671 1218T512 1260H316ZM31 1495H512Q761 1495 886 1401T1012 1118Q1012
974 938 893T721 799Q892 782 978 684T1065 410Q1065 194 935 97T512 0H31V1495Z" />
<glyph unicode="C" glyph-name="C" horiz-adv-x="971" d="M943 43Q873 7 796 -11T634 -29Q332 -29 173 170T14 745Q14 1122 173 1321T634 1520Q719 1520 797 1502T943 1448V1120Q867 1190 796 1222T648 1255Q486 1255 404 1127T321 745Q321 493 403 365T648 236Q724
236 795 268T943 371V43Z" />
<glyph unicode="D" glyph-name="D" horiz-adv-x="1049" d="M325 1227V266H405Q579 266 653 375T727 748Q727 1009 653 1118T405 1227H325ZM30 1493H346Q712 1493 873 1319T1034 748Q1034 351 873 176T346 0H30V1493Z" />
<glyph unicode="E" glyph-name="E" horiz-adv-x="965" d="M960 0H30V1493H960V1233H325V911H900V651H325V260H960V0Z" />
<glyph unicode="F" glyph-name="F" horiz-adv-x="960" d="M960 1233H325V911H903V651H325V0H30V1493H960V1233Z" />
<glyph unicode="G" glyph-name="G" horiz-adv-x="1051" d="M770 270V555H568V803H1028V119Q943 46 841 9T621 -29Q331 -29 173 172T15 745Q15 1122 174 1321T635 1520Q725 1520 812 1495T975 1421V1094Q913 1174 833 1214T656 1255Q488 1255 405 1129T322 745Q322
496 402 366T635 236Q681 236 715 244T770 270Z" />
<glyph unicode="H" glyph-name="H" horiz-adv-x="1017" d="M29 1493H324V924H693V1493H988V0H693V664H324V0H29V1493Z" />
<glyph unicode="I" glyph-name="I" horiz-adv-x="930" d="M29 1233V1493H918V1233H621V260H918V0H29V260H326V1233H29Z" />
<glyph unicode="J" glyph-name="J" horiz-adv-x="932" d="M8 74V416Q94 328 191 282T388 236Q504 236 558 294T612 479V1233H251V1493H907V479Q907 206 793 89T415 -29Q320 -29 217 -3T8 74Z" />
<glyph unicode="K" glyph-name="K" horiz-adv-x="1153" d="M29 1493H324V903L786 1493H1120L649 905L1137 0H809L455 672L324 506V0H29V1493Z" />
<glyph unicode="L" glyph-name="L" horiz-adv-x="955" d="M29 0V1493H324V260H955V0H29Z" />
<glyph unicode="M" glyph-name="M" horiz-adv-x="1117" d="M28 1493H380L558 838L735 1493H1089V0H835V1196L677 543H442L282 1196V0H28V1493Z" />
<glyph unicode="N" glyph-name="N" horiz-adv-x="1049" d="M28 1493H345L761 408V1493H1021V0H706L288 1085V0H28V1493Z" />
<glyph unicode="O" glyph-name="O" horiz-adv-x="1081" d="M540 1255Q427 1255 375 1135T323 745Q323 477 375 357T540 236Q654 236 706 356T758 745Q758 1014 706 1134T540 1255ZM16 745Q16 1128 148 1324T540 1520Q800 1520 932 1324T1065 745Q1065 363 933
167T540 -29Q281 -29 149 167T16 745Z" />
<glyph unicode="P" glyph-name="P" horiz-adv-x="1013" d="M323 1245V807H444Q589 807 647 856T706 1026Q706 1147 648 1196T444 1245H323ZM28 1493H433Q742 1493 877 1383T1013 1026Q1013 779 878 669T433 559H323V0H28V1493Z" />
<glyph unicode="Q" glyph-name="Q" horiz-adv-x="1072" d="M571 -23Q557 -26 548 -27T529 -29Q272 -29 140 167T7 745Q7 1128 139 1324T531 1520Q791 1520 923 1324T1056 745Q1056 482 993 305T810 51L996 -131L794 -281L571 -23ZM531 1255Q418 1255 366 1135T314
745Q314 477 366 357T531 236Q645 236 697 356T749 745Q749 1014 697 1134T531 1255Z" />
<glyph unicode="R" glyph-name="R" horiz-adv-x="1137" d="M702 705Q746 696 778 664T858 537L1128 0H804L624 377Q616 393 603 421Q524 590 417 590H323V0H28V1493H454Q742 1493 867 1391T993 1059Q993 905 918 814T702 705ZM323 1245V838H462Q583 838 635 885T688
1042Q688 1151 636 1198T462 1245H323Z" />
<glyph unicode="S" glyph-name="S" horiz-adv-x="1013" d="M399 655Q176 740 97 833T18 1085Q18 1288 148 1404T505 1520Q608 1520 711 1497T915 1427V1139Q820 1206 722 1241T528 1276Q421 1276 364 1233T307 1110Q307 1048 348 1008T522 918L649 870Q829 804
914 695T999 420Q999 194 866 83T462 -29Q351 -29 240 -3T24 76V381Q142 297 252 256T471 215Q580 215 640 264T700 403Q700 470 660 520T544 600L399 655Z" />
<glyph unicode="T" glyph-name="T" horiz-adv-x="1063" d="M679 0H384V1235H5V1493H1058V1235H679V0Z" />
<glyph unicode="U" glyph-name="U" horiz-adv-x="1066" d="M23 551V1493H318V477Q318 365 375 302T533 238Q634 238 691 301T748 477V1493H1043V551Q1043 247 922 109T533 -29Q266 -29 145 109T23 551Z" />
<glyph unicode="V" glyph-name="V" horiz-adv-x="1133" d="M566 246L829 1493H1126L771 0H362L7 1493H304L566 246Z" />
<glyph unicode="W" glyph-name="W" horiz-adv-x="1265" d="M16 1493H274L381 397L510 1106H755L905 397L989 1493H1249L1077 0H802L632 784L473 0H200L16 1493Z" />
<glyph unicode="X" glyph-name="X" horiz-adv-x="1213" d="M1196 0H891L606 494L322 0H17L455 758L29 1493H334L606 1018L879 1493H1184L760 758L1196 0Z" />
<glyph unicode="Y" glyph-name="Y" horiz-adv-x="1221" d="M2 1493H320L610 893L901 1493H1219L758 588V0H463V588L2 1493Z" />
<glyph unicode="Z" glyph-name="Z" horiz-adv-x="1097" d="M47 1493H1057V1249L365 260H1071V0H25V244L696 1233H47V1493Z" />
<glyph unicode="[" glyph-name="bracketleft" horiz-adv-x="543" d="M27 1556H535V1366H293V-80H535V-270H27V1556Z" />
<glyph unicode="\" glyph-name="backslash" horiz-adv-x="1009" d="M223 1493L1009 -190H786L0 1493H223Z" />
<glyph unicode="]" glyph-name="bracketright" horiz-adv-x="544" d="M516 1556V-270H8V-80H250V1366H8V1556H516Z" />
<glyph unicode="^" glyph-name="asciicircum" horiz-adv-x="1127" d="M686 1493L1123 936H881L563 1237L246 936H4L441 1493H686Z" />
<glyph unicode="_" glyph-name="underscore" horiz-adv-x="1287" d="M1260 -293V-483H27V-293H1260Z" />
<glyph unicode="`" glyph-name="grave" horiz-adv-x="566" d="M282 1638L565 1262H368L0 1638H282Z" />
<glyph unicode="a" glyph-name="a" horiz-adv-x="1051" d="M620 526Q456 526 391 484T326 340Q326 264 371 219T493 174Q609 174 673 261T737 506V526H620ZM1028 639V0H737V125Q684 51 601 11T418 -29Q227 -29 121 72T14 354Q14 550 141 643T534 737H737V786Q737
857 686 893T534 930Q429 930 331 904T125 819V1069Q222 1109 322 1128T534 1147Q807 1147 917 1036T1028 639Z" />
<glyph unicode="b" glyph-name="b" horiz-adv-x="1022" d="M727 557Q727 719 673 811T524 903Q429 903 374 811T319 557Q319 395 374 303T524 211Q619 211 673 303T727 557ZM319 961Q373 1054 444 1100T606 1147Q805 1147 912 995T1020 559Q1020 279 914 125T616
-29Q515 -29 440 20T319 166V0H27V1556H319V961Z" />
<glyph unicode="c" glyph-name="c" horiz-adv-x="928" d="M905 57Q831 14 746 -7T563 -29Q304 -29 158 127T12 559Q12 836 159 992T565 1149Q655 1149 738 1128T905 1063V795Q841 850 765 879T606 909Q463 909 386 818T309 559Q309 391 386 301T606 211Q691 211
765 239T905 326V57Z" />
<glyph unicode="d" glyph-name="d" horiz-adv-x="1022" d="M703 961V1556H995V0H703V166Q656 69 582 20T406 -29Q214 -29 108 125T2 559Q2 843 109 995T416 1147Q506 1147 577 1101T703 961ZM295 557Q295 395 349 303T498 211Q593 211 648 303T703 557Q703 719
648 811T498 903Q403 903 349 811T295 557Z" />
<glyph unicode="e" glyph-name="e" horiz-adv-x="1087" d="M1024 55Q922 13 816 -8T592 -29Q311 -29 163 121T14 555Q14 829 157 988T547 1147Q796 1147 933 1000T1071 584V465H312Q313 333 390 268T620 203Q721 203 819 232T1024 324V55ZM776 685Q774 801 717
860T547 920Q446 920 386 859T315 684L776 685Z" />
<glyph unicode="f" glyph-name="f" horiz-adv-x="914" d="M565 1218V1120H909V895H565V0H272V895H0V1120H272V1198Q272 1400 356 1478T668 1556H909V1331H680Q614 1331 591 1307T565 1218Z" />
<glyph unicode="g" glyph-name="g" horiz-adv-x="1037" d="M720 578Q720 728 663 818T513 909Q421 909 365 819T308 578Q308 426 364 336T513 246Q606 246 663 336T720 578ZM1013 84Q1013 -185 892 -304T497 -424Q405 -424 315 -411T132 -369V-100Q215 -146 301
-168T478 -190Q602 -190 661 -132T720 51V172Q677 92 606 53T433 14Q241 14 128 164T15 571Q15 837 128 993T431 1149Q527 1149 602 1104T720 977V1120H1013V84Z" />
<glyph unicode="h" glyph-name="h" horiz-adv-x="931" d="M926 727V0H635V682Q635 803 601 855T488 907Q408 907 363 837T318 641V0H27V1556H318V952Q349 1045 424 1096T605 1147Q764 1147 845 1042T926 727Z" />
<glyph unicode="i" glyph-name="i" horiz-adv-x="1030" d="M83 1120H663V225H1027V0H5V225H370V895H83V1120ZM370 1665H663V1323H370V1665Z" />
<glyph unicode="j" glyph-name="j" horiz-adv-x="732" d="M707 43Q707 -209 617 -316T316 -424H0V-199H234Q332 -199 373 -144T414 43V895H117V1120H707V43ZM707 1323H414V1665H707V1323Z" />
<glyph unicode="k" glyph-name="k" horiz-adv-x="1051" d="M27 1556H320V739L672 1120H1027L603 702L1051 0H727L420 524L320 428V0H27V1556Z" />
<glyph unicode="l" glyph-name="l" horiz-adv-x="1009" d="M300 467V1331H3V1556H593V467Q593 335 634 280T773 225H1007V0H691Q482 0 391 108T300 467Z" />
<glyph unicode="m" glyph-name="m" horiz-adv-x="1125" d="M635 1008Q668 1079 719 1113T844 1147Q989 1147 1044 1047T1100 631V0H860V719Q860 844 841 886T772 928Q722 928 702 885T682 719V0H445V719Q445 842 425 885T355 928Q305 928 286 886T267 719V0H27V1120H240V1004Q265
1070 320 1108T443 1147Q511 1147 567 1107T635 1008Z" />
<glyph unicode="n" glyph-name="n" horiz-adv-x="950" d="M926 727V0H635V682Q635 804 601 856T488 909Q409 909 364 838T318 641V0H27V1120H318V952Q349 1045 424 1096T605 1147Q764 1147 845 1042T926 727Z" />
<glyph unicode="o" glyph-name="o" horiz-adv-x="1065" d="M532 909Q427 909 367 817T307 559Q307 394 367 302T532 209Q638 209 698 301T758 559Q758 724 698 816T532 909ZM14 559Q14 830 154 988T532 1147Q770 1147 910 989T1051 559Q1051 288 911 130T532 -29Q295
-29 155 129T14 559Z" />
<glyph unicode="p" glyph-name="p" horiz-adv-x="1022" d="M319 158V-426H27V1120H319V952Q365 1049 440 1098T616 1147Q808 1147 914 993T1020 559Q1020 275 913 123T606 -29Q516 -29 445 17T319 158ZM727 561Q727 723 673 815T524 907Q429 907 374 815T319 561Q319
399 374 307T524 215Q619 215 673 307T727 561Z" />
<glyph unicode="q" glyph-name="q" horiz-adv-x="1022" d="M295 561Q295 399 349 307T498 215Q593 215 648 307T703 561Q703 723 648 815T498 907Q403 907 349 815T295 561ZM703 158Q649 64 578 18T416 -29Q217 -29 110 123T2 559Q2 839 108 993T406 1147Q507
1147 581 1098T703 952V1120H995V-426H703V158Z" />
<glyph unicode="r" glyph-name="r" horiz-adv-x="887" d="M887 811Q839 855 775 877T633 899Q540 899 471 867T363 772Q339 734 330 680T320 516V0H27V1120H320V946Q363 1042 452 1094T660 1147Q720 1147 777 1133T887 1090V811Z" />
<glyph unicode="s" glyph-name="s" horiz-adv-x="928" d="M837 1085V829Q756 881 669 907T493 934Q395 934 345 906T295 821Q295 741 509 691L520 688L604 668Q764 630 838 546T913 317Q913 144 800 58T458 -29Q357 -29 251 -12T36 41V297Q133 242 233 213T428
184Q531 184 584 214T637 301Q637 357 600 387T421 451L340 469Q172 507 95 588T18 805Q18 967 135 1057T464 1147Q559 1147 653 1132T837 1085Z" />
<glyph unicode="t" glyph-name="t" horiz-adv-x="969" d="M579 1438V1120H962V895H579V365Q579 290 615 258T737 225H962V0H716Q464 0 375 80T286 379V895H0V1120H286V1438H579Z" />
<glyph unicode="u" glyph-name="u" horiz-adv-x="952" d="M24 391V1120H317V436Q317 315 351 263T464 211Q543 211 587 281T632 477V1120H925V0H632V166Q601 73 527 22T347 -29Q187 -29 106 77T24 391Z" />
<glyph unicode="v" glyph-name="v" horiz-adv-x="1085" d="M1079 1120L723 0H362L6 1120H303L542 246L782 1120H1079Z" />
<glyph unicode="w" glyph-name="w" horiz-adv-x="1263" d="M15 1120H259L392 262L513 827H750L869 262L1004 1120H1248L1045 0H767L631 582L496 0H218L15 1120Z" />
<glyph unicode="x" glyph-name="x" horiz-adv-x="1155" d="M1106 1120L729 584L1139 0H797L577 377L358 0H16L430 584L49 1120H391L577 786L764 1120H1106Z" />
<glyph unicode="y" glyph-name="y" horiz-adv-x="1135" d="M669 -121Q610 -279 528 -351T327 -424H85V-201H204Q294 -201 336 -171T421 -29L443 31L17 1120H325L581 393L826 1120H1134L669 -121Z" />
<glyph unicode="z" glyph-name="z" horiz-adv-x="951" d="M49 1120H944V891L355 219H944V0H25V229L615 901H49V1120Z" />
<glyph unicode="{" glyph-name="braceleft" horiz-adv-x="890" d="M877 -143V-334H727Q478 -334 394 -260T309 35V250Q309 401 256 458T62 516H0V707H62Q202 707 255 764T309 973V1188Q309 1409 393 1482T727 1556H877V1366H754Q650 1366 615 1324T580 1139V930Q580
765 531 698T356 612Q482 591 531 523T580 291V86Q580 -58 615 -100T754 -143H877Z" />
<glyph unicode="|" glyph-name="bar" horiz-adv-x="283" d="M254 1565V-483H27V1565H254Z" />
<glyph unicode="}" glyph-name="braceright" horiz-adv-x="890" d="M13 -143H134Q238 -143 274 -100T310 86V291Q310 455 359 523T533 612Q407 631 359 698T310 930V1139Q310 1280 275 1323T134 1366H13V1556H163Q411 1556 494 1483T578 1188V973Q578 822 632
765T828 707H890V516H828Q687 516 633 458T578 250V35Q578 -186 495 -260T163 -334H13V-143Z" />
<glyph unicode="~" glyph-name="asciitilde" horiz-adv-x="1102" d="M1079 811V578Q1004 518 933 491T782 463Q692 463 579 514Q557 524 546 528Q469 562 418 574T315 586Q237 586 167 557T22 465V694Q100 755 173 782T329 809Q382 809 432 798T556 756Q567 751
589 741Q705 686 798 686Q868 686 937 716T1079 811Z" />
<glyph unicode="&#xa1;" glyph-name="exclamdown" horiz-adv-x="322" d="M294 1210H27V1493H294V1210ZM294 0H27V655L60 1012H259L294 655V0Z" />
<glyph unicode="&#xa2;" glyph-name="cent" horiz-adv-x="894" d="M889 1077V809Q833 851 773 875T650 907V215Q714 220 773 244T889 311V43Q837 14 777 -3T650 -25V-313H508V-25Q273 -3 137 154T0 561Q0 816 136 972T508 1145V1432H650V1145Q711 1140 769 1124T889
1077ZM508 215V907Q394 893 333 804T271 561Q271 406 334 314T508 215Z" />
<glyph unicode="&#xa3;" glyph-name="sterling" horiz-adv-x="1034" d="M990 1462V1188Q933 1229 868 1250T734 1272Q628 1272 579 1206T529 995V819H865V594H529V260H1010V0H7V260H242V594H44V819H242V1016Q242 1272 354 1396T699 1520Q782 1520 853 1506T990 1462Z" />
<glyph unicode="&#xa4;" glyph-name="currency" horiz-adv-x="968" d="M659 643Q659 716 609 765T485 815Q412 815 362 766T311 643Q311 569 361 518T485 467Q559 467 609 518T659 643ZM651 938L823 1108L950 979L780 809Q803 768 814 727T825 641Q825 594 814
554T778 477L950 307L819 176L649 348Q613 324 573 313T485 301Q446 301 404 311T317 344L147 176L18 305L188 475Q166 517 155 558T143 641Q143 688 154 728T190 807L18 977L149 1108L315 936Q356 960 397 971T485 983Q524 983 564 972T651 938Z" />
<glyph unicode="&#xa5;" glyph-name="yen" horiz-adv-x="1229" d="M6 1493H324L614 893L905 1493H1223L950 965H1174V778H852L766 627H1174V438H762V0H467V438H55V627H463L377 778H55V965H279L6 1493Z" />
<glyph unicode="&#xa6;" glyph-name="brokenbar" horiz-adv-x="270" d="M254 408V-350H27V408H254ZM254 1432V674H27V1432H254Z" />
<glyph unicode="&#xa7;" glyph-name="section" horiz-adv-x="914" d="M360 856Q305 820 281 786T256 711Q256 657 304 613T553 473Q608 509 632 543T657 621Q657 702 392 840L360 856ZM772 1460V1235Q687 1265 621 1279T501 1294Q425 1294 383 1265T340 1184Q340
1109 543 1004Q562 994 571 989Q785 879 844 809T903 637Q903 548 856 484T706 373Q776 323 808 262T841 119Q841 -28 737 -111T446 -195Q357 -195 271 -181T100 -137V92Q185 62 266 47T420 31Q497 31 538 59T579 141Q579 211 365 326L354 332L328 346Q12 516 12
688Q12 782 64 851T213 954Q142 1004 110 1064T78 1206Q78 1348 182 1434T458 1520Q532 1520 610 1505T772 1460Z" />
<glyph unicode="&#xa8;" glyph-name="dieresis" horiz-adv-x="686" d="M422 1585H658V1339H422V1585ZM27 1585H263V1339H27V1585Z" />
<glyph unicode="&#xa9;" glyph-name="copyright" horiz-adv-x="1259" d="M861 1049V881Q809 912 764 926T670 940Q573 940 520 888T466 741Q466 646 519 595T670 543Q723 543 771 557T861 602V434Q806 417 753 408T650 399Q481 399 380 492T279 741Q279 897 380
990T650 1083Q705 1083 757 1075T861 1049ZM629 1358Q756 1358 865 1313T1064 1178Q1154 1087 1200 977T1246 741Q1246 616 1201 507T1064 307Q973 216 864 171T629 125Q504 125 395 170T195 307Q104 398 59 507T13 741Q13 867 59 977T195 1178Q285 1268 394 1313T629
1358ZM629 1229Q530 1229 445 1194T287 1085Q216 1014 180 928T144 741Q144 643 180 558T287 401Q358 329 444 293T629 256Q729 256 815 292T971 401Q1043 473 1079 558T1115 741Q1115 842 1079 928T971 1085Q899 1158 815 1193T629 1229Z" />
<glyph unicode="&#xaa;" glyph-name="ordfeminine" horiz-adv-x="763" d="M546 1049V1079H444Q335 1079 285 1053T235 971Q235 922 265 894T350 866Q436 866 491 917T546 1049ZM546 809Q496 752 436 725T297 698Q167 698 92 766T16 952Q16 1086 108 1152T389 1219H546V1245Q546
1294 501 1318T364 1343Q282 1343 211 1327T75 1276V1464Q148 1492 222 1506T372 1520Q561 1520 650 1434T739 1165V717H546V809ZM53 598H741V428H53V598Z" />
<glyph unicode="&#xab;" glyph-name="guillemotleft" horiz-adv-x="946" d="M925 1059V821L649 600L925 379V141L456 535V666L925 1059ZM471 1059V821L194 600L471 379V141L2 535V666L471 1059Z" />
<glyph unicode="&#xac;" glyph-name="logicalnot" horiz-adv-x="1084" d="M0 899H1057V362H819V662H0V899Z" />
<glyph unicode="&#xad;" glyph-name="sfthyphen" horiz-adv-x="686" d="M27 735H658V444H27V735Z" />
<glyph unicode="&#xae;" glyph-name="registered" horiz-adv-x="1259" d="M629 1358Q756 1358 865 1313T1064 1178Q1154 1087 1200 977T1246 741Q1246 616 1201 507T1064 307Q973 216 864 171T629 125Q504 125 395 170T195 307Q104 398 59 507T13 741Q13 867 59
977T195 1178Q285 1268 394 1313T629 1358ZM601 944H537V780H601Q658 780 686 800T715 860Q715 903 687 923T601 944ZM619 1055Q752 1055 816 1011T881 877Q881 812 842 770T732 715Q770 701 797 673T849 596L928 430H756L693 563Q666 621 638 644T568 670H537V430H373V1055H619ZM629
1229Q530 1229 445 1194T287 1085Q216 1014 180 928T144 741Q144 643 180 558T287 399Q359 328 444 292T629 256Q728 256 814 292T971 399Q1043 473 1079 558T1115 741Q1115 842 1079 928T971 1085Q899 1158 815 1193T629 1229Z" />
<glyph unicode="&#xaf;" glyph-name="overscore" horiz-adv-x="686" d="M27 1556H658V1368H27V1556Z" />
<glyph unicode="&#xb0;" glyph-name="degree" horiz-adv-x="691" d="M346 1520Q413 1520 474 1495T582 1421Q629 1374 653 1314T678 1186Q678 1120 653 1059T582 952Q534 905 473 880T344 854Q203 854 108 949T13 1186Q13 1327 109 1423T346 1520ZM346 1358Q274
1358 224 1308T174 1186Q174 1114 223 1065T344 1016Q416 1016 466 1065T516 1186Q516 1258 467 1308T346 1358Z" />
<glyph unicode="&#xb1;" glyph-name="plusminus" horiz-adv-x="1073" d="M655 1284V930H1065V694H655V340H418V694H8V930H418V1284H655ZM8 238H1065V0H8V238Z" />
<glyph unicode="&#xb2;" glyph-name="twosuperior" horiz-adv-x="707" d="M248 813H688V668H22V809Q73 852 163 927Q477 1189 477 1268Q477 1320 434 1350T315 1380Q259 1380 192 1363T47 1311V1475Q122 1497 193 1508T330 1520Q499 1520 592 1458T686 1284Q686
1158 331 878Q277 836 248 813Z" />
<glyph unicode="&#xb3;" glyph-name="threesuperior" horiz-adv-x="711" d="M315 1042H204V1188H315Q389 1188 431 1213T474 1282Q474 1327 435 1352T325 1378Q256 1378 187 1367T50 1333V1485Q119 1502 188 1511T325 1520Q487 1520 579 1462T671 1303Q671 1230
619 1183T468 1120Q579 1105 637 1049T696 901Q696 780 600 717T319 653Q244 653 169 663T20 694V848Q87 821 163 807T319 793Q404 793 451 825T499 913Q499 974 450 1008T315 1042Z" />
<glyph unicode="&#xb4;" glyph-name="acute" horiz-adv-x="566" d="M284 1638H566L198 1262H1L284 1638Z" />
<glyph unicode="&#xb5;" glyph-name="mu" horiz-adv-x="1042" d="M27 -428V1120H314V440Q314 326 355 269T478 211Q559 211 599 268T639 440V1120H928V344Q928 273 941 242T986 211Q1000 211 1013 216T1041 233V16Q998 -7 961 -18T889 -29Q817 -29 772 8T699 129Q662
51 607 11T482 -29Q423 -29 382 -6T314 66L316 -428H27Z" />
<glyph unicode="&#xb6;" glyph-name="paragraph" horiz-adv-x="1024" d="M477 1493H997V-197H806V1346H616V-197H428V649Q223 674 113 783T2 1071Q2 1261 132 1377T477 1493Z" />
<glyph unicode="&#xb7;" glyph-name="middot" horiz-adv-x="388" d="M27 895H360V530H27V895Z" />
<glyph unicode="&#xb8;" glyph-name="cedilla" horiz-adv-x="1233" d="M343 0Q400 -62 427 -115T455 -215Q455 -310 394 -355T205 -401Q157 -401 107 -395T3 -375V-219Q48 -236 90 -245T168 -254Q226 -254 258 -231T291 -168Q291 -142 270 -101T203 0H343Z" />
<glyph unicode="&#xb9;" glyph-name="onesuperior" horiz-adv-x="678" d="M24 813H250V1356L30 1313V1462L252 1503H446V813H672V668H24V813Z" />
<glyph unicode="&#xba;" glyph-name="ordmasculine" horiz-adv-x="759" d="M36 598H724V428H36V598ZM17 1108Q17 1297 115 1408T380 1520Q546 1520 644 1409T742 1108Q742 919 645 809T380 698Q214 698 116 808T17 1108ZM380 1343Q307 1343 265 1280T222 1108Q222
999 264 937T380 874Q453 874 495 936T538 1108Q538 1217 496 1280T380 1343Z" />
<glyph unicode="&#xbb;" glyph-name="guillemotright" horiz-adv-x="953" d="M27 1059L496 666V535L27 141V379L303 600L27 821V1059ZM481 1059L950 666V535L481 141V379L758 600L481 821V1059Z" />
<glyph unicode="&#xbc;" glyph-name="onequarter" horiz-adv-x="1233" d="M577 384L327 54H577V384ZM559 566H763V54H872V-89H763V-269H577V-89H184V73L559 566ZM-233 969H-7V1512L-227 1469V1618L-5 1659H189V969H415V824H-233V969ZM37 500L0 618L1059 881L1096
762L37 500Z" />
<glyph unicode="&#xbd;" glyph-name="onehalf" horiz-adv-x="1233" d="M-233 969H-7V1512L-227 1469V1618L-5 1659H189V969H415V824H-233V969ZM37 500L0 618L1059 881L1096 762L37 500ZM449 -124H889V-269H223V-128Q274 -85 364 -10Q678 252 678 331Q678 383 635
413T516 443Q460 443 393 426T248 374V538Q323 560 394 571T531 583Q700 583 793 521T887 347Q887 221 532 -59Q478 -101 449 -124Z" />
<glyph unicode="&#xbe;" glyph-name="threequarters" horiz-adv-x="1233" d="M577 384L327 54H577V384ZM559 566H763V54H872V-89H763V-269H577V-89H184V73L559 566ZM89 1198H-22V1344H89Q163 1344 205 1369T248 1438Q248 1483 209 1508T99 1534Q30 1534 -39 1523T-176
1489V1641Q-107 1658 -38 1667T99 1676Q261 1676 353 1618T445 1459Q445 1386 393 1339T242 1276Q353 1261 411 1205T470 1057Q470 936 374 873T93 809Q18 809 -57 819T-206 850V1004Q-139 977 -63 963T93 949Q178 949 225 981T273 1069Q273 1130 224 1164T89 1198ZM37
500L0 618L1059 881L1096 762L37 500Z" />
<glyph unicode="&#xbf;" glyph-name="questiondown" horiz-adv-x="840" d="M625 1210H358V1493H625V1210ZM358 1092H625V938Q625 839 594 769T483 621L393 532Q332 473 310 433T287 348Q287 281 333 247T471 213Q554 213 644 248T832 354V86Q734 30 634 2T432
-27Q231 -27 117 67T2 326Q2 402 36 467T164 625L252 711Q318 775 337 817T356 922Q356 923 357 928Q358 949 358 969V1092Z" />
<glyph unicode="&#xc0;" glyph-name="Agrave" horiz-adv-x="1233" d="M589 1223L450 612H729L589 1223ZM409 1493H770L1173 0H878L786 369H391L301 0H6L409 1493ZM284 1899L483 1635H286L0 1899H284Z" />
<glyph unicode="&#xc1;" glyph-name="Aacute" horiz-adv-x="1233" d="M589 1223L450 612H729L589 1223ZM409 1493H770L1173 0H878L786 369H391L301 0H6L409 1493ZM203 1899H487L201 1635H4L203 1899Z" />
<glyph unicode="&#xc2;" glyph-name="Acircumflex" horiz-adv-x="1233" d="M589 1223L450 612H729L589 1223ZM409 1493H770L1173 0H878L786 369H391L301 0H6L409 1493ZM229 1899H538L761 1635H583L384 1796L186 1635H8L229 1899Z" />
<glyph unicode="&#xc3;" glyph-name="Atilde" horiz-adv-x="1233" d="M589 1223L450 612H729L589 1223ZM409 1493H770L1173 0H878L786 369H391L301 0H6L409 1493ZM370 1684L316 1718Q311 1721 304 1725Q259 1751 231 1751Q200 1751 180 1721T160 1641V1635H20V1665Q20
1771 74 1836T217 1901Q253 1901 290 1889T366 1852L426 1813Q447 1799 466 1792T502 1784Q538 1784 557 1814T577 1901H717Q717 1896 716 1886T715 1870Q715 1764 662 1700T520 1635Q483 1635 448 1646T370 1684Z" />
<glyph unicode="&#xc4;" glyph-name="Adieresis" horiz-adv-x="1233" d="M589 1223L450 612H729L589 1223ZM409 1493H770L1173 0H878L786 369H391L301 0H6L409 1493ZM422 1899H658V1653H422V1899ZM27 1899H263V1653H27V1899Z" />
<glyph unicode="&#xc5;" glyph-name="Aring" horiz-adv-x="1179" d="M788 1421L1173 0H878L786 369H391L301 0H6L391 1421Q347 1458 326 1506T305 1616Q305 1733 388 1817T589 1901Q707 1901 790 1817T874 1616Q874 1554 853 1507T788 1421ZM458 1616Q458 1562
497 1524T589 1485Q644 1485 682 1523T721 1616Q721 1670 682 1708T589 1747Q536 1747 497 1709T458 1616ZM589 1223L450 612H729L589 1223Z" />
<glyph unicode="&#xc6;" glyph-name="AE" horiz-adv-x="1213" d="M1168 1493V1233H877V922H1137V662H877V260H1187V0H623V362H341L255 0H7L365 1493H1168ZM544 1233L396 598H623V1233H544Z" />
<glyph unicode="&#xc7;" glyph-name="Ccedilla" horiz-adv-x="1233" d="M460 0Q517 -62 544 -115T572 -215Q572 -310 511 -355T322 -401Q274 -401 224 -395T120 -375V-219Q165 -236 207 -245T285 -254Q343 -254 375 -231T408 -168Q408 -142 387 -101T320 0H460ZM943
43Q873 7 796 -11T634 -29Q332 -29 173 170T14 745Q14 1122 173 1321T634 1520Q719 1520 797 1502T943 1448V1120Q867 1190 796 1222T648 1255Q486 1255 404 1127T321 745Q321 493 403 365T648 236Q724 236 795 268T943 371V43Z" />
<glyph unicode="&#xc8;" glyph-name="Egrave" horiz-adv-x="1233" d="M960 0H30V1493H960V1233H325V911H900V651H325V260H960V0ZM315 1899L514 1635H317L31 1899H315Z" />
<glyph unicode="&#xc9;" glyph-name="Eacute" horiz-adv-x="1233" d="M960 0H30V1493H960V1233H325V911H900V651H325V260H960V0ZM234 1899H518L232 1635H35L234 1899Z" />
<glyph unicode="&#xca;" glyph-name="Ecircumflex" horiz-adv-x="1233" d="M960 0H30V1493H960V1233H325V911H900V651H325V260H960V0ZM260 1899H569L792 1635H614L415 1796L217 1635H39L260 1899Z" />
<glyph unicode="&#xcb;" glyph-name="Edieresis" horiz-adv-x="1233" d="M960 0H30V1493H960V1233H325V911H900V651H325V260H960V0ZM453 1899H689V1653H453V1899ZM58 1899H294V1653H58V1899Z" />
<glyph unicode="&#xcc;" glyph-name="Igrave" horiz-adv-x="1233" d="M29 1233V1493H918V1233H621V260H918V0H29V260H326V1233H29ZM284 1899L483 1635H286L0 1899H284Z" />
<glyph unicode="&#xcd;" glyph-name="Iacute" horiz-adv-x="1233" d="M29 1233V1493H918V1233H621V260H918V0H29V260H326V1233H29ZM203 1899H487L201 1635H4L203 1899Z" />
<glyph unicode="&#xce;" glyph-name="Icircumflex" horiz-adv-x="1233" d="M29 1233V1493H918V1233H621V260H918V0H29V260H326V1233H29ZM229 1899H538L761 1635H583L384 1796L186 1635H8L229 1899Z" />
<glyph unicode="&#xcf;" glyph-name="Idieresis" horiz-adv-x="1233" d="M29 1233V1493H918V1233H621V260H918V0H29V260H326V1233H29ZM422 1899H658V1653H422V1899ZM27 1899H263V1653H27V1899Z" />
<glyph unicode="&#xd0;" glyph-name="Eth" horiz-adv-x="1168" d="M444 1227V901H655V664H444V266H524Q698 266 772 375T846 748Q846 1009 772 1118T524 1227H444ZM149 1493H465Q831 1493 992 1319T1153 748Q1153 351 992 176T465 0H149V664H12V901H149V1493Z" />
<glyph unicode="&#xd1;" glyph-name="Ntilde" horiz-adv-x="1233" d="M28 1493H345L761 408V1493H1021V0H706L288 1085V0H28V1493ZM370 1684L316 1718Q311 1721 304 1725Q259 1751 231 1751Q200 1751 180 1721T160 1641V1635H20V1665Q20 1771 74 1836T217 1901Q253
1901 290 1889T366 1852L426 1813Q447 1799 466 1792T502 1784Q538 1784 557 1814T577 1901H717Q717 1896 716 1886T715 1870Q715 1764 662 1700T520 1635Q483 1635 448 1646T370 1684Z" />
<glyph unicode="&#xd2;" glyph-name="Ograve" horiz-adv-x="1233" d="M540 1255Q427 1255 375 1135T323 745Q323 477 375 357T540 236Q654 236 706 356T758 745Q758 1014 706 1134T540 1255ZM16 745Q16 1128 148 1324T540 1520Q800 1520 932 1324T1065 745Q1065
363 933 167T540 -29Q281 -29 149 167T16 745ZM284 1899L483 1635H286L0 1899H284Z" />
<glyph unicode="&#xd3;" glyph-name="Oacute" horiz-adv-x="1233" d="M540 1255Q427 1255 375 1135T323 745Q323 477 375 357T540 236Q654 236 706 356T758 745Q758 1014 706 1134T540 1255ZM16 745Q16 1128 148 1324T540 1520Q800 1520 932 1324T1065 745Q1065
363 933 167T540 -29Q281 -29 149 167T16 745ZM203 1899H487L201 1635H4L203 1899Z" />
<glyph unicode="&#xd4;" glyph-name="Ocircumflex" horiz-adv-x="1233" d="M540 1255Q427 1255 375 1135T323 745Q323 477 375 357T540 236Q654 236 706 356T758 745Q758 1014 706 1134T540 1255ZM16 745Q16 1128 148 1324T540 1520Q800 1520 932 1324T1065 745Q1065
363 933 167T540 -29Q281 -29 149 167T16 745ZM229 1899H538L761 1635H583L384 1796L186 1635H8L229 1899Z" />
<glyph unicode="&#xd5;" glyph-name="Otilde" horiz-adv-x="1233" d="M540 1255Q427 1255 375 1135T323 745Q323 477 375 357T540 236Q654 236 706 356T758 745Q758 1014 706 1134T540 1255ZM16 745Q16 1128 148 1324T540 1520Q800 1520 932 1324T1065 745Q1065
363 933 167T540 -29Q281 -29 149 167T16 745ZM370 1684L316 1718Q311 1721 304 1725Q259 1751 231 1751Q200 1751 180 1721T160 1641V1635H20V1665Q20 1771 74 1836T217 1901Q253 1901 290 1889T366 1852L426 1813Q447 1799 466 1792T502 1784Q538 1784 557 1814T577
1901H717Q717 1896 716 1886T715 1870Q715 1764 662 1700T520 1635Q483 1635 448 1646T370 1684Z" />
<glyph unicode="&#xd6;" glyph-name="Odieresis" horiz-adv-x="1233" d="M540 1255Q427 1255 375 1135T323 745Q323 477 375 357T540 236Q654 236 706 356T758 745Q758 1014 706 1134T540 1255ZM16 745Q16 1128 148 1324T540 1520Q800 1520 932 1324T1065 745Q1065
363 933 167T540 -29Q281 -29 149 167T16 745ZM422 1899H658V1653H422V1899ZM27 1899H263V1653H27V1899Z" />
<glyph unicode="&#xd7;" glyph-name="multiply" horiz-adv-x="1025" d="M1009 971L679 643L1009 313L841 147L511 475L184 147L16 313L346 643L16 971L184 1139L511 811L841 1139L1009 971Z" />
<glyph unicode="&#xd8;" glyph-name="Oslash" horiz-adv-x="1248" d="M467 354Q491 297 533 267T632 236Q746 236 798 356T850 745Q850 773 849 804T845 888L467 354ZM788 1153Q762 1204 723 1229T632 1255Q520 1255 468 1135T415 756V629L788 1153ZM178 289Q143
377 126 490T108 745Q108 1128 240 1324T632 1520Q735 1520 818 1489T962 1397L1075 1559L1237 1444L1079 1221Q1118 1127 1137 1008T1157 745Q1157 363 1025 167T632 -29Q526 -29 441 4T292 104L172 -63L10 51L178 289Z" />
<glyph unicode="&#xd9;" glyph-name="Ugrave" horiz-adv-x="1233" d="M23 551V1493H318V477Q318 365 375 302T533 238Q634 238 691 301T748 477V1493H1043V551Q1043 247 922 109T533 -29Q266 -29 145 109T23 551ZM284 1899L483 1635H286L0 1899H284Z" />
<glyph unicode="&#xda;" glyph-name="Uacute" horiz-adv-x="1233" d="M23 551V1493H318V477Q318 365 375 302T533 238Q634 238 691 301T748 477V1493H1043V551Q1043 247 922 109T533 -29Q266 -29 145 109T23 551ZM203 1899H487L201 1635H4L203 1899Z" />
<glyph unicode="&#xdb;" glyph-name="Ucircumflex" horiz-adv-x="1233" d="M23 551V1493H318V477Q318 365 375 302T533 238Q634 238 691 301T748 477V1493H1043V551Q1043 247 922 109T533 -29Q266 -29 145 109T23 551ZM229 1899H538L761 1635H583L384 1796L186
1635H8L229 1899Z" />
<glyph unicode="&#xdc;" glyph-name="Udieresis" horiz-adv-x="1233" d="M23 551V1493H318V477Q318 365 375 302T533 238Q634 238 691 301T748 477V1493H1043V551Q1043 247 922 109T533 -29Q266 -29 145 109T23 551ZM422 1899H658V1653H422V1899ZM27 1899H263V1653H27V1899Z"
/>
<glyph unicode="&#xdd;" glyph-name="Yacute" horiz-adv-x="1233" d="M2 1493H320L610 893L901 1493H1219L758 588V0H463V588L2 1493ZM203 1899H487L201 1635H4L203 1899Z" />
<glyph unicode="&#xde;" glyph-name="Thorn" horiz-adv-x="1012" d="M322 1014V575H443Q589 575 647 624T705 793Q705 914 647 964T443 1014H322ZM27 1493H322V1255H432Q741 1255 876 1146T1012 788Q1012 549 875 441T432 332H322V0H27V1493Z" />
<glyph unicode="&#xdf;" glyph-name="germandbls" horiz-adv-x="1080" d="M931 1059Q806 1053 742 1008T677 881Q677 817 793 728Q806 718 812 713L909 639Q991 577 1031 501T1071 330Q1071 163 959 67T653 -29Q592 -29 530 -17T401 20V270Q459 239 516 223T628
207Q701 207 743 240T786 332Q786 404 671 492Q642 514 626 526L540 594Q481 642 451 705T421 846Q421 972 495 1057T706 1174Q697 1248 648 1284T507 1321Q413 1321 365 1271T317 1122V0H24V1126Q24 1337 144 1446T495 1556Q718 1556 824 1438T931 1073V1059Z"
/>
<glyph unicode="&#xe0;" glyph-name="agrave" horiz-adv-x="1233" d="M620 526Q456 526 391 484T326 340Q326 264 371 219T493 174Q609 174 673 261T737 506V526H620ZM1028 639V0H737V125Q684 51 601 11T418 -29Q227 -29 121 72T14 354Q14 550 141 643T534 737H737V786Q737
857 686 893T534 930Q429 930 331 904T125 819V1069Q222 1109 322 1128T534 1147Q807 1147 917 1036T1028 639ZM282 1638L565 1262H368L0 1638H282Z" />
<glyph unicode="&#xe1;" glyph-name="aacute" horiz-adv-x="1233" d="M620 526Q456 526 391 484T326 340Q326 264 371 219T493 174Q609 174 673 261T737 506V526H620ZM1028 639V0H737V125Q684 51 601 11T418 -29Q227 -29 121 72T14 354Q14 550 141 643T534 737H737V786Q737
857 686 893T534 930Q429 930 331 904T125 819V1069Q222 1109 322 1128T534 1147Q807 1147 917 1036T1028 639ZM284 1638H566L198 1262H1L284 1638Z" />
<glyph unicode="&#xe2;" glyph-name="acircumflex" horiz-adv-x="1233" d="M620 526Q456 526 391 484T326 340Q326 264 371 219T493 174Q609 174 673 261T737 506V526H620ZM1028 639V0H737V125Q684 51 601 11T418 -29Q227 -29 121 72T14 354Q14 550 141 643T534
737H737V786Q737 857 686 893T534 930Q429 930 331 904T125 819V1069Q222 1109 322 1128T534 1147Q807 1147 917 1036T1028 639ZM262 1638H503L759 1262H581L382 1487L184 1262H6L262 1638Z" />
<glyph unicode="&#xe3;" glyph-name="atilde" horiz-adv-x="1233" d="M620 526Q456 526 391 484T326 340Q326 264 371 219T493 174Q609 174 673 261T737 506V526H620ZM1028 639V0H737V125Q684 51 601 11T418 -29Q227 -29 121 72T14 354Q14 550 141 643T534 737H737V786Q737
857 686 893T534 930Q429 930 331 904T125 819V1069Q222 1109 322 1128T534 1147Q807 1147 917 1036T1028 639ZM370 1364L315 1401Q312 1403 303 1409Q260 1438 233 1438Q197 1438 179 1407T160 1317V1309H20Q20 1445 71 1519T217 1593Q253 1593 289 1580T366 1536L428
1493Q449 1478 467 1470T502 1462Q538 1462 557 1493T577 1583V1591H717Q717 1455 666 1381T520 1307Q484 1307 451 1319T370 1364Z" />
<glyph unicode="&#xe4;" glyph-name="adieresis" horiz-adv-x="1233" d="M620 526Q456 526 391 484T326 340Q326 264 371 219T493 174Q609 174 673 261T737 506V526H620ZM1028 639V0H737V125Q684 51 601 11T418 -29Q227 -29 121 72T14 354Q14 550 141 643T534
737H737V786Q737 857 686 893T534 930Q429 930 331 904T125 819V1069Q222 1109 322 1128T534 1147Q807 1147 917 1036T1028 639ZM422 1585H658V1339H422V1585ZM27 1585H263V1339H27V1585Z" />
<glyph unicode="&#xe5;" glyph-name="aring" horiz-adv-x="1233" d="M620 526Q456 526 391 484T326 340Q326 264 371 219T493 174Q609 174 673 261T737 506V526H620ZM1028 639V0H737V125Q684 51 601 11T418 -29Q227 -29 121 72T14 354Q14 550 141 643T534 737H737V786Q737
857 686 893T534 930Q429 930 331 904T125 819V1069Q222 1109 322 1128T534 1147Q807 1147 917 1036T1028 639ZM13 1534Q13 1652 96 1735T297 1819Q416 1819 499 1736T582 1534Q582 1416 499 1333T297 1249Q179 1249 96 1332T13 1534ZM166 1534Q166 1479 204 1441T297
1403Q352 1403 390 1441T429 1534Q429 1588 390 1626T297 1665Q243 1665 205 1627T166 1534Z" />
<glyph unicode="&#xe6;" glyph-name="ae" horiz-adv-x="1215" d="M494 401V483H421Q334 483 290 444T245 330Q245 259 277 222T370 184Q433 184 463 227T494 358V401ZM968 690V713Q968 838 943 885T855 932Q792 932 767 885T742 713V690H968ZM1193 479H742Q742
335 792 260T937 184Q997 184 1057 213T1176 301V57Q1126 13 1064 -8T918 -29Q815 -29 740 13T623 135Q582 51 517 11T353 -29Q193 -29 106 63T19 326Q19 511 120 602T425 694H501V745Q501 838 462 885T347 932Q290 932 223 905T81 823V1069Q155 1108 225 1127T359
1147Q457 1147 519 1116T617 1020Q646 1081 711 1114T869 1147Q1046 1147 1119 1028T1193 606V479Z" />
<glyph unicode="&#xe7;" glyph-name="ccedilla" horiz-adv-x="1233" d="M415 0Q472 -62 499 -115T527 -215Q527 -310 466 -355T277 -401Q229 -401 179 -395T75 -375V-219Q120 -236 162 -245T240 -254Q298 -254 330 -231T363 -168Q363 -142 342 -101T275 0H415ZM905
57Q831 14 746 -7T563 -29Q304 -29 158 127T12 559Q12 836 159 992T565 1149Q655 1149 738 1128T905 1063V795Q841 850 765 879T606 909Q463 909 386 818T309 559Q309 391 386 301T606 211Q691 211 765 239T905 326V57Z" />
<glyph unicode="&#xe8;" glyph-name="egrave" horiz-adv-x="1233" d="M1024 55Q922 13 816 -8T592 -29Q311 -29 163 121T14 555Q14 829 157 988T547 1147Q796 1147 933 1000T1071 584V465H312Q313 333 390 268T620 203Q721 203 819 232T1024 324V55ZM776 685Q774
801 717 860T547 920Q446 920 386 859T315 684L776 685ZM321 1638L604 1262H407L39 1638H321Z" />
<glyph unicode="&#xe9;" glyph-name="eacute" horiz-adv-x="1233" d="M1024 55Q922 13 816 -8T592 -29Q311 -29 163 121T14 555Q14 829 157 988T547 1147Q796 1147 933 1000T1071 584V465H312Q313 333 390 268T620 203Q721 203 819 232T1024 324V55ZM776 685Q774
801 717 860T547 920Q446 920 386 859T315 684L776 685ZM323 1638H605L237 1262H40L323 1638Z" />
<glyph unicode="&#xea;" glyph-name="ecircumflex" horiz-adv-x="1233" d="M1024 55Q922 13 816 -8T592 -29Q311 -29 163 121T14 555Q14 829 157 988T547 1147Q796 1147 933 1000T1071 584V465H312Q313 333 390 268T620 203Q721 203 819 232T1024 324V55ZM776
685Q774 801 717 860T547 920Q446 920 386 859T315 684L776 685ZM301 1638H542L798 1262H620L421 1487L223 1262H45L301 1638Z" />
<glyph unicode="&#xeb;" glyph-name="edieresis" horiz-adv-x="1233" d="M1024 55Q922 13 816 -8T592 -29Q311 -29 163 121T14 555Q14 829 157 988T547 1147Q796 1147 933 1000T1071 584V465H312Q313 333 390 268T620 203Q721 203 819 232T1024 324V55ZM776 685Q774
801 717 860T547 920Q446 920 386 859T315 684L776 685ZM461 1585H697V1339H461V1585ZM66 1585H302V1339H66V1585Z" />
<glyph unicode="&#xec;" glyph-name="igrave" horiz-adv-x="1233" d="M99 1120H679V225H1043V0H21V225H386V895H99V1120ZM282 1638L565 1262H368L0 1638H282Z" />
<glyph unicode="&#xed;" glyph-name="iacute" horiz-adv-x="1233" d="M99 1120H679V225H1043V0H21V225H386V895H99V1120ZM284 1638H566L198 1262H1L284 1638Z" />
<glyph unicode="&#xee;" glyph-name="icircumflex" horiz-adv-x="1233" d="M99 1120H679V225H1043V0H21V225H386V895H99V1120ZM262 1638H503L759 1262H581L382 1487L184 1262H6L262 1638Z" />
<glyph unicode="&#xef;" glyph-name="idieresis" horiz-adv-x="1233" d="M99 1120H679V225H1043V0H21V225H386V895H99V1120ZM422 1585H658V1339H422V1585ZM27 1585H263V1339H27V1585Z" />
<glyph unicode="&#xf0;" glyph-name="eth" horiz-adv-x="1051" d="M723 760Q674 787 625 801T528 815Q423 815 362 743T301 545Q301 387 360 298T524 209Q633 209 690 299T748 563Q748 608 742 657T723 760ZM852 1100Q952 963 995 837T1038 559Q1038 283 902 127T524
-29Q288 -29 149 124T10 537Q10 773 140 913T487 1053Q527 1053 558 1047T617 1028L457 1247L145 1128L90 1245L373 1354L215 1556H508L600 1440L897 1567L963 1444L686 1327L852 1100Z" />
<glyph unicode="&#xf1;" glyph-name="ntilde" horiz-adv-x="1233" d="M926 727V0H635V682Q635 804 601 856T488 909Q409 909 364 838T318 641V0H27V1120H318V952Q349 1045 424 1096T605 1147Q764 1147 845 1042T926 727ZM370 1364L315 1401Q312 1403 303 1409Q260
1438 233 1438Q197 1438 179 1407T160 1317V1309H20Q20 1445 71 1519T217 1593Q253 1593 289 1580T366 1536L428 1493Q449 1478 467 1470T502 1462Q538 1462 557 1493T577 1583V1591H717Q717 1455 666 1381T520 1307Q484 1307 451 1319T370 1364Z" />
<glyph unicode="&#xf2;" glyph-name="ograve" horiz-adv-x="1051" d="M390 1640L673 1264H476L108 1640H390ZM529 909Q424 909 364 817T304 559Q304 394 364 302T529 209Q635 209 695 301T755 559Q755 724 695 816T529 909ZM11 559Q11 830 151 988T529 1147Q767
1147 907 989T1048 559Q1048 288 908 130T529 -29Q292 -29 152 129T11 559Z" />
<glyph unicode="&#xf3;" glyph-name="oacute" horiz-adv-x="1050" d="M659 1639H941L573 1263H376L659 1639ZM521 909Q416 909 356 817T296 559Q296 394 356 302T521 209Q627 209 687 301T747 559Q747 724 687 816T521 909ZM3 559Q3 830 143 988T521 1147Q759
1147 899 989T1040 559Q1040 288 900 130T521 -29Q284 -29 144 129T3 559Z" />
<glyph unicode="&#xf4;" glyph-name="ocircumflex" horiz-adv-x="1233" d="M262 1639H503L759 1263H581L382 1488L184 1263H6L262 1639ZM532 909Q427 909 367 817T307 559Q307 394 367 302T532 209Q638 209 698 301T758 559Q758 724 698 816T532 909ZM14 559Q14
830 154 988T532 1147Q770 1147 910 989T1051 559Q1051 288 911 130T532 -29Q295 -29 155 129T14 559Z" />
<glyph unicode="&#xf5;" glyph-name="otilde" horiz-adv-x="1233" d="M370 1588L315 1625Q312 1627 303 1633Q260 1662 233 1662Q197 1662 179 1631T160 1541V1533H20Q20 1669 71 1743T217 1817Q253 1817 289 1804T366 1760L428 1717Q449 1702 467 1694T502 1686Q538
1686 557 1717T577 1807V1815H717Q717 1679 666 1605T520 1531Q484 1531 451 1543T370 1588ZM532 909Q427 909 367 817T307 559Q307 394 367 302T532 209Q638 209 698 301T758 559Q758 724 698 816T532 909ZM14 559Q14 830 154 988T532 1147Q770 1147 910 989T1051
559Q1051 288 911 130T532 -29Q295 -29 155 129T14 559Z" />
<glyph unicode="&#xf6;" glyph-name="odieresis" horiz-adv-x="1233" d="M422 1818H658V1572H422V1818ZM27 1818H263V1572H27V1818ZM532 909Q427 909 367 817T307 559Q307 394 367 302T532 209Q638 209 698 301T758 559Q758 724 698 816T532 909ZM14 559Q14 830
154 988T532 1147Q770 1147 910 989T1051 559Q1051 288 911 130T532 -29Q295 -29 155 129T14 559Z" />
<glyph unicode="&#xf7;" glyph-name="divide" horiz-adv-x="1099" d="M395 1198H704V889H395V1198ZM395 395H704V86H395V395ZM0 762H1099V524H0V762Z" />
<glyph unicode="&#xf8;" glyph-name="oslash" horiz-adv-x="1195" d="M815 675L467 262Q498 235 531 222T602 209Q706 209 766 302T826 559Q826 588 824 617T815 675ZM383 449L729 860Q703 885 672 897T602 909Q496 909 436 817T375 559Q375 525 377 499T383 449ZM172
199Q127 272 105 361T82 559Q82 830 222 988T600 1147Q685 1147 758 1126T899 1059L1047 1235L1186 1114L1026 926Q1072 850 1095 758T1119 559Q1119 288 979 130T600 -29Q517 -29 442 -7T299 61L148 -117L9 2L172 199Z" />
<glyph unicode="&#xf9;" glyph-name="ugrave" horiz-adv-x="1233" d="M24 391V1120H317V436Q317 315 351 263T464 211Q543 211 587 281T632 477V1120H925V0H632V166Q601 73 527 22T347 -29Q187 -29 106 77T24 391ZM282 1638L565 1262H368L0 1638H282Z" />
<glyph unicode="&#xfa;" glyph-name="uacute" horiz-adv-x="1233" d="M24 391V1120H317V436Q317 315 351 263T464 211Q543 211 587 281T632 477V1120H925V0H632V166Q601 73 527 22T347 -29Q187 -29 106 77T24 391ZM284 1638H566L198 1262H1L284 1638Z" />
<glyph unicode="&#xfb;" glyph-name="ucircumflex" horiz-adv-x="1233" d="M24 391V1120H317V436Q317 315 351 263T464 211Q543 211 587 281T632 477V1120H925V0H632V166Q601 73 527 22T347 -29Q187 -29 106 77T24 391ZM262 1638H503L759 1262H581L382 1487L184
1262H6L262 1638Z" />
<glyph unicode="&#xfc;" glyph-name="udieresis" horiz-adv-x="1233" d="M24 391V1120H317V436Q317 315 351 263T464 211Q543 211 587 281T632 477V1120H925V0H632V166Q601 73 527 22T347 -29Q187 -29 106 77T24 391ZM422 1585H658V1339H422V1585ZM27 1585H263V1339H27V1585Z"
/>
<glyph unicode="&#xfd;" glyph-name="yacute" horiz-adv-x="1233" d="M669 -121Q610 -279 528 -351T327 -424H85V-201H204Q294 -201 336 -171T421 -29L443 31L17 1120H325L581 393L826 1120H1134L669 -121ZM284 1638H566L198 1262H1L284 1638Z" />
<glyph unicode="&#xfe;" glyph-name="thorn" horiz-adv-x="1020" d="M319 158V-426H27V1556H319V952Q365 1049 440 1098T616 1147Q808 1147 914 993T1020 559Q1020 275 913 123T606 -29Q516 -29 445 17T319 158ZM727 561Q727 723 673 815T524 907Q429 907 374
815T319 561Q319 399 374 307T524 215Q619 215 673 307T727 561Z" />
<glyph unicode="&#xff;" glyph-name="ydieresis" horiz-adv-x="1233" d="M669 -121Q610 -279 528 -351T327 -424H85V-201H204Q294 -201 336 -171T421 -29L443 31L17 1120H325L581 393L826 1120H1134L669 -121ZM422 1585H658V1339H422V1585ZM27 1585H263V1339H27V1585Z" />
<glyph unicode="&#x100;" glyph-name="Amacron" horiz-adv-x="1233" d="M27 1870H658V1682H27V1870ZM589 1223L450 612H729L589 1223ZM409 1493H770L1173 0H878L786 369H391L301 0H6L409 1493Z" />
<glyph unicode="&#x101;" glyph-name="amacron" horiz-adv-x="1233" d="M27 1556H658V1368H27V1556ZM620 526Q456 526 391 484T326 340Q326 264 371 219T493 174Q609 174 673 261T737 506V526H620ZM1028 639V0H737V125Q684 51 601 11T418 -29Q227 -29 121 72T14
354Q14 550 141 643T534 737H737V786Q737 857 686 893T534 930Q429 930 331 904T125 819V1069Q222 1109 322 1128T534 1147Q807 1147 917 1036T1028 639Z" />
<glyph unicode="&#x102;" glyph-name="Abreve" horiz-adv-x="1233" d="M589 1223L450 612H729L589 1223ZM409 1493H770L1173 0H878L786 369H391L301 0H6L409 1493ZM13 1899H154Q174 1839 223 1809T348 1778Q425 1778 473 1808T541 1899H684Q669 1770 583 1703T348
1635Q201 1635 115 1702T13 1899Z" />
<glyph unicode="&#x103;" glyph-name="abreve" horiz-adv-x="1233" d="M620 526Q456 526 391 484T326 340Q326 264 371 219T493 174Q609 174 673 261T737 506V526H620ZM1028 639V0H737V125Q684 51 601 11T418 -29Q227 -29 121 72T14 354Q14 550 141 643T534 737H737V786Q737
857 686 893T534 930Q429 930 331 904T125 819V1069Q222 1109 322 1128T534 1147Q807 1147 917 1036T1028 639ZM14 1606H155Q166 1537 216 1500T349 1462Q432 1462 481 1499T542 1606H685Q679 1462 593 1386T349 1309Q193 1309 107 1385T14 1606Z" />
<glyph unicode="&#x104;" glyph-name="Aogonek" horiz-adv-x="1233" d="M480 0H621Q568 -71 550 -106T531 -166Q531 -205 561 -229T642 -254Q680 -254 718 -247T797 -223V-379Q743 -390 696 -395T607 -401Q493 -401 431 -355T369 -223Q369 -170 396 -116T480 0ZM589
1223L450 612H729L589 1223ZM409 1493H770L1173 0H878L786 369H391L301 0H6L409 1493Z" />
<glyph unicode="&#x105;" glyph-name="aogonek" horiz-adv-x="1233" d="M383 0H524Q471 -71 453 -106T434 -166Q434 -205 464 -229T545 -254Q583 -254 621 -247T700 -223V-379Q646 -390 599 -395T510 -401Q396 -401 334 -355T272 -223Q272 -170 299 -116T383 0ZM620
526Q456 526 391 484T326 340Q326 264 371 219T493 174Q609 174 673 261T737 506V526H620ZM1028 639V0H737V125Q684 51 601 11T418 -29Q227 -29 121 72T14 354Q14 550 141 643T534 737H737V786Q737 857 686 893T534 930Q429 930 331 904T125 819V1069Q222 1109
322 1128T534 1147Q807 1147 917 1036T1028 639Z" />
<glyph unicode="&#x106;" glyph-name="Cacute" horiz-adv-x="1233" d="M943 43Q873 7 796 -11T634 -29Q332 -29 173 170T14 745Q14 1122 173 1321T634 1520Q719 1520 797 1502T943 1448V1120Q867 1190 796 1222T648 1255Q486 1255 404 1127T321 745Q321 493 403
365T648 236Q724 236 795 268T943 371V43ZM340 1899H624L338 1635H141L340 1899Z" />
<glyph unicode="&#x107;" glyph-name="cacute" horiz-adv-x="1233" d="M905 57Q831 14 746 -7T563 -29Q304 -29 158 127T12 559Q12 836 159 992T565 1149Q655 1149 738 1128T905 1063V795Q841 850 765 879T606 909Q463 909 386 818T309 559Q309 391 386 301T606
211Q691 211 765 239T905 326V57ZM386 1638H668L300 1262H103L386 1638Z" />
<glyph unicode="&#x108;" glyph-name="Ccircumflex" horiz-adv-x="1233" d="M385 1899H694L917 1635H739L540 1796L342 1635H164L385 1899ZM943 43Q873 7 796 -11T634 -29Q332 -29 173 170T14 745Q14 1122 173 1321T634 1520Q719 1520 797 1502T943 1448V1120Q867
1190 796 1222T648 1255Q486 1255 404 1127T321 745Q321 493 403 365T648 236Q724 236 795 268T943 371V43Z" />
<glyph unicode="&#x109;" glyph-name="ccircumflex" horiz-adv-x="1233" d="M367 1638H608L864 1262H686L487 1487L289 1262H111L367 1638ZM905 57Q831 14 746 -7T563 -29Q304 -29 158 127T12 559Q12 836 159 992T565 1149Q655 1149 738 1128T905 1063V795Q841
850 765 879T606 909Q463 909 386 818T309 559Q309 391 386 301T606 211Q691 211 765 239T905 326V57Z" />
<glyph unicode="&#x10a;" glyph-name="Cdotaccent" horiz-adv-x="1233" d="M943 43Q873 7 796 -11T634 -29Q332 -29 173 170T14 745Q14 1122 173 1321T634 1520Q719 1520 797 1502T943 1448V1120Q867 1190 796 1222T648 1255Q486 1255 404 1127T321 745Q321 493
403 365T648 236Q724 236 795 268T943 371V43ZM127 1899H402V1653H127V1899Z" />
<glyph unicode="&#x10b;" glyph-name="cdotaccent" horiz-adv-x="1233" d="M905 57Q831 14 746 -7T563 -29Q304 -29 158 127T12 559Q12 836 159 992T565 1149Q655 1149 738 1128T905 1063V795Q841 850 765 879T606 909Q463 909 386 818T309 559Q309 391 386 301T606
211Q691 211 765 239T905 326V57ZM102 1585H377V1339H102V1585Z" />
<glyph unicode="&#x10c;" glyph-name="Ccaron" horiz-adv-x="1233" d="M943 43Q873 7 796 -11T634 -29Q332 -29 173 170T14 745Q14 1122 173 1321T634 1520Q719 1520 797 1502T943 1448V1120Q867 1190 796 1222T648 1255Q486 1255 404 1127T321 745Q321 493 403
365T648 236Q724 236 795 268T943 371V43ZM366 1635L145 1899H323L521 1737L720 1899H898L675 1635H366Z" />
<glyph unicode="&#x10d;" glyph-name="ccaron" horiz-adv-x="1233" d="M905 57Q831 14 746 -7T563 -29Q304 -29 158 127T12 559Q12 836 159 992T565 1149Q655 1149 738 1128T905 1063V795Q841 850 765 879T606 909Q463 909 386 818T309 559Q309 391 386 301T606
211Q691 211 765 239T905 326V57ZM364 1262L108 1638H286L484 1411L683 1638H861L605 1262H364Z" />
<glyph unicode="&#x10e;" glyph-name="Dcaron" horiz-adv-x="1233" d="M325 1227V266H405Q579 266 653 375T727 748Q727 1009 653 1118T405 1227H325ZM30 1493H346Q712 1493 873 1319T1034 748Q1034 351 873 176T346 0H30V1493ZM217 1653L-4 1917H174L372 1755L571
1917H749L526 1653H217Z" />
<glyph unicode="&#x10f;" glyph-name="dcaron" horiz-adv-x="1233" d="M701 1556H989L825 1173H623L701 1556ZM703 961V1556H995V0H703V166Q656 69 582 20T406 -29Q214 -29 108 125T2 559Q2 843 109 995T416 1147Q506 1147 577 1101T703 961ZM295 557Q295 395
349 303T498 211Q593 211 648 303T703 557Q703 719 648 811T498 903Q403 903 349 811T295 557Z" />
<glyph unicode="&#x110;" glyph-name="Dcroat" horiz-adv-x="1233" d="M444 1227V901H655V664H444V266H524Q698 266 772 375T846 748Q846 1009 772 1118T524 1227H444ZM149 1493H465Q831 1493 992 1319T1153 748Q1153 351 992 176T465 0H149V664H12V901H149V1493Z" />
<glyph unicode="&#x111;" glyph-name="" horiz-adv-x="1159" d="M709 961V1251H403V1440H709V1556H1001V1440H1147V1251H1001V0H709V166Q662 69 588 20T412 -29Q220 -29 114 125T8 559Q8 843 115 995T422 1147Q512 1147 583 1101T709 961ZM301 557Q301 395 355
303T504 211Q599 211 654 303T709 557Q709 719 654 811T504 903Q409 903 355 811T301 557Z" />
<glyph unicode="&#x112;" glyph-name="Emacron" horiz-adv-x="1233" d="M58 1870H689V1682H58V1870ZM960 0H30V1493H960V1233H325V911H900V651H325V260H960V0Z" />
<glyph unicode="&#x113;" glyph-name="emacron" horiz-adv-x="1233" d="M66 1556H697V1368H66V1556ZM1024 55Q922 13 816 -8T592 -29Q311 -29 163 121T14 555Q14 829 157 988T547 1147Q796 1147 933 1000T1071 584V465H312Q313 333 390 268T620 203Q721 203 819
232T1024 324V55ZM776 685Q774 801 717 860T547 920Q446 920 386 859T315 684L776 685Z" />
<glyph unicode="&#x114;" glyph-name="Ebreve" horiz-adv-x="1233" d="M960 0H30V1493H960V1233H325V911H900V651H325V260H960V0ZM44 1899H185Q205 1839 254 1809T379 1778Q456 1778 504 1808T572 1899H715Q700 1770 614 1703T379 1635Q232 1635 146 1702T44 1899Z" />
<glyph unicode="&#x115;" glyph-name="ebreve" horiz-adv-x="1233" d="M1024 55Q922 13 816 -8T592 -29Q311 -29 163 121T14 555Q14 829 157 988T547 1147Q796 1147 933 1000T1071 584V465H312Q313 333 390 268T620 203Q721 203 819 232T1024 324V55ZM776 685Q774
801 717 860T547 920Q446 920 386 859T315 684L776 685ZM53 1606H194Q205 1537 255 1500T388 1462Q471 1462 520 1499T581 1606H724Q718 1462 632 1386T388 1309Q232 1309 146 1385T53 1606Z" />
<glyph unicode="&#x116;" glyph-name="Edotaccent" horiz-adv-x="1233" d="M960 0H30V1493H960V1233H325V911H900V651H325V260H960V0ZM58 1899H333V1653H58V1899Z" />
<glyph unicode="&#x117;" glyph-name="edotaccent" horiz-adv-x="1233" d="M1024 55Q922 13 816 -8T592 -29Q311 -29 163 121T14 555Q14 829 157 988T547 1147Q796 1147 933 1000T1071 584V465H312Q313 333 390 268T620 203Q721 203 819 232T1024 324V55ZM776
685Q774 801 717 860T547 920Q446 920 386 859T315 684L776 685ZM66 1585H341V1339H66V1585Z" />
<glyph unicode="&#x118;" glyph-name="Eogonek" horiz-adv-x="1233" d="M350 0H491Q438 -71 420 -106T401 -166Q401 -205 431 -229T512 -254Q550 -254 588 -247T667 -223V-379Q613 -390 566 -395T477 -401Q363 -401 301 -355T239 -223Q239 -170 266 -116T350 0ZM960
0H30V1493H960V1233H325V911H900V651H325V260H960V0Z" />
<glyph unicode="&#x119;" glyph-name="eogonek" horiz-adv-x="1233" d="M356 0H497Q444 -71 426 -106T407 -166Q407 -205 437 -229T518 -254Q556 -254 594 -247T673 -223V-379Q619 -390 572 -395T483 -401Q369 -401 307 -355T245 -223Q245 -170 272 -116T356 0ZM1024
55Q922 13 816 -8T592 -29Q311 -29 163 121T14 555Q14 829 157 988T547 1147Q796 1147 933 1000T1071 584V465H312Q313 333 390 268T620 203Q721 203 819 232T1024 324V55ZM776 685Q774 801 717 860T547 920Q446 920 386 859T315 684L776 685Z" />
<glyph unicode="&#x11a;" glyph-name="Ecaron" horiz-adv-x="1233" d="M960 0H30V1493H960V1233H325V911H900V651H325V260H960V0ZM282 1635L61 1899H239L437 1737L636 1899H814L591 1635H282Z" />
<glyph unicode="&#x11b;" glyph-name="ecaron" horiz-adv-x="1233" d="M1024 55Q922 13 816 -8T592 -29Q311 -29 163 121T14 555Q14 829 157 988T547 1147Q796 1147 933 1000T1071 584V465H312Q313 333 390 268T620 203Q721 203 819 232T1024 324V55ZM776 685Q774
801 717 860T547 920Q446 920 386 859T315 684L776 685ZM279 1267L23 1643H201L399 1416L598 1643H776L520 1267H279Z" />
<glyph unicode="&#x11c;" glyph-name="Gcircumflex" horiz-adv-x="1233" d="M350 1899H659L882 1635H704L505 1796L307 1635H129L350 1899ZM770 270V555H568V803H1028V119Q943 46 841 9T621 -29Q331 -29 173 172T15 745Q15 1122 174 1321T635 1520Q725 1520 812
1495T975 1421V1094Q913 1174 833 1214T656 1255Q488 1255 405 1129T322 745Q322 496 402 366T635 236Q681 236 715 244T770 270Z" />
<glyph unicode="&#x11d;" glyph-name="gcircumflex" horiz-adv-x="1233" d="M499 1638H740L996 1262H818L619 1487L421 1262H243L499 1638ZM720 578Q720 728 663 818T513 909Q421 909 365 819T308 578Q308 426 364 336T513 246Q606 246 663 336T720 578ZM1013
84Q1013 -185 892 -304T497 -424Q405 -424 315 -411T132 -369V-100Q215 -146 301 -168T478 -190Q602 -190 661 -132T720 51V172Q677 92 606 53T433 14Q241 14 128 164T15 571Q15 837 128 993T431 1149Q527 1149 602 1104T720 977V1120H1013V84Z" />
<glyph unicode="&#x11e;" glyph-name="Gbreve" horiz-adv-x="1233" d="M770 270V555H568V803H1028V119Q943 46 841 9T621 -29Q331 -29 173 172T15 745Q15 1122 174 1321T635 1520Q725 1520 812 1495T975 1421V1094Q913 1174 833 1214T656 1255Q488 1255 405 1129T322
745Q322 496 402 366T635 236Q681 236 715 244T770 270ZM63 1899H204Q224 1839 273 1809T398 1778Q475 1778 523 1808T591 1899H734Q719 1770 633 1703T398 1635Q251 1635 165 1702T63 1899Z" />
<glyph unicode="&#x11f;" glyph-name="gbreve" horiz-adv-x="1233" d="M720 578Q720 728 663 818T513 909Q421 909 365 819T308 578Q308 426 364 336T513 246Q606 246 663 336T720 578ZM1013 84Q1013 -185 892 -304T497 -424Q405 -424 315 -411T132 -369V-100Q215
-146 301 -168T478 -190Q602 -190 661 -132T720 51V172Q677 92 606 53T433 14Q241 14 128 164T15 571Q15 837 128 993T431 1149Q527 1149 602 1104T720 977V1120H1013V84ZM14 1606H155Q166 1537 216 1500T349 1462Q432 1462 481 1499T542 1606H685Q679 1462 593
1386T349 1309Q193 1309 107 1385T14 1606Z" />
<glyph unicode="&#x120;" glyph-name="Gdotaccent" horiz-adv-x="1233" d="M770 270V555H568V803H1028V119Q943 46 841 9T621 -29Q331 -29 173 172T15 745Q15 1122 174 1321T635 1520Q725 1520 812 1495T975 1421V1094Q913 1174 833 1214T656 1255Q488 1255 405
1129T322 745Q322 496 402 366T635 236Q681 236 715 244T770 270ZM77 1899H352V1653H77V1899Z" />
<glyph unicode="&#x121;" glyph-name="gdotaccent" horiz-adv-x="1233" d="M720 578Q720 728 663 818T513 909Q421 909 365 819T308 578Q308 426 364 336T513 246Q606 246 663 336T720 578ZM1013 84Q1013 -185 892 -304T497 -424Q405 -424 315 -411T132 -369V-100Q215
-146 301 -168T478 -190Q602 -190 661 -132T720 51V172Q677 92 606 53T433 14Q241 14 128 164T15 571Q15 837 128 993T431 1149Q527 1149 602 1104T720 977V1120H1013V84ZM27 1585H302V1339H27V1585Z" />
<glyph unicode="&#x122;" glyph-name="Gcommaaccent" horiz-adv-x="1233" d="M266 -187H548L371 -493H177L266 -187ZM770 270V555H568V803H1028V119Q943 46 841 9T621 -29Q331 -29 173 172T15 745Q15 1122 174 1321T635 1520Q725 1520 812 1495T975 1421V1094Q913
1174 833 1214T656 1255Q488 1255 405 1129T322 745Q322 496 402 366T635 236Q681 236 715 244T770 270Z" />
<glyph unicode="&#x123;" glyph-name="gcommaaccent" horiz-adv-x="1233" d="M292 1259H10L187 1565H381L292 1259ZM720 578Q720 728 663 818T513 909Q421 909 365 819T308 578Q308 426 364 336T513 246Q606 246 663 336T720 578ZM1013 84Q1013 -185 892 -304T497
-424Q405 -424 315 -411T132 -369V-100Q215 -146 301 -168T478 -190Q602 -190 661 -132T720 51V172Q677 92 606 53T433 14Q241 14 128 164T15 571Q15 837 128 993T431 1149Q527 1149 602 1104T720 977V1120H1013V84Z" />
<glyph unicode="&#x124;" glyph-name="Hcircumflex" horiz-adv-x="1233" d="M229 1899H538L761 1635H583L384 1796L186 1635H8L229 1899ZM29 1493H324V924H693V1493H988V0H693V664H324V0H29V1493Z" />
<glyph unicode="&#x125;" glyph-name="hcircumflex" horiz-adv-x="1233" d="M-71 1899H238L461 1635H283L84 1796L-114 1635H-292L-71 1899ZM926 727V0H635V682Q635 803 601 855T488 907Q408 907 363 837T318 641V0H27V1556H318V952Q349 1045 424 1096T605 1147Q764
1147 845 1042T926 727Z" />
<glyph unicode="&#x126;" glyph-name="Hbar" horiz-adv-x="1253" d="M147 1493H442V1269H811V1493H1105V1269H1240V1105H1105V0H811V664H442V0H147V1105H13V1269H147V1493ZM442 1105V924H811V1105H442Z" />
<glyph unicode="&#x127;" glyph-name="hbar" horiz-adv-x="1082" d="M1071 727V0H780V682Q780 803 746 855T633 907Q553 907 508 836Q463 766 463 641V0H172V1270H12V1434H172V1556H463V1434Q602 1434 740 1434V1270H463V952Q494 1045 569 1096T750 1147Q909 1147
990 1042Q1071 936 1071 727Z" />
<glyph unicode="&#x128;" glyph-name="Itilde" horiz-adv-x="1233" d="M370 1684L316 1718Q311 1721 304 1725Q259 1751 231 1751Q200 1751 180 1721T160 1641V1635H20V1665Q20 1771 74 1836T217 1901Q253 1901 290 1889T366 1852L426 1813Q447 1799 466 1792T502
1784Q538 1784 557 1814T577 1901H717Q717 1896 716 1886T715 1870Q715 1764 662 1700T520 1635Q483 1635 448 1646T370 1684ZM29 1233V1493H918V1233H621V260H918V0H29V260H326V1233H29Z" />
<glyph unicode="&#x129;" glyph-name="itilde" horiz-adv-x="1233" d="M370 1364L315 1401Q312 1403 303 1409Q260 1438 233 1438Q197 1438 179 1407T160 1317V1309H20Q20 1445 71 1519T217 1593Q253 1593 289 1580T366 1536L428 1493Q449 1478 467 1470T502 1462Q538
1462 557 1493T577 1583V1591H717Q717 1455 666 1381T520 1307Q484 1307 451 1319T370 1364ZM99 1120H679V225H1043V0H21V225H386V895H99V1120Z" />
<glyph unicode="&#x12a;" glyph-name="Imacron" horiz-adv-x="1233" d="M27 1870H658V1682H27V1870ZM29 1233V1493H918V1233H621V260H918V0H29V260H326V1233H29Z" />
<glyph unicode="&#x12b;" glyph-name="imacron" horiz-adv-x="1233" d="M27 1556H658V1368H27V1556ZM99 1120H679V225H1043V0H21V225H386V895H99V1120Z" />
<glyph unicode="&#x12c;" glyph-name="Ibreve" horiz-adv-x="1233" d="M29 1233V1493H918V1233H621V260H918V0H29V260H326V1233H29ZM13 1899H154Q174 1839 223 1809T348 1778Q425 1778 473 1808T541 1899H684Q669 1770 583 1703T348 1635Q201 1635 115 1702T13 1899Z" />
<glyph unicode="&#x12d;" glyph-name="ibreve" horiz-adv-x="1233" d="M99 1120H679V225H1043V0H21V225H386V895H99V1120ZM14 1606H155Q166 1537 216 1500T349 1462Q432 1462 481 1499T542 1606H685Q679 1462 593 1386T349 1309Q193 1309 107 1385T14 1606Z" />
<glyph unicode="&#x12e;" glyph-name="Iogonek" horiz-adv-x="1233" d="M29 1233V1493H918V1233H621V260H918V0H29V260H326V1233H29ZM191 0H332Q279 -71 261 -106T242 -166Q242 -205 272 -229T353 -254Q391 -254 429 -247T508 -223V-379Q454 -390 407 -395T318
-401Q204 -401 142 -355T80 -223Q80 -170 107 -116T191 0Z" />
<glyph unicode="&#x12f;" glyph-name="iogonek" horiz-adv-x="1233" d="M83 1120H663V225H1027V0H5V225H370V895H83V1120ZM370 1665H663V1323H370V1665ZM228 0H369Q316 -71 298 -106T279 -166Q279 -205 309 -229T390 -254Q428 -254 466 -247T545 -223V-379Q491
-390 444 -395T355 -401Q241 -401 179 -355T117 -223Q117 -170 144 -116T228 0Z" />
<glyph unicode="&#x130;" glyph-name="Idot" horiz-adv-x="1233" d="M29 1233V1493H918V1233H621V260H918V0H29V260H326V1233H29ZM27 1899H302V1653H27V1899Z" />
<glyph unicode="&#x131;" glyph-name="dotlessi" horiz-adv-x="1048" d="M99 1120H679V225H1043V0H21V225H386V895H99V1120Z" />
<glyph unicode="&#x132;" glyph-name="IJ" horiz-adv-x="1287" d="M606 77V419Q669 331 740 285T883 239Q968 239 1007 297Q1047 355 1047 482V1236H783V1496H1262V482Q1262 209 1179 92Q1095 -26 903 -26Q834 -26 759 0T606 77ZM23 1233V1493H592V1233H402V260H592V0H23V260H213V1233H23Z"
/>
<glyph unicode="&#x133;" glyph-name="ij" horiz-adv-x="1251" d="M1225 33Q1225 -219 1135 -326T834 -434H518V-209H752Q850 -209 891 -154T932 33V885H635V1110H1225V33ZM1225 1313H932V1655H1225V1313ZM56 1120H461V225H716V0H2V225H257V895H56V1120ZM257 1665H461V1323H257V1665Z"
/>
<glyph unicode="&#x134;" glyph-name="Jcircumflex" horiz-adv-x="1233" d="M293 1899H602L825 1635H647L448 1796L250 1635H72L293 1899ZM8 74V416Q94 328 191 282T388 236Q504 236 558 294T612 479V1233H251V1493H907V479Q907 206 793 89T415 -29Q320 -29 217 -3T8 74Z" />
<glyph unicode="&#x135;" glyph-name="jcircumflex" horiz-adv-x="1233" d="M262 1638H503L759 1262H581L382 1487L184 1262H6L262 1638ZM717 43Q717 -209 627 -316T326 -424H10V-199H244Q342 -199 383 -144T424 43V895H127V1120H717V43Z" />
<glyph unicode="&#x136;" glyph-name="Kcommaaccent" horiz-adv-x="1233" d="M214 -158H496L319 -464H125L214 -158ZM29 1493H324V903L786 1493H1120L649 905L1137 0H809L455 672L324 506V0H29V1493Z" />
<glyph unicode="&#x137;" glyph-name="kcommaaccent" horiz-adv-x="1233" d="M228 -158H510L333 -464H139L228 -158ZM27 1556H320V739L672 1120H1027L603 702L1051 0H727L420 524L320 428V0H27V1556Z" />
<glyph unicode="&#x138;" glyph-name="kgreenlandic" horiz-adv-x="1066" d="M27 1120H320V739L672 1120H1027L603 702L1051 0H727L420 524L320 428V0H27V1120Z" />
<glyph unicode="&#x139;" glyph-name="Lacute" horiz-adv-x="1233" d="M204 1900H488L202 1636H5L204 1900ZM29 0V1493H324V260H955V0H29Z" />
<glyph unicode="&#x13a;" glyph-name="lacute" horiz-adv-x="1233" d="M204 1900H488L202 1636H5L204 1900ZM300 467V1331H3V1556H593V467Q593 335 634 280T773 225H1007V0H691Q482 0 391 108T300 467Z" />
<glyph unicode="&#x13b;" glyph-name="Lcommaaccent" horiz-adv-x="1233" d="M230 -158H512L335 -464H141L230 -158ZM29 0V1493H324V260H955V0H29Z" />
<glyph unicode="&#x13c;" glyph-name="lcommaaccent" horiz-adv-x="1233" d="M104 -158H386L209 -464H15L104 -158ZM300 467V1331H3V1556H593V467Q593 335 634 280T773 225H1007V0H691Q482 0 391 108T300 467Z" />
<glyph unicode="&#x13d;" glyph-name="Lcaron" horiz-adv-x="1233" d="M412 1494H694L533 1118H336L412 1494ZM29 0V1493H324V260H955V0H29Z" />
<glyph unicode="&#x13e;" glyph-name="lcaron" horiz-adv-x="1233" d="M451 1557H733L572 1181H375L451 1557ZM300 467V1331H3V1556H593V467Q593 335 634 280T773 225H1007V0H691Q482 0 391 108T300 467Z" />
<glyph unicode="&#x13f;" glyph-name="Ldot" horiz-adv-x="1233" d="M415 1067H748V702H415V1067ZM29 0V1493H324V260H955V0H29Z" />
<glyph unicode="&#x140;" glyph-name="ldot" horiz-adv-x="1233" d="M468 1067H801V702H468V1067ZM300 467V1331H3V1556H593V467Q593 335 634 280T773 225H1007V0H691Q482 0 391 108T300 467Z" />
<glyph unicode="&#x141;" glyph-name="Lslash" horiz-adv-x="1195" d="M268 0V537L117 426L4 580L268 768V1493H563V973L838 1167L950 1014L563 741V260H1194V0H268Z" />
<glyph unicode="&#x142;" glyph-name="lslash" horiz-adv-x="1087" d="M375 467V633L102 438L2 600L375 864V1331H80V1556H667V1071L962 1280L1065 1120L667 840V467Q667 335 708 280T848 225H1081V0H766Q557 0 466 108T375 467Z" />
<glyph unicode="&#x143;" glyph-name="Nacute" horiz-adv-x="1233" d="M234 1900H518L232 1636H35L234 1900ZM28 1493H345L761 408V1493H1021V0H706L288 1085V0H28V1493Z" />
<glyph unicode="&#x144;" glyph-name="nacute" horiz-adv-x="1233" d="M539 1645H821L453 1269H256L539 1645ZM926 727V0H635V682Q635 804 601 856T488 909Q409 909 364 838T318 641V0H27V1120H318V952Q349 1045 424 1096T605 1147Q764 1147 845 1042T926 727Z" />
<glyph unicode="&#x145;" glyph-name="Ncommaaccent" horiz-adv-x="1233" d="M158 -158H440L263 -464H69L158 -158ZM28 1493H345L761 408V1493H1021V0H706L288 1085V0H28V1493Z" />
<glyph unicode="&#x146;" glyph-name="ncommaaccent" horiz-adv-x="1233" d="M164 -158H446L269 -464H75L164 -158ZM926 727V0H635V682Q635 804 601 856T488 909Q409 909 364 838T318 641V0H27V1120H318V952Q349 1045 424 1096T605 1147Q764 1147 845 1042T926 727Z" />
<glyph unicode="&#x147;" glyph-name="Ncaron" horiz-adv-x="1233" d="M28 1493H345L761 408V1493H1021V0H706L288 1085V0H28V1493ZM270 1635L49 1899H227L425 1737L624 1899H802L579 1635H270Z" />
<glyph unicode="&#x148;" glyph-name="ncaron" horiz-adv-x="1233" d="M926 727V0H635V682Q635 804 601 856T488 909Q409 909 364 838T318 641V0H27V1120H318V952Q349 1045 424 1096T605 1147Q764 1147 845 1042T926 727ZM298 1262L42 1638H220L418 1411L617 1638H795L539
1262H298Z" />
<glyph unicode="&#x149;" glyph-name="napostrophe" horiz-adv-x="1350" d="M1345 727V0H1054V682Q1054 804 1020 856T907 909Q828 909 783 838T737 641V0H446V1120H737V952Q768 1045 843 1096T1024 1147Q1183 1147 1264 1042T1345 727ZM103 1556H417V1286L220
903H5L103 1286V1556Z" />
<glyph unicode="&#x14a;" glyph-name="Eng" horiz-adv-x="1053" d="M1030 942V58Q1030 -208 938 -318Q846 -426 638 -426H517V-199H554Q654 -199 695 -144T736 44V1015Q736 1144 689 1199T536 1255Q427 1255 368 1180Q306 1102 306 972V0H11V1493H306V1253Q343
1381 432 1451T648 1522Q837 1522 933 1377T1030 942Z" />
<glyph unicode="&#x14b;" glyph-name="eng" horiz-adv-x="933" d="M910 727V43Q910 -209 819 -316Q729 -424 519 -424H398V-199H437Q537 -199 578 -144T619 43V682Q619 804 585 856Q550 909 472 909Q393 909 347 838Q302 767 302 641V0H11V1120H302V952Q333 1045
408 1096T589 1147Q748 1147 829 1042Q910 936 910 727Z" />
<glyph unicode="&#x14c;" glyph-name="Omacron" horiz-adv-x="1233" d="M27 1870H658V1682H27V1870ZM540 1255Q427 1255 375 1135T323 745Q323 477 375 357T540 236Q654 236 706 356T758 745Q758 1014 706 1134T540 1255ZM16 745Q16 1128 148 1324T540 1520Q800
1520 932 1324T1065 745Q1065 363 933 167T540 -29Q281 -29 149 167T16 745Z" />
<glyph unicode="&#x14d;" glyph-name="omacron" horiz-adv-x="1233" d="M27 1556H658V1368H27V1556ZM532 909Q427 909 367 817T307 559Q307 394 367 302T532 209Q638 209 698 301T758 559Q758 724 698 816T532 909ZM14 559Q14 830 154 988T532 1147Q770 1147 910
989T1051 559Q1051 288 911 130T532 -29Q295 -29 155 129T14 559Z" />
<glyph unicode="&#x14e;" glyph-name="Obreve" horiz-adv-x="1233" d="M540 1255Q427 1255 375 1135T323 745Q323 477 375 357T540 236Q654 236 706 356T758 745Q758 1014 706 1134T540 1255ZM16 745Q16 1128 148 1324T540 1520Q800 1520 932 1324T1065 745Q1065
363 933 167T540 -29Q281 -29 149 167T16 745ZM13 1899H154Q174 1839 223 1809T348 1778Q425 1778 473 1808T541 1899H684Q669 1770 583 1703T348 1635Q201 1635 115 1702T13 1899Z" />
<glyph unicode="&#x14f;" glyph-name="obreve" horiz-adv-x="1233" d="M532 909Q427 909 367 817T307 559Q307 394 367 302T532 209Q638 209 698 301T758 559Q758 724 698 816T532 909ZM14 559Q14 830 154 988T532 1147Q770 1147 910 989T1051 559Q1051 288 911
130T532 -29Q295 -29 155 129T14 559ZM14 1606H155Q166 1537 216 1500T349 1462Q432 1462 481 1499T542 1606H685Q679 1462 593 1386T349 1309Q193 1309 107 1385T14 1606Z" />
<glyph unicode="&#x150;" glyph-name="Ohungarumlaut" horiz-adv-x="1233" d="M540 1255Q427 1255 375 1135T323 745Q323 477 375 357T540 236Q654 236 706 356T758 745Q758 1014 706 1134T540 1255ZM16 745Q16 1128 148 1324T540 1520Q800 1520 932 1324T1065
745Q1065 363 933 167T540 -29Q281 -29 149 167T16 745ZM585 1899H869L583 1635H386L585 1899ZM210 1899H494L208 1635H11L210 1899Z" />
<glyph unicode="&#x151;" glyph-name="ohungarumlaut" horiz-adv-x="1233" d="M532 909Q427 909 367 817T307 559Q307 394 367 302T532 209Q638 209 698 301T758 559Q758 724 698 816T532 909ZM14 559Q14 830 154 988T532 1147Q770 1147 910 989T1051 559Q1051
288 911 130T532 -29Q295 -29 155 129T14 559ZM567 1638H798L526 1262H352L567 1638ZM205 1638H422L174 1262H10L205 1638Z" />
<glyph unicode="&#x152;" glyph-name="OE" horiz-adv-x="1195" d="M1168 260V0H584Q260 0 140 155T19 745Q19 1181 140 1337T584 1493H1157V1233H825V922H1127V662H825V260H1168ZM520 1233Q397 1233 351 1144T305 745Q305 434 350 347T520 260H572V1233H520Z" />
<glyph unicode="&#x153;" glyph-name="oe" horiz-adv-x="1239" d="M1217 479H767Q767 335 816 260T961 184Q1021 184 1081 213T1201 301V57Q1152 13 1090 -8T943 -29Q845 -29 774 8T656 119Q613 42 547 7T380 -29Q190 -29 106 109T21 559Q21 874 105 1010T380
1147Q479 1147 541 1118T644 1022Q672 1082 737 1114T894 1147Q1071 1147 1144 1028T1217 606V479ZM992 690V725Q992 841 967 887T879 934Q817 934 792 887T767 713V690H992ZM527 559Q527 801 498 867T392 934Q314 934 285 868T255 559Q255 317 284 251T392 184Q469
184 498 251T527 559Z" />
<glyph unicode="&#x154;" glyph-name="Racute" horiz-adv-x="1233" d="M204 1900H488L202 1636H5L204 1900ZM702 705Q746 696 778 664T858 537L1128 0H804L624 377Q616 393 603 421Q524 590 417 590H323V0H28V1493H454Q742 1493 867 1391T993 1059Q993 905 918
814T702 705ZM323 1245V838H462Q583 838 635 885T688 1042Q688 1151 636 1198T462 1245H323Z" />
<glyph unicode="&#x155;" glyph-name="racute" horiz-adv-x="1233" d="M438 1645H720L352 1269H155L438 1645ZM887 811Q839 855 775 877T633 899Q540 899 471 867T363 772Q339 734 330 680T320 516V0H27V1120H320V946Q363 1042 452 1094T660 1147Q720 1147 777
1133T887 1090V811Z" />
<glyph unicode="&#x156;" glyph-name="Rcommaaccent" horiz-adv-x="1233" d="M226 -158H508L331 -464H137L226 -158ZM702 705Q746 696 778 664T858 537L1128 0H804L624 377Q616 393 603 421Q524 590 417 590H323V0H28V1493H454Q742 1493 867 1391T993 1059Q993
905 918 814T702 705ZM323 1245V838H462Q583 838 635 885T688 1042Q688 1151 636 1198T462 1245H323Z" />
<glyph unicode="&#x157;" glyph-name="rcommaaccent" horiz-adv-x="1233" d="M237 -158H519L342 -464H148L237 -158ZM887 811Q839 855 775 877T633 899Q540 899 471 867T363 772Q339 734 330 680T320 516V0H27V1120H320V946Q363 1042 452 1094T660 1147Q720 1147
777 1133T887 1090V811Z" />
<glyph unicode="&#x158;" glyph-name="Rcaron" horiz-adv-x="1233" d="M702 705Q746 696 778 664T858 537L1128 0H804L624 377Q616 393 603 421Q524 590 417 590H323V0H28V1493H454Q742 1493 867 1391T993 1059Q993 905 918 814T702 705ZM323 1245V838H462Q583
838 635 885T688 1042Q688 1151 636 1198T462 1245H323ZM199 1635L-22 1899H156L354 1737L553 1899H731L508 1635H199Z" />
<glyph unicode="&#x159;" glyph-name="rcaron" horiz-adv-x="1233" d="M887 811Q839 855 775 877T633 899Q540 899 471 867T363 772Q339 734 330 680T320 516V0H27V1120H320V946Q363 1042 452 1094T660 1147Q720 1147 777 1133T887 1090V811ZM364 1262L108 1638H286L484
1411L683 1638H861L605 1262H364Z" />
<glyph unicode="&#x15a;" glyph-name="Sacute" horiz-adv-x="1233" d="M234 1900H518L232 1636H35L234 1900ZM399 655Q176 740 97 833T18 1085Q18 1288 148 1404T505 1520Q608 1520 711 1497T915 1427V1139Q820 1206 722 1241T528 1276Q421 1276 364 1233T307
1110Q307 1048 348 1008T522 918L649 870Q829 804 914 695T999 420Q999 194 866 83T462 -29Q351 -29 240 -3T24 76V381Q142 297 252 256T471 215Q580 215 640 264T700 403Q700 470 660 520T544 600L399 655Z" />
<glyph unicode="&#x15b;" glyph-name="sacute" horiz-adv-x="1233" d="M539 1645H821L453 1269H256L539 1645ZM837 1085V829Q756 881 669 907T493 934Q395 934 345 906T295 821Q295 741 509 691L520 688L604 668Q764 630 838 546T913 317Q913 144 800 58T458 -29Q357
-29 251 -12T36 41V297Q133 242 233 213T428 184Q531 184 584 214T637 301Q637 357 600 387T421 451L340 469Q172 507 95 588T18 805Q18 967 135 1057T464 1147Q559 1147 653 1132T837 1085Z" />
<glyph unicode="&#x15c;" glyph-name="Scircumflex" horiz-adv-x="1233" d="M229 1899H538L761 1635H583L384 1796L186 1635H8L229 1899ZM399 655Q176 740 97 833T18 1085Q18 1288 148 1404T505 1520Q608 1520 711 1497T915 1427V1139Q820 1206 722 1241T528 1276Q421
1276 364 1233T307 1110Q307 1048 348 1008T522 918L649 870Q829 804 914 695T999 420Q999 194 866 83T462 -29Q351 -29 240 -3T24 76V381Q142 297 252 256T471 215Q580 215 640 264T700 403Q700 470 660 520T544 600L399 655Z" />
<glyph unicode="&#x15d;" glyph-name="scircumflex" horiz-adv-x="1233" d="M262 1638H503L759 1262H581L382 1487L184 1262H6L262 1638ZM837 1085V829Q756 881 669 907T493 934Q395 934 345 906T295 821Q295 741 509 691L520 688L604 668Q764 630 838 546T913
317Q913 144 800 58T458 -29Q357 -29 251 -12T36 41V297Q133 242 233 213T428 184Q531 184 584 214T637 301Q637 357 600 387T421 451L340 469Q172 507 95 588T18 805Q18 967 135 1057T464 1147Q559 1147 653 1132T837 1085Z" />
<glyph unicode="&#x15e;" glyph-name="Scedilla" horiz-adv-x="1233" d="M343 0Q400 -62 427 -115T455 -215Q455 -310 394 -355T205 -401Q157 -401 107 -395T3 -375V-219Q48 -236 90 -245T168 -254Q226 -254 258 -231T291 -168Q291 -142 270 -101T203 0H343ZM399
655Q176 740 97 833T18 1085Q18 1288 148 1404T505 1520Q608 1520 711 1497T915 1427V1139Q820 1206 722 1241T528 1276Q421 1276 364 1233T307 1110Q307 1048 348 1008T522 918L649 870Q829 804 914 695T999 420Q999 194 866 83T462 -29Q351 -29 240 -3T24 76V381Q142
297 252 256T471 215Q580 215 640 264T700 403Q700 470 660 520T544 600L399 655Z" />
<glyph unicode="&#x15f;" glyph-name="scedilla" horiz-adv-x="1233" d="M343 0Q400 -62 427 -115T455 -215Q455 -310 394 -355T205 -401Q157 -401 107 -395T3 -375V-219Q48 -236 90 -245T168 -254Q226 -254 258 -231T291 -168Q291 -142 270 -101T203 0H343ZM837
1085V829Q756 881 669 907T493 934Q395 934 345 906T295 821Q295 741 509 691L520 688L604 668Q764 630 838 546T913 317Q913 144 800 58T458 -29Q357 -29 251 -12T36 41V297Q133 242 233 213T428 184Q531 184 584 214T637 301Q637 357 600 387T421 451L340 469Q172
507 95 588T18 805Q18 967 135 1057T464 1147Q559 1147 653 1132T837 1085Z" />
<glyph unicode="&#x160;" glyph-name="Scaron" horiz-adv-x="1233" d="M399 655Q176 740 97 833T18 1085Q18 1288 148 1404T505 1520Q608 1520 711 1497T915 1427V1139Q820 1206 722 1241T528 1276Q421 1276 364 1233T307 1110Q307 1048 348 1008T522 918L649
870Q829 804 914 695T999 420Q999 194 866 83T462 -29Q351 -29 240 -3T24 76V381Q142 297 252 256T471 215Q580 215 640 264T700 403Q700 470 660 520T544 600L399 655ZM229 1635L8 1899H186L384 1737L583 1899H761L538 1635H229Z" />
<glyph unicode="&#x161;" glyph-name="scaron" horiz-adv-x="1233" d="M837 1085V829Q756 881 669 907T493 934Q395 934 345 906T295 821Q295 741 509 691L520 688L604 668Q764 630 838 546T913 317Q913 144 800 58T458 -29Q357 -29 251 -12T36 41V297Q133 242
233 213T428 184Q531 184 584 214T637 301Q637 357 600 387T421 451L340 469Q172 507 95 588T18 805Q18 967 135 1057T464 1147Q559 1147 653 1132T837 1085ZM262 1262L6 1638H184L382 1411L581 1638H759L503 1262H262Z" />
<glyph unicode="&#x162;" glyph-name="Tcommaaccent" horiz-adv-x="1233" d="M343 0Q400 -62 427 -115T455 -215Q455 -310 394 -355T205 -401Q157 -401 107 -395T3 -375V-219Q48 -236 90 -245T168 -254Q226 -254 258 -231T291 -168Q291 -142 270 -101T203 0H343ZM679
0H384V1235H5V1493H1058V1235H679V0Z" />
<glyph unicode="&#x163;" glyph-name="tcommaaccent" horiz-adv-x="1233" d="M524 0Q581 -62 608 -115T636 -215Q636 -310 575 -355T386 -401Q338 -401 288 -395T184 -375V-219Q229 -236 271 -245T349 -254Q407 -254 439 -231T472 -168Q472 -142 451 -101T384
0H524ZM579 1438V1120H962V895H579V365Q579 290 615 258T737 225H962V0H716Q464 0 375 80T286 379V895H0V1120H286V1438H579Z" />
<glyph unicode="&#x164;" glyph-name="Tcaron" horiz-adv-x="1233" d="M679 0H384V1235H5V1493H1058V1235H679V0ZM223 1647L2 1911H180L378 1749L577 1911H755L532 1647H223Z" />
<glyph unicode="&#x165;" glyph-name="tcaron" horiz-adv-x="1233" d="M579 1438V1120H962V895H579V365Q579 290 615 258T737 225H962V0H716Q464 0 375 80T286 379V895H0V1120H286V1438H579ZM452 1687H734L573 1311H376L452 1687Z" />
<glyph unicode="&#x166;" glyph-name="Tbar" horiz-adv-x="1065" d="M680 0H385V538H138V730H385V1235H6V1493H1059V1235H680V730H927V538H680V0Z" />
<glyph unicode="&#x167;" glyph-name="tbar" horiz-adv-x="970" d="M580 1438V1120H963V895H580V753H764V561H580V365Q580 290 616 258Q653 225 738 225H963V0H717Q465 0 376 80Q287 161 287 379V561H109V753H287V895H1V1120H287V1438H580Z" />
<glyph unicode="&#x168;" glyph-name="Utilde" horiz-adv-x="1233" d="M370 1684L316 1718Q311 1721 304 1725Q259 1751 231 1751Q200 1751 180 1721T160 1641V1635H20V1665Q20 1771 74 1836T217 1901Q253 1901 290 1889T366 1852L426 1813Q447 1799 466 1792T502
1784Q538 1784 557 1814T577 1901H717Q717 1896 716 1886T715 1870Q715 1764 662 1700T520 1635Q483 1635 448 1646T370 1684ZM23 551V1493H318V477Q318 365 375 302T533 238Q634 238 691 301T748 477V1493H1043V551Q1043 247 922 109T533 -29Q266 -29 145 109T23
551Z" />
<glyph unicode="&#x169;" glyph-name="utilde" horiz-adv-x="1233" d="M370 1364L315 1401Q312 1403 303 1409Q260 1438 233 1438Q197 1438 179 1407T160 1317V1309H20Q20 1445 71 1519T217 1593Q253 1593 289 1580T366 1536L428 1493Q449 1478 467 1470T502 1462Q538
1462 557 1493T577 1583V1591H717Q717 1455 666 1381T520 1307Q484 1307 451 1319T370 1364ZM24 391V1120H317V436Q317 315 351 263T464 211Q543 211 587 281T632 477V1120H925V0H632V166Q601 73 527 22T347 -29Q187 -29 106 77T24 391Z" />
<glyph unicode="&#x16a;" glyph-name="Umacron" horiz-adv-x="1233" d="M27 1870H658V1682H27V1870ZM23 551V1493H318V477Q318 365 375 302T533 238Q634 238 691 301T748 477V1493H1043V551Q1043 247 922 109T533 -29Q266 -29 145 109T23 551Z" />
<glyph unicode="&#x16b;" glyph-name="umacron" horiz-adv-x="1233" d="M27 1556H658V1368H27V1556ZM24 391V1120H317V436Q317 315 351 263T464 211Q543 211 587 281T632 477V1120H925V0H632V166Q601 73 527 22T347 -29Q187 -29 106 77T24 391Z" />
<glyph unicode="&#x16c;" glyph-name="Ubreve" horiz-adv-x="1233" d="M23 551V1493H318V477Q318 365 375 302T533 238Q634 238 691 301T748 477V1493H1043V551Q1043 247 922 109T533 -29Q266 -29 145 109T23 551ZM13 1899H154Q174 1839 223 1809T348 1778Q425
1778 473 1808T541 1899H684Q669 1770 583 1703T348 1635Q201 1635 115 1702T13 1899Z" />
<glyph unicode="&#x16d;" glyph-name="ubreve" horiz-adv-x="1233" d="M24 391V1120H317V436Q317 315 351 263T464 211Q543 211 587 281T632 477V1120H925V0H632V166Q601 73 527 22T347 -29Q187 -29 106 77T24 391ZM14 1606H155Q166 1537 216 1500T349 1462Q432
1462 481 1499T542 1606H685Q679 1462 593 1386T349 1309Q193 1309 107 1385T14 1606Z" />
<glyph unicode="&#x16e;" glyph-name="Uring" horiz-adv-x="1233" d="M23 551V1493H318V477Q318 365 375 302T533 238Q634 238 691 301T748 477V1493H1043V551Q1043 247 922 109T533 -29Q266 -29 145 109T23 551ZM18 1869Q18 1987 101 2070T302 2154Q421 2154
504 2071T587 1869Q587 1751 504 1668T302 1584Q184 1584 101 1667T18 1869ZM171 1869Q171 1814 209 1776T302 1738Q357 1738 395 1776T434 1869Q434 1923 395 1961T302 2000Q248 2000 210 1962T171 1869Z" />
<glyph unicode="&#x16f;" glyph-name="uring" horiz-adv-x="1233" d="M24 391V1120H317V436Q317 315 351 263T464 211Q543 211 587 281T632 477V1120H925V0H632V166Q601 73 527 22T347 -29Q187 -29 106 77T24 391ZM13 1534Q13 1652 96 1735T297 1819Q416 1819
499 1736T582 1534Q582 1416 499 1333T297 1249Q179 1249 96 1332T13 1534ZM166 1534Q166 1479 204 1441T297 1403Q352 1403 390 1441T429 1534Q429 1588 390 1626T297 1665Q243 1665 205 1627T166 1534Z" />
<glyph unicode="&#x170;" glyph-name="Uhungarumlaut" horiz-adv-x="1233" d="M23 551V1493H318V477Q318 365 375 302T533 238Q634 238 691 301T748 477V1493H1043V551Q1043 247 922 109T533 -29Q266 -29 145 109T23 551ZM585 1899H869L583 1635H386L585 1899ZM210
1899H494L208 1635H11L210 1899Z" />
<glyph unicode="&#x171;" glyph-name="uhungarumlaut" horiz-adv-x="1233" d="M24 391V1120H317V436Q317 315 351 263T464 211Q543 211 587 281T632 477V1120H925V0H632V166Q601 73 527 22T347 -29Q187 -29 106 77T24 391ZM567 1638H798L526 1262H352L567 1638ZM205
1638H422L174 1262H10L205 1638Z" />
<glyph unicode="&#x172;" glyph-name="Uogonek" horiz-adv-x="1233" d="M23 551V1493H318V477Q318 365 375 302T533 238Q634 238 691 301T748 477V1493H1043V551Q1043 247 922 109T533 -29Q266 -29 145 109T23 551ZM370 241H511Q458 170 440 135T421 75Q421 36
451 12T532 -13Q570 -13 608 -6T687 18V-138Q633 -149 586 -154T497 -160Q383 -160 321 -114T259 18Q259 71 286 125T370 241Z" />
<glyph unicode="&#x173;" glyph-name="uogonek" horiz-adv-x="1233" d="M24 391V1120H317V436Q317 315 351 263T464 211Q543 211 587 281T632 477V1120H925V0H632V166Q601 73 527 22T347 -29Q187 -29 106 77T24 391ZM479 0H620Q567 -71 549 -106T530 -166Q530
-205 560 -229T641 -254Q679 -254 717 -247T796 -223V-379Q742 -390 695 -395T606 -401Q492 -401 430 -355T368 -223Q368 -170 395 -116T479 0Z" />
<glyph unicode="&#x174;" glyph-name="Wcircumflex" horiz-adv-x="1233" d="M229 1906H538L761 1642H583L384 1803L186 1642H8L229 1906ZM16 1493H274L381 397L510 1106H755L905 397L989 1493H1249L1077 0H802L632 784L473 0H200L16 1493Z" />
<glyph unicode="&#x175;" glyph-name="wcircumflex" horiz-adv-x="1233" d="M262 1645H503L759 1269H581L382 1494L184 1269H6L262 1645ZM15 1120H259L392 262L513 827H750L869 262L1004 1120H1248L1045 0H767L631 582L496 0H218L15 1120Z" />
<glyph unicode="&#x176;" glyph-name="Ycircumflex" horiz-adv-x="1233" d="M229 1906H538L761 1642H583L384 1803L186 1642H8L229 1906ZM2 1493H320L610 893L901 1493H1219L758 588V0H463V588L2 1493Z" />
<glyph unicode="&#x177;" glyph-name="ycircumflex" horiz-adv-x="1233" d="M263 1645H504L760 1269H582L383 1494L185 1269H7L263 1645ZM669 -121Q610 -279 528 -351T327 -424H85V-201H204Q294 -201 336 -171T421 -29L443 31L17 1120H325L581 393L826 1120H1134L669
-121Z" />
<glyph unicode="&#x178;" glyph-name="Ydieresis" horiz-adv-x="1233" d="M2 1493H320L610 893L901 1493H1219L758 588V0H463V588L2 1493ZM422 1899H658V1653H422V1899ZM27 1899H263V1653H27V1899Z" />
<glyph unicode="&#x179;" glyph-name="Zacute" horiz-adv-x="1233" d="M234 1900H518L232 1636H35L234 1900ZM47 1493H1057V1249L365 260H1071V0H25V244L696 1233H47V1493Z" />
<glyph unicode="&#x17a;" glyph-name="zacute" horiz-adv-x="1233" d="M539 1645H821L453 1269H256L539 1645ZM49 1120H944V891L355 219H944V0H25V229L615 901H49V1120Z" />
<glyph unicode="&#x17b;" glyph-name="Zdotaccent" horiz-adv-x="1233" d="M47 1493H1057V1249L365 260H1071V0H25V244L696 1233H47V1493ZM77 1899H352V1653H77V1899Z" />
<glyph unicode="&#x17c;" glyph-name="zdotaccent" horiz-adv-x="1233" d="M49 1120H944V891L355 219H944V0H25V229L615 901H49V1120ZM27 1585H302V1339H27V1585Z" />
<glyph unicode="&#x17d;" glyph-name="Zcaron" horiz-adv-x="1233" d="M47 1493H1057V1249L365 260H1071V0H25V244L696 1233H47V1493ZM229 1635L8 1899H186L384 1737L583 1899H761L538 1635H229Z" />
<glyph unicode="&#x17e;" glyph-name="zcaron" horiz-adv-x="1233" d="M49 1120H944V891L355 219H944V0H25V229L615 901H49V1120ZM262 1262L6 1638H184L382 1411L581 1638H759L503 1262H262Z" />
<glyph unicode="&#x17f;" glyph-name="longs" horiz-adv-x="912" d="M565 0H272V895H0V1120H272V1198Q272 1400 356 1478T668 1556H909V1331H680Q614 1331 591 1307T565 1218V0Z" />
<glyph unicode="&#x180;" glyph-name="uni0180" horiz-adv-x="1150" d="M442 961Q496 1054 567 1100T729 1147Q928 1147 1035 995T1143 559Q1143 279 1037 125T739 -29Q638 -29 563 20T442 166V0H150V1270H12V1434H150V1556H442V1434H740V1270H442V961ZM796 303Q850
395 850 557T796 811T647 903T497 811T442 557T497 303T647 211T796 303Z" />
<glyph unicode="&#x181;" glyph-name="uni0181" horiz-adv-x="1248" d="M633 678V236H678Q819 236 875 284T932 451Q932 572 873 625T678 678H633ZM633 1260V913H678Q790 913 837 953T885 1085T837 1218T678 1260H633ZM403 1495H678Q927 1495 1052 1401T1178 1118Q1178
974 1104 893T887 799Q1058 782 1144 684T1231 410Q1231 194 1101 97T678 0H348V1216Q282 1216 258 1193T233 1103V1078H7V1137Q7 1339 91 1417T403 1495Z" />
<glyph unicode="&#x182;" glyph-name="uni0182" horiz-adv-x="1233" d="M322 248H443Q588 248 646 297T705 467Q705 588 647 637T443 686H322V248ZM27 1493H957V1233H322V934H432Q741 934 876 824T1012 467Q1012 220 877 110T432 0H27V1493Z" />
<glyph unicode="&#x183;" glyph-name="uni0183" horiz-adv-x="1031" d="M616 -29Q411 -29 319 166V0H27V1556H826V1347H319V961Q427 1147 606 1147Q808 1147 916 991Q1020 841 1020 559Q1020 279 914 125T616 -29ZM673 303Q727 395 727 557T673 811T524 903T374
811T319 557T374 303T524 211T673 303Z" />
<glyph unicode="&#x184;" glyph-name="uni0184" horiz-adv-x="1155" d="M464 248H585Q730 248 788 297T847 467T789 637T585 686H464V248ZM169 0V934L7 1068L464 1493V934H574Q883 934 1018 824T1154 467T1019 110T574 0H169Z" />
<glyph unicode="&#x185;" glyph-name="uni0185" horiz-adv-x="1155" d="M804 303Q858 395 858 557T804 811T655 903T505 811T450 557T505 303T655 211T804 303ZM450 961Q504 1054 575 1100T737 1147Q936 1147 1043 995T1151 559Q1151 279 1045 125T747 -29Q646
-29 571 20T450 166V0H158V934L8 1068L450 1556V961Z" />
<glyph unicode="&#x186;" glyph-name="uni0186" horiz-adv-x="965" d="M24 1448Q92 1484 170 1502T333 1520Q635 1520 794 1321T953 745Q953 369 794 170T333 -29Q248 -29 171 -11T24 43V371Q100 301 171 269T319 236Q481 236 563 364T646 745Q646 998 564 1126T319
1255Q243 1255 172 1223T24 1120V1448Z" />
<glyph unicode="&#x187;" glyph-name="uni0187" horiz-adv-x="1148" d="M644 236Q792 236 939 371V43Q799 -29 630 -29Q328 -29 169 170T10 745Q10 1292 335 1456Q462 1520 630 1520Q678 1520 723 1514Q811 1643 1039 1643H1136V1418H1121Q1029 1418 980 1363Q939
1317 939 1176V1120Q793 1255 644 1255Q482 1255 400 1127T317 745Q317 267 606 238Q625 236 644 236Z" />
<glyph unicode="&#x188;" glyph-name="uni0188" horiz-adv-x="1128" d="M597 211Q765 211 896 326V57Q748 -29 554 -29Q295 -29 149 127T3 559Q3 836 150 992T556 1149Q583 1149 609 1147Q625 1362 697 1448Q787 1556 997 1556H1118V1331H1079Q984 1331 938 1276Q903
1233 897 1089L896 1063V795Q763 909 597 909Q426 909 351 782Q300 697 300 559Q300 291 486 228Q537 211 597 211Z" />
<glyph unicode="&#x189;" glyph-name="uni0189" horiz-adv-x="1233" d="M444 1227V901H655V664H444V266H524Q698 266 772 375T846 748Q846 1009 772 1118T524 1227H444ZM149 1493H465Q831 1493 992 1319T1153 748Q1153 351 992 176T465 0H149V664H12V901H149V1493Z" />
<glyph unicode="&#x18a;" glyph-name="uni018A" horiz-adv-x="1258" d="M318 1206Q289 1206 278 1168Q263 1116 263 1088Q263 1088 263 1064H8V1141Q8 1291 56 1361Q131 1470 267 1489Q292 1493 318 1493H554Q920 1493 1081 1319T1242 748Q1242 351 1081 176T554
0H318V1206ZM613 1227V266Q787 266 861 375T935 748Q935 1009 861 1118T613 1227Z" />
<glyph unicode="&#x18b;" glyph-name="uni018B" horiz-adv-x="1076" d="M764 678H568Q432 678 373 625T314 451Q314 332 370 284T568 236H764V678ZM97 1494L1049 1493V0H568Q275 0 145 97T15 410Q15 420 15 429Q18 603 90 684Q96 691 113 713L156 763Q296 910
568 913H764V1260H97V1494Z" />
<glyph unicode="&#x18c;" glyph-name="uni018C" horiz-adv-x="1031" d="M415 -29Q223 -29 117 125T11 559Q11 841 115 991Q223 1147 425 1147Q604 1147 712 961V1347H205V1556H1004V0H712V166Q620 -29 415 -29ZM358 811Q304 719 304 557T358 303T507 211T657 303T712
557T657 811T507 903T358 811Z" />
<glyph unicode="&#x18d;" glyph-name="uni018D" horiz-adv-x="1064" d="M821 53Q966 -10 966 -161Q966 -296 840 -374Q715 -451 491 -451Q392 -451 308 -439Q303 -438 298 -437Q267 -433 146 -403V-188Q158 -192 171 -196Q267 -227 305 -234Q395 -249 476 -249Q580
-249 638 -215L660 -200Q695 -175 695 -131Q695 -29 532 -29Q294 -29 154 129T13 559T153 988T532 1147Q769 1147 909 989T1050 559Q1050 296 910 130Q847 55 821 53ZM532 209Q637 209 697 301T757 559T697 816T532 909Q426 909 366 817T306 559T366 302T532 209Z"
/>
<glyph unicode="&#x18e;" glyph-name="uni018E" horiz-adv-x="984" d="M957 1493V0H27V260H662V651H87V911H662V1233H27V1493H957Z" />
<glyph unicode="&#x18f;" glyph-name="uni018F" horiz-adv-x="1074" d="M9 745V840H749V845Q749 1035 694 1145T519 1255Q443 1255 372 1223T224 1120V1448Q294 1484 371 1502T533 1520Q793 1520 925 1324T1058 745Q1058 363 926 167T533 -29Q274 -29 142 167T9
745ZM322 580Q333 405 385 321T535 236Q635 236 682 324T745 580H322Z" />
<glyph unicode="&#x190;" glyph-name="uni0190" horiz-adv-x="1008" d="M342 805Q201 831 125 915T49 1133Q49 1314 181 1417T549 1520Q641 1520 741 1504T944 1456V1188Q841 1228 745 1249T565 1270Q455 1270 395 1224T334 1094Q334 1015 394 972T565 928H723V668H565Q437
668 367 606T297 428Q297 334 367 279T557 223Q677 223 786 247T989 319V45Q889 9 780 -10T557 -29Q292 -29 153 85T14 416Q14 578 98 677T342 805Z" />
<glyph unicode="&#x191;" glyph-name="uni0191" horiz-adv-x="1029" d="M1029 1233H489V911H972V651H489V168V43V0Q481 -216 398 -316Q308 -424 98 -424H12V-199Q116 -199 157 -144Q194 -94 194 43V168V1493H1029V1233Z" />
<glyph unicode="&#x192;" glyph-name="florin" horiz-adv-x="1054" d="M708 1218V1120H1052V895H708V0Q702 -217 618 -316Q526 -424 317 -424H1V-199H235Q334 -199 374 -144Q415 -88 415 43V895H143V1120H415V1198Q415 1400 499 1478T811 1556H1052V1331H823Q712
1332 708 1218Z" />
<glyph unicode="&#x193;" glyph-name="uni0193" horiz-adv-x="1180" d="M630 236Q723 236 765 270V555H563V803H1023V119Q851 -29 616 -29Q326 -29 168 172T10 745Q10 1287 330 1453Q459 1520 630 1520Q690 1520 750 1508Q760 1523 770 1535Q860 1643 1070 1643H1167V1418H1152Q1060
1418 1011 1363Q970 1317 970 1176V1094L967 1098Q842 1255 651 1255Q336 1255 318 801Q317 774 317 745Q317 333 529 254Q575 236 630 236Z" />
<glyph unicode="&#x194;" glyph-name="uni0194" horiz-adv-x="1184" d="M407 762L9 1493H330L592 1012L853 1493H1176L778 762Q986 380 988 -14Q990 -285 586 -290T180 -14Q178 335 407 762ZM592 510Q448 243 450 126Q451 0 587 0Q726 0 726 130Q726 279 592 510Z" />
<glyph unicode="&#x195;" glyph-name="uni0195" horiz-adv-x="1240" d="M1236 569Q1240 316 1136 158Q1038 4 878 0L789 -2Q653 -5 585 116Q514 241 513 460L512 727Q508 813 485 855Q458 907 395 907Q331 907 295 836Q259 766 259 641V0H27V1556H259V952Q284
1045 344 1096T489 1147Q616 1147 681 1042Q746 936 746 727L747 460Q749 289 754 279Q782 227 811 231L824 233Q912 246 955 330Q1004 424 1004 560V936H1236V569Z" />
<glyph unicode="&#x196;" glyph-name="uni0196" horiz-adv-x="979" d="M300 462Q300 462 299 1233H2V1493H891V1233H594V495Q594 353 632 307Q670 262 772 261L958 260V0H724Q518 0 410 118Q300 238 300 462Z" />
<glyph unicode="&#x197;" glyph-name="uni0197" horiz-adv-x="932" d="M27 1233V1493H916V1233H619V730H866V538H619V260H916V0H27V260H324V538H77V730H324V1233H27Z" />
<glyph unicode="&#x198;" glyph-name="uni0198" horiz-adv-x="1231" d="M771 1060L647 905L1135 0H807L453 672L322 506V0H27V1493H322V903L578 1230Q751 1451 885 1479Q1015 1505 1156 1392L1220 1341L1080 1165Q1003 1226 935 1210Q881 1197 771 1060Z" />
<glyph unicode="&#x199;" glyph-name="uni0199" horiz-adv-x="1050" d="M25 1089Q25 1339 116 1448Q206 1556 416 1556H537V1331H498Q400 1331 357 1276Q316 1223 316 1089H318V739L670 1120H1025L601 702L1049 0H725L418 524L318 428V0H25V964V1089Z" />
<glyph unicode="&#x19a;" glyph-name="uni019A" horiz-adv-x="1010" d="M604 753H788V561H604H594V467Q594 335 635 280T774 225H1008V0H692Q483 0 392 108T301 467V561H133V753H301V1331H4V1556H594V753H604Z" />
<glyph unicode="&#x19b;" glyph-name="uni019B" horiz-adv-x="1090" d="M702 1518L805 1358L575 1195L1087 0H790L535 596L311 0H14L377 965L347 1034L137 885L37 1047L271 1213L124 1556H421L499 1374L702 1518Z" />
<glyph unicode="&#x19c;" glyph-name="uni019C" horiz-adv-x="1126" d="M491 112Q458 41 407 7T282 -27Q137 -27 82 73T26 489V1493H266V401Q266 276 285 234T354 192T424 235T444 401V1493H681V401Q681 278 701 235T771 192T840 234T859 401V1493H1099V0H886V116Q861
50 806 12T683 -27T559 13T491 112Z" />
<glyph unicode="&#x19d;" glyph-name="uni019D" horiz-adv-x="1194" d="M453 0Q444 -284 296 -374Q212 -426 62 -426H14V-201H74Q133 -201 176 -126Q194 -97 194 41V1493H510L926 408V1493H1186V0H872L454 1085V0H453Z" />
<glyph unicode="&#x19e;" glyph-name="uni019E" horiz-adv-x="930" d="M905 727V-426H614V682Q614 804 580 856T467 909Q388 909 343 838T297 641V0H6V1120H297V952Q328 1045 403 1096T584 1147Q743 1147 824 1042T905 727Z" />
<glyph unicode="&#x19f;" glyph-name="uni019F" horiz-adv-x="1081" d="M540 -29Q171 -29 61 362Q16 522 16 745Q16 1373 365 1493Q444 1520 540 1520Q800 1520 932 1324T1065 745Q1065 105 701 -7Q628 -29 540 -29ZM752 911Q734 1108 676 1187Q625 1255 540 1255Q392
1255 347 1041Q337 991 329 911H752ZM756 651H325Q334 451 375 356Q427 236 540 236Q654 236 706 356Q746 449 756 651Z" />
<glyph unicode="&#x1a0;" glyph-name="Ohorn" horiz-adv-x="1233" d="M413 1238V1379Q480 1329 516 1310T579 1291Q618 1291 642 1320T667 1399Q667 1438 660 1476T636 1555H792Q803 1500 808 1453T814 1365Q814 1250 768 1189T636 1127Q583 1127 529 1154T413
1238ZM709 1255Q596 1255 544 1135T492 745Q492 477 544 357T709 236Q823 236 875 356T927 745Q927 1014 875 1134T709 1255ZM185 745Q185 1128 317 1324T709 1520Q969 1520 1101 1324T1234 745Q1234 363 1102 167T709 -29Q450 -29 318 167T185 745Z" />
<glyph unicode="&#x1a1;" glyph-name="ohorn" horiz-adv-x="1233" d="M408 850V991Q475 941 511 922T574 903Q613 903 637 932T662 1011Q662 1050 655 1088T631 1167H787Q798 1112 803 1065T809 977Q809 862 763 801T631 739Q578 739 524 766T408 850ZM700 909Q595
909 535 817T475 559Q475 394 535 302T700 209Q806 209 866 301T926 559Q926 724 866 816T700 909ZM182 559Q182 830 322 988T700 1147Q938 1147 1078 989T1219 559Q1219 288 1079 130T700 -29Q463 -29 323 129T182 559Z" />
<glyph unicode="&#x1a2;" glyph-name="uni01A2" horiz-adv-x="1218" d="M489 -29Q158 -29 58 362Q18 522 18 745Q18 1384 343 1497Q410 1520 489 1520Q698 1520 815 1365L908 1493H1191V0H957V1136L843 976V167Q723 -29 489 -29ZM294 745Q294 394 379 289Q422
236 489 236Q592 236 639 356V1134Q592 1255 489 1255Q348 1255 310 1011Q294 907 294 745Z" />
<glyph unicode="&#x1a3;" glyph-name="uni01A3" horiz-adv-x="1243" d="M519 1147Q674 1147 802 1023L933 1124H1216V-426H982V804L835 690V130Q695 -29 519 -29Q282 -29 142 129T1 559T141 988T519 1147ZM519 909Q414 909 354 817T294 559T354 302T519 209Q563
209 623 302V816Q563 909 519 909Z" />
<glyph unicode="&#x1a4;" glyph-name="uni01A4" horiz-adv-x="1204" d="M613 1245V807H632Q777 807 835 856T894 1026T836 1196T632 1245H613ZM318 1206Q289 1206 278 1168Q263 1116 263 1088V1064H8V1141Q8 1291 56 1361Q131 1470 267 1489Q292 1493 318 1493H621Q930
1493 1065 1383T1201 1026T1066 669T621 559H613V0H318V1206Z" />
<glyph unicode="&#x1a5;" glyph-name="uni01A5" horiz-adv-x="1018" d="M671 307Q725 399 725 561T671 815T522 907T372 815T317 561T372 307T522 215T671 307ZM604 -29Q424 -29 317 158V-426H25L26 1063H25L26 1089Q36 1351 117 1448Q207 1556 417 1556H538V1331H499Q404
1331 358 1276Q323 1233 317 1089H318L317 952Q409 1147 614 1147Q806 1147 912 993T1018 559Q1018 134 787 13Q706 -29 604 -29Z" />
<glyph unicode="&#x1a6;" glyph-name="uni01A6" horiz-adv-x="1117" d="M690 467Q734 458 767 426Q798 394 846 299L1116 -238H792L612 139Q591 182 591 183Q512 352 405 352H311V0H16V1493H311V1255H442Q730 1255 855 1153T981 821Q981 667 906 576T690 467ZM311
1007V600H450Q571 600 623 647T676 804T624 960T450 1007H311Z" />
<glyph unicode="&#x1a7;" glyph-name="uni01A7" horiz-adv-x="1013" d="M614 655Q614 655 469 600Q393 571 353 521T313 403Q313 314 373 265T542 215Q650 215 760 256T989 381V76Q885 24 774 -2T551 -29Q281 -29 148 82T14 420Q14 586 99 695T364 870L491 918Q623
967 664 1007T706 1110Q706 1190 649 1233T485 1276Q389 1276 291 1241T98 1139V1427Q199 1473 302 1496T508 1520Q735 1520 865 1404T995 1085Q995 927 916 834T614 655Z" />
<glyph unicode="&#x1a8;" glyph-name="uni01A8" horiz-adv-x="928" d="M91 1085Q180 1116 274 1131T464 1147Q676 1147 793 1057T910 805Q910 669 833 588T588 469L507 451Q366 417 329 387T291 301Q291 244 344 214T500 184Q594 184 694 213T892 297V41Q783 6
677 -11T470 -29Q242 -29 129 57T15 317Q15 461 89 545T324 668L408 688L419 691Q633 741 633 821Q633 877 583 905T435 934Q347 934 260 908T91 829V1085Z" />
<glyph unicode="&#x1a9;" glyph-name="uni01A9" horiz-adv-x="1233" d="M428 747L27 1234V1493H1073V1233H367L769 747L367 260H1073V0H27V260L428 747Z" />
<glyph unicode="&#x1aa;" glyph-name="uni01AA" horiz-adv-x="1091" d="M744 987V-86Q744 -150 770 -175Q795 -199 859 -199H1088V-424H847Q619 -424 535 -346T451 -66V987H316Q8 987 5 1263Q1 1545 303 1555V1556H353Q562 1556 654 1448Q729 1359 742 1198H879Q995
1198 1051 1197V987H883H744ZM442 1197Q431 1247 410 1276Q370 1330 274 1331Q210 1326 211 1273Q212 1197 317 1197Q389 1197 442 1197ZM274 1331H303H274Z" />
<glyph unicode="&#x1ab;" glyph-name="uni01AB" horiz-adv-x="968" d="M579 1438V1120H962V895H579V365Q579 290 615 258T737 225H962V43V0H961Q954 -214 869 -316Q779 -424 569 -424H448V-199H487Q585 -199 628 -144Q662 -100 668 1Q455 8 375 80Q286 161 286
379V895H0V1120H286V1438H579Z" />
<glyph unicode="&#x1ac;" glyph-name="uni01AC" horiz-adv-x="1130" d="M371 1237Q352 1237 351 1236Q307 1235 291 1216Q264 1183 258 1111Q257 1098 257 1064H2V1141Q2 1296 50 1361Q68 1386 101 1414Q191 1491 314 1490Q419 1490 371 1495L1124 1493V1235H745V0H450V1235L371
1237Z" />
<glyph unicode="&#x1ad;" glyph-name="uni01AD" horiz-adv-x="976" d="M288 1120Q288 1339 379 1448Q461 1546 637 1555Q657 1556 679 1556H800V1331H761Q663 1331 620 1276Q579 1223 579 1120H962V895H579V365Q579 290 615 258T737 225H962V0H716Q464 0 375 80T286
379V895H0V1120H288Z" />
<glyph unicode="&#x1ae;" glyph-name="uni01AE" horiz-adv-x="1064" d="M380 0V1235H1V1493H1054V1235H675V41Q675 -93 717 -147T857 -201H896V-426H770Q560 -426 474 -322T380 0Z" />
<glyph unicode="&#x1af;" glyph-name="Uhorn" horiz-adv-x="1233" d="M412 1238V1379Q479 1329 515 1310T578 1291Q617 1291 641 1320T666 1399Q666 1438 659 1476T635 1555H791Q802 1500 807 1453T813 1365Q813 1250 767 1189T635 1127Q582 1127 528 1154T412
1238ZM179 551V1493H474V477Q474 365 531 302T689 238Q790 238 847 301T904 477V1493H1199V551Q1199 247 1078 109T689 -29Q422 -29 301 109T179 551Z" />
<glyph unicode="&#x1b0;" glyph-name="uhorn" horiz-adv-x="1233" d="M409 850V991Q476 941 512 922T575 903Q614 903 638 932T663 1011Q663 1050 656 1088T632 1167H788Q799 1112 804 1065T810 977Q810 862 764 801T632 739Q579 739 525 766T409 850ZM-127 391V1120H166V436Q166
315 200 263T313 211Q392 211 436 281T481 477V1120H774V0H481V166Q450 73 376 22T196 -29Q36 -29 -45 77T-127 391Z" />
<glyph unicode="&#x1b1;" glyph-name="uni01B1" d="M1071 1249H833Q953 1140 1007 1005T1061 678Q1061 366 922 183T547 0Q310 0 169 183T28 678Q28 869 82 1004T256 1249H18V1460H489V1192Q408 1113 369 996T330 712Q330 498 386 382T545 266Q647 266 703 382T760
712Q760 878 720 996T598 1192V1460H1071V1249Z" />
<glyph unicode="&#x1b2;" glyph-name="uni01B2" horiz-adv-x="1018" d="M712 707Q712 1035 550 1187V1244H785Q905 1135 959 1000T1013 673Q1013 361 873 178Q738 0 449 0Q196 0 91 176Q25 286 25 462L24 1233V1493H319V495Q319 353 357 307Q395 262 497 261Q651
261 696 509Q712 597 712 707Z" />
<glyph unicode="&#x1b3;" glyph-name="uni01B3" horiz-adv-x="1229" d="M931 1026L725 588V0H430V588L1 1493H303L579 893L676 1104Q823 1424 864 1452Q998 1544 1167 1467L1228 1439L1165 1224Q1134 1243 1081 1241Q1032 1239 931 1026Z" />
<glyph unicode="&#x1b4;" glyph-name="uni01B4" horiz-adv-x="1191" d="M915 664L637 -121Q530 -424 295 -424H53V-201H172Q262 -201 304 -171T389 -29L411 31L16 1120H309L552 393L664 744Q755 1025 837 1084Q920 1143 1139 1105L1191 1096L1132 880Q1038 915
990 836Q956 779 915 664Z" />
<glyph unicode="&#x1b5;" glyph-name="uni01B5" horiz-adv-x="1097" d="M47 1493H1057V1249L694 730H921V538H560L365 260H1071V0H25V244L224 538H132V730H355L696 1233H47V1493Z" />
<glyph unicode="&#x1b6;" glyph-name="uni01B6" horiz-adv-x="955" d="M49 1120H944V891L717 632H872V438H547L355 219H944V0H25V229L208 438H98V632H379L615 901H49V1120Z" />
<glyph unicode="&#x1b7;" glyph-name="uni01B7" horiz-adv-x="1242" d="M1226 425Q1226 144 985 35Q844 -28 626 -28Q288 -28 157 88Q13 216 13 439H331Q331 332 428 275Q497 234 595 234Q830 234 871 380Q879 408 879 439Q879 618 655 642Q621 646 582 646H327V864L699
1233H133V1493H1143V1249L742 848Q887 839 965 816Q1072 785 1145 685Q1226 575 1226 425Z" />
<glyph unicode="&#x1b8;" glyph-name="uni01B8" horiz-adv-x="1242" d="M647 234Q788 234 862 312Q911 365 911 439H1229Q1229 216 1085 88Q954 -28 616 -28Q158 -28 48 246Q16 326 16 425Q16 568 87 670Q166 783 277 816Q355 839 500 848L99 1249V1493H1109V1233H543L915
864V646H660Q363 646 363 439Q363 300 501 254Q561 234 647 234Z" />
<glyph unicode="&#x1b9;" glyph-name="uni01B9" horiz-adv-x="1046" d="M826 452V234H658Q511 234 436 182Q361 129 361 27Q361 -72 434 -125T645 -178Q738 -178 834 -150Q930 -123 1027 -69V-366Q925 -403 821 -422Q717 -440 614 -440Q320 -440 167 -324Q14 -209
14 13Q14 156 85 258Q162 371 275 404Q353 427 498 436L107 891V1120H1002V901H436L826 452Z" />
<glyph unicode="&#x1ba;" glyph-name="uni01BA" horiz-adv-x="1007" d="M678 546Q789 529 867 481Q983 409 983 261Q983 123 891 56Q802 -9 573 -36L513 -43Q407 -55 375 -73Q340 -92 340 -132Q340 -180 391 -204Q441 -228 541 -228Q651 -228 758 -206Q865 -185
966 -142Q966 -142 966 -368Q839 -399 736 -412Q623 -426 517 -426Q271 -426 143 -351Q17 -277 17 -127Q17 14 108 81Q186 139 459 175L519 183Q620 196 646 210Q682 228 682 266Q682 311 635 331Q585 352 337 352H125L611 901H17V1120H983V901L678 546Z" />
<glyph unicode="&#x1bb;" glyph-name="uni01BB" horiz-adv-x="990" d="M341 260H970V0H22V252L182 422L291 538H129V730H469L528 795Q603 881 636 947T669 1079Q669 1179 609 1233T437 1288Q358 1288 260 1257T54 1165V1440Q161 1479 263 1499T460 1520Q697 1520
832 1410T968 1108Q968 1020 939 943T837 772Q824 756 801 730H918V538H671H618L546 466L341 260Z" />
<glyph unicode="&#x1bc;" glyph-name="uni01BC" horiz-adv-x="1238" d="M324 646H182V1493H1112V1233H477V880H739Q855 880 996 816Q1071 786 1152 670Q1223 568 1223 425Q1223 203 1070 88Q916 -28 623 -28Q285 -28 154 88Q10 216 10 439H328Q328 344 407 287Q481
234 592 234Q730 234 803 287T876 439Q876 541 801 594Q726 646 579 646H477H324Z" />
<glyph unicode="&#x1bd;" glyph-name="uni01BD" horiz-adv-x="1041" d="M527 452Q663 452 783 404Q888 360 959 258Q1030 155 1030 13Q1030 -209 877 -324Q723 -440 430 -440Q327 -440 223 -422Q119 -403 17 -366V-69Q112 -122 210 -150T399 -178Q537 -178 610
-125T683 27Q683 129 608 182Q533 234 386 234H218H129V1120H928V911H420V452H527Z" />
<glyph unicode="&#x1be;" glyph-name="uni01BE" horiz-adv-x="962" d="M554 1078V1029Q724 998 815 904Q955 759 955 528Q955 313 836 180Q648 -30 431 -30Q268 -30 195 -12Q122 5 54 40V338Q124 295 194 274Q266 252 338 252Q499 252 588 366Q640 432 640 528Q640
599 589 675Q511 789 316 789H232V1078H14V1272H228H232V1438H554V1272H787V1078H554Z" />
<glyph unicode="&#x1bf;" glyph-name="uni01BF" horiz-adv-x="1084" d="M342 -132V-426H27V1120H342V955Q418 1066 494 1103Q586 1147 756 1147Q936 1147 1004 1035Q1084 908 1084 769Q1084 349 342 -132ZM342 145Q759 479 759 643Q759 756 709 822Q659 887 549
887Q471 887 342 684V145Z" />
<glyph unicode="&#x1c0;" glyph-name="uni01C0" horiz-adv-x="322" d="M27 1493H294V0H27V1493Z" />
<glyph unicode="&#x1c1;" glyph-name="uni01C1" horiz-adv-x="1233" d="M256 1493H523V0H256V1493ZM-201 1493H66V0H-201V1493Z" />
<glyph unicode="&#x1c2;" glyph-name="uni01C2" d="M411 1493H678V1146H1088V911H678V691H1088V454H678V0H411V454H1V691H411V911H1V1146H411V1493Z" />
<glyph unicode="&#x1c3;" glyph-name="uni01C3" horiz-adv-x="1233" d="M31 283H298V0H31V283ZM31 1493H298V838L265 481H66L31 838V1493Z" />
<glyph unicode="&#x1cd;" glyph-name="uni01CD" horiz-adv-x="1233" d="M589 1223L450 612H729L589 1223ZM409 1493H770L1173 0H878L786 369H391L301 0H6L409 1493ZM229 1635L8 1899H186L384 1737L583 1899H761L538 1635H229Z" />
<glyph unicode="&#x1ce;" glyph-name="uni01CE" horiz-adv-x="1233" d="M620 526Q456 526 391 484T326 340Q326 264 371 219T493 174Q609 174 673 261T737 506V526H620ZM1028 639V0H737V125Q684 51 601 11T418 -29Q227 -29 121 72T14 354Q14 550 141 643T534 737H737V786Q737
857 686 893T534 930Q429 930 331 904T125 819V1069Q222 1109 322 1128T534 1147Q807 1147 917 1036T1028 639ZM262 1262L6 1638H184L382 1411L581 1638H759L503 1262H262Z" />
<glyph unicode="&#x1cf;" glyph-name="uni01CF" horiz-adv-x="1233" d="M29 1233V1493H918V1233H621V260H918V0H29V260H326V1233H29ZM229 1635L8 1899H186L384 1737L583 1899H761L538 1635H229Z" />
<glyph unicode="&#x1d0;" glyph-name="uni01D0" horiz-adv-x="1233" d="M99 1120H679V225H1043V0H21V225H386V895H99V1120ZM262 1262L6 1638H184L382 1411L581 1638H759L503 1262H262Z" />
<glyph unicode="&#x1d1;" glyph-name="uni01D1" horiz-adv-x="1233" d="M540 1255Q427 1255 375 1135T323 745Q323 477 375 357T540 236Q654 236 706 356T758 745Q758 1014 706 1134T540 1255ZM16 745Q16 1128 148 1324T540 1520Q800 1520 932 1324T1065 745Q1065
363 933 167T540 -29Q281 -29 149 167T16 745ZM229 1635L8 1899H186L384 1737L583 1899H761L538 1635H229Z" />
<glyph unicode="&#x1d2;" glyph-name="uni01D2" horiz-adv-x="1233" d="M532 909Q427 909 367 817T307 559Q307 394 367 302T532 209Q638 209 698 301T758 559Q758 724 698 816T532 909ZM14 559Q14 830 154 988T532 1147Q770 1147 910 989T1051 559Q1051 288 911
130T532 -29Q295 -29 155 129T14 559ZM262 1262L6 1638H184L382 1411L581 1638H759L503 1262H262Z" />
<glyph unicode="&#x1d3;" glyph-name="uni01D3" horiz-adv-x="1233" d="M23 551V1493H318V477Q318 365 375 302T533 238Q634 238 691 301T748 477V1493H1043V551Q1043 247 922 109T533 -29Q266 -29 145 109T23 551ZM229 1635L8 1899H186L384 1737L583 1899H761L538
1635H229Z" />
<glyph unicode="&#x1d4;" glyph-name="uni01D4" horiz-adv-x="1233" d="M24 391V1120H317V436Q317 315 351 263T464 211Q543 211 587 281T632 477V1120H925V0H632V166Q601 73 527 22T347 -29Q187 -29 106 77T24 391ZM262 1262L6 1638H184L382 1411L581 1638H759L503
1262H262Z" />
<glyph unicode="&#x1d5;" glyph-name="uni01D5" horiz-adv-x="1052" d="M606 1771H842V1525H606V1771ZM211 1771H447V1525H211V1771ZM16 551V1493H311V477Q311 365 368 302T526 238Q627 238 684 301T741 477V1493H1036V551Q1036 247 915 109T526 -29Q259 -29 138
109T16 551ZM211 2017H842V1829H211V2017Z" />
<glyph unicode="&#x1d6;" glyph-name="uni01D6" horiz-adv-x="927" d="M153 1871H784V1683H153V1871ZM12 391V1120H305V436Q305 315 339 263T452 211Q531 211 575 281T620 477V1120H913V0H620V166Q589 73 515 22T335 -29Q175 -29 94 77T12 391ZM548 1585H784V1339H548V1585ZM153
1585H389V1339H153V1585Z" />
<glyph unicode="&#x1d7;" glyph-name="uni01D7" horiz-adv-x="1233" d="M23 551V1493H318V477Q318 365 375 302T533 238Q634 238 691 301T748 477V1493H1043V551Q1043 247 922 109T533 -29Q266 -29 145 109T23 551ZM422 1771H658V1525H422V1771ZM27 1771H263V1525H27V1771ZM203
2064H487L201 1800H4L203 2064Z" />
<glyph unicode="&#x1d8;" glyph-name="uni01D8" horiz-adv-x="923" d="M598 2053H880L512 1677H315L598 2053ZM6 391V1120H299V436Q299 315 333 263T446 211Q525 211 569 281T614 477V1120H907V0H614V166Q583 73 509 22T329 -29Q169 -29 88 77T6 391ZM542 1585H778V1339H542V1585ZM147
1585H383V1339H147V1585Z" />
<glyph unicode="&#x1d9;" glyph-name="uni01D9" horiz-adv-x="1233" d="M23 551V1493H318V477Q318 365 375 302T533 238Q634 238 691 301T748 477V1493H1043V551Q1043 247 922 109T533 -29Q266 -29 145 109T23 551ZM422 1771H658V1525H422V1771ZM27 1771H263V1525H27V1771ZM229
1800L8 2064H186L384 1902L583 2064H761L538 1800H229Z" />
<glyph unicode="&#x1da;" glyph-name="uni01DA" horiz-adv-x="931" d="M350 1677L94 2053H272L470 1826L669 2053H847L591 1677H350ZM14 391V1120H307V436Q307 315 341 263T454 211Q533 211 577 281T622 477V1120H915V0H622V166Q591 73 517 22T337 -29Q177 -29
96 77T14 391ZM550 1585H786V1339H550V1585ZM155 1585H391V1339H155V1585Z" />
<glyph unicode="&#x1db;" glyph-name="uni01DB" horiz-adv-x="1233" d="M23 551V1493H318V477Q318 365 375 302T533 238Q634 238 691 301T748 477V1493H1043V551Q1043 247 922 109T533 -29Q266 -29 145 109T23 551ZM422 1771H658V1525H422V1771ZM27 1771H263V1525H27V1771ZM284
2064L483 1800H286L0 2064H284Z" />
<glyph unicode="&#x1dc;" glyph-name="uni01DC" horiz-adv-x="922" d="M335 2053L618 1677H421L53 2053H335ZM14 391V1120H307V436Q307 315 341 263T454 211Q533 211 577 281T622 477V1120H915V0H622V166Q591 73 517 22T337 -29Q177 -29 96 77T14 391ZM550 1585H786V1339H550V1585ZM155
1585H391V1339H155V1585Z" />
<glyph unicode="&#x1dd;" glyph-name="uni01DD" horiz-adv-x="1233" d="M16 534V653H775V663Q774 795 697 855T467 915Q366 915 268 886T63 794V1063Q165 1105 271 1126T495 1147Q776 1147 924 997T1073 563Q1073 289 930 130T540 -29Q291 -29 154 118T16 534ZM311
433Q313 317 370 258T540 198Q641 198 701 259T772 433H311Z" />
<glyph unicode="&#x1de;" glyph-name="uni01DE" horiz-adv-x="1181" d="M670 1803H906V1557H670V1803ZM275 1803H511V1557H275V1803ZM275 2017H906V1829H275V2017ZM590 1223L451 612H730L590 1223ZM410 1493H771L1174 0H879L787 369H392L302 0H7L410 1493Z" />
<glyph unicode="&#x1df;" glyph-name="uni01DF" horiz-adv-x="1031" d="M213 1871H844V1683H213V1871ZM612 526Q448 526 383 484T318 340Q318 264 363 219T485 174Q601 174 665 261T729 506V526H612ZM1020 639V0H729V125Q676 51 593 11T410 -29Q219 -29 113 72T6
354Q6 550 133 643T526 737H729V786Q729 857 678 893T526 930Q421 930 323 904T117 819V1069Q214 1109 314 1128T526 1147Q799 1147 909 1036T1020 639ZM608 1585H844V1339H608V1585ZM213 1585H449V1339H213V1585Z" />
<glyph unicode="&#x1e0;" glyph-name="uni01E0" horiz-adv-x="1177" d="M451 1803H726V1557H451V1803ZM588 1223L449 612H728L588 1223ZM408 1493H769L1172 0H877L785 369H390L300 0H5L408 1493ZM273 2017H904V1829H273V2017Z" />
<glyph unicode="&#x1e1;" glyph-name="uni01E1" horiz-adv-x="1233" d="M620 526Q456 526 391 484T326 340Q326 264 371 219T493 174Q609 174 673 261T737 506V526H620ZM1028 639V0H737V125Q684 51 601 11T418 -29Q227 -29 121 72T14 354Q14 550 141 643T534 737H737V786Q737
857 686 893T534 930Q429 930 331 904T125 819V1069Q222 1109 322 1128T534 1147Q807 1147 917 1036T1028 639ZM27 1585H302V1339H27V1585ZM27 1871H658V1683H27V1871Z" />
<glyph unicode="&#x1e2;" glyph-name="uni01E2" horiz-adv-x="1233" d="M170 1870H801V1682H170V1870ZM1168 1493V1233H877V922H1137V662H877V260H1187V0H623V362H341L255 0H7L365 1493H1168ZM544 1233L396 598H623V1233H544Z" />
<glyph unicode="&#x1e3;" glyph-name="uni01E3" horiz-adv-x="1233" d="M27 1556H658V1368H27V1556ZM494 401V483H421Q334 483 290 444T245 330Q245 259 277 222T370 184Q433 184 463 227T494 358V401ZM968 690V713Q968 838 943 885T855 932Q792 932 767 885T742
713V690H968ZM1193 479H742Q742 335 792 260T937 184Q997 184 1057 213T1176 301V57Q1126 13 1064 -8T918 -29Q815 -29 740 13T623 135Q582 51 517 11T353 -29Q193 -29 106 63T19 326Q19 511 120 602T425 694H501V745Q501 838 462 885T347 932Q290 932 223 905T81
823V1069Q155 1108 225 1127T359 1147Q457 1147 519 1116T617 1020Q646 1081 711 1114T869 1147Q1046 1147 1119 1028T1193 606V479Z" />
<glyph unicode="&#x1e6;" glyph-name="Gcaron" horiz-adv-x="1233" d="M350 1635L129 1899H307L505 1737L704 1899H882L659 1635H350ZM770 270V555H568V803H1028V119Q943 46 841 9T621 -29Q331 -29 173 172T15 745Q15 1122 174 1321T635 1520Q725 1520 812 1495T975
1421V1094Q913 1174 833 1214T656 1255Q488 1255 405 1129T322 745Q322 496 402 366T635 236Q681 236 715 244T770 270Z" />
<glyph unicode="&#x1e7;" glyph-name="gcaron" horiz-adv-x="1233" d="M499 1262L243 1638H421L619 1411L818 1638H996L740 1262H499ZM720 578Q720 728 663 818T513 909Q421 909 365 819T308 578Q308 426 364 336T513 246Q606 246 663 336T720 578ZM1013 84Q1013
-185 892 -304T497 -424Q405 -424 315 -411T132 -369V-100Q215 -146 301 -168T478 -190Q602 -190 661 -132T720 51V172Q677 92 606 53T433 14Q241 14 128 164T15 571Q15 837 128 993T431 1149Q527 1149 602 1104T720 977V1120H1013V84Z" />
<glyph unicode="&#x1e8;" glyph-name="uni01E8" horiz-adv-x="1233" d="M229 1635L8 1899H186L384 1737L583 1899H761L538 1635H229ZM29 1493H324V903L786 1493H1120L649 905L1137 0H809L455 672L324 506V0H29V1493Z" />
<glyph unicode="&#x1e9;" glyph-name="uni01E9" horiz-adv-x="1233" d="M229 1635L8 1899H186L384 1737L583 1899H761L538 1635H229ZM27 1556H320V739L672 1120H1027L603 702L1051 0H727L420 524L320 428V0H27V1556Z" />
<glyph unicode="&#x1ea;" glyph-name="uni01EA" horiz-adv-x="1233" d="M370 241H511Q458 170 440 135T421 75Q421 36 451 12T532 -13Q570 -13 608 -6T687 18V-138Q633 -149 586 -154T497 -160Q383 -160 321 -114T259 18Q259 71 286 125T370 241ZM540 1255Q427
1255 375 1135T323 745Q323 477 375 357T540 236Q654 236 706 356T758 745Q758 1014 706 1134T540 1255ZM16 745Q16 1128 148 1324T540 1520Q800 1520 932 1324T1065 745Q1065 363 933 167T540 -29Q281 -29 149 167T16 745Z" />
<glyph unicode="&#x1eb;" glyph-name="uni01EB" horiz-adv-x="1233" d="M370 241H511Q458 170 440 135T421 75Q421 36 451 12T532 -13Q570 -13 608 -6T687 18V-138Q633 -149 586 -154T497 -160Q383 -160 321 -114T259 18Q259 71 286 125T370 241ZM532 909Q427
909 367 817T307 559Q307 394 367 302T532 209Q638 209 698 301T758 559Q758 724 698 816T532 909ZM14 559Q14 830 154 988T532 1147Q770 1147 910 989T1051 559Q1051 288 911 130T532 -29Q295 -29 155 129T14 559Z" />
<glyph unicode="&#x1ec;" glyph-name="uni01EC" horiz-adv-x="1059" d="M214 1870H845V1682H214V1870ZM458 -16H599Q546 -87 528 -122T509 -182Q509 -221 539 -245T620 -270Q658 -270 696 -263T775 -239V-395Q721 -406 674 -411T585 -417Q471 -417 409 -371T347
-239Q347 -186 374 -132T458 -16ZM529 1255Q416 1255 364 1135T312 745Q312 477 364 357T529 236Q643 236 695 356T747 745Q747 1014 695 1134T529 1255ZM5 745Q5 1128 137 1324T529 1520Q789 1520 921 1324T1054 745Q1054 363 922 167T529 -29Q270 -29 138 167T5
745Z" />
<glyph unicode="&#x1ed;" glyph-name="uni01ED" horiz-adv-x="1043" d="M206 1556H837V1368H206V1556ZM450 -16H591Q538 -87 520 -122T501 -182Q501 -221 531 -245T612 -270Q650 -270 688 -263T767 -239V-395Q713 -406 666 -411T577 -417Q463 -417 401 -371T339
-239Q339 -186 366 -132T450 -16ZM521 909Q416 909 356 817T296 559Q296 394 356 302T521 209Q627 209 687 301T747 559Q747 724 687 816T521 909ZM3 559Q3 830 143 988T521 1147Q759 1147 899 989T1040 559Q1040 288 900 130T521 -29Q284 -29 144 129T3 559Z"
/>
<glyph unicode="&#x1ee;" glyph-name="uni01EE" horiz-adv-x="1233" d="M229 1635L8 1899H186L384 1737L583 1899H761L538 1635H229ZM1226 425Q1226 144 985 35Q844 -28 626 -28Q288 -28 157 88Q13 216 13 439H331Q331 332 428 275Q497 234 595 234Q830 234 871
380Q879 408 879 439Q879 618 655 642Q621 646 582 646H327V864L699 1233H133V1493H1143V1249L742 848Q887 839 965 816Q1072 785 1145 685Q1226 575 1226 425Z" />
<glyph unicode="&#x1ef;" glyph-name="uni01EF" horiz-adv-x="1233" d="M262 1262L6 1638H184L382 1411L581 1638H759L503 1262H262ZM220 452L610 901H44V1120H939V891L548 436Q693 427 771 404Q884 371 961 258Q1032 156 1032 13Q1032 -209 879 -324Q726 -440
432 -440Q329 -440 225 -422Q121 -403 19 -366V-69Q116 -123 212 -150Q308 -178 401 -178Q539 -178 612 -125T685 27Q685 129 610 182Q535 234 388 234H220V452Z" />
<glyph unicode="&#x1f0;" glyph-name="uni01F0" horiz-adv-x="1233" d="M279 1267L23 1643H201L399 1416L598 1643H776L520 1267H279ZM717 43Q717 -209 627 -316T326 -424H10V-199H244Q342 -199 383 -144T424 43V895H127V1120H717V43Z" />
<glyph unicode="&#x1f4;" glyph-name="uni01F4" horiz-adv-x="1233" d="M324 1899H608L322 1635H125L324 1899ZM770 270V555H568V803H1028V119Q943 46 841 9T621 -29Q331 -29 173 172T15 745Q15 1122 174 1321T635 1520Q725 1520 812 1495T975 1421V1094Q913 1174
833 1214T656 1255Q488 1255 405 1129T322 745Q322 496 402 366T635 236Q681 236 715 244T770 270Z" />
<glyph unicode="&#x1f5;" glyph-name="uni01F5" horiz-adv-x="1233" d="M521 1638H803L435 1262H238L521 1638ZM720 578Q720 728 663 818T513 909Q421 909 365 819T308 578Q308 426 364 336T513 246Q606 246 663 336T720 578ZM1013 84Q1013 -185 892 -304T497
-424Q405 -424 315 -411T132 -369V-100Q215 -146 301 -168T478 -190Q602 -190 661 -132T720 51V172Q677 92 606 53T433 14Q241 14 128 164T15 571Q15 837 128 993T431 1149Q527 1149 602 1104T720 977V1120H1013V84Z" />
<glyph unicode="&#x1f6;" glyph-name="uni01F6" horiz-adv-x="1218" d="M27 1493H278V924H500V1493H751V551V477Q751 325 768 288Q791 238 847 238Q916 238 938 296Q959 352 959 477V924H1210V551Q1210 247 1107 109T847 -29Q706 -29 603 109T500 551V664H278V0H27V1493Z" />
<glyph unicode="&#x1f8;" glyph-name="uni01F8" horiz-adv-x="1233" d="M284 1899L483 1635H286L0 1899H284ZM28 1493H345L761 408V1493H1021V0H706L288 1085V0H28V1493Z" />
<glyph unicode="&#x1f9;" glyph-name="uni01F9" horiz-adv-x="926" d="M325 1640L608 1264H411L43 1640H325ZM919 727V0H628V682Q628 804 594 856T481 909Q402 909 357 838T311 641V0H20V1120H311V952Q342 1045 417 1096T598 1147Q757 1147 838 1042T919 727Z" />
<glyph unicode="&#x1fc;" glyph-name="AEacute" horiz-adv-x="1233" d="M423 1899H707L421 1635H224L423 1899ZM1168 1493V1233H877V922H1137V662H877V260H1187V0H623V362H341L255 0H7L365 1493H1168ZM544 1233L396 598H623V1233H544Z" />
<glyph unicode="&#x1fd;" glyph-name="aeacute" horiz-adv-x="1233" d="M284 1638H566L198 1262H1L284 1638ZM494 401V483H421Q334 483 290 444T245 330Q245 259 277 222T370 184Q433 184 463 227T494 358V401ZM968 690V713Q968 838 943 885T855 932Q792 932 767
885T742 713V690H968ZM1193 479H742Q742 335 792 260T937 184Q997 184 1057 213T1176 301V57Q1126 13 1064 -8T918 -29Q815 -29 740 13T623 135Q582 51 517 11T353 -29Q193 -29 106 63T19 326Q19 511 120 602T425 694H501V745Q501 838 462 885T347 932Q290 932
223 905T81 823V1069Q155 1108 225 1127T359 1147Q457 1147 519 1116T617 1020Q646 1081 711 1114T869 1147Q1046 1147 1119 1028T1193 606V479Z" />
<glyph unicode="&#x1fe;" glyph-name="Oslashacute" horiz-adv-x="1233" d="M467 354Q491 297 533 267T632 236Q746 236 798 356T850 745Q850 773 849 804T845 888L467 354ZM788 1153Q762 1204 723 1229T632 1255Q520 1255 468 1135T415 756V629L788 1153ZM178
289Q143 377 126 490T108 745Q108 1128 240 1324T632 1520Q735 1520 818 1489T962 1397L1075 1559L1237 1444L1079 1221Q1118 1127 1137 1008T1157 745Q1157 363 1025 167T632 -29Q526 -29 441 4T292 104L172 -63L10 51L178 289ZM203 1899H487L201 1635H4L203 1899Z"
/>
<glyph unicode="&#x1ff;" glyph-name="oslashacute" horiz-adv-x="1186" d="M809 675L461 262Q492 235 525 222T596 209Q700 209 760 302T820 559Q820 588 818 617T809 675ZM377 449L723 860Q697 885 666 897T596 909Q490 909 430 817T369 559Q369 525 371 499T377
449ZM166 199Q121 272 99 361T76 559Q76 830 216 988T594 1147Q679 1147 752 1126T893 1059L1041 1235L1180 1114L1020 926Q1066 850 1089 758T1113 559Q1113 288 973 130T594 -29Q511 -29 436 -7T293 61L142 -117L3 2L166 199ZM732 1639H1014L646 1263H449L732
1639Z" />
<glyph unicode="&#x200;" glyph-name="uni0200" horiz-adv-x="1233" d="M589 1223L450 612H729L589 1223ZM409 1493H770L1173 0H878L786 369H391L301 0H6L409 1493ZM290 1899L489 1635H292L6 1899H290ZM665 1899L864 1635H667L381 1899H665Z" />
<glyph unicode="&#x201;" glyph-name="uni0201" horiz-adv-x="1233" d="M620 526Q456 526 391 484T326 340Q326 264 371 219T493 174Q609 174 673 261T737 506V526H620ZM1028 639V0H737V125Q684 51 601 11T418 -29Q227 -29 121 72T14 354Q14 550 141 643T534 737H737V786Q737
857 686 893T534 930Q429 930 331 904T125 819V1069Q222 1109 322 1128T534 1147Q807 1147 917 1036T1028 639ZM599 1638L793 1262H630L382 1638H599ZM236 1638L451 1262H277L5 1638H236Z" />
<glyph unicode="&#x202;" glyph-name="uni0202" horiz-adv-x="1233" d="M589 1223L450 612H729L589 1223ZM409 1493H770L1173 0H878L786 369H391L301 0H6L409 1493ZM13 1635Q28 1764 114 1831T348 1899Q496 1899 582 1832T684 1635H541Q521 1696 473 1726T348
1756Q272 1756 223 1726T154 1635H13V1635Z" />
<glyph unicode="&#x203;" glyph-name="uni0203" horiz-adv-x="1233" d="M620 526Q456 526 391 484T326 340Q326 264 371 219T493 174Q609 174 673 261T737 506V526H620ZM1028 639V0H737V125Q684 51 601 11T418 -29Q227 -29 121 72T14 354Q14 550 141 643T534 737H737V786Q737
857 686 893T534 930Q429 930 331 904T125 819V1069Q222 1109 322 1128T534 1147Q807 1147 917 1036T1028 639ZM14 1309Q20 1453 106 1529T349 1606Q506 1606 592 1530T685 1309H542Q531 1379 482 1416T349 1453T216 1416T155 1309H14Z" />
<glyph unicode="&#x204;" glyph-name="uni0204" horiz-adv-x="1233" d="M960 0H30V1493H960V1233H325V911H900V651H325V260H960V0ZM290 1899L489 1635H292L6 1899H290ZM665 1899L864 1635H667L381 1899H665Z" />
<glyph unicode="&#x205;" glyph-name="uni0205" horiz-adv-x="1233" d="M1024 55Q922 13 816 -8T592 -29Q311 -29 163 121T14 555Q14 829 157 988T547 1147Q796 1147 933 1000T1071 584V465H312Q313 333 390 268T620 203Q721 203 819 232T1024 324V55ZM776 685Q774
801 717 860T547 920Q446 920 386 859T315 684L776 685ZM638 1638L832 1262H669L421 1638H638ZM275 1638L490 1262H316L44 1638H275Z" />
<glyph unicode="&#x206;" glyph-name="uni0206" horiz-adv-x="1233" d="M960 0H30V1493H960V1233H325V911H900V651H325V260H960V0ZM13 1635Q28 1764 114 1831T348 1899Q496 1899 582 1832T684 1635H541Q521 1696 473 1726T348 1756Q272 1756 223 1726T154 1635H13V1635Z" />
<glyph unicode="&#x207;" glyph-name="uni0207" horiz-adv-x="1233" d="M1024 55Q922 13 816 -8T592 -29Q311 -29 163 121T14 555Q14 829 157 988T547 1147Q796 1147 933 1000T1071 584V465H312Q313 333 390 268T620 203Q721 203 819 232T1024 324V55ZM776 685Q774
801 717 860T547 920Q446 920 386 859T315 684L776 685ZM53 1309Q59 1453 145 1529T388 1606Q545 1606 631 1530T724 1309H581Q570 1379 521 1416T388 1453T255 1416T194 1309H53Z" />
<glyph unicode="&#x208;" glyph-name="uni0208" horiz-adv-x="1233" d="M29 1233V1493H918V1233H621V260H918V0H29V260H326V1233H29ZM290 1899L489 1635H292L6 1899H290ZM665 1899L864 1635H667L381 1899H665Z" />
<glyph unicode="&#x209;" glyph-name="uni0209" horiz-adv-x="1233" d="M99 1120H679V225H1043V0H21V225H386V895H99V1120ZM599 1638L793 1262H630L382 1638H599ZM236 1638L451 1262H277L5 1638H236Z" />
<glyph unicode="&#x20a;" glyph-name="uni020A" horiz-adv-x="1233" d="M29 1233V1493H918V1233H621V260H918V0H29V260H326V1233H29ZM13 1635Q28 1764 114 1831T348 1899Q496 1899 582 1832T684 1635H541Q521 1696 473 1726T348 1756Q272 1756 223 1726T154 1635H13V1635Z"
/>
<glyph unicode="&#x20b;" glyph-name="uni020B" horiz-adv-x="1233" d="M99 1120H679V225H1043V0H21V225H386V895H99V1120ZM14 1309Q20 1453 106 1529T349 1606Q506 1606 592 1530T685 1309H542Q531 1379 482 1416T349 1453T216 1416T155 1309H14Z" />
<glyph unicode="&#x20c;" glyph-name="uni020C" horiz-adv-x="1233" d="M540 1255Q427 1255 375 1135T323 745Q323 477 375 357T540 236Q654 236 706 356T758 745Q758 1014 706 1134T540 1255ZM16 745Q16 1128 148 1324T540 1520Q800 1520 932 1324T1065 745Q1065
363 933 167T540 -29Q281 -29 149 167T16 745ZM290 1899L489 1635H292L6 1899H290ZM665 1899L864 1635H667L381 1899H665Z" />
<glyph unicode="&#x20d;" glyph-name="uni020D" horiz-adv-x="1233" d="M532 909Q427 909 367 817T307 559Q307 394 367 302T532 209Q638 209 698 301T758 559Q758 724 698 816T532 909ZM14 559Q14 830 154 988T532 1147Q770 1147 910 989T1051 559Q1051 288 911
130T532 -29Q295 -29 155 129T14 559ZM599 1638L793 1262H630L382 1638H599ZM236 1638L451 1262H277L5 1638H236Z" />
<glyph unicode="&#x20e;" glyph-name="uni020E" horiz-adv-x="1233" d="M540 1255Q427 1255 375 1135T323 745Q323 477 375 357T540 236Q654 236 706 356T758 745Q758 1014 706 1134T540 1255ZM16 745Q16 1128 148 1324T540 1520Q800 1520 932 1324T1065 745Q1065
363 933 167T540 -29Q281 -29 149 167T16 745ZM13 1635Q28 1764 114 1831T348 1899Q496 1899 582 1832T684 1635H541Q521 1696 473 1726T348 1756Q272 1756 223 1726T154 1635H13V1635Z" />
<glyph unicode="&#x20f;" glyph-name="uni020F" horiz-adv-x="1233" d="M532 909Q427 909 367 817T307 559Q307 394 367 302T532 209Q638 209 698 301T758 559Q758 724 698 816T532 909ZM14 559Q14 830 154 988T532 1147Q770 1147 910 989T1051 559Q1051 288 911
130T532 -29Q295 -29 155 129T14 559ZM14 1309Q20 1453 106 1529T349 1606Q506 1606 592 1530T685 1309H542Q531 1379 482 1416T349 1453T216 1416T155 1309H14Z" />
<glyph unicode="&#x210;" glyph-name="uni0210" horiz-adv-x="1233" d="M702 705Q746 696 778 664T858 537L1128 0H804L624 377Q616 393 603 421Q524 590 417 590H323V0H28V1493H454Q742 1493 867 1391T993 1059Q993 905 918 814T702 705ZM323 1245V838H462Q583
838 635 885T688 1042Q688 1151 636 1198T462 1245H323ZM497 1899L696 1635H499L213 1899H497ZM872 1899L1071 1635H874L588 1899H872Z" />
<glyph unicode="&#x211;" glyph-name="uni0211" horiz-adv-x="1233" d="M887 811Q839 855 775 877T633 899Q540 899 471 867T363 772Q339 734 330 680T320 516V0H27V1120H320V946Q363 1042 452 1094T660 1147Q720 1147 777 1133T887 1090V811ZM699 1638L893 1262H730L482
1638H699ZM336 1638L551 1262H377L105 1638H336Z" />
<glyph unicode="&#x212;" glyph-name="uni0212" horiz-adv-x="1233" d="M702 705Q746 696 778 664T858 537L1128 0H804L624 377Q616 393 603 421Q524 590 417 590H323V0H28V1493H454Q742 1493 867 1391T993 1059Q993 905 918 814T702 705ZM323 1245V838H462Q583
838 635 885T688 1042Q688 1151 636 1198T462 1245H323ZM220 1635Q235 1764 321 1831T555 1899Q703 1899 789 1832T891 1635H748Q728 1696 680 1726T555 1756Q479 1756 430 1726T361 1635H220V1635Z" />
<glyph unicode="&#x213;" glyph-name="uni0213" horiz-adv-x="1233" d="M887 811Q839 855 775 877T633 899Q540 899 471 867T363 772Q339 734 330 680T320 516V0H27V1120H320V946Q363 1042 452 1094T660 1147Q720 1147 777 1133T887 1090V811ZM114 1309Q120 1453
206 1529T449 1606Q606 1606 692 1530T785 1309H642Q631 1379 582 1416T449 1453T316 1416T255 1309H114Z" />
<glyph unicode="&#x214;" glyph-name="uni0214" horiz-adv-x="1233" d="M23 551V1493H318V477Q318 365 375 302T533 238Q634 238 691 301T748 477V1493H1043V551Q1043 247 922 109T533 -29Q266 -29 145 109T23 551ZM290 1899L489 1635H292L6 1899H290ZM665 1899L864
1635H667L381 1899H665Z" />
<glyph unicode="&#x215;" glyph-name="uni0215" horiz-adv-x="1233" d="M24 391V1120H317V436Q317 315 351 263T464 211Q543 211 587 281T632 477V1120H925V0H632V166Q601 73 527 22T347 -29Q187 -29 106 77T24 391ZM599 1638L793 1262H630L382 1638H599ZM236
1638L451 1262H277L5 1638H236Z" />
<glyph unicode="&#x216;" glyph-name="uni0216" horiz-adv-x="1233" d="M23 551V1493H318V477Q318 365 375 302T533 238Q634 238 691 301T748 477V1493H1043V551Q1043 247 922 109T533 -29Q266 -29 145 109T23 551ZM13 1635Q28 1764 114 1831T348 1899Q496 1899
582 1832T684 1635H541Q521 1696 473 1726T348 1756Q272 1756 223 1726T154 1635H13V1635Z" />
<glyph unicode="&#x217;" glyph-name="uni0217" horiz-adv-x="1233" d="M24 391V1120H317V436Q317 315 351 263T464 211Q543 211 587 281T632 477V1120H925V0H632V166Q601 73 527 22T347 -29Q187 -29 106 77T24 391ZM14 1309Q20 1453 106 1529T349 1606Q506 1606
592 1530T685 1309H542Q531 1379 482 1416T349 1453T216 1416T155 1309H14Z" />
<glyph unicode="&#x218;" glyph-name="Scommaaccent" horiz-adv-x="1233" d="M100 -198H382L205 -504H11L100 -198ZM399 655Q176 740 97 833T18 1085Q18 1288 148 1404T505 1520Q608 1520 711 1497T915 1427V1139Q820 1206 722 1241T528 1276Q421 1276 364 1233T307
1110Q307 1048 348 1008T522 918L649 870Q829 804 914 695T999 420Q999 194 866 83T462 -29Q351 -29 240 -3T24 76V381Q142 297 252 256T471 215Q580 215 640 264T700 403Q700 470 660 520T544 600L399 655Z" />
<glyph unicode="&#x219;" glyph-name="scommaaccent" horiz-adv-x="1233" d="M100 -198H382L205 -504H11L100 -198ZM837 1085V829Q756 881 669 907T493 934Q395 934 345 906T295 821Q295 741 509 691L520 688L604 668Q764 630 838 546T913 317Q913 144 800 58T458
-29Q357 -29 251 -12T36 41V297Q133 242 233 213T428 184Q531 184 584 214T637 301Q637 357 600 387T421 451L340 469Q172 507 95 588T18 805Q18 967 135 1057T464 1147Q559 1147 653 1132T837 1085Z" />
<glyph unicode="&#x21a;" glyph-name="uni021A" horiz-adv-x="1233" d="M100 -198H382L205 -504H11L100 -198ZM679 0H384V1235H5V1493H1058V1235H679V0Z" />
<glyph unicode="&#x21b;" glyph-name="uni021B" horiz-adv-x="1233" d="M203 -198H485L308 -504H114L203 -198ZM579 1438V1120H962V895H579V365Q579 290 615 258T737 225H962V0H716Q464 0 375 80T286 379V895H0V1120H286V1438H579Z" />
<glyph unicode="&#x21c;" glyph-name="uni021C" horiz-adv-x="1150" d="M825 674Q974 638 1058 535T1143 311Q1143 207 1099 120T971 -40T748 -180T434 -307T18 -430V-147Q42 -142 80 -132T190 -99T331 -50T478 16T611 96T705 191T743 300Q743 364 708 410T626
477T527 498Q471 498 407 473L191 388V642L425 737Q506 770 565 809T653 882T699 954T719 1015T722 1066Q722 1120 697 1159T632 1218T551 1247T471 1256Q316 1256 82 1100V1356Q322 1520 557 1520Q675 1520 772 1492T930 1420T1032 1320T1091 1210T1108 1108Q1108
821 825 674Z" />
<glyph unicode="&#x21d;" glyph-name="uni021D" horiz-adv-x="1038" d="M745 461Q830 439 890 403T978 323T1019 243T1031 167Q1031 -241 18 -433V-204Q40 -199 74 -191T174 -165T302 -125T433 -72T553 -6T637 71T671 159Q671 233 611 276T476 319Q424 319 368
299L174 230V436L385 513Q460 540 513 573T592 632T633 691T650 739T652 779Q652 823 629 855T570 903T498 926T426 933Q287 933 76 807V1014Q281 1147 528 1147Q631 1147 713 1126T848 1072T935 993T984 902T999 808Q999 695 926 604T745 461Z" />
<glyph unicode="&#x21e;" glyph-name="uni021E" horiz-adv-x="1233" d="M229 1635L8 1899H186L384 1737L583 1899H761L538 1635H229ZM29 1493H324V924H693V1493H988V0H693V664H324V0H29V1493Z" />
<glyph unicode="&#x21f;" glyph-name="uni021F" horiz-adv-x="1233" d="M229 1635L8 1899H186L384 1737L583 1899H761L538 1635H229ZM926 727V0H635V682Q635 803 601 855T488 907Q408 907 363 837T318 641V0H27V1556H318V952Q349 1045 424 1096T605 1147Q764 1147
845 1042T926 727Z" />
<glyph unicode="&#x220;" glyph-name="uni0220" horiz-adv-x="1052" d="M1027 942V-426H733V1015Q733 1144 686 1199T533 1255Q424 1255 365 1180Q303 1102 303 972V0H8V1493H303V1253Q340 1381 429 1451T645 1522Q834 1522 930 1377T1027 942Z" />
<glyph unicode="&#x221;" glyph-name="uni0221" horiz-adv-x="1229" d="M955 216Q959 210 1004 211Q1108 211 1108 277T1066 344Q1014 344 955 216ZM855 354Q943 588 1067 588Q1221 588 1222 348Q1224 -29 979 -29Q862 -29 859 -19L816 -140H673Q704 -43 727 28Q659
56 598 177Q568 69 532 33Q470 -29 394 -29Q217 -29 111 125T5 559Q5 843 112 995T401 1147Q461 1147 509 1100Q538 1073 563 1028V1556H855V354ZM332 811Q298 719 298 557T332 303T426 211T520 303T555 557T521 811T426 903T332 811Z" />
<glyph unicode="&#x224;" glyph-name="uni0224" horiz-adv-x="1070" d="M24 1493H1034V1249L342 260H1048V0H1047Q1040 -216 957 -316Q867 -424 657 -424H536V-199H575Q673 -199 716 -144Q750 -100 756 0H2V244L673 1233H24V1493Z" />
<glyph unicode="&#x225;" glyph-name="uni0225" horiz-adv-x="945" d="M28 1120H923V891L334 219H923V0H922Q915 -216 832 -316Q742 -424 532 -424H411V-199H450Q548 -199 591 -144Q625 -100 631 0H4V229L594 901H28V1120Z" />
<glyph unicode="&#x226;" glyph-name="uni0226" horiz-adv-x="1233" d="M589 1223L450 612H729L589 1223ZM409 1493H770L1173 0H878L786 369H391L301 0H6L409 1493ZM27 1899H302V1653H27V1899Z" />
<glyph unicode="&#x227;" glyph-name="uni0227" horiz-adv-x="1233" d="M620 526Q456 526 391 484T326 340Q326 264 371 219T493 174Q609 174 673 261T737 506V526H620ZM1028 639V0H737V125Q684 51 601 11T418 -29Q227 -29 121 72T14 354Q14 550 141 643T534 737H737V786Q737
857 686 893T534 930Q429 930 331 904T125 819V1069Q222 1109 322 1128T534 1147Q807 1147 917 1036T1028 639ZM27 1585H302V1339H27V1585Z" />
<glyph unicode="&#x228;" glyph-name="uni0228" horiz-adv-x="1233" d="M960 0H30V1493H960V1233H325V911H900V651H325V260H960V0ZM393 0Q450 -62 477 -115T505 -215Q505 -310 444 -355T255 -401Q207 -401 157 -395T53 -375V-219Q98 -236 140 -245T218 -254Q276
-254 308 -231T341 -168Q341 -142 320 -101T253 0H393Z" />
<glyph unicode="&#x229;" glyph-name="uni0229" horiz-adv-x="1233" d="M1024 55Q922 13 816 -8T592 -29Q311 -29 163 121T14 555Q14 829 157 988T547 1147Q796 1147 933 1000T1071 584V465H312Q313 333 390 268T620 203Q721 203 819 232T1024 324V55ZM776 685Q774
801 717 860T547 920Q446 920 386 859T315 684L776 685ZM393 0Q450 -62 477 -115T505 -215Q505 -310 444 -355T255 -401Q207 -401 157 -395T53 -375V-219Q98 -236 140 -245T218 -254Q276 -254 308 -231T341 -168Q341 -142 320 -101T253 0H393Z" />
<glyph unicode="&#x22a;" glyph-name="uni022A" horiz-adv-x="1073" d="M616 1803H852V1557H616V1803ZM221 1803H457V1557H221V1803ZM221 2017H852V1829H221V2017ZM536 1255Q423 1255 371 1135T319 745Q319 477 371 357T536 236Q650 236 702 356T754 745Q754 1014
702 1134T536 1255ZM12 745Q12 1128 144 1324T536 1520Q796 1520 928 1324T1061 745Q1061 363 929 167T536 -29Q277 -29 145 167T12 745Z" />
<glyph unicode="&#x22b;" glyph-name="uni022B" horiz-adv-x="1049" d="M209 1871H840V1683H209V1871ZM604 1561H840V1315H604V1561ZM209 1561H445V1315H209V1561ZM524 909Q419 909 359 817T299 559Q299 394 359 302T524 209Q630 209 690 301T750 559Q750 724
690 816T524 909ZM6 559Q6 830 146 988T524 1147Q762 1147 902 989T1043 559Q1043 288 903 130T524 -29Q287 -29 147 129T6 559Z" />
<glyph unicode="&#x22c;" glyph-name="uni022C" horiz-adv-x="1073" d="M536 1255Q423 1255 371 1135T319 745Q319 477 371 357T536 236Q650 236 702 356T754 745Q754 1014 702 1134T536 1255ZM12 745Q12 1128 144 1324T536 1520Q796 1520 928 1324T1061 745Q1061
363 929 167T536 -29Q277 -29 145 167T12 745ZM538 1588L484 1622Q479 1625 472 1629Q427 1655 399 1655Q368 1655 348 1625T328 1545V1539H188V1569Q188 1675 242 1740T385 1805Q421 1805 458 1793T534 1756L594 1717Q615 1703 634 1696T670 1688Q706 1688 725
1718T745 1805H885Q885 1800 884 1790T883 1774Q883 1668 830 1604T688 1539Q651 1539 616 1550T538 1588ZM221 2017H852V1829H221V2017Z" />
<glyph unicode="&#x22d;" glyph-name="uni022D" horiz-adv-x="1049" d="M209 1871H840V1683H209V1871ZM526 1331L471 1368Q468 1370 459 1376Q416 1405 389 1405Q353 1405 335 1374T316 1284V1276H176Q176 1412 227 1486T373 1560Q409 1560 445 1547T522 1503L584
1460Q605 1445 623 1437T658 1429Q694 1429 713 1460T733 1550V1558H873Q873 1422 822 1348T676 1274Q640 1274 607 1286T526 1331ZM524 909Q419 909 359 817T299 559Q299 394 359 302T524 209Q630 209 690 301T750 559Q750 724 690 816T524 909ZM6 559Q6 830 146
988T524 1147Q762 1147 902 989T1043 559Q1043 288 903 130T524 -29Q287 -29 147 129T6 559Z" />
<glyph unicode="&#x22e;" glyph-name="uni022E" horiz-adv-x="1233" d="M540 1255Q427 1255 375 1135T323 745Q323 477 375 357T540 236Q654 236 706 356T758 745Q758 1014 706 1134T540 1255ZM16 745Q16 1128 148 1324T540 1520Q800 1520 932 1324T1065 745Q1065
363 933 167T540 -29Q281 -29 149 167T16 745ZM27 1899H302V1653H27V1899Z" />
<glyph unicode="&#x22f;" glyph-name="uni022F" horiz-adv-x="1233" d="M532 909Q427 909 367 817T307 559Q307 394 367 302T532 209Q638 209 698 301T758 559Q758 724 698 816T532 909ZM14 559Q14 830 154 988T532 1147Q770 1147 910 989T1051 559Q1051 288 911
130T532 -29Q295 -29 155 129T14 559ZM27 1585H302V1339H27V1585Z" />
<glyph unicode="&#x230;" glyph-name="uni0230" horiz-adv-x="1069" d="M397 1803H672V1557H397V1803ZM219 2017H850V1829H219V2017ZM534 1255Q421 1255 369 1135T317 745Q317 477 369 357T534 236Q648 236 700 356T752 745Q752 1014 700 1134T534 1255ZM10 745Q10
1128 142 1324T534 1520Q794 1520 926 1324T1059 745Q1059 363 927 167T534 -29Q275 -29 143 167T10 745Z" />
<glyph unicode="&#x231;" glyph-name="uni0231" horiz-adv-x="1047" d="M208 1871H839V1683H208V1871ZM523 909Q418 909 358 817T298 559Q298 394 358 302T523 209Q629 209 689 301T749 559Q749 724 689 816T523 909ZM5 559Q5 830 145 988T523 1147Q761 1147 901
989T1042 559Q1042 288 902 130T523 -29Q286 -29 146 129T5 559ZM386 1585H661V1339H386V1585Z" />
<glyph unicode="&#x232;" glyph-name="uni0232" horiz-adv-x="1233" d="M27 1870H658V1682H27V1870ZM2 1493H320L610 893L901 1493H1219L758 588V0H463V588L2 1493Z" />
<glyph unicode="&#x233;" glyph-name="uni0233" horiz-adv-x="1233" d="M27 1556H658V1368H27V1556ZM669 -121Q610 -279 528 -351T327 -424H85V-201H204Q294 -201 336 -171T421 -29L443 31L17 1120H325L581 393L826 1120H1134L669 -121Z" />
<glyph unicode="&#x234;" glyph-name="uni0234" horiz-adv-x="1140" d="M870 216Q874 210 919 211Q1023 211 1023 277T981 344Q929 344 870 216ZM704 200L770 354Q858 588 982 588Q1136 588 1137 348Q1139 -29 894 -29Q777 -29 774 -19L732 -140H587Q598 -91 621
-25Q464 -9 390 79Q299 187 299 438V1331H2V1556H592V438Q592 306 633 251Q662 213 704 200Z" />
<glyph unicode="&#x235;" glyph-name="uni0235" horiz-adv-x="1184" d="M965 216Q969 210 1005 211Q1087 211 1087 277T1054 344Q1013 344 965 216ZM849 248L885 354Q955 588 1055 588Q1178 588 1179 348Q1180 -29 984 -29Q891 -29 888 -19L855 -140H738Q747 -91
766 -25Q640 -9 581 79Q508 187 508 438V682Q508 813 490 856Q467 909 440 909Q377 909 346 838Q311 757 311 641V0H20V1120H311V1012Q327 1063 357 1096Q405 1147 489 1147Q616 1147 707 1042T799 727V438Q799 270 849 248Z" />
<glyph unicode="&#x236;" glyph-name="uni0236" horiz-adv-x="968" d="M743 216Q746 210 782 211Q865 211 865 277T832 344Q790 344 743 216ZM577 438Q576 270 626 248L663 354Q733 588 832 588Q955 588 956 348Q958 -29 762 -29Q668 -29 666 -19L632 -140H516Q525
-91 544 -25Q418 -9 359 79Q286 187 286 438V895H0V1120H286V1438H579V1120H962V895H579L577 438Z" />
<glyph unicode="&#x237;" glyph-name="dotlessj" horiz-adv-x="741" d="M717 43Q717 -209 627 -316T326 -424H10V-199H244Q342 -199 383 -144T424 43V895H127V1120H717V43Z" />
<glyph unicode="&#x238;" glyph-name="uni0238" horiz-adv-x="1203" d="M251 811Q214 719 214 557T251 303T355 211T460 303T499 557T461 811T356 903T251 811ZM951 303Q989 395 989 557T952 811T848 903T743 811T704 557T742 303T847 211T951 303ZM704 961Q741
1054 791 1100T905 1147Q1044 1147 1119 995T1194 559Q1194 279 1120 125T912 -29Q841 -29 789 20T704 166V0H499V166Q466 69 414 20T291 -29Q157 -29 83 125T9 559Q9 843 84 995T298 1147Q361 1147 411 1101T499 961V1556H704V961Z" />
<glyph unicode="&#x239;" glyph-name="uni0239" horiz-adv-x="1203" d="M951 307Q989 399 989 561T952 815T848 907T743 815T704 561T742 307T847 215T951 307ZM251 815Q214 723 214 561T251 307T355 215T460 307T499 561T461 815T356 907T251 815ZM499 157Q461
64 411 18T298 -29Q159 -29 84 123T9 559Q9 839 83 993T291 1147Q362 1147 414 1098T499 952V1118H704V952Q737 1049 789 1098T912 1147Q1046 1147 1120 993T1194 559Q1194 275 1119 123T905 -29Q842 -29 792 17T704 157V-438H499V157Z" />
<glyph unicode="&#x23a;" glyph-name="uni023A" horiz-adv-x="1242" d="M445 1493H806L866 1272L1068 1559L1230 1444L933 1023L1209 0H914L822 369H470L404 275L337 0H210L165 -63L75 0H42L47 20L3 51L88 172L445 1493ZM675 1003L625 1223L527 793L675 1003ZM642
612H765L735 743L642 612Z" />
<glyph unicode="&#x23b;" glyph-name="uni023B" horiz-adv-x="1243" d="M472 711L853 1250Q822 1255 798 1255Q636 1255 554 1127T471 745L475 720Q475 716 472 711ZM1093 43Q1023 7 946 -11T784 -29Q487 -29 328 164L168 -63L6 51L222 356Q164 519 164 745Q164
1122 323 1321T784 1520Q869 1520 947 1502Q983 1494 1016 1482L1071 1559L1233 1444L1093 1246V1120Q1065 1146 1037 1167L519 433Q534 395 554 364Q636 236 798 236Q874 236 945 268T1093 371V43Z" />
<glyph unicode="&#x23c;" glyph-name="uni023C" horiz-adv-x="1187" d="M144 -117L5 2L211 247Q148 377 148 559Q148 836 295 992T701 1149Q791 1149 874 1128Q906 1120 937 1109L1043 1235L1182 1114L1041 947V795Q1003 828 961 851L510 317Q516 309 522 301Q599
211 742 211Q827 211 901 239T1041 326V57Q967 14 882 -7T699 -29Q466 -29 325 97L144 -117ZM446 526L768 908Q755 909 742 909Q599 909 522 818T445 559Q445 542 446 526Z" />
<glyph unicode="&#x23d;" glyph-name="uni023D" horiz-adv-x="1181" d="M254 730V1493H550V730H794V538H550V260H1180V0H254V538H4V730H254Z" />
<glyph unicode="&#x23e;" glyph-name="uni023E" horiz-adv-x="1238" d="M467 0V354L172 -63L10 51L467 698V1235H88V1493H1028L1075 1559L1237 1444L1141 1308V1235H1089L762 772V0H467ZM762 1116L846 1235H762V1116Z" />
<glyph unicode="&#x23f;" glyph-name="uni023F" horiz-adv-x="919" d="M826 1085V829Q745 881 658 907T482 934Q384 934 334 906T284 821Q284 741 498 691L509 688L593 668Q753 630 827 546T902 317Q902 144 789 58T447 -29Q424 -29 401 -28L526 -193Q586 -273
745 -273H890V-492H753Q473 -492 343 -319L167 -86Q157 -74 25 41V297Q122 242 222 213T417 184Q520 184 573 214T626 301Q626 357 589 387T410 451L329 469Q161 507 84 588T7 805Q7 967 124 1057T453 1147Q548 1147 642 1132T826 1085Z" />
<glyph unicode="&#x240;" glyph-name="uni0240" horiz-adv-x="948" d="M29 1120H924V891L262 140Q313 99 358 40L534 -193Q594 -273 753 -273H924V-492H761Q481 -492 351 -319L175 -86Q110 0 5 0V229L595 901H29V1120Z" />
<glyph unicode="&#x241;" glyph-name="uni0241" horiz-adv-x="1184" d="M436 1213Q358 1213 357 1213Q314 1213 297 1192Q266 1156 264 1108Q263 1095 263 1061H8V1138Q8 1293 56 1359Q74 1383 107 1411Q182 1474 320 1488Q368 1492 436 1492L591 1493Q875 1494
1029 1366Q1181 1240 1181 1006Q1181 771 1029 645T591 518V0H296V797H638Q750 797 811 851T872 1006T811 1160Q750 1214 638 1214L436 1213Z" />
<glyph unicode="&#x243;" glyph-name="uni0243" horiz-adv-x="1188" d="M138 1495H619Q868 1495 993 1401T1119 1118Q1119 974 1045 893T828 799Q999 782 1085 684T1172 410Q1172 194 1042 97T619 0H138V338H13V575H138V1495ZM423 1260V913H619Q731 913 778 953T826
1085T778 1218T619 1260H423ZM423 338V236H619Q760 236 816 284T873 451Q873 572 814 625T619 678H423V575H656V338H423Z" />
<glyph unicode="&#x244;" glyph-name="uni0244" horiz-adv-x="1219" d="M14 538V730H99V1493H394V730H824V1493H1119V730H1205V538H1119Q1116 244 998 109Q877 -29 609 -29Q343 -29 221 109Q102 244 99 538H14ZM824 538H394V477Q394 365 451 302T609 238T767 301T824
477V538Z" />
<glyph unicode="&#x245;" glyph-name="uni0245" horiz-adv-x="1133" d="M567 1247L304 0H7L362 1493H771L1126 0H829L567 1247Z" />
<glyph unicode="&#x24c;" glyph-name="uni024C" horiz-adv-x="1232" d="M185 1493H548Q836 1493 961 1391T1087 1059Q1087 905 1012 814T796 705Q840 696 873 664Q904 632 952 537L1222 0H898L718 377Q697 420 697 421Q618 590 511 590H480V0H185V590H10V838H185V1493ZM480
1245V838H556Q677 838 729 885T782 1042T730 1198T556 1245H480Z" />
<glyph unicode="&#x24d;" glyph-name="uni024D" horiz-adv-x="974" d="M973 811Q925 855 861 877T719 899Q626 899 557 867T449 772Q425 734 416 680Q412 660 410 632H788V438H406V0H113V438H14V632H113V1120H406V946Q449 1042 538 1094T746 1147Q806 1147 863
1133T973 1090V811Z" />
<glyph unicode="&#x250;" glyph-name="uni0250" horiz-adv-x="1051" d="M431 592Q595 592 659 634Q725 676 725 778Q725 854 679 899Q635 944 557 944Q441 944 377 856Q313 769 313 612V592H431ZM23 479V1118H313V993Q367 1067 449 1107Q533 1147 633 1147Q823
1147 930 1046T1037 764Q1037 568 909 474Q783 381 517 381H313V332Q313 261 365 224Q417 188 517 188Q621 188 720 214Q819 241 925 299V49Q829 9 729 -10T517 -29Q243 -29 133 82T23 479Z" />
<glyph unicode="&#x251;" glyph-name="uni0251" horiz-adv-x="1037" d="M718 961V1119H1010V0H718V166Q671 69 597 20Q522 -29 421 -29Q229 -29 123 125T17 559Q17 843 125 995Q232 1147 431 1147Q521 1147 593 1100Q664 1054 718 961ZM364 811Q310 719 310 557T364
303T513 211T663 303T718 557T663 811T513 903T364 811Z" />
<glyph unicode="&#x252;" glyph-name="uni0252" horiz-adv-x="1036" d="M318 157V-1H26V1118H318V952Q365 1049 440 1098Q514 1147 615 1147Q807 1147 913 993T1019 559Q1019 275 912 123Q804 -29 605 -29Q515 -29 444 18Q372 64 318 157ZM672 307Q726 399 726
561T672 815T523 907T373 815T318 561T373 307T523 215T672 307Z" />
<glyph unicode="&#x253;" glyph-name="uni0253" horiz-adv-x="1027" d="M725 557Q725 719 671 811T522 903Q427 903 372 811T317 557Q317 395 372 303T522 211Q617 211 671 303T725 557ZM317 961Q371 1054 442 1100T604 1147Q803 1147 910 995T1018 559Q1018 279
912 125T614 -29Q513 -29 438 20T317 166V0H25V1088Q25 1340 115 1447T416 1555H732V1330H498Q400 1330 359 1275T317 1088V961Z" />
<glyph unicode="&#x254;" glyph-name="uni0254" horiz-adv-x="928" d="M23 1063Q97 1106 182 1127T365 1149Q624 1149 770 993T916 561Q916 284 769 128T363 -29Q273 -29 190 -8T23 57V325Q87 270 163 241T322 211Q465 211 542 302T619 561Q619 729 542 819T322
909Q237 909 163 881T23 794V1063Z" />
<glyph unicode="&#x255;" glyph-name="uni0255" horiz-adv-x="937" d="M510 232Q567 208 621 207H626Q773 207 772 264Q771 339 640 339Q557 339 510 232ZM355 334L358 351Q461 532 630 532Q916 527 919 294Q924 -29 609 -29Q507 -29 503 -28Q500 -28 497 -27V-141L297
-140Q297 -47 298 24Q217 62 156 127Q10 283 10 559Q10 836 157 992Q304 1149 563 1149Q653 1149 736 1128Q820 1107 903 1063V795Q839 850 762 880Q686 909 604 909Q461 909 384 818T307 559Q307 405 355 334Z" />
<glyph unicode="&#x256;" glyph-name="uni0256" horiz-adv-x="1041" d="M332 811Q289 719 289 557T332 303T451 211T571 303T615 557T571 811T451 903T332 811ZM615 961V1556H905V136Q905 4 927 -51T1003 -106H1024V-331H927Q759 -331 687 -223Q615 -116 615 136V166Q578
69 518 20Q459 -29 378 -29Q198 -29 98 125Q0 279 0 559Q0 843 100 995T387 1147Q458 1147 515 1100Q572 1054 615 961Z" />
<glyph unicode="&#x257;" glyph-name="uni0257" horiz-adv-x="1051" d="M341 811Q298 719 298 557T341 303T460 211T580 303T624 557T580 811T460 903T341 811ZM922 1088V0H624V166Q587 69 527 20T386 -29Q204 -29 104 125T3 559Q3 843 104 995T395 1147Q467 1147
524 1100Q581 1054 624 961L626 1088Q630 1344 699 1447Q771 1555 939 1555H1036V1330H1015Q963 1330 942 1275Q922 1222 922 1088Z" />
<glyph unicode="&#x258;" glyph-name="uni0258" horiz-adv-x="1087" d="M63 55Q63 55 63 324Q170 261 268 232T467 203Q620 203 697 268T775 465H16V584Q16 852 154 1000Q291 1147 540 1147Q787 1147 930 988T1073 555Q1073 272 924 122Q776 -29 495 -29Q377 -29
271 -8T63 55ZM311 685L772 684Q761 797 701 858Q641 920 540 920Q428 920 370 860Q313 801 311 685Z" />
<glyph unicode="&#x259;" glyph-name="uni0259" horiz-adv-x="1087" d="M16 534V653H775V663Q774 795 697 855T467 915Q366 915 268 886T63 794V1063Q165 1105 271 1126T495 1147Q776 1147 924 997T1073 563Q1073 289 930 130T540 -29Q291 -29 154 118T16 534ZM311
433Q313 317 370 258T540 198Q641 198 701 259T772 433H311Z" />
<glyph unicode="&#x25a;" glyph-name="uni025A" horiz-adv-x="1239" d="M617 540L299 295Q305 283 313 272Q358 209 430 209Q508 209 557 268Q605 326 617 436V540ZM879 736Q894 655 894 559Q894 285 770 128T428 -29Q230 -29 111 130Q47 216 17 334L594 777Q578
818 552 846Q493 909 389 909Q304 909 215 876Q126 842 32 774V1050Q128 1098 223 1122Q318 1147 413 1147Q641 1147 768 992Q787 969 803 942L968 1072L1118 1074V903Q1118 678 1121 671Q1150 616 1203 616H1236V436H1164Q1051 436 992 547Q968 638 968 804L879
736Z" />
<glyph unicode="&#x25b;" glyph-name="uni025B" horiz-adv-x="930" d="M14 312Q14 433 94 508T326 604Q191 623 119 686T47 850Q47 985 172 1062T522 1140Q628 1140 687 1131T867 1092V877Q762 911 688 924T554 938Q436 938 377 905T318 818Q318 774 375 742T537
710H688V487H537Q416 487 350 440T283 326Q283 265 350 223T551 181Q651 181 721 193T910 253V34Q776 -2 695 -12T503 -22Q279 -22 147 64T14 312Z" />
<glyph unicode="&#x25c;" glyph-name="uni025C" horiz-adv-x="1063" d="M727 573Q879 550 964 476T1049 273Q1049 161 891 70T438 -22Q340 -22 236 -8T20 34V270Q108 236 213 219T432 201Q545 201 614 221T683 330Q683 409 603 435T473 462H290V681H407Q511 681
583 708T656 804Q656 853 589 884T399 915Q395 915 299 905T67 863V1099Q188 1123 293 1135T491 1147Q732 1147 872 1068T1012 816Q1012 729 940 664T727 573Z" />
<glyph unicode="&#x25d;" glyph-name="uni025D" horiz-adv-x="1163" d="M553 573Q667 550 730 476Q794 402 794 273Q794 161 675 69Q558 -22 336 -22Q262 -22 184 -8T22 34V270Q89 236 167 219Q246 201 331 201Q403 201 442 216Q520 246 520 330Q520 409 447 441Q400
462 362 462H225V681H313Q388 681 437 705Q500 735 500 804Q500 850 436 891Q398 915 307 915Q304 915 222 903Q160 894 58 863V1099Q148 1123 228 1135Q307 1147 376 1147Q556 1147 661 1068Q723 1022 748 944L907 1072L1057 1074V903Q1057 690 1066 671Q1094
616 1126 616H1159V436H1087Q997 436 937 547Q907 638 907 804L673 623L672 626Q624 590 553 573Z" />
<glyph unicode="&#x25e;" glyph-name="uni025E" horiz-adv-x="1049" d="M554 915Q289 915 288 552Q288 188 586 188Q656 188 696 216Q749 253 749 316Q749 388 691 420Q653 442 579 442H447V661H580Q644 661 686 684Q749 718 749 792Q749 847 690 882Q633 916
554 915ZM314 1099Q403 1144 601 1145Q809 1145 920 1059Q1030 972 1030 824Q1030 726 972 650Q916 578 781 552Q912 526 972 453Q1030 382 1030 279Q1030 131 920 45Q811 -41 601 -42Q403 -43 314 18Q13 220 13 552Q13 948 314 1099Z" />
<glyph unicode="&#x25f;" glyph-name="uni025F" horiz-adv-x="925" d="M720 43Q720 -209 630 -316T329 -424H13V-199H247Q345 -199 386 -144T427 43V438H148V632H427V895H130V1120H720V632H922V438H720V43Z" />
<glyph unicode="&#x260;" glyph-name="uni0260" horiz-adv-x="1209" d="M489 887Q400 887 351 805Q301 723 301 573Q301 419 349 340Q397 260 489 260Q579 260 628 342Q678 424 678 573V887H489ZM678 190Q619 92 547 46Q476 0 383 0Q219 0 111 162Q4 323 4 573Q4
799 111 960Q219 1120 383 1120H678H680Q685 1324 767 1438Q854 1556 978 1556H1203V1321H1070Q1028 1321 998 1275Q967 1229 967 1094V874H966V113Q966 -141 829 -284Q693 -426 434 -426Q350 -426 271 -410Q193 -394 114 -361V-98Q189 -152 261 -178Q333 -205
406 -205Q547 -205 612 -128Q678 -51 678 113V190Z" />
<glyph unicode="&#x261;" glyph-name="uni0261" horiz-adv-x="1022" d="M704 190Q643 92 570 46T402 0Q233 0 124 162Q14 323 14 573Q14 799 124 960Q233 1120 402 1120H704H999V113Q999 -141 860 -284Q720 -426 454 -426Q368 -426 288 -410Q207 -394 126 -361V-98Q203
-152 277 -178Q351 -205 425 -205Q570 -205 637 -128T704 113V190ZM511 887Q420 887 369 805T318 573Q318 419 367 340Q416 260 511 260Q602 260 653 342T704 573V887H511Z" />
<glyph unicode="&#x262;" glyph-name="uni0262" horiz-adv-x="960" d="M938 101Q845 51 744 25Q644 0 537 0Q295 0 154 151Q13 301 13 559Q13 820 157 970Q301 1119 551 1119Q647 1119 736 1099Q824 1079 903 1039V803Q822 852 742 876Q661 900 581 900Q432 900
351 811Q271 723 271 559Q271 397 348 308Q426 219 569 219Q608 219 642 225Q675 230 702 241L700 409H452V630H938V101Z" />
<glyph unicode="&#x263;" glyph-name="uni0263" horiz-adv-x="1060" d="M705 590Q948 208 950 -179Q951 -411 542 -415Q92 -420 91 -179Q90 163 356 588L12 1135H335L529 803L726 1135H1049L705 590ZM529 369Q338 59 341 -67Q343 -191 524 -191Q698 -191 698 -67Q698
95 529 369Z" />
<glyph unicode="&#x264;" glyph-name="uni0264" horiz-adv-x="1051" d="M523 136Q568 136 568 223Q568 282 524 354Q480 280 480 223Q480 140 523 136ZM346 586L7 1120H330L524 788L721 1120H1044L699 575Q850 336 851 132Q854 -120 526 -120Q189 -120 189 132Q189
344 346 586Z" />
<glyph unicode="&#x265;" glyph-name="uni0265" horiz-adv-x="931" d="M5 391V1118H296V436Q296 315 330 263Q365 211 443 211Q523 211 568 282Q613 352 613 477V1118H904V-438H613V166Q582 73 507 22T326 -29Q167 -29 86 76Q5 182 5 391Z" />
<glyph unicode="&#x266;" glyph-name="uni0266" horiz-adv-x="934" d="M924 727V0H633V682Q633 803 598 855Q564 907 486 907Q406 907 361 836Q316 766 316 641V0H25V1088Q25 1340 116 1447Q206 1555 416 1555H537V1330H498Q398 1330 357 1275T316 1088V952Q347
1045 422 1096T603 1147Q762 1147 843 1042Q924 936 924 727Z" />
<glyph unicode="&#x267;" glyph-name="uni0267" horiz-adv-x="922" d="M620 41V682Q620 803 585 855Q551 907 473 907Q393 907 348 836Q303 766 303 641V0H12V1088Q12 1340 103 1447Q193 1555 403 1555H524V1330H485Q385 1330 344 1275T303 1088V952Q334 1045
409 1096T590 1147Q749 1147 830 1042Q911 936 911 727L910 0Q903 -220 820 -318Q730 -426 520 -426H399V-201H438Q538 -201 579 -146T620 41Z" />
<glyph unicode="&#x268;" glyph-name="uni0268" horiz-adv-x="1034" d="M308 1556H666V1264H308V1556ZM86 1120H666V632H868V438H666V225H1030V0H8V225H372V438H94V632H372V895H86V1120Z" />
<glyph unicode="&#x269;" glyph-name="uni0269" horiz-adv-x="950" d="M288 895H2V1120H582V460Q582 318 620 272Q658 227 760 226L946 225V-3H712Q507 -3 398 115Q288 235 288 459V895Z" />
<glyph unicode="&#x26a;" glyph-name="uni026A" horiz-adv-x="1060" d="M685 895V225H1049V0H27V225H391V895H27V1120H1049V895H685Z" />
<glyph unicode="&#x26b;" glyph-name="uni026B" horiz-adv-x="1067" d="M1060 811V578Q986 518 914 490Q842 463 764 463Q710 463 648 481V465Q648 333 688 278Q730 223 828 223H1062V-2H746Q536 -2 446 106Q354 214 354 465V582Q325 586 296 586Q218 586 148
557T4 465V694Q82 755 154 782Q228 809 310 809Q332 809 354 807V1329H58V1554H648V709Q719 686 780 686Q850 686 918 716Q988 747 1060 811Z" />
<glyph unicode="&#x26c;" glyph-name="uni026C" horiz-adv-x="1028" d="M286 816Q258 842 227 842Q168 842 169 792Q170 736 220 736H316Q304 799 286 816ZM611 579V467Q611 335 652 280T791 225H1025V0H709Q500 0 409 108T318 467V578H195Q11 579 8 786Q6 1020
215 1019Q279 1018 318 977V1331H21V1556H611V736H880V580L611 579Z" />
<glyph unicode="&#x26d;" glyph-name="uni026D" horiz-adv-x="1007" d="M300 23V1331H2V1556H592V23Q592 -109 634 -164Q674 -219 772 -219H1006V-444H690Q482 -444 390 -336Q300 -228 300 23Z" />
<glyph unicode="&#x26e;" glyph-name="uni026E" horiz-adv-x="1187" d="M575 452L867 901H446V467Q446 335 476 280T581 225H756V0H519Q363 0 295 108T226 467V1331H3V1556H446V1120H1114V891L821 436Q929 427 988 404Q1071 371 1131 258Q1184 156 1184 13Q1184
-209 1069 -324Q954 -440 734 -440Q657 -440 579 -422Q501 -403 424 -366V-69Q495 -122 568 -150T711 -178Q814 -178 868 -125T923 27Q923 129 867 182Q811 234 701 234H575V452Z" />
<glyph unicode="&#x26f;" glyph-name="uni026F" horiz-adv-x="1125" d="M490 112Q457 41 406 7T281 -27Q136 -27 81 73Q25 173 25 489V1120H265V401Q265 276 284 234T353 192T423 235T443 401V1120H680V401Q680 278 700 235T770 192T839 234T858 401V1120H1098V0H885V116Q860
50 805 12Q750 -27 682 -27T558 14Q502 54 490 112Z" />
<glyph unicode="&#x270;" glyph-name="uni0270" horiz-adv-x="1104" d="M469 112Q436 41 385 7T260 -27Q115 -27 60 73Q4 173 4 489V1120H244V401Q244 276 263 234T332 192T402 235T422 401V1120H659V401Q659 278 679 235T749 192T818 234T837 401V1120H1077V-426H864V116Q839
50 784 12Q729 -27 661 -27T537 14Q481 54 469 112Z" />
<glyph unicode="&#x271;" glyph-name="uni0271" horiz-adv-x="1104" d="M615 1008Q648 1078 699 1113Q749 1147 824 1147Q970 1147 1025 1047Q1080 947 1080 631V0Q1076 -218 1005 -318Q931 -426 757 -426H658V-201H690Q772 -201 806 -146Q840 -91 840 41V719Q840
845 821 886Q801 928 752 928Q701 928 682 885Q662 840 662 719V0H425V719Q425 840 405 885Q386 928 335 928Q285 928 266 886Q247 845 247 719V0H7V1120H220V1004Q246 1072 300 1108Q355 1147 423 1147Q491 1147 547 1106T615 1008Z" />
<glyph unicode="&#x272;" glyph-name="uni0272" horiz-adv-x="1122" d="M1117 682V0H820V111V522Q820 667 815 722Q809 777 796 803Q779 838 749 858Q719 877 681 877Q589 877 536 790Q483 704 483 551V240V20V0Q483 -203 393 -324Q304 -442 134 -442H12V-207H40Q122
-207 155 -161T188 20V240V1120H483V956Q550 1054 625 1100Q700 1147 791 1147Q951 1147 1034 1028T1117 682Z" />
<glyph unicode="&#x273;" glyph-name="uni0273" horiz-adv-x="1114" d="M633 722Q633 767 614 803T567 858Q538 877 499 877Q414 877 354 790Q301 715 301 551V0H6V1120H301V956Q368 1054 443 1100Q519 1147 609 1147Q770 1147 852 1028Q935 908 935 682V20Q935
-114 966 -161Q996 -207 1081 -207H1103V-442H986Q817 -442 728 -324Q633 -196 633 0V722Z" />
<glyph unicode="&#x274;" glyph-name="uni0274" horiz-adv-x="1047" d="M27 1120H414L691 469V1120H1020V0H633L356 651V0H27V1120Z" />
<glyph unicode="&#x275;" glyph-name="uni0275" horiz-adv-x="1065" d="M154 988Q295 1147 532 1147Q770 1147 910 988Q1051 830 1051 559T910 130Q770 -29 532 -29Q295 -29 154 130Q14 288 14 559T154 988ZM532 909Q427 909 367 816Q321 745 310 632H718H755Q744
745 698 816Q638 909 532 909ZM748 438H360H317Q331 357 367 302Q427 209 532 209Q638 209 698 302Q734 357 748 438Z" />
<glyph unicode="&#x276;" glyph-name="uni0276" horiz-adv-x="1126" d="M564 902H489Q372 902 314 817T256 561Q256 389 314 304Q372 218 489 218H564V902ZM517 1120H1088V902H807V693H1069V475H807V218H1100V0H517Q511 0 499 -1T481 -2Q257 -2 137 144T17 561Q17
831 137 976T481 1121Q486 1121 499 1120Q511 1120 517 1120Z" />
<glyph unicode="&#x277;" glyph-name="uni0277" horiz-adv-x="1104" d="M749 566Q749 919 553 920Q356 920 356 564Q356 404 371 334T406 264Q437 264 447 342Q454 399 454 490V596H651V488Q651 392 658 347Q671 264 695 264Q719 263 731 343Q749 461 749 566ZM1045
828Q1086 725 1087 496Q1087 255 1009 128Q931 0 798 0Q709 0 641 68Q577 132 553 288Q529 137 464 68Q400 0 307 0Q174 0 97 128Q19 254 18 496Q17 709 61 828Q187 1176 553 1176Q909 1176 1045 828Z" />
<glyph unicode="&#x278;" glyph-name="uni0278" horiz-adv-x="1214" d="M172 988Q287 1102 460 1134V1335H163V1560H460H753H1050V1335H753V1134Q926 1102 1041 988Q1203 830 1203 559T1041 130Q926 16 753 -16V-201H1050V-426H753H460H163V-201H460V-16Q287 16
172 130Q10 288 10 559T172 988ZM460 246V872Q425 850 397 816Q321 724 321 559T397 302Q425 268 460 246ZM753 871V247Q788 268 816 302Q892 394 892 559T816 816Q788 850 753 871Z" />
<glyph unicode="&#x279;" glyph-name="uni0279" horiz-adv-x="887" d="M0 309Q48 265 113 243T254 221Q348 221 417 254Q486 286 524 348Q548 386 558 440T568 604V1120H860V0H568V174Q524 78 436 26Q346 -27 228 -27Q168 -27 110 -12Q52 2 0 30V309Z" />
<glyph unicode="&#x27a;" glyph-name="uni027A" horiz-adv-x="887" d="M0 309Q48 265 113 243T254 221Q348 221 417 254Q486 286 524 348Q547 383 558 440Q568 487 568 604V1554H860V0H568V174Q524 78 436 26Q346 -27 228 -27Q168 -27 110 -12Q52 2 0 30V309Z" />
<glyph unicode="&#x27b;" glyph-name="uni027B" horiz-adv-x="1091" d="M0 309Q48 265 113 243Q177 221 254 221Q347 221 417 254Q486 286 524 348Q548 386 557 440Q567 494 567 604V1120H860L859 0Q859 -92 899 -146Q940 -201 1040 -201H1079V-426H958Q748 -426
658 -318Q575 -220 568 0H567V41V174Q524 78 435 26Q346 -27 227 -27Q167 -27 109 -12Q52 2 0 30V309Z" />
<glyph unicode="&#x27c;" glyph-name="uni027C" horiz-adv-x="887" d="M887 811Q839 855 775 877T633 899Q541 899 471 866Q401 834 363 772Q339 734 330 680T321 516V-426H27V1120H321V946Q363 1042 453 1094Q541 1147 661 1147Q721 1147 778 1132Q835 1118 887
1090V811Z" />
<glyph unicode="&#x27d;" glyph-name="uni027D" horiz-adv-x="887" d="M884 811Q836 855 772 877T630 899Q538 899 468 866Q398 834 360 772Q336 734 327 680T318 516V41Q318 -91 358 -146Q400 -201 502 -201H540V-426H420Q210 -426 120 -318Q24 -206 24 41V1120H318V946Q360
1042 450 1094Q538 1147 658 1147Q718 1147 775 1132Q832 1118 884 1090V811Z" />
<glyph unicode="&#x27e;" glyph-name="uni027E" horiz-adv-x="976" d="M4 0V225H290V741Q290 959 378 1040Q468 1120 720 1120H966V895H740Q656 895 619 862Q582 830 582 755V225H966V0H4Z" />
<glyph unicode="&#x27f;" glyph-name="uni027F" horiz-adv-x="993" d="M27 0V225H409V755Q409 830 373 862Q337 895 251 895H27V1120H273Q525 1120 613 1040Q703 959 703 741V225H989V0H27Z" />
<glyph unicode="&#x280;" glyph-name="uni0280" horiz-adv-x="1059" d="M627 529Q669 521 699 498Q756 453 777 427Q787 415 795 403L1051 0H699L529 283Q521 295 509 316Q457 403 418 426Q391 442 355 442H337V0H27V1120H391Q664 1120 783 1043Q903 967 903 794Q903
678 831 610Q761 543 627 529ZM337 894V648H399Q486 648 527 676L539 684Q588 724 589 782Q589 819 558 844Q551 850 539 858Q496 890 430 893Q416 894 399 894H337Z" />
<glyph unicode="&#x281;" glyph-name="uni0281" horiz-adv-x="1139" d="M464 490H385V219H464Q555 219 594 249Q634 281 634 353Q634 426 594 458Q555 490 464 490ZM385 711H422Q497 711 542 742Q585 771 622 842L767 1120H1130L963 802Q912 705 862 658Q812 610
749 596Q864 563 921 492Q978 420 978 309Q978 149 868 74Q758 0 522 0H27V1120H385V711Z" />
<glyph unicode="&#x282;" glyph-name="uni0282" horiz-adv-x="917" d="M836 1085V829Q755 881 668 908Q580 934 492 934Q394 934 344 906Q294 877 294 821Q294 741 508 691L519 688L603 668Q763 630 838 546Q912 461 912 317Q912 144 798 58Q685 -29 457 -29Q394
-29 329 -22Q337 -105 367 -146Q408 -201 508 -201H547V-426H426Q216 -426 126 -318Q35 -211 35 41V297Q132 242 232 213Q333 184 427 184Q530 184 583 214T636 301Q636 357 598 387Q561 417 420 451L339 469Q171 507 94 588T17 805Q17 967 134 1057T463 1147Q558
1147 652 1132Q747 1116 836 1085Z" />
<glyph unicode="&#x283;" glyph-name="uni0283" horiz-adv-x="1052" d="M707 0Q701 -217 617 -316Q525 -424 316 -424H0V-199H234Q333 -199 373 -144Q414 -88 414 43V1198Q414 1400 498 1478T810 1556H1051V1331H822Q755 1331 733 1307Q709 1282 707 1218V0Z" />
<glyph unicode="&#x284;" glyph-name="uni0284" horiz-adv-x="1055" d="M709 438V0H708Q701 -218 619 -316Q528 -424 318 -424H2V-199H236Q334 -199 375 -144T416 43V438H137V632H416V895H119V1120H416V1198Q416 1400 500 1478T812 1556H1053V1331H824Q758 1331
735 1307T709 1218V632H911V438H709Z" />
<glyph unicode="&#x285;" glyph-name="uni0285" horiz-adv-x="1052" d="M345 0V1218Q344 1282 319 1307Q296 1331 230 1331H1V1556H242Q470 1556 554 1478T638 1198V43Q638 -88 679 -144Q719 -199 818 -199H1052V-424H736Q526 -424 435 -316Q351 -217 345 0Z" />
<glyph unicode="&#x286;" glyph-name="uni0286" horiz-adv-x="1091" d="M744 145H883H1051V-65Q995 -66 879 -66H742Q729 -227 654 -316Q562 -424 353 -424H303V-423Q1 -413 5 -131Q8 145 316 145H451V1198Q451 1400 535 1478T847 1556H1088V1331H859Q795 1331
770 1307Q744 1282 744 1218V145ZM442 -65Q389 -65 317 -65Q212 -65 211 -141Q210 -194 274 -199Q370 -198 410 -144Q431 -115 442 -65ZM274 -199H303H274Z" />
<glyph unicode="&#x287;" glyph-name="uni0287" horiz-adv-x="968" d="M388 -318V0H6V225H388V755Q388 830 352 862Q316 895 230 895H6V1120H252Q504 1120 592 1040Q682 959 682 741V225H968V0H682V-318H388Z" />
<glyph unicode="&#x288;" glyph-name="uni0288" horiz-adv-x="966" d="M578 1438V1120H962V895H578V-61Q578 -136 615 -168Q652 -201 736 -201H962V-426H716Q464 -426 374 -346Q286 -265 286 -47V895H0V1120H286V1438H578Z" />
<glyph unicode="&#x289;" glyph-name="uni0289" d="M999 438V0H705V166Q675 73 600 22T421 -29Q261 -29 179 77T97 391V438H15V632H97V1120H391V632H705V1120H999V632H1071V438H999ZM704 438H391V436Q391 315 425 263T537 211Q617 211 661 281Q698 340 704 438Z" />
<glyph unicode="&#x28a;" glyph-name="uni028A" horiz-adv-x="1099" d="M483 837Q419 761 389 680Q346 565 346 458Q346 316 403 228Q460 141 554 141Q649 141 705 228Q762 316 762 458Q762 565 719 680Q688 764 624 836V1120H1081V923H875Q951 864 1020 731Q1076
623 1076 465Q1076 211 930 54Q784 -104 552 -104Q321 -104 175 53T29 457Q29 619 83 731Q145 858 224 923H18V1120H483V837Z" />
<glyph unicode="&#x28b;" glyph-name="uni028B" d="M902 1027Q967 968 1026 835Q1074 727 1074 569Q1074 315 949 158Q824 0 626 0L515 -2Q351 -5 260 116Q170 236 170 460V774V895H9V1120H170H463V774V460Q463 291 471 279Q505 227 542 231L559 233Q655 233 723
330Q784 418 784 560Q784 667 737 782Q704 866 636 938L634 1120Q806 1115 902 1027Z" />
<glyph unicode="&#x28c;" glyph-name="uni028C" horiz-adv-x="1085" d="M6 0L362 1120H723L1079 0H782L543 874L303 0H6Z" />
<glyph unicode="&#x28d;" glyph-name="uni028D" horiz-adv-x="1263" d="M1248 0H1003L870 772L737 0H526L394 764L260 0H15L223 1120H499L632 350L764 1120H1040L1248 0Z" />
<glyph unicode="&#x28e;" glyph-name="uni028E" horiz-adv-x="1136" d="M466 1241Q525 1399 607 1472Q690 1544 808 1544H1050V1321H931Q841 1321 799 1290Q757 1260 714 1149L692 1089L1118 0H810L554 727L309 0H1L466 1241Z" />
<glyph unicode="&#x28f;" glyph-name="uni028F" horiz-adv-x="1101" d="M2 1120H337L550 775L762 1120H1099L689 472V0H412V472L2 1120Z" />
<glyph unicode="&#x290;" glyph-name="uni0290" horiz-adv-x="1153" d="M25 1120H921V891L331 219H921V41Q921 -91 961 -146Q1003 -201 1103 -201H1141V-426H1021Q811 -426 721 -318Q637 -220 630 0H1V229L591 901H25V1120Z" />
<glyph unicode="&#x291;" glyph-name="uni0291" horiz-adv-x="1029" d="M745 220H784Q822 220 825 277Q830 348 798 352Q751 358 745 220ZM37 1120H932V891L343 219H561Q583 337 633 428Q726 599 804 599Q1006 599 1010 323Q1014 0 771 0H739Q739 -48 742 -112L539
-111Q539 -56 542 0H13V229L603 901H37V1120Z" />
<glyph unicode="&#x292;" glyph-name="uni0292" horiz-adv-x="1046" d="M220 452L610 901H44V1120H939V891L548 436Q693 427 771 404Q884 371 961 258Q1032 156 1032 13Q1032 -209 879 -324Q726 -440 432 -440Q329 -440 225 -422Q121 -403 19 -366V-69Q116 -123
212 -150Q308 -178 401 -178Q539 -178 612 -125T685 27Q685 129 610 182Q535 234 388 234H220V452Z" />
<glyph unicode="&#x293;" glyph-name="uni0293" horiz-adv-x="1064" d="M625 -125Q582 -60 394 -51Q245 -45 244 -130Q243 -182 383 -183Q395 -183 408 -183Q507 -181 559 -162Q598 -148 625 -125ZM238 452L628 901H62V1120H957V891L565 436Q711 427 788 404Q901
371 979 258Q1049 156 1049 13Q1049 -209 896 -324Q914 -370 914 -410L744 -416V-404L737 -405Q589 -440 426 -440L428 -438H426Q15 -417 18 -116Q21 159 393 159Q573 159 700 68Q687 140 628 182Q553 234 406 234H238V452Z" />
<glyph unicode="&#x294;" glyph-name="uni0294" horiz-adv-x="916" d="M190 736H274Q469 736 547 850Q598 926 598 997Q597 1093 546 1159Q457 1273 296 1273Q224 1273 152 1251Q82 1230 12 1187V1485Q80 1520 153 1537Q226 1555 389 1555Q605 1556 794 1345Q913
1212 913 997Q913 766 773 621Q682 527 512 496V0H190V736Z" />
<glyph unicode="&#x295;" glyph-name="uni0295" horiz-adv-x="916" d="M726 736V0H404V496Q234 527 143 621Q3 766 3 997Q3 1212 122 1345Q311 1556 527 1555Q690 1555 763 1537Q836 1520 904 1485V1187Q834 1230 764 1251Q692 1273 620 1273Q459 1273 370 1159Q319
1093 318 997Q318 926 369 850Q447 736 642 736H726Z" />
<glyph unicode="&#x296;" glyph-name="uni0296" horiz-adv-x="916" d="M190 819V1555H512V1059Q682 1028 773 934Q913 789 913 558Q913 343 794 210Q605 -1 389 0Q226 0 153 18Q80 35 12 70V368Q82 325 152 304Q224 282 296 282Q457 282 546 396Q597 462 598 558Q598
629 547 705Q469 819 274 819H190Z" />
<glyph unicode="&#x297;" glyph-name="uni0297" horiz-adv-x="943" d="M333 132Q334 36 385 -30Q474 -144 635 -144Q707 -144 779 -122Q849 -101 919 -58V-356Q851 -391 778 -408Q705 -426 542 -426Q326 -427 137 -216Q18 -83 18 132V997Q18 1212 137 1345Q326
1556 542 1555Q705 1555 778 1537Q851 1520 919 1485V1187Q849 1230 779 1251Q707 1273 635 1273Q474 1273 385 1159Q333 1092 333 997V132Z" />
<glyph unicode="&#x298;" glyph-name="uni0298" horiz-adv-x="1149" d="M283 566Q283 432 370 338Q455 244 576 244Q696 244 781 338T866 566Q866 697 780 794T576 891Q455 891 370 794Q283 697 283 566ZM13 565Q13 818 179 1005Q344 1192 577 1192Q805 1192 971
1005Q1136 818 1136 565Q1136 306 973 125Q810 -57 577 -57T179 125Q13 306 13 565ZM457 567Q457 620 492 659Q526 698 575 698Q635 698 658 659Q692 612 692 567Q692 513 658 475T575 437T492 475Q457 513 457 567Z" />
<glyph unicode="&#x299;" glyph-name="uni0299" horiz-adv-x="1038" d="M355 465V262H522Q616 262 663 287T710 364Q710 415 663 440T522 465H355ZM355 895V698H511Q583 698 622 722T661 796Q661 844 623 869T511 895H355ZM27 1120H495Q747 1120 860 1050T973
824Q973 742 932 685T812 599Q912 572 967 500T1022 321Q1022 159 904 80T544 0H27V1120Z" />
<glyph unicode="&#x29a;" glyph-name="uni029A" horiz-adv-x="1049" d="M495 188Q760 188 761 551Q761 915 463 915Q393 915 353 887Q300 850 300 787Q300 715 358 683Q396 661 470 661H602V442H469Q405 442 363 419Q300 385 300 311Q300 256 359 221Q416 187
495 188ZM735 4Q646 -41 448 -42Q240 -42 129 44Q19 131 19 279Q19 377 77 453Q133 525 268 551Q137 577 77 650Q19 721 19 824Q19 972 129 1058Q238 1144 448 1145Q646 1146 735 1085Q1036 883 1036 551Q1036 155 735 4Z" />
<glyph unicode="&#x29b;" glyph-name="uni029B" horiz-adv-x="1124" d="M928 101Q834 51 734 25Q634 0 527 0Q285 0 144 151Q2 301 2 559Q2 820 146 970Q290 1119 540 1119Q571 1119 601 1117Q606 1346 692 1447Q782 1555 992 1555H1113V1330H1074Q974 1330 933
1275T892 1088V803Q811 852 731 876T571 900Q422 900 341 811Q260 723 260 559Q260 397 338 308T559 219Q598 219 631 225Q665 230 691 241L690 409H442V630H928V101Z" />
<glyph unicode="&#x29c;" glyph-name="uni029C" horiz-adv-x="1047" d="M27 1120H353V715H694V1120H1020V0H694V463H353V0H27V1120Z" />
<glyph unicode="&#x29d;" glyph-name="uni029D" horiz-adv-x="1056" d="M882 1323H589V1665H882V1323ZM882 144H1050V-66Q994 -67 878 -67H877Q861 -233 791 -316Q701 -423 491 -424L302 -425V-424Q0 -414 4 -132Q7 144 315 144H588H589V895H292V1120H882V144ZM579
-67Q558 -66 316 -66Q211 -66 210 -142Q209 -206 302 -200L409 -199Q507 -198 548 -144Q569 -116 579 -67Z" />
<glyph unicode="&#x29e;" glyph-name="uni029E" horiz-adv-x="1051" d="M1024 -426H732V381L380 0H24L448 418L0 1120H324L632 596L732 692V1120H1024V-426Z" />
<glyph unicode="&#x29f;" glyph-name="uni029F" horiz-adv-x="790" d="M28 1120H352L351 291H790V0H27L28 1120Z" />
<glyph unicode="&#x2a0;" glyph-name="uni02A0" horiz-adv-x="1046" d="M622 158Q580 67 521 18Q464 -29 392 -29Q204 -29 102 123T0 559Q0 839 100 993T383 1147Q465 1147 525 1098Q584 1049 622 952V1088H620Q620 1338 693 1447Q765 1555 933 1555H1030V1330H1009Q955
1330 933 1275Q911 1221 911 1120V-426H622V158ZM339 307Q382 215 458 215T578 307T622 561T578 815T458 907T339 815Q295 723 295 561T339 307Z" />
<glyph unicode="&#x2a1;" glyph-name="uni02A1" horiz-adv-x="960" d="M231 736H315Q510 736 588 850Q639 926 639 997Q639 1093 587 1159Q498 1273 337 1273Q265 1273 193 1251Q123 1230 53 1187V1485Q121 1520 194 1537Q267 1555 430 1555Q647 1555 835 1345Q954
1212 954 997Q954 766 814 621Q723 527 553 496V384H585H786V190H553V0H231V190H227H13V384H231V736Z" />
<glyph unicode="&#x2a2;" glyph-name="uni02A2" horiz-adv-x="960" d="M407 384V496Q237 527 146 621Q6 766 6 997Q6 1212 125 1345Q313 1555 530 1555Q693 1555 766 1537Q839 1520 907 1485V1187Q837 1230 767 1251Q695 1273 623 1273Q462 1273 373 1159Q321
1093 321 997Q321 926 372 850Q450 736 645 736H729V384H947V190H733H729V0H407V190H174V384H375H407Z" />
<glyph unicode="&#x2a3;" glyph-name="uni02A3" horiz-adv-x="1147" d="M219 303Q252 211 309 211T399 303T432 557T399 811T309 903T219 811Q187 719 187 557T219 303ZM432 961V1556H607V1120H1142V891L789 219H1142V0H607H591H432V166Q403 69 359 20Q314 -29
253 -29Q138 -29 75 125Q11 279 11 559Q11 843 76 995Q140 1147 259 1147Q313 1147 356 1100Q399 1054 432 961ZM607 901V259L945 901H607Z" />
<glyph unicode="&#x2a4;" glyph-name="uni02A4" horiz-adv-x="1196" d="M703 444L937 893H599V-8H424V158Q396 61 351 12T246 -37Q131 -37 67 117T3 551Q3 835 68 987Q132 1139 252 1139Q306 1139 349 1092Q392 1046 424 953V1548H599V1112H1134V883L899 428Q987
419 1033 396Q1101 363 1147 250Q1190 148 1190 5Q1190 -217 1098 -332Q1006 -448 830 -448Q768 -448 706 -430Q643 -411 582 -374V-77Q641 -131 698 -158Q756 -186 811 -186Q894 -186 938 -133T982 19Q982 121 937 174Q892 226 804 226H703V444ZM212 295Q244 203
301 203T391 295T424 549T391 803T301 895T212 803Q179 711 179 549T212 295Z" />
<glyph unicode="&#x2a5;" glyph-name="uni02A5" horiz-adv-x="1196" d="M1028 220H1051Q1073 220 1076 277Q1079 348 1059 352Q1031 358 1028 220ZM217 303Q249 211 306 211T396 303T429 557T396 811T306 903T217 811Q184 719 184 557T217 303ZM429 961V1556H604V1120H1140V891L786
219H917Q930 337 960 428Q1016 599 1063 599Q1184 599 1186 323Q1189 0 1043 0H1024Q1024 -48 1026 -112L904 -111Q904 -56 906 0H604H588H429V166Q401 69 356 20Q312 -29 251 -29Q136 -29 72 125Q9 279 9 559Q9 843 73 995Q138 1147 257 1147Q311 1147 354 1100Q397
1054 429 961ZM604 901V259L942 901H604Z" />
<glyph unicode="&#x2a6;" glyph-name="uni02A6" horiz-adv-x="1113" d="M1064 1085V829Q1015 881 963 908Q910 934 857 934Q798 934 768 906Q738 877 738 821Q738 749 867 691L874 688L924 668Q1020 629 1065 546Q1109 461 1109 317Q1109 144 1041 58Q973 -29
836 -29Q776 -29 712 -12Q649 6 585 40V0H437Q286 0 233 80Q179 161 179 379V895H8V1120H179V1438H355V1120H585V931Q602 1006 642 1057Q713 1147 840 1147Q897 1147 954 1132Q1010 1116 1064 1085ZM583 225V297Q641 242 702 213Q762 184 818 184Q880 184 912 214T944
301Q944 357 921 387Q896 421 814 451L766 469Q665 506 618 588Q572 669 572 805Q572 853 578 895H355V365Q355 290 377 258Q399 225 450 225H583Z" />
<glyph unicode="&#x2a7;" glyph-name="uni02A7" horiz-adv-x="967" d="M349 1438V1120H579V1198Q579 1400 629 1478Q680 1556 817 1556H961V1331H824Q784 1331 770 1307T755 1218V1120V895V43V0Q750 -218 701 -316Q646 -424 520 -424H331V-199H471Q530 -199 554
-144Q575 -98 578 0H431Q280 0 227 80Q173 161 173 379V895H2V1120H173V1438H349ZM579 225V895H349V365Q349 290 371 258Q393 225 444 225H579Z" />
<glyph unicode="&#x2a8;" glyph-name="uni02A8" horiz-adv-x="1081" d="M353 1438V1120H583V916Q598 957 618 992Q707 1149 862 1149Q916 1149 966 1128Q1016 1107 1066 1063V795Q1027 850 981 880Q936 909 886 909Q801 909 755 818T708 559Q708 405 737 334L739
351Q801 532 902 532Q1073 527 1075 294Q1078 -29 889 -29Q828 -29 826 -28Q824 -28 822 -27V-141L702 -140Q702 -47 703 24Q654 62 618 127Q598 162 583 202V0H435Q284 0 230 80Q177 161 177 379V895H5V1120H177V1438H353ZM830 232Q864 208 897 207H900Q988 207
987 264Q986 339 908 339Q858 339 830 232ZM576 895H353V365Q353 290 375 258Q397 225 448 225H575Q530 361 530 559Q530 758 576 895Z" />
<glyph unicode="&#x2a9;" glyph-name="uni02A9" horiz-adv-x="1097" d="M340 1218V1120H547H721V952Q740 1045 785 1096T893 1147Q989 1147 1037 1042Q1086 935 1086 727V43Q1086 -209 1031 -316Q977 -424 851 -424H779V-199H802Q862 -199 887 -144Q911 -89 911
43V682Q911 804 891 856Q870 909 823 909T748 838Q721 767 721 641V0H547V895H340V0H164V895H1V1120H164V1198Q164 1400 215 1478Q265 1556 402 1556H547V1331H409Q369 1331 355 1307T340 1218Z" />
<glyph unicode="&#x2aa;" glyph-name="uni02AA" horiz-adv-x="1141" d="M1092 1085V829Q1044 881 991 908Q939 934 886 934Q827 934 797 906Q767 877 767 821Q767 749 895 691L902 688L952 668Q1048 629 1093 546Q1138 461 1138 317Q1138 144 1070 58Q1002 -29
865 -29Q804 -29 741 -12Q677 6 612 41V0H422Q297 0 242 108T187 467V1331H9V1556H363V467Q363 335 388 280Q412 225 471 225H612V297Q670 242 730 213T847 184Q909 184 940 214Q972 244 972 301Q972 357 950 387Q924 421 843 451L794 469Q694 506 647 588Q601
669 601 805Q601 967 671 1057T868 1147Q925 1147 982 1132Q1039 1116 1092 1085Z" />
<glyph unicode="&#x2ab;" glyph-name="uni02AB" horiz-adv-x="1153" d="M189 467V1331H11V1556H365V467Q365 335 391 280Q415 225 473 225H601L954 896H615V1115H1151V886L798 214H1151V-5H600V0H425Q299 0 244 108T189 467Z" />
<glyph unicode="&#x2ac;" glyph-name="uni02AC" horiz-adv-x="1151" d="M16 627H239L359 195L480 627H671L792 199L913 627H1135L947 0H696L575 431L455 0H205L16 627ZM16 1312H239L359 880L480 1312H671L792 884L913 1312H1135L947 685H696L575 1116L455 685H205L16
1312Z" />
<glyph unicode="&#x2ad;" glyph-name="uni02AD" horiz-adv-x="700" d="M170 177H27V627H688V177H545V474H170V177ZM170 862H27V1312H688V862H545V1159H170V862Z" />
<glyph unicode="&#x2ae;" glyph-name="uni02AE" horiz-adv-x="1132" d="M512 1118H514V436Q514 315 548 263Q582 211 660 211Q739 211 786 282Q830 353 830 477V1118H1122V-438H830V166Q800 73 724 22Q650 -29 544 -29Q384 -29 304 76Q222 182 222 391V1088Q222
1217 180 1275Q138 1330 38 1330H0V1555H120Q330 1555 420 1447Q506 1348 512 1118Z" />
<glyph unicode="&#x2af;" glyph-name="uni02AF" horiz-adv-x="1073" d="M411 1118H412V436Q412 315 440 263T530 211Q594 211 630 282Q666 352 666 477V1118H895V41Q895 -91 928 -146T1041 -201H1072V-426H975Q812 -426 738 -318Q666 -211 666 41V166Q641 73 581
22T436 -29Q309 -29 244 76Q180 182 180 391V1088Q180 1217 145 1275Q112 1330 32 1330H1V1555H98Q266 1555 338 1447Q407 1346 411 1118Z" />
<glyph unicode="&#x2b0;" glyph-name="uni02B0" horiz-adv-x="607" d="M602 1075V668H416V1050Q416 1118 394 1147T322 1176Q271 1176 242 1137Q213 1097 213 1027V668H27V1540H213V1201Q233 1254 281 1282Q329 1311 397 1311Q498 1311 550 1252Q602 1192 602 1075Z" />
<glyph unicode="&#x2b1;" glyph-name="uni02B1" horiz-adv-x="610" d="M600 1075V668H414V1050Q414 1118 392 1147T320 1176Q269 1176 240 1137Q211 1097 211 1027V668H25V1277Q25 1418 84 1478Q141 1539 276 1539H353V1413H328Q264 1413 238 1382T212 1277L211
1201Q231 1253 279 1282Q327 1310 395 1310Q496 1310 548 1251T600 1075Z" />
<glyph unicode="&#x2b2;" glyph-name="uni02B2" horiz-adv-x="478" d="M453 623Q453 482 395 422T202 362H0V488H150Q213 488 239 518Q265 549 265 623V1100H75V1226H453V623ZM453 1340H265V1531H453V1340Z" />
<glyph unicode="&#x2b3;" glyph-name="uni02B3" horiz-adv-x="578" d="M578 1122Q547 1147 506 1159Q464 1172 415 1172Q353 1172 311 1154Q264 1134 242 1101Q227 1079 221 1049T215 957V668H27V1296H215V1198Q242 1252 299 1281Q356 1311 432 1311Q476 1311
508 1303Q544 1294 578 1279V1122Z" />
<glyph unicode="&#x2b4;" glyph-name="uni02B4" horiz-adv-x="578" d="M0 842Q31 817 72 805Q114 792 163 792Q225 792 267 810Q314 830 336 863Q351 885 357 915T363 1007V1296H551V668H363V766Q336 712 279 683Q222 653 146 653Q102 653 70 661Q34 670 0 685V842Z" />
<glyph unicode="&#x2b5;" glyph-name="uni02B5" horiz-adv-x="703" d="M0 841Q31 816 72 804Q113 791 163 791Q222 791 267 810Q311 828 336 863Q351 884 357 914T363 1006V1295H551V668H550Q553 612 576 586Q602 555 666 555H691V429H613Q479 429 421 490Q368
545 363 668V691V765Q336 711 279 682T145 653Q107 653 70 661T0 684V841Z" />
<glyph unicode="&#x2b6;" glyph-name="uni02B6" horiz-adv-x="741" d="M306 943H256V791H306Q364 791 389 808Q415 826 415 866Q415 907 389 925Q364 943 306 943ZM256 1067H279Q327 1067 356 1084Q383 1099 407 1140L500 1296H732L626 1118Q593 1063 561 1037Q529
1010 489 1002Q562 984 599 944Q635 904 635 841Q635 752 565 710Q494 668 343 668H27V1296H256V1067Z" />
<glyph unicode="&#x2b7;" glyph-name="uni02B7" horiz-adv-x="819" d="M15 1296H171L256 815L334 1132H485L561 815L648 1296H804L674 668H496L409 994L323 668H145L15 1296Z" />
<glyph unicode="&#x2b8;" glyph-name="uni02B8" horiz-adv-x="733" d="M434 601Q396 512 344 472Q291 432 215 432H61V557H137Q194 557 221 574T276 653L290 686L17 1296H214L378 889L535 1296H732L434 601Z" />
<glyph unicode="&#x2b9;" glyph-name="uni02B9" horiz-adv-x="1233" d="M12 1140L77 1638H298L188 1140H12Z" />
<glyph unicode="&#x2bb;" glyph-name="uni02BB" horiz-adv-x="1233" d="M322 903H9V1174L206 1556H421L322 1174V903Z" />
<glyph unicode="&#x2bc;" glyph-name="uni02BC" horiz-adv-x="1233" d="M107 1556H421V1286L224 903H9L107 1286V1556Z" />
<glyph unicode="&#x2bd;" glyph-name="uni02BD" horiz-adv-x="1233" d="M289 1729V1483H167Q168 1361 289 1361V1218Q15 1219 15 1483V1729H289Z" />
<glyph unicode="&#x2be;" glyph-name="uni02BE" horiz-adv-x="316" d="M27 1140Q82 1140 120 1179Q158 1217 158 1271T119 1363Q81 1402 27 1402V1556Q145 1556 229 1473Q312 1389 312 1271T229 1069Q145 986 27 986V1140Z" />
<glyph unicode="&#x2bf;" glyph-name="uni02BF" horiz-adv-x="304" d="M289 1140Q289 1140 289 986Q171 986 87 1069Q4 1153 4 1271T87 1473Q171 1556 289 1556V1402Q235 1402 197 1363Q158 1325 158 1271T196 1179Q234 1140 289 1140Z" />
<glyph unicode="&#x2c0;" glyph-name="uni02C0" horiz-adv-x="592" d="M126 1080H180Q305 1080 354 1144Q387 1187 387 1226Q387 1280 354 1317Q297 1381 194 1381Q148 1381 102 1369Q57 1357 12 1333V1500Q56 1519 103 1529Q149 1539 254 1539Q392 1539 513 1421Q589
1347 589 1226Q589 1097 500 1016Q441 963 332 946V668H126V1080Z" />
<glyph unicode="&#x2c1;" glyph-name="uni02C1" horiz-adv-x="592" d="M466 1080V668H260V946Q151 963 92 1016Q3 1097 3 1226Q3 1347 79 1421Q200 1539 338 1539Q443 1539 489 1529Q536 1519 580 1500V1333Q535 1357 490 1369Q444 1381 398 1381Q295 1381 238
1317Q205 1280 205 1226Q205 1187 238 1144Q287 1080 412 1080H466Z" />
<glyph unicode="&#x2c6;" glyph-name="circumflex" horiz-adv-x="765" d="M262 1638H503L759 1262H581L382 1487L184 1262H6L262 1638Z" />
<glyph unicode="&#x2c7;" glyph-name="caron" horiz-adv-x="765" d="M262 1262L6 1638H184L382 1411L581 1638H759L503 1262H262Z" />
<glyph unicode="&#x2c8;" glyph-name="uni02C8" horiz-adv-x="245" d="M216 1554V999H27V1554H216Z" />
<glyph unicode="&#x2c9;" glyph-name="uni02C9" horiz-adv-x="1233" d="M27 1556H658V1368H27V1556Z" />
<glyph unicode="&#x2cc;" glyph-name="uni02CC" horiz-adv-x="245" d="M216 390V-165H27V390H216Z" />
<glyph unicode="&#x2cd;" glyph-name="uni02CD" horiz-adv-x="1233" d="M27 -218H658V-406H27V-218Z" />
<glyph unicode="&#x2d0;" glyph-name="uni02D0" horiz-adv-x="433" d="M216 740L11 1120H422L216 740ZM217 380L422 0H11L217 380Z" />
<glyph unicode="&#x2d1;" glyph-name="uni02D1" horiz-adv-x="413" d="M206 740L1 1120H412L206 740Z" />
<glyph unicode="&#x2d2;" glyph-name="uni02D2" horiz-adv-x="1233" d="M27 705Q82 705 120 744Q158 782 158 836T119 928Q81 967 27 967V1121Q145 1121 229 1038Q312 954 312 836T229 634Q145 551 27 551V705Z" />
<glyph unicode="&#x2d3;" glyph-name="uni02D3" horiz-adv-x="1233" d="M289 705Q289 705 289 551Q171 551 87 634Q4 718 4 836T87 1038Q171 1121 289 1121V967Q235 967 197 928Q158 890 158 836T196 744Q234 705 289 705Z" />
<glyph unicode="&#x2d6;" glyph-name="uni02D6" horiz-adv-x="632" d="M225 649V874H405V649H631V469H405V244H225V469H1V649H225Z" />
<glyph unicode="&#x2d7;" glyph-name="uni02D7" horiz-adv-x="505" d="M477 469H27V649H477V469Z" />
<glyph unicode="&#x2d8;" glyph-name="breve" horiz-adv-x="1233" d="M14 1606H155Q166 1537 216 1500T349 1462Q432 1462 481 1499T542 1606H685Q679 1462 593 1386T349 1309Q193 1309 107 1385T14 1606Z" />
<glyph unicode="&#x2d9;" glyph-name="dotaccent" horiz-adv-x="1233" d="M27 1585H302V1339H27V1585Z" />
<glyph unicode="&#x2da;" glyph-name="ring" horiz-adv-x="595" d="M13 1534Q13 1652 96 1735T297 1819Q416 1819 499 1736T582 1534Q582 1416 499 1333T297 1249Q179 1249 96 1332T13 1534ZM166 1534Q166 1479 204 1441T297 1403Q352 1403 390 1441T429 1534Q429
1588 390 1626T297 1665Q243 1665 205 1627T166 1534Z" />
<glyph unicode="&#x2db;" glyph-name="ogonek" horiz-adv-x="446" d="M125 0H266Q213 -71 195 -106T176 -166Q176 -205 206 -229T287 -254Q325 -254 363 -247T442 -223V-379Q388 -390 341 -395T252 -401Q138 -401 76 -355T14 -223Q14 -170 41 -116T125 0Z" />
<glyph unicode="&#x2dc;" glyph-name="tilde" horiz-adv-x="736" d="M370 1364L315 1401Q312 1403 303 1409Q260 1438 233 1438Q197 1438 179 1407T160 1317V1309H20Q20 1445 71 1519T217 1593Q253 1593 289 1580T366 1536L428 1493Q449 1478 467 1470T502 1462Q538
1462 557 1493T577 1583V1591H717Q717 1455 666 1381T520 1307Q484 1307 451 1319T370 1364Z" />
<glyph unicode="&#x2dd;" glyph-name="hungarumlaut" horiz-adv-x="1233" d="M567 1638H798L526 1262H352L567 1638ZM205 1638H422L174 1262H10L205 1638Z" />
<glyph unicode="&#x2de;" glyph-name="uni02DE" horiz-adv-x="1248" d="M1 883L627 1072L826 1074V903Q826 727 864 671Q902 616 1007 616H1241V436H954Q770 436 692 547Q626 638 627 804L1 626V883Z" />
<glyph unicode="&#x2e0;" glyph-name="uni02E0" horiz-adv-x="686" d="M455 1006Q611 792 612 575Q613 445 351 443Q63 440 63 575Q62 766 232 1005L12 1311H218L343 1125L469 1311H675L455 1006ZM343 882Q221 708 222 638Q223 569 339 569Q450 569 450 638Q450
729 343 882Z" />
<glyph unicode="&#x2e1;" glyph-name="uni02E1" horiz-adv-x="648" d="M193 930V1414H3V1540H381V930Q381 856 407 825T496 794H646V668H444Q310 668 252 729Q193 789 193 930Z" />
<glyph unicode="&#x2e2;" glyph-name="uni02E2" horiz-adv-x="606" d="M542 1277V1133Q490 1162 434 1177T322 1192Q259 1192 227 1176T195 1129Q195 1095 332 1056L339 1054L393 1043Q493 1023 543 974Q591 927 591 846Q591 750 518 701Q446 653 300 653Q235
653 167 663Q99 672 30 692V835Q92 804 156 788T280 772Q346 772 380 789T414 838Q414 869 390 886Q360 906 276 922L224 932Q115 953 67 998Q18 1044 18 1120Q18 1210 93 1261Q168 1311 304 1311Q372 1311 425 1303Q485 1294 542 1277Z" />
<glyph unicode="&#x2e3;" glyph-name="uni02E3" horiz-adv-x="751" d="M714 1296L472 995L735 668H516L375 880L235 668H16L281 995L37 1296H256L375 1109L495 1296H714Z" />
<glyph unicode="&#x2e4;" glyph-name="uni02E4" horiz-adv-x="592" d="M466 1080V668H260V946Q151 963 92 1016Q3 1097 3 1226Q3 1347 79 1421Q200 1539 338 1539Q443 1539 489 1529Q536 1519 580 1500V1333Q535 1357 490 1369Q444 1381 398 1381Q295 1381 238
1317Q205 1280 205 1226Q205 1187 238 1144Q287 1080 412 1080H466Z" />
<glyph unicode="&#x2e5;" glyph-name="uni02E5" horiz-adv-x="713" d="M685 1420V0H497V1232H0V1420H685Z" />
<glyph unicode="&#x2e6;" glyph-name="uni02E6" horiz-adv-x="713" d="M685 1420V0H497V924H0V1112H497V1420H685Z" />
<glyph unicode="&#x2e7;" glyph-name="uni02E7" horiz-adv-x="713" d="M685 1420V0H497V616H0V804H497V1420H685Z" />
<glyph unicode="&#x2e8;" glyph-name="uni02E8" horiz-adv-x="713" d="M685 1420V0H497V308H0V496H497V1420H685Z" />
<glyph unicode="&#x2e9;" glyph-name="uni02E9" horiz-adv-x="713" d="M685 0H0V188H497V1420H685V0Z" />
<glyph unicode="&#x2ee;" glyph-name="uni02EE" horiz-adv-x="1233" d="M636 1556H949V1286L753 903H538L636 1286V1556ZM116 1556H429V1286L233 903H18L116 1286V1556Z" />
<glyph unicode="&#x2f3;" glyph-name="uni02F3" horiz-adv-x="1233" d="M452 -282Q452 -374 389 -438T232 -502Q140 -502 77 -438T13 -282Q13 -190 76 -127T232 -63Q325 -63 388 -126T452 -282ZM320 -282Q320 -246 295 -221T232 -195Q195 -195 170 -220T145 -282Q145
-320 170 -345T232 -370Q269 -370 294 -345T320 -282Z" />
<glyph unicode="&#x300;" glyph-name="gravecomb" horiz-adv-x="1233" d="M282 1638L565 1262H368L0 1638H282Z" />
<glyph unicode="&#x301;" glyph-name="acutecomb" horiz-adv-x="1233" d="M284 1638H566L198 1262H1L284 1638Z" />
<glyph unicode="&#x302;" glyph-name="uni0302" horiz-adv-x="1233" d="M262 1638H503L759 1262H581L382 1487L184 1262H6L262 1638Z" />
<glyph unicode="&#x303;" glyph-name="tildecomb" horiz-adv-x="1233" d="M370 1364L315 1401Q312 1403 303 1409Q260 1438 233 1438Q197 1438 179 1407T160 1317V1309H20Q20 1445 71 1519T217 1593Q253 1593 289 1580T366 1536L428 1493Q449 1478 467 1470T502
1462Q538 1462 557 1493T577 1583V1591H717Q717 1455 666 1381T520 1307Q484 1307 451 1319T370 1364Z" />
<glyph unicode="&#x304;" glyph-name="uni0304" horiz-adv-x="686" d="M27 1556H658V1368H27V1556Z" />
<glyph unicode="&#x305;" glyph-name="uni0305" horiz-adv-x="1287" d="M1260 1547V1357H27V1547H1260Z" />
<glyph unicode="&#x306;" glyph-name="uni0306" horiz-adv-x="698" d="M14 1606H155Q166 1537 216 1500T349 1462Q432 1462 481 1499T542 1606H685Q679 1462 593 1386T349 1309Q193 1309 107 1385T14 1606Z" />
<glyph unicode="&#x307;" glyph-name="uni0307" horiz-adv-x="330" d="M27 1585H302V1339H27V1585Z" />
<glyph unicode="&#x308;" glyph-name="uni0308" horiz-adv-x="1233" d="M422 1585H658V1339H422V1585ZM27 1585H263V1339H27V1585Z" />
<glyph unicode="&#x309;" glyph-name="hookabovecomb" horiz-adv-x="470" d="M458 1552Q458 1461 354 1346V1262H164V1376Q226 1392 272 1438Q294 1459 294 1505Q294 1567 238 1583Q198 1593 172 1591Q148 1591 122 1591Q76 1591 6 1560V1712Q110 1738 208 1738Q432
1738 456 1593Q458 1574 458 1552Z" />
<glyph unicode="&#x30a;" glyph-name="uni030A" horiz-adv-x="1233" d="M13 1534Q13 1652 96 1735T297 1819Q416 1819 499 1736T582 1534Q582 1416 499 1333T297 1249Q179 1249 96 1332T13 1534ZM166 1534Q166 1479 204 1441T297 1403Q352 1403 390 1441T429 1534Q429
1588 390 1626T297 1665Q243 1665 205 1627T166 1534Z" />
<glyph unicode="&#x30b;" glyph-name="uni030B" horiz-adv-x="803" d="M567 1638H798L526 1262H352L567 1638ZM205 1638H422L174 1262H10L205 1638Z" />
<glyph unicode="&#x30c;" glyph-name="uni030C" horiz-adv-x="1233" d="M262 1262L6 1638H184L382 1411L581 1638H759L503 1262H262Z" />
<glyph unicode="&#x30d;" glyph-name="uni030D" horiz-adv-x="246" d="M217 1706V1262H27V1706H217Z" />
<glyph unicode="&#x30e;" glyph-name="uni030E" horiz-adv-x="1233" d="M502 1706V1262H312V1706H502ZM-67 1706V1262H-257V1706H-67Z" />
<glyph unicode="&#x30f;" glyph-name="uni030F" horiz-adv-x="803" d="M599 1638L793 1262H630L382 1638H599ZM236 1638L451 1262H277L5 1638H236Z" />
<glyph unicode="&#x310;" glyph-name="uni0310" horiz-adv-x="683" d="M204 1801H479V1555H204V1801ZM6 1606H147Q158 1537 208 1500T341 1462Q424 1462 473 1499T534 1606H677Q671 1462 585 1386T341 1309Q185 1309 99 1385T6 1606Z" />
<glyph unicode="&#x311;" glyph-name="uni0311" horiz-adv-x="699" d="M14 1309Q20 1453 106 1529T349 1606Q506 1606 592 1530T685 1309H542Q531 1379 482 1416T349 1453T216 1416T155 1309H14Z" />
<glyph unicode="&#x312;" glyph-name="uni0312" horiz-adv-x="383" d="M284 903H2L179 1209H373L284 903Z" />
<glyph unicode="&#x313;" glyph-name="uni0313" horiz-adv-x="317" d="M27 1729H301V1483Q301 1219 27 1218V1361Q147 1361 147 1483H27V1729Z" />
<glyph unicode="&#x314;" glyph-name="uni0314" horiz-adv-x="304" d="M289 1729V1483H167Q168 1361 289 1361V1218Q15 1219 15 1483V1729H289Z" />
<glyph unicode="&#x315;" glyph-name="uni0315" horiz-adv-x="372" d="M88 1638H370L209 1262H12L88 1638Z" />
<glyph unicode="&#x316;" glyph-name="uni0316" horiz-adv-x="1233" d="M417 -216L700 -592H503L135 -216H417Z" />
<glyph unicode="&#x317;" glyph-name="uni0317" horiz-adv-x="1233" d="M150 -216H432L64 -592H-133L150 -216Z" />
<glyph unicode="&#x318;" glyph-name="uni0318" horiz-adv-x="400" d="M182 -624H0V-435H182V-252H372V-807H182V-624Z" />
<glyph unicode="&#x319;" glyph-name="uni0319" horiz-adv-x="399" d="M27 -252H216V-435H399V-624H216V-807H27V-252Z" />
<glyph unicode="&#x31a;" glyph-name="uni031A" horiz-adv-x="583" d="M366 1713H0V1902H555V1347H366V1713Z" />
<glyph unicode="&#x31b;" glyph-name="uni031B" horiz-adv-x="422" d="M1 850V991Q68 941 104 922T167 903Q206 903 230 932T255 1011Q255 1050 248 1088T224 1167H380Q391 1112 396 1065T402 977Q402 862 356 801T224 739Q171 739 117 766T1 850Z" />
<glyph unicode="&#x31c;" glyph-name="uni031C" horiz-adv-x="240" d="M223 -502Q131 -502 68 -438T4 -282T67 -127T223 -63V-195Q186 -195 161 -220T136 -282Q136 -320 161 -345T223 -370V-502Z" />
<glyph unicode="&#x31d;" glyph-name="uni031D" horiz-adv-x="575" d="M10 -624V-435H192V-252H382V-435H565V-624H10Z" />
<glyph unicode="&#x31e;" glyph-name="uni031E" horiz-adv-x="574" d="M192 -624H9V-435H564V-624H381V-807H192V-624Z" />
<glyph unicode="&#x31f;" glyph-name="uni031F" horiz-adv-x="559" d="M184 -624H2V-435H184V-252H374V-435H557V-624H374V-807H184V-624Z" />
<glyph unicode="&#x320;" glyph-name="uni0320" horiz-adv-x="610" d="M27 -441V-252H582V-441H27Z" />
<glyph unicode="&#x321;" glyph-name="uni0321" horiz-adv-x="531" d="M516 43Q516 -207 425 -316Q335 -424 125 -424H4V-199H43Q141 -199 184 -144Q225 -91 225 43V168H516V43Z" />
<glyph unicode="&#x322;" glyph-name="uni0322" horiz-adv-x="531" d="M14 41V166H305V41Q305 -93 346 -146Q389 -201 487 -201H526V-426H405Q195 -426 105 -318Q14 -209 14 41Z" />
<glyph unicode="&#x323;" glyph-name="dotbelowcomb" horiz-adv-x="330" d="M27 -216H302V-462H27V-216Z" />
<glyph unicode="&#x324;" glyph-name="uni0324" horiz-adv-x="686" d="M422 -216H658V-462H422V-216ZM27 -216H263V-462H27V-216Z" />
<glyph unicode="&#x325;" glyph-name="uni0325" horiz-adv-x="465" d="M452 -282Q452 -374 389 -438T232 -502Q140 -502 77 -438T13 -282Q13 -190 76 -127T232 -63Q325 -63 388 -126T452 -282ZM320 -282Q320 -246 295 -221T232 -195Q195 -195 170 -220T145 -282Q145
-320 170 -345T232 -370Q269 -370 294 -345T320 -282Z" />
<glyph unicode="&#x326;" glyph-name="uni0326" horiz-adv-x="384" d="M100 -198H382L205 -504H11L100 -198Z" />
<glyph unicode="&#x327;" glyph-name="uni0327" horiz-adv-x="470" d="M343 0Q400 -62 427 -115T455 -215Q455 -310 394 -355T205 -401Q157 -401 107 -395T3 -375V-219Q48 -236 90 -245T168 -254Q226 -254 258 -231T291 -168Q291 -142 270 -101T203 0H343Z" />
<glyph unicode="&#x328;" glyph-name="uni0328" horiz-adv-x="1233" d="M338 0H479Q426 -71 408 -106T389 -166Q389 -205 419 -229T500 -254Q538 -254 576 -247T655 -223V-379Q601 -390 554 -395T465 -401Q351 -401 289 -355T227 -223Q227 -170 254 -116T338 0Z" />
<glyph unicode="&#x329;" glyph-name="uni0329" horiz-adv-x="245" d="M216 -218V-662H27V-218H216Z" />
<glyph unicode="&#x32a;" glyph-name="uni032A" horiz-adv-x="685" d="M657 -218V-592H469V-406H215V-592H27V-218H657Z" />
<glyph unicode="&#x32b;" glyph-name="uni032B" horiz-adv-x="851" d="M833 -192Q827 -400 706 -464Q658 -489 594 -489Q487 -489 425 -419Q364 -489 257 -489Q77 -489 31 -298Q20 -250 18 -192H161Q180 -329 257 -336Q337 -336 352 -208Q353 -200 354 -192H497Q516
-329 593 -336Q664 -336 685 -227Q689 -209 690 -192H833Z" />
<glyph unicode="&#x32c;" glyph-name="uni032C" horiz-adv-x="765" d="M262 -485L6 -109H184L382 -336L581 -109H759L503 -485H262Z" />
<glyph unicode="&#x32d;" glyph-name="uni032D" horiz-adv-x="765" d="M262 -109H503L759 -485H581L382 -260L184 -485H6L262 -109Z" />
<glyph unicode="&#x32e;" glyph-name="uni032E" horiz-adv-x="698" d="M14 -194H155Q166 -263 216 -300T349 -338Q432 -338 481 -301T542 -194H685Q679 -338 593 -414T349 -491Q193 -491 107 -415T14 -194Z" />
<glyph unicode="&#x32f;" glyph-name="uni032F" horiz-adv-x="699" d="M685 -489H544Q533 -420 483 -383T350 -345T218 -382T157 -489H14Q20 -345 106 -269T350 -192Q506 -192 592 -268T685 -489Z" />
<glyph unicode="&#x330;" glyph-name="uni0330" horiz-adv-x="736" d="M370 -430L315 -393Q312 -391 303 -385Q260 -356 233 -356Q197 -356 179 -387T160 -477V-485H20Q20 -349 71 -275T217 -201Q253 -201 289 -214T366 -258L428 -301Q449 -316 467 -324T502 -332Q538
-332 557 -301T577 -211V-203H717Q717 -339 666 -413T520 -487Q484 -487 451 -475T370 -430Z" />
<glyph unicode="&#x331;" glyph-name="uni0331" horiz-adv-x="686" d="M27 -218H658V-406H27V-218Z" />
<glyph unicode="&#x332;" glyph-name="uni0332" horiz-adv-x="1233" d="M1260 -293V-483H27V-293H1260Z" />
<glyph unicode="&#x333;" glyph-name="uni0333" horiz-adv-x="1273" d="M1260 -293V-483H27V-293H1260ZM1260 -18V-208H27V-18H1260Z" />
<glyph unicode="&#x334;" glyph-name="uni0334" horiz-adv-x="1233" d="M1079 811V578Q1004 518 933 491T782 463Q692 463 579 514Q557 524 546 528Q469 562 418 574T315 586Q237 586 167 557T22 465V694Q100 755 173 782T329 809Q382 809 432 798T556 756Q567
751 589 741Q705 686 798 686Q868 686 937 716T1079 811Z" />
<glyph unicode="&#x335;" glyph-name="uni0335" horiz-adv-x="828" d="M27 438V632H801V438H27Z" />
<glyph unicode="&#x336;" glyph-name="uni0336" horiz-adv-x="1287" d="M27 438V632H1260V438H27Z" />
<glyph unicode="&#x337;" glyph-name="uni0337" horiz-adv-x="1177" d="M139 -117L0 2L1038 1235L1177 1114L139 -117Z" />
<glyph unicode="&#x338;" glyph-name="uni0338" horiz-adv-x="1227" d="M162 -63L0 51L1065 1559L1227 1444L162 -63Z" />
<glyph unicode="&#x339;" glyph-name="uni0339" horiz-adv-x="250" d="M27 -502Q27 -502 27 -370Q64 -370 89 -345T114 -282Q114 -245 89 -220T27 -195Q27 -195 27 -63Q119 -63 182 -126T246 -282T183 -438T27 -502Z" />
<glyph unicode="&#x33a;" glyph-name="uni033A" horiz-adv-x="685" d="M27 -520V-146H215V-332H469V-146H657V-520H27Z" />
<glyph unicode="&#x33b;" glyph-name="uni033B" horiz-adv-x="628" d="M600 -218V-791H27V-218H600ZM429 -620V-389H198V-620H429Z" />
<glyph unicode="&#x33c;" glyph-name="uni033C" horiz-adv-x="853" d="M19 -489Q25 -281 146 -217Q194 -192 258 -192Q365 -192 426 -262Q488 -192 595 -192Q775 -192 821 -383Q832 -431 834 -489H691Q672 -352 594 -345Q515 -345 500 -473Q499 -481 498 -489H355Q336
-352 258 -345Q188 -345 167 -454Q163 -472 162 -489H19Z" />
<glyph unicode="&#x33d;" glyph-name="uni033D" horiz-adv-x="549" d="M274 1321L145 1192L11 1326L140 1455L11 1584L145 1718L274 1589L404 1718L538 1584L409 1455L538 1326L404 1192L274 1321Z" />
<glyph unicode="&#x33e;" glyph-name="uni033E" horiz-adv-x="316" d="M243 1495Q279 1456 289 1435Q301 1410 301 1382Q301 1300 227 1259T17 1218V1340H25Q82 1340 113 1355T145 1397Q145 1408 137 1422Q129 1437 115 1452L71 1498Q40 1531 28 1556Q15 1583
15 1610Q15 1692 89 1733T299 1775V1653H291Q232 1653 201 1639T169 1598Q169 1579 201 1544Q205 1540 207 1536L243 1495Z" />
<glyph unicode="&#x33f;" glyph-name="uni033F" horiz-adv-x="1273" d="M1260 1547V1357H27V1547H1260ZM1260 1272V1082H27V1272H1260Z" />
<glyph unicode="&#x343;" glyph-name="uni0343" horiz-adv-x="1233" d="M27 1729H301V1483Q301 1219 27 1218V1361Q147 1361 147 1483H27V1729Z" />
<glyph unicode="&#x358;" glyph-name="uni0358" horiz-adv-x="330" d="M27 1585H302V1339H27V1585Z" />
<glyph unicode="&#x361;" glyph-name="uni0361" horiz-adv-x="1787" d="M894 1803Q1154 1808 1398 1757Q1775 1678 1752 1506H1609Q1596 1577 1398 1613Q1194 1650 894 1650T390 1613Q192 1577 179 1506H36Q12 1679 390 1757Q580 1797 894 1803Z" />
<glyph unicode="&#x374;" glyph-name="uni0374" horiz-adv-x="302" d="M12 1140L77 1638H298L188 1140H12Z" />
<glyph unicode="&#x375;" glyph-name="uni0375" horiz-adv-x="301" d="M290 72L225 -426H4L114 72H290Z" />
<glyph unicode="&#x37a;" glyph-name="uni037A" horiz-adv-x="301" d="M290 -426H111Q23 -426 23 -243V-92H219V-245Q219 -349 270 -349H290V-426Z" />
<glyph unicode="&#x37e;" glyph-name="uni037E" horiz-adv-x="1233" d="M90 367H423V96L227 -287H12L90 96V367ZM90 1063H423V698H90V1063Z" />
<glyph unicode="&#x384;" glyph-name="tonos" horiz-adv-x="1233" d="M284 1638H566L198 1262H1L284 1638Z" />
<glyph unicode="&#x385;" glyph-name="dieresistonos" horiz-adv-x="745" d="M396 1585H632V1339H396V1585ZM1 1585H237V1339H1V1585ZM452 2046H734L366 1670H169L452 2046Z" />
<glyph unicode="&#x386;" glyph-name="Alphatonos" horiz-adv-x="1295" d="M293 1638H575L207 1262H10L293 1638ZM707 1223L568 612H847L707 1223ZM527 1493H888L1291 0H996L904 369H509L419 0H124L527 1493Z" />
<glyph unicode="&#x387;" glyph-name="anoteleia" horiz-adv-x="1233" d="M27 895H360V530H27V895Z" />
<glyph unicode="&#x388;" glyph-name="Epsilontonos" horiz-adv-x="1462" d="M285 1638H567L199 1262H2L285 1638ZM1451 0H521V1493H1451V1233H816V911H1391V651H816V260H1451V0Z" />
<glyph unicode="&#x389;" glyph-name="Etatonos" horiz-adv-x="1511" d="M285 1638H567L199 1262H2L285 1638ZM530 1493H825V924H1194V1493H1489V0H1194V664H825V0H530V1493Z" />
<glyph unicode="&#x38a;" glyph-name="Iotatonos" horiz-adv-x="1403" d="M284 1638H566L198 1262H1L284 1638ZM504 1233V1493H1393V1233H1096V260H1393V0H504V260H801V1233H504Z" />
<glyph unicode="&#x38c;" glyph-name="Omicrontonos" horiz-adv-x="1329" d="M286 1638H568L200 1262H3L286 1638ZM790 1255Q677 1255 625 1135T573 745Q573 477 625 357T790 236Q904 236 956 356T1008 745Q1008 1014 956 1134T790 1255ZM266 745Q266 1128 398
1324T790 1520Q1050 1520 1182 1324T1315 745Q1315 363 1183 167T790 -29Q531 -29 399 167T266 745Z" />
<glyph unicode="&#x38e;" glyph-name="Upsilontonos" horiz-adv-x="1724" d="M283 1638H565L197 1262H0L283 1638ZM504 1493H822L1112 893L1403 1493H1721L1260 588V0H965V588L504 1493Z" />
<glyph unicode="&#x38f;" glyph-name="Omegatonos" horiz-adv-x="1287" d="M289 1638H571L203 1262H6L289 1638ZM222 211H460Q340 320 286 455T232 782Q232 1094 371 1277T746 1460Q983 1460 1124 1277T1265 782Q1265 591 1211 456T1037 211H1275V0H804V268Q885
347 924 464T963 748Q963 962 907 1078T748 1194Q646 1194 590 1078T533 748Q533 582 573 464T695 268V0H222V211Z" />
<glyph unicode="&#x390;" glyph-name="iotadieresistonos" horiz-adv-x="1233" d="M496 1120V365Q496 291 533 258Q570 225 654 225H712V0H634Q382 0 292 80Q204 158 204 379V895H3V1120H496ZM396 1585H632V1339H396V1585ZM1 1585H237V1339H1V1585ZM452 2046H734L366
1670H169L452 2046Z" />
<glyph unicode="&#x391;" glyph-name="Alpha" horiz-adv-x="1233" d="M589 1223L450 612H729L589 1223ZM409 1493H770L1173 0H878L786 369H391L301 0H6L409 1493Z" />
<glyph unicode="&#x392;" glyph-name="Beta" horiz-adv-x="1233" d="M316 678V236H512Q653 236 709 284T766 451Q766 572 707 625T512 678H316ZM316 1260V913H512Q624 913 671 953T719 1085Q719 1177 671 1218T512 1260H316ZM31 1495H512Q761 1495 886 1401T1012
1118Q1012 974 938 893T721 799Q892 782 978 684T1065 410Q1065 194 935 97T512 0H31V1495Z" />
<glyph unicode="&#x393;" glyph-name="Gamma" horiz-adv-x="1233" d="M322 1233V0H27V1493H957V1233H322Z" />
<glyph unicode="&#x394;" glyph-name="uni0394" horiz-adv-x="1179" d="M1173 0H6L409 1493H770L1173 0ZM818 260L589 1223L360 260H818Z" />
<glyph unicode="&#x395;" glyph-name="Epsilon" horiz-adv-x="1233" d="M960 0H30V1493H960V1233H325V911H900V651H325V260H960V0Z" />
<glyph unicode="&#x396;" glyph-name="Zeta" horiz-adv-x="1233" d="M47 1493H1057V1249L365 260H1071V0H25V244L696 1233H47V1493Z" />
<glyph unicode="&#x397;" glyph-name="Eta" horiz-adv-x="1233" d="M29 1493H324V924H693V1493H988V0H693V664H324V0H29V1493Z" />
<glyph unicode="&#x398;" glyph-name="Theta" horiz-adv-x="1081" d="M413 651V911H667V651H413ZM540 1255Q427 1255 375 1135T323 745Q323 477 375 357T540 236Q654 236 706 356T758 745Q758 1014 706 1134T540 1255ZM16 745Q16 1128 148 1324T540 1520Q800 1520
932 1324T1065 745Q1065 363 933 167T540 -29Q281 -29 149 167T16 745Z" />
<glyph unicode="&#x399;" glyph-name="Iota" horiz-adv-x="1233" d="M29 1233V1493H918V1233H621V260H918V0H29V260H326V1233H29Z" />
<glyph unicode="&#x39a;" glyph-name="Kappa" horiz-adv-x="1233" d="M29 1493H324V903L786 1493H1120L649 905L1137 0H809L455 672L324 506V0H29V1493Z" />
<glyph unicode="&#x39b;" glyph-name="Lambda" horiz-adv-x="1179" d="M301 0H6L409 1493H770L1173 0H878L589 1223L301 0Z" />
</font>
</defs>
</svg>
