<?xml version="1.0" standalone="no"?> <!DOCTYPE svg PUBLIC "-//W3C//DTD SVG 1.0//EN" "http://www.w3.org/TR/2001/REC-SVG-20010904/DTD/svg10.dtd" > <svg xmlns="http://www.w3.org/2000/svg" width="100%" height="100%">
<defs >
<font horiz-adv-x="1089" ><font-face
    font-family="DejaVu Sans MonoItalic"
    units-per-em="2048"
    panose-1="2 11 6 9 3 3 4 11 2 4"
    ascent="1901"
    descent="-483"
    alphabetic="0" />
<missing-glyph horiz-adv-x="1086" d="M31 -362V1444H1055V-362H31ZM146 -248H941V1329H146V-248Z" />
<glyph unicode=" " glyph-name="space" horiz-adv-x="1233" />
<glyph unicode="!" glyph-name="exclam" horiz-adv-x="493" d="M291 1493H493L364 838L276 481H114L164 838L291 1493ZM49 254H252L202 0H0L49 254Z" />
<glyph unicode="&quot;" glyph-name="quotedbl" horiz-adv-x="620" d="M588 1493V938H414V1493H588ZM205 1493V938H31V1493H205Z" />
<glyph unicode="#" glyph-name="numbersign" horiz-adv-x="1243" d="M786 901H540L457 567H702L786 901ZM684 1470L579 1055H825L930 1470H1089L985 1055H1241L1202 901H946L862 567H1120L1081 414H823L719 0H559L663 414H418L313 0H153L258 414H2L41 567H297L381
901H123L162 1055H420L524 1470H684Z" />
<glyph unicode="$" glyph-name="dollar" horiz-adv-x="1053" d="M598 588L512 145Q641 145 720 217T800 406Q800 484 753 526T598 588ZM532 774L612 1184Q493 1176 418 1108T342 940Q342 871 384 834T532 774ZM424 -301H323L382 0Q287 3 191 26T0 92L35 272Q116
212 210 179T409 141L499 606Q323 641 244 713T164 911Q164 1084 296 1199T638 1321L686 1556H786L739 1321Q824 1315 902 1300T1052 1260L1020 1087Q955 1127 878 1150T712 1182L631 756Q805 722 894 639T983 426Q983 242 846 122T493 2H483L424 -301Z" />
<glyph unicode="%" glyph-name="percent" horiz-adv-x="1173" d="M666 319Q666 241 718 188T849 135Q926 135 979 188T1033 319Q1033 396 979 450T849 504Q771 504 719 451T666 319ZM531 319Q531 454 623 546T849 639Q913 639 970 615T1074 545Q1120 498 1145
440T1170 319Q1170 186 1077 93T849 0Q713 0 622 91T531 319ZM91 465L56 561L1098 979L1139 883L91 465ZM138 1112Q138 1033 190 981T322 928Q399 928 453 981T507 1112Q507 1189 453 1242T322 1296Q245 1296 192 1243T138 1112ZM3 1112Q3 1247 95 1339T322 1432Q386
1432 444 1408T548 1339Q593 1294 617 1236T642 1112Q642 978 549 886T322 793Q187 793 95 885T3 1112Z" />
<glyph unicode="&amp;" glyph-name="ampersand" horiz-adv-x="1225" d="M594 907L901 350Q963 416 1000 518T1049 760H1217Q1200 592 1139 458T971 221L1094 0H895L836 113Q741 42 641 7T437 -29Q242 -29 125 78T7 360Q7 528 106 672T394 920Q365 972 351 1026T336
1135Q336 1309 459 1414T789 1520Q854 1520 916 1508T1035 1473L1000 1290Q958 1328 897 1347T760 1366Q647 1366 579 1309T510 1157Q510 1110 532 1045T594 907ZM459 795Q324 722 255 624T185 408Q185 289 271 209T486 129Q551 129 624 157T768 240L459 795Z"
/>
<glyph unicode="&apos;" glyph-name="quotesingle" horiz-adv-x="238" d="M205 1493V938H31V1493H205Z" />
<glyph unicode="(" glyph-name="parenleft" horiz-adv-x="674" d="M674 1554Q438 1253 319 948T199 340Q199 194 228 43T318 -270H158Q79 -81 42 76T5 375Q5 678 134 977T515 1554H674Z" />
<glyph unicode=")" glyph-name="parenright" horiz-adv-x="674" d="M0 -270Q236 30 355 335T475 944Q475 1090 446 1241T356 1554H516Q594 1366 631 1209T669 909Q669 606 540 307T159 -270H0Z" />
<glyph unicode="*" glyph-name="asterisk" horiz-adv-x="903" d="M902 1247L544 1053L902 858L845 760L509 963V586H394V963L58 760L1 858L359 1053L1 1247L58 1346L394 1143V1520H509V1143L845 1346L902 1247Z" />
<glyph unicode="+" glyph-name="plus" horiz-adv-x="1057" d="M612 1171V727H1057V557H612V113H444V557H0V727H444V1171H612Z" />
<glyph unicode="," glyph-name="comma" horiz-adv-x="468" d="M215 303H467L426 96L155 -287H2L174 96L215 303Z" />
<glyph unicode="-" glyph-name="hyphen" horiz-adv-x="606" d="M59 643H581L548 479H26L59 643Z" />
<glyph unicode="." glyph-name="period" horiz-adv-x="343" d="M76 303H328L268 0H16L76 303Z" />
<glyph unicode="/" glyph-name="slash" horiz-adv-x="1043" d="M0 -190L852 1493H1043L189 -190H0Z" />
<glyph unicode="0" glyph-name="zero" horiz-adv-x="1066" d="M398 750Q398 805 438 845T533 885Q588 885 627 845T667 750Q667 694 628 655T533 616Q478 616 438 655T398 750ZM1052 1020Q1052 829 995 608T853 248Q769 107 658 39T398 -29Q203 -29 109 94T15
473Q15 665 72 884T214 1245Q299 1386 409 1453T667 1520Q862 1520 957 1397T1052 1020ZM423 135Q503 135 571 186T687 334Q756 474 802 680T849 1063Q849 1217 800 1286T644 1356Q564 1356 495 1305T378 1159Q308 1020 262 812T216 414Q216 273 267 204T423 135Z"
/>
<glyph unicode="1" glyph-name="one" horiz-adv-x="873" d="M35 170H348L569 1311L217 1235L252 1419L604 1493H807L549 170H858L825 0H2L35 170Z" />
<glyph unicode="2" glyph-name="two" horiz-adv-x="1135" d="M269 170H953L921 0H7L40 170L351 444L390 479Q927 950 927 1153Q927 1246 863 1299T685 1352Q593 1352 487 1319T255 1217L296 1421Q408 1470 512 1495T714 1520Q899 1520 1013 1423T1127 1171Q1127
1075 1092 989T974 799Q941 757 855 678T589 444L269 170Z" />
<glyph unicode="3" glyph-name="three" horiz-adv-x="1139" d="M786 799Q900 779 964 697T1028 489Q1028 255 861 113T413 -29Q305 -29 203 -11T6 45L44 246Q135 194 230 168T423 141Q605 141 717 234T829 477Q829 594 758 654T548 715H395L427 881H581Q739 881
832 956T925 1155Q925 1255 864 1302T673 1350Q591 1350 494 1330T284 1270L321 1456Q444 1489 541 1504T722 1520Q910 1520 1018 1432T1126 1192Q1126 1039 1037 936T786 799Z" />
<glyph unicode="4" glyph-name="four" horiz-adv-x="1073" d="M817 1282L192 520H665L817 1282ZM821 1493H1054L864 520H1062L1032 356H833L763 0H565L634 356H0L36 547L821 1493Z" />
<glyph unicode="5" glyph-name="five" horiz-adv-x="1118" d="M355 1493H1111L1078 1323H507L435 956Q482 972 526 979T615 987Q803 987 918 874T1033 575Q1033 451 981 334T832 131Q744 51 631 11T374 -29Q266 -29 173 -13T7 35L48 240Q132 189 220 164T402 139Q588
139 710 256T832 547Q832 675 752 748T529 821Q450 821 368 801T210 743L355 1493Z" />
<glyph unicode="6" glyph-name="six" horiz-adv-x="1060" d="M780 594Q780 707 722 768T557 829Q411 829 312 703T213 387Q213 266 274 198T442 129Q586 129 683 263T780 594ZM1048 1460L1012 1274Q954 1311 886 1330T743 1350Q550 1350 425 1207T244 780Q312
882 405 934T612 987Q790 987 886 888T983 604Q983 485 943 366T835 164Q757 67 658 19T436 -29Q233 -29 123 88T12 420Q12 586 51 765T158 1090Q256 1305 408 1412T768 1520Q843 1520 914 1505T1048 1460Z" />
<glyph unicode="7" glyph-name="seven" horiz-adv-x="1046" d="M110 1493H1046L1030 1399L225 0H8L786 1323H78L110 1493Z" />
<glyph unicode="8" glyph-name="eight" horiz-adv-x="1106" d="M789 461Q789 577 723 643T539 709Q397 709 306 611T214 358Q214 253 281 190T460 127Q608 127 698 219T789 461ZM398 793Q291 831 237 903T183 1081Q183 1263 331 1391T693 1520Q871 1520 982 1429T1094
1194Q1094 1050 997 937T740 782Q866 752 930 669T994 453Q994 244 842 108T453 -29Q246 -29 128 73T9 354Q9 520 113 638T398 793ZM675 1364Q548 1364 466 1284T384 1079Q384 980 442 923T603 866Q726 866 810 953T894 1165Q894 1256 834 1310T675 1364Z" />
<glyph unicode="9" glyph-name="nine" horiz-adv-x="1061" d="M279 897Q279 784 337 723T502 662Q648 662 747 788T846 1104Q846 1226 786 1294T619 1362Q475 1362 377 1228T279 897ZM12 31L47 217Q105 180 173 161T316 141Q509 141 634 284T815 711Q747 609 654
557T447 504Q269 504 173 604T76 889Q76 1007 116 1125T223 1327Q301 1423 401 1471T623 1520Q826 1520 937 1403T1049 1071Q1049 905 1010 726T903 401Q805 187 652 79T291 -29Q216 -29 146 -14T12 31Z" />
<glyph unicode=":" glyph-name="colon" horiz-adv-x="464" d="M210 1061H462L402 758H151L210 1061ZM62 303H314L255 0H3L62 303Z" />
<glyph unicode=";" glyph-name="semicolon" horiz-adv-x="600" d="M200 303H452L411 96L153 -287H0L159 96L200 303ZM348 1063H600L540 760H289L348 1063Z" />
<glyph unicode="&lt;" glyph-name="less" horiz-adv-x="1067" d="M1057 961L207 641L1057 324V141L0 559V725L1057 1143V961Z" />
<glyph unicode="=" glyph-name="equal" horiz-adv-x="1091" d="M31 524H1088V352H31V524ZM31 930H1088V760H31V930Z" />
<glyph unicode="&gt;" glyph-name="greater" horiz-adv-x="1088" d="M31 961V1143L1088 725V559L31 141V324L881 641L31 961Z" />
<glyph unicode="?" glyph-name="question" horiz-adv-x="813" d="M301 401H111L139 555Q158 646 196 711T348 870L455 961Q540 1033 575 1088T611 1200Q611 1274 555 1315T400 1356Q321 1356 223 1321T19 1219L55 1407Q164 1464 265 1492T467 1520Q620 1520 716
1439T813 1231Q813 1137 765 1057T586 868L481 782Q397 712 367 661T322 524L301 401ZM76 254H279L230 0H25L76 254Z" />
<glyph unicode="@" glyph-name="at" horiz-adv-x="1265" d="M750 260Q875 260 962 365T1049 623Q1049 719 999 774T860 829Q737 829 651 725T565 469Q565 372 614 316T750 260ZM1100 135H956L977 246Q926 183 855 149T703 115Q572 115 489 207T406 444Q406 664
538 820T852 977Q936 977 1000 941T1094 844L1102 887Q1108 922 1111 948T1114 989Q1114 1115 1041 1185T838 1255Q696 1255 565 1177T338 956Q254 831 210 682T166 375Q166 118 295 -29T649 -176Q706 -176 766 -164T893 -125L938 -256Q872 -287 801 -302T647 -317Q359
-317 186 -128T12 379Q12 580 83 779T279 1124Q389 1255 536 1326T842 1397Q1031 1397 1143 1293T1255 1012Q1255 982 1251 944T1237 858L1100 135Z" />
<glyph unicode="A" glyph-name="A" horiz-adv-x="1176" d="M841 1325L477 551H907L841 1325ZM745 1493H991L1157 0H956L921 389H401L217 0H0L745 1493Z" />
<glyph unicode="B" glyph-name="B" horiz-adv-x="1170" d="M353 713L246 166H494Q678 166 775 253T873 504Q873 611 805 662T594 713H353ZM471 1327L383 877H627Q778 877 864 949T951 1149Q951 1243 896 1285T715 1327H471ZM301 1493H744Q947 1493 1051 1414T1155
1180Q1155 1026 1063 923T815 799Q940 776 1006 697T1073 494Q1073 260 914 130T463 0H11L301 1493Z" />
<glyph unicode="C" glyph-name="C" horiz-adv-x="1118" d="M842 53Q758 12 673 -8T496 -29Q266 -29 140 104T13 477Q13 697 83 913T267 1266Q374 1396 503 1458T797 1520Q877 1520 956 1499T1110 1438L1069 1231Q1005 1294 934 1325T783 1356Q688 1356 607 1316T455
1192Q351 1069 288 877T224 492Q224 319 302 227T527 135Q612 135 702 167T881 260L842 53Z" />
<glyph unicode="D" glyph-name="D" horiz-adv-x="1163" d="M343 166Q528 166 640 228T820 432Q874 547 908 706T943 999Q943 1175 861 1251T586 1327H472L246 166H343ZM605 1493Q878 1493 1013 1369T1149 993Q1149 831 1107 659T994 354Q890 163 735 82T314 0H11L302
1493H605Z" />
<glyph unicode="E" glyph-name="E" horiz-adv-x="1188" d="M302 1493H1187L1154 1323H470L384 881H1037L1005 711H351L247 170H949L916 0H11L302 1493Z" />
<glyph unicode="F" glyph-name="F" horiz-adv-x="1181" d="M302 1493H1181L1148 1323H472L386 883H998L966 713H353L214 0H11L302 1493Z" />
<glyph unicode="G" glyph-name="G" horiz-adv-x="1122" d="M903 96Q816 34 713 3T493 -29Q261 -29 137 105T12 489Q12 579 28 680T77 893Q112 1010 159 1104T262 1266Q369 1396 498 1458T794 1520Q874 1520 953 1499T1110 1438L1069 1231Q1004 1294 933 1325T780
1356Q682 1356 596 1315T442 1192Q398 1140 359 1062T290 887Q256 773 239 673T221 492Q221 321 300 228T524 135Q592 135 646 153T737 207L813 600H596L626 766H1036L903 96Z" />
<glyph unicode="H" glyph-name="H" horiz-adv-x="1273" d="M303 1493H505L387 881H940L1058 1493H1261L970 0H768L907 711H352L215 0H12L303 1493Z" />
<glyph unicode="I" glyph-name="I" horiz-adv-x="1127" d="M293 1493H1123L1090 1323H776L553 170H867L834 0H4L37 170H350L574 1323H260L293 1493Z" />
<glyph unicode="J" glyph-name="J" horiz-adv-x="1135" d="M0 61L45 297Q117 218 209 177T404 135Q546 135 616 208T727 487L891 1323H510L543 1493H1127L930 487Q874 198 754 85T396 -29Q299 -29 199 -6T0 61Z" />
<glyph unicode="K" glyph-name="K" horiz-adv-x="1381" d="M304 1493H506L379 846L1121 1493H1375L672 874L1100 0H881L521 741L328 573L216 0H13L304 1493Z" />
<glyph unicode="L" glyph-name="L" horiz-adv-x="964" d="M299 1493H501L243 170H964L931 0H8L299 1493Z" />
<glyph unicode="M" glyph-name="M" horiz-adv-x="1377" d="M301 1493H570L680 737L1094 1493H1364L1073 0H887L1145 1327L711 532H570L455 1327L199 0H13L301 1493Z" />
<glyph unicode="N" glyph-name="N" horiz-adv-x="1269" d="M303 1493H559L823 264L1062 1493H1257L966 0H710L446 1229L206 0H12L303 1493Z" />
<glyph unicode="O" glyph-name="O" horiz-adv-x="1097" d="M434 135Q519 135 591 186T710 332Q784 477 830 683T876 1079Q876 1221 824 1288T661 1356Q576 1356 505 1305T387 1159Q311 1012 265 808T219 414Q219 271 271 203T434 135ZM1083 1020Q1083 910 1061
781T995 516Q966 424 933 351T860 219Q772 92 663 32T409 -29Q208 -29 111 94T14 473Q14 584 35 711T100 975Q129 1067 162 1140T235 1272Q323 1399 432 1459T686 1520Q888 1520 985 1398T1083 1020Z" />
<glyph unicode="P" glyph-name="P" horiz-adv-x="1164" d="M472 1327L363 766H597Q762 766 860 861T959 1116Q959 1224 897 1275T705 1327H472ZM302 1493H742Q948 1493 1056 1401T1164 1135Q1164 886 1004 743T564 600H331L214 0H11L302 1493Z" />
<glyph unicode="Q" glyph-name="Q" horiz-adv-x="1087" d="M430 -27H420Q205 -27 107 92T8 473Q8 584 29 711T94 975Q123 1067 156 1140T229 1272Q317 1399 426 1459T680 1520Q882 1520 979 1398T1077 1020Q1077 937 1063 839T1020 629Q990 513 958 427T889 274Q835
179 765 111T616 10L770 -178L616 -270L430 -27ZM428 135Q513 135 585 186T704 332Q778 477 824 683T870 1079Q870 1221 818 1288T655 1356Q570 1356 499 1305T381 1159Q305 1012 259 808T213 414Q213 271 265 203T428 135Z" />
<glyph unicode="R" glyph-name="R" horiz-adv-x="1169" d="M765 705Q837 691 880 638T978 408L1099 0H898L792 377Q748 533 694 582T529 631H337L214 0H11L300 1493H716Q923 1493 1036 1404T1150 1151Q1150 968 1047 848T765 705ZM472 1327L370 797H589Q752 797
849 882T947 1110Q947 1222 884 1274T685 1327H472Z" />
<glyph unicode="S" glyph-name="S" horiz-adv-x="1140" d="M1129 1442L1090 1237Q1009 1296 922 1326T742 1356Q577 1356 473 1274T369 1065Q369 994 418 950T596 866L717 827Q880 777 955 694T1031 481Q1031 246 865 109T412 -29Q308 -29 208 -7T7 61L48 270Q146
201 246 168T459 135Q624 135 727 223T830 446Q830 528 786 573T609 659L508 692Q324 750 251 823T177 1018Q177 1239 342 1379T773 1520Q853 1520 943 1500T1129 1442Z" />
<glyph unicode="T" glyph-name="T" horiz-adv-x="1181" d="M41 1493H1181L1148 1323H679L423 0H219L477 1323H8L41 1493Z" />
<glyph unicode="U" glyph-name="U" horiz-adv-x="1176" d="M52 573L230 1493H433L254 573Q252 560 246 532Q216 378 216 319Q216 227 270 181T435 135Q524 135 586 163T693 254Q715 285 737 360T787 573L965 1493H1168L990 573Q948 354 901 252T775 86Q704 30
613 1T416 -29Q224 -29 121 61T17 317Q17 354 25 417T52 573Z" />
<glyph unicode="V" glyph-name="V" horiz-adv-x="1143" d="M330 190L928 1493H1143L424 0H166L19 1493H217L330 190Z" />
<glyph unicode="W" glyph-name="W" horiz-adv-x="1324" d="M89 1493H280L190 283L519 1083H730L745 281L1122 1493H1320L810 0H616L585 870L214 0H26L89 1493Z" />
<glyph unicode="X" glyph-name="X" horiz-adv-x="1477" d="M374 1493H574L798 961L1238 1493H1469L873 774L1197 0H996L742 612L236 0H5L662 797L374 1493Z" />
<glyph unicode="Y" glyph-name="Y" horiz-adv-x="1165" d="M12 1493H214L450 842L947 1493H1165L530 670L401 0H194L325 670L12 1493Z" />
<glyph unicode="Z" glyph-name="Z" horiz-adv-x="1289" d="M315 1493H1284L1255 1339L276 170H1050L1016 0H4L33 154L1009 1323H282L315 1493Z" />
<glyph unicode="[" glyph-name="bracketleft" horiz-adv-x="782" d="M359 1556H782L754 1413H514L215 -127H455L428 -270H2L359 1556Z" />
<glyph unicode="\" glyph-name="backslash" horiz-adv-x="371" d="M370 -190H200L1 1493H171L370 -190Z" />
<glyph unicode="]" glyph-name="bracketright" horiz-adv-x="783" d="M781 1556L424 -270H0L29 -127H269L568 1413H328L357 1556H781Z" />
<glyph unicode="^" glyph-name="asciicircum" horiz-adv-x="1097" d="M637 1493L1093 936H915L548 1331L182 936H4L460 1493H637Z" />
<glyph unicode="_" glyph-name="underscore" horiz-adv-x="1293" d="M1263 -403V-483H30V-403H1263Z" />
<glyph unicode="`" glyph-name="grave" horiz-adv-x="397" d="M198 1638L395 1262H252L0 1638H198Z" />
<glyph unicode="a" glyph-name="a" horiz-adv-x="1043" d="M630 563Q511 563 453 556T352 530Q284 503 243 442T202 307Q202 224 253 175T393 125Q541 125 648 231T794 522L802 563H630ZM1001 639L876 0H692L724 166Q652 72 554 22T346 -29Q193 -29 102 54T10
276Q10 472 164 589T583 707H829L841 768Q843 777 844 787T845 815Q845 900 782 945T602 991Q516 991 417 966T206 889L241 1069Q349 1108 446 1127T632 1147Q818 1147 921 1065T1025 838Q1025 806 1019 754T1001 639Z" />
<glyph unicode="b" glyph-name="b" horiz-adv-x="1061" d="M489 127Q573 127 641 172T755 303Q804 397 832 513T861 737Q861 865 811 929T659 993Q576 993 508 947T388 813Q340 727 311 611T282 383Q282 260 335 194T489 127ZM384 977Q446 1061 528 1104T712 1147Q876
1147 967 1044T1058 754Q1058 609 1017 465T904 213Q828 98 719 35T485 -29Q387 -29 321 14T220 141L194 0H9L312 1556H497L384 977Z" />
<glyph unicode="c" glyph-name="c" horiz-adv-x="1004" d="M797 51Q724 12 641 -8T467 -29Q243 -29 128 83T13 416Q13 565 66 708T211 950Q304 1049 415 1098T660 1147Q749 1147 832 1126T994 1061L957 879Q891 937 821 964T666 991Q556 991 471 947T326 813Q270
731 239 626T207 416Q207 272 275 200T480 127Q576 127 664 158T836 252L797 51Z" />
<glyph unicode="d" glyph-name="d" horiz-adv-x="1144" d="M568 991Q480 991 413 948T300 817Q251 727 224 613T197 383Q197 255 248 191T400 127Q485 127 553 172T670 305Q719 392 747 507T775 737Q775 857 721 924T568 991ZM836 977L951 1556H1135L832 0H648L675
141Q610 57 528 14T345 -29Q182 -29 92 76T1 369Q1 512 41 656T150 909Q225 1027 326 1087T552 1147Q649 1147 722 1104T836 977Z" />
<glyph unicode="e" glyph-name="e" horiz-adv-x="1055" d="M854 659Q860 686 862 703T864 737Q864 857 799 924T618 991Q495 991 394 901T248 659H854ZM877 57Q772 14 672 -7T469 -29Q246 -29 130 82T14 408Q14 564 74 714T240 973Q323 1059 423 1104T633 1149Q819
1149 930 1035T1042 729Q1042 695 1037 645T1020 516H213Q207 484 204 458T201 412Q201 273 278 200T502 127Q590 127 694 155T913 240L877 57Z" />
<glyph unicode="f" glyph-name="f" horiz-adv-x="982" d="M982 1556L951 1403H743Q648 1403 600 1362T532 1219L511 1120H896L870 977H485L294 0H110L300 977H1L30 1120H327L343 1198Q381 1391 477 1473T761 1556H982Z" />
<glyph unicode="g" glyph-name="g" horiz-adv-x="1106" d="M466 145Q545 145 611 190T724 319Q773 409 800 521T828 739Q828 858 772 924T616 991Q462 991 357 823T251 399Q251 280 308 213T466 145ZM896 72Q843 -199 710 -319T329 -440Q247 -440 168 -426T13
-385L50 -203Q123 -247 201 -270T360 -293Q509 -293 591 -213T710 53L734 170Q676 83 589 38T392 -8Q238 -8 147 99T56 391Q56 530 96 667T208 911Q282 1023 386 1085T601 1147Q702 1147 778 1099T888 965L915 1116H1099L896 72Z" />
<glyph unicode="h" glyph-name="h" horiz-adv-x="1025" d="M999 694L864 0H680L815 695Q816 699 818 709Q833 780 833 819Q833 900 787 943T653 987Q526 987 437 894T315 633L192 0H8L311 1556H495L379 952Q454 1049 541 1098T727 1147Q866 1147 943 1075T1020
872Q1020 840 1015 793T999 694Z" />
<glyph unicode="i" glyph-name="i" horiz-adv-x="950" d="M297 1120H768L578 143H943L914 0H0L29 143H394L555 977H269L297 1120ZM668 1556H852L807 1323H623L668 1556Z" />
<glyph unicode="j" glyph-name="j" horiz-adv-x="985" d="M494 -20L686 977H369L397 1120H899L678 -20Q637 -233 536 -329T254 -426H0L31 -270H264Q359 -270 414 -211T494 -20ZM799 1556H983L938 1323H754L799 1556Z" />
<glyph unicode="k" glyph-name="k" horiz-adv-x="1124" d="M313 1556H504L334 682L883 1120H1124L604 698L977 0H764L457 582L289 449L201 0H10L313 1556Z" />
<glyph unicode="l" glyph-name="l" horiz-adv-x="674" d="M294 408Q287 373 284 346T280 301Q280 228 324 192T460 156H671L640 0H433Q260 0 176 63T91 258Q91 286 96 326T110 412L321 1423H5L34 1567H534L294 408Z" />
<glyph unicode="m" glyph-name="m" horiz-adv-x="1226" d="M776 1006Q815 1074 877 1110T1017 1147Q1103 1147 1154 1093T1206 946Q1206 892 1197 824T1167 649L1040 0H872L997 641Q1015 733 1024 791T1034 874Q1034 937 1011 965T937 993Q862 993 820 929T735
641L610 0H442L567 641Q586 738 594 794T603 874Q603 935 580 964T507 993Q433 993 393 934T307 641L182 0H14L231 1120H399L380 1024Q424 1084 479 1115T599 1147Q674 1147 720 1110T776 1006Z" />
<glyph unicode="n" glyph-name="n" horiz-adv-x="1043" d="M1003 694L868 0H684L819 695Q820 699 822 709Q837 780 837 819Q837 900 791 943T657 987Q530 987 441 894T319 633L196 0H12L231 1120H415L383 952Q458 1049 545 1098T731 1147Q870 1147 947 1075T1024
872Q1024 840 1019 793T1003 694Z" />
<glyph unicode="o" glyph-name="o" horiz-adv-x="1026" d="M594 991Q430 991 321 820T211 385Q211 256 267 192T435 127Q599 127 708 298T818 733Q818 862 762 926T594 991ZM611 1147Q807 1147 909 1040T1012 727Q1012 589 971 453T856 207Q777 89 664 30T404
-29Q217 -29 116 80T15 393Q15 528 56 663T172 911Q251 1027 362 1087T611 1147Z" />
<glyph unicode="p" glyph-name="p" horiz-adv-x="1140" d="M304 141L193 -426H9L310 1120H494L466 977Q527 1059 613 1103T799 1147Q961 1147 1050 1043T1139 752Q1139 609 1100 465T990 211Q915 93 813 32T589 -29Q489 -29 419 13T304 141ZM580 127Q661 127 728
171T840 301Q889 393 917 508T945 737Q945 864 894 927T740 991Q655 991 587 946T470 813Q421 725 393 611T365 383Q365 260 421 194T580 127Z" />
<glyph unicode="q" glyph-name="q" horiz-adv-x="1062" d="M680 141Q619 57 537 14T352 -29Q188 -29 96 74T4 365Q4 507 45 652T158 909Q233 1027 337 1087T572 1147Q672 1147 739 1105T842 977L869 1120H1053L754 -426H570L680 141ZM574 991Q489 991 421 947T307
817Q258 723 230 607T201 383Q201 255 251 191T404 127Q486 127 555 172T674 305Q722 390 751 507T780 737Q780 860 727 925T574 991Z" />
<glyph unicode="r" glyph-name="r" horiz-adv-x="1014" d="M979 889Q934 933 875 955T739 977Q575 977 458 863T303 549L196 0H12L229 1120H413L373 901Q440 1021 546 1084T788 1147Q859 1147 916 1129T1014 1075L979 889Z" />
<glyph unicode="s" glyph-name="s" horiz-adv-x="980" d="M969 1081L934 901Q863 946 785 969T629 993Q492 993 417 942T341 799Q341 701 562 645Q577 641 584 639L656 621Q773 590 831 529T889 375Q889 194 745 83T363 -29Q282 -29 194 -12T7 41L44 231Q138 178
226 152T398 125Q531 125 615 184T699 336Q699 435 503 487Q485 491 475 494L408 512Q279 545 219 609T158 776Q158 946 290 1046T646 1147Q734 1147 815 1131T969 1081Z" />
<glyph unicode="t" glyph-name="t" horiz-adv-x="930" d="M574 1438L513 1120H930L902 977H484L365 369Q359 339 356 314T353 266Q353 200 392 174T533 147H740L711 0H488Q321 0 243 55T164 229Q164 254 168 288T181 369L300 977H1L29 1120H328L390 1438H574Z" />
<glyph unicode="u" glyph-name="u" horiz-adv-x="1039" d="M37 426L170 1120H355L220 426Q213 389 209 355T205 297Q205 218 251 176T383 133Q510 133 598 225T719 487L842 1120H1027L809 0H625L658 168Q585 70 496 22T302 -27Q171 -27 95 46T19 246Q19 285 23
331T37 426Z" />
<glyph unicode="v" glyph-name="v" horiz-adv-x="1048" d="M16 1120H194L348 164L850 1120H1048L434 0H196L16 1120Z" />
<glyph unicode="w" glyph-name="w" horiz-adv-x="1253" d="M26 1120H202L217 215L485 793H647L696 215L1058 1120H1249L763 0H598L538 623L241 0H75L26 1120Z" />
<glyph unicode="x" glyph-name="x" horiz-adv-x="1295" d="M1285 1120L773 573L1091 0H894L650 444L233 0H7L571 596L278 1120H474L691 725L1060 1120H1285Z" />
<glyph unicode="y" glyph-name="y" horiz-adv-x="1273" d="M834 360Q772 253 669 72Q514 -203 460 -276Q402 -352 328 -389T157 -426H9L38 -272H146Q227 -272 285 -226T404 -66L447 18L230 1120H413L585 258L1068 1120H1273L834 360Z" />
<glyph unicode="z" glyph-name="z" horiz-adv-x="1070" d="M248 1120H1062L1029 952L244 147H873L844 0H7L40 168L824 973H220L248 1120Z" />
<glyph unicode="{" glyph-name="braceleft" horiz-adv-x="992" d="M992 1556L963 1413H885Q749 1413 702 1374T625 1184L574 932Q541 772 481 700T310 606Q383 588 423 537T463 410Q463 385 460 353T449 283L402 39Q396 6 394 -19T391 -70Q391 -133 434 -161T574
-190H652L623 -334H551Q364 -334 283 -280T201 -102Q201 -71 204 -37T215 34L260 270Q261 273 263 282Q273 332 273 377Q273 462 224 499T62 537H0L29 684H90Q235 684 298 739T391 944L441 1188Q466 1311 502 1382T592 1493Q639 1527 708 1541T910 1556H992Z" />
<glyph unicode="|" glyph-name="bar" horiz-adv-x="234" d="M202 1565V-483H30V1565H202Z" />
<glyph unicode="}" glyph-name="braceright" horiz-adv-x="991" d="M0 -334L28 -190H106Q242 -190 289 -151T366 39L417 291Q450 451 510 523T682 616Q608 635 568 686T528 813Q528 837 531 869T542 940L589 1183Q595 1217 597 1242T600 1292Q600 1356 558 1384T417
1413H340L366 1556H440Q628 1556 709 1502T790 1325Q790 1293 787 1259T776 1188L731 952Q730 949 729 940Q719 891 719 846Q719 760 768 723T929 686H991L962 539H901Q757 539 694 484T598 279L551 35Q525 -89 489 -160T399 -270Q352 -304 283 -319T82 -334H0Z"
/>
<glyph unicode="~" glyph-name="asciitilde" horiz-adv-x="1105" d="M1081 780V606Q1006 547 935 520T784 492Q694 492 581 543Q559 553 548 557Q471 590 420 602T317 614Q238 614 168 585T24 492V666Q102 726 175 753T331 780Q384 780 434 769T558 727Q570 722
591 712Q707 657 800 657Q870 657 938 687T1081 780Z" />
<glyph unicode="&#xa1;" glyph-name="exclamdown" horiz-adv-x="494" d="M445 1239H242L291 1493H494L445 1239ZM203 0H0L129 655L217 1012H379L330 655L203 0Z" />
<glyph unicode="&#xa2;" glyph-name="cent" horiz-adv-x="965" d="M965 1077L933 905Q884 943 823 965T689 993L519 123Q584 128 653 150T798 213L765 41Q690 10 622 -6T490 -27L435 -313H333L388 -27Q205 -7 103 114T1 430Q1 616 82 778T304 1036Q374 1085 451
1112T615 1145L671 1432H773L718 1145Q778 1142 840 1125T965 1077ZM419 127L587 991Q422 976 308 812T193 422Q193 292 251 216T419 127Z" />
<glyph unicode="&#xa3;" glyph-name="sterling" horiz-adv-x="1243" d="M1237 1462L1200 1278Q1146 1321 1086 1343T962 1366Q823 1366 746 1281T631 995L588 778H958L930 635H559L469 170H1005L973 0H0L33 170H270L360 635H162L188 778H387L434 1016Q485 1276
616 1398T975 1520Q1035 1520 1100 1506T1237 1462Z" />
<glyph unicode="&#xa4;" glyph-name="currency" horiz-adv-x="941" d="M686 643Q686 733 624 794T471 856Q381 856 319 795T256 643Q256 551 318 489T471 426Q562 426 624 489T686 643ZM662 924L828 1090L918 997L752 831Q782 782 796 736T811 641Q811 591 796
546T750 455L918 289L824 195L658 362Q612 331 567 316T471 301Q423 301 375 315T279 358L115 195L23 285L189 451Q158 502 144 548T129 641Q129 691 144 737T191 829L23 995L117 1090L283 922Q329 953 374 968T471 983Q517 983 564 969T662 924Z" />
<glyph unicode="&#xa5;" glyph-name="yen" horiz-adv-x="1230" d="M994 524H601L503 0H304L402 524H5L28 635H425L431 670L376 821H67L89 932H335L130 1493H337L560 829L1019 1493H1230L826 932H1078L1056 821H744L634 670L624 635H1017L994 524Z" />
<glyph unicode="&#xa6;" glyph-name="brokenbar" horiz-adv-x="221" d="M202 1432V674H30V1432H202ZM202 408V-350H30V408H202Z" />
<glyph unicode="&#xa7;" glyph-name="section" horiz-adv-x="978" d="M973 1454L940 1290Q869 1328 801 1348T674 1368Q571 1368 505 1319T439 1198Q439 1119 573 1029Q604 1009 621 997L707 938Q831 852 873 794T916 666Q916 565 850 475T670 332Q711 297 731
252T752 152Q752 -5 631 -103T310 -201Q240 -201 164 -187T4 -143L37 18Q111 -18 183 -37T316 -57Q428 -57 494 -10T561 115Q561 213 378 337L365 346L291 397Q166 482 126 537T86 666Q86 762 150 848T332 997Q291 1034 273 1074T254 1167Q254 1316 374 1413T680
1511Q751 1511 824 1497T973 1454ZM582 401Q666 452 710 507T754 618Q754 671 701 727T500 877L420 928Q338 876 295 820T252 709Q252 658 294 610T463 479L582 401Z" />
<glyph unicode="&#xa8;" glyph-name="dieresis" horiz-adv-x="683" d="M64 1552H267L228 1350H25L64 1552ZM455 1552H658L619 1350H416L455 1552Z" />
<glyph unicode="&#xa9;" glyph-name="copyright" horiz-adv-x="1261" d="M878 1071V963Q820 991 765 1004T651 1018Q534 1018 467 944T399 741Q399 609 469 538T669 467Q725 467 776 479T878 518V414Q826 391 769 380T651 369Q471 369 368 469T264 741Q264 914
368 1015T651 1116Q712 1116 769 1105T878 1071ZM630 1255Q524 1255 434 1218T268 1106Q193 1031 155 939T116 741Q116 637 154 546T268 379Q344 303 434 265T630 227Q736 227 826 265T993 379Q1069 455 1106 545T1144 741Q1144 847 1106 939T993 1106Q918 1181
828 1218T630 1255ZM630 1358Q757 1358 866 1313T1065 1178Q1155 1087 1201 977T1247 741Q1247 616 1202 507T1065 307Q974 216 865 171T630 125Q505 125 396 170T196 307Q105 398 60 507T14 741Q14 867 60 977T196 1178Q286 1268 395 1313T630 1358Z" />
<glyph unicode="&#xaa;" glyph-name="ordfeminine" horiz-adv-x="831" d="M510 1104Q362 1104 293 1064T223 938Q223 883 259 850T356 817Q467 817 542 884T645 1075L651 1104H510ZM807 1165L721 717H578L600 829Q547 766 473 732T313 698Q204 698 140 758T76
920Q76 1060 187 1139T498 1219H672Q672 1221 673 1228Q676 1255 676 1268Q676 1339 632 1372T492 1405Q423 1405 355 1389T215 1337L238 1464Q313 1492 386 1506T524 1520Q672 1520 744 1458T817 1268Q817 1245 815 1220T807 1165ZM27 592H703L680 469H4L27 592Z"
/>
<glyph unicode="&#xab;" glyph-name="guillemotleft" horiz-adv-x="1051" d="M1035 1059L992 848L642 584L892 317L857 141L470 559L486 641L1035 1059ZM568 1059L525 848L175 584L425 317L390 141L3 559L19 641L568 1059Z" />
<glyph unicode="&#xac;" glyph-name="logicalnot" horiz-adv-x="1087" d="M0 862H1057V371H889V690H0V862Z" />
<glyph unicode="&#xad;" glyph-name="sfthyphen" horiz-adv-x="605" d="M58 643H580L547 479H25L58 643Z" />
<glyph unicode="&#xae;" glyph-name="registered" horiz-adv-x="1261" d="M614 1100Q761 1100 833 1051T905 901Q905 830 861 784T737 723Q756 718 785 685T852 592L966 406H823L716 580Q667 660 637 681T561 702H506V406H376V1100H614ZM608 1016H506V784H608Q698
784 735 811T772 901Q772 963 735 989T608 1016ZM630 1358Q757 1358 866 1313T1065 1178Q1155 1087 1201 977T1247 741Q1247 616 1202 507T1065 307Q974 216 865 171T630 125Q505 125 396 170T196 307Q105 398 60 507T14 741Q14 867 60 977T196 1178Q286 1268 395
1313T630 1358ZM630 1255Q524 1255 434 1218T268 1106Q193 1031 155 939T116 741Q116 637 154 546T268 379Q344 303 434 265T630 227Q736 227 826 265T993 379Q1069 455 1106 545T1144 741Q1144 847 1106 939T993 1106Q918 1181 828 1218T630 1255Z" />
<glyph unicode="&#xaf;" glyph-name="overscore" horiz-adv-x="679" d="M55 1526H653L624 1378H26L55 1526Z" />
<glyph unicode="&#xb0;" glyph-name="degree" horiz-adv-x="664" d="M332 1520Q397 1520 455 1496T558 1425Q603 1380 626 1323T650 1200Q650 1068 557 977T330 885Q195 885 105 975T15 1200Q15 1334 107 1427T332 1520ZM332 1391Q253 1391 198 1336T142 1200Q142
1120 196 1066T330 1012Q410 1012 466 1067T523 1200Q523 1279 467 1335T332 1391Z" />
<glyph unicode="&#xb1;" glyph-name="plusminus" horiz-adv-x="1064" d="M3 170H1060V0H3V170ZM615 1171V842H1060V672H615V340H447V672H3V842H447V1171H615Z" />
<glyph unicode="&#xb2;" glyph-name="twosuperior" horiz-adv-x="702" d="M193 782H588L565 668H8L29 778L199 918L232 945Q545 1198 545 1303Q545 1354 508 1384T408 1415Q357 1415 296 1397T152 1337L176 1464Q260 1493 322 1506T438 1520Q556 1520 624 1465T692
1315Q692 1176 383 933L363 918L193 782Z" />
<glyph unicode="&#xb3;" glyph-name="threesuperior" horiz-adv-x="716" d="M492 1116Q564 1104 603 1059T642 942Q642 811 538 732T259 653Q193 653 130 663T7 694L31 815Q98 786 150 773T252 760Q364 760 429 806T494 930Q494 997 452 1029T320 1061H248L269
1167H341Q438 1167 497 1207T556 1311Q556 1362 513 1387T384 1413Q342 1413 292 1403T181 1370L203 1485Q274 1502 335 1511T451 1520Q572 1520 637 1470T703 1329Q703 1250 646 1192T492 1116Z" />
<glyph unicode="&#xb4;" glyph-name="acute" horiz-adv-x="551" d="M332 1638H551L156 1262H0L332 1638Z" />
<glyph unicode="&#xb5;" glyph-name="mu" horiz-adv-x="1210" d="M11 -426L312 1120H499L363 424Q357 393 354 366T351 319Q351 228 405 180T562 131Q699 131 781 214T896 467L1023 1120H1209L1041 258Q1038 240 1037 227T1035 203Q1035 173 1047 157T1084 141Q1093
141 1109 146T1156 164L1127 16Q1087 -6 1050 -17T980 -29Q913 -29 874 13T834 129Q781 47 712 9T544 -29Q452 -29 390 12T296 137L187 -426H11Z" />
<glyph unicode="&#xb6;" glyph-name="paragraph" horiz-adv-x="1030" d="M617 1493H1023L695 -197H556L859 1370H668L365 -197H224L388 649Q211 653 109 748T7 1004Q7 1213 180 1353T617 1493Z" />
<glyph unicode="&#xb7;" glyph-name="middot" horiz-adv-x="342" d="M73 864H327L268 559H16L73 864Z" />
<glyph unicode="&#xb8;" glyph-name="cedilla" horiz-adv-x="1233" d="M373 0Q410 -64 427 -110T445 -193Q445 -286 375 -340T185 -395Q141 -395 94 -388T0 -365L25 -236Q65 -255 101 -264T170 -274Q237 -274 274 -244T312 -160Q312 -132 298 -93T254 0H373Z" />
<glyph unicode="&#xb9;" glyph-name="onesuperior" horiz-adv-x="594" d="M27 778H233L350 1389L119 1348L141 1464L379 1503H516L375 778H580L559 668H6L27 778Z" />
<glyph unicode="&#xba;" glyph-name="ordmasculine" horiz-adv-x="857" d="M415 698Q263 698 176 788T89 1036Q89 1123 121 1212T210 1368Q271 1442 352 1481T523 1520Q674 1520 760 1429T847 1180Q847 1092 815 1004T728 850Q667 776 587 737T415 698ZM245 1038Q245
933 294 873T431 813Q537 813 615 921T693 1180Q693 1285 644 1345T507 1405Q400 1405 323 1298T245 1038ZM28 592H704L681 469H5L28 592Z" />
<glyph unicode="&#xbb;" glyph-name="guillemotright" horiz-adv-x="1051" d="M16 141L59 352L409 614L159 883L194 1059L581 641L567 559L16 141ZM483 141L526 352L876 614L626 883L661 1059L1048 641L1034 559L483 141Z" />
<glyph unicode="&#xbc;" glyph-name="onequarter" horiz-adv-x="1233" d="M625 566H787L682 26H799L779 -85H660L627 -269H488L523 -85H137L160 36L625 566ZM621 417L279 26H545L621 417ZM-230 934H-24L93 1545L-138 1504L-116 1620L122 1659H259L118 934H323L302
824H-251L-230 934ZM23 504L0 612L1059 870L1086 762L23 504Z" />
<glyph unicode="&#xbd;" glyph-name="onehalf" horiz-adv-x="1233" d="M-230 934H-24L93 1545L-138 1504L-116 1620L122 1659H259L118 934H323L302 824H-251L-230 934ZM23 504L0 612L1059 870L1086 762L23 504ZM347 -155H742L719 -269H162L183 -159L353 -19L386
8Q699 261 699 366Q699 417 662 447T562 478Q511 478 450 460T306 400L330 527Q414 556 476 569T592 583Q710 583 778 528T846 378Q846 239 537 -4L517 -19L347 -155Z" />
<glyph unicode="&#xbe;" glyph-name="threequarters" horiz-adv-x="1233" d="M625 566H787L682 26H799L779 -85H660L627 -269H488L523 -85H137L160 36L625 566ZM621 417L279 26H545L621 417ZM266 1272Q338 1260 377 1215T416 1098Q416 967 312 888T33 809Q-33
809 -96 819T-219 850L-195 971Q-128 942 -76 929T26 916Q138 916 203 962T268 1086Q268 1153 226 1185T94 1217H22L43 1323H115Q212 1323 271 1363T330 1467Q330 1518 287 1543T158 1569Q116 1569 66 1559T-45 1526L-23 1641Q48 1658 109 1667T225 1676Q346 1676
411 1626T477 1485Q477 1406 420 1348T266 1272ZM23 504L0 612L1059 870L1086 762L23 504Z" />
<glyph unicode="&#xbf;" glyph-name="questiondown" horiz-adv-x="813" d="M512 1092H703L674 938Q656 845 616 780T465 621L359 532Q274 460 239 405T203 293Q203 219 258 178T414 137Q493 137 591 172T795 274L758 86Q650 29 549 1T346 -27Q194 -27 97 54T0
262Q0 356 49 436T228 625L332 711Q416 781 446 832T492 969L512 1092ZM738 1239H535L584 1493H787L738 1239Z" />
<glyph unicode="&#xc0;" glyph-name="Agrave" horiz-adv-x="1233" d="M841 1325L477 551H907L841 1325ZM745 1493H991L1157 0H956L921 389H401L217 0H0L745 1493ZM233 1899L380 1635H241L51 1899H233Z" />
<glyph unicode="&#xc1;" glyph-name="Aacute" horiz-adv-x="1233" d="M841 1325L477 551H907L841 1325ZM745 1493H991L1157 0H956L921 389H401L217 0H0L745 1493ZM311 1899H519L212 1635H52L311 1899Z" />
<glyph unicode="&#xc2;" glyph-name="Acircumflex" horiz-adv-x="1233" d="M841 1325L477 551H907L841 1325ZM745 1493H991L1157 0H956L921 389H401L217 0H0L745 1493ZM317 1901H530L688 1635H555L416 1813L207 1635H55L317 1901Z" />
<glyph unicode="&#xc3;" glyph-name="Atilde" horiz-adv-x="1233" d="M841 1325L477 551H907L841 1325ZM745 1493H991L1157 0H956L921 389H401L217 0H0L745 1493ZM414 1710L380 1735L378 1736Q336 1768 298 1768Q264 1768 237 1743T191 1667H66Q101 1776 163 1831T310
1886Q344 1886 375 1875T441 1839L476 1813Q494 1799 512 1793T549 1786Q589 1786 617 1813T656 1886H781Q749 1777 686 1722T531 1667Q500 1667 473 1677T414 1710Z" />
<glyph unicode="&#xc4;" glyph-name="Adieresis" horiz-adv-x="1233" d="M841 1325L477 551H907L841 1325ZM745 1493H991L1157 0H956L921 389H401L217 0H0L745 1493ZM506 1870H709L670 1667H467L506 1870ZM115 1870H319L278 1667H76L115 1870Z" />
<glyph unicode="&#xc5;" glyph-name="Aring" horiz-adv-x="1182" d="M1030 1626Q1030 1689 986 1733T878 1778Q814 1778 771 1735T727 1626Q727 1563 770 1519T878 1475Q941 1475 985 1519T1030 1626ZM841 1325L477 551H907L841 1325ZM706 1415Q655 1450 630 1503T604
1626Q604 1740 683 1820T878 1901Q992 1901 1072 1821T1153 1626Q1153 1545 1113 1482T1003 1386L1157 0H956L921 389H401L217 0H0L706 1415Z" />
<glyph unicode="&#xc6;" glyph-name="AE" horiz-adv-x="1462" d="M1454 1493L1421 1323H1083L997 881H1304L1271 711H964L858 170H1214L1181 0H639L714 383H362L186 0H2L702 1493H1454ZM794 1323L438 551H747L897 1323H794Z" />
<glyph unicode="&#xc7;" glyph-name="Ccedilla" horiz-adv-x="1233" d="M842 53Q758 12 673 -8T496 -29Q266 -29 140 104T13 477Q13 697 83 913T267 1266Q374 1396 503 1458T797 1520Q877 1520 956 1499T1110 1438L1069 1231Q1005 1294 934 1325T783 1356Q688
1356 607 1316T455 1192Q351 1069 288 877T224 492Q224 319 302 227T527 135Q612 135 702 167T881 260L842 53ZM473 0Q510 -64 527 -110T545 -193Q545 -286 475 -340T285 -395Q241 -395 194 -388T100 -365L125 -236Q165 -255 201 -264T270 -274Q337 -274 374 -244T412
-160Q412 -132 398 -93T354 0H473Z" />
<glyph unicode="&#xc8;" glyph-name="Egrave" horiz-adv-x="1233" d="M302 1493H1187L1154 1323H470L384 881H1037L1005 711H351L247 170H949L916 0H11L302 1493ZM278 1899L425 1635H286L96 1899H278Z" />
<glyph unicode="&#xc9;" glyph-name="Eacute" horiz-adv-x="1233" d="M302 1493H1187L1154 1323H470L384 881H1037L1005 711H351L247 170H949L916 0H11L302 1493ZM356 1899H564L257 1635H97L356 1899Z" />
<glyph unicode="&#xca;" glyph-name="Ecircumflex" horiz-adv-x="1233" d="M302 1493H1187L1154 1323H470L384 881H1037L1005 711H351L247 170H949L916 0H11L302 1493ZM362 1901H575L733 1635H600L461 1813L252 1635H100L362 1901Z" />
<glyph unicode="&#xcb;" glyph-name="Edieresis" horiz-adv-x="1233" d="M302 1493H1187L1154 1323H470L384 881H1037L1005 711H351L247 170H949L916 0H11L302 1493ZM551 1870H754L715 1667H512L551 1870ZM160 1870H364L323 1667H121L160 1870Z" />
<glyph unicode="&#xcc;" glyph-name="Igrave" horiz-adv-x="1233" d="M293 1493H1123L1090 1323H776L553 170H867L834 0H4L37 170H350L574 1323H260L293 1493ZM239 1899L386 1635H247L57 1899H239Z" />
<glyph unicode="&#xcd;" glyph-name="Iacute" horiz-adv-x="1233" d="M293 1493H1123L1090 1323H776L553 170H867L834 0H4L37 170H350L574 1323H260L293 1493ZM317 1899H525L218 1635H58L317 1899Z" />
<glyph unicode="&#xce;" glyph-name="Icircumflex" horiz-adv-x="1233" d="M293 1493H1123L1090 1323H776L553 170H867L834 0H4L37 170H350L574 1323H260L293 1493ZM323 1901H536L694 1635H561L422 1813L213 1635H61L323 1901Z" />
<glyph unicode="&#xcf;" glyph-name="Idieresis" horiz-adv-x="1233" d="M293 1493H1123L1090 1323H776L553 170H867L834 0H4L37 170H350L574 1323H260L293 1493ZM512 1870H715L676 1667H473L512 1870ZM121 1870H325L284 1667H82L121 1870Z" />
<glyph unicode="&#xd0;" glyph-name="Eth" horiz-adv-x="1164" d="M344 166Q529 166 641 228T821 432Q875 547 909 706T944 999Q944 1175 862 1251T587 1327H473L382 858H649L620 709H354L247 166H344ZM606 1493Q879 1493 1014 1369T1150 993Q1150 831 1108 659T995
354Q891 163 736 82T315 0H12L149 709H22L51 858H180L303 1493H606Z" />
<glyph unicode="&#xd1;" glyph-name="Ntilde" horiz-adv-x="1233" d="M303 1493H559L823 264L1062 1493H1257L966 0H710L446 1229L206 0H12L303 1493ZM410 1710L376 1735L374 1736Q332 1768 294 1768Q260 1768 233 1743T187 1667H62Q97 1776 159 1831T306 1886Q340
1886 371 1875T437 1839L472 1813Q490 1799 508 1793T545 1786Q585 1786 613 1813T652 1886H777Q745 1777 682 1722T527 1667Q496 1667 469 1677T410 1710Z" />
<glyph unicode="&#xd2;" glyph-name="Ograve" horiz-adv-x="1233" d="M434 135Q519 135 591 186T710 332Q784 477 830 683T876 1079Q876 1221 824 1288T661 1356Q576 1356 505 1305T387 1159Q311 1012 265 808T219 414Q219 271 271 203T434 135ZM1083 1020Q1083
910 1061 781T995 516Q966 424 933 351T860 219Q772 92 663 32T409 -29Q208 -29 111 94T14 473Q14 584 35 711T100 975Q129 1067 162 1140T235 1272Q323 1399 432 1459T686 1520Q888 1520 985 1398T1083 1020ZM225 1899L372 1635H233L43 1899H225Z" />
<glyph unicode="&#xd3;" glyph-name="Oacute" horiz-adv-x="1233" d="M434 135Q519 135 591 186T710 332Q784 477 830 683T876 1079Q876 1221 824 1288T661 1356Q576 1356 505 1305T387 1159Q311 1012 265 808T219 414Q219 271 271 203T434 135ZM1083 1020Q1083
910 1061 781T995 516Q966 424 933 351T860 219Q772 92 663 32T409 -29Q208 -29 111 94T14 473Q14 584 35 711T100 975Q129 1067 162 1140T235 1272Q323 1399 432 1459T686 1520Q888 1520 985 1398T1083 1020ZM303 1899H511L204 1635H44L303 1899Z" />
<glyph unicode="&#xd4;" glyph-name="Ocircumflex" horiz-adv-x="1233" d="M434 135Q519 135 591 186T710 332Q784 477 830 683T876 1079Q876 1221 824 1288T661 1356Q576 1356 505 1305T387 1159Q311 1012 265 808T219 414Q219 271 271 203T434 135ZM1083 1020Q1083
910 1061 781T995 516Q966 424 933 351T860 219Q772 92 663 32T409 -29Q208 -29 111 94T14 473Q14 584 35 711T100 975Q129 1067 162 1140T235 1272Q323 1399 432 1459T686 1520Q888 1520 985 1398T1083 1020ZM309 1901H522L680 1635H547L408 1813L199 1635H47L309
1901Z" />
<glyph unicode="&#xd5;" glyph-name="Otilde" horiz-adv-x="1233" d="M434 135Q519 135 591 186T710 332Q784 477 830 683T876 1079Q876 1221 824 1288T661 1356Q576 1356 505 1305T387 1159Q311 1012 265 808T219 414Q219 271 271 203T434 135ZM1083 1020Q1083
910 1061 781T995 516Q966 424 933 351T860 219Q772 92 663 32T409 -29Q208 -29 111 94T14 473Q14 584 35 711T100 975Q129 1067 162 1140T235 1272Q323 1399 432 1459T686 1520Q888 1520 985 1398T1083 1020ZM406 1710L372 1735L370 1736Q328 1768 290 1768Q256
1768 229 1743T183 1667H58Q93 1776 155 1831T302 1886Q336 1886 367 1875T433 1839L468 1813Q486 1799 504 1793T541 1786Q581 1786 609 1813T648 1886H773Q741 1777 678 1722T523 1667Q492 1667 465 1677T406 1710Z" />
<glyph unicode="&#xd6;" glyph-name="Odieresis" horiz-adv-x="1233" d="M434 135Q519 135 591 186T710 332Q784 477 830 683T876 1079Q876 1221 824 1288T661 1356Q576 1356 505 1305T387 1159Q311 1012 265 808T219 414Q219 271 271 203T434 135ZM1083 1020Q1083
910 1061 781T995 516Q966 424 933 351T860 219Q772 92 663 32T409 -29Q208 -29 111 94T14 473Q14 584 35 711T100 975Q129 1067 162 1140T235 1272Q323 1399 432 1459T686 1520Q888 1520 985 1398T1083 1020ZM498 1870H701L662 1667H459L498 1870ZM107 1870H311L270
1667H68L107 1870Z" />
<glyph unicode="&#xd7;" glyph-name="multiply" horiz-adv-x="976" d="M22 293L372 641L22 991L138 1108L488 758L839 1108L955 991L605 641L953 293L837 174L488 524L140 174L22 293Z" />
<glyph unicode="&#xd8;" glyph-name="Oslash" horiz-adv-x="1205" d="M317 229Q337 185 384 160T497 135Q609 135 689 217T831 473Q881 618 908 765T935 1036Q935 1064 935 1081T933 1116L317 229ZM286 389L900 1274Q871 1313 826 1334T724 1356Q611 1356 531
1274T390 1018Q340 870 311 718T282 457Q282 447 284 419Q285 401 286 389ZM1089 1337Q1118 1277 1132 1205T1146 1042Q1146 846 1094 635T958 276Q870 122 750 47T472 -29Q391 -29 324 -6T202 63L108 -70L9 -6L128 164Q101 222 88 292T75 449Q75 647 127 857T263
1217Q351 1370 470 1445T749 1520Q826 1520 891 1499T1011 1434L1095 1559L1195 1495L1089 1337Z" />
<glyph unicode="&#xd9;" glyph-name="Ugrave" horiz-adv-x="1233" d="M52 573L230 1493H433L254 573Q252 560 246 532Q216 378 216 319Q216 227 270 181T435 135Q524 135 586 163T693 254Q715 285 737 360T787 573L965 1493H1168L990 573Q948 354 901 252T775
86Q704 30 613 1T416 -29Q224 -29 121 61T17 317Q17 354 25 417T52 573ZM237 1899L384 1635H245L55 1899H237Z" />
<glyph unicode="&#xda;" glyph-name="Uacute" horiz-adv-x="1233" d="M52 573L230 1493H433L254 573Q252 560 246 532Q216 378 216 319Q216 227 270 181T435 135Q524 135 586 163T693 254Q715 285 737 360T787 573L965 1493H1168L990 573Q948 354 901 252T775
86Q704 30 613 1T416 -29Q224 -29 121 61T17 317Q17 354 25 417T52 573ZM315 1899H523L216 1635H56L315 1899Z" />
<glyph unicode="&#xdb;" glyph-name="Ucircumflex" horiz-adv-x="1233" d="M52 573L230 1493H433L254 573Q252 560 246 532Q216 378 216 319Q216 227 270 181T435 135Q524 135 586 163T693 254Q715 285 737 360T787 573L965 1493H1168L990 573Q948 354 901 252T775
86Q704 30 613 1T416 -29Q224 -29 121 61T17 317Q17 354 25 417T52 573ZM321 1901H534L692 1635H559L420 1813L211 1635H59L321 1901Z" />
<glyph unicode="&#xdc;" glyph-name="Udieresis" horiz-adv-x="1233" d="M52 573L230 1493H433L254 573Q252 560 246 532Q216 378 216 319Q216 227 270 181T435 135Q524 135 586 163T693 254Q715 285 737 360T787 573L965 1493H1168L990 573Q948 354 901 252T775
86Q704 30 613 1T416 -29Q224 -29 121 61T17 317Q17 354 25 417T52 573ZM510 1870H713L674 1667H471L510 1870ZM119 1870H323L282 1667H80L119 1870Z" />
<glyph unicode="&#xdd;" glyph-name="Yacute" horiz-adv-x="1233" d="M12 1493H214L450 842L947 1493H1165L530 670L401 0H194L325 670L12 1493ZM317 1899H525L218 1635H58L317 1899Z" />
<glyph unicode="&#xde;" glyph-name="Thorn" horiz-adv-x="1118" d="M285 365L213 0H10L301 1493L504 1491L453 1217H694Q901 1217 1009 1129T1118 874Q1118 638 957 502T516 365H285ZM420 1059L315 522H549Q713 522 812 614T911 858Q911 961 849 1010T657 1059H420Z" />
<glyph unicode="&#xdf;" glyph-name="germandbls" horiz-adv-x="1095" d="M229 1137Q271 1349 390 1452T713 1556Q889 1556 984 1476T1079 1247Q1079 1214 1075 1179T1061 1108Q887 1087 787 1020T686 856Q686 818 706 788T787 713L838 674Q953 589 993 523T1034
369Q1034 186 905 79T553 -29Q482 -29 415 -17T283 20L313 184Q372 152 438 136T576 119Q707 119 782 181T858 352Q858 404 831 445T719 549L658 596Q568 664 540 710T512 819Q512 950 613 1046T893 1178Q896 1193 897 1207T899 1237Q899 1316 847 1360T703 1405Q582
1405 511 1338T414 1133L195 0H8L229 1137Z" />
<glyph unicode="&#xe0;" glyph-name="agrave" horiz-adv-x="1233" d="M630 563Q511 563 453 556T352 530Q284 503 243 442T202 307Q202 224 253 175T393 125Q541 125 648 231T794 522L802 563H630ZM1001 639L876 0H692L724 166Q652 72 554 22T346 -29Q193 -29
102 54T10 276Q10 472 164 589T583 707H829L841 768Q843 777 844 787T845 815Q845 900 782 945T602 991Q516 991 417 966T206 889L241 1069Q349 1108 446 1127T632 1147Q818 1147 921 1065T1025 838Q1025 806 1019 754T1001 639ZM202 1638L399 1262H256L4 1638H202Z"
/>
<glyph unicode="&#xe1;" glyph-name="aacute" horiz-adv-x="1233" d="M630 563Q511 563 453 556T352 530Q284 503 243 442T202 307Q202 224 253 175T393 125Q541 125 648 231T794 522L802 563H630ZM1001 639L876 0H692L724 166Q652 72 554 22T346 -29Q193 -29
102 54T10 276Q10 472 164 589T583 707H829L841 768Q843 777 844 787T845 815Q845 900 782 945T602 991Q516 991 417 966T206 889L241 1069Q349 1108 446 1127T632 1147Q818 1147 921 1065T1025 838Q1025 806 1019 754T1001 639ZM336 1638H555L160 1262H4L336 1638Z"
/>
<glyph unicode="&#xe2;" glyph-name="acircumflex" horiz-adv-x="1233" d="M630 563Q511 563 453 556T352 530Q284 503 243 442T202 307Q202 224 253 175T393 125Q541 125 648 231T794 522L802 563H630ZM1001 639L876 0H692L724 166Q652 72 554 22T346 -29Q193
-29 102 54T10 276Q10 472 164 589T583 707H829L841 768Q843 777 844 787T845 815Q845 900 782 945T602 991Q516 991 417 966T206 889L241 1069Q349 1108 446 1127T632 1147Q818 1147 921 1065T1025 838Q1025 806 1019 754T1001 639ZM325 1638H472L636 1262H503L386
1503L161 1262H5L325 1638Z" />
<glyph unicode="&#xe3;" glyph-name="atilde" horiz-adv-x="1233" d="M630 563Q511 563 453 556T352 530Q284 503 243 442T202 307Q202 224 253 175T393 125Q541 125 648 231T794 522L802 563H630ZM1001 639L876 0H692L724 166Q652 72 554 22T346 -29Q193 -29
102 54T10 276Q10 472 164 589T583 707H829L841 768Q843 777 844 787T845 815Q845 900 782 945T602 991Q516 991 417 966T206 889L241 1069Q349 1108 446 1127T632 1147Q818 1147 921 1065T1025 838Q1025 806 1019 754T1001 639ZM362 1376L315 1425Q296 1444 279
1453T244 1462Q202 1462 179 1425T147 1309H22Q39 1445 96 1518T242 1591Q285 1591 319 1576T391 1522L438 1475Q459 1453 475 1445T508 1436Q549 1436 573 1475T606 1591H731Q714 1454 658 1381T512 1307Q468 1307 435 1321T362 1376Z" />
<glyph unicode="&#xe4;" glyph-name="adieresis" horiz-adv-x="1233" d="M630 563Q511 563 453 556T352 530Q284 503 243 442T202 307Q202 224 253 175T393 125Q541 125 648 231T794 522L802 563H630ZM1001 639L876 0H692L724 166Q652 72 554 22T346 -29Q193 -29
102 54T10 276Q10 472 164 589T583 707H829L841 768Q843 777 844 787T845 815Q845 900 782 945T602 991Q516 991 417 966T206 889L241 1069Q349 1108 446 1127T632 1147Q818 1147 921 1065T1025 838Q1025 806 1019 754T1001 639ZM68 1552H271L232 1350H29L68 1552ZM459
1552H662L623 1350H420L459 1552Z" />
<glyph unicode="&#xe5;" glyph-name="aring" horiz-adv-x="1233" d="M630 563Q511 563 453 556T352 530Q284 503 243 442T202 307Q202 224 253 175T393 125Q541 125 648 231T794 522L802 563H630ZM1001 639L876 0H692L724 166Q652 72 554 22T346 -29Q193 -29 102
54T10 276Q10 472 164 589T583 707H829L841 768Q843 777 844 787T845 815Q845 900 782 945T602 991Q516 991 417 966T206 889L241 1069Q349 1108 446 1127T632 1147Q818 1147 921 1065T1025 838Q1025 806 1019 754T1001 639ZM445 1595Q445 1659 401 1703T293 1747Q229
1747 186 1704T142 1595Q142 1531 185 1488T293 1444Q357 1444 401 1488T445 1595ZM568 1595Q568 1480 488 1401T293 1321Q178 1321 99 1400T19 1595Q19 1711 98 1790T293 1870Q408 1870 488 1791T568 1595Z" />
<glyph unicode="&#xe6;" glyph-name="ae" horiz-adv-x="1293" d="M548 442L563 514H514Q389 514 337 499T249 444Q219 411 202 362T184 262Q184 202 223 163T321 123Q411 123 461 190T548 442ZM1085 657L1101 731Q1107 758 1109 786T1112 846Q1112 916 1078 955T985
995Q902 995 849 932T772 739L755 657H1085ZM1224 514H729Q710 423 702 368T694 285Q694 207 742 163T876 119Q946 119 1017 148T1142 227L1108 55Q1049 14 983 -7T845 -29Q739 -29 670 12T575 131Q528 51 458 11T294 -29Q166 -29 90 44T14 240Q14 440 134 548T479
657H596L614 745Q618 765 620 786T622 834Q622 910 580 952T460 995Q411 995 345 974T202 911L237 1079Q316 1113 385 1130T510 1147Q592 1147 651 1114T741 1018Q791 1080 861 1113T1011 1147Q1132 1147 1203 1070T1275 862Q1275 823 1267 760T1241 604L1224 514Z"
/>
<glyph unicode="&#xe7;" glyph-name="ccedilla" horiz-adv-x="1233" d="M797 51Q724 12 641 -8T467 -29Q243 -29 128 83T13 416Q13 565 66 708T211 950Q304 1049 415 1098T660 1147Q749 1147 832 1126T994 1061L957 879Q891 937 821 964T666 991Q556 991 471 947T326
813Q270 731 239 626T207 416Q207 272 275 200T480 127Q576 127 664 158T836 252L797 51ZM477 0Q514 -64 531 -110T549 -193Q549 -286 479 -340T289 -395Q245 -395 198 -388T104 -365L129 -236Q169 -255 205 -264T274 -274Q341 -274 378 -244T416 -160Q416 -132
402 -93T358 0H477Z" />
<glyph unicode="&#xe8;" glyph-name="egrave" horiz-adv-x="1233" d="M854 659Q860 686 862 703T864 737Q864 857 799 924T618 991Q495 991 394 901T248 659H854ZM877 57Q772 14 672 -7T469 -29Q246 -29 130 82T14 408Q14 564 74 714T240 973Q323 1059 423 1104T633
1149Q819 1149 930 1035T1042 729Q1042 695 1037 645T1020 516H213Q207 484 204 458T201 412Q201 273 278 200T502 127Q590 127 694 155T913 240L877 57ZM198 1638L395 1262H252L0 1638H198Z" />
<glyph unicode="&#xe9;" glyph-name="eacute" horiz-adv-x="1233" d="M854 659Q860 686 862 703T864 737Q864 857 799 924T618 991Q495 991 394 901T248 659H854ZM877 57Q772 14 672 -7T469 -29Q246 -29 130 82T14 408Q14 564 74 714T240 973Q323 1059 423 1104T633
1149Q819 1149 930 1035T1042 729Q1042 695 1037 645T1020 516H213Q207 484 204 458T201 412Q201 273 278 200T502 127Q590 127 694 155T913 240L877 57ZM332 1638H551L156 1262H0L332 1638Z" />
<glyph unicode="&#xea;" glyph-name="ecircumflex" horiz-adv-x="1233" d="M854 659Q860 686 862 703T864 737Q864 857 799 924T618 991Q495 991 394 901T248 659H854ZM877 57Q772 14 672 -7T469 -29Q246 -29 130 82T14 408Q14 564 74 714T240 973Q323 1059 423
1104T633 1149Q819 1149 930 1035T1042 729Q1042 695 1037 645T1020 516H213Q207 484 204 458T201 412Q201 273 278 200T502 127Q590 127 694 155T913 240L877 57ZM321 1638H468L632 1262H499L382 1503L157 1262H1L321 1638Z" />
<glyph unicode="&#xeb;" glyph-name="edieresis" horiz-adv-x="1233" d="M854 659Q860 686 862 703T864 737Q864 857 799 924T618 991Q495 991 394 901T248 659H854ZM877 57Q772 14 672 -7T469 -29Q246 -29 130 82T14 408Q14 564 74 714T240 973Q323 1059 423
1104T633 1149Q819 1149 930 1035T1042 729Q1042 695 1037 645T1020 516H213Q207 484 204 458T201 412Q201 273 278 200T502 127Q590 127 694 155T913 240L877 57ZM64 1552H267L228 1350H25L64 1552ZM455 1552H658L619 1350H416L455 1552Z" />
<glyph unicode="&#xec;" glyph-name="igrave" horiz-adv-x="1233" d="M300 1120H771L581 143H946L917 0H3L32 143H397L558 977H272L300 1120ZM426 1638L623 1262H480L228 1638H426Z" />
<glyph unicode="&#xed;" glyph-name="iacute" horiz-adv-x="1233" d="M300 1120H771L581 143H946L917 0H3L32 143H397L558 977H272L300 1120ZM560 1638H779L384 1262H228L560 1638Z" />
<glyph unicode="&#xee;" glyph-name="icircumflex" horiz-adv-x="1233" d="M300 1120H771L581 143H946L917 0H3L32 143H397L558 977H272L300 1120ZM549 1638H696L860 1262H727L610 1503L385 1262H229L549 1638Z" />
<glyph unicode="&#xef;" glyph-name="idieresis" horiz-adv-x="1233" d="M300 1120H771L581 143H946L917 0H3L32 143H397L558 977H272L300 1120ZM292 1552H495L456 1350H253L292 1552ZM683 1552H886L847 1350H644L683 1552Z" />
<glyph unicode="&#xf0;" glyph-name="eth" horiz-adv-x="1029" d="M757 1327Q880 1156 936 1007T993 707Q993 568 956 440T848 207Q771 91 658 31T403 -29Q210 -29 108 78T6 389Q6 515 44 637T153 864Q229 975 344 1036T594 1098Q611 1098 659 1093Q680 1091 692
1090Q673 1128 647 1171T579 1272L282 1178L252 1270L526 1356L385 1556H598L702 1411L989 1499L1017 1407L757 1327ZM761 907Q724 926 684 935T600 944Q421 944 311 788T200 379Q200 259 257 193T419 127Q586 127 692 287T798 705Q798 769 789 819T761 907Z" />
<glyph unicode="&#xf1;" glyph-name="ntilde" horiz-adv-x="1233" d="M1003 694L868 0H684L819 695Q820 699 822 709Q837 780 837 819Q837 900 791 943T657 987Q530 987 441 894T319 633L196 0H12L231 1120H415L383 952Q458 1049 545 1098T731 1147Q870 1147 947
1075T1024 872Q1024 840 1019 793T1003 694ZM358 1376L311 1425Q292 1444 275 1453T240 1462Q198 1462 175 1425T143 1309H18Q35 1445 92 1518T238 1591Q281 1591 315 1576T387 1522L434 1475Q455 1453 471 1445T504 1436Q545 1436 569 1475T602 1591H727Q710 1454
654 1381T508 1307Q464 1307 431 1321T358 1376Z" />
<glyph unicode="&#xf2;" glyph-name="ograve" horiz-adv-x="1233" d="M594 991Q430 991 321 820T211 385Q211 256 267 192T435 127Q599 127 708 298T818 733Q818 862 762 926T594 991ZM611 1147Q807 1147 909 1040T1012 727Q1012 589 971 453T856 207Q777 89 664
30T404 -29Q217 -29 116 80T15 393Q15 528 56 663T172 911Q251 1027 362 1087T611 1147ZM198 1638L395 1262H252L0 1638H198Z" />
<glyph unicode="&#xf3;" glyph-name="oacute" horiz-adv-x="1233" d="M594 991Q430 991 321 820T211 385Q211 256 267 192T435 127Q599 127 708 298T818 733Q818 862 762 926T594 991ZM611 1147Q807 1147 909 1040T1012 727Q1012 589 971 453T856 207Q777 89 664
30T404 -29Q217 -29 116 80T15 393Q15 528 56 663T172 911Q251 1027 362 1087T611 1147ZM332 1638H551L156 1262H0L332 1638Z" />
<glyph unicode="&#xf4;" glyph-name="ocircumflex" horiz-adv-x="1233" d="M594 991Q430 991 321 820T211 385Q211 256 267 192T435 127Q599 127 708 298T818 733Q818 862 762 926T594 991ZM611 1147Q807 1147 909 1040T1012 727Q1012 589 971 453T856 207Q777
89 664 30T404 -29Q217 -29 116 80T15 393Q15 528 56 663T172 911Q251 1027 362 1087T611 1147ZM321 1638H468L632 1262H499L382 1503L157 1262H1L321 1638Z" />
<glyph unicode="&#xf5;" glyph-name="otilde" horiz-adv-x="1233" d="M594 991Q430 991 321 820T211 385Q211 256 267 192T435 127Q599 127 708 298T818 733Q818 862 762 926T594 991ZM611 1147Q807 1147 909 1040T1012 727Q1012 589 971 453T856 207Q777 89 664
30T404 -29Q217 -29 116 80T15 393Q15 528 56 663T172 911Q251 1027 362 1087T611 1147ZM358 1376L311 1425Q292 1444 275 1453T240 1462Q198 1462 175 1425T143 1309H18Q35 1445 92 1518T238 1591Q281 1591 315 1576T387 1522L434 1475Q455 1453 471 1445T504
1436Q545 1436 569 1475T602 1591H727Q710 1454 654 1381T508 1307Q464 1307 431 1321T358 1376Z" />
<glyph unicode="&#xf6;" glyph-name="odieresis" horiz-adv-x="1233" d="M594 991Q430 991 321 820T211 385Q211 256 267 192T435 127Q599 127 708 298T818 733Q818 862 762 926T594 991ZM611 1147Q807 1147 909 1040T1012 727Q1012 589 971 453T856 207Q777 89
664 30T404 -29Q217 -29 116 80T15 393Q15 528 56 663T172 911Q251 1027 362 1087T611 1147ZM64 1552H267L228 1350H25L64 1552ZM455 1552H658L619 1350H416L455 1552Z" />
<glyph unicode="&#xf7;" glyph-name="divide" horiz-adv-x="1057" d="M406 395H651V150H406V395ZM406 1135H651V889H406V1135ZM0 727H1057V557H0V727Z" />
<glyph unicode="&#xf8;" glyph-name="oslash" horiz-adv-x="1143" d="M872 825L338 186Q368 156 407 142T498 127Q661 127 771 298T881 733Q881 759 879 782T872 825ZM137 133Q108 181 94 245T80 389Q80 531 120 666T235 911Q316 1030 427 1088T686 1147Q764 1147
824 1129T930 1075L1042 1212L1135 1135L1012 989Q1044 939 1059 875T1075 727Q1075 589 1034 453T919 207Q840 89 727 30T467 -29Q393 -29 332 -11T219 45L100 -96L8 -20L137 133ZM813 938Q782 966 746 978T657 991Q493 991 384 819T274 379Q274 359 275 340T280
302L813 938Z" />
<glyph unicode="&#xf9;" glyph-name="ugrave" horiz-adv-x="1233" d="M37 426L170 1120H355L220 426Q213 389 209 355T205 297Q205 218 251 176T383 133Q510 133 598 225T719 487L842 1120H1027L809 0H625L658 168Q585 70 496 22T302 -27Q171 -27 95 46T19 246Q19
285 23 331T37 426ZM451 1638L648 1262H505L253 1638H451Z" />
<glyph unicode="&#xfa;" glyph-name="uacute" horiz-adv-x="1233" d="M37 426L170 1120H355L220 426Q213 389 209 355T205 297Q205 218 251 176T383 133Q510 133 598 225T719 487L842 1120H1027L809 0H625L658 168Q585 70 496 22T302 -27Q171 -27 95 46T19 246Q19
285 23 331T37 426ZM585 1638H804L409 1262H253L585 1638Z" />
<glyph unicode="&#xfb;" glyph-name="ucircumflex" horiz-adv-x="1233" d="M37 426L170 1120H355L220 426Q213 389 209 355T205 297Q205 218 251 176T383 133Q510 133 598 225T719 487L842 1120H1027L809 0H625L658 168Q585 70 496 22T302 -27Q171 -27 95 46T19
246Q19 285 23 331T37 426ZM574 1638H721L885 1262H752L635 1503L410 1262H254L574 1638Z" />
<glyph unicode="&#xfc;" glyph-name="udieresis" horiz-adv-x="1233" d="M37 426L170 1120H355L220 426Q213 389 209 355T205 297Q205 218 251 176T383 133Q510 133 598 225T719 487L842 1120H1027L809 0H625L658 168Q585 70 496 22T302 -27Q171 -27 95 46T19
246Q19 285 23 331T37 426ZM317 1552H520L481 1350H278L317 1552ZM708 1552H911L872 1350H669L708 1552Z" />
<glyph unicode="&#xfd;" glyph-name="yacute" horiz-adv-x="1233" d="M834 360Q772 253 669 72Q514 -203 460 -276Q402 -352 328 -389T157 -426H9L38 -272H146Q227 -272 285 -226T404 -66L447 18L230 1120H413L585 258L1068 1120H1273L834 360ZM332 1638H551L156
1262H0L332 1638Z" />
<glyph unicode="&#xfe;" glyph-name="thorn" horiz-adv-x="1136" d="M301 141L190 -426H6L393 1567H577L463 977Q524 1059 610 1103T796 1147Q958 1147 1047 1043T1136 752Q1136 609 1097 465T987 211Q912 93 810 32T586 -29Q486 -29 416 13T301 141ZM577 127Q658
127 725 171T837 301Q886 393 914 508T942 737Q942 864 891 927T737 991Q652 991 584 946T467 813Q418 725 390 611T362 383Q362 260 418 194T577 127Z" />
<glyph unicode="&#xff;" glyph-name="ydieresis" horiz-adv-x="1233" d="M834 360Q772 253 669 72Q514 -203 460 -276Q402 -352 328 -389T157 -426H9L38 -272H146Q227 -272 285 -226T404 -66L447 18L230 1120H413L585 258L1068 1120H1273L834 360ZM64 1552H267L228
1350H25L64 1552ZM455 1552H658L619 1350H416L455 1552Z" />
<glyph unicode="&#x100;" glyph-name="Amacron" horiz-adv-x="1233" d="M841 1325L477 551H907L841 1325ZM745 1493H991L1157 0H956L921 389H401L217 0H0L745 1493ZM55 1840H653L624 1692H26L55 1840Z" />
<glyph unicode="&#x101;" glyph-name="amacron" horiz-adv-x="1233" d="M630 563Q511 563 453 556T352 530Q284 503 243 442T202 307Q202 224 253 175T393 125Q541 125 648 231T794 522L802 563H630ZM1001 639L876 0H692L724 166Q652 72 554 22T346 -29Q193 -29
102 54T10 276Q10 472 164 589T583 707H829L841 768Q843 777 844 787T845 815Q845 900 782 945T602 991Q516 991 417 966T206 889L241 1069Q349 1108 446 1127T632 1147Q818 1147 921 1065T1025 838Q1025 806 1019 754T1001 639ZM55 1526H653L624 1378H26L55 1526Z"
/>
<glyph unicode="&#x102;" glyph-name="Abreve" horiz-adv-x="1233" d="M841 1325L477 551H907L841 1325ZM745 1493H991L1157 0H956L921 389H401L217 0H0L745 1493ZM31 1901H150Q151 1847 195 1819T322 1790Q405 1790 459 1817T539 1901H658Q623 1782 532 1721T296
1659Q152 1659 85 1720T31 1901Z" />
<glyph unicode="&#x103;" glyph-name="abreve" horiz-adv-x="1233" d="M630 563Q511 563 453 556T352 530Q284 503 243 442T202 307Q202 224 253 175T393 125Q541 125 648 231T794 522L802 563H630ZM1001 639L876 0H692L724 166Q652 72 554 22T346 -29Q193 -29
102 54T10 276Q10 472 164 589T583 707H829L841 768Q843 777 844 787T845 815Q845 900 782 945T602 991Q516 991 417 966T206 889L241 1069Q349 1108 446 1127T632 1147Q818 1147 921 1065T1025 838Q1025 806 1019 754T1001 639ZM22 1608H142V1591Q142 1526 185
1492T314 1458Q394 1458 447 1495T529 1608H648Q616 1467 527 1394T298 1321Q164 1321 92 1385T19 1567Q19 1584 19 1592T22 1608Z" />
<glyph unicode="&#x104;" glyph-name="Aogonek" horiz-adv-x="1233" d="M634 0H753Q692 -58 660 -108T628 -197Q628 -234 651 -253T720 -272Q753 -272 786 -265T851 -242L826 -375Q792 -385 757 -390T687 -395Q590 -395 536 -355T482 -244Q482 -189 519 -129T634
0ZM841 1325L477 551H907L841 1325ZM745 1493H991L1157 0H956L921 389H401L217 0H0L745 1493Z" />
<glyph unicode="&#x105;" glyph-name="aogonek" horiz-adv-x="1233" d="M530 0H649Q588 -58 556 -108T524 -197Q524 -234 547 -253T616 -272Q649 -272 682 -265T747 -242L722 -375Q688 -385 653 -390T583 -395Q486 -395 432 -355T378 -244Q378 -189 415 -129T530
0ZM630 563Q511 563 453 556T352 530Q284 503 243 442T202 307Q202 224 253 175T393 125Q541 125 648 231T794 522L802 563H630ZM1001 639L876 0H692L724 166Q652 72 554 22T346 -29Q193 -29 102 54T10 276Q10 472 164 589T583 707H829L841 768Q843 777 844 787T845
815Q845 900 782 945T602 991Q516 991 417 966T206 889L241 1069Q349 1108 446 1127T632 1147Q818 1147 921 1065T1025 838Q1025 806 1019 754T1001 639Z" />
<glyph unicode="&#x106;" glyph-name="Cacute" horiz-adv-x="1233" d="M842 53Q758 12 673 -8T496 -29Q266 -29 140 104T13 477Q13 697 83 913T267 1266Q374 1396 503 1458T797 1520Q877 1520 956 1499T1110 1438L1069 1231Q1005 1294 934 1325T783 1356Q688 1356
607 1316T455 1192Q351 1069 288 877T224 492Q224 319 302 227T527 135Q612 135 702 167T881 260L842 53ZM434 1899H642L335 1635H175L434 1899Z" />
<glyph unicode="&#x107;" glyph-name="cacute" horiz-adv-x="1233" d="M797 51Q724 12 641 -8T467 -29Q243 -29 128 83T13 416Q13 565 66 708T211 950Q304 1049 415 1098T660 1147Q749 1147 832 1126T994 1061L957 879Q891 937 821 964T666 991Q556 991 471 947T326
813Q270 731 239 626T207 416Q207 272 275 200T480 127Q576 127 664 158T836 252L797 51ZM422 1638H641L246 1262H90L422 1638Z" />
<glyph unicode="&#x108;" glyph-name="Ccircumflex" horiz-adv-x="1233" d="M481 1901H694L852 1635H719L580 1813L371 1635H219L481 1901ZM842 53Q758 12 673 -8T496 -29Q266 -29 140 104T13 477Q13 697 83 913T267 1266Q374 1396 503 1458T797 1520Q877 1520
956 1499T1110 1438L1069 1231Q1005 1294 934 1325T783 1356Q688 1356 607 1316T455 1192Q351 1069 288 877T224 492Q224 319 302 227T527 135Q612 135 702 167T881 260L842 53Z" />
<glyph unicode="&#x109;" glyph-name="ccircumflex" horiz-adv-x="1233" d="M411 1638H558L722 1262H589L472 1503L247 1262H91L411 1638ZM797 51Q724 12 641 -8T467 -29Q243 -29 128 83T13 416Q13 565 66 708T211 950Q304 1049 415 1098T660 1147Q749 1147 832
1126T994 1061L957 879Q891 937 821 964T666 991Q556 991 471 947T326 813Q270 731 239 626T207 416Q207 272 275 200T480 127Q576 127 664 158T836 252L797 51Z" />
<glyph unicode="&#x10a;" glyph-name="Cdotaccent" horiz-adv-x="1233" d="M842 53Q758 12 673 -8T496 -29Q266 -29 140 104T13 477Q13 697 83 913T267 1266Q374 1396 503 1458T797 1520Q877 1520 956 1499T1110 1438L1069 1231Q1005 1294 934 1325T783 1356Q688
1356 607 1316T455 1192Q351 1069 288 877T224 492Q224 319 302 227T527 135Q612 135 702 167T881 260L842 53ZM132 1872H337L297 1667H92L132 1872Z" />
<glyph unicode="&#x10b;" glyph-name="cdotaccent" horiz-adv-x="1233" d="M797 51Q724 12 641 -8T467 -29Q243 -29 128 83T13 416Q13 565 66 708T211 950Q304 1049 415 1098T660 1147Q749 1147 832 1126T994 1061L957 879Q891 937 821 964T666 991Q556 991 471
947T326 813Q270 731 239 626T207 416Q207 272 275 200T480 127Q576 127 664 158T836 252L797 51ZM133 1552H338L297 1348H92L133 1552Z" />
<glyph unicode="&#x10c;" glyph-name="Ccaron" horiz-adv-x="1233" d="M842 53Q758 12 673 -8T496 -29Q266 -29 140 104T13 477Q13 697 83 913T267 1266Q374 1396 503 1458T797 1520Q877 1520 956 1499T1110 1438L1069 1231Q1005 1294 934 1325T783 1356Q688 1356
607 1316T455 1192Q351 1069 288 877T224 492Q224 319 302 227T527 135Q612 135 702 167T881 260L842 53ZM556 1635H343L185 1901H321L460 1723L669 1901H820L556 1635Z" />
<glyph unicode="&#x10d;" glyph-name="ccaron" horiz-adv-x="1233" d="M797 51Q724 12 641 -8T467 -29Q243 -29 128 83T13 416Q13 565 66 708T211 950Q304 1049 415 1098T660 1147Q749 1147 832 1126T994 1061L957 879Q891 937 821 964T666 991Q556 991 471 947T326
813Q270 731 239 626T207 416Q207 272 275 200T480 127Q576 127 664 158T836 252L797 51ZM411 1262H264L100 1638H231L350 1395L575 1638H731L411 1262Z" />
<glyph unicode="&#x10e;" glyph-name="Dcaron" horiz-adv-x="1233" d="M343 166Q528 166 640 228T820 432Q874 547 908 706T943 999Q943 1175 861 1251T586 1327H472L246 166H343ZM605 1493Q878 1493 1013 1369T1149 993Q1149 831 1107 659T994 354Q890 163 735
82T314 0H11L302 1493H605ZM424 1635H211L53 1901H189L328 1723L537 1901H688L424 1635Z" />
<glyph unicode="&#x10f;" glyph-name="dcaron" horiz-adv-x="1233" d="M805 1553H1001L815 1180H675L805 1553ZM568 991Q480 991 413 948T300 817Q251 727 224 613T197 383Q197 255 248 191T400 127Q485 127 553 172T670 305Q719 392 747 507T775 737Q775 857
721 924T568 991ZM836 977L951 1556H1135L832 0H648L675 141Q610 57 528 14T345 -29Q182 -29 92 76T1 369Q1 512 41 656T150 909Q225 1027 326 1087T552 1147Q649 1147 722 1104T836 977Z" />
<glyph unicode="&#x110;" glyph-name="Dcroat" horiz-adv-x="1233" d="M344 166Q529 166 641 228T821 432Q875 547 909 706T944 999Q944 1175 862 1251T587 1327H473L382 858H649L620 709H354L247 166H344ZM606 1493Q879 1493 1014 1369T1150 993Q1150 831 1108
659T995 354Q891 163 736 82T315 0H12L149 709H22L51 858H180L303 1493H606Z" />
<glyph unicode="&#x111;" glyph-name="" horiz-adv-x="1303" d="M572 991Q484 991 417 948T304 817Q255 727 228 613T201 383Q201 255 252 191T404 127Q489 127 557 172T674 305Q723 392 751 507T779 737Q779 857 725 924T572 991ZM840 977L902 1286H570L595 1407H924L955
1556H1139L1109 1407H1301L1279 1286H1086L836 0H652L679 141Q614 57 532 14T349 -29Q186 -29 96 76T5 369Q5 512 45 656T154 909Q229 1027 330 1087T556 1147Q653 1147 726 1104T840 977Z" />
<glyph unicode="&#x112;" glyph-name="Emacron" horiz-adv-x="1233" d="M302 1493H1187L1154 1323H470L384 881H1037L1005 711H351L247 170H949L916 0H11L302 1493ZM73 1840H671L642 1692H44L73 1840Z" />
<glyph unicode="&#x113;" glyph-name="emacron" horiz-adv-x="1233" d="M854 659Q860 686 862 703T864 737Q864 857 799 924T618 991Q495 991 394 901T248 659H854ZM877 57Q772 14 672 -7T469 -29Q246 -29 130 82T14 408Q14 564 74 714T240 973Q323 1059 423 1104T633
1149Q819 1149 930 1035T1042 729Q1042 695 1037 645T1020 516H213Q207 484 204 458T201 412Q201 273 278 200T502 127Q590 127 694 155T913 240L877 57ZM90 1526H688L659 1378H61L90 1526Z" />
<glyph unicode="&#x114;" glyph-name="Ebreve" horiz-adv-x="1233" d="M302 1493H1187L1154 1323H470L384 881H1037L1005 711H351L247 170H949L916 0H11L302 1493ZM49 1901H168Q169 1847 213 1819T340 1790Q423 1790 477 1817T557 1901H676Q641 1782 550 1721T314
1659Q170 1659 103 1720T49 1901Z" />
<glyph unicode="&#x115;" glyph-name="ebreve" horiz-adv-x="1233" d="M854 659Q860 686 862 703T864 737Q864 857 799 924T618 991Q495 991 394 901T248 659H854ZM877 57Q772 14 672 -7T469 -29Q246 -29 130 82T14 408Q14 564 74 714T240 973Q323 1059 423 1104T633
1149Q819 1149 930 1035T1042 729Q1042 695 1037 645T1020 516H213Q207 484 204 458T201 412Q201 273 278 200T502 127Q590 127 694 155T913 240L877 57ZM36 1608H156V1591Q156 1526 199 1492T328 1458Q408 1458 461 1495T543 1608H662Q630 1467 541 1394T312 1321Q178
1321 106 1385T33 1567Q33 1584 33 1592T36 1608Z" />
<glyph unicode="&#x116;" glyph-name="Edotaccent" horiz-adv-x="1233" d="M302 1493H1187L1154 1323H470L384 881H1037L1005 711H351L247 170H949L916 0H11L302 1493ZM75 1872H280L240 1667H35L75 1872Z" />
<glyph unicode="&#x117;" glyph-name="edotaccent" horiz-adv-x="1233" d="M854 659Q860 686 862 703T864 737Q864 857 799 924T618 991Q495 991 394 901T248 659H854ZM877 57Q772 14 672 -7T469 -29Q246 -29 130 82T14 408Q14 564 74 714T240 973Q323 1059 423
1104T633 1149Q819 1149 930 1035T1042 729Q1042 695 1037 645T1020 516H213Q207 484 204 458T201 412Q201 273 278 200T502 127Q590 127 694 155T913 240L877 57ZM72 1552H277L236 1348H31L72 1552Z" />
<glyph unicode="&#x118;" glyph-name="Eogonek" horiz-adv-x="1233" d="M524 0H643Q582 -58 550 -108T518 -197Q518 -234 541 -253T610 -272Q643 -272 676 -265T741 -242L716 -375Q682 -385 647 -390T577 -395Q480 -395 426 -355T372 -244Q372 -189 409 -129T524
0ZM302 1493H1187L1154 1323H470L384 881H1037L1005 711H351L247 170H949L916 0H11L302 1493Z" />
<glyph unicode="&#x119;" glyph-name="eogonek" horiz-adv-x="1233" d="M449 0H568Q507 -58 475 -108T443 -197Q443 -234 466 -253T535 -272Q568 -272 601 -265T666 -242L641 -375Q607 -385 572 -390T502 -395Q405 -395 351 -355T297 -244Q297 -189 334 -129T449
0ZM854 659Q860 686 862 703T864 737Q864 857 799 924T618 991Q495 991 394 901T248 659H854ZM877 57Q772 14 672 -7T469 -29Q246 -29 130 82T14 408Q14 564 74 714T240 973Q323 1059 423 1104T633 1149Q819 1149 930 1035T1042 729Q1042 695 1037 645T1020 516H213Q207
484 204 458T201 412Q201 273 278 200T502 127Q590 127 694 155T913 240L877 57Z" />
<glyph unicode="&#x11a;" glyph-name="Ecaron" horiz-adv-x="1233" d="M302 1493H1187L1154 1323H470L384 881H1037L1005 711H351L247 170H949L916 0H11L302 1493ZM526 1635H313L155 1901H291L430 1723L639 1901H790L526 1635Z" />
<glyph unicode="&#x11b;" glyph-name="ecaron" horiz-adv-x="1233" d="M854 659Q860 686 862 703T864 737Q864 857 799 924T618 991Q495 991 394 901T248 659H854ZM877 57Q772 14 672 -7T469 -29Q246 -29 130 82T14 408Q14 564 74 714T240 973Q323 1059 423 1104T633
1149Q819 1149 930 1035T1042 729Q1042 695 1037 645T1020 516H213Q207 484 204 458T201 412Q201 273 278 200T502 127Q590 127 694 155T913 240L877 57ZM376 1262H229L65 1638H196L315 1395L540 1638H696L376 1262Z" />
<glyph unicode="&#x11c;" glyph-name="Gcircumflex" horiz-adv-x="1233" d="M323 1901H536L694 1635H561L422 1813L213 1635H61L323 1901ZM903 96Q816 34 713 3T493 -29Q261 -29 137 105T12 489Q12 579 28 680T77 893Q112 1010 159 1104T262 1266Q369 1396 498
1458T794 1520Q874 1520 953 1499T1110 1438L1069 1231Q1004 1294 933 1325T780 1356Q682 1356 596 1315T442 1192Q398 1140 359 1062T290 887Q256 773 239 673T221 492Q221 321 300 228T524 135Q592 135 646 153T737 207L813 600H596L626 766H1036L903 96Z" />
<glyph unicode="&#x11d;" glyph-name="gcircumflex" horiz-adv-x="1233" d="M321 1638H468L632 1262H499L382 1503L157 1262H1L321 1638ZM466 145Q545 145 611 190T724 319Q773 409 800 521T828 739Q828 858 772 924T616 991Q462 991 357 823T251 399Q251 280
308 213T466 145ZM896 72Q843 -199 710 -319T329 -440Q247 -440 168 -426T13 -385L50 -203Q123 -247 201 -270T360 -293Q509 -293 591 -213T710 53L734 170Q676 83 589 38T392 -8Q238 -8 147 99T56 391Q56 530 96 667T208 911Q282 1023 386 1085T601 1147Q702 1147
778 1099T888 965L915 1116H1099L896 72Z" />
<glyph unicode="&#x11e;" glyph-name="Gbreve" horiz-adv-x="1233" d="M903 96Q816 34 713 3T493 -29Q261 -29 137 105T12 489Q12 579 28 680T77 893Q112 1010 159 1104T262 1266Q369 1396 498 1458T794 1520Q874 1520 953 1499T1110 1438L1069 1231Q1004 1294
933 1325T780 1356Q682 1356 596 1315T442 1192Q398 1140 359 1062T290 887Q256 773 239 673T221 492Q221 321 300 228T524 135Q592 135 646 153T737 207L813 600H596L626 766H1036L903 96ZM81 1901H200Q201 1847 245 1819T372 1790Q455 1790 509 1817T589 1901H708Q673
1782 582 1721T346 1659Q202 1659 135 1720T81 1901Z" />
<glyph unicode="&#x11f;" glyph-name="gbreve" horiz-adv-x="1233" d="M466 145Q545 145 611 190T724 319Q773 409 800 521T828 739Q828 858 772 924T616 991Q462 991 357 823T251 399Q251 280 308 213T466 145ZM896 72Q843 -199 710 -319T329 -440Q247 -440 168
-426T13 -385L50 -203Q123 -247 201 -270T360 -293Q509 -293 591 -213T710 53L734 170Q676 83 589 38T392 -8Q238 -8 147 99T56 391Q56 530 96 667T208 911Q282 1023 386 1085T601 1147Q702 1147 778 1099T888 965L915 1116H1099L896 72ZM22 1608H142V1591Q142
1526 185 1492T314 1458Q394 1458 447 1495T529 1608H648Q616 1467 527 1394T298 1321Q164 1321 92 1385T19 1567Q19 1584 19 1592T22 1608Z" />
<glyph unicode="&#x120;" glyph-name="Gdotaccent" horiz-adv-x="1233" d="M903 96Q816 34 713 3T493 -29Q261 -29 137 105T12 489Q12 579 28 680T77 893Q112 1010 159 1104T262 1266Q369 1396 498 1458T794 1520Q874 1520 953 1499T1110 1438L1069 1231Q1004
1294 933 1325T780 1356Q682 1356 596 1315T442 1192Q398 1140 359 1062T290 887Q256 773 239 673T221 492Q221 321 300 228T524 135Q592 135 646 153T737 207L813 600H596L626 766H1036L903 96ZM107 1872H312L272 1667H67L107 1872Z" />
<glyph unicode="&#x121;" glyph-name="gdotaccent" horiz-adv-x="1233" d="M466 145Q545 145 611 190T724 319Q773 409 800 521T828 739Q828 858 772 924T616 991Q462 991 357 823T251 399Q251 280 308 213T466 145ZM896 72Q843 -199 710 -319T329 -440Q247 -440
168 -426T13 -385L50 -203Q123 -247 201 -270T360 -293Q509 -293 591 -213T710 53L734 170Q676 83 589 38T392 -8Q238 -8 147 99T56 391Q56 530 96 667T208 911Q282 1023 386 1085T601 1147Q702 1147 778 1099T888 965L915 1116H1099L896 72ZM58 1552H263L222 1348H17L58
1552Z" />
<glyph unicode="&#x122;" glyph-name="Gcommaaccent" horiz-adv-x="1233" d="M294 -227H533L279 -572H133L294 -227ZM903 96Q816 34 713 3T493 -29Q261 -29 137 105T12 489Q12 579 28 680T77 893Q112 1010 159 1104T262 1266Q369 1396 498 1458T794 1520Q874 1520
953 1499T1110 1438L1069 1231Q1004 1294 933 1325T780 1356Q682 1356 596 1315T442 1192Q398 1140 359 1062T290 887Q256 773 239 673T221 492Q221 321 300 228T524 135Q592 135 646 153T737 207L813 600H596L626 766H1036L903 96Z" />
<glyph unicode="&#x123;" glyph-name="gcommaaccent" horiz-adv-x="1233" d="M320 1269H81L335 1614H481L320 1269ZM466 145Q545 145 611 190T724 319Q773 409 800 521T828 739Q828 858 772 924T616 991Q462 991 357 823T251 399Q251 280 308 213T466 145ZM896
72Q843 -199 710 -319T329 -440Q247 -440 168 -426T13 -385L50 -203Q123 -247 201 -270T360 -293Q509 -293 591 -213T710 53L734 170Q676 83 589 38T392 -8Q238 -8 147 99T56 391Q56 530 96 667T208 911Q282 1023 386 1085T601 1147Q702 1147 778 1099T888 965L915
1116H1099L896 72Z" />
<glyph unicode="&#x124;" glyph-name="Hcircumflex" horiz-adv-x="1233" d="M341 1901H554L712 1635H579L440 1813L231 1635H79L341 1901ZM303 1493H505L387 881H940L1058 1493H1261L970 0H768L907 711H352L215 0H12L303 1493Z" />
<glyph unicode="&#x125;" glyph-name="hcircumflex" horiz-adv-x="1233" d="M55 1901H268L426 1635H293L154 1813L-55 1635H-207L55 1901ZM999 694L864 0H680L815 695Q816 699 818 709Q833 780 833 819Q833 900 787 943T653 987Q526 987 437 894T315 633L192 0H8L311
1556H495L379 952Q454 1049 541 1098T727 1147Q866 1147 943 1075T1020 872Q1020 840 1015 793T999 694Z" />
<glyph unicode="&#x126;" glyph-name="Hbar" horiz-adv-x="1362" d="M305 1493H507L464 1269H1018L1061 1493H1263L1220 1269H1355L1323 1105H1188L973 0H771L909 711H355L217 0H15L230 1105H96L128 1269H262L305 1493ZM432 1105L388 881H942L986 1105H432Z" />
<glyph unicode="&#x127;" glyph-name="hbar" horiz-adv-x="1032" d="M1002 694L868 0H683L818 695Q830 760 830 809Q830 875 808 916Q768 987 656 987Q530 987 440 896Q352 808 319 633L196 0H12L259 1270H134L166 1434H291L314 1556H498L475 1434H828L796 1270H443L381
952Q448 1048 542 1098Q636 1147 750 1147Q922 1147 984 1034Q1021 968 1021 863Q1021 788 1002 694Z" />
<glyph unicode="&#x128;" glyph-name="Itilde" horiz-adv-x="1233" d="M420 1710L386 1735L384 1736Q342 1768 304 1768Q270 1768 243 1743T197 1667H72Q107 1776 169 1831T316 1886Q350 1886 381 1875T447 1839L482 1813Q500 1799 518 1793T555 1786Q595 1786
623 1813T662 1886H787Q755 1777 692 1722T537 1667Q506 1667 479 1677T420 1710ZM293 1493H1123L1090 1323H776L553 170H867L834 0H4L37 170H350L574 1323H260L293 1493Z" />
<glyph unicode="&#x129;" glyph-name="itilde" horiz-adv-x="1233" d="M586 1376L539 1425Q520 1444 503 1453T468 1462Q426 1462 403 1425T371 1309H246Q263 1445 320 1518T466 1591Q509 1591 543 1576T615 1522L662 1475Q683 1453 699 1445T732 1436Q773 1436
797 1475T830 1591H955Q938 1454 882 1381T736 1307Q692 1307 659 1321T586 1376ZM300 1120H771L581 143H946L917 0H3L32 143H397L558 977H272L300 1120Z" />
<glyph unicode="&#x12a;" glyph-name="Imacron" horiz-adv-x="1233" d="M293 1493H1123L1090 1323H776L553 170H867L834 0H4L37 170H350L574 1323H260L293 1493ZM55 1840H653L624 1692H26L55 1840Z" />
<glyph unicode="&#x12b;" glyph-name="imacron" horiz-adv-x="1233" d="M300 1120H771L581 143H946L917 0H3L32 143H397L558 977H272L300 1120ZM55 1526H653L624 1378H26L55 1526Z" />
<glyph unicode="&#x12c;" glyph-name="Ibreve" horiz-adv-x="1233" d="M293 1493H1123L1090 1323H776L553 170H867L834 0H4L37 170H350L574 1323H260L293 1493ZM31 1901H150Q151 1847 195 1819T322 1790Q405 1790 459 1817T539 1901H658Q623 1782 532 1721T296
1659Q152 1659 85 1720T31 1901Z" />
<glyph unicode="&#x12d;" glyph-name="ibreve" horiz-adv-x="1233" d="M300 1120H771L581 143H946L917 0H3L32 143H397L558 977H272L300 1120ZM22 1608H142V1591Q142 1526 185 1492T314 1458Q394 1458 447 1495T529 1608H648Q616 1467 527 1394T298 1321Q164 1321
92 1385T19 1567Q19 1584 19 1592T22 1608Z" />
<glyph unicode="&#x12e;" glyph-name="Iogonek" horiz-adv-x="1233" d="M329 1493H1159L1126 1323H812L589 170H903L870 0H40L73 170H386L610 1323H296L329 1493ZM272 0H391Q330 -58 298 -108T266 -197Q266 -234 289 -253T358 -272Q391 -272 424 -265T489 -242L464
-375Q430 -385 395 -390T325 -395Q228 -395 174 -355T120 -244Q120 -189 157 -129T272 0Z" />
<glyph unicode="&#x12f;" glyph-name="iogonek" horiz-adv-x="1233" d="M301 1120H772L582 143H947L918 0H4L33 143H398L559 977H273L301 1120ZM672 1556H856L811 1323H627L672 1556ZM276 0H395Q334 -58 302 -108T270 -197Q270 -234 293 -253T362 -272Q395 -272
428 -265T493 -242L468 -375Q434 -385 399 -390T329 -395Q232 -395 178 -355T124 -244Q124 -189 161 -129T276 0Z" />
<glyph unicode="&#x130;" glyph-name="Idot" horiz-adv-x="1233" d="M293 1493H1123L1090 1323H776L553 170H867L834 0H4L37 170H350L574 1323H260L293 1493ZM57 1872H262L222 1667H17L57 1872Z" />
<glyph unicode="&#x131;" glyph-name="dotlessi" horiz-adv-x="955" d="M300 1120H771L581 143H946L917 0H3L32 143H397L558 977H272L300 1120Z" />
<glyph unicode="&#x132;" glyph-name="IJ" horiz-adv-x="1461" d="M636 62L677 298Q720 219 778 178T904 136Q997 136 1047 209T1134 488L1285 1324H1036L1067 1494H1448L1266 488Q1214 199 1130 86T890 -28Q826 -28 762 -5T636 62ZM288 1493H867L835 1323H616L400
170H619L587 0H8L40 170H258L475 1323H256L288 1493Z" />
<glyph unicode="&#x133;" glyph-name="ij" horiz-adv-x="1512" d="M297 1121H768L578 144H943L914 1H0L29 144H394L555 978H269L297 1121ZM668 1557H852L807 1324H623L668 1557ZM1016 -23L1208 974H891L919 1117H1421L1200 -23Q1159 -236 1058 -332T776 -429H522L553
-273H786Q881 -273 936 -214T1016 -23ZM1321 1553H1505L1460 1320H1276L1321 1553Z" />
<glyph unicode="&#x134;" glyph-name="Jcircumflex" horiz-adv-x="1233" d="M401 1901H614L772 1635H639L500 1813L291 1635H139L401 1901ZM0 61L45 297Q117 218 209 177T404 135Q546 135 616 208T727 487L891 1323H510L543 1493H1127L930 487Q874 198 754 85T396
-29Q299 -29 199 -6T0 61Z" />
<glyph unicode="&#x135;" glyph-name="jcircumflex" horiz-adv-x="1233" d="M549 1638H696L860 1262H727L610 1503L385 1262H229L549 1638ZM494 -20L686 977H369L397 1120H899L678 -20Q637 -233 536 -329T254 -426H0L31 -270H264Q359 -270 414 -211T494 -20Z" />
<glyph unicode="&#x136;" glyph-name="Kcommaaccent" horiz-adv-x="1233" d="M270 58H509L255 -287H109L270 58ZM304 1493H506L379 846L1121 1493H1375L672 874L1100 0H881L521 741L328 573L216 0H13L304 1493Z" />
<glyph unicode="&#x137;" glyph-name="kcommaaccent" horiz-adv-x="1233" d="M308 -198H547L293 -543H147L308 -198ZM313 1556H504L334 682L883 1120H1124L604 698L977 0H764L457 582L289 449L201 0H10L313 1556Z" />
<glyph unicode="&#x138;" glyph-name="kgreenlandic" horiz-adv-x="1138" d="M232 1120H422L331 655L905 1120H1129L606 698L980 0H755L453 578L291 449L204 0H14L232 1120Z" />
<glyph unicode="&#x139;" glyph-name="Lacute" horiz-adv-x="1233" d="M315 1900H523L216 1636H56L315 1900ZM299 1493H501L243 170H964L931 0H8L299 1493Z" />
<glyph unicode="&#x13a;" glyph-name="lacute" horiz-adv-x="1233" d="M315 1901H523L216 1637H56L315 1901ZM294 408Q287 373 284 346T280 301Q280 228 324 192T460 156H671L640 0H433Q260 0 176 63T91 258Q91 286 96 326T110 412L321 1423H5L34 1567H534L294 408Z" />
<glyph unicode="&#x13b;" glyph-name="Lcommaaccent" horiz-adv-x="1233" d="M274 58H513L259 -287H113L274 58ZM299 1493H501L243 170H964L931 0H8L299 1493Z" />
<glyph unicode="&#x13c;" glyph-name="lcommaaccent" horiz-adv-x="1233" d="M343 -198H582L328 -543H182L343 -198ZM294 408Q287 373 284 346T280 301Q280 228 324 192T460 156H671L640 0H433Q260 0 176 63T91 258Q91 286 96 326T110 412L321 1423H5L34 1567H534L294
408Z" />
<glyph unicode="&#x13d;" glyph-name="Lcaron" horiz-adv-x="1233" d="M317 1493H536L328 1117H172L317 1493ZM299 1493H501L243 170H964L931 0H8L299 1493Z" />
<glyph unicode="&#x13e;" glyph-name="lcaron" horiz-adv-x="1233" d="M447 1569H666L458 1193H302L447 1569ZM294 408Q287 373 284 346T280 301Q280 228 324 192T460 156H671L640 0H433Q260 0 176 63T91 258Q91 286 96 326T110 412L321 1423H5L34 1567H534L294 408Z" />
<glyph unicode="&#x13f;" glyph-name="Ldot" horiz-adv-x="1233" d="M428 1008H682L623 703H371L428 1008ZM299 1493H501L243 170H964L931 0H8L299 1493Z" />
<glyph unicode="&#x140;" glyph-name="ldot" horiz-adv-x="1233" d="M644 1006H898L839 701H587L644 1006ZM294 408Q287 373 284 346T280 301Q280 228 324 192T460 156H671L640 0H433Q260 0 176 63T91 258Q91 286 96 326T110 412L321 1423H5L34 1567H534L294 408Z" />
<glyph unicode="&#x141;" glyph-name="Lslash" horiz-adv-x="1070" d="M403 1491H605L491 899L788 1108L861 1008L462 729L349 168H1070L1038 0H114L227 563L77 459L3 559L263 739L403 1491Z" />
<glyph unicode="&#x142;" glyph-name="lslash" horiz-adv-x="1027" d="M512 408Q505 371 502 344T498 301Q498 228 542 192T678 156H889L858 0H651Q478 0 394 63T309 258Q309 293 314 332T328 412L387 698L74 479L0 578L424 870L539 1423H223L252 1567H752L637
1014L952 1231L1026 1133L602 840L512 408Z" />
<glyph unicode="&#x143;" glyph-name="Nacute" horiz-adv-x="1233" d="M333 1906H541L234 1642H74L333 1906ZM303 1493H559L823 264L1062 1493H1257L966 0H710L446 1229L206 0H12L303 1493Z" />
<glyph unicode="&#x144;" glyph-name="nacute" horiz-adv-x="1233" d="M582 1645H801L406 1269H250L582 1645ZM1003 694L868 0H684L819 695Q820 699 822 709Q837 780 837 819Q837 900 791 943T657 987Q530 987 441 894T319 633L196 0H12L231 1120H415L383 952Q458
1049 545 1098T731 1147Q870 1147 947 1075T1024 872Q1024 840 1019 793T1003 694Z" />
<glyph unicode="&#x145;" glyph-name="Ncommaaccent" horiz-adv-x="1233" d="M206 58H445L191 -287H45L206 58ZM303 1493H559L823 264L1062 1493H1257L966 0H710L446 1229L206 0H12L303 1493Z" />
<glyph unicode="&#x146;" glyph-name="ncommaaccent" horiz-adv-x="1233" d="M247 58H486L232 -287H86L247 58ZM1003 694L868 0H684L819 695Q820 699 822 709Q837 780 837 819Q837 900 791 943T657 987Q530 987 441 894T319 633L196 0H12L231 1120H415L383 952Q458
1049 545 1098T731 1147Q870 1147 947 1075T1024 872Q1024 840 1019 793T1003 694Z" />
<glyph unicode="&#x147;" glyph-name="Ncaron" horiz-adv-x="1233" d="M303 1493H559L823 264L1062 1493H1257L966 0H710L446 1229L206 0H12L303 1493ZM514 1635H301L143 1901H279L418 1723L627 1901H778L514 1635Z" />
<glyph unicode="&#x148;" glyph-name="ncaron" horiz-adv-x="1233" d="M1003 694L868 0H684L819 695Q820 699 822 709Q837 780 837 819Q837 900 791 943T657 987Q530 987 441 894T319 633L196 0H12L231 1120H415L383 952Q458 1049 545 1098T731 1147Q870 1147
947 1075T1024 872Q1024 840 1019 793T1003 694ZM369 1262H222L58 1638H189L308 1395L533 1638H689L369 1262Z" />
<glyph unicode="&#x149;" glyph-name="napostrophe" horiz-adv-x="1233" d="M-224 1556H28L-12 1349L-282 967H-436L-264 1349L-224 1556ZM1126 694L991 0H807L942 695Q943 699 945 709Q960 780 960 819Q960 900 914 943T780 987Q653 987 564 894T442 633L319
0H135L354 1120H538L506 952Q581 1049 668 1098T854 1147Q993 1147 1070 1075T1147 872Q1147 840 1142 793T1126 694Z" />
<glyph unicode="&#x14a;" glyph-name="Eng" horiz-adv-x="1198" d="M940 -20Q902 -215 792 -320Q682 -426 517 -426H312L342 -270H509Q599 -270 656 -208Q712 -146 740 0L937 1009Q972 1189 930 1273T764 1358Q623 1358 526 1249T390 937L207 0H5L296 1493H498L459
1295Q535 1406 638 1464T867 1522Q1054 1522 1121 1392T1138 999L940 -20Z" />
<glyph unicode="&#x14b;" glyph-name="eng" horiz-adv-x="1028" d="M997 694L858 -20Q820 -215 711 -320Q600 -426 435 -426H230L260 -270H445Q535 -270 592 -208T673 -20L812 694Q824 759 824 809Q824 875 802 916Q763 987 650 987Q521 987 433 896Q346 804 313
633L190 0H6L224 1120H408L375 952Q443 1048 536 1098Q630 1147 745 1147Q916 1147 978 1034Q1015 968 1015 862Q1015 788 997 694Z" />
<glyph unicode="&#x14c;" glyph-name="Omacron" horiz-adv-x="1233" d="M434 135Q519 135 591 186T710 332Q784 477 830 683T876 1079Q876 1221 824 1288T661 1356Q576 1356 505 1305T387 1159Q311 1012 265 808T219 414Q219 271 271 203T434 135ZM1083 1020Q1083
910 1061 781T995 516Q966 424 933 351T860 219Q772 92 663 32T409 -29Q208 -29 111 94T14 473Q14 584 35 711T100 975Q129 1067 162 1140T235 1272Q323 1399 432 1459T686 1520Q888 1520 985 1398T1083 1020ZM55 1840H653L624 1692H26L55 1840Z" />
<glyph unicode="&#x14d;" glyph-name="omacron" horiz-adv-x="1233" d="M594 991Q430 991 321 820T211 385Q211 256 267 192T435 127Q599 127 708 298T818 733Q818 862 762 926T594 991ZM611 1147Q807 1147 909 1040T1012 727Q1012 589 971 453T856 207Q777 89
664 30T404 -29Q217 -29 116 80T15 393Q15 528 56 663T172 911Q251 1027 362 1087T611 1147ZM55 1526H653L624 1378H26L55 1526Z" />
<glyph unicode="&#x14e;" glyph-name="Obreve" horiz-adv-x="1233" d="M434 135Q519 135 591 186T710 332Q784 477 830 683T876 1079Q876 1221 824 1288T661 1356Q576 1356 505 1305T387 1159Q311 1012 265 808T219 414Q219 271 271 203T434 135ZM1083 1020Q1083
910 1061 781T995 516Q966 424 933 351T860 219Q772 92 663 32T409 -29Q208 -29 111 94T14 473Q14 584 35 711T100 975Q129 1067 162 1140T235 1272Q323 1399 432 1459T686 1520Q888 1520 985 1398T1083 1020ZM31 1901H150Q151 1847 195 1819T322 1790Q405 1790
459 1817T539 1901H658Q623 1782 532 1721T296 1659Q152 1659 85 1720T31 1901Z" />
<glyph unicode="&#x14f;" glyph-name="obreve" horiz-adv-x="1233" d="M594 991Q430 991 321 820T211 385Q211 256 267 192T435 127Q599 127 708 298T818 733Q818 862 762 926T594 991ZM611 1147Q807 1147 909 1040T1012 727Q1012 589 971 453T856 207Q777 89
664 30T404 -29Q217 -29 116 80T15 393Q15 528 56 663T172 911Q251 1027 362 1087T611 1147ZM22 1608H142V1591Q142 1526 185 1492T314 1458Q394 1458 447 1495T529 1608H648Q616 1467 527 1394T298 1321Q164 1321 92 1385T19 1567Q19 1584 19 1592T22 1608Z" />
<glyph unicode="&#x150;" glyph-name="Ohungarumlaut" horiz-adv-x="1233" d="M434 135Q519 135 591 186T710 332Q784 477 830 683T876 1079Q876 1221 824 1288T661 1356Q576 1356 505 1305T387 1159Q311 1012 265 808T219 414Q219 271 271 203T434 135ZM1083
1020Q1083 910 1061 781T995 516Q966 424 933 351T860 219Q772 92 663 32T409 -29Q208 -29 111 94T14 473Q14 584 35 711T100 975Q129 1067 162 1140T235 1272Q323 1399 432 1459T686 1520Q888 1520 985 1398T1083 1020ZM575 1899H761L481 1635H327L575 1899ZM256
1899H442L162 1635H8L256 1899Z" />
<glyph unicode="&#x151;" glyph-name="ohungarumlaut" horiz-adv-x="1233" d="M594 991Q430 991 321 820T211 385Q211 256 267 192T435 127Q599 127 708 298T818 733Q818 862 762 926T594 991ZM611 1147Q807 1147 909 1040T1012 727Q1012 589 971 453T856 207Q777
89 664 30T404 -29Q217 -29 116 80T15 393Q15 528 56 663T172 911Q251 1027 362 1087T611 1147ZM256 1638H445L143 1262H8L256 1638ZM596 1638H793L469 1262H334L596 1638Z" />
<glyph unicode="&#x152;" glyph-name="OE" horiz-adv-x="1340" d="M1086 170L1053 0H449Q231 0 124 102T17 414Q17 560 50 742T136 1067Q222 1298 360 1395T740 1493H1334L1301 1323H943L856 881H1184L1151 711H824L717 170H1086ZM684 1323Q566 1323 483 1269T353
1106Q328 1051 304 961T254 745Q233 639 222 556T211 412Q211 292 273 231T459 170H521L746 1323H684Z" />
<glyph unicode="&#x153;" glyph-name="oe" horiz-adv-x="1315" d="M760 1020Q818 1083 885 1115T1033 1147Q1155 1147 1226 1071T1297 862Q1297 819 1289 754T1264 604L1248 514H746Q728 423 720 368T711 285Q711 207 759 163T893 119Q963 119 1034 148T1160 227L1125
55Q1066 14 1000 -7T863 -29Q768 -29 700 5T598 104Q540 39 469 5T316 -29Q172 -29 96 54T19 293Q19 347 26 414T50 559Q72 680 101 773T170 938Q226 1040 316 1093T523 1147Q603 1147 665 1113T760 1020ZM779 653H1108L1123 729Q1129 760 1132 788T1135 842Q1135
913 1102 952T1008 991Q925 991 872 927T793 735L779 653ZM336 123Q396 123 444 158T521 260Q539 304 559 378T600 559Q619 667 628 734T637 834Q637 911 601 953T498 995Q433 995 386 961T310 856Q288 803 268 729T230 559Q213 473 203 400T193 291Q193 210 230
167T336 123Z" />
<glyph unicode="&#x154;" glyph-name="Racute" horiz-adv-x="1233" d="M315 1900H523L216 1636H56L315 1900ZM765 705Q837 691 880 638T978 408L1099 0H898L792 377Q748 533 694 582T529 631H337L214 0H11L300 1493H716Q923 1493 1036 1404T1150 1151Q1150 968
1047 848T765 705ZM472 1327L370 797H589Q752 797 849 882T947 1110Q947 1222 884 1274T685 1327H472Z" />
<glyph unicode="&#x155;" glyph-name="racute" horiz-adv-x="1233" d="M540 1645H759L364 1269H208L540 1645ZM979 889Q934 933 875 955T739 977Q575 977 458 863T303 549L196 0H12L229 1120H413L373 901Q440 1021 546 1084T788 1147Q859 1147 916 1129T1014 1075L979
889Z" />
<glyph unicode="&#x156;" glyph-name="Rcommaaccent" horiz-adv-x="1233" d="M291 58H530L276 -287H130L291 58ZM765 705Q837 691 880 638T978 408L1099 0H898L792 377Q748 533 694 582T529 631H337L214 0H11L300 1493H716Q923 1493 1036 1404T1150 1151Q1150
968 1047 848T765 705ZM472 1327L370 797H589Q752 797 849 882T947 1110Q947 1222 884 1274T685 1327H472Z" />
<glyph unicode="&#x157;" glyph-name="rcommaaccent" horiz-adv-x="1233" d="M301 58H540L286 -287H140L301 58ZM979 889Q934 933 875 955T739 977Q575 977 458 863T303 549L196 0H12L229 1120H413L373 901Q440 1021 546 1084T788 1147Q859 1147 916 1129T1014
1075L979 889Z" />
<glyph unicode="&#x158;" glyph-name="Rcaron" horiz-adv-x="1233" d="M765 705Q837 691 880 638T978 408L1099 0H898L792 377Q748 533 694 582T529 631H337L214 0H11L300 1493H716Q923 1493 1036 1404T1150 1151Q1150 968 1047 848T765 705ZM472 1327L370 797H589Q752
797 849 882T947 1110Q947 1222 884 1274T685 1327H472ZM448 1635H235L77 1901H213L352 1723L561 1901H712L448 1635Z" />
<glyph unicode="&#x159;" glyph-name="rcaron" horiz-adv-x="1233" d="M979 889Q934 933 875 955T739 977Q575 977 458 863T303 549L196 0H12L229 1120H413L373 901Q440 1021 546 1084T788 1147Q859 1147 916 1129T1014 1075L979 889ZM411 1262H264L100 1638H231L350
1395L575 1638H731L411 1262Z" />
<glyph unicode="&#x15a;" glyph-name="Sacute" horiz-adv-x="1233" d="M333 1906H541L234 1642H74L333 1906ZM1129 1442L1090 1237Q1009 1296 922 1326T742 1356Q577 1356 473 1274T369 1065Q369 994 418 950T596 866L717 827Q880 777 955 694T1031 481Q1031 246
865 109T412 -29Q308 -29 208 -7T7 61L48 270Q146 201 246 168T459 135Q624 135 727 223T830 446Q830 528 786 573T609 659L508 692Q324 750 251 823T177 1018Q177 1239 342 1379T773 1520Q853 1520 943 1500T1129 1442Z" />
<glyph unicode="&#x15b;" glyph-name="sacute" horiz-adv-x="1233" d="M582 1645H801L406 1269H250L582 1645ZM969 1081L934 901Q863 946 785 969T629 993Q492 993 417 942T341 799Q341 701 562 645Q577 641 584 639L656 621Q773 590 831 529T889 375Q889 194
745 83T363 -29Q282 -29 194 -12T7 41L44 231Q138 178 226 152T398 125Q531 125 615 184T699 336Q699 435 503 487Q485 491 475 494L408 512Q279 545 219 609T158 776Q158 946 290 1046T646 1147Q734 1147 815 1131T969 1081Z" />
<glyph unicode="&#x15c;" glyph-name="Scircumflex" horiz-adv-x="1233" d="M377 1901H590L748 1635H615L476 1813L267 1635H115L377 1901ZM1129 1442L1090 1237Q1009 1296 922 1326T742 1356Q577 1356 473 1274T369 1065Q369 994 418 950T596 866L717 827Q880
777 955 694T1031 481Q1031 246 865 109T412 -29Q308 -29 208 -7T7 61L48 270Q146 201 246 168T459 135Q624 135 727 223T830 446Q830 528 786 573T609 659L508 692Q324 750 251 823T177 1018Q177 1239 342 1379T773 1520Q853 1520 943 1500T1129 1442Z" />
<glyph unicode="&#x15d;" glyph-name="scircumflex" horiz-adv-x="1233" d="M390 1666H537L701 1290H568L451 1531L226 1290H70L390 1666ZM969 1081L934 901Q863 946 785 969T629 993Q492 993 417 942T341 799Q341 701 562 645Q577 641 584 639L656 621Q773 590
831 529T889 375Q889 194 745 83T363 -29Q282 -29 194 -12T7 41L44 231Q138 178 226 152T398 125Q531 125 615 184T699 336Q699 435 503 487Q485 491 475 494L408 512Q279 545 219 609T158 776Q158 946 290 1046T646 1147Q734 1147 815 1131T969 1081Z" />
<glyph unicode="&#x15e;" glyph-name="Scedilla" horiz-adv-x="1233" d="M1129 1442L1090 1237Q1009 1296 922 1326T742 1356Q577 1356 473 1274T369 1065Q369 994 418 950T596 866L717 827Q880 777 955 694T1031 481Q1031 246 865 109T412 -29Q308 -29 208 -7T7
61L48 270Q146 201 246 168T459 135Q624 135 727 223T830 446Q830 528 786 573T609 659L508 692Q324 750 251 823T177 1018Q177 1239 342 1379T773 1520Q853 1520 943 1500T1129 1442ZM373 0Q410 -64 427 -110T445 -193Q445 -286 375 -340T185 -395Q141 -395 94
-388T0 -365L25 -236Q65 -255 101 -264T170 -274Q237 -274 274 -244T312 -160Q312 -132 298 -93T254 0H373Z" />
<glyph unicode="&#x15f;" glyph-name="scedilla" horiz-adv-x="1233" d="M969 1081L934 901Q863 946 785 969T629 993Q492 993 417 942T341 799Q341 701 562 645Q577 641 584 639L656 621Q773 590 831 529T889 375Q889 194 745 83T363 -29Q282 -29 194 -12T7 41L44
231Q138 178 226 152T398 125Q531 125 615 184T699 336Q699 435 503 487Q485 491 475 494L408 512Q279 545 219 609T158 776Q158 946 290 1046T646 1147Q734 1147 815 1131T969 1081ZM373 0Q410 -64 427 -110T445 -193Q445 -286 375 -340T185 -395Q141 -395 94
-388T0 -365L25 -236Q65 -255 101 -264T170 -274Q237 -274 274 -244T312 -160Q312 -132 298 -93T254 0H373Z" />
<glyph unicode="&#x160;" glyph-name="Scaron" horiz-adv-x="1233" d="M1129 1442L1090 1237Q1009 1296 922 1326T742 1356Q577 1356 473 1274T369 1065Q369 994 418 950T596 866L717 827Q880 777 955 694T1031 481Q1031 246 865 109T412 -29Q308 -29 208 -7T7
61L48 270Q146 201 246 168T459 135Q624 135 727 223T830 446Q830 528 786 573T609 659L508 692Q324 750 251 823T177 1018Q177 1239 342 1379T773 1520Q853 1520 943 1500T1129 1442ZM439 1635H226L68 1901H204L343 1723L552 1901H703L439 1635Z" />
<glyph unicode="&#x161;" glyph-name="scaron" horiz-adv-x="1233" d="M969 1081L934 901Q863 946 785 969T629 993Q492 993 417 942T341 799Q341 701 562 645Q577 641 584 639L656 621Q773 590 831 529T889 375Q889 194 745 83T363 -29Q282 -29 194 -12T7 41L44
231Q138 178 226 152T398 125Q531 125 615 184T699 336Q699 435 503 487Q485 491 475 494L408 512Q279 545 219 609T158 776Q158 946 290 1046T646 1147Q734 1147 815 1131T969 1081ZM321 1262H174L10 1638H141L260 1395L485 1638H641L321 1262Z" />
<glyph unicode="&#x162;" glyph-name="Tcommaaccent" horiz-adv-x="1233" d="M41 1493H1181L1148 1323H679L423 0H219L477 1323H8L41 1493ZM373 0Q410 -64 427 -110T445 -193Q445 -286 375 -340T185 -395Q141 -395 94 -388T0 -365L25 -236Q65 -255 101 -264T170
-274Q237 -274 274 -244T312 -160Q312 -132 298 -93T254 0H373Z" />
<glyph unicode="&#x163;" glyph-name="tcommaaccent" horiz-adv-x="1233" d="M574 1438L513 1120H930L902 977H484L365 369Q359 339 356 314T353 266Q353 200 392 174T533 147H740L711 0H488Q321 0 243 55T164 229Q164 254 168 288T181 369L300 977H1L29 1120H328L390
1438H574ZM494 0Q531 -64 548 -110T566 -193Q566 -286 496 -340T306 -395Q262 -395 215 -388T121 -365L146 -236Q186 -255 222 -264T291 -274Q358 -274 395 -244T433 -160Q433 -132 419 -93T375 0H494Z" />
<glyph unicode="&#x164;" glyph-name="Tcaron" horiz-adv-x="1233" d="M41 1493H1181L1148 1323H679L423 0H219L477 1323H8L41 1493ZM478 1635H265L107 1901H243L382 1723L591 1901H742L478 1635Z" />
<glyph unicode="&#x165;" glyph-name="tcaron" horiz-adv-x="1233" d="M574 1438L513 1120H930L902 977H484L365 369Q359 339 356 314T353 266Q353 200 392 174T533 147H740L711 0H488Q321 0 243 55T164 229Q164 254 168 288T181 369L300 977H1L29 1120H328L390
1438H574ZM493 1680H712L504 1304H348L493 1680Z" />
<glyph unicode="&#x166;" glyph-name="Tbar" horiz-adv-x="1181" d="M42 1493H1181L1148 1323H681L569 747H834L801 577H536L424 0H221L333 577H68L101 747H366L478 1323H9L42 1493Z" />
<glyph unicode="&#x167;" glyph-name="tbar" horiz-adv-x="934" d="M578 1438L516 1120H934L906 977H488L443 744H672L644 602H415L370 369Q361 320 361 283Q361 226 383 196Q421 147 538 147H745L716 0H491Q284 0 215 83Q172 136 172 237Q172 295 186 369L231
602H2L30 744H259L304 977H5L33 1120H332L394 1438H578Z" />
<glyph unicode="&#x168;" glyph-name="Utilde" horiz-adv-x="1233" d="M418 1710L384 1735L382 1736Q340 1768 302 1768Q268 1768 241 1743T195 1667H70Q105 1776 167 1831T314 1886Q348 1886 379 1875T445 1839L480 1813Q498 1799 516 1793T553 1786Q593 1786
621 1813T660 1886H785Q753 1777 690 1722T535 1667Q504 1667 477 1677T418 1710ZM52 573L230 1493H433L254 573Q252 560 246 532Q216 378 216 319Q216 227 270 181T435 135Q524 135 586 163T693 254Q715 285 737 360T787 573L965 1493H1168L990 573Q948 354 901
252T775 86Q704 30 613 1T416 -29Q224 -29 121 61T17 317Q17 354 25 417T52 573Z" />
<glyph unicode="&#x169;" glyph-name="utilde" horiz-adv-x="1233" d="M611 1376L564 1425Q545 1444 528 1453T493 1462Q451 1462 428 1425T396 1309H271Q288 1445 345 1518T491 1591Q534 1591 568 1576T640 1522L687 1475Q708 1453 724 1445T757 1436Q798 1436
822 1475T855 1591H980Q963 1454 907 1381T761 1307Q717 1307 684 1321T611 1376ZM37 426L170 1120H355L220 426Q213 389 209 355T205 297Q205 218 251 176T383 133Q510 133 598 225T719 487L842 1120H1027L809 0H625L658 168Q585 70 496 22T302 -27Q171 -27 95
46T19 246Q19 285 23 331T37 426Z" />
<glyph unicode="&#x16a;" glyph-name="Umacron" horiz-adv-x="1233" d="M52 573L230 1493H433L254 573Q252 560 246 532Q216 378 216 319Q216 227 270 181T435 135Q524 135 586 163T693 254Q715 285 737 360T787 573L965 1493H1168L990 573Q948 354 901 252T775
86Q704 30 613 1T416 -29Q224 -29 121 61T17 317Q17 354 25 417T52 573ZM55 1840H653L624 1692H26L55 1840Z" />
<glyph unicode="&#x16b;" glyph-name="umacron" horiz-adv-x="1233" d="M37 426L170 1120H355L220 426Q213 389 209 355T205 297Q205 218 251 176T383 133Q510 133 598 225T719 487L842 1120H1027L809 0H625L658 168Q585 70 496 22T302 -27Q171 -27 95 46T19 246Q19
285 23 331T37 426ZM55 1526H653L624 1378H26L55 1526Z" />
<glyph unicode="&#x16c;" glyph-name="Ubreve" horiz-adv-x="1233" d="M52 573L230 1493H433L254 573Q252 560 246 532Q216 378 216 319Q216 227 270 181T435 135Q524 135 586 163T693 254Q715 285 737 360T787 573L965 1493H1168L990 573Q948 354 901 252T775
86Q704 30 613 1T416 -29Q224 -29 121 61T17 317Q17 354 25 417T52 573ZM31 1901H150Q151 1847 195 1819T322 1790Q405 1790 459 1817T539 1901H658Q623 1782 532 1721T296 1659Q152 1659 85 1720T31 1901Z" />
<glyph unicode="&#x16d;" glyph-name="ubreve" horiz-adv-x="1233" d="M37 426L170 1120H355L220 426Q213 389 209 355T205 297Q205 218 251 176T383 133Q510 133 598 225T719 487L842 1120H1027L809 0H625L658 168Q585 70 496 22T302 -27Q171 -27 95 46T19 246Q19
285 23 331T37 426ZM22 1608H142V1591Q142 1526 185 1492T314 1458Q394 1458 447 1495T529 1608H648Q616 1467 527 1394T298 1321Q164 1321 92 1385T19 1567Q19 1584 19 1592T22 1608Z" />
<glyph unicode="&#x16e;" glyph-name="Uring" horiz-adv-x="1233" d="M52 573L230 1493H433L254 573Q252 560 246 532Q216 378 216 319Q216 227 270 181T435 135Q524 135 586 163T693 254Q715 285 737 360T787 573L965 1493H1168L990 573Q948 354 901 252T775
86Q704 30 613 1T416 -29Q224 -29 121 61T17 317Q17 354 25 417T52 573ZM453 1830Q453 1894 409 1938T301 1982Q237 1982 194 1939T150 1830Q150 1766 193 1723T301 1679Q365 1679 409 1723T453 1830ZM576 1830Q576 1715 496 1636T301 1556Q186 1556 107 1635T27
1830Q27 1946 106 2025T301 2105Q416 2105 496 2026T576 1830Z" />
<glyph unicode="&#x16f;" glyph-name="uring" horiz-adv-x="1233" d="M37 426L170 1120H355L220 426Q213 389 209 355T205 297Q205 218 251 176T383 133Q510 133 598 225T719 487L842 1120H1027L809 0H625L658 168Q585 70 496 22T302 -27Q171 -27 95 46T19 246Q19
285 23 331T37 426ZM402 1461Q402 1525 358 1569T250 1613Q186 1613 143 1570T99 1461Q99 1397 142 1354T250 1310Q314 1310 358 1354T402 1461ZM525 1461Q525 1346 445 1267T250 1187Q135 1187 56 1266T-24 1461Q-24 1577 55 1656T250 1736Q365 1736 445 1657T525
1461Z" />
<glyph unicode="&#x170;" glyph-name="Uhungarumlaut" horiz-adv-x="1233" d="M52 573L230 1493H433L254 573Q252 560 246 532Q216 378 216 319Q216 227 270 181T435 135Q524 135 586 163T693 254Q715 285 737 360T787 573L965 1493H1168L990 573Q948 354 901
252T775 86Q704 30 613 1T416 -29Q224 -29 121 61T17 317Q17 354 25 417T52 573ZM575 1899H761L481 1635H327L575 1899ZM256 1899H442L162 1635H8L256 1899Z" />
<glyph unicode="&#x171;" glyph-name="uhungarumlaut" horiz-adv-x="1233" d="M37 426L170 1120H355L220 426Q213 389 209 355T205 297Q205 218 251 176T383 133Q510 133 598 225T719 487L842 1120H1027L809 0H625L658 168Q585 70 496 22T302 -27Q171 -27 95 46T19
246Q19 285 23 331T37 426ZM256 1638H445L143 1262H8L256 1638ZM596 1638H793L469 1262H334L596 1638Z" />
<glyph unicode="&#x172;" glyph-name="Uogonek" horiz-adv-x="1233" d="M52 573L230 1493H433L254 573Q252 560 246 532Q216 378 216 319Q216 227 270 181T435 135Q524 135 586 163T693 254Q715 285 737 360T787 573L965 1493H1168L990 573Q948 354 901 252T775
86Q704 30 613 1T416 -29Q224 -29 121 61T17 317Q17 354 25 417T52 573ZM387 241H506Q445 183 413 133T381 44Q381 7 404 -12T473 -31Q506 -31 539 -24T604 -1L579 -134Q545 -144 510 -149T440 -154Q343 -154 289 -114T235 -3Q235 52 272 112T387 241Z" />
<glyph unicode="&#x173;" glyph-name="uogonek" horiz-adv-x="1233" d="M37 426L170 1120H355L220 426Q213 389 209 355T205 297Q205 218 251 176T383 133Q510 133 598 225T719 487L842 1120H1027L809 0H625L658 168Q585 70 496 22T302 -27Q171 -27 95 46T19 246Q19
285 23 331T37 426ZM578 -1H697Q636 -59 604 -109T572 -198Q572 -235 595 -254T664 -273Q697 -273 730 -266T795 -243L770 -376Q736 -386 701 -391T631 -396Q534 -396 480 -356T426 -245Q426 -190 463 -130T578 -1Z" />
<glyph unicode="&#x174;" glyph-name="Wcircumflex" horiz-adv-x="1233" d="M89 1493H280L190 283L519 1083H730L745 281L1122 1493H1320L810 0H616L585 870L214 0H26L89 1493ZM340 1908H553L711 1642H578L439 1820L230 1642H78L340 1908Z" />
<glyph unicode="&#x175;" glyph-name="wcircumflex" horiz-adv-x="1233" d="M341 1645H488L652 1269H519L402 1510L177 1269H21L341 1645ZM26 1120H202L217 215L485 793H647L696 215L1058 1120H1249L763 0H598L538 623L241 0H75L26 1120Z" />
<glyph unicode="&#x176;" glyph-name="Ycircumflex" horiz-adv-x="1233" d="M12 1493H214L450 842L947 1493H1165L530 670L401 0H194L325 670L12 1493ZM348 1908H561L719 1642H586L447 1820L238 1642H86L348 1908Z" />
<glyph unicode="&#x177;" glyph-name="ycircumflex" horiz-adv-x="1233" d="M341 1645H488L652 1269H519L402 1510L177 1269H21L341 1645ZM834 360Q772 253 669 72Q514 -203 460 -276Q402 -352 328 -389T157 -426H9L38 -272H146Q227 -272 285 -226T404 -66L447
18L230 1120H413L585 258L1068 1120H1273L834 360Z" />
<glyph unicode="&#x178;" glyph-name="Ydieresis" horiz-adv-x="1233" d="M12 1493H214L450 842L947 1493H1165L530 670L401 0H194L325 670L12 1493ZM512 1870H715L676 1667H473L512 1870ZM121 1870H325L284 1667H82L121 1870Z" />
<glyph unicode="&#x179;" glyph-name="Zacute" horiz-adv-x="1233" d="M333 1906H541L234 1642H74L333 1906ZM315 1493H1284L1255 1339L276 170H1050L1016 0H4L33 154L1009 1323H282L315 1493Z" />
<glyph unicode="&#x17a;" glyph-name="zacute" horiz-adv-x="1233" d="M582 1645H801L406 1269H250L582 1645ZM248 1120H1062L1029 952L244 147H873L844 0H7L40 168L824 973H220L248 1120Z" />
<glyph unicode="&#x17b;" glyph-name="Zdotaccent" horiz-adv-x="1233" d="M315 1493H1284L1255 1339L276 170H1050L1016 0H4L33 154L1009 1323H282L315 1493ZM107 1872H312L272 1667H67L107 1872Z" />
<glyph unicode="&#x17c;" glyph-name="zdotaccent" horiz-adv-x="1233" d="M248 1120H1062L1029 952L244 147H873L844 0H7L40 168L824 973H220L248 1120ZM58 1552H263L222 1348H17L58 1552Z" />
<glyph unicode="&#x17d;" glyph-name="Zcaron" horiz-adv-x="1233" d="M315 1493H1284L1255 1339L276 170H1050L1016 0H4L33 154L1009 1323H282L315 1493ZM439 1635H226L68 1901H204L343 1723L552 1901H703L439 1635Z" />
<glyph unicode="&#x17e;" glyph-name="zcaron" horiz-adv-x="1233" d="M248 1120H1062L1029 952L244 147H873L844 0H7L40 168L824 973H220L248 1120ZM321 1262H174L10 1638H141L260 1395L485 1638H641L321 1262Z" />
<glyph unicode="&#x17f;" glyph-name="longs" horiz-adv-x="982" d="M294 0H110L300 977H1L30 1120H327L343 1198Q381 1391 477 1473T761 1556H982L951 1403H743Q648 1403 600 1362T532 1219L294 0Z" />
<glyph unicode="&#x180;" glyph-name="uni0180" horiz-adv-x="1069" d="M387 977Q449 1061 531 1104T715 1147Q879 1147 970 1044T1061 754Q1061 609 1020 465Q979 322 907 213Q830 98 721 34Q612 -29 488 -29Q390 -29 324 14T223 141L197 0H12L259 1270H119L151
1434H291L315 1556H500L476 1434H813L781 1270H444L387 977ZM492 127Q576 127 644 172T758 303Q807 397 835 513T864 737Q864 865 814 929T662 993Q579 993 511 947T391 813Q343 727 314 611T285 383Q285 260 338 194T492 127Z" />
<glyph unicode="&#x181;" glyph-name="uni0181" horiz-adv-x="1201" d="M582 1327L495 877H611Q759 877 842 932T948 1102Q970 1215 908 1271T698 1327H582ZM746 1493Q977 1493 1083 1397T1155 1124Q1128 987 1049 906T841 805Q984 773 1046 672T1080 418Q1041
218 884 109T475 0H122L380 1327Q327 1327 258 1280Q202 1242 180 1128L170 1079H14L28 1149Q63 1330 175 1411T413 1493H746ZM463 713L357 166H498Q661 166 752 233T871 440Q898 580 833 646T604 713H463Z" />
<glyph unicode="&#x182;" glyph-name="uni0182" horiz-adv-x="1233" d="M352 713L246 166H485Q661 166 748 227T862 430Q891 576 825 644T591 713H352ZM1171 1327H472L384 877H619Q995 862 1059 671Q1093 571 1062 410Q1022 207 869 104T453 0H11L301 1493H1203L1171
1327Z" />
<glyph unicode="&#x183;" glyph-name="uni0183" horiz-adv-x="1101" d="M382 977Q442 1059 528 1103T717 1147Q919 1147 1004 992T1037 563Q983 286 836 129T486 -29Q386 -29 318 14T220 141L193 0H9L311 1556H1063L1027 1372H459L382 977ZM657 991Q523 991 433
882T301 559Q260 347 307 237T489 127Q622 127 711 236T842 559T837 882T657 991Z" />
<glyph unicode="&#x184;" glyph-name="uni0184" horiz-adv-x="1094" d="M352 713L246 166H485Q661 166 748 228Q835 289 862 430Q891 576 825 644Q759 713 591 713H352ZM384 877H619Q995 862 1059 671Q1093 571 1062 410Q1022 207 869 104Q716 0 453 0H11L195
948L73 1176L504 1493L384 877Z" />
<glyph unicode="&#x185;" glyph-name="uni0185" horiz-adv-x="1093" d="M659 991Q525 991 434 882Q345 772 303 559Q262 347 309 237Q357 127 491 127Q623 127 712 236T843 559T838 882T659 991ZM385 977Q444 1059 530 1103T718 1147Q920 1147 1005 992Q1091 836
1038 563Q984 286 837 128Q691 -29 487 -29Q387 -29 319 14Q252 58 222 141L195 0H11L195 948L45 1176L497 1556L385 977Z" />
<glyph unicode="&#x186;" glyph-name="uni0186" horiz-adv-x="1157" d="M9 53Q9 53 50 260Q111 199 189 167T355 135Q552 135 679 287T867 745Q927 1052 859 1204T593 1356Q507 1356 416 1324T238 1231L279 1438Q364 1479 449 1499T625 1520Q910 1520 1029 1316T1078
745Q1006 377 808 174T323 -29Q232 -29 155 -9T9 53Z" />
<glyph unicode="&#x187;" glyph-name="uni0187" horiz-adv-x="1366" d="M876 53Q791 12 706 -8T530 -29Q243 -29 124 174T76 745Q134 1043 333 1247T818 1452Q907 1452 983 1432Q1015 1483 1068 1533Q1178 1639 1343 1639H1363L1333 1483Q1249 1483 1186 1421Q1131
1368 1105 1233L1092 1163Q1029 1224 951 1256T786 1288Q589 1288 462 1136T287 745Q228 439 296 287T562 135Q650 135 740 167T916 260L876 53Z" />
<glyph unicode="&#x188;" glyph-name="uni0188" horiz-adv-x="1271" d="M824 57Q741 14 659 -7T494 -29Q234 -29 118 127T55 559T286 991T723 1147Q793 1147 857 1131Q898 1245 972 1316Q1083 1422 1248 1422H1268L1238 1266Q1148 1266 1091 1204Q1035 1142 1010
1016L981 868Q921 933 853 962T692 991Q519 991 405 879T249 559Q209 352 280 240T524 127Q620 127 702 156T861 248L824 57Z" />
<glyph unicode="&#x189;" glyph-name="uni0189" horiz-adv-x="1233" d="M344 166Q529 166 641 228T821 432Q875 547 909 706T944 999Q944 1175 862 1251T587 1327H473L382 858H649L620 709H354L247 166H344ZM606 1493Q879 1493 1014 1369T1150 993Q1150 831 1108
659T995 354Q891 163 736 82T315 0H12L149 709H22L51 858H180L303 1493H606Z" />
<glyph unicode="&#x18a;" glyph-name="uni018A" horiz-adv-x="1249" d="M412 1493H645Q987 1493 1113 1311T1166 745Q1091 363 894 182T355 0H122L380 1327Q326 1327 257 1280Q201 1242 179 1128L170 1079H14L27 1149Q62 1330 174 1411T412 1493ZM383 166Q638
166 763 291T953 745Q1017 1076 941 1201T609 1327H583L357 166H383Z" />
<glyph unicode="&#x18b;" glyph-name="uni018B" horiz-adv-x="1237" d="M870 713H631Q463 713 371 645T250 430Q223 289 286 228T525 166H764L870 713ZM291 1327L323 1493H1225L935 0H493Q230 0 117 103T44 410Q75 571 147 671Q286 862 667 877H902L990 1327H291Z" />
<glyph unicode="&#x18c;" glyph-name="uni018C" horiz-adv-x="1237" d="M870 713H631Q463 713 371 645T250 430Q223 289 286 228T525 166H764L870 713ZM291 1327L323 1493H1225L935 0H493Q230 0 117 103T44 410Q75 571 147 671Q286 862 667 877H902L990 1327H291Z" />
<glyph unicode="&#x18d;" glyph-name="uni018D" horiz-adv-x="1180" d="M437 127Q571 127 661 237T793 559Q835 772 787 881T605 991Q472 991 383 882T253 559T257 236T437 127ZM383 1372L419 1556H1171L869 0H685L712 141Q650 58 565 15T380 -29Q177 -29 91 128T59
563Q112 836 258 991T607 1147Q709 1147 777 1103T875 977L951 1372H383Z" />
<glyph unicode="&#x18e;" glyph-name="uni018E" horiz-adv-x="1207" d="M1196 1493L906 0H1L34 170H737L842 711H188L221 881H875L961 1323H277L310 1493H1196Z" />
<glyph unicode="&#x18f;" glyph-name="uni018F" horiz-adv-x="1167" d="M82 745L98 828H885Q929 1092 894 1215Q854 1356 700 1356Q614 1356 523 1324T345 1231L386 1438Q471 1479 556 1499T732 1520Q985 1520 1071 1328T1081 745Q1005 355 844 163T430 -29T92
162T82 745ZM849 644H275Q236 394 269 276Q309 135 462 135Q616 135 711 276Q791 393 849 644Z" />
<glyph unicode="&#x190;" glyph-name="uni0190" horiz-adv-x="1156" d="M424 799Q300 833 248 915T219 1120Q254 1301 406 1410T776 1520Q849 1520 940 1504T1146 1456L1110 1270Q1014 1310 923 1330T743 1350Q609 1350 525 1289T417 1112Q396 1003 462 942T667
881H821L789 715H635Q483 715 379 639T250 432Q223 291 297 216T537 141Q635 141 739 167T956 246L917 45Q807 9 696 -10T482 -29Q237 -29 122 88T46 412Q75 561 172 660T424 799Z" />
<glyph unicode="&#x191;" glyph-name="uni0191" horiz-adv-x="1481" d="M691 1493H1481L1447 1323H860L775 883H1299L1266 713H742L599 -20Q562 -215 452 -320Q341 -426 176 -426H0L31 -270H169Q259 -270 316 -208Q372 -146 396 -20L691 1493Z" />
<glyph unicode="&#x192;" glyph-name="florin" horiz-adv-x="1185" d="M1185 1556L1155 1403H946H944Q846 1403 800 1362Q754 1322 734 1219L715 1120H1100L1072 977H687L493 -20Q452 -234 352 -330Q251 -426 70 -426H0L31 -270H80Q185 -270 232 -222Q280 -173
309 -20L501 977H204L232 1120H528L543 1198Q578 1378 683 1470Q727 1509 792 1530Q866 1556 964 1556H972H976H1185Z" />
<glyph unicode="&#x193;" glyph-name="uni0193" horiz-adv-x="1386" d="M960 123Q864 48 755 10T528 -29Q244 -29 126 174T79 745Q150 1111 349 1315T834 1520Q928 1520 1009 1494Q1025 1488 1041 1482Q1061 1508 1087 1533Q1198 1639 1363 1639H1383L1352 1483Q1268
1483 1205 1421Q1151 1368 1125 1233L1119 1206Q1053 1283 976 1319T803 1356Q606 1356 478 1204T290 745Q229 434 295 285T560 135Q627 135 680 150T782 199L860 600H643L675 766H1085L960 123Z" />
<glyph unicode="&#x194;" glyph-name="uni0194" horiz-adv-x="1337" d="M724 650Q964 201 884 -194Q835 -430 422 -430Q14 -430 28 -194Q50 172 488 657L158 1353H375L638 798L1119 1353H1336L724 650ZM564 495Q300 194 244 -130Q220 -268 433 -268Q638 -268 664
-130Q725 200 564 495Z" />
<glyph unicode="&#x195;" glyph-name="uni0195" horiz-adv-x="1283" d="M837 694L781 406H780Q750 253 775 204Q802 152 858 156Q878 158 945 231Q1006 297 1036 453L1116 864H1283L1203 453Q1158 225 1061 113T809 0Q682 0 627 96Q572 192 614 406L670 694Q699
845 666 916T566 987Q494 987 414 896T300 633L177 0H12L314 1556H480L362 952Q466 1086 485 1098Q570 1147 655 1147Q772 1147 826 1035T837 694Z" />
<glyph unicode="&#x196;" glyph-name="uni0196" horiz-adv-x="872" d="M321 1323H8L41 1493H870L837 1323H524L349 421Q324 294 356 233Q389 171 479 171H664L632 0H415Q245 0 173 106Q104 208 143 406L321 1323Z" />
<glyph unicode="&#x197;" glyph-name="uni0197" horiz-adv-x="1127" d="M294 1493H1123L1090 1323H777L665 747H667H932L899 577H634H632L553 170H866L833 0H4L37 170H350L429 577H166L199 747H462L574 1323H261L294 1493Z" />
<glyph unicode="&#x198;" glyph-name="uni0198" horiz-adv-x="1359" d="M779 1180Q973 1350 1081 1362Q1237 1380 1321 1266L1358 1215L1230 1101L1204 1138Q1159 1204 1072 1185Q1003 1170 872 1055Q872 1055 675 883L1101 0H857L515 748L329 584L216 0H13L303
1493H506L377 829L779 1180Z" />
<glyph unicode="&#x199;" glyph-name="uni0199" horiz-adv-x="1123" d="M203 1002L231 1150Q269 1345 379 1450Q489 1556 654 1556H859L829 1400H644Q554 1400 497 1338Q441 1276 416 1150H421L325 655L898 1120H1122L599 698L974 0H749L447 578L285 449L198 0H8L203
1002Z" />
<glyph unicode="&#x19a;" glyph-name="uni019A" horiz-adv-x="727" d="M375 406Q351 282 384 219T506 156H721L691 0H458Q293 0 223 106T191 406L229 602H1L28 744H256L388 1423H93L121 1567H600L440 744H449H670L643 602H422H413L375 406Z" />
<glyph unicode="&#x19b;" glyph-name="uni019B" horiz-adv-x="1182" d="M717 1213L1112 1455L1170 1345L750 1087L1035 0H844L659 704L193 0H2L604 913L585 987L174 736L116 847L552 1113L452 1493H643L717 1213Z" />
<glyph unicode="&#x19c;" glyph-name="uni019C" horiz-adv-x="1307" d="M461 114Q413 42 354 8T220 -27Q85 -27 50 77T71 471L270 1493H438L241 479Q195 242 210 185T295 127Q375 127 416 188T503 479L700 1493H868L671 479Q624 239 641 183T733 127Q806 127 846
188T932 479L1129 1493H1296L1006 0H839L857 96Q813 36 757 5T638 -27Q562 -27 519 8T461 114Z" />
<glyph unicode="&#x19d;" glyph-name="uni019D" horiz-adv-x="1398" d="M538 1493H768L983 264L1222 1493H1397L1107 0H876L662 1229L419 -20Q381 -215 280 -320Q179 -426 30 -426H3L34 -270Q115 -270 167 -208Q219 -146 243 -20L538 1493Z" />
<glyph unicode="&#x19e;" glyph-name="uni019E" horiz-adv-x="1049" d="M993 694L775 -430H590L808 694Q838 845 799 916T646 987Q517 987 430 896T309 633L186 0H2L220 1120H404L371 952Q439 1048 532 1097T741 1147Q912 1147 975 1035T993 694Z" />
<glyph unicode="&#x19f;" glyph-name="uni019F" horiz-adv-x="1171" d="M1085 745Q1009 355 848 163T434 -29T96 162T86 745Q162 1136 323 1328T736 1520Q989 1520 1075 1328T1085 745ZM889 828Q933 1092 898 1215Q858 1356 704 1356Q551 1356 456 1215Q373 1092
314 828H889ZM279 644Q240 394 273 276Q313 135 466 135Q620 135 715 276Q795 393 853 644H279Z" />
<glyph unicode="&#x1a0;" glyph-name="Ohorn" horiz-adv-x="1233" d="M568 135Q653 135 725 186T844 332Q918 477 964 683T1010 1079Q1010 1221 958 1288T795 1356Q710 1356 639 1305T521 1159Q445 1012 399 808T353 414Q353 271 405 203T568 135ZM1217 1020Q1217
910 1195 781T1129 516Q1100 424 1067 351T994 219Q906 92 797 32T543 -29Q342 -29 245 94T148 473Q148 584 169 711T234 975Q263 1067 296 1140T369 1272Q457 1399 566 1459T820 1520Q1022 1520 1119 1398T1217 1020ZM467 1292L490 1411Q542 1366 582 1345T653
1323Q699 1323 727 1350T766 1432Q772 1464 771 1495T760 1557H893Q896 1519 895 1485T887 1421Q863 1299 809 1242T661 1184Q613 1184 566 1210T467 1292Z" />
<glyph unicode="&#x1a1;" glyph-name="ohorn" horiz-adv-x="1233" d="M745 991Q581 991 472 820T362 385Q362 256 418 192T586 127Q750 127 859 298T969 733Q969 862 913 926T745 991ZM762 1147Q958 1147 1060 1040T1163 727Q1163 589 1122 453T1007 207Q928 89
815 30T555 -29Q368 -29 267 80T166 393Q166 528 207 663T323 911Q402 1027 513 1087T762 1147ZM388 872L411 991Q463 946 503 925T574 903Q620 903 648 930T687 1012Q693 1044 692 1075T681 1137H814Q817 1099 816 1065T808 1001Q784 879 730 822T582 764Q534
764 487 790T388 872Z" />
<glyph unicode="&#x1a2;" glyph-name="uni01A2" horiz-adv-x="1391" d="M90 745Q220 1417 571 1506Q627 1520 689 1520Q896 1520 976 1362L1148 1493H1379L1088 0H913L1152 1229L941 1069L764 163Q616 -29 389 -29T87 162T90 745ZM829 1215Q796 1356 658 1356Q520
1356 432 1215T280 745Q216 417 249 276T420 135Q559 135 647 276L829 1215Z" />
<glyph unicode="&#x1a3;" glyph-name="uni01A3" horiz-adv-x="1269" d="M51 559Q136 995 408 1110Q495 1147 596 1147Q806 1147 888 996L880 953L1027 1063H1258L968 -430H792L1031 799L819 642L718 122Q578 -29 368 -29Q133 -29 60 159Q2 305 51 559ZM227 559Q150
164 359 130Q377 127 398 127Q525 127 611 236L737 882Q693 991 566 991Q360 991 264 705Q242 639 227 559Z" />
<glyph unicode="&#x1a4;" glyph-name="uni01A4" horiz-adv-x="1145" d="M1129 1047Q1061 699 734 622Q643 600 534 600H440L324 0H122L380 1327Q326 1327 257 1280Q201 1242 179 1128L169 1079H13L27 1149Q62 1330 174 1411T412 1493H707Q1113 1493 1139 1201Q1145
1132 1129 1047ZM566 766Q777 766 871 923Q904 979 918 1047Q944 1180 880 1253T675 1327H582L473 766H566Z" />
<glyph unicode="&#x1a5;" glyph-name="uni01A5" horiz-adv-x="1169" d="M383 559Q310 184 509 134Q537 127 571 127Q704 127 792 236T923 559Q1004 977 756 991Q747 991 739 991Q524 991 426 718Q400 648 383 559ZM464 977Q587 1141 782 1147Q789 1147 796 1147Q999
1147 1084 990T1115 555Q1062 282 916 127T568 -29Q466 -29 398 14T302 141L191 -426H6L289 1026Q347 1328 566 1407Q634 1432 712 1432H917L886 1276H701Q533 1276 480 1055Q477 1041 474 1026L464 977Z" />
<glyph unicode="&#x1a6;" glyph-name="uni01A6" horiz-adv-x="1099" d="M705 441Q779 421 823 366T918 144L1041 -264H824L720 113Q674 274 622 320T470 367H277L206 0H3L293 1493H496L444 1229H657Q903 1229 1013 1118Q1093 1037 1093 904Q1093 687 954 556Q855
462 705 441ZM412 1063L309 533H530Q817 533 868 797Q876 834 876 866Q876 946 831 994Q769 1063 625 1063H412Z" />
<glyph unicode="&#x1a7;" glyph-name="uni01A7" horiz-adv-x="1184" d="M334 1442Q447 1481 546 1500T731 1520Q954 1520 1065 1400T1137 1079Q1106 919 994 824T664 682L551 657Q400 625 330 566T238 395Q214 272 285 204T510 135Q614 135 723 169T962 276L920
61Q804 16 694 -6T478 -29Q226 -29 116 83T47 408Q83 589 199 694T535 848L646 872Q801 907 866 959T950 1110Q972 1223 902 1289T689 1356Q595 1356 497 1326T295 1237L334 1442Z" />
<glyph unicode="&#x1a8;" glyph-name="uni01A8" horiz-adv-x="989" d="M244 1081Q331 1114 417 1130T593 1147Q795 1147 887 1060T948 811Q923 684 836 611T584 506L512 492L504 490Q249 441 224 313Q207 224 264 175T444 125Q528 125 627 151T839 231L802 41Q690
6 596 -11T418 -29Q208 -29 108 64T40 324Q65 449 150 527T378 631L455 645Q645 680 698 717T765 829Q782 912 728 952T549 993Q466 993 382 970T209 901L244 1081Z" />
<glyph unicode="&#x1a9;" glyph-name="uni01A9" horiz-adv-x="1233" d="M823 747L256 170H1058L1025 0H12L45 170L611 747L269 1323L302 1493H1315L1282 1323H480L823 747Z" />
<glyph unicode="&#x1aa;" glyph-name="uni01AA" horiz-adv-x="863" d="M484 1284Q485 1329 472 1352Q448 1400 338 1400Q214 1400 199 1335Q186 1284 305 1284H484ZM651 1130L412 -89Q392 -192 423 -233Q452 -273 552 -273H728L698 -426H524Q330 -426 265 -340Q196
-248 231 -68L464 1130H274Q4 1130 45 1340Q87 1556 390 1556Q570 1556 634 1460Q675 1396 671 1285H862L832 1130H651Z" />
<glyph unicode="&#x1ab;" glyph-name="uni01AB" horiz-adv-x="929" d="M573 1438L511 1120H929L902 977H484L365 369Q341 245 378 196T533 147H740L712 0L708 -20Q670 -215 560 -320Q450 -426 285 -426H80L110 -270H295Q385 -270 442 -208Q498 -146 523 -20L527
0H487Q280 0 211 83T181 369L300 977H1L28 1120H327L389 1438H573Z" />
<glyph unicode="&#x1ac;" glyph-name="uni01AC" horiz-adv-x="1226" d="M461 1327Q332 1335 250 1280Q194 1242 172 1128L163 1079H7L20 1149Q55 1330 167 1411T493 1493H1226L1193 1323H726L469 0H266L523 1323L461 1327Z" />
<glyph unicode="&#x1ad;" glyph-name="uni01AD" horiz-adv-x="962" d="M511 1120H929L902 977H484L365 369Q341 245 378 196T533 147H740L712 0H487Q280 0 211 83T181 369L300 977H1L28 1120H326L332 1150Q370 1345 480 1450Q590 1556 755 1556H960L930 1400H745Q655
1400 598 1338Q542 1276 517 1150L511 1120Z" />
<glyph unicode="&#x1ae;" glyph-name="uni01AE" horiz-adv-x="1177" d="M405 -117Q405 -270 546 -270H731L701 -426H478Q313 -426 244 -320Q199 -252 199 -171T213 -20L474 1323H5L38 1493H1177L1144 1323H677L416 -20Q405 -75 405 -117Z" />
<glyph unicode="&#x1af;" glyph-name="Uhorn" horiz-adv-x="1233" d="M-85 573L93 1493H296L117 573Q115 560 109 532Q79 378 79 319Q79 227 133 181T298 135Q387 135 449 163T556 254Q578 285 600 360T650 573L828 1493H1031L853 573Q811 354 764 252T638 86Q567
30 476 1T279 -29Q87 -29 -16 61T-120 317Q-120 354 -112 417T-85 573ZM504 1292L527 1411Q579 1366 619 1345T690 1323Q736 1323 764 1350T803 1432Q809 1464 808 1495T797 1557H930Q933 1519 932 1485T924 1421Q900 1299 846 1242T698 1184Q650 1184 603 1210T504
1292Z" />
<glyph unicode="&#x1b0;" glyph-name="uhorn" horiz-adv-x="1233" d="M-118 426L15 1120H200L65 426Q58 389 54 355T50 297Q50 218 96 176T228 133Q355 133 443 225T564 487L687 1120H872L654 0H470L503 168Q430 70 341 22T147 -27Q16 -27 -60 46T-136 246Q-136
285 -132 331T-118 426ZM380 872L403 991Q455 946 495 925T566 903Q612 903 640 930T679 1012Q685 1044 684 1075T673 1137H806Q809 1099 808 1065T800 1001Q776 879 722 822T574 764Q526 764 479 790T380 872Z" />
<glyph unicode="&#x1b1;" glyph-name="uni01B1" horiz-adv-x="1304" d="M1298 1460L1264 1288H1019Q1116 1154 1143 1010T1134 678Q1073 367 894 184T474 0Q232 0 123 183T75 678Q111 866 195 1010T427 1288H179L213 1460H676L642 1288Q508 1212 409 1048T267
661Q222 431 286 299T504 166T773 298T934 661Q977 883 942 1047T801 1288L835 1460H1298Z" />
<glyph unicode="&#x1b2;" glyph-name="uni01B2" horiz-adv-x="1059" d="M322 0Q153 0 81 106Q12 208 50 406L262 1493H465L256 421Q232 295 264 233Q297 171 387 171Q541 171 656 303T816 666Q859 888 824 1052T684 1293H902Q999 1159 1026 1015T1016 683Q956
372 776 188Q591 0 322 0Z" />
<glyph unicode="&#x1b3;" glyph-name="uni01B3" horiz-adv-x="1201" d="M805 1140L468 670L337 0H155L285 670L16 1493H209L409 834L685 1235Q824 1435 941 1477Q991 1495 1036 1495Q1116 1495 1179 1438L1201 1419L1103 1285L1095 1294Q1068 1325 1028 1325Q999
1325 965 1309Q909 1285 805 1140Z" />
<glyph unicode="&#x1b4;" glyph-name="uni01B4" horiz-adv-x="1403" d="M567 -104Q447 -307 364 -365Q279 -426 155 -426H8L37 -272H145Q221 -272 270 -236T397 -66L446 18L207 1120H402L582 244L997 943Q1071 1069 1160 1110Q1253 1153 1359 1112L1403 1095L1322
948L1295 958Q1217 989 1181 928L567 -104Z" />
<glyph unicode="&#x1b5;" glyph-name="uni01B5" horiz-adv-x="1290" d="M316 1493H1285L1255 1339L745 747H977L944 577H679H599L248 170H1050L1017 0H4L34 154L391 577H211L244 747H534L1020 1323H283L316 1493Z" />
<glyph unicode="&#x1b6;" glyph-name="uni01B6" horiz-adv-x="1074" d="M251 1122H1064L1031 954L695 616H1007L976 452H622H532L232 150H875L846 0H9L42 170L322 452H55L87 616H485L841 975H222L251 1122Z" />
<glyph unicode="&#x1b7;" glyph-name="uni01B7" horiz-adv-x="1321" d="M246 435Q218 292 303 217Q388 142 577 142T881 217Q996 292 1024 435Q1050 569 972 642Q893 716 728 716H554L587 882L1042 1323H305L338 1493H1307L1275 1325L813 884Q918 884 1036 828Q1126
785 1191 677Q1252 573 1225 435Q1182 214 1007 93T551 -28Q259 -28 131 93T45 435H246Z" />
<glyph unicode="&#x1b8;" glyph-name="uni01B8" horiz-adv-x="1353" d="M1030 435H1231Q1188 214 1013 93T545 -28Q265 -28 137 93T51 435Q77 573 179 677Q285 785 392 828Q532 884 637 884L347 1325L379 1493H1348L1315 1323H578L863 882L830 716H656Q491 716
384 642Q278 569 252 435Q224 292 309 217Q394 142 583 142T887 217Q1002 292 1030 435Z" />
<glyph unicode="&#x1b9;" glyph-name="uni01B9" horiz-adv-x="1476" d="M763 476L537 952L602 1120H1476L1419 973H752L988 474L924 308H750Q585 308 463 234Q342 159 291 27Q235 -116 306 -191Q376 -266 566 -266Q675 -266 784 -241T997 -167L921 -362Q801 -399
694 -418Q588 -436 494 -436Q214 -436 109 -315T90 27Q143 165 265 269Q393 378 507 420Q657 476 763 476Z" />
<glyph unicode="&#x1ba;" glyph-name="uni01BA" horiz-adv-x="1119" d="M494 -274Q578 -274 659 -253Q742 -232 832 -188L797 -367Q703 -399 621 -412Q532 -426 435 -426Q4 -426 4 -199Q4 -174 10 -145Q56 93 472 146Q764 183 783 281Q785 293 785 303Q785 405
572 405H282L877 973H210L239 1120H1113L1080 952L646 540Q973 540 973 358Q973 336 969 311Q915 35 441 -14Q211 -38 192 -135Q190 -146 190 -155Q190 -274 494 -274Z" />
<glyph unicode="&#x1bb;" glyph-name="uni01BB" horiz-adv-x="1160" d="M295 1421Q523 1520 714 1520Q933 1520 1043 1404T1118 1098Q1099 1002 1036 906Q987 832 904 747H984L951 577H722L653 514L261 170H947L914 0H7L40 170L501 577H218L251 747H685Q815 877
862 961Q896 1021 908 1083Q944 1268 805 1328Q753 1350 685 1350Q504 1350 256 1217L295 1421Z" />
<glyph unicode="&#x1bc;" glyph-name="uni01BC" horiz-adv-x="1353" d="M561 142Q877 142 977 341Q998 384 1008 435Q1034 569 956 642Q877 716 713 716H272L423 1493H1347L1314 1323H593L507 884H797Q902 884 1021 828Q1111 785 1175 677Q1236 576 1208 435Q1165
214 990 93T534 -28Q104 -28 31 228Q6 319 28 435H230Q195 254 339 183Q422 142 561 142Z" />
<glyph unicode="&#x1bd;" glyph-name="uni01BD" horiz-adv-x="1184" d="M417 -266Q728 -266 829 -71Q852 -26 863 27Q889 161 811 234Q732 308 567 308H267L425 1120H1177L1141 936H573L484 475L652 476Q755 477 875 420Q965 377 1030 269Q1091 165 1064 27Q1021
-194 846 -315T390 -436Q203 -436 5 -362L43 -167Q194 -266 417 -266Z" />
<glyph unicode="&#x1be;" glyph-name="uni01BE" horiz-adv-x="965" d="M729 439Q752 553 693 632Q623 727 449 727H387L440 998H211L243 1162H472L526 1438H728L674 1162H905L873 998H642L618 873Q777 844 864 734Q958 615 923 439Q887 254 753 128Q585 -29 310
-29Q139 -29 1 41L34 213Q174 127 333 127Q511 127 633 241Q703 306 729 439Z" />
<glyph unicode="&#x1bf;" glyph-name="uni01BF" horiz-adv-x="1255" d="M254 -122L195 -426H10L311 1120H496L463 950Q531 1020 679 1098Q769 1147 979 1147Q1163 1147 1218 1035Q1255 961 1255 870Q1255 822 1245 769Q1162 344 254 -122ZM290 60Q994 460 1042
709Q1052 759 1052 799Q1052 868 1024 908Q982 973 864 973H860Q640 973 421 734Q355 397 290 60Z" />
<glyph unicode="&#x1c0;" glyph-name="uni01C0" horiz-adv-x="493" d="M291 1493H493L202 0H0L291 1493Z" />
<glyph unicode="&#x1c1;" glyph-name="uni01C1" horiz-adv-x="1233" d="M493 1493H695L404 0H202L493 1493ZM90 1493H292L1 0H-201L90 1493Z" />
<glyph unicode="&#x1c2;" glyph-name="uni01C2" horiz-adv-x="1016" d="M542 1493H744L665 1089H1016L983 921H632L586 681H937L904 511H553L453 0H251L351 511H0L33 681H384L430 921H79L112 1089H463L542 1493Z" />
<glyph unicode="&#x1c3;" glyph-name="uni01C3" horiz-adv-x="1233" d="M291 1493H493L364 838L276 481H114L164 838L291 1493ZM49 254H252L202 0H0L49 254Z" />
<glyph unicode="&#x1cd;" glyph-name="uni01CD" horiz-adv-x="1233" d="M841 1325L477 551H907L841 1325ZM745 1493H991L1157 0H956L921 389H401L217 0H0L745 1493ZM439 1635H226L68 1901H204L343 1723L552 1901H703L439 1635Z" />
<glyph unicode="&#x1ce;" glyph-name="uni01CE" horiz-adv-x="1233" d="M630 563Q511 563 453 556T352 530Q284 503 243 442T202 307Q202 224 253 175T393 125Q541 125 648 231T794 522L802 563H630ZM1001 639L876 0H692L724 166Q652 72 554 22T346 -29Q193 -29
102 54T10 276Q10 472 164 589T583 707H829L841 768Q843 777 844 787T845 815Q845 900 782 945T602 991Q516 991 417 966T206 889L241 1069Q349 1108 446 1127T632 1147Q818 1147 921 1065T1025 838Q1025 806 1019 754T1001 639ZM351 1262H204L40 1638H171L290
1395L515 1638H671L351 1262Z" />
<glyph unicode="&#x1cf;" glyph-name="uni01CF" horiz-adv-x="1233" d="M293 1493H1123L1090 1323H776L553 170H867L834 0H4L37 170H350L574 1323H260L293 1493ZM474 1635H261L103 1901H239L378 1723L587 1901H738L474 1635Z" />
<glyph unicode="&#x1d0;" glyph-name="uni01D0" horiz-adv-x="1233" d="M300 1120H771L581 143H946L917 0H3L32 143H397L558 977H272L300 1120ZM321 1262H174L10 1638H141L260 1395L485 1638H641L321 1262Z" />
<glyph unicode="&#x1d1;" glyph-name="uni01D1" horiz-adv-x="1233" d="M434 135Q519 135 591 186T710 332Q784 477 830 683T876 1079Q876 1221 824 1288T661 1356Q576 1356 505 1305T387 1159Q311 1012 265 808T219 414Q219 271 271 203T434 135ZM1083 1020Q1083
910 1061 781T995 516Q966 424 933 351T860 219Q772 92 663 32T409 -29Q208 -29 111 94T14 473Q14 584 35 711T100 975Q129 1067 162 1140T235 1272Q323 1399 432 1459T686 1520Q888 1520 985 1398T1083 1020ZM474 1635H261L103 1901H239L378 1723L587 1901H738L474
1635Z" />
<glyph unicode="&#x1d2;" glyph-name="uni01D2" horiz-adv-x="1233" d="M594 991Q430 991 321 820T211 385Q211 256 267 192T435 127Q599 127 708 298T818 733Q818 862 762 926T594 991ZM611 1147Q807 1147 909 1040T1012 727Q1012 589 971 453T856 207Q777 89
664 30T404 -29Q217 -29 116 80T15 393Q15 528 56 663T172 911Q251 1027 362 1087T611 1147ZM371 1262H224L60 1638H191L310 1395L535 1638H691L371 1262Z" />
<glyph unicode="&#x1d3;" glyph-name="uni01D3" horiz-adv-x="1233" d="M52 573L230 1493H433L254 573Q252 560 246 532Q216 378 216 319Q216 227 270 181T435 135Q524 135 586 163T693 254Q715 285 737 360T787 573L965 1493H1168L990 573Q948 354 901 252T775
86Q704 30 613 1T416 -29Q224 -29 121 61T17 317Q17 354 25 417T52 573ZM460 1635H247L89 1901H225L364 1723L573 1901H724L460 1635Z" />
<glyph unicode="&#x1d4;" glyph-name="uni01D4" horiz-adv-x="1233" d="M37 426L170 1120H355L220 426Q213 389 209 355T205 297Q205 218 251 176T383 133Q510 133 598 225T719 487L842 1120H1027L809 0H625L658 168Q585 70 496 22T302 -27Q171 -27 95 46T19 246Q19
285 23 331T37 426ZM341 1262H194L30 1638H161L280 1395L505 1638H661L341 1262Z" />
<glyph unicode="&#x1d5;" glyph-name="uni01D5" horiz-adv-x="1167" d="M824 1746H1027L988 1543H785L824 1746ZM433 1746H637L596 1543H394L433 1746ZM469 1952H1067L1038 1804H440L469 1952ZM43 573L221 1493H424L245 573Q243 560 237 532Q207 378 207 319Q207
227 261 181T426 135Q515 135 577 163T684 254Q706 285 728 360T778 573L956 1493H1159L981 573Q939 354 892 252T766 86Q695 30 604 1T407 -29Q215 -29 112 61T8 317Q8 354 16 417T43 573Z" />
<glyph unicode="&#x1d6;" glyph-name="uni01D6" horiz-adv-x="1017" d="M21 426L154 1120H339L204 426Q197 389 193 355T189 297Q189 218 235 176T367 133Q494 133 582 225T703 487L826 1120H1011L793 0H609L642 168Q569 70 480 22T286 -27Q155 -27 79 46T3 246Q3
285 7 331T21 426ZM349 1552H552L513 1350H310L349 1552ZM740 1552H943L904 1350H701L740 1552ZM384 1842H982L953 1694H355L384 1842Z" />
<glyph unicode="&#x1d7;" glyph-name="uni01D7" horiz-adv-x="1233" d="M356 2041H564L257 1777H97L356 2041ZM505 1746H708L669 1543H466L505 1746ZM114 1746H318L277 1543H75L114 1746ZM52 573L230 1493H433L254 573Q252 560 246 532Q216 378 216 319Q216 227
270 181T435 135Q524 135 586 163T693 254Q715 285 737 360T787 573L965 1493H1168L990 573Q948 354 901 252T775 86Q704 30 613 1T416 -29Q224 -29 121 61T17 317Q17 354 25 417T52 573Z" />
<glyph unicode="&#x1d8;" glyph-name="uni01D8" horiz-adv-x="1081" d="M20 426L153 1120H338L203 426Q196 389 192 355T188 297Q188 218 234 176T366 133Q493 133 581 225T702 487L825 1120H1010L792 0H608L641 168Q568 70 479 22T285 -27Q154 -27 78 46T2 246Q2
285 6 331T20 426ZM348 1552H551L512 1350H309L348 1552ZM739 1552H942L903 1350H700L739 1552ZM856 1954H1075L680 1578H524L856 1954Z" />
<glyph unicode="&#x1d9;" glyph-name="uni01D9" horiz-adv-x="1233" d="M52 573L230 1493H433L254 573Q252 560 246 532Q216 378 216 319Q216 227 270 181T435 135Q524 135 586 163T693 254Q715 285 737 360T787 573L965 1493H1168L990 573Q948 354 901 252T775
86Q704 30 613 1T416 -29Q224 -29 121 61T17 317Q17 354 25 417T52 573ZM505 1746H708L669 1543H466L505 1746ZM114 1746H318L277 1543H75L114 1746ZM486 1777H273L115 2043H251L390 1865L599 2043H750L486 1777Z" />
<glyph unicode="&#x1da;" glyph-name="uni01DA" horiz-adv-x="1073" d="M22 426L155 1120H340L205 426Q198 389 194 355T190 297Q190 218 236 176T368 133Q495 133 583 225T704 487L827 1120H1012L794 0H610L643 168Q570 70 481 22T287 -27Q156 -27 80 46T4 246Q4
285 8 331T22 426ZM350 1552H553L514 1350H311L350 1552ZM741 1552H944L905 1350H702L741 1552ZM745 1578H598L434 1954H565L684 1711L909 1954H1065L745 1578Z" />
<glyph unicode="&#x1db;" glyph-name="uni01DB" horiz-adv-x="1233" d="M505 1746H708L669 1543H466L505 1746ZM114 1746H318L277 1543H75L114 1746ZM292 2041L439 1777H300L110 2041H292ZM52 573L230 1493H433L254 573Q252 560 246 532Q216 378 216 319Q216 227
270 181T435 135Q524 135 586 163T693 254Q715 285 737 360T787 573L965 1493H1168L990 573Q948 354 901 252T775 86Q704 30 613 1T416 -29Q224 -29 121 61T17 317Q17 354 25 417T52 573Z" />
<glyph unicode="&#x1dc;" glyph-name="uni01DC" horiz-adv-x="1018" d="M22 426L155 1120H340L205 426Q198 389 194 355T190 297Q190 218 236 176T368 133Q495 133 583 225T704 487L827 1120H1012L794 0H610L643 168Q570 70 481 22T287 -27Q156 -27 80 46T4 246Q4
285 8 331T22 426ZM350 1552H553L514 1350H311L350 1552ZM741 1552H944L905 1350H702L741 1552ZM596 1954L793 1578H650L398 1954H596Z" />
<glyph unicode="&#x1dd;" glyph-name="uni01DD" horiz-adv-x="1233" d="M60 512L77 602H874L876 608Q911 791 835 891T585 991Q497 991 396 963T174 878L210 1061Q323 1104 424 1125T617 1147Q878 1147 994 991T1058 559Q1006 291 831 131T416 -29Q202 -29 107
116T60 512ZM233 458Q206 296 262 212T454 127Q587 127 690 215T840 459L233 458Z" />
<glyph unicode="&#x1df;" glyph-name="uni01DF" horiz-adv-x="1079" d="M620 563Q501 563 443 556T342 530Q274 503 233 442T192 307Q192 224 243 175T383 125Q531 125 638 231T784 522L792 563H620ZM991 639L866 0H682L714 166Q642 72 544 22T336 -29Q183 -29
92 54T0 276Q0 472 154 589T573 707H819L831 768Q833 777 834 787T835 815Q835 900 772 945T592 991Q506 991 407 966T196 889L231 1069Q339 1108 436 1127T622 1147Q808 1147 911 1065T1015 838Q1015 806 1009 754T991 639ZM407 1552H610L571 1350H368L407 1552ZM798
1552H1001L962 1350H759L798 1552ZM474 1842H1072L1043 1694H445L474 1842Z" />
<glyph unicode="&#x1e0;" glyph-name="uni01E0" horiz-adv-x="1254" d="M647 1952H1245L1216 1804H618L647 1952ZM841 1325L477 551H907L841 1325ZM745 1493H991L1157 0H956L921 389H401L217 0H0L745 1493ZM819 1748H1024L984 1543H779L819 1748Z" />
<glyph unicode="&#x1e1;" glyph-name="uni01E1" horiz-adv-x="1077" d="M474 1842H1072L1043 1694H445L474 1842ZM620 563Q501 563 443 556T342 530Q274 503 233 442T192 307Q192 224 243 175T383 125Q531 125 638 231T784 522L792 563H620ZM991 639L866 0H682L714
166Q642 72 544 22T336 -29Q183 -29 92 54T0 276Q0 472 154 589T573 707H819L831 768Q833 777 834 787T835 815Q835 900 772 945T592 991Q506 991 407 966T196 889L231 1069Q339 1108 436 1127T622 1147Q808 1147 911 1065T1015 838Q1015 806 1009 754T991 639ZM600
1552H805L764 1348H559L600 1552Z" />
<glyph unicode="&#x1e2;" glyph-name="uni01E2" horiz-adv-x="1233" d="M1454 1493L1421 1323H1083L997 881H1304L1271 711H964L858 170H1214L1181 0H639L714 383H362L186 0H2L702 1493H1454ZM794 1323L438 551H747L897 1323H794ZM225 1840H823L794 1692H196L225 1840Z" />
<glyph unicode="&#x1e3;" glyph-name="uni01E3" horiz-adv-x="1233" d="M548 442L563 514H514Q389 514 337 499T249 444Q219 411 202 362T184 262Q184 202 223 163T321 123Q411 123 461 190T548 442ZM1085 657L1101 731Q1107 758 1109 786T1112 846Q1112 916 1078
955T985 995Q902 995 849 932T772 739L755 657H1085ZM1224 514H729Q710 423 702 368T694 285Q694 207 742 163T876 119Q946 119 1017 148T1142 227L1108 55Q1049 14 983 -7T845 -29Q739 -29 670 12T575 131Q528 51 458 11T294 -29Q166 -29 90 44T14 240Q14 440
134 548T479 657H596L614 745Q618 765 620 786T622 834Q622 910 580 952T460 995Q411 995 345 974T202 911L237 1079Q316 1113 385 1130T510 1147Q592 1147 651 1114T741 1018Q791 1080 861 1113T1011 1147Q1132 1147 1203 1070T1275 862Q1275 823 1267 760T1241
604L1224 514ZM55 1526H653L624 1378H26L55 1526Z" />
<glyph unicode="&#x1e6;" glyph-name="Gcaron" horiz-adv-x="1233" d="M439 1635H226L68 1901H204L343 1723L552 1901H703L439 1635ZM903 96Q816 34 713 3T493 -29Q261 -29 137 105T12 489Q12 579 28 680T77 893Q112 1010 159 1104T262 1266Q369 1396 498 1458T794
1520Q874 1520 953 1499T1110 1438L1069 1231Q1004 1294 933 1325T780 1356Q682 1356 596 1315T442 1192Q398 1140 359 1062T290 887Q256 773 239 673T221 492Q221 321 300 228T524 135Q592 135 646 153T737 207L813 600H596L626 766H1036L903 96Z" />
<glyph unicode="&#x1e7;" glyph-name="gcaron" horiz-adv-x="1233" d="M321 1262H174L10 1638H141L260 1395L485 1638H641L321 1262ZM466 145Q545 145 611 190T724 319Q773 409 800 521T828 739Q828 858 772 924T616 991Q462 991 357 823T251 399Q251 280 308
213T466 145ZM896 72Q843 -199 710 -319T329 -440Q247 -440 168 -426T13 -385L50 -203Q123 -247 201 -270T360 -293Q509 -293 591 -213T710 53L734 170Q676 83 589 38T392 -8Q238 -8 147 99T56 391Q56 530 96 667T208 911Q282 1023 386 1085T601 1147Q702 1147
778 1099T888 965L915 1116H1099L896 72Z" />
<glyph unicode="&#x1e8;" glyph-name="uni01E8" horiz-adv-x="1233" d="M439 1635H226L68 1901H204L343 1723L552 1901H703L439 1635ZM304 1493H506L379 846L1121 1493H1375L672 874L1100 0H881L521 741L328 573L216 0H13L304 1493Z" />
<glyph unicode="&#x1e9;" glyph-name="uni01E9" horiz-adv-x="1233" d="M439 1635H226L68 1901H204L343 1723L552 1901H703L439 1635ZM313 1556H504L334 682L883 1120H1124L604 698L977 0H764L457 582L289 449L201 0H10L313 1556Z" />
<glyph unicode="&#x1ea;" glyph-name="uni01EA" horiz-adv-x="1233" d="M434 135Q519 135 591 186T710 332Q784 477 830 683T876 1079Q876 1221 824 1288T661 1356Q576 1356 505 1305T387 1159Q311 1012 265 808T219 414Q219 271 271 203T434 135ZM1083 1020Q1083
910 1061 781T995 516Q966 424 933 351T860 219Q772 92 663 32T409 -29Q208 -29 111 94T14 473Q14 584 35 711T100 975Q129 1067 162 1140T235 1272Q323 1399 432 1459T686 1520Q888 1520 985 1398T1083 1020ZM192 241H311Q250 183 218 133T186 44Q186 7 209 -12T278
-31Q311 -31 344 -24T409 -1L384 -134Q350 -144 315 -149T245 -154Q148 -154 94 -114T40 -3Q40 52 77 112T192 241Z" />
<glyph unicode="&#x1eb;" glyph-name="uni01EB" horiz-adv-x="1233" d="M594 991Q430 991 321 820T211 385Q211 256 267 192T435 127Q599 127 708 298T818 733Q818 862 762 926T594 991ZM611 1147Q807 1147 909 1040T1012 727Q1012 589 971 453T856 207Q777 89
664 30T404 -29Q217 -29 116 80T15 393Q15 528 56 663T172 911Q251 1027 362 1087T611 1147ZM192 241H311Q250 183 218 133T186 44Q186 7 209 -12T278 -31Q311 -31 344 -24T409 -1L384 -134Q350 -144 315 -149T245 -154Q148 -154 94 -114T40 -3Q40 52 77 112T192
241Z" />
<glyph unicode="&#x1ec;" glyph-name="uni01EC" horiz-adv-x="1077" d="M425 135Q510 135 582 186T701 332Q775 477 821 683T867 1079Q867 1221 815 1288T652 1356Q567 1356 496 1305T378 1159Q302 1012 256 808T210 414Q210 271 262 203T425 135ZM1074 1020Q1074
910 1052 781T986 516Q957 424 924 351T851 219Q763 92 654 32T400 -29Q199 -29 102 94T5 473Q5 584 26 711T91 975Q120 1067 153 1140T226 1272Q314 1399 423 1459T677 1520Q879 1520 976 1398T1074 1020ZM334 -16H453Q392 -74 360 -124T328 -213Q328 -250 351
-269T420 -288Q453 -288 486 -281T551 -258L526 -391Q492 -401 457 -406T387 -411Q290 -411 236 -371T182 -260Q182 -205 219 -145T334 -16ZM454 1840H1052L1023 1692H425L454 1840Z" />
<glyph unicode="&#x1ed;" glyph-name="uni01ED" horiz-adv-x="1002" d="M583 991Q419 991 310 820T200 385Q200 256 256 192T424 127Q588 127 697 298T807 733Q807 862 751 926T583 991ZM600 1147Q796 1147 898 1040T1001 727Q1001 589 960 453T845 207Q766 89
653 30T393 -29Q206 -29 105 80T4 393Q4 528 45 663T161 911Q240 1027 351 1087T600 1147ZM298 -16H417Q356 -74 324 -124T292 -213Q292 -250 315 -269T384 -288Q417 -288 450 -281T515 -258L490 -391Q456 -401 421 -406T351 -411Q254 -411 200 -371T146 -260Q146
-205 183 -145T298 -16ZM356 1526H954L925 1378H327L356 1526Z" />
<glyph unicode="&#x1ee;" glyph-name="uni01EE" horiz-adv-x="1233" d="M439 1635H226L68 1901H204L343 1723L552 1901H703L439 1635ZM246 435Q218 292 303 217Q388 142 577 142T881 217Q996 292 1024 435Q1050 569 972 642Q893 716 728 716H554L587 882L1042
1323H305L338 1493H1307L1275 1325L813 884Q918 884 1036 828Q1126 785 1191 677Q1252 573 1225 435Q1182 214 1007 93T551 -28Q259 -28 131 93T45 435H246Z" />
<glyph unicode="&#x1ef;" glyph-name="uni01EF" horiz-adv-x="1233" d="M321 1262H174L10 1638H141L260 1395L485 1638H641L321 1262ZM649 476Q755 476 872 420Q962 378 1027 269Q1088 165 1061 27Q1018 -194 843 -315T387 -436Q293 -436 197 -418Q101 -399 2
-362L40 -167Q115 -216 210 -241T414 -266Q604 -266 717 -191Q832 -116 860 27Q885 159 808 234Q729 308 564 308H390L423 474L950 973H283L311 1120H1185L1153 952L649 476Z" />
<glyph unicode="&#x1f4;" glyph-name="uni01F4" horiz-adv-x="1233" d="M317 1899H525L218 1635H58L317 1899ZM903 96Q816 34 713 3T493 -29Q261 -29 137 105T12 489Q12 579 28 680T77 893Q112 1010 159 1104T262 1266Q369 1396 498 1458T794 1520Q874 1520 953
1499T1110 1438L1069 1231Q1004 1294 933 1325T780 1356Q682 1356 596 1315T442 1192Q398 1140 359 1062T290 887Q256 773 239 673T221 492Q221 321 300 228T524 135Q592 135 646 153T737 207L813 600H596L626 766H1036L903 96Z" />
<glyph unicode="&#x1f5;" glyph-name="uni01F5" horiz-adv-x="1233" d="M332 1638H551L156 1262H0L332 1638ZM466 145Q545 145 611 190T724 319Q773 409 800 521T828 739Q828 858 772 924T616 991Q462 991 357 823T251 399Q251 280 308 213T466 145ZM896 72Q843
-199 710 -319T329 -440Q247 -440 168 -426T13 -385L50 -203Q123 -247 201 -270T360 -293Q509 -293 591 -213T710 53L734 170Q676 83 589 38T392 -8Q238 -8 147 99T56 391Q56 530 96 667T208 911Q282 1023 386 1085T601 1147Q702 1147 778 1099T888 965L915 1116H1099L896
72Z" />
<glyph unicode="&#x1f6;" glyph-name="uni01F6" horiz-adv-x="1300" d="M854 135Q908 135 949 214Q1001 316 1053 586L1111 881H1293L1231 561Q1159 188 1027 48Q955 -29 822 -29Q694 -29 638 54Q534 207 603 561L632 711H333L195 0H12L303 1493H485L366 881H665L784
1493H967L790 586Q737 313 792 174Q808 135 854 135Z" />
<glyph unicode="&#x1f8;" glyph-name="uni01F8" horiz-adv-x="1233" d="M303 1493H559L823 264L1062 1493H1257L966 0H710L446 1229L206 0H12L303 1493ZM252 1899L399 1635H260L70 1899H252Z" />
<glyph unicode="&#x1f9;" glyph-name="uni01F9" horiz-adv-x="1233" d="M1003 694L868 0H684L819 695Q820 699 822 709Q837 780 837 819Q837 900 791 943T657 987Q530 987 441 894T319 633L196 0H12L231 1120H415L383 952Q458 1049 545 1098T731 1147Q870 1147
947 1075T1024 872Q1024 840 1019 793T1003 694ZM198 1638L395 1262H252L0 1638H198Z" />
<glyph unicode="&#x1fc;" glyph-name="AEacute" horiz-adv-x="1233" d="M558 1899H766L459 1635H299L558 1899ZM1454 1493L1421 1323H1083L997 881H1304L1271 711H964L858 170H1214L1181 0H639L714 383H362L186 0H2L702 1493H1454ZM794 1323L438 551H747L897 1323H794Z" />
<glyph unicode="&#x1fd;" glyph-name="aeacute" horiz-adv-x="1233" d="M332 1638H551L156 1262H0L332 1638ZM548 442L563 514H514Q389 514 337 499T249 444Q219 411 202 362T184 262Q184 202 223 163T321 123Q411 123 461 190T548 442ZM1085 657L1101 731Q1107
758 1109 786T1112 846Q1112 916 1078 955T985 995Q902 995 849 932T772 739L755 657H1085ZM1224 514H729Q710 423 702 368T694 285Q694 207 742 163T876 119Q946 119 1017 148T1142 227L1108 55Q1049 14 983 -7T845 -29Q739 -29 670 12T575 131Q528 51 458 11T294
-29Q166 -29 90 44T14 240Q14 440 134 548T479 657H596L614 745Q618 765 620 786T622 834Q622 910 580 952T460 995Q411 995 345 974T202 911L237 1079Q316 1113 385 1130T510 1147Q592 1147 651 1114T741 1018Q791 1080 861 1113T1011 1147Q1132 1147 1203 1070T1275
862Q1275 823 1267 760T1241 604L1224 514Z" />
<glyph unicode="&#x1fe;" glyph-name="Oslashacute" horiz-adv-x="1233" d="M303 1899H511L204 1635H44L303 1899ZM317 229Q337 185 384 160T497 135Q609 135 689 217T831 473Q881 618 908 765T935 1036Q935 1064 935 1081T933 1116L317 229ZM286 389L900 1274Q871
1313 826 1334T724 1356Q611 1356 531 1274T390 1018Q340 870 311 718T282 457Q282 447 284 419Q285 401 286 389ZM1089 1337Q1118 1277 1132 1205T1146 1042Q1146 846 1094 635T958 276Q870 122 750 47T472 -29Q391 -29 324 -6T202 63L108 -70L9 -6L128 164Q101
222 88 292T75 449Q75 647 127 857T263 1217Q351 1370 470 1445T749 1520Q826 1520 891 1499T1011 1434L1095 1559L1195 1495L1089 1337Z" />
<glyph unicode="&#x1ff;" glyph-name="oslashacute" horiz-adv-x="1233" d="M872 825L338 186Q368 156 407 142T498 127Q661 127 771 298T881 733Q881 759 879 782T872 825ZM137 133Q108 181 94 245T80 389Q80 531 120 666T235 911Q316 1030 427 1088T686 1147Q764
1147 824 1129T930 1075L1042 1212L1135 1135L1012 989Q1044 939 1059 875T1075 727Q1075 589 1034 453T919 207Q840 89 727 30T467 -29Q393 -29 332 -11T219 45L100 -96L8 -20L137 133ZM813 938Q782 966 746 978T657 991Q493 991 384 819T274 379Q274 359 275
340T280 302L813 938ZM332 1638H551L156 1262H0L332 1638Z" />
<glyph unicode="&#x200;" glyph-name="uni0200" horiz-adv-x="1233" d="M841 1325L477 551H907L841 1325ZM745 1493H991L1157 0H956L921 389H401L217 0H0L745 1493ZM195 1899L341 1635H187L9 1899H195ZM514 1899L660 1635H506L328 1899H514Z" />
<glyph unicode="&#x201;" glyph-name="uni0201" horiz-adv-x="1233" d="M630 563Q511 563 453 556T352 530Q284 503 243 442T202 307Q202 224 253 175T393 125Q541 125 648 231T794 522L802 563H630ZM1001 639L876 0H692L724 166Q652 72 554 22T346 -29Q193 -29
102 54T10 276Q10 472 164 589T583 707H829L841 768Q843 777 844 787T845 815Q845 900 782 945T602 991Q516 991 417 966T206 889L241 1069Q349 1108 446 1127T632 1147Q818 1147 921 1065T1025 838Q1025 806 1019 754T1001 639ZM187 1638L319 1262H184L9 1638H187ZM521
1638L638 1262H501L351 1638H521Z" />
<glyph unicode="&#x202;" glyph-name="uni0202" horiz-adv-x="1233" d="M841 1325L477 551H907L841 1325ZM745 1493H991L1157 0H956L921 389H401L217 0H0L745 1493ZM10 1659Q45 1779 136 1840T371 1901T582 1840Q639 1787 639 1694Q639 1677 637 1659H518Q514
1715 471 1742T345 1770Q263 1770 208 1742T129 1659H10Z" />
<glyph unicode="&#x203;" glyph-name="uni0203" horiz-adv-x="1233" d="M630 563Q511 563 453 556T352 530Q284 503 243 442T202 307Q202 224 253 175T393 125Q541 125 648 231T794 522L802 563H630ZM1001 639L876 0H692L724 166Q652 72 554 22T346 -29Q193 -29
102 54T10 276Q10 472 164 589T583 707H829L841 768Q843 777 844 787T845 815Q845 900 782 945T602 991Q516 991 417 966T206 889L241 1069Q349 1108 446 1127T632 1147Q818 1147 921 1065T1025 838Q1025 806 1019 754T1001 639ZM10 1321Q49 1464 142 1536T379
1608Q524 1608 589 1536Q640 1479 640 1377Q640 1350 637 1321H518Q519 1397 478 1434T352 1471Q265 1471 210 1434T129 1321H10Z" />
<glyph unicode="&#x204;" glyph-name="uni0204" horiz-adv-x="1233" d="M302 1493H1187L1154 1323H470L384 881H1037L1005 711H351L247 170H949L916 0H11L302 1493ZM195 1899L341 1635H187L9 1899H195ZM514 1899L660 1635H506L328 1899H514Z" />
<glyph unicode="&#x205;" glyph-name="uni0205" horiz-adv-x="1233" d="M854 659Q860 686 862 703T864 737Q864 857 799 924T618 991Q495 991 394 901T248 659H854ZM877 57Q772 14 672 -7T469 -29Q246 -29 130 82T14 408Q14 564 74 714T240 973Q323 1059 423 1104T633
1149Q819 1149 930 1035T1042 729Q1042 695 1037 645T1020 516H213Q207 484 204 458T201 412Q201 273 278 200T502 127Q590 127 694 155T913 240L877 57ZM201 1638L333 1262H198L23 1638H201ZM535 1638L652 1262H515L365 1638H535Z" />
<glyph unicode="&#x206;" glyph-name="uni0206" horiz-adv-x="1233" d="M302 1493H1187L1154 1323H470L384 881H1037L1005 711H351L247 170H949L916 0H11L302 1493ZM10 1659Q45 1779 136 1840T371 1901T582 1840Q639 1787 639 1694Q639 1677 637 1659H518Q514
1715 471 1742T345 1770Q263 1770 208 1742T129 1659H10Z" />
<glyph unicode="&#x207;" glyph-name="uni0207" horiz-adv-x="1233" d="M854 659Q860 686 862 703T864 737Q864 857 799 924T618 991Q495 991 394 901T248 659H854ZM877 57Q772 14 672 -7T469 -29Q246 -29 130 82T14 408Q14 564 74 714T240 973Q323 1059 423 1104T633
1149Q819 1149 930 1035T1042 729Q1042 695 1037 645T1020 516H213Q207 484 204 458T201 412Q201 273 278 200T502 127Q590 127 694 155T913 240L877 57ZM24 1321Q63 1464 156 1536T393 1608Q538 1608 603 1536Q654 1479 654 1377Q654 1350 651 1321H532Q533 1397
492 1434T366 1471Q279 1471 224 1434T143 1321H24Z" />
<glyph unicode="&#x208;" glyph-name="uni0208" horiz-adv-x="1233" d="M293 1493H1123L1090 1323H776L553 170H867L834 0H4L37 170H350L574 1323H260L293 1493ZM195 1899L341 1635H187L9 1899H195ZM514 1899L660 1635H506L328 1899H514Z" />
<glyph unicode="&#x209;" glyph-name="uni0209" horiz-adv-x="1233" d="M300 1120H771L581 143H946L917 0H3L32 143H397L558 977H272L300 1120ZM187 1638L319 1262H184L9 1638H187ZM521 1638L638 1262H501L351 1638H521Z" />
<glyph unicode="&#x20a;" glyph-name="uni020A" horiz-adv-x="1233" d="M293 1493H1123L1090 1323H776L553 170H867L834 0H4L37 170H350L574 1323H260L293 1493ZM10 1659Q45 1779 136 1840T371 1901T582 1840Q639 1787 639 1694Q639 1677 637 1659H518Q514 1715
471 1742T345 1770Q263 1770 208 1742T129 1659H10Z" />
<glyph unicode="&#x20b;" glyph-name="uni020B" horiz-adv-x="1233" d="M300 1120H771L581 143H946L917 0H3L32 143H397L558 977H272L300 1120ZM10 1321Q49 1464 142 1536T379 1608Q524 1608 589 1536Q640 1479 640 1377Q640 1350 637 1321H518Q519 1397 478 1434T352
1471Q265 1471 210 1434T129 1321H10Z" />
<glyph unicode="&#x20c;" glyph-name="uni020C" horiz-adv-x="1233" d="M434 135Q519 135 591 186T710 332Q784 477 830 683T876 1079Q876 1221 824 1288T661 1356Q576 1356 505 1305T387 1159Q311 1012 265 808T219 414Q219 271 271 203T434 135ZM1083 1020Q1083
910 1061 781T995 516Q966 424 933 351T860 219Q772 92 663 32T409 -29Q208 -29 111 94T14 473Q14 584 35 711T100 975Q129 1067 162 1140T235 1272Q323 1399 432 1459T686 1520Q888 1520 985 1398T1083 1020ZM195 1899L341 1635H187L9 1899H195ZM514 1899L660
1635H506L328 1899H514Z" />
<glyph unicode="&#x20d;" glyph-name="uni020D" horiz-adv-x="1233" d="M594 991Q430 991 321 820T211 385Q211 256 267 192T435 127Q599 127 708 298T818 733Q818 862 762 926T594 991ZM611 1147Q807 1147 909 1040T1012 727Q1012 589 971 453T856 207Q777 89
664 30T404 -29Q217 -29 116 80T15 393Q15 528 56 663T172 911Q251 1027 362 1087T611 1147ZM187 1638L319 1262H184L9 1638H187ZM521 1638L638 1262H501L351 1638H521Z" />
<glyph unicode="&#x20e;" glyph-name="uni020E" horiz-adv-x="1233" d="M434 135Q519 135 591 186T710 332Q784 477 830 683T876 1079Q876 1221 824 1288T661 1356Q576 1356 505 1305T387 1159Q311 1012 265 808T219 414Q219 271 271 203T434 135ZM1083 1020Q1083
910 1061 781T995 516Q966 424 933 351T860 219Q772 92 663 32T409 -29Q208 -29 111 94T14 473Q14 584 35 711T100 975Q129 1067 162 1140T235 1272Q323 1399 432 1459T686 1520Q888 1520 985 1398T1083 1020ZM10 1659Q45 1779 136 1840T371 1901T582 1840Q639
1787 639 1694Q639 1677 637 1659H518Q514 1715 471 1742T345 1770Q263 1770 208 1742T129 1659H10Z" />
<glyph unicode="&#x20f;" glyph-name="uni020F" horiz-adv-x="1233" d="M594 991Q430 991 321 820T211 385Q211 256 267 192T435 127Q599 127 708 298T818 733Q818 862 762 926T594 991ZM611 1147Q807 1147 909 1040T1012 727Q1012 589 971 453T856 207Q777 89
664 30T404 -29Q217 -29 116 80T15 393Q15 528 56 663T172 911Q251 1027 362 1087T611 1147ZM10 1321Q49 1464 142 1536T379 1608Q524 1608 589 1536Q640 1479 640 1377Q640 1350 637 1321H518Q519 1397 478 1434T352 1471Q265 1471 210 1434T129 1321H10Z" />
<glyph unicode="&#x210;" glyph-name="uni0210" horiz-adv-x="1233" d="M765 705Q837 691 880 638T978 408L1099 0H898L792 377Q748 533 694 582T529 631H337L214 0H11L300 1493H716Q923 1493 1036 1404T1150 1151Q1150 968 1047 848T765 705ZM472 1327L370 797H589Q752
797 849 882T947 1110Q947 1222 884 1274T685 1327H472ZM402 1899L548 1635H394L216 1899H402ZM721 1899L867 1635H713L535 1899H721Z" />
<glyph unicode="&#x211;" glyph-name="uni0211" horiz-adv-x="1233" d="M979 889Q934 933 875 955T739 977Q575 977 458 863T303 549L196 0H12L229 1120H413L373 901Q440 1021 546 1084T788 1147Q859 1147 916 1129T1014 1075L979 889ZM337 1638L469 1262H334L159
1638H337ZM671 1638L788 1262H651L501 1638H671Z" />
<glyph unicode="&#x212;" glyph-name="uni0212" horiz-adv-x="1233" d="M765 705Q837 691 880 638T978 408L1099 0H898L792 377Q748 533 694 582T529 631H337L214 0H11L300 1493H716Q923 1493 1036 1404T1150 1151Q1150 968 1047 848T765 705ZM472 1327L370 797H589Q752
797 849 882T947 1110Q947 1222 884 1274T685 1327H472ZM217 1659Q252 1779 343 1840T578 1901T789 1840Q846 1787 846 1694Q846 1677 844 1659H725Q721 1715 678 1742T552 1770Q470 1770 415 1742T336 1659H217Z" />
<glyph unicode="&#x213;" glyph-name="uni0213" horiz-adv-x="1233" d="M979 889Q934 933 875 955T739 977Q575 977 458 863T303 549L196 0H12L229 1120H413L373 901Q440 1021 546 1084T788 1147Q859 1147 916 1129T1014 1075L979 889ZM160 1321Q199 1464 292
1536T529 1608Q674 1608 739 1536Q790 1479 790 1377Q790 1350 787 1321H668Q669 1397 628 1434T502 1471Q415 1471 360 1434T279 1321H160Z" />
<glyph unicode="&#x214;" glyph-name="uni0214" horiz-adv-x="1233" d="M52 573L230 1493H433L254 573Q252 560 246 532Q216 378 216 319Q216 227 270 181T435 135Q524 135 586 163T693 254Q715 285 737 360T787 573L965 1493H1168L990 573Q948 354 901 252T775
86Q704 30 613 1T416 -29Q224 -29 121 61T17 317Q17 354 25 417T52 573ZM195 1899L341 1635H187L9 1899H195ZM514 1899L660 1635H506L328 1899H514Z" />
<glyph unicode="&#x215;" glyph-name="uni0215" horiz-adv-x="1233" d="M37 426L170 1120H355L220 426Q213 389 209 355T205 297Q205 218 251 176T383 133Q510 133 598 225T719 487L842 1120H1027L809 0H625L658 168Q585 70 496 22T302 -27Q171 -27 95 46T19 246Q19
285 23 331T37 426ZM187 1638L319 1262H184L9 1638H187ZM521 1638L638 1262H501L351 1638H521Z" />
<glyph unicode="&#x216;" glyph-name="uni0216" horiz-adv-x="1233" d="M52 573L230 1493H433L254 573Q252 560 246 532Q216 378 216 319Q216 227 270 181T435 135Q524 135 586 163T693 254Q715 285 737 360T787 573L965 1493H1168L990 573Q948 354 901 252T775
86Q704 30 613 1T416 -29Q224 -29 121 61T17 317Q17 354 25 417T52 573ZM10 1659Q45 1779 136 1840T371 1901T582 1840Q639 1787 639 1694Q639 1677 637 1659H518Q514 1715 471 1742T345 1770Q263 1770 208 1742T129 1659H10Z" />
<glyph unicode="&#x217;" glyph-name="uni0217" horiz-adv-x="1233" d="M37 426L170 1120H355L220 426Q213 389 209 355T205 297Q205 218 251 176T383 133Q510 133 598 225T719 487L842 1120H1027L809 0H625L658 168Q585 70 496 22T302 -27Q171 -27 95 46T19 246Q19
285 23 331T37 426ZM10 1321Q49 1464 142 1536T379 1608Q524 1608 589 1536Q640 1479 640 1377Q640 1350 637 1321H518Q519 1397 478 1434T352 1471Q265 1471 210 1434T129 1321H10Z" />
<glyph unicode="&#x218;" glyph-name="Scommaaccent" horiz-adv-x="1233" d="M166 -197H405L151 -542H5L166 -197ZM1129 1442L1090 1237Q1009 1296 922 1326T742 1356Q577 1356 473 1274T369 1065Q369 994 418 950T596 866L717 827Q880 777 955 694T1031 481Q1031
246 865 109T412 -29Q308 -29 208 -7T7 61L48 270Q146 201 246 168T459 135Q624 135 727 223T830 446Q830 528 786 573T609 659L508 692Q324 750 251 823T177 1018Q177 1239 342 1379T773 1520Q853 1520 943 1500T1129 1442Z" />
<glyph unicode="&#x219;" glyph-name="scommaaccent" horiz-adv-x="1233" d="M220 -197H459L205 -542H59L220 -197ZM969 1081L934 901Q863 946 785 969T629 993Q492 993 417 942T341 799Q341 701 562 645Q577 641 584 639L656 621Q773 590 831 529T889 375Q889
194 745 83T363 -29Q282 -29 194 -12T7 41L44 231Q138 178 226 152T398 125Q531 125 615 184T699 336Q699 435 503 487Q485 491 475 494L408 512Q279 545 219 609T158 776Q158 946 290 1046T646 1147Q734 1147 815 1131T969 1081Z" />
<glyph unicode="&#x21a;" glyph-name="uni021A" horiz-adv-x="1233" d="M166 -197H405L151 -542H5L166 -197ZM41 1493H1181L1148 1323H679L423 0H219L477 1323H8L41 1493Z" />
<glyph unicode="&#x21b;" glyph-name="uni021B" horiz-adv-x="1233" d="M320 -197H559L305 -542H159L320 -197ZM574 1438L513 1120H930L902 977H484L365 369Q359 339 356 314T353 266Q353 200 392 174T533 147H740L711 0H488Q321 0 243 55T164 229Q164 254 168
288T181 369L300 977H1L29 1120H328L390 1438H574Z" />
<glyph unicode="&#x21c;" glyph-name="uni021C" horiz-adv-x="1294" d="M1290 1200Q1290 1153 1281 1107T1256 1024T1217 949T1171 884T1119 827T1066 779T1015 740T970 710T933 688T910 674Q980 658 1030 627T1105 554T1141 472T1152 388Q1152 129 853 -92T1
-430L35 -270Q233 -219 390 -156T650 -30T821 102T918 232T947 356Q947 441 900 490T760 545T532 496L354 424L390 595L661 701Q770 744 854 803T986 925T1058 1050T1082 1173Q1082 1223 1061 1259T1005 1314T931 1341T851 1350Q666 1350 385 1166L425 1356Q699
1520 905 1520Q1076 1520 1183 1434T1290 1200Z" />
<glyph unicode="&#x21d;" glyph-name="uni021D" horiz-adv-x="1135" d="M800 461Q847 455 885 437T948 393T989 336T1012 274T1019 213Q1019 116 949 20T750 -160T429 -316T2 -433L30 -303Q446 -191 642 -65T839 216Q839 286 793 328T666 370Q607 370 538 345L304
259L334 398L575 483Q753 547 848 650T944 862Q944 903 926 933T875 979T808 1002T733 1009Q665 1009 575 980T318 860L351 1014Q645 1147 779 1147Q878 1147 957 1118T1083 1031T1131 894Q1131 859 1124 826T1105 764T1075 707T1039 656T996 609T953 569T907 534T866
505T829 480T800 461Z" />
<glyph unicode="&#x21e;" glyph-name="uni021E" horiz-adv-x="1233" d="M457 1635H244L86 1901H222L361 1723L570 1901H721L457 1635ZM303 1493H505L387 881H940L1058 1493H1261L970 0H768L907 711H352L215 0H12L303 1493Z" />
<glyph unicode="&#x21f;" glyph-name="uni021F" horiz-adv-x="1233" d="M382 1635H169L11 1901H147L286 1723L495 1901H646L382 1635ZM999 694L864 0H680L815 695Q816 699 818 709Q833 780 833 819Q833 900 787 943T653 987Q526 987 437 894T315 633L192 0H8L311
1556H495L379 952Q454 1049 541 1098T727 1147Q866 1147 943 1075T1020 872Q1020 840 1015 793T999 694Z" />
<glyph unicode="&#x221;" glyph-name="uni0221" horiz-adv-x="1215" d="M833 144Q841 126 908 127Q1031 127 1064 282Q1080 344 1016 344T833 144ZM795 406Q772 290 779 255Q940 499 1044 500Q1209 502 1166 284Q1106 -29 856 -29Q785 -29 739 -12Q694 -91 664
-148H545L650 46Q621 59 600 148L591 185Q546 95 479 42Q388 -30 288 -29Q126 -27 64 128Q2 286 56 563Q109 836 232 991T517 1147Q597 1147 650 1104T722 977L835 1556H1019L795 406ZM641 559Q682 772 648 881T508 991T327 882T210 559T201 236T340 127T523 237T641
559Z" />
<glyph unicode="&#x224;" glyph-name="uni0224" horiz-adv-x="1288" d="M313 1493H1282L1252 1339L244 170H1046L1038 128H1039L1010 -20Q973 -215 863 -320Q752 -426 587 -426H382L413 -270H598Q688 -270 745 -208Q801 -146 825 -20L829 0H0L30 154L1016 1323H279L313
1493Z" />
<glyph unicode="&#x225;" glyph-name="uni0225" horiz-adv-x="1060" d="M242 1122H1055L1023 954L224 150H867L837 0H829L825 -20Q788 -215 678 -320Q568 -426 403 -426H198L228 -270H413Q503 -270 560 -208Q616 -146 640 -20L644 0H0L33 170L833 975H214L242 1122Z" />
<glyph unicode="&#x226;" glyph-name="uni0226" horiz-adv-x="1233" d="M841 1325L477 551H907L841 1325ZM745 1493H991L1157 0H956L921 389H401L217 0H0L745 1493ZM57 1872H262L222 1667H17L57 1872Z" />
<glyph unicode="&#x227;" glyph-name="uni0227" horiz-adv-x="1233" d="M630 563Q511 563 453 556T352 530Q284 503 243 442T202 307Q202 224 253 175T393 125Q541 125 648 231T794 522L802 563H630ZM1001 639L876 0H692L724 166Q652 72 554 22T346 -29Q193 -29
102 54T10 276Q10 472 164 589T583 707H829L841 768Q843 777 844 787T845 815Q845 900 782 945T602 991Q516 991 417 966T206 889L241 1069Q349 1108 446 1127T632 1147Q818 1147 921 1065T1025 838Q1025 806 1019 754T1001 639ZM58 1552H263L222 1348H17L58 1552Z"
/>
<glyph unicode="&#x228;" glyph-name="uni0228" horiz-adv-x="1233" d="M302 1493H1187L1154 1323H470L384 881H1037L1005 711H351L247 170H949L916 0H11L302 1493ZM423 0Q460 -64 477 -110T495 -193Q495 -286 425 -340T235 -395Q191 -395 144 -388T50 -365L75
-236Q115 -255 151 -264T220 -274Q287 -274 324 -244T362 -160Q362 -132 348 -93T304 0H423Z" />
<glyph unicode="&#x229;" glyph-name="uni0229" horiz-adv-x="1233" d="M854 659Q860 686 862 703T864 737Q864 857 799 924T618 991Q495 991 394 901T248 659H854ZM877 57Q772 14 672 -7T469 -29Q246 -29 130 82T14 408Q14 564 74 714T240 973Q323 1059 423 1104T633
1149Q819 1149 930 1035T1042 729Q1042 695 1037 645T1020 516H213Q207 484 204 458T201 412Q201 273 278 200T502 127Q590 127 694 155T913 240L877 57ZM423 0Q460 -64 477 -110T495 -193Q495 -286 425 -340T235 -395Q191 -395 144 -388T50 -365L75 -236Q115 -255
151 -264T220 -274Q287 -274 324 -244T362 -160Q362 -132 348 -93T304 0H423Z" />
<glyph unicode="&#x22a;" glyph-name="uni022A" d="M465 1952H1063L1034 1804H436L465 1952ZM820 1746H1023L984 1543H781L820 1746ZM429 1746H633L592 1543H390L429 1746ZM426 135Q511 135 583 186T702 332Q776 477 822 683T868 1079Q868 1221 816 1288T653 1356Q568
1356 497 1305T379 1159Q303 1012 257 808T211 414Q211 271 263 203T426 135ZM1075 1020Q1075 910 1053 781T987 516Q958 424 925 351T852 219Q764 92 655 32T401 -29Q200 -29 103 94T6 473Q6 584 27 711T92 975Q121 1067 154 1140T227 1272Q315 1399 424 1459T678
1520Q880 1520 977 1398T1075 1020Z" />
<glyph unicode="&#x22b;" glyph-name="uni022B" horiz-adv-x="1007" d="M581 991Q417 991 308 820T198 385Q198 256 254 192T422 127Q586 127 695 298T805 733Q805 862 749 926T581 991ZM598 1147Q794 1147 896 1040T999 727Q999 589 958 453T843 207Q764 89 651
30T391 -29Q204 -29 103 80T2 393Q2 528 43 663T159 911Q238 1027 349 1087T598 1147ZM360 1552H563L524 1350H321L360 1552ZM751 1552H954L915 1350H712L751 1552ZM391 1842H989L960 1694H362L391 1842Z" />
<glyph unicode="&#x22c;" glyph-name="uni022C" d="M465 1952H1063L1034 1804H436L465 1952ZM691 1582L657 1607L655 1608Q613 1640 575 1640Q541 1640 514 1615T468 1539H343Q378 1648 440 1703T587 1758Q621 1758 652 1747T718 1711L753 1685Q771 1671 789 1665T826
1658Q866 1658 894 1685T933 1758H1058Q1026 1649 963 1594T808 1539Q777 1539 750 1549T691 1582ZM426 135Q511 135 583 186T702 332Q776 477 822 683T868 1079Q868 1221 816 1288T653 1356Q568 1356 497 1305T379 1159Q303 1012 257 808T211 414Q211 271 263
203T426 135ZM1075 1020Q1075 910 1053 781T987 516Q958 424 925 351T852 219Q764 92 655 32T401 -29Q200 -29 103 94T6 473Q6 584 27 711T92 975Q121 1067 154 1140T227 1272Q315 1399 424 1459T678 1520Q880 1520 977 1398T1075 1020Z" />
<glyph unicode="&#x22d;" glyph-name="uni022D" horiz-adv-x="1012" d="M582 991Q418 991 309 820T199 385Q199 256 255 192T423 127Q587 127 696 298T806 733Q806 862 750 926T582 991ZM599 1147Q795 1147 897 1040T1000 727Q1000 589 959 453T844 207Q765 89
652 30T392 -29Q205 -29 104 80T3 393Q3 528 44 663T160 911Q239 1027 350 1087T599 1147ZM627 1376L580 1425Q561 1444 544 1453T509 1462Q467 1462 444 1425T412 1309H287Q304 1445 361 1518T507 1591Q550 1591 584 1576T656 1522L703 1475Q724 1453 740 1445T773
1436Q814 1436 838 1475T871 1591H996Q979 1454 923 1381T777 1307Q733 1307 700 1321T627 1376ZM395 1842H993L964 1694H366L395 1842Z" />
<glyph unicode="&#x22e;" glyph-name="uni022E" horiz-adv-x="1233" d="M434 135Q519 135 591 186T710 332Q784 477 830 683T876 1079Q876 1221 824 1288T661 1356Q576 1356 505 1305T387 1159Q311 1012 265 808T219 414Q219 271 271 203T434 135ZM1083 1020Q1083
910 1061 781T995 516Q966 424 933 351T860 219Q772 92 663 32T409 -29Q208 -29 111 94T14 473Q14 584 35 711T100 975Q129 1067 162 1140T235 1272Q323 1399 432 1459T686 1520Q888 1520 985 1398T1083 1020ZM57 1872H262L222 1667H17L57 1872Z" />
<glyph unicode="&#x22f;" glyph-name="uni022F" horiz-adv-x="1233" d="M594 991Q430 991 321 820T211 385Q211 256 267 192T435 127Q599 127 708 298T818 733Q818 862 762 926T594 991ZM611 1147Q807 1147 909 1040T1012 727Q1012 589 971 453T856 207Q777 89
664 30T404 -29Q217 -29 116 80T15 393Q15 528 56 663T172 911Q251 1027 362 1087T611 1147ZM58 1552H263L222 1348H17L58 1552Z" />
<glyph unicode="&#x230;" glyph-name="uni0230" horiz-adv-x="1086" d="M464 1952H1062L1033 1804H435L464 1952ZM425 135Q510 135 582 186T701 332Q775 477 821 683T867 1079Q867 1221 815 1288T652 1356Q567 1356 496 1305T378 1159Q302 1012 256 808T210 414Q210
271 262 203T425 135ZM1074 1020Q1074 910 1052 781T986 516Q957 424 924 351T851 219Q763 92 654 32T400 -29Q199 -29 102 94T5 473Q5 584 26 711T91 975Q120 1067 153 1140T226 1272Q314 1399 423 1459T677 1520Q879 1520 976 1398T1074 1020ZM656 1748H861L821
1543H616L656 1748Z" />
<glyph unicode="&#x231;" glyph-name="uni0231" horiz-adv-x="1004" d="M580 991Q416 991 307 820T197 385Q197 256 253 192T421 127Q585 127 694 298T804 733Q804 862 748 926T580 991ZM597 1147Q793 1147 895 1040T998 727Q998 589 957 453T842 207Q763 89 650
30T390 -29Q203 -29 102 80T1 393Q1 528 42 663T158 911Q237 1027 348 1087T597 1147ZM556 1552H761L720 1348H515L556 1552ZM390 1842H988L959 1694H361L390 1842Z" />
<glyph unicode="&#x232;" glyph-name="uni0232" horiz-adv-x="1233" d="M12 1493H214L450 842L947 1493H1165L530 670L401 0H194L325 670L12 1493ZM55 1840H653L624 1692H26L55 1840Z" />
<glyph unicode="&#x233;" glyph-name="uni0233" horiz-adv-x="1233" d="M834 360Q772 253 669 72Q514 -203 460 -276Q402 -352 328 -389T157 -426H9L38 -272H146Q227 -272 285 -226T404 -66L447 18L230 1120H413L585 258L1068 1120H1273L834 360ZM55 1526H653L624
1378H26L55 1526Z" />
<glyph unicode="&#x234;" glyph-name="uni0234" horiz-adv-x="703" d="M327 144Q335 126 402 127Q525 127 558 282Q574 344 510 344T327 144ZM233 -12Q188 -91 158 -148H39L144 46Q126 51 94 148Q69 222 105 406L303 1423H8L36 1567H515L289 406Q266 290 273 255Q434
499 538 500Q703 502 660 284Q599 -29 349 -29Q279 -29 233 -12Z" />
<glyph unicode="&#x235;" glyph-name="uni0235" horiz-adv-x="1124" d="M751 144Q759 126 826 127Q948 127 982 282Q998 344 934 344T751 144ZM697 406Q675 292 688 246Q859 498 962 500Q1122 502 1086 296Q1085 290 1084 284Q1024 -28 773 -29Q703 -29 657 -12Q612
-91 581 -148H462L568 46Q550 51 518 148Q493 222 529 406L575 641Q621 878 606 935T500 993Q427 993 387 932T302 641L177 0H10L228 1120H395L376 1024Q421 1084 476 1115T595 1147Q728 1147 765 1042Q801 941 744 649L697 406Z" />
<glyph unicode="&#x236;" glyph-name="uni0236" horiz-adv-x="929" d="M411 144Q419 126 485 127Q608 127 641 282Q657 344 593 344T411 144ZM373 406Q350 290 356 255Q517 499 622 500Q786 502 744 284Q683 -29 433 -29Q362 -29 317 -12Q272 -91 241 -148H122L228
46Q210 51 177 148Q153 222 189 406L300 977H1L28 1120H327L389 1438H573L511 1120H929L902 977H484L373 406Z" />
<glyph unicode="&#x237;" glyph-name="dotlessj" horiz-adv-x="904" d="M494 -20L686 977H369L397 1120H899L678 -20Q637 -233 536 -329T254 -426H0L31 -270H264Q359 -270 414 -211T494 -20Z" />
<glyph unicode="&#x238;" glyph-name="uni0238" horiz-adv-x="1112" d="M498 559Q539 772 519 881T419 991T277 882T173 559T151 236T250 127T393 237T498 559ZM855 991Q775 991 712 882T608 559Q567 347 587 237T687 127Q767 127 829 236T932 559T955 882T855
991ZM689 977Q732 1059 787 1103T903 1147Q1024 1147 1063 992T1050 563Q996 286 896 129T673 -29Q613 -29 576 14T527 141L499 0H389L416 141Q373 58 319 15T204 -29Q82 -29 43 128T57 563Q110 836 210 991T432 1147Q493 1147 531 1104T579 977L691 1556H802L689
977Z" />
<glyph unicode="&#x239;" glyph-name="uni0239" horiz-adv-x="1112" d="M614 559Q573 346 593 237T693 127T835 236T939 559T961 882T862 991T719 881T614 559ZM257 127Q337 127 400 236T504 559Q545 771 525 881T425 991Q345 991 283 882T180 559T157 236T257
127ZM423 141Q380 59 325 15T209 -29Q88 -29 49 126T62 555Q116 832 216 989T439 1147Q499 1147 536 1104T585 977L613 1118H723L696 977Q739 1060 793 1103T908 1147Q1030 1147 1069 990T1055 555Q1002 282 902 127T680 -29Q619 -29 581 14T533 141L421 -438H310L423
141Z" />
<glyph unicode="&#x23a;" glyph-name="uni023A" horiz-adv-x="1486" d="M776 1493H1021L1056 1180L1395 1559L1481 1485L1073 1029L1188 0H979L945 389H500L334 203L238 0H152L90 -70L0 0L66 74L776 1493ZM645 551H928L904 840L645 551ZM891 995L864 1315L513
572L891 995Z" />
<glyph unicode="&#x23b;" glyph-name="uni023B" horiz-adv-x="1486" d="M462 514L1182 1318L1166 1324Q1087 1356 1001 1356Q804 1356 677 1204T489 745Q465 619 462 514ZM1078 53Q993 12 908 -8T732 -29Q445 -29 326 174L320 185L92 -70L2 0L273 303Q227 482
278 745Q349 1111 548 1315T1033 1520Q1124 1520 1201 1500Q1256 1485 1308 1459L1397 1559L1483 1485L1321 1304L1307 1231Q1293 1244 1278 1256L475 358Q484 319 498 287Q567 135 764 135Q852 135 942 167T1118 260L1078 53Z" />
<glyph unicode="&#x23c;" glyph-name="uni023C" horiz-adv-x="1354" d="M441 406L1027 973Q970 991 898 991Q725 991 611 879T455 559Q439 476 441 406ZM1030 57Q947 14 865 -7T700 -29Q440 -29 324 127L318 136L78 -96L1 -20L267 238Q225 370 261 559Q315 835
491 991T928 1147Q1009 1147 1082 1126Q1120 1115 1157 1098L1274 1212L1352 1135L1213 1001L1187 868Q1159 898 1130 920L466 279Q475 258 487 240Q558 127 730 127Q826 127 908 156T1067 248L1030 57Z" />
<glyph unicode="&#x23d;" glyph-name="uni023D" horiz-adv-x="1113" d="M446 1493H649L504 747H767L734 577H471L392 170H1113L1080 0H156L268 577H1L34 747H301L446 1493Z" />
<glyph unicode="&#x23e;" glyph-name="uni023E" horiz-adv-x="1484" d="M877 976L1187 1323H944L877 976ZM618 687L741 1323H274L307 1493H1339L1398 1559L1484 1485L1434 1429L1413 1323H1339L835 760L687 0H484L576 470L93 -70L3 0L618 687Z" />
<glyph unicode="&#x23f;" glyph-name="uni023F" horiz-adv-x="970" d="M963 1081L928 901Q858 947 783 970T624 993Q499 993 430 953T344 829Q329 754 368 717T583 645L654 631Q786 605 841 527T873 324Q840 158 704 64Q584 -18 406 -28L529 -180L651 -306Q686
-342 762 -342L732 -496H693Q609 -496 507 -435Q443 -397 372 -306L182 -63Q141 -10 47 25L1 41L38 231Q161 236 265 140Q330 125 392 125Q514 125 590 174T685 313Q709 441 474 490L466 492L400 506Q246 539 188 610Q130 684 154 811Q186 972 312 1059T640 1147Q730
1147 809 1131T963 1081Z" />
<glyph unicode="&#x240;" glyph-name="uni0240" horiz-adv-x="1061" d="M243 1122H1056L1024 954L202 133Q248 116 273 84L486 -180L609 -306Q644 -342 720 -342H772L742 -496H651Q567 -496 465 -435Q401 -397 330 -306L140 -63Q91 0 1 0L31 156L34 170L834 975H215L243
1122Z" />
<glyph unicode="&#x241;" glyph-name="uni0241" horiz-adv-x="1167" d="M376 1327Q322 1327 253 1280Q197 1242 175 1128L165 1079H9L23 1149Q58 1330 170 1411T408 1493H703Q953 1493 1060 1380T1125 1047Q1082 826 932 713T530 600L413 0H211L360 766H562Q702
766 795 840T914 1047T876 1253T671 1327H376Z" />
<glyph unicode="&#x243;" glyph-name="uni0243" horiz-adv-x="1254" d="M555 1327L467 877H711Q862 877 948 949T1035 1149Q1035 1243 980 1285T799 1327H555ZM385 1493H828Q1031 1493 1135 1414T1239 1180T1147 923T899 799Q1024 776 1090 697T1157 494Q1157
260 998 130T547 0H95L166 366H6L35 515H195L385 1493ZM369 366L330 166H578Q762 166 859 253T957 504Q957 611 889 662T678 713H437L398 515H631L602 366H369Z" />
<glyph unicode="&#x244;" glyph-name="uni0244" horiz-adv-x="1261" d="M99 317Q105 440 135 577H10L43 747H168L312 1493H515L370 747H903L1047 1493H1250L1106 747H1234L1201 577H1073Q1030 355 983 252T861 90Q712 -29 509 -29T203 61T99 317ZM298 319Q298
135 517 135Q689 135 775 254Q819 318 870 577H337Q303 413 298 319Z" />
<glyph unicode="&#x245;" glyph-name="uni0245" horiz-adv-x="1143" d="M813 1303L215 0H0L719 1493H977L1124 0H926L813 1303Z" />
<glyph unicode="&#x24c;" glyph-name="uni024C" horiz-adv-x="1176" d="M553 1327L451 797H596Q759 797 856 882T954 1110Q954 1222 891 1274T692 1327H553ZM772 705Q844 691 887 638T985 408L1106 0H905L799 377Q755 533 701 582T536 631H418L295 0H92L214 631H5L37
797H246L381 1493H723Q930 1493 1043 1404T1157 1151Q1157 968 1054 848T772 705Z" />
<glyph unicode="&#x24d;" glyph-name="uni024D" horiz-adv-x="1107" d="M1072 889Q982 977 825 977T562 873T412 616H958L926 452H377L289 0H105L193 452H6L38 616H224L322 1120H506L466 901Q533 1021 639 1084T885 1147Q1025 1147 1107 1075L1072 889Z" />
<glyph unicode="&#x250;" glyph-name="uni0250" horiz-adv-x="1073" d="M419 555H480Q641 555 733 611T847 780Q867 881 817 937T659 993Q507 993 400 888T255 596L247 555H419ZM47 479L171 1118H356L324 952Q402 1052 501 1099T728 1147Q899 1147 982 1051T1034
792Q997 605 853 508T466 411H219L213 382Q188 248 243 188T446 127Q540 127 641 154T843 233L807 49Q698 10 601 -9T415 -29Q276 -29 186 12T50 135Q22 185 20 258T47 479Z" />
<glyph unicode="&#x251;" glyph-name="uni0251" horiz-adv-x="1105" d="M881 977L908 1116H1092L875 0H691L719 141Q657 58 572 15T387 -29Q184 -29 98 128T66 563Q119 836 266 991T615 1147Q716 1147 784 1104T881 977ZM800 559Q841 772 793 881T612 991T390
882T259 559T264 236T444 127T668 237T800 559Z" />
<glyph unicode="&#x252;" glyph-name="uni0252" horiz-adv-x="1105" d="M224 141L197 2H13L230 1118H414L386 977Q448 1060 533 1103T718 1147Q921 1147 1007 990T1039 555Q986 282 839 127T490 -29Q389 -29 321 14T224 141ZM305 559Q264 346 312 237T493 127T715
236T846 559T841 882T661 991T437 881T305 559Z" />
<glyph unicode="&#x253;" glyph-name="uni0253" horiz-adv-x="1095" d="M656 991Q522 991 432 882T300 559Q259 347 306 237T488 127Q621 127 710 236T841 559T836 882T656 991ZM383 977Q443 1059 527 1103Q614 1147 716 1147Q918 1147 1003 992T1036 563Q982
286 835 129T485 -29Q385 -29 317 14T219 141L192 0H8L202 1002L231 1150Q269 1345 378 1450Q490 1556 654 1556H859L829 1400H644Q554 1400 497 1338Q441 1278 416 1150L383 977Z" />
<glyph unicode="&#x254;" glyph-name="uni0254" horiz-adv-x="1037" d="M206 1061Q288 1104 371 1125T536 1147Q796 1147 912 991T975 559T744 127T307 -29Q226 -29 153 -8T11 57L48 250Q109 185 177 156T338 127Q511 127 625 239T781 559Q821 766 749 878T505
991Q409 991 328 962T169 870L206 1061Z" />
<glyph unicode="&#x255;" glyph-name="uni0255" horiz-adv-x="1050" d="M417 142Q473 123 548 123Q694 123 705 180Q718 255 587 255Q486 255 417 142ZM349 -20Q332 -77 319 -145L165 -148Q185 -44 214 40Q164 75 126 126Q9 287 61 555Q114 829 295 986Q476 1143
738 1143Q823 1143 901 1126Q978 1108 1047 1073L1014 901Q944 944 870 966Q796 987 716 987Q537 987 416 874Q295 760 255 555T292 236Q296 229 302 222Q420 398 616 398Q915 398 868 152Q833 -37 499 -37Q417 -37 349 -20Z" />
<glyph unicode="&#x256;" glyph-name="uni0256" horiz-adv-x="1064" d="M679 559Q721 772 687 881T546 991T364 882T247 559T238 236T377 127T561 237T679 559ZM761 977L873 1556H1055L748 -20Q724 -146 747 -208Q771 -270 843 -270H849L819 -426H763Q630 -426
579 -320Q528 -215 566 -20L597 141Q544 58 475 14Q406 -29 326 -29Q145 -29 73 128T53 563Q107 836 241 991T554 1147Q635 1147 688 1104T761 977Z" />
<glyph unicode="&#x257;" glyph-name="uni0257" horiz-adv-x="1205" d="M679 559Q720 772 686 881T545 991T363 882T246 559T237 236T376 127T560 237T679 559ZM764 1002L793 1150Q831 1345 922 1450Q1015 1556 1147 1556H1203L1173 1400H1168Q1096 1400 1048
1338Q1001 1276 976 1150L753 0H570L597 141Q544 58 475 15T325 -29Q145 -29 73 128T54 563Q107 836 241 991T554 1147Q634 1147 687 1104T760 977L764 1002Z" />
<glyph unicode="&#x258;" glyph-name="uni0258" horiz-adv-x="1117" d="M75 606Q124 857 275 1002T641 1147Q881 1147 994 987T1055 559Q1002 284 825 128T386 -29Q295 -29 202 -8T11 57L47 240Q145 183 235 155T414 127Q588 127 703 227T853 510L855 516H58L75
606ZM270 660Q270 660 875 659Q890 815 821 903T619 991Q483 991 394 907T270 660Z" />
<glyph unicode="&#x259;" glyph-name="uni0259" horiz-adv-x="1121" d="M60 512L77 602H874L876 608Q911 791 835 891T585 991Q497 991 396 963T174 878L210 1061Q323 1104 424 1125T617 1147Q878 1147 994 991T1058 559Q1006 291 831 131T416 -29Q202 -29 107
116T60 512ZM233 458Q206 296 262 212T454 127Q587 127 690 215T840 459L233 458Z" />
<glyph unicode="&#x25a;" glyph-name="uni025A" horiz-adv-x="1249" d="M541 214Q646 352 684 559Q697 621 700 677L162 321Q171 252 190 217Q234 127 337 127Q465 127 541 214ZM860 783Q865 687 842 569Q788 294 644 132Q500 -29 309 -29Q136 -29 65 116Q14 219
24 375L693 818Q685 857 672 892Q633 992 474 991Q392 990 313 965Q232 939 148 887L182 1061Q265 1103 348 1125T512 1147Q716 1147 805 991Q825 956 838 915L1015 1032H1155L1126 884Q1096 731 1116 682Q1135 634 1215 634H1248L1217 478H1168Q1036 478 988 574Q943
664 982 864L860 783Z" />
<glyph unicode="&#x25b;" glyph-name="uni025B" horiz-adv-x="1057" d="M375 607Q261 632 208 697Q157 761 175 855Q201 989 338 1068T685 1147Q766 1147 854 1135Q944 1123 1044 1099L1012 932Q913 959 829 972Q745 984 669 984Q531 984 449 941T352 824Q340
763 404 720Q467 676 602 676H768L740 532H581Q431 532 337 477T226 341Q207 243 287 190Q367 138 540 138Q639 138 734 156Q828 173 912 207L878 34Q776 6 683 -8Q589 -22 503 -22Q249 -22 128 69Q8 161 40 327Q61 436 149 510T375 607Z" />
<glyph unicode="&#x25c;" glyph-name="uni025C" horiz-adv-x="1069" d="M735 607Q862 584 922 510Q982 436 961 327Q929 161 772 69Q616 -22 361 -22Q276 -22 188 -8T9 34L43 207Q112 173 200 156Q287 138 387 138Q560 138 661 190Q762 243 781 341Q797 422 722
477Q649 532 499 532H341L369 676H534Q670 676 751 720Q831 763 843 824Q857 898 792 941Q725 984 587 984Q512 984 423 972Q334 959 225 932L257 1099Q367 1123 460 1135Q555 1147 635 1147Q845 1147 951 1068T1032 855Q1014 761 936 697Q859 632 735 607Z" />
<glyph unicode="&#x25d;" glyph-name="uni025D" horiz-adv-x="1249" d="M584 607Q678 584 719 510Q761 436 740 327Q708 161 586 69Q465 -22 273 -22Q210 -22 144 -8T12 34L46 207Q96 173 161 156Q226 138 301 138Q430 138 508 190Q587 243 606 341Q621 422 568
477Q516 532 403 532H285L313 676H437Q539 676 601 720Q664 763 675 824Q690 898 643 941Q595 984 491 984Q435 984 367 972Q300 959 217 932L250 1099Q333 1123 404 1135Q475 1147 535 1147Q692 1147 769 1068Q831 1003 825 901L1020 1032H1158L1129 884Q1099
731 1118 682Q1137 634 1216 634H1248L1218 478H1170Q1039 478 992 574Q948 664 987 864L746 702L745 703L739 697Q678 632 584 607Z" />
<glyph unicode="&#x25e;" glyph-name="uni025E" horiz-adv-x="1047" d="M653 984Q314 984 232 566Q145 120 484 119Q602 119 667 173Q744 237 758 311Q773 389 724 443Q698 473 559 473H423L453 630H590Q729 630 767 660Q837 715 851 792T815 930Q768 984 653
984ZM455 1099Q548 1144 697 1145Q870 1145 954 1059Q1037 972 1008 824Q988 721 921 650T751 552Q844 524 883 453T903 279Q874 131 757 45Q639 -42 467 -42Q319 -44 245 18Q8 212 74 556Q152 953 455 1099Z" />
<glyph unicode="&#x25f;" glyph-name="uni025F" horiz-adv-x="1156" d="M1156 616L1124 452H770L678 -20Q641 -215 531 -320T255 -426H1L32 -270H266Q356 -270 413 -208T494 -20L586 452H203L235 616H618L688 977H371L399 1120H900L802 616H1156Z" />
<glyph unicode="&#x260;" glyph-name="uni0260" horiz-adv-x="1198" d="M785 1116L792 1150Q830 1345 922 1450Q1015 1556 1149 1556H1198L1168 1400H1141Q1084 1400 1043 1338Q1003 1276 978 1150L770 72Q721 -179 590 -310Q459 -440 255 -440Q193 -440 129 -426T3
-385L38 -203Q108 -249 168 -271T283 -293Q404 -293 474 -212T579 45L581 53L605 178Q551 84 481 38T323 -8Q149 -8 76 149T53 569Q99 802 233 959T541 1116H785ZM681 569L764 992L550 991Q441 991 363 884T244 569T240 254T387 145Q490 145 565 254T681 569Z"
/>
<glyph unicode="&#x261;" glyph-name="uni0261" horiz-adv-x="1106" d="M809 569Q809 569 891 992L627 991Q492 991 400 884T268 569T278 254T464 145Q591 145 680 254T809 569ZM896 72Q847 -180 703 -310T328 -440Q252 -440 172 -426T13 -385L49 -203Q138 -249
213 -271T356 -293Q505 -293 589 -212T707 45L709 53L733 178Q671 84 586 38T392 -8Q196 -8 110 149T74 569Q118 796 267 959Q410 1116 610 1116Q610 1116 1099 1116L896 72Z" />
<glyph unicode="&#x262;" glyph-name="uni0262" horiz-adv-x="1130" d="M807 178L862 460H707L734 600H1055L952 72Q874 38 783 18Q701 0 499 0Q246 0 128 159T63 588Q116 862 297 1019Q478 1176 740 1176Q802 1176 902 1158Q1003 1141 1115 1066L1082 894Q977
971 871 998Q788 1020 717 1020Q538 1020 417 906Q296 793 257 588T294 270Q371 156 550 156Q723 156 807 178Z" />
<glyph unicode="&#x263;" glyph-name="uni0263" horiz-adv-x="1230" d="M729 572Q925 126 863 -194Q818 -426 433 -430Q9 -435 55 -194Q119 148 492 579L200 1120H417L642 720L1011 1120H1228L729 572ZM584 452Q304 144 254 -130Q230 -268 443 -268Q647 -268 674
-130Q724 120 584 452Z" />
<glyph unicode="&#x264;" glyph-name="uni0264" horiz-adv-x="1052" d="M319 586L24 1120H241L461 721L835 1120H1052L541 575Q674 334 641 167Q610 0 323 0Q21 0 53 167Q88 344 319 586ZM398 440Q250 282 238 223Q218 119 341 119Q454 119 475 223Q487 286 398 440Z" />
<glyph unicode="&#x265;" glyph-name="uni0265" horiz-adv-x="1048" d="M48 424L183 1118H367L232 424Q203 273 242 202T394 131Q524 131 611 222T731 485L854 1118H1039L738 -430H553L669 168Q601 71 507 21T300 -29Q128 -29 66 83T48 424Z" />
<glyph unicode="&#x266;" glyph-name="uni0266" horiz-adv-x="1052" d="M379 962L376 952Q444 1048 537 1097T746 1147Q917 1147 979 1035T998 694L863 0H678L813 694Q843 845 804 916T651 987Q522 987 435 896T314 633L191 0H7L202 1002L231 1150Q269 1345 378
1450Q489 1556 654 1556H859L828 1400H643Q553 1400 496 1338Q440 1276 416 1150L379 962Z" />
<glyph unicode="&#x267;" glyph-name="uni0267" horiz-adv-x="1045" d="M376 962L373 952Q440 1048 534 1097T743 1147Q914 1147 976 1035T995 694L885 128L860 0L856 -20Q818 -215 708 -320Q598 -426 433 -426H228L258 -270H443Q533 -270 590 -208Q646 -146 671
-20L675 0L700 128L810 694Q839 845 800 916T648 987Q519 987 432 896T311 633L188 0H4L198 1002L227 1150Q265 1345 375 1450Q485 1556 650 1556H855L825 1400H640Q550 1400 493 1338Q437 1276 412 1150L376 962Z" />
<glyph unicode="&#x268;" glyph-name="uni0268" horiz-adv-x="1026" d="M668 1556H852L806 1323H622L668 1556ZM296 1120H767L669 616H1023L991 452H637L577 143H942L914 0H0L28 143H393L453 452H70L102 616H485L555 977H268L296 1120Z" />
<glyph unicode="&#x269;" glyph-name="uni0269" horiz-adv-x="684" d="M649 0H444Q279 0 209 106Q140 208 179 406Q179 406 290 977H3L30 1120H501L363 406Q337 280 370 218T493 156H678L649 0Z" />
<glyph unicode="&#x26a;" glyph-name="uni026A" horiz-adv-x="1147" d="M225 1120H1139L1112 977H747L584 143H949L922 0H8L35 143H400L563 977H198L225 1120Z" />
<glyph unicode="&#x26b;" glyph-name="uni026B" horiz-adv-x="1114" d="M554 406Q526 259 563 219Q623 156 686 156H901L870 0H637Q472 0 402 106T370 406L409 604Q364 614 317 614Q238 614 162 585T0 492L34 666Q124 726 202 753T363 780Q404 780 442 774L568
1423H273L301 1567H780L613 710Q717 657 808 657Q878 657 952 687T1113 780L1079 606Q993 547 916 520T760 492Q676 492 580 537L554 406Z" />
<glyph unicode="&#x26c;" glyph-name="uni026C" horiz-adv-x="839" d="M483 406Q459 282 492 219T615 156H830L799 0H566Q401 0 331 106T299 406L336 596Q339 611 341 626H280Q0 626 38 815Q86 1061 331 1061Q385 1061 422 1036L497 1423H202L230 1567H709L557
786H807L776 626H526L483 406ZM357 786Q359 918 305 918Q228 918 212 843Q201 786 293 786H357Z" />
<glyph unicode="&#x26d;" glyph-name="uni026D" horiz-adv-x="578" d="M228 -20Q204 -144 237 -207T359 -270H574L544 -426H311Q152 -426 76 -320Q5 -220 44 -20L324 1423H29L57 1567H536L228 -20Z" />
<glyph unicode="&#x26e;" glyph-name="uni026E" horiz-adv-x="1038" d="M201 406Q177 282 201 219T296 156H468L438 0H251Q119 0 68 106T53 406L251 1423H15L43 1567H426L339 1120H1038L1005 952L584 476Q668 476 760 420Q831 377 878 269Q923 165 896 27Q853
-194 708 -315T339 -436Q263 -436 188 -418Q111 -399 34 -362L72 -167Q129 -216 204 -241T367 -266Q518 -266 613 -191Q707 -116 735 27Q761 159 702 234Q642 308 510 308H370L403 474L844 973H311L201 406Z" />
<glyph unicode="&#x26f;" glyph-name="uni026F" horiz-adv-x="1240" d="M463 141Q415 69 356 35T223 0Q88 0 53 104T74 498L200 1147H368L243 506Q197 269 212 212T298 154Q378 154 419 215T505 506L630 1147H798L673 506Q627 266 644 210T736 154Q809 154 849
215T934 506L1059 1147H1226L1008 27H841L860 123Q815 63 760 32T641 0Q565 0 522 35T463 141Z" />
<glyph unicode="&#x270;" glyph-name="uni0270" horiz-adv-x="1223" d="M449 141Q401 69 342 35T209 0Q74 0 39 104T60 498L186 1147H354L229 506Q183 269 198 212T284 154Q364 154 405 215T491 506L616 1147H784L659 506Q613 266 630 210T722 154Q795 154 835
215T920 506L1045 1147H1212L905 -430H738L846 123Q801 63 746 32T627 0Q551 0 507 35T449 141Z" />
<glyph unicode="&#x271;" glyph-name="uni0271" horiz-adv-x="1225" d="M768 1006Q816 1078 875 1112T1008 1147Q1143 1147 1178 1043T1157 649L1056 128L1028 -20Q991 -214 889 -320Q787 -426 637 -426H451L482 -270H649Q731 -270 784 -208Q836 -146 860 -20L864
0H863L988 641Q1034 878 1019 935T933 993Q853 993 812 932T726 641L601 0H433L558 641Q604 881 587 937T495 993Q422 993 382 932T297 641L172 0H5L223 1120H390L371 1024Q416 1084 471 1115T590 1147Q666 1147 709 1112T768 1006Z" />
<glyph unicode="&#x272;" glyph-name="uni0272" horiz-adv-x="1186" d="M392 -20Q350 -234 271 -330Q191 -426 55 -426H3L33 -270H35Q102 -270 139 -222Q177 -173 207 -20L429 1120H614L581 946Q650 1047 727 1097Q803 1147 891 1147Q1059 1147 1122 1028Q1185
908 1140 676L1008 0H823L954 670Q985 829 954 908T829 987Q718 987 635 892Q552 797 520 633L392 -20Z" />
<glyph unicode="&#x273;" glyph-name="uni0273" horiz-adv-x="984" d="M605 -20L739 670Q770 829 739 908Q708 987 615 987Q503 987 420 892Q337 797 305 633L182 0H1L218 1118H399L366 946Q435 1047 512 1097T677 1147Q845 1147 908 1028Q970 908 925 676L790
-20Q760 -173 780 -222Q799 -270 862 -270H866L836 -426H784Q648 -426 607 -330Q563 -234 605 -20Z" />
<glyph unicode="&#x274;" glyph-name="uni0274" horiz-adv-x="1197" d="M237 1147H509L811 244L986 1147H1182L960 0H688L386 903L211 0H15L237 1147Z" />
<glyph unicode="&#x275;" glyph-name="uni0275" horiz-adv-x="1093" d="M1026 559Q970 272 818 122T432 -29Q199 -29 105 121T67 559Q123 845 275 996T660 1147T987 996T1026 559ZM630 991Q490 991 397 882Q315 787 273 611H840Q866 787 822 882Q771 991 630 991ZM803
447H246Q235 315 271 236Q322 127 462 127Q603 127 696 236Q763 315 803 447Z" />
<glyph unicode="&#x276;" glyph-name="uni0276" horiz-adv-x="1270" d="M1259 1120L1229 966H812L755 675H1155L1125 520H725L655 156H1082L1052 0H453Q209 0 111 142Q13 285 67 561Q120 835 273 977Q426 1120 670 1120H1259ZM676 990H649Q469 990 358 882Q247
775 205 559Q163 342 232 234Q301 125 481 125H508L676 990Z" />
<glyph unicode="&#x277;" glyph-name="uni0277" horiz-adv-x="995" d="M339 780Q282 684 276 664Q239 552 228 486Q202 319 219 256Q241 171 291 171Q325 171 382 250Q413 293 449 478L484 660H601L566 478Q530 293 544 250Q570 171 602 171Q650 171 707 256Q749
317 787 486Q791 504 809 664Q811 687 791 780Q754 940 590 940Q433 940 339 780ZM159 780Q301 1148 637 1147Q952 1145 969 780Q975 660 977 658Q968 557 951 468Q906 238 815 104T613 -30Q536 -30 497 41T462 243Q415 112 348 41T204 -30Q93 -30 54 104Q10 253
60 468Q66 487 107 658Q137 724 159 780Z" />
<glyph unicode="&#x278;" glyph-name="uni0278" horiz-adv-x="1080" d="M618 1391H378L409 1555H649H833H1073L1042 1391H802L753 1139Q908 1113 981 996Q1075 845 1020 559Q964 272 812 122Q694 5 527 -21L480 -261H720L689 -425H449H265H25L56 -261H296L343
-24Q175 -1 99 122Q5 272 61 559Q116 845 269 996Q392 1119 569 1142L618 1391ZM721 974L559 144Q633 170 690 236Q783 346 825 559Q866 773 816 882Q785 948 721 974ZM374 139L538 979Q453 955 391 882Q297 773 256 559Q214 346 265 236Q299 163 374 139Z" />
<glyph unicode="&#x279;" glyph-name="uni0279" horiz-adv-x="886" d="M36 172Q63 154 98 146Q133 137 177 137Q333 137 436 238Q539 340 576 530L691 1120H876L658 0H473L507 174Q429 72 327 22Q224 -27 91 -27Q72 -27 50 -24Q27 -22 0 -17L36 172Z" />
<glyph unicode="&#x27a;" glyph-name="uni027A" horiz-adv-x="965" d="M35 172Q63 154 97 146Q132 137 176 137Q335 137 435 238Q540 343 576 530L773 1546H958L658 0H473L507 174Q429 72 326 22Q224 -27 91 -27Q72 -27 49 -24Q27 -22 0 -17L35 172Z" />
<glyph unicode="&#x27b;" glyph-name="uni027B" horiz-adv-x="893" d="M35 172Q63 154 97 146Q133 137 177 137Q333 137 435 238Q539 340 576 530L691 1120H876L683 128L658 0L654 -20Q624 -173 653 -222Q682 -270 787 -270H836L805 -426H735Q554 -426 492 -330Q429
-234 470 -20L474 0H473L507 174Q429 72 326 22Q224 -27 91 -27Q72 -27 49 -24Q27 -22 0 -17L35 172Z" />
<glyph unicode="&#x27c;" glyph-name="uni027C" horiz-adv-x="965" d="M930 948Q902 966 868 974Q833 983 789 983Q633 983 530 882Q426 780 389 590L192 -426H7L307 1120H492L458 946Q536 1048 639 1098Q741 1147 874 1147Q893 1147 916 1144Q938 1142 965 1137L930
948Z" />
<glyph unicode="&#x27d;" glyph-name="uni027D" horiz-adv-x="932" d="M896 948Q869 966 834 974Q799 983 755 983Q599 983 496 882Q393 781 356 590L241 0H239L235 -20Q205 -173 234 -222Q262 -270 367 -270H600L570 -426H316Q135 -426 73 -330Q9 -234 51 -20L80
128H81L274 1120H459L425 946Q503 1048 605 1098Q708 1147 841 1147Q860 1147 882 1144Q905 1142 932 1137L896 948Z" />
<glyph unicode="&#x27e;" glyph-name="uni027E" horiz-adv-x="1145" d="M505 741Q546 953 647 1051Q748 1147 928 1147H1137L1107 991H920Q814 991 766 943Q721 893 691 741L577 143H942L914 0H0L28 143H389L505 741Z" />
<glyph unicode="&#x27f;" glyph-name="uni027F" horiz-adv-x="952" d="M703 741L587 143H948L920 0H6L34 143H401L517 741Q547 895 520 943Q493 991 386 991H199L229 1147H438Q618 1147 681 1051Q744 953 703 741Z" />
<glyph unicode="&#x280;" glyph-name="uni0280" horiz-adv-x="1039" d="M717 525Q769 508 811 454Q853 400 888 306L1002 0H807L701 287Q660 400 608 436Q556 473 459 473H290L198 0H13L231 1120H619Q836 1120 928 1040Q1020 959 988 797Q968 692 898 622T717
525ZM386 965L320 628H518Q637 628 709 671Q781 714 797 797Q813 881 758 923Q703 965 584 965H386Z" />
<glyph unicode="&#x281;" glyph-name="uni0281" horiz-adv-x="1224" d="M733 595Q834 568 876 498T898 323Q866 161 744 80Q620 0 403 0H15L233 1120H418L326 647H495Q592 647 658 684Q724 720 809 833L1027 1120H1222L988 814Q917 720 855 666Q791 612 733 595ZM230
155H428Q547 155 618 197Q691 239 707 323Q723 406 667 449Q613 492 494 492H296L230 155Z" />
<glyph unicode="&#x282;" glyph-name="uni0282" horiz-adv-x="1062" d="M1060 1087L1026 913Q956 953 876 973T705 993Q568 993 492 951Q415 909 399 825Q386 761 428 724Q470 688 612 655L672 641Q860 599 927 522Q995 446 968 309Q938 153 797 62Q656 -29 440
-29Q350 -29 255 -12L235 -8L233 -20Q203 -173 231 -222Q260 -270 365 -270H598L568 -426H314Q133 -426 70 -330Q7 -234 49 -20L60 41L77 128L97 231Q189 178 283 152Q377 125 474 125Q604 125 682 170Q761 214 777 295Q791 370 749 410Q706 450 542 487L481 502Q317
538 255 612Q194 687 219 817Q250 975 378 1061T713 1147Q815 1147 902 1132T1060 1087Z" />
<glyph unicode="&#x283;" glyph-name="uni0283" horiz-adv-x="1149" d="M309 -20Q429 604 543 1198Q578 1379 682 1470Q780 1556 975 1556H1149L1119 1403H943Q844 1403 799 1363Q752 1323 732 1219L493 -20Q451 -234 352 -330Q251 -426 70 -426H0L30 -270H79Q184
-270 232 -222Q279 -173 309 -20Z" />
<glyph unicode="&#x284;" glyph-name="uni0284" horiz-adv-x="1369" d="M1154 616L1123 452H769L677 -20Q639 -215 529 -320T254 -426H0L31 -270H265Q355 -270 412 -208T493 -20L585 452H202L234 616H617L687 977H370L398 1120H715L730 1198Q766 1382 867 1469T1148
1556H1369L1339 1403H1130Q1031 1403 985 1363T918 1219L801 616H1154Z" />
<glyph unicode="&#x285;" glyph-name="uni0285" horiz-adv-x="548" d="M342 -20Q312 -173 340 -222Q369 -270 474 -270H523L493 -426H423Q242 -426 178 -330Q115 -233 158 -20L317 788Q337 892 306 932Q276 972 177 972H1L30 1125H204Q399 1125 464 1039Q538 942
498 767Q477 678 342 -20Z" />
<glyph unicode="&#x286;" glyph-name="uni0286" horiz-adv-x="1383" d="M503 -154H324Q205 -154 198 -205Q189 -270 313 -270Q423 -270 465 -222Q487 -199 503 -154ZM730 0H911L881 -155H690Q651 -266 585 -330Q484 -426 303 -426Q0 -426 42 -210Q83 0 353 0H543L776
1198Q811 1378 916 1470Q1014 1556 1209 1556H1383L1353 1403H1177Q1077 1403 1032 1363Q985 1322 965 1219L730 0Z" />
<glyph unicode="&#x287;" glyph-name="uni0287" horiz-adv-x="930" d="M356 -318L418 0H0L28 143H446L564 751Q588 875 551 924T396 973H189L218 1120H443Q650 1120 718 1037T748 751L630 143H929L901 0H602L540 -318H356Z" />
<glyph unicode="&#x288;" glyph-name="uni0288" horiz-adv-x="932" d="M576 1438L514 1120H932L904 977H486L285 -56Q261 -180 298 -229T453 -278H660L631 -425H406Q199 -425 131 -342T101 -56L302 977H3L31 1120H330L392 1438H576Z" />
<glyph unicode="&#x289;" glyph-name="uni0289" horiz-adv-x="1347" d="M8 452L40 616H214L312 1120H496L398 616H968L1066 1120H1250L1152 616H1338L1306 452H1120L1032 0H848L882 172Q795 70 696 20Q599 -29 482 -29Q289 -29 212 91T180 442L182 452H8ZM935
452H366V449Q335 290 381 210Q428 131 552 131Q701 131 806 226Q900 311 935 452Z" />
<glyph unicode="&#x28a;" glyph-name="uni028A" horiz-adv-x="1220" d="M137 956L169 1120H611L568 900Q446 831 362 726Q275 615 248 480Q217 321 286 224T500 127T751 224Q858 322 888 480Q917 626 870 726Q821 837 733 900L776 1120H1212L1180 956H944Q1038
856 1072 743Q1105 633 1079 497Q1033 262 863 116T467 -30T128 115Q15 261 59 489Q88 636 160 743Q235 852 374 956H137Z" />
<glyph unicode="&#x28b;" glyph-name="uni028B" horiz-adv-x="1045" d="M555 986H877Q971 886 1005 773Q1038 663 1012 527Q966 292 796 146T400 0H330Q149 0 86 96Q23 192 65 406L176 977H21L49 1120H388L249 406Q219 253 248 204Q278 154 381 156L433 157Q577
157 684 254Q791 352 821 510Q850 656 803 756Q747 875 666 930Q598 974 555 986Z" />
<glyph unicode="&#x28c;" glyph-name="uni028C" horiz-adv-x="1105" d="M1090 0H895L727 940L195 0H0L637 1120H887L1090 0Z" />
<glyph unicode="&#x28d;" glyph-name="uni028D" horiz-adv-x="1237" d="M1208 0H1061L1047 874L693 0H520L506 874L153 0H5L458 1120H631L646 202L1018 1120H1191L1208 0Z" />
<glyph unicode="&#x28e;" glyph-name="uni028E" horiz-adv-x="1300" d="M730 1224Q847 1424 933 1485T1143 1546H1290L1260 1392H1152Q1076 1392 1027 1356T901 1186L851 1102L1090 0H895L716 876L195 0H0L730 1224Z" />
<glyph unicode="&#x28f;" glyph-name="uni028F" horiz-adv-x="1040" d="M11 1149H228L432 693L823 1149H1040L499 525L397 0H194L296 525L11 1149Z" />
<glyph unicode="&#x290;" glyph-name="uni0290" horiz-adv-x="929" d="M237 1120H916L884 952L208 147H745L713 -20Q684 -173 695 -222Q707 -270 766 -270H793L763 -426H710Q575 -426 533 -330Q490 -234 531 -20L535 0H0L33 168L709 973H208L237 1120Z" />
<glyph unicode="&#x291;" glyph-name="uni0291" horiz-adv-x="1125" d="M518 0Q505 -51 493 -111H340Q352 -52 365 0H3L36 168L884 973H217L246 1120H1120L1087 952L239 147H413Q529 435 748 435Q975 435 929 189Q893 0 559 0H518ZM568 147Q568 147 588 147Q762
147 772 201Q790 292 720 292Q631 290 568 147Z" />
<glyph unicode="&#x292;" glyph-name="uni0292" horiz-adv-x="1195" d="M649 476Q755 476 872 420Q962 378 1027 269Q1088 165 1061 27Q1018 -194 843 -315T387 -436Q293 -436 197 -418Q101 -399 2 -362L40 -167Q115 -216 210 -241T414 -266Q604 -266 717 -191Q832
-116 860 27Q885 159 808 234Q729 308 564 308H390L423 474L950 973H283L311 1120H1185L1153 952L649 476Z" />
<glyph unicode="&#x293;" glyph-name="uni0293" horiz-adv-x="1151" d="M337 -436Q2 -436 41 -247Q91 4 388 -1Q634 -5 780 -64Q800 -22 810 27Q836 160 758 234Q679 308 514 308H340L373 474L900 973H233L261 1120H1135L1103 952L599 476Q704 476 822 420Q913
377 977 269Q1038 166 1011 27Q989 -86 933 -171Q1014 -272 982 -436H829Q845 -354 816 -298Q816 -298 792 -315Q618 -436 337 -436ZM675 -186Q559 -144 362 -144Q231 -144 215 -219Q206 -266 364 -266Q554 -266 667 -191L675 -186Z" />
<glyph unicode="&#x294;" glyph-name="uni0294" horiz-adv-x="859" d="M174 798H237Q429 798 537 912Q610 988 629 1086Q654 1219 610 1284Q533 1398 354 1398Q274 1398 190 1376Q108 1355 22 1312L55 1484Q138 1519 223 1536Q307 1554 392 1554Q667 1554 775
1397Q859 1272 823 1086Q790 916 660 801Q525 682 349 652L222 0H20L174 798Z" />
<glyph unicode="&#x295;" glyph-name="uni0295" horiz-adv-x="960" d="M574 798L419 0H217L344 652Q180 682 91 801Q5 916 38 1086Q74 1272 209 1397Q376 1554 651 1554Q736 1554 814 1536Q891 1519 960 1484L927 1312Q857 1355 782 1376Q709 1398 629 1398Q450
1398 329 1284Q259 1219 232 1086Q213 988 256 912Q320 798 512 798H574Z" />
<glyph unicode="&#x296;" glyph-name="uni0296" horiz-adv-x="960" d="M385 756L541 1554H743L616 902Q780 872 869 753Q955 638 922 468Q886 282 752 157Q584 0 309 0Q224 0 146 18Q69 35 0 70L33 242Q103 199 177 178Q251 156 331 156Q510 156 631 270Q701 335
728 468Q747 566 704 642Q640 756 448 756H385Z" />
<glyph unicode="&#x297;" glyph-name="uni0297" horiz-adv-x="1172" d="M250 1086Q286 1272 420 1397Q588 1554 863 1554Q948 1554 1025 1536Q1103 1519 1172 1484L1139 1312Q1069 1355 994 1376Q920 1398 840 1398Q661 1398 540 1284Q470 1219 444 1086L238 30Q214
-103 258 -168Q335 -282 514 -282Q594 -282 676 -260Q759 -239 845 -196L812 -368Q729 -403 645 -420Q560 -438 475 -438Q200 -438 94 -281Q8 -156 44 30L250 1086Z" />
<glyph unicode="&#x298;" glyph-name="uni0298" horiz-adv-x="1148" d="M52 565Q94 777 279 933Q463 1090 679 1090Q890 1090 1015 933Q1138 777 1097 565Q1055 349 874 197T476 45T135 197Q10 349 52 565ZM234 566Q206 425 288 326Q369 227 510 227T769 326T915
566Q942 704 861 806Q780 908 642 908Q501 908 381 806Q261 704 234 566ZM461 567Q470 613 510 647Q550 681 597 681Q643 681 670 647Q697 613 688 567Q679 520 640 487T553 454T479 487Q452 520 461 567Z" />
<glyph unicode="&#x299;" glyph-name="uni0299" horiz-adv-x="987" d="M317 530L247 170H468Q561 170 617 221Q677 275 689 338Q707 430 672 479Q636 530 542 530H317ZM404 980L350 700H560Q645 700 696 743Q746 785 758 848Q767 894 734 937T614 980H404ZM236
1149H633Q811 1149 892 1075T947 865Q927 760 866 697Q805 635 706 620Q816 595 865 517Q913 439 890 322Q860 168 739 84Q618 0 425 0H12L236 1149Z" />
<glyph unicode="&#x29a;" glyph-name="uni029A" horiz-adv-x="1059" d="M564 984Q448 984 381 930Q305 869 290 792T324 660Q350 630 489 630H625L595 473H458Q319 473 281 443Q212 389 197 311Q182 237 233 173Q278 119 395 119Q735 120 822 566Q903 984 564
984ZM806 1099Q1052 948 975 556Q909 212 596 18Q497 -44 351 -42Q178 -42 95 45Q11 131 40 279Q60 382 127 453T297 552Q204 579 165 650T145 824Q174 972 292 1059Q409 1145 581 1145Q731 1145 806 1099Z" />
<glyph unicode="&#x29b;" glyph-name="uni029B" horiz-adv-x="1320" d="M638 178L692 460H576L604 600H890L787 72Q785 68 612 18Q550 0 399 0Q187 0 95 159Q2 319 54 588Q106 859 264 1019Q419 1176 638 1176Q689 1176 757 1158Q780 1152 792 1147V1148Q834 1364
914 1458Q993 1554 1129 1554H1319L1289 1398H1160Q1082 1398 1042 1350Q1004 1299 975 1148L946 1000H944L924 894Q903 932 726 998Q667 1020 612 1020Q478 1020 381 906Q285 793 245 588T257 270Q310 156 444 156Q575 156 638 178Z" />
<glyph unicode="&#x29c;" glyph-name="uni029C" horiz-adv-x="1197" d="M237 1147H439L353 700H894L980 1147H1182L960 0H758L861 530H320L217 0H15L237 1147Z" />
<glyph unicode="&#x29d;" glyph-name="uni029D" horiz-adv-x="1035" d="M848 1556H1032L987 1323H803L848 1556ZM947 1120L730 0H911L881 -155H690Q649 -267 584 -330Q484 -426 303 -426Q0 -426 43 -205Q83 0 353 0H546L736 977H419L446 1120H947ZM505 -154H324Q205
-154 198 -205Q189 -270 312 -270Q417 -270 465 -222Q487 -199 505 -154Z" />
<glyph unicode="&#x29e;" glyph-name="uni029E" horiz-adv-x="1198" d="M884 -436H699L878 483L235 0H0L696 524L193 1120H433L895 573L1002 1120H1187L884 -436Z" />
<glyph unicode="&#x29f;" glyph-name="uni029F" horiz-adv-x="785" d="M231 1147H433L244 170H785L752 0H9L231 1147Z" />
<glyph unicode="&#x2a0;" glyph-name="uni02A0" horiz-adv-x="1357" d="M639 168Q576 68 500 20Q424 -29 331 -29Q157 -29 78 133Q0 295 51 559T244 985Q385 1147 560 1147Q653 1147 710 1098Q767 1050 791 950L829 1148Q871 1362 951 1458Q1030 1554 1166 1554H1357L1326
1398H1199Q1120 1398 1082 1350Q1044 1301 1015 1148L709 -426H523L639 168ZM245 240Q285 125 394 125T590 240Q675 356 714 559T714 878Q673 993 564 993T369 878Q284 762 245 559T245 240Z" />
<glyph unicode="&#x2a1;" glyph-name="uni02A1" horiz-adv-x="1019" d="M333 798H396Q588 798 696 912Q769 988 788 1086Q813 1219 769 1284Q692 1398 513 1398Q433 1398 349 1376Q267 1355 181 1312L214 1484Q297 1519 382 1536Q466 1554 551 1554Q826 1554 934
1397Q1018 1272 982 1086Q949 916 819 801Q684 682 508 652L466 440H697L666 276H435L381 0H179L232 276H4L35 440H264L333 798Z" />
<glyph unicode="&#x2a2;" glyph-name="uni02A2" horiz-adv-x="962" d="M304 440L346 652Q182 682 93 801Q7 916 40 1086Q76 1272 211 1397Q378 1554 653 1554Q738 1554 816 1536Q893 1519 962 1484L929 1312Q859 1355 784 1376Q711 1398 631 1398Q452 1398 331
1284Q261 1219 234 1086Q215 988 258 912Q322 798 514 798H576L506 440H735L704 276H475L421 0H219L273 276H42L73 440H304Z" />
<glyph unicode="&#x2a3;" glyph-name="uni02A3" horiz-adv-x="1315" d="M306 877Q233 762 194 559T182 241T297 125T458 240T570 559T582 877T467 993T306 877ZM646 950L764 1556H874L790 1120H1313L1280 952L708 147H1123L1095 0H572H555H461L494 168Q442 71
373 20Q308 -29 230 -29Q102 -29 53 133T55 559T218 985T458 1147Q536 1147 583 1098Q632 1050 646 950ZM761 973L611 200L1160 973H761Z" />
<glyph unicode="&#x2a4;" glyph-name="uni02A4" horiz-adv-x="1290" d="M155 240Q182 125 270 125Q357 125 431 240Q503 356 542 559T555 878Q526 993 439 993Q351 993 279 878Q206 762 167 559T155 240ZM733 973L545 0H434L467 168Q412 68 350 20Q288 -29 214
-29Q92 -29 47 133Q1 295 52 559T213 985Q320 1147 442 1147Q516 1147 560 1098Q603 1050 619 950L737 1556H848L762 1120H1286L1253 952L915 476Q978 476 1044 420Q1095 378 1124 269Q1153 165 1126 27Q1083 -194 969 -315T686 -436Q629 -436 574 -418Q518 -399
461 -362L499 -167Q540 -216 595 -241T715 -266Q829 -266 903 -191Q978 -116 1005 27Q1031 159 991 234Q949 308 850 308H746L778 474L1133 973H734H733Z" />
<glyph unicode="&#x2a5;" glyph-name="uni02A5" horiz-adv-x="1289" d="M280 877Q208 762 169 559T157 241T272 125T433 240T545 559T557 877T441 993T280 877ZM733 973L586 203L1133 973H736H733ZM764 1120H1286L1253 952L681 147H786Q878 435 1010 435Q1146
435 1099 189Q1063 0 862 0H838Q826 -51 814 -111H722Q738 -28 745 -1L529 0H436L469 168Q415 68 353 20T215 -29Q94 -29 49 133T55 559T214 985T444 1147Q518 1147 562 1099T621 950L739 1556H849L764 1120ZM879 147H891Q995 147 1006 201Q1023 292 981 292Q928
290 879 147Z" />
<glyph unicode="&#x2a6;" glyph-name="uni02A6" horiz-adv-x="1003" d="M1003 1087L970 913Q931 953 884 973T783 993Q701 993 652 951T586 825Q574 761 596 725T701 655L736 641Q846 597 880 522Q915 446 888 309Q858 153 766 62T545 -29Q491 -29 436 -12Q383
5 328 38L320 0H207Q79 0 46 79T54 369L172 977H91L119 1120H200L262 1438H373L311 1120H538L510 977H283L165 369Q138 232 153 193T237 154H344L359 231Q410 178 464 152T577 125Q655 125 705 169T772 295Q787 370 764 410Q744 446 646 487L611 502Q515 538 484
612T478 817Q509 975 593 1061T800 1147Q861 1147 912 1132T1003 1087Z" />
<glyph unicode="&#x2a7;" glyph-name="uni02A7" horiz-adv-x="1103" d="M397 1438L335 1120H616L631 1198Q666 1380 749 1470Q826 1556 973 1556H1103L1073 1403H941Q867 1403 831 1363Q793 1322 773 1219L534 -20Q493 -235 413 -330Q333 -426 197 -426H144L175
-270H212Q290 -270 328 -222Q367 -172 396 -20L400 0H259Q98 0 55 80Q9 157 50 369L168 977H67L95 1120H196L258 1438H397ZM429 154Q482 433 588 977H307L189 369Q162 231 183 193Q204 154 289 154H429Z" />
<glyph unicode="&#x2a8;" glyph-name="uni02A8" horiz-adv-x="968" d="M370 1438L308 1120H536L510 990Q631 1147 788 1147Q839 1147 884 1130Q930 1112 968 1077L935 905Q897 948 853 970Q811 991 763 991Q655 991 574 878Q492 764 453 559T450 240Q452 233 455
226Q540 402 657 402Q837 402 789 156Q753 -33 553 -33Q504 -33 464 -16Q450 -73 436 -141L344 -144Q364 -40 388 44Q361 78 343 128L318 0H204Q77 0 44 79T51 369L169 977H88L116 1120H197L259 1438H370ZM518 146Q550 127 595 127Q682 127 693 184Q707 259 629
259Q568 259 518 146ZM334 154Q288 311 336 559Q387 822 501 977H280L162 369Q136 232 150 193T234 154H334Z" />
<glyph unicode="&#x2a9;" glyph-name="uni02A9" horiz-adv-x="1037" d="M988 676L852 -20Q811 -234 743 -330Q676 -426 567 -426H415L445 -270H585Q648 -270 680 -222Q712 -173 742 -20L876 670Q907 829 885 908T789 987Q700 987 630 892T528 633L404 0H293L483
977H304L114 0H3L193 977H87L115 1120H220L236 1198Q272 1385 341 1470T523 1556H627L598 1403H492Q433 1403 402 1363T351 1219L331 1120H511H513H622L588 946Q648 1047 711 1097Q774 1147 845 1147Q960 1147 997 1028Q1033 908 988 676Z" />
<glyph unicode="&#x2aa;" glyph-name="uni02AA" horiz-adv-x="946" d="M946 1087L912 913Q861 954 803 973Q742 993 676 993Q573 993 514 951T438 825Q426 762 454 724Q485 688 589 655L633 641Q773 597 819 522Q866 446 840 309Q809 154 699 62Q590 -29 427 -29Q362
-29 289 -12Q215 9 152 38L145 0H7L309 1556H447L309 846Q343 984 434 1061Q535 1147 690 1147Q766 1147 831 1132Q894 1117 946 1087ZM298 788L189 226Q254 175 318 152Q386 125 460 125Q557 125 619 170Q679 213 695 295Q710 370 680 410Q654 445 528 487L483
502Q363 538 320 612Q282 677 298 788Z" />
<glyph unicode="&#x2ab;" glyph-name="uni02AB" horiz-adv-x="1018" d="M311 1556H449L364 1120H1018L985 952L310 147H829L800 0H146H126H8L311 1556ZM335 973L185 199L834 973H335Z" />
<glyph unicode="&#x2ac;" glyph-name="uni02AC" horiz-adv-x="1106" d="M17 597H133L182 108L422 597H558L608 108L848 597H964L657 -30H520L468 484L216 -30H79L17 597ZM155 1311H271L321 822L560 1311H697L747 822L986 1311H1102L796 684H659L607 1198L355 684H218L155
1311Z" />
<glyph unicode="&#x2ad;" glyph-name="uni02AD" horiz-adv-x="1199" d="M98 597H1045L962 173H819L870 434H209L158 173H15L98 597ZM237 1311H1184L1101 887H958L1009 1148H348L297 887H154L237 1311Z" />
<glyph unicode="&#x2ae;" glyph-name="uni02AE" horiz-adv-x="884" d="M296 1002L188 448Q158 289 189 210T313 131Q425 131 507 226T622 485L745 1118H884L582 -438H443L562 172Q492 71 416 21Q339 -29 251 -29Q106 -29 55 90Q4 210 49 442L158 1002L181 1118L187
1150Q217 1303 198 1352Q178 1400 100 1400H63L93 1556H146Q282 1556 324 1460Q366 1364 325 1150L319 1118L296 1002Z" />
<glyph unicode="&#x2af;" glyph-name="uni02AF" horiz-adv-x="743" d="M414 0L448 172Q388 71 325 21Q261 -29 191 -29Q75 -29 39 90Q3 210 48 442L157 1002L180 1118L186 1150Q216 1303 202 1352Q189 1400 126 1400H96L127 1556H169Q277 1556 307 1460Q338 1364
296 1150L290 1118L267 1002L160 448Q129 289 151 210T247 131Q336 131 406 226T508 485L631 1118H742L525 0L521 -20Q490 -168 505 -222Q518 -270 581 -270H611L580 -426H538Q429 -426 399 -330Q371 -241 411 -20L414 0Z" />
<glyph unicode="&#x2b0;" glyph-name="uni02B0" horiz-adv-x="705" d="M676 1031L602 652H486L559 1027Q577 1116 547 1160T438 1205Q344 1205 280 1152T197 1006L128 652H11L181 1523H297L231 1182Q283 1238 345 1266T481 1294Q602 1294 651 1227T676 1031Z" />
<glyph unicode="&#x2b1;" glyph-name="uni02B1" horiz-adv-x="710" d="M229 1180H230Q282 1237 344 1265T480 1293Q601 1293 650 1226T675 1029L601 651H485L558 1026Q576 1115 546 1159T437 1203Q343 1203 279 1150T196 1005L127 651H10L119 1212L136 1295Q159
1414 221 1468Q282 1522 396 1522H556L539 1435H393Q327 1435 297 1408Q268 1380 251 1295L229 1180Z" />
<glyph unicode="&#x2b2;" glyph-name="uni02B2" horiz-adv-x="478" d="M313 1279H429L305 641Q282 521 220 467T44 413H0L17 501H48Q114 501 143 528T189 641L313 1279ZM361 1523H477L451 1393H336L361 1523Z" />
<glyph unicode="&#x2b3;" glyph-name="uni02B3" horiz-adv-x="548" d="M528 1183Q510 1193 488 1197T438 1202Q340 1202 277 1146T192 982L128 652H11L133 1279H250L231 1182Q279 1239 343 1266T490 1294Q502 1294 516 1293T548 1289L528 1183Z" />
<glyph unicode="&#x2b4;" glyph-name="uni02B4" horiz-adv-x="548" d="M20 748Q38 738 60 734T110 729Q208 729 271 785T356 949L420 1279H537L415 652H298L317 749Q269 692 205 665T58 637Q46 637 32 638T0 642L20 748Z" />
</font>
</defs>
</svg>
