<?xml version="1.0" standalone="no"?> <!DOCTYPE svg PUBLIC "-//W3C//DTD SVG 1.0//EN" "http://www.w3.org/TR/2001/REC-SVG-20010904/DTD/svg10.dtd" > <svg xmlns="http://www.w3.org/2000/svg" width="100%" height="100%">
<defs >
<font horiz-adv-x="1246" ><font-face
    font-family="DejaVu Sans"
    units-per-em="2048"
    panose-1="2 11 6 3 3 8 4 2 2 4"
    ascent="1901"
    descent="-483"
    alphabetic="0" />
<missing-glyph horiz-adv-x="1092" d="M34 -362V1444H1058V-362H34ZM149 -248H944V1329H149V-248Z" />
<glyph unicode=" " glyph-name="space" horiz-adv-x="651" />
<glyph unicode="!" glyph-name="exclam" horiz-adv-x="245" d="M34 254H237V0H34V254ZM34 1493H237V838L217 481H55L34 838V1493Z" />
<glyph unicode="&quot;" glyph-name="quotedbl" horiz-adv-x="617" d="M204 1493V938H34V1493H204ZM582 1493V938H412V1493H582Z" />
<glyph unicode="#" glyph-name="numbersign" horiz-adv-x="1405" d="M891 901H600L516 567H809L891 901ZM741 1470L637 1055H929L1034 1470H1194L1091 1055H1403V901H1052L970 567H1288V414H931L827 0H667L770 414H477L374 0H213L317 414H2V567H354L438 901H116V1055H477L579
1470H741Z" />
<glyph unicode="$" glyph-name="dollar" horiz-adv-x="966" d="M524 -301H424L423 0Q318 2 213 24T2 92V272Q104 208 208 176T424 142V598Q203 634 103 720T2 956Q2 1119 111 1213T424 1321V1556H524V1324Q617 1320 704 1305T874 1262V1087Q791 1129 704 1152T524
1179V752Q751 717 858 627T965 381Q965 212 852 115T524 2V-301ZM424 770V1180Q308 1167 247 1114T186 973Q186 887 242 839T424 770ZM524 578V145Q651 162 715 217T780 362Q780 450 719 502T524 578Z" />
<glyph unicode="%" glyph-name="percent" horiz-adv-x="1750" d="M1391 657Q1304 657 1255 583T1205 377Q1205 247 1254 173T1391 98Q1476 98 1525 172T1575 377Q1575 508 1526 582T1391 657ZM1391 784Q1549 784 1642 674T1735 377Q1735 190 1642 81T1391 -29Q1231
-29 1138 80T1045 377Q1045 565 1138 674T1391 784ZM359 1393Q273 1393 224 1319T174 1114Q174 982 223 908T359 834Q446 834 495 908T545 1114Q545 1243 495 1318T359 1393ZM1262 1520H1422L488 -29H328L1262 1520ZM359 1520Q517 1520 611 1411T705 1114Q705 925
612 816T359 707Q200 707 108 816T15 1114Q15 1300 108 1410T359 1520Z" />
<glyph unicode="&amp;" glyph-name="ampersand" horiz-adv-x="1425" d="M385 803Q294 722 252 642T209 473Q209 327 315 230T581 133Q676 133 759 164T915 260L385 803ZM526 915L1034 395Q1093 484 1126 585T1165 801H1351Q1339 669 1287 540T1142 285L1421 0H1169L1026
147Q922 58 808 15T563 -29Q322 -29 169 108T16 461Q16 589 83 701T284 913Q236 976 211 1038T186 1161Q186 1323 297 1421T592 1520Q675 1520 757 1502T925 1448V1266Q838 1313 759 1337T612 1362Q507 1362 442 1307T376 1163Q376 1112 405 1061T526 915Z" />
<glyph unicode="&apos;" glyph-name="quotesingle" horiz-adv-x="241" d="M204 1493V938H34V1493H204Z" />
<glyph unicode="(" glyph-name="parenleft" horiz-adv-x="471" d="M463 1554Q329 1324 264 1099T199 643Q199 412 264 186T463 -270H303Q153 -35 79 192T4 643Q4 866 78 1092T303 1554H463Z" />
<glyph unicode=")" glyph-name="parenright" horiz-adv-x="471" d="M8 1554H168Q318 1318 392 1092T467 643Q467 419 393 192T168 -270H8Q141 -41 206 185T272 643Q272 874 207 1099T8 1554Z" />
<glyph unicode="*" glyph-name="asterisk" horiz-adv-x="904" d="M903 1247L544 1053L903 858L845 760L509 963V586H395V963L59 760L1 858L360 1053L1 1247L59 1346L395 1143V1520H509V1143L845 1346L903 1247Z" />
<glyph unicode="+" glyph-name="plus" horiz-adv-x="1282" d="M725 1284V727H1282V557H725V0H557V557H0V727H557V1284H725Z" />
<glyph unicode="," glyph-name="comma" horiz-adv-x="307" d="M90 254H301V82L137 -238H8L90 82V254Z" />
<glyph unicode="-" glyph-name="hyphen" horiz-adv-x="608" d="M34 643H573V479H34V643Z" />
<glyph unicode="." glyph-name="period" horiz-adv-x="281" d="M34 254H245V0H34V254Z" />
<glyph unicode="/" glyph-name="slash" horiz-adv-x="690" d="M520 1493H690L170 -190H0L520 1493Z" />
<glyph unicode="0" glyph-name="zero" horiz-adv-x="1070" d="M535 1360Q379 1360 301 1207T222 745Q222 438 300 285T535 131Q692 131 770 284T849 745Q849 1053 771 1206T535 1360ZM535 1520Q786 1520 918 1322T1051 745Q1051 368 919 170T535 -29Q284 -29 152
169T19 745Q19 1123 151 1321T535 1520Z" />
<glyph unicode="1" glyph-name="one" horiz-adv-x="909" d="M47 170H377V1309L18 1237V1421L375 1493H577V170H907V0H47V170Z" />
<glyph unicode="2" glyph-name="two" horiz-adv-x="988" d="M270 170H975V0H27V170Q142 289 340 489T590 748Q687 857 725 932T764 1081Q764 1200 681 1275T463 1350Q368 1350 263 1317T37 1217V1421Q159 1470 265 1495T459 1520Q691 1520 829 1404T967 1094Q967
1002 933 920T807 725Q782 696 648 558T270 170Z" />
<glyph unicode="3" glyph-name="three" horiz-adv-x="1023" d="M697 805Q842 774 923 676T1005 434Q1005 213 853 92T421 -29Q327 -29 228 -11T22 45V240Q106 191 206 166T415 141Q605 141 704 216T804 434Q804 566 712 640T454 715H280V881H462Q611 881 690 940T769
1112Q769 1227 688 1288T454 1350Q371 1350 276 1332T67 1276V1456Q182 1488 282 1504T472 1520Q702 1520 836 1416T970 1133Q970 1009 899 924T697 805Z" />
<glyph unicode="4" glyph-name="four" horiz-adv-x="1094" d="M674 1317L164 520H674V1317ZM621 1493H875V520H1088V352H875V0H674V352H0V547L621 1493Z" />
<glyph unicode="5" glyph-name="five" horiz-adv-x="1001" d="M88 1493H881V1323H273V957Q317 972 361 979T449 987Q699 987 845 850T991 479Q991 238 841 105T418 -29Q324 -29 227 -13T25 35V238Q115 189 211 165T414 141Q587 141 688 232T789 479Q789 635 688
726T414 817Q333 817 253 799T88 743V1493Z" />
<glyph unicode="6" glyph-name="six" horiz-adv-x="1065" d="M550 827Q414 827 335 734T255 479Q255 318 334 225T550 131Q686 131 765 224T845 479Q845 641 766 734T550 827ZM951 1460V1276Q875 1312 798 1331T644 1350Q444 1350 339 1215T218 807Q277 894 366
940T562 987Q787 987 917 851T1048 479Q1048 249 912 110T550 -29Q291 -29 154 169T17 745Q17 1099 185 1309T636 1520Q712 1520 789 1505T951 1460Z" />
<glyph unicode="7" glyph-name="seven" horiz-adv-x="964" d="M3 1493H963V1407L421 0H210L720 1323H3V1493Z" />
<glyph unicode="8" glyph-name="eight" horiz-adv-x="1062" d="M531 709Q387 709 305 632T222 420Q222 285 304 208T531 131Q675 131 758 208T841 420Q841 555 759 632T531 709ZM329 795Q199 827 127 916T54 1133Q54 1312 181 1416T531 1520Q754 1520 881 1416T1008
1133Q1008 1005 936 916T734 795Q880 761 961 662T1043 420Q1043 203 911 87T531 -29Q284 -29 152 87T19 420Q19 563 101 662T329 795ZM255 1114Q255 998 327 933T531 868Q661 868 734 933T808 1114Q808 1230 735 1295T531 1360Q400 1360 328 1295T255 1114Z" />
<glyph unicode="9" glyph-name="nine" horiz-adv-x="1064" d="M113 31V215Q189 179 267 160T420 141Q620 141 725 275T846 684Q788 598 699 552T502 506Q278 506 148 641T17 1012Q17 1242 153 1381T515 1520Q774 1520 910 1322T1047 745Q1047 392 880 182T429
-29Q353 -29 275 -14T113 31ZM515 664Q651 664 730 757T810 1012Q810 1173 731 1266T515 1360Q379 1360 300 1267T220 1012Q220 850 299 757T515 664Z" />
<glyph unicode=":" glyph-name="colon" horiz-adv-x="246" d="M34 254H245V0H34V254ZM34 1059H245V805H34V1059Z" />
<glyph unicode=";" glyph-name="semicolon" horiz-adv-x="311" d="M88 1059H299V805H88V1059ZM88 254H299V82L135 -238H6L88 82V254Z" />
<glyph unicode="&lt;" glyph-name="less" horiz-adv-x="1292" d="M1282 1008L250 641L1282 276V94L0 559V725L1282 1190V1008Z" />
<glyph unicode="=" glyph-name="equal" horiz-adv-x="1320" d="M34 930H1316V762H34V930ZM34 522H1316V352H34V522Z" />
<glyph unicode="&gt;" glyph-name="greater" horiz-adv-x="1316" d="M34 1008V1190L1316 725V559L34 94V276L1064 641L34 1008Z" />
<glyph unicode="?" glyph-name="question" horiz-adv-x="805" d="M250 254H453V0H250V254ZM447 401H256V555Q256 656 284 721T402 872L492 961Q549 1014 574 1061T600 1157Q600 1246 535 1301T361 1356Q282 1356 193 1321T6 1219V1407Q100 1464 196 1492T396 1520Q580
1520 691 1423T803 1167Q803 1091 767 1023T641 868L553 782Q506 735 487 709T459 657Q453 636 450 606T447 524V401Z" />
<glyph unicode="@" glyph-name="at" horiz-adv-x="1799" d="M643 537Q643 394 714 313T909 231Q1032 231 1102 313T1173 537Q1173 677 1101 759T907 842Q786 842 715 760T643 537ZM1188 238Q1128 161 1051 125T870 88Q698 88 591 212T483 537Q483 737 591 862T870
987Q973 987 1051 950T1188 836V967H1331V231Q1477 253 1559 364T1642 653Q1642 760 1611 854T1515 1028Q1411 1159 1262 1228T936 1298Q813 1298 700 1266T491 1169Q334 1067 246 902T157 543Q157 384 214 245T381 0Q486 -104 624 -158T919 -213Q1048 -213 1172
-170T1401 -45L1491 -156Q1366 -253 1219 -304T919 -356Q734 -356 570 -291T278 -100Q150 25 83 189T16 543Q16 725 84 890T278 1180Q407 1307 576 1374T934 1442Q1146 1442 1327 1355T1632 1108Q1707 1010 1746 895T1786 657Q1786 394 1627 242T1188 84V238Z"
/>
<glyph unicode="A" glyph-name="A" horiz-adv-x="1376" d="M688 1294L414 551H963L688 1294ZM574 1493H803L1372 0H1162L1026 383H353L217 0H4L574 1493Z" />
<glyph unicode="B" glyph-name="B" horiz-adv-x="1111" d="M236 713V166H560Q723 166 801 233T880 440Q880 580 802 646T560 713H236ZM236 1327V877H535Q683 877 755 932T828 1102Q828 1215 756 1271T535 1327H236ZM34 1493H550Q781 1493 906 1397T1031 1124Q1031
987 967 906T779 805Q928 773 1010 672T1093 418Q1093 218 957 109T570 0H34V1493Z" />
<glyph unicode="C" glyph-name="C" horiz-adv-x="1244" d="M1220 1378V1165Q1118 1260 1003 1307T757 1354Q501 1354 365 1198T229 745Q229 450 365 294T757 137Q887 137 1002 184T1220 326V115Q1114 43 996 7T745 -29Q406 -29 211 178T16 745Q16 1105 211 1312T745
1520Q879 1520 997 1485T1220 1378Z" />
<glyph unicode="D" glyph-name="D" horiz-adv-x="1306" d="M236 1327V166H480Q789 166 932 306T1076 748Q1076 1048 933 1187T480 1327H236ZM34 1493H449Q883 1493 1086 1313T1289 748Q1289 362 1085 181T449 0H34V1493Z" />
<glyph unicode="E" glyph-name="E" horiz-adv-x="1002" d="M34 1493H978V1323H236V881H947V711H236V170H996V0H34V1493Z" />
<glyph unicode="F" glyph-name="F" horiz-adv-x="891" d="M33 1493H891V1323H235V883H827V713H235V0H33V1493Z" />
<glyph unicode="G" glyph-name="G" horiz-adv-x="1345" d="M1120 213V614H790V780H1320V139Q1203 56 1062 14T761 -29Q411 -29 214 175T16 745Q16 1111 213 1315T761 1520Q907 1520 1038 1484T1281 1378V1163Q1169 1258 1043 1306T778 1354Q504 1354 367 1201T229
745Q229 443 366 290T778 137Q885 137 969 155T1120 213Z" />
<glyph unicode="H" glyph-name="H" horiz-adv-x="1204" d="M33 1493H235V881H969V1493H1171V0H969V711H235V0H33V1493Z" />
<glyph unicode="I" glyph-name="I" horiz-adv-x="270" d="M33 1493H235V0H33V1493Z" />
<glyph unicode="J" glyph-name="J" horiz-adv-x="537" d="M307 1493H509V104Q509 -166 407 -288T77 -410H0V-240H63Q197 -240 252 -165T307 104V1493Z" />
<glyph unicode="K" glyph-name="K" horiz-adv-x="1228" d="M32 1493H234V862L904 1493H1164L423 797L1217 0H951L234 719V0H32V1493Z" />
<glyph unicode="L" glyph-name="L" horiz-adv-x="961" d="M32 1493H234V170H961V0H32V1493Z" />
<glyph unicode="M" glyph-name="M" horiz-adv-x="1430" d="M32 1493H333L714 477L1097 1493H1398V0H1201V1311L816 287H613L228 1311V0H32V1493Z" />
<glyph unicode="N" glyph-name="N" horiz-adv-x="1194" d="M32 1493H304L966 244V1493H1162V0H890L228 1249V0H32V1493Z" />
<glyph unicode="O" glyph-name="O" horiz-adv-x="1414" d="M708 1356Q488 1356 359 1192T229 745Q229 463 358 299T708 135Q928 135 1056 299T1185 745Q1185 1028 1057 1192T708 1356ZM708 1520Q1022 1520 1210 1310T1398 745Q1398 392 1210 182T708 -29Q393 -29
205 181T16 745Q16 1099 204 1309T708 1520Z" />
<glyph unicode="P" glyph-name="P" horiz-adv-x="995" d="M233 1327V766H487Q628 766 705 839T782 1047Q782 1181 705 1254T487 1327H233ZM31 1493H487Q738 1493 866 1380T995 1047Q995 826 867 713T487 600H233V0H31V1493Z" />
<glyph unicode="Q" glyph-name="Q" horiz-adv-x="1405" d="M700 1356Q480 1356 351 1192T221 745Q221 463 350 299T700 135Q920 135 1048 299T1177 745Q1177 1028 1049 1192T700 1356ZM983 27L1249 -264H1005L784 -25Q751 -27 734 -28T700 -29Q385 -29 197 181T8
745Q8 1099 196 1309T700 1520Q1014 1520 1202 1310T1390 745Q1390 485 1286 300T983 27Z" />
<glyph unicode="R" glyph-name="R" horiz-adv-x="1201" d="M739 700Q804 678 865 606T989 408L1194 0H977L786 383Q712 533 643 582T453 631H233V0H31V1493H487Q743 1493 869 1386T995 1063Q995 922 930 829T739 700ZM233 1327V797H487Q633 797 707 864T782 1063Q782
1194 708 1260T487 1327H233Z" />
<glyph unicode="S" glyph-name="S" horiz-adv-x="1085" d="M980 1444V1247Q865 1302 763 1329T566 1356Q401 1356 312 1292T222 1110Q222 1011 281 961T507 879L629 854Q855 811 962 703T1070 412Q1070 195 925 83T498 -29Q392 -29 273 -5T25 66V274Q148 205 266
170T498 135Q671 135 765 203T859 397Q859 507 792 569T570 662L447 686Q221 731 120 827T19 1094Q19 1292 158 1406T543 1520Q648 1520 757 1501T980 1444Z" />
<glyph unicode="T" glyph-name="T" horiz-adv-x="1265" d="M1 1493H1264V1323H734V0H531V1323H1V1493Z" />
<glyph unicode="U" glyph-name="U" horiz-adv-x="1193" d="M25 1493H228V586Q228 346 315 241T597 135Q791 135 878 240T965 586V1493H1168V561Q1168 269 1024 120T597 -29Q314 -29 170 120T25 561V1493Z" />
<glyph unicode="V" glyph-name="V" horiz-adv-x="1374" d="M573 0L3 1493H214L687 236L1161 1493H1371L802 0H573Z" />
<glyph unicode="W" glyph-name="W" horiz-adv-x="1918" d="M14 1493H218L532 231L845 1493H1072L1386 231L1699 1493H1904L1529 0H1275L960 1296L642 0H388L14 1493Z" />
<glyph unicode="X" glyph-name="X" horiz-adv-x="1311" d="M83 1493H300L671 938L1044 1493H1261L781 776L1293 0H1076L656 635L233 0H15L548 797L83 1493Z" />
<glyph unicode="Y" glyph-name="Y" horiz-adv-x="1261" d="M1 1493H218L632 879L1043 1493H1260L732 711V0H529V711L1 1493Z" />
<glyph unicode="Z" glyph-name="Z" horiz-adv-x="1245" d="M36 1493H1209V1339L265 170H1232V0H13V154L957 1323H36V1493Z" />
<glyph unicode="[" glyph-name="bracketleft" horiz-adv-x="455" d="M30 1556H454V1413H214V-127H454V-270H30V1556Z" />
<glyph unicode="\" glyph-name="backslash" horiz-adv-x="690" d="M170 1493L690 -190H520L0 1493H170Z" />
<glyph unicode="]" glyph-name="bracketright" horiz-adv-x="456" d="M425 1556V-270H1V-127H240V1413H1V1556H425Z" />
<glyph unicode="^" glyph-name="asciicircum" horiz-adv-x="1288" d="M742 1493L1285 936H1084L644 1331L204 936H3L546 1493H742Z" />
<glyph unicode="_" glyph-name="underscore" horiz-adv-x="1124" d="M1094 -340V-483H30V-340H1094Z" />
<glyph unicode="`" glyph-name="grave" horiz-adv-x="479" d="M197 1638L479 1264H326L0 1638H197Z" />
<glyph unicode="a" glyph-name="a" horiz-adv-x="986" d="M595 563Q372 563 286 512T200 338Q200 240 264 183T440 125Q593 125 685 233T778 522V563H595ZM962 639V0H778V170Q715 68 621 20T391 -29Q219 -29 118 67T16 326Q16 515 142 611T520 707H778V725Q778
852 695 921T460 991Q364 991 273 968T98 899V1069Q199 1108 294 1127T479 1147Q722 1147 842 1021T962 639Z" />
<glyph unicode="b" glyph-name="b" horiz-adv-x="1033" d="M841 559Q841 762 758 877T528 993Q382 993 299 878T215 559Q215 356 298 241T528 125Q674 125 757 240T841 559ZM215 950Q273 1050 361 1098T573 1147Q777 1147 904 985T1032 559Q1032 295 905 133T573
-29Q450 -29 362 19T215 168V0H30V1556H215V950Z" />
<glyph unicode="c" glyph-name="c" horiz-adv-x="924" d="M899 1077V905Q821 948 743 969T584 991Q405 991 306 878T207 559Q207 354 306 241T584 127Q664 127 742 148T899 213V43Q822 7 740 -11T564 -29Q311 -29 162 130T13 559Q13 833 163 990T576 1147Q661
1147 742 1130T899 1077Z" />
<glyph unicode="d" glyph-name="d" horiz-adv-x="1032" d="M818 950V1556H1002V0H818V168Q760 68 672 20T459 -29Q256 -29 129 133T1 559Q1 823 128 985T459 1147Q583 1147 671 1099T818 950ZM191 559Q191 356 274 241T504 125Q650 125 734 240T818 559Q818 762
734 877T504 993Q358 993 275 878T191 559Z" />
<glyph unicode="e" glyph-name="e" horiz-adv-x="1070" d="M1053 606V516H207Q219 326 321 227T607 127Q713 127 812 153T1010 231V57Q911 15 807 -7T596 -29Q328 -29 172 127T15 549Q15 824 163 985T564 1147Q790 1147 921 1002T1053 606ZM869 660Q867 811 785
901T566 991Q412 991 320 904T213 659L869 660Z" />
<glyph unicode="f" glyph-name="f" horiz-adv-x="714" d="M714 1556V1403H538Q439 1403 401 1363T362 1219V1120H665V977H362V0H177V977H1V1120H177V1198Q177 1385 264 1470T540 1556H714Z" />
<glyph unicode="g" glyph-name="g" horiz-adv-x="1040" d="M830 573Q830 773 748 883T516 993Q368 993 286 883T203 573Q203 374 285 264T516 154Q665 154 747 264T830 573ZM1014 139Q1014 -147 887 -286T498 -426Q401 -426 315 -412T148 -367V-188Q229 -232 308
-253T469 -274Q650 -274 740 -180T830 106V197Q773 98 684 49T471 0Q265 0 139 157T13 573Q13 833 139 990T471 1147Q595 1147 684 1098T830 950V1120H1014V139Z" />
<glyph unicode="h" glyph-name="h" horiz-adv-x="971" d="M968 676V0H784V670Q784 829 722 908T536 987Q387 987 301 892T215 633V0H30V1556H215V946Q281 1047 370 1097T577 1147Q770 1147 869 1028T968 676Z" />
<glyph unicode="i" glyph-name="i" horiz-adv-x="243" d="M28 1120H212V0H28V1120ZM28 1556H212V1323H28V1556Z" />
<glyph unicode="j" glyph-name="j" horiz-adv-x="437" d="M230 1120H414V-20Q414 -234 333 -330T70 -426H0V-270H49Q154 -270 192 -222T230 -20V1120ZM230 1556H414V1323H230V1556Z" />
<glyph unicode="k" glyph-name="k" horiz-adv-x="1024" d="M30 1556H215V637L764 1120H999L405 596L1024 0H784L215 547V0H30V1556Z" />
<glyph unicode="l" glyph-name="l" horiz-adv-x="246" d="M30 1556H214V0H30V1556Z" />
<glyph unicode="m" glyph-name="m" horiz-adv-x="1693" d="M909 905Q978 1029 1074 1088T1300 1147Q1475 1147 1570 1025T1665 676V0H1480V670Q1480 831 1423 909T1249 987Q1106 987 1023 892T940 633V0H755V670Q755 832 698 909T522 987Q381 987 298 892T215
633V0H30V1120H215V946Q278 1049 366 1098T575 1147Q697 1147 782 1085T909 905Z" />
<glyph unicode="n" glyph-name="n" horiz-adv-x="994" d="M968 676V0H784V670Q784 829 722 908T536 987Q387 987 301 892T215 633V0H30V1120H215V946Q281 1047 370 1097T577 1147Q770 1147 869 1028T968 676Z" />
<glyph unicode="o" glyph-name="o" horiz-adv-x="1060" d="M530 991Q382 991 296 876T210 559Q210 358 295 243T530 127Q677 127 763 243T849 559Q849 758 763 874T530 991ZM530 1147Q770 1147 907 991T1044 559Q1044 284 907 128T530 -29Q289 -29 153 127T16
559Q16 835 152 991T530 1147Z" />
<glyph unicode="p" glyph-name="p" horiz-adv-x="1033" d="M215 168V-426H30V1120H215V950Q273 1050 361 1098T573 1147Q777 1147 904 985T1032 559Q1032 295 905 133T573 -29Q450 -29 362 19T215 168ZM841 559Q841 762 758 877T528 993Q382 993 299 878T215 559Q215
356 298 241T528 125Q674 125 757 240T841 559Z" />
<glyph unicode="q" glyph-name="q" horiz-adv-x="1032" d="M191 559Q191 356 274 241T504 125Q650 125 734 240T818 559Q818 762 734 877T504 993Q358 993 275 878T191 559ZM818 168Q760 68 672 20T459 -29Q256 -29 129 133T1 559Q1 823 128 985T459 1147Q583
1147 671 1099T818 950V1120H1002V-426H818V168Z" />
<glyph unicode="r" glyph-name="r" horiz-adv-x="686" d="M686 948Q655 966 619 974T538 983Q382 983 299 882T215 590V0H30V1120H215V946Q273 1048 366 1097T592 1147Q611 1147 634 1145T685 1137L686 948Z" />
<glyph unicode="s" glyph-name="s" horiz-adv-x="891" d="M815 1087V913Q737 953 653 973T479 993Q342 993 274 951T205 825Q205 761 254 725T451 655L514 641Q710 599 792 523T875 309Q875 153 752 62T412 -29Q322 -29 225 -12T19 41V231Q121 178 220 152T416
125Q546 125 616 169T686 295Q686 370 636 410T414 487L350 502Q179 538 103 612T27 817Q27 975 139 1061T457 1147Q559 1147 649 1132T815 1087Z" />
<glyph unicode="t" glyph-name="t" horiz-adv-x="703" d="M324 1438V1120H703V977H324V369Q324 232 361 193T514 154H703V0H514Q301 0 220 79T139 369V977H4V1120H139V1438H324Z" />
<glyph unicode="u" glyph-name="u" horiz-adv-x="993" d="M25 442V1120H209V449Q209 290 271 211T457 131Q606 131 692 226T779 485V1120H963V0H779V172Q712 70 624 21T418 -29Q225 -29 125 91T25 442Z" />
<glyph unicode="v" glyph-name="v" horiz-adv-x="1098" d="M4 1120H199L549 180L899 1120H1094L674 0H424L4 1120Z" />
<glyph unicode="w" glyph-name="w" horiz-adv-x="1531" d="M14 1120H198L428 246L657 1120H874L1104 246L1333 1120H1517L1224 0H1007L766 918L524 0H307L14 1120Z" />
<glyph unicode="x" glyph-name="x" horiz-adv-x="1121" d="M1082 1120L677 575L1103 0H886L560 440L234 0H17L452 586L54 1120H271L568 721L865 1120H1082Z" />
<glyph unicode="y" glyph-name="y" horiz-adv-x="1103" d="M611 -104Q533 -304 459 -365T261 -426H114V-272H222Q298 -272 340 -236T433 -66L466 18L13 1120H208L558 244L908 1120H1103L611 -104Z" />
<glyph unicode="z" glyph-name="z" horiz-adv-x="938" d="M44 1120H918V952L226 147H918V0H19V168L711 973H44V1120Z" />
<glyph unicode="{" glyph-name="braceleft" horiz-adv-x="799" d="M791 -190V-334H729Q480 -334 396 -260T311 35V274Q311 425 257 483T61 541H0V684H61Q204 684 257 741T311 948V1188Q311 1409 395 1482T729 1556H791V1413H723Q582 1413 539 1369T496 1184V936Q496
779 451 708T295 612Q406 585 451 514T496 287V39Q496 -102 539 -146T723 -190H791Z" />
<glyph unicode="|" glyph-name="bar" horiz-adv-x="232" d="M200 1565V-483H30V1565H200Z" />
<glyph unicode="}" glyph-name="braceright" horiz-adv-x="799" d="M8 -190H78Q218 -190 260 -147T303 39V287Q303 443 348 514T504 612Q393 637 348 708T303 936V1184Q303 1326 261 1369T78 1413H8V1556H71Q320 1556 403 1483T487 1188V948Q487 799 541 742T737
684H799V541H737Q595 541 541 483T487 274V35Q487 -186 404 -260T71 -334H8V-190Z" />
<glyph unicode="~" glyph-name="asciitilde" horiz-adv-x="1315" d="M1299 817V639Q1194 560 1105 526T918 492Q808 492 662 551Q651 555 646 557Q639 560 624 565Q469 627 375 627Q287 627 201 589T17 467V645Q122 724 211 758T398 793Q508 793 655 733Q665 729
670 727Q678 724 692 719Q847 657 941 657Q1027 657 1111 695T1299 817Z" />
<glyph unicode="&#xa0;" glyph-name="nbspace" horiz-adv-x="651" />
<glyph unicode="&#xa1;" glyph-name="exclamdown" horiz-adv-x="264" d="M233 1239H30V1493H233V1239ZM233 0H30V655L51 1012H213L233 655V0Z" />
<glyph unicode="&#xa2;" glyph-name="cent" horiz-adv-x="889" d="M506 131V987Q359 969 277 856T195 559Q195 374 277 261T506 131ZM887 1077V905Q813 946 745 967T609 991L608 127Q678 132 746 153T887 213V43Q822 13 754 -4T608 -29V-313H506V-25Q265 -5 133
148T0 559Q0 817 132 970T506 1145V1432H608L609 1145Q682 1141 750 1125T887 1077Z" />
<glyph unicode="&#xa3;" glyph-name="sterling" horiz-adv-x="1013" d="M978 1460V1278Q902 1319 834 1339T705 1360Q557 1360 499 1283T441 993V778H832V635H441V170H998V0H5V170H241V635H42V778H241V1016Q241 1277 348 1398T687 1520Q748 1520 823 1505T978 1460Z" />
<glyph unicode="&#xa4;" glyph-name="currency" horiz-adv-x="1161" d="M819 993L1026 1202L1140 1087L934 881Q971 822 989 763T1007 641Q1007 578 988 521T929 406L1138 199L1024 86L817 293Q758 253 700 234T581 215Q523 215 463 233T342 289L135 82L22 197L229
403Q192 465 174 524T155 641Q155 705 174 763T231 877L24 1083L139 1198L346 991Q401 1030 459 1048T581 1067Q641 1067 699 1049T819 993ZM850 643Q850 755 773 832T581 909Q469 909 390 832T311 643Q311 529 389 451T581 373Q694 373 772 451T850 643Z" />
<glyph unicode="&#xa5;" glyph-name="yen" horiz-adv-x="1145" d="M1087 455H674V0H473V455H57V578H473V629L389 784H57V907H321L4 1493H194L573 793L950 1493H1141L823 907H1087V784H756L672 629V578H1087V455Z" />
<glyph unicode="&#xa6;" glyph-name="brokenbar" horiz-adv-x="219" d="M200 408V-350H30V408H200ZM200 1432V674H30V1432H200Z" />
<glyph unicode="&#xa7;" glyph-name="section" horiz-adv-x="857" d="M297 936Q234 890 203 845T172 754Q172 678 241 612T561 410Q624 455 655 500T686 592Q686 667 615 735T297 936ZM747 1462V1298Q664 1337 593 1356T465 1376Q368 1376 314 1336T260 1225Q260
1135 466 1020Q492 1005 506 997Q717 878 782 801T848 623Q848 533 802 463T663 340Q725 288 753 234T782 115Q782 -27 680 -111T405 -195Q332 -195 255 -181T90 -137V27Q177 -12 251 -31T383 -51Q485 -51 541 -9T598 109Q598 211 377 334L352 348Q138 468 74 544T10
723Q10 814 56 885T194 1006Q135 1050 106 1106T76 1231Q76 1361 176 1440T442 1520Q515 1520 591 1506T747 1462Z" />
<glyph unicode="&#xa8;" glyph-name="dieresis" horiz-adv-x="655" d="M421 1552H624V1350H421V1552ZM30 1552H233V1350H30V1552Z" />
<glyph unicode="&#xa9;" glyph-name="copyright" horiz-adv-x="1510" d="M755 1485Q907 1485 1038 1430T1279 1266Q1388 1157 1442 1026T1496 741Q1496 589 1442 459T1279 219Q1170 110 1039 55T755 0Q603 0 472 55T231 219Q122 328 68 458T14 741Q14 895 68 1026T231
1266Q340 1375 471 1430T755 1485ZM755 1382Q624 1382 511 1335T304 1194Q210 1100 162 986T114 741Q114 612 162 499T304 291Q398 197 511 150T755 102Q887 102 1000 149T1208 291Q1301 384 1347 497T1394 741Q1394 874 1347 987T1208 1194Q1114 1288 1001 1335T755
1382ZM1054 1137V1008Q988 1041 923 1057T792 1073Q643 1073 560 986T476 741Q476 582 561 495T802 408Q866 408 927 423T1054 473V346Q987 317 919 303T780 289Q564 289 439 411T313 741Q313 950 438 1071T780 1192Q853 1192 921 1178T1054 1137Z" />
<glyph unicode="&#xaa;" glyph-name="ordfeminine" horiz-adv-x="745" d="M37 592H725V469H37V592ZM723 1165V717H574V829Q530 766 458 732T293 698Q165 698 89 765T13 946Q13 1081 108 1150T392 1219H574V1223Q574 1314 516 1359T340 1405Q278 1405 210 1388T74
1337V1464Q147 1492 219 1506T361 1520Q544 1520 633 1432T723 1165ZM447 1104Q286 1104 223 1071T160 958Q160 894 209 856T340 817Q444 817 509 889T574 1075V1104H447Z" />
<glyph unicode="&#xab;" glyph-name="guillemotleft" horiz-adv-x="926" d="M905 1059V868L604 600L905 332V141L436 559V641L905 1059ZM471 1059V868L170 600L471 332V141L2 559V641L471 1059Z" />
<glyph unicode="&#xac;" glyph-name="logicalnot" horiz-adv-x="1312" d="M0 862H1282V287H1114V692H0V862Z" />
<glyph unicode="&#xad;" glyph-name="sfthyphen" horiz-adv-x="600" d="M30 643H569V479H30V643Z" />
<glyph unicode="&#xae;" glyph-name="registered" horiz-adv-x="1510" d="M755 1382Q624 1382 511 1335T304 1194Q210 1100 162 986T114 741Q114 612 162 499T304 291Q398 197 511 150T755 102Q887 102 1000 149T1208 291Q1301 384 1347 497T1394 741Q1394 874
1347 987T1208 1194Q1114 1288 1001 1335T755 1382ZM755 1485Q907 1485 1038 1430T1279 1266Q1388 1157 1442 1026T1496 741Q1496 589 1442 459T1279 219Q1170 110 1039 55T755 0Q603 0 472 55T231 219Q122 328 68 458T14 741Q14 895 68 1026T231 1266Q340 1375
471 1430T755 1485ZM728 1071H605V795H728Q838 795 881 826T925 932Q925 1008 881 1039T728 1071ZM735 1174Q911 1174 998 1115T1085 934Q1085 848 1033 792T884 719Q908 711 941 673T1021 561L1158 338H986L857 547Q798 643 762 668T671 694H605V338H450V1174H735Z"
/>
<glyph unicode="&#xaf;" glyph-name="overscore" horiz-adv-x="659" d="M30 1526H628V1378H30V1526Z" />
<glyph unicode="&#xb0;" glyph-name="degree" horiz-adv-x="663" d="M332 1391Q252 1391 197 1336T142 1200Q142 1121 197 1067T332 1012Q412 1012 467 1066T522 1200Q522 1279 467 1335T332 1391ZM332 1520Q396 1520 455 1496T557 1425Q603 1380 626 1323T649
1200Q649 1068 557 977T330 885Q195 885 105 975T15 1200Q15 1334 107 1427T332 1520Z" />
<glyph unicode="&#xb1;" glyph-name="plusminus" horiz-adv-x="1284" d="M726 1284V897H1283V727H726V340H558V727H1V897H558V1284H726ZM1 170H1283V0H1V170Z" />
<glyph unicode="&#xb2;" glyph-name="twosuperior" horiz-adv-x="638" d="M199 782H623V668H25V778Q59 809 122 865Q466 1170 466 1264Q466 1330 414 1370T277 1411Q225 1411 164 1394T31 1341V1464Q108 1492 174 1506T298 1520Q443 1520 530 1454T617 1280Q617
1141 286 857Q230 809 199 782Z" />
<glyph unicode="&#xb3;" glyph-name="threesuperior" horiz-adv-x="656" d="M447 1120Q539 1102 589 1048T640 911Q640 787 545 720T273 653Q216 653 154 663T21 694V815Q73 788 132 775T259 762Q368 762 428 801T488 911Q488 985 433 1023T269 1061H183V1169H277Q371
1169 419 1200T468 1292Q468 1350 418 1380T273 1411Q233 1411 182 1402T50 1370V1485Q123 1502 187 1511T306 1520Q450 1520 534 1461T619 1303Q619 1234 574 1186T447 1120Z" />
<glyph unicode="&#xb4;" glyph-name="acute" horiz-adv-x="479" d="M280 1638H479L153 1262H0L280 1638Z" />
<glyph unicode="&#xb5;" glyph-name="mu" horiz-adv-x="1109" d="M30 -426V1120H214V424Q214 279 283 205T487 131Q635 131 709 215T784 467V1120H968V258Q968 198 985 170T1040 141Q1049 141 1065 146T1109 164V16Q1068 -7 1032 -18T960 -29Q891 -29 850 10T794
129Q744 50 672 11T501 -29Q399 -29 328 10T214 127V-426H30Z" />
<glyph unicode="&#xb6;" glyph-name="paragraph" horiz-adv-x="954" d="M476 1493H924V-197H783V1370H593V-197H451V649Q236 666 119 776T1 1071Q1 1261 131 1377T476 1493Z" />
<glyph unicode="&#xb7;" glyph-name="middot" horiz-adv-x="273" d="M30 838H241V584H30V838Z" />
<glyph unicode="&#xb8;" glyph-name="cedilla" horiz-adv-x="432" d="M307 0Q362 -62 389 -114T416 -215Q416 -304 356 -349T178 -395Q132 -395 89 -389T2 -371V-240Q36 -257 73 -264T157 -272Q216 -272 246 -248T276 -178Q276 -148 255 -105T188 0H307Z" />
<glyph unicode="&#xb9;" glyph-name="onesuperior" horiz-adv-x="595" d="M38 778H242V1389L19 1348V1464L249 1503H386V778H591V668H38V778Z" />
<glyph unicode="&#xba;" glyph-name="ordmasculine" horiz-adv-x="798" d="M56 592H744V469H56V592ZM400 1520Q579 1520 682 1410T785 1108Q785 917 682 808T400 698Q221 698 117 808T13 1108Q13 1299 117 1409T400 1520ZM400 1405Q295 1405 232 1325T169 1108Q169
975 232 895T400 815Q505 815 567 895T630 1108Q630 1245 568 1325T400 1405Z" />
<glyph unicode="&#xbb;" glyph-name="guillemotright" horiz-adv-x="935" d="M30 1059L499 641V559L30 141V332L331 600L30 868V1059ZM464 1059L933 641V559L464 141V332L765 600L464 868V1059Z" />
<glyph unicode="&#xbc;" glyph-name="onequarter" horiz-adv-x="1985" d="M38 778H242V1389L19 1348V1464L249 1503H386V778H591V668H38V778ZM1577 715L1268 296H1577V715ZM1555 836H1721V296H1856V187H1721V1H1577V187H1163V308L1555 836ZM1753 1520H1913L981
-29H821L1753 1520Z" />
<glyph unicode="&#xbd;" glyph-name="onehalf" horiz-adv-x="1985" d="M38 778H242V1389L19 1348V1464L249 1503H386V778H591V668H38V778ZM1362 115H1786V1H1188V111Q1222 142 1285 198Q1629 503 1629 597Q1629 663 1577 703T1440 744Q1388 744 1327 727T1194
674V797Q1271 825 1337 839T1461 853Q1606 853 1693 787T1780 613Q1780 474 1449 190Q1393 142 1362 115ZM1753 1520H1913L981 -29H821L1753 1520Z" />
<glyph unicode="&#xbe;" glyph-name="threequarters" horiz-adv-x="1985" d="M447 1120Q539 1102 589 1048T640 911Q640 787 545 720T273 653Q216 653 154 663T21 694V815Q73 788 132 775T259 762Q368 762 428 801T488 911Q488 985 433 1023T269 1061H183V1169H277Q371
1169 419 1200T468 1292Q468 1350 418 1380T273 1411Q233 1411 182 1402T50 1370V1485Q123 1502 187 1511T306 1520Q450 1520 534 1461T619 1303Q619 1234 574 1186T447 1120ZM1577 715L1268 296H1577V715ZM1555 836H1721V296H1856V187H1721V1H1577V187H1163V308L1555
836ZM1753 1520H1913L981 -29H821L1753 1520Z" />
<glyph unicode="&#xbf;" glyph-name="questiondown" horiz-adv-x="805" d="M359 1092H549V936Q549 835 522 770T404 618L314 530Q256 477 231 430T205 334Q205 245 270 190T445 135Q523 135 613 170T799 272V84Q705 27 609 -1T410 -29Q226 -29 114 68T2 324Q2
400 38 468T164 623L252 709Q300 756 319 782T346 834Q353 855 356 885T359 969V1092ZM555 1239H353V1493H555V1239Z" />
<glyph unicode="&#xc0;" glyph-name="Agrave" horiz-adv-x="1401" d="M688 1294L414 551H963L688 1294ZM574 1493H803L1372 0H1162L1026 383H353L217 0H4L574 1493ZM1399 1899L1595 1635H1442L1212 1899H1399Z" />
<glyph unicode="&#xc1;" glyph-name="Aacute" horiz-adv-x="1401" d="M688 1294L414 551H963L688 1294ZM574 1493H803L1372 0H1162L1026 383H353L217 0H4L574 1493ZM1410 1899H1595L1367 1635H1214L1410 1899Z" />
<glyph unicode="&#xc2;" glyph-name="Acircumflex" horiz-adv-x="1401" d="M688 1294L414 551H963L688 1294ZM574 1493H803L1372 0H1162L1026 383H353L217 0H4L574 1493ZM1430 1901H1618L1829 1635H1690L1524 1813L1358 1635H1219L1430 1901Z" />
<glyph unicode="&#xc3;" glyph-name="Atilde" horiz-adv-x="1401" d="M688 1294L414 551H963L688 1294ZM574 1493H803L1372 0H1162L1026 383H353L217 0H4L574 1493ZM1559 1710L1502 1743Q1477 1757 1462 1762T1434 1768Q1398 1768 1378 1743T1358 1673V1667H1233Q1233
1768 1284 1827T1422 1886Q1458 1886 1488 1878T1567 1843L1624 1813Q1647 1800 1664 1794T1696 1788Q1728 1788 1748 1813T1768 1880V1886H1893Q1891 1786 1840 1727T1704 1667Q1670 1667 1641 1675T1559 1710Z" />
<glyph unicode="&#xc4;" glyph-name="Adieresis" horiz-adv-x="1401" d="M688 1294L414 551H963L688 1294ZM574 1493H803L1372 0H1162L1026 383H353L217 0H4L574 1493ZM1633 1870H1836V1667H1633V1870ZM1242 1870H1445V1667H1242V1870Z" />
<glyph unicode="&#xc5;" glyph-name="Aring" horiz-adv-x="1377" d="M841 1626Q841 1689 797 1733T689 1778Q625 1778 582 1735T538 1626Q538 1563 582 1519T689 1475Q752 1475 796 1519T841 1626ZM689 1294L417 551H962L689 1294ZM538 1397Q477 1438 446 1495T415
1626Q415 1741 494 1821T689 1901Q803 1901 883 1821T964 1626Q964 1556 933 1497T841 1397L1373 0H1163L1027 383H354L218 0H5L538 1397Z" />
<glyph unicode="&#xc6;" glyph-name="AE" horiz-adv-x="1878" d="M1844 1493V1323H1103V881H1814V711H1103V170H1863V0H900V383H372L212 0H7L632 1493H1844ZM771 1335L441 551H900V1335H771Z" />
<glyph unicode="&#xc7;" glyph-name="Ccedilla" horiz-adv-x="1430" d="M1220 1378V1165Q1118 1260 1003 1307T757 1354Q501 1354 365 1198T229 745Q229 450 365 294T757 137Q887 137 1002 184T1220 326V115Q1114 43 996 7T745 -29Q406 -29 211 178T16 745Q16
1105 211 1312T745 1520Q879 1520 997 1485T1220 1378ZM608 0Q663 -62 690 -114T717 -215Q717 -304 657 -349T479 -395Q433 -395 390 -389T303 -371V-240Q337 -257 374 -264T458 -272Q517 -272 547 -248T577 -178Q577 -148 556 -105T489 0H608Z" />
<glyph unicode="&#xc8;" glyph-name="Egrave" horiz-adv-x="1294" d="M34 1493H978V1323H236V881H947V711H236V170H996V0H34V1493ZM1369 1899L1565 1635H1412L1182 1899H1369Z" />
<glyph unicode="&#xc9;" glyph-name="Eacute" horiz-adv-x="1294" d="M34 1493H978V1323H236V881H947V711H236V170H996V0H34V1493ZM1380 1899H1565L1337 1635H1184L1380 1899Z" />
<glyph unicode="&#xca;" glyph-name="Ecircumflex" horiz-adv-x="1294" d="M34 1493H978V1323H236V881H947V711H236V170H996V0H34V1493ZM1400 1901H1588L1799 1635H1660L1494 1813L1328 1635H1189L1400 1901Z" />
<glyph unicode="&#xcb;" glyph-name="Edieresis" horiz-adv-x="1294" d="M34 1493H978V1323H236V881H947V711H236V170H996V0H34V1493ZM1603 1870H1806V1667H1603V1870ZM1212 1870H1415V1667H1212V1870Z" />
<glyph unicode="&#xcc;" glyph-name="Igrave" horiz-adv-x="604" d="M33 1493H235V0H33V1493ZM1002 1899L1198 1635H1045L815 1899H1002Z" />
<glyph unicode="&#xcd;" glyph-name="Iacute" horiz-adv-x="604" d="M33 1493H235V0H33V1493ZM1013 1899H1198L970 1635H817L1013 1899Z" />
<glyph unicode="&#xce;" glyph-name="Icircumflex" horiz-adv-x="604" d="M33 1493H235V0H33V1493ZM1033 1901H1221L1432 1635H1293L1127 1813L961 1635H822L1033 1901Z" />
<glyph unicode="&#xcf;" glyph-name="Idieresis" horiz-adv-x="604" d="M33 1493H235V0H33V1493ZM1236 1870H1439V1667H1236V1870ZM845 1870H1048V1667H845V1870Z" />
<glyph unicode="&#xd0;" glyph-name="Eth" horiz-adv-x="1483" d="M211 1493H627Q1060 1493 1263 1313T1466 748Q1466 362 1263 181T627 0H211V700H10V844H211V1493ZM414 1327V844H750V700H414V166H657Q966 166 1109 306T1253 748Q1253 1048 1110 1187T657 1327H414Z" />
<glyph unicode="&#xd1;" glyph-name="Ntilde" horiz-adv-x="1532" d="M32 1493H304L966 244V1493H1162V0H890L228 1249V0H32V1493ZM1625 1710L1568 1743Q1543 1757 1528 1762T1500 1768Q1464 1768 1444 1743T1424 1673V1667H1299Q1299 1768 1350 1827T1488 1886Q1524
1886 1554 1878T1633 1843L1690 1813Q1713 1800 1730 1794T1762 1788Q1794 1788 1814 1813T1834 1880V1886H1959Q1957 1786 1906 1727T1770 1667Q1736 1667 1707 1675T1625 1710Z" />
<glyph unicode="&#xd2;" glyph-name="Ograve" horiz-adv-x="1612" d="M708 1356Q488 1356 359 1192T229 745Q229 463 358 299T708 135Q928 135 1056 299T1185 745Q1185 1028 1057 1192T708 1356ZM708 1520Q1022 1520 1210 1310T1398 745Q1398 392 1210 182T708
-29Q393 -29 205 181T16 745Q16 1099 204 1309T708 1520ZM1506 1899L1702 1635H1549L1319 1899H1506Z" />
<glyph unicode="&#xd3;" glyph-name="Oacute" horiz-adv-x="1612" d="M708 1356Q488 1356 359 1192T229 745Q229 463 358 299T708 135Q928 135 1056 299T1185 745Q1185 1028 1057 1192T708 1356ZM708 1520Q1022 1520 1210 1310T1398 745Q1398 392 1210 182T708
-29Q393 -29 205 181T16 745Q16 1099 204 1309T708 1520ZM1517 1899H1702L1474 1635H1321L1517 1899Z" />
<glyph unicode="&#xd4;" glyph-name="Ocircumflex" horiz-adv-x="1612" d="M708 1356Q488 1356 359 1192T229 745Q229 463 358 299T708 135Q928 135 1056 299T1185 745Q1185 1028 1057 1192T708 1356ZM708 1520Q1022 1520 1210 1310T1398 745Q1398 392 1210 182T708
-29Q393 -29 205 181T16 745Q16 1099 204 1309T708 1520ZM1537 1901H1725L1936 1635H1797L1631 1813L1465 1635H1326L1537 1901Z" />
<glyph unicode="&#xd5;" glyph-name="Otilde" horiz-adv-x="1612" d="M708 1356Q488 1356 359 1192T229 745Q229 463 358 299T708 135Q928 135 1056 299T1185 745Q1185 1028 1057 1192T708 1356ZM708 1520Q1022 1520 1210 1310T1398 745Q1398 392 1210 182T708
-29Q393 -29 205 181T16 745Q16 1099 204 1309T708 1520ZM1666 1710L1609 1743Q1584 1757 1569 1762T1541 1768Q1505 1768 1485 1743T1465 1673V1667H1340Q1340 1768 1391 1827T1529 1886Q1565 1886 1595 1878T1674 1843L1731 1813Q1754 1800 1771 1794T1803 1788Q1835
1788 1855 1813T1875 1880V1886H2000Q1998 1786 1947 1727T1811 1667Q1777 1667 1748 1675T1666 1710Z" />
<glyph unicode="&#xd6;" glyph-name="Odieresis" horiz-adv-x="1612" d="M708 1356Q488 1356 359 1192T229 745Q229 463 358 299T708 135Q928 135 1056 299T1185 745Q1185 1028 1057 1192T708 1356ZM708 1520Q1022 1520 1210 1310T1398 745Q1398 392 1210 182T708
-29Q393 -29 205 181T16 745Q16 1099 204 1309T708 1520ZM1740 1870H1943V1667H1740V1870ZM1349 1870H1552V1667H1349V1870Z" />
<glyph unicode="&#xd7;" glyph-name="multiply" horiz-adv-x="1201" d="M1178 1100L721 641L1178 184L1059 63L600 522L141 63L23 184L479 641L23 1100L141 1221L600 762L1059 1221L1178 1100Z" />
<glyph unicode="&#xd8;" glyph-name="Oslash" horiz-adv-x="1440" d="M1121 1112L404 266Q466 202 546 169T722 135Q942 135 1070 299T1199 745Q1199 857 1180 949T1121 1112ZM1039 1225Q978 1289 898 1322T722 1356Q502 1356 373 1192T243 745Q243 633 262 539T321
377L1039 1225ZM187 219Q109 321 70 453T30 745Q30 1099 218 1309T722 1520Q852 1520 962 1482T1160 1368L1322 1559L1424 1470L1254 1272Q1332 1169 1372 1036T1412 745Q1412 392 1224 182T722 -29Q594 -29 484 8T282 121L120 -70L17 18L187 219Z" />
<glyph unicode="&#xd9;" glyph-name="Ugrave" horiz-adv-x="1499" d="M25 1493H228V586Q228 346 315 241T597 135Q791 135 878 240T965 586V1493H1168V561Q1168 269 1024 120T597 -29Q314 -29 170 120T25 561V1493ZM1449 1899L1645 1635H1492L1262 1899H1449Z" />
<glyph unicode="&#xda;" glyph-name="Uacute" horiz-adv-x="1499" d="M25 1493H228V586Q228 346 315 241T597 135Q791 135 878 240T965 586V1493H1168V561Q1168 269 1024 120T597 -29Q314 -29 170 120T25 561V1493ZM1460 1899H1645L1417 1635H1264L1460 1899Z" />
<glyph unicode="&#xdb;" glyph-name="Ucircumflex" horiz-adv-x="1499" d="M25 1493H228V586Q228 346 315 241T597 135Q791 135 878 240T965 586V1493H1168V561Q1168 269 1024 120T597 -29Q314 -29 170 120T25 561V1493ZM1480 1901H1668L1879 1635H1740L1574 1813L1408
1635H1269L1480 1901Z" />
<glyph unicode="&#xdc;" glyph-name="Udieresis" horiz-adv-x="1499" d="M25 1493H228V586Q228 346 315 241T597 135Q791 135 878 240T965 586V1493H1168V561Q1168 269 1024 120T597 -29Q314 -29 170 120T25 561V1493ZM1683 1870H1886V1667H1683V1870ZM1292 1870H1495V1667H1292V1870Z"
/>
<glyph unicode="&#xdd;" glyph-name="Yacute" horiz-adv-x="1251" d="M1 1493H218L632 879L1043 1493H1260L732 711V0H529V711L1 1493ZM1337 1899H1522L1294 1635H1141L1337 1899Z" />
<glyph unicode="&#xde;" glyph-name="Thorn" horiz-adv-x="994" d="M30 1493H232V1229H486Q737 1229 865 1117T994 784Q994 564 866 451T486 338H232V0H30V1493ZM232 1063V504H486Q627 504 704 577T781 784Q781 918 705 990T486 1063H232Z" />
<glyph unicode="&#xdf;" glyph-name="germandbls" horiz-adv-x="1047" d="M27 1137Q27 1337 146 1446T484 1556Q692 1556 801 1440T914 1100Q763 1092 679 1035T595 881Q595 834 624 794T718 711L775 674Q941 568 989 497T1037 326Q1037 154 925 63T601 -29Q537
-29 469 -17T328 20V184Q408 154 478 140T613 125Q729 125 789 172T849 311Q849 374 820 416T689 520L597 575Q501 634 458 701T414 860Q414 987 497 1073T732 1188Q724 1291 659 1347T480 1403Q350 1403 282 1334T214 1133V0H27V1137Z" />
<glyph unicode="&#xe0;" glyph-name="agrave" horiz-adv-x="1255" d="M595 563Q372 563 286 512T200 338Q200 240 264 183T440 125Q593 125 685 233T778 522V563H595ZM962 639V0H778V170Q715 68 621 20T391 -29Q219 -29 118 67T16 326Q16 515 142 611T520 707H778V725Q778
852 695 921T460 991Q364 991 273 968T98 899V1069Q199 1108 294 1127T479 1147Q722 1147 842 1021T962 639ZM279 1638L561 1264H408L82 1638H279Z" />
<glyph unicode="&#xe1;" glyph-name="aacute" horiz-adv-x="1255" d="M595 563Q372 563 286 512T200 338Q200 240 264 183T440 125Q593 125 685 233T778 522V563H595ZM962 639V0H778V170Q715 68 621 20T391 -29Q219 -29 118 67T16 326Q16 515 142 611T520 707H778V725Q778
852 695 921T460 991Q364 991 273 968T98 899V1069Q199 1108 294 1127T479 1147Q722 1147 842 1021T962 639ZM362 1638H561L235 1262H82L362 1638Z" />
<glyph unicode="&#xe2;" glyph-name="acircumflex" horiz-adv-x="1255" d="M595 563Q372 563 286 512T200 338Q200 240 264 183T440 125Q593 125 685 233T778 522V563H595ZM962 639V0H778V170Q715 68 621 20T391 -29Q219 -29 118 67T16 326Q16 515 142 611T520
707H778V725Q778 852 695 921T460 991Q364 991 273 968T98 899V1069Q199 1108 294 1127T479 1147Q722 1147 842 1021T962 639ZM332 1638H480L725 1262H586L406 1507L226 1262H87L332 1638Z" />
<glyph unicode="&#xe3;" glyph-name="atilde" horiz-adv-x="1255" d="M595 563Q372 563 286 512T200 338Q200 240 264 183T440 125Q593 125 685 233T778 522V563H595ZM962 639V0H778V170Q715 68 621 20T391 -29Q219 -29 118 67T16 326Q16 515 142 611T520 707H778V725Q778
852 695 921T460 991Q364 991 273 968T98 899V1069Q199 1108 294 1127T479 1147Q722 1147 842 1021T962 639ZM429 1370L372 1425Q350 1445 334 1454T304 1464Q266 1464 248 1428T228 1309H103Q105 1444 156 1517T298 1591Q336 1591 368 1577T437 1530L494 1475Q516
1455 532 1446T562 1436Q600 1436 618 1472T638 1591H763Q761 1456 710 1383T568 1309Q530 1309 498 1323T429 1370Z" />
<glyph unicode="&#xe4;" glyph-name="adieresis" horiz-adv-x="1255" d="M595 563Q372 563 286 512T200 338Q200 240 264 183T440 125Q593 125 685 233T778 522V563H595ZM962 639V0H778V170Q715 68 621 20T391 -29Q219 -29 118 67T16 326Q16 515 142 611T520 707H778V725Q778
852 695 921T460 991Q364 991 273 968T98 899V1069Q199 1108 294 1127T479 1147Q722 1147 842 1021T962 639ZM503 1552H706V1350H503V1552ZM112 1552H315V1350H112V1552Z" />
<glyph unicode="&#xe5;" glyph-name="aring" horiz-adv-x="1255" d="M595 563Q372 563 286 512T200 338Q200 240 264 183T440 125Q593 125 685 233T778 522V563H595ZM962 639V0H778V170Q715 68 621 20T391 -29Q219 -29 118 67T16 326Q16 515 142 611T520 707H778V725Q778
852 695 921T460 991Q364 991 273 968T98 899V1069Q199 1108 294 1127T479 1147Q722 1147 842 1021T962 639ZM523 1524Q523 1587 479 1631T371 1675Q306 1675 263 1632T219 1524Q219 1459 262 1416T371 1372Q435 1372 479 1416T523 1524ZM645 1524Q645 1409 566
1329T371 1249Q256 1249 177 1329T97 1524Q97 1639 176 1718T371 1798Q486 1798 565 1719T645 1524Z" />
<glyph unicode="&#xe6;" glyph-name="ae" horiz-adv-x="1824" d="M1617 660Q1616 811 1534 901T1314 991Q1161 991 1069 904T962 659L1617 660ZM894 963Q968 1053 1074 1100T1312 1147Q1538 1147 1670 1002T1802 606V516H956Q968 325 1070 225T1355 125Q1459 125
1559 151T1759 231V57Q1659 15 1555 -7T1345 -29Q1178 -29 1054 31T853 211Q780 91 672 31T421 -29Q232 -29 127 64T22 326Q22 515 148 611T526 707H784V725Q784 852 701 921T466 991Q370 991 279 968T104 899V1069Q205 1108 300 1127T485 1147Q627 1147 733 1099T894
963ZM601 563Q378 563 292 512T206 338Q206 240 270 183T446 125Q599 125 691 233T784 522V563H601Z" />
<glyph unicode="&#xe7;" glyph-name="ccedilla" horiz-adv-x="1126" d="M899 1077V905Q821 948 743 969T584 991Q405 991 306 878T207 559Q207 354 306 241T584 127Q664 127 742 148T899 213V43Q822 7 740 -11T564 -29Q311 -29 162 130T13 559Q13 833 163 990T576
1147Q661 1147 742 1130T899 1077ZM450 0Q505 -62 532 -114T559 -215Q559 -304 499 -349T321 -395Q275 -395 232 -389T145 -371V-240Q179 -257 216 -264T300 -272Q359 -272 389 -248T419 -178Q419 -148 398 -105T331 0H450Z" />
<glyph unicode="&#xe8;" glyph-name="egrave" horiz-adv-x="1260" d="M1053 606V516H207Q219 326 321 227T607 127Q713 127 812 153T1010 231V57Q911 15 807 -7T596 -29Q328 -29 172 127T15 549Q15 824 163 985T564 1147Q790 1147 921 1002T1053 606ZM869 660Q867
811 785 901T566 991Q412 991 320 904T213 659L869 660ZM336 1638L618 1264H465L139 1638H336Z" />
<glyph unicode="&#xe9;" glyph-name="eacute" horiz-adv-x="1260" d="M1053 606V516H207Q219 326 321 227T607 127Q713 127 812 153T1010 231V57Q911 15 807 -7T596 -29Q328 -29 172 127T15 549Q15 824 163 985T564 1147Q790 1147 921 1002T1053 606ZM869 660Q867
811 785 901T566 991Q412 991 320 904T213 659L869 660ZM419 1638H618L292 1262H139L419 1638Z" />
<glyph unicode="&#xea;" glyph-name="ecircumflex" horiz-adv-x="1260" d="M1053 606V516H207Q219 326 321 227T607 127Q713 127 812 153T1010 231V57Q911 15 807 -7T596 -29Q328 -29 172 127T15 549Q15 824 163 985T564 1147Q790 1147 921 1002T1053 606ZM869
660Q867 811 785 901T566 991Q412 991 320 904T213 659L869 660ZM389 1638H537L782 1262H643L463 1507L283 1262H144L389 1638Z" />
<glyph unicode="&#xeb;" glyph-name="edieresis" horiz-adv-x="1260" d="M1053 606V516H207Q219 326 321 227T607 127Q713 127 812 153T1010 231V57Q911 15 807 -7T596 -29Q328 -29 172 127T15 549Q15 824 163 985T564 1147Q790 1147 921 1002T1053 606ZM869 660Q867
811 785 901T566 991Q412 991 320 904T213 659L869 660ZM560 1552H763V1350H560V1552ZM169 1552H372V1350H169V1552Z" />
<glyph unicode="&#xec;" glyph-name="igrave" horiz-adv-x="569" d="M-29 1638L253 1264H100L-226 1638H-29ZM30 1120H214V0H30V1120Z" />
<glyph unicode="&#xed;" glyph-name="iacute" horiz-adv-x="569" d="M54 1638H253L-73 1262H-226L54 1638ZM30 1120H214V0H30V1120Z" />
<glyph unicode="&#xee;" glyph-name="icircumflex" horiz-adv-x="569" d="M30 1120H214V0H30V1120ZM24 1638H172L417 1262H278L98 1507L-82 1262H-221L24 1638Z" />
<glyph unicode="&#xef;" glyph-name="idieresis" horiz-adv-x="569" d="M30 1120H214V0H30V1120ZM195 1552H398V1350H195V1552ZM-196 1552H7V1350H-196V1552Z" />
<glyph unicode="&#xf0;" glyph-name="eth" horiz-adv-x="1051" d="M736 915Q686 932 642 940T557 948Q390 948 298 840T205 537Q205 349 292 238T525 127Q670 127 757 238T844 537Q844 659 817 753T736 915ZM799 1141Q925 998 982 854T1039 537Q1039 282 897 127T525
-29Q294 -29 153 126T11 537Q11 787 149 942T508 1098Q526 1098 552 1096T620 1088L461 1268L142 1161L109 1260L390 1352L209 1556H437L564 1411L897 1522L930 1425L635 1327L799 1141Z" />
<glyph unicode="&#xf1;" glyph-name="ntilde" horiz-adv-x="1298" d="M968 676V0H784V670Q784 829 722 908T536 987Q387 987 301 892T215 633V0H30V1120H215V946Q281 1047 370 1097T577 1147Q770 1147 869 1028T968 676ZM499 1370L442 1425Q420 1445 404 1454T374
1464Q336 1464 318 1428T298 1309H173Q175 1444 226 1517T368 1591Q406 1591 438 1577T507 1530L564 1475Q586 1455 602 1446T632 1436Q670 1436 688 1472T708 1591H833Q831 1456 780 1383T638 1309Q600 1309 568 1323T499 1370Z" />
<glyph unicode="&#xf2;" glyph-name="ograve" horiz-adv-x="1253" d="M530 991Q382 991 296 876T210 559Q210 358 295 243T530 127Q677 127 763 243T849 559Q849 758 763 874T530 991ZM530 1147Q770 1147 907 991T1044 559Q1044 284 907 128T530 -29Q289 -29 153
127T16 559Q16 835 152 991T530 1147ZM312 1638L594 1264H441L115 1638H312Z" />
<glyph unicode="&#xf3;" glyph-name="oacute" horiz-adv-x="1253" d="M530 991Q382 991 296 876T210 559Q210 358 295 243T530 127Q677 127 763 243T849 559Q849 758 763 874T530 991ZM530 1147Q770 1147 907 991T1044 559Q1044 284 907 128T530 -29Q289 -29 153
127T16 559Q16 835 152 991T530 1147ZM395 1638H594L268 1262H115L395 1638Z" />
<glyph unicode="&#xf4;" glyph-name="ocircumflex" horiz-adv-x="1253" d="M530 991Q382 991 296 876T210 559Q210 358 295 243T530 127Q677 127 763 243T849 559Q849 758 763 874T530 991ZM530 1147Q770 1147 907 991T1044 559Q1044 284 907 128T530 -29Q289
-29 153 127T16 559Q16 835 152 991T530 1147ZM365 1638H513L758 1262H619L439 1507L259 1262H120L365 1638Z" />
<glyph unicode="&#xf5;" glyph-name="otilde" horiz-adv-x="1253" d="M530 991Q382 991 296 876T210 559Q210 358 295 243T530 127Q677 127 763 243T849 559Q849 758 763 874T530 991ZM530 1147Q770 1147 907 991T1044 559Q1044 284 907 128T530 -29Q289 -29 153
127T16 559Q16 835 152 991T530 1147ZM462 1370L405 1425Q383 1445 367 1454T337 1464Q299 1464 281 1428T261 1309H136Q138 1444 189 1517T331 1591Q369 1591 401 1577T470 1530L527 1475Q549 1455 565 1446T595 1436Q633 1436 651 1472T671 1591H796Q794 1456
743 1383T601 1309Q563 1309 531 1323T462 1370Z" />
<glyph unicode="&#xf6;" glyph-name="odieresis" horiz-adv-x="1253" d="M530 991Q382 991 296 876T210 559Q210 358 295 243T530 127Q677 127 763 243T849 559Q849 758 763 874T530 991ZM530 1147Q770 1147 907 991T1044 559Q1044 284 907 128T530 -29Q289 -29
153 127T16 559Q16 835 152 991T530 1147ZM536 1552H739V1350H536V1552ZM145 1552H348V1350H145V1552Z" />
<glyph unicode="&#xf7;" glyph-name="divide" horiz-adv-x="1282" d="M518 1135H764V889H518V1135ZM518 395H764V150H518V395ZM0 727H1282V557H0V727Z" />
<glyph unicode="&#xf8;" glyph-name="oslash" horiz-adv-x="1133" d="M846 801L359 209Q400 167 451 147T568 127Q715 127 801 243T887 559Q887 638 877 696T846 801ZM775 909Q733 950 682 970T568 991Q417 991 333 874T248 545Q248 473 257 418T287 317L775 909ZM162
166Q108 243 81 341T54 559Q54 835 190 991T568 1147Q661 1147 740 1122T887 1044L1026 1212L1121 1133L975 954Q1028 877 1055 778T1082 559Q1082 284 945 128T568 -29Q472 -29 392 -3T248 74L109 -94L13 -16L162 166Z" />
<glyph unicode="&#xf9;" glyph-name="ugrave" horiz-adv-x="1298" d="M25 442V1120H209V449Q209 290 271 211T457 131Q606 131 692 226T779 485V1120H963V0H779V172Q712 70 624 21T418 -29Q225 -29 125 91T25 442ZM320 1638L602 1264H449L123 1638H320Z" />
<glyph unicode="&#xfa;" glyph-name="uacute" horiz-adv-x="1298" d="M25 442V1120H209V449Q209 290 271 211T457 131Q606 131 692 226T779 485V1120H963V0H779V172Q712 70 624 21T418 -29Q225 -29 125 91T25 442ZM403 1638H602L276 1262H123L403 1638Z" />
<glyph unicode="&#xfb;" glyph-name="ucircumflex" horiz-adv-x="1298" d="M25 442V1120H209V449Q209 290 271 211T457 131Q606 131 692 226T779 485V1120H963V0H779V172Q712 70 624 21T418 -29Q225 -29 125 91T25 442ZM373 1638H521L766 1262H627L447 1507L267
1262H128L373 1638Z" />
<glyph unicode="&#xfc;" glyph-name="udieresis" horiz-adv-x="1298" d="M25 442V1120H209V449Q209 290 271 211T457 131Q606 131 692 226T779 485V1120H963V0H779V172Q712 70 624 21T418 -29Q225 -29 125 91T25 442ZM544 1552H747V1350H544V1552ZM153 1552H356V1350H153V1552Z"
/>
<glyph unicode="&#xfd;" glyph-name="yacute" horiz-adv-x="1212" d="M611 -104Q533 -304 459 -365T261 -426H114V-272H222Q298 -272 340 -236T433 -66L466 18L13 1120H208L558 244L908 1120H1103L611 -104ZM374 1638H573L247 1262H94L374 1638Z" />
<glyph unicode="&#xfe;" glyph-name="thorn" horiz-adv-x="1032" d="M215 168V-426H30V1556H215V950Q273 1050 361 1098T573 1147Q777 1147 904 985T1032 559Q1032 295 905 133T573 -29Q450 -29 362 19T215 168ZM841 559Q841 762 758 877T528 993Q382 993 299
878T215 559Q215 356 298 241T528 125Q674 125 757 240T841 559Z" />
<glyph unicode="&#xff;" glyph-name="ydieresis" horiz-adv-x="1212" d="M611 -104Q533 -304 459 -365T261 -426H114V-272H222Q298 -272 340 -236T433 -66L466 18L13 1120H208L558 244L908 1120H1103L611 -104ZM515 1552H718V1350H515V1552ZM124 1552H327V1350H124V1552Z" />
<glyph unicode="&#x100;" glyph-name="Amacron" horiz-adv-x="1401" d="M218 1841H816V1693H218V1841ZM688 1294L414 551H963L688 1294ZM574 1493H803L1372 0H1162L1026 383H353L217 0H4L574 1493Z" />
<glyph unicode="&#x101;" glyph-name="amacron" horiz-adv-x="1255" d="M104 1526H702V1378H104V1526ZM595 563Q372 563 286 512T200 338Q200 240 264 183T440 125Q593 125 685 233T778 522V563H595ZM962 639V0H778V170Q715 68 621 20T391 -29Q219 -29 118 67T16
326Q16 515 142 611T520 707H778V725Q778 852 695 921T460 991Q364 991 273 968T98 899V1069Q199 1108 294 1127T479 1147Q722 1147 842 1021T962 639Z" />
<glyph unicode="&#x102;" glyph-name="Abreve" horiz-adv-x="1401" d="M221 1938H339Q350 1863 398 1826T534 1788Q620 1788 668 1825T729 1938H847Q837 1795 758 1723T534 1651Q389 1651 310 1723T221 1938ZM688 1294L414 551H963L688 1294ZM574 1493H803L1372
0H1162L1026 383H353L217 0H4L574 1493Z" />
<glyph unicode="&#x103;" glyph-name="abreve" horiz-adv-x="1255" d="M94 1824H212Q223 1749 271 1712T407 1674Q493 1674 541 1711T602 1824H720Q710 1681 631 1609T407 1537Q262 1537 183 1609T94 1824ZM595 563Q372 563 286 512T200 338Q200 240 264 183T440
125Q593 125 685 233T778 522V563H595ZM962 639V0H778V170Q715 68 621 20T391 -29Q219 -29 118 67T16 326Q16 515 142 611T520 707H778V725Q778 852 695 921T460 991Q364 991 273 968T98 899V1069Q199 1108 294 1127T479 1147Q722 1147 842 1021T962 639Z" />
<glyph unicode="&#x104;" glyph-name="Aogonek" horiz-adv-x="1401" d="M688 1294L414 551H963L688 1294ZM574 1493H803L1372 0H1162L1026 383H353L217 0H4L574 1493ZM863 0H982Q937 -61 916 -105T894 -180Q894 -226 921 -249T1003 -272Q1035 -272 1066 -265T1128
-242V-375Q1090 -385 1056 -390T992 -395Q870 -395 813 -352T755 -215Q755 -167 781 -115T863 0Z" />
<glyph unicode="&#x105;" glyph-name="aogonek" horiz-adv-x="1255" d="M595 563Q372 563 286 512T200 338Q200 240 264 183T440 125Q593 125 685 233T778 522V563H595ZM962 639V0H778V170Q715 68 621 20T391 -29Q219 -29 118 67T16 326Q16 515 142 611T520 707H778V725Q778
852 695 921T460 991Q364 991 273 968T98 899V1069Q199 1108 294 1127T479 1147Q722 1147 842 1021T962 639ZM570 0H689Q644 -61 623 -105T601 -180Q601 -226 628 -249T710 -272Q742 -272 773 -265T835 -242V-375Q797 -385 763 -390T699 -395Q577 -395 520 -352T462
-215Q462 -167 488 -115T570 0Z" />
<glyph unicode="&#x106;" glyph-name="Cacute" horiz-adv-x="1430" d="M1220 1378V1165Q1118 1260 1003 1307T757 1354Q501 1354 365 1198T229 745Q229 450 365 294T757 137Q887 137 1002 184T1220 326V115Q1114 43 996 7T745 -29Q406 -29 211 178T16 745Q16 1105
211 1312T745 1520Q879 1520 997 1485T1220 1378ZM1523 1899H1708L1480 1635H1327L1523 1899Z" />
<glyph unicode="&#x107;" glyph-name="cacute" horiz-adv-x="1126" d="M899 1077V905Q821 948 743 969T584 991Q405 991 306 878T207 559Q207 354 306 241T584 127Q664 127 742 148T899 213V43Q822 7 740 -11T564 -29Q311 -29 162 130T13 559Q13 833 163 990T576
1147Q661 1147 742 1130T899 1077ZM417 1638H616L290 1262H137L417 1638Z" />
<glyph unicode="&#x108;" glyph-name="Ccircumflex" horiz-adv-x="1430" d="M1574 1901H1762L1973 1635H1834L1668 1813L1502 1635H1363L1574 1901ZM1220 1378V1165Q1118 1260 1003 1307T757 1354Q501 1354 365 1198T229 745Q229 450 365 294T757 137Q887 137
1002 184T1220 326V115Q1114 43 996 7T745 -29Q406 -29 211 178T16 745Q16 1105 211 1312T745 1520Q879 1520 997 1485T1220 1378Z" />
<glyph unicode="&#x109;" glyph-name="ccircumflex" horiz-adv-x="1126" d="M899 1077V905Q821 948 743 969T584 991Q405 991 306 878T207 559Q207 354 306 241T584 127Q664 127 742 148T899 213V43Q822 7 740 -11T564 -29Q311 -29 162 130T13 559Q13 833 163
990T576 1147Q661 1147 742 1130T899 1077ZM414 1638H562L807 1262H668L488 1507L308 1262H169L414 1638Z" />
<glyph unicode="&#x10a;" glyph-name="Cdotaccent" horiz-adv-x="1430" d="M1386 1872H1590V1667H1386V1872ZM1220 1378V1165Q1118 1260 1003 1307T757 1354Q501 1354 365 1198T229 745Q229 450 365 294T757 137Q887 137 1002 184T1220 326V115Q1114 43 996 7T745
-29Q406 -29 211 178T16 745Q16 1105 211 1312T745 1520Q879 1520 997 1485T1220 1378Z" />
<glyph unicode="&#x10b;" glyph-name="cdotaccent" horiz-adv-x="1126" d="M1218 1556H1402V1323H1218V1556ZM899 1077V905Q821 948 743 969T584 991Q405 991 306 878T207 559Q207 354 306 241T584 127Q664 127 742 148T899 213V43Q822 7 740 -11T564 -29Q311
-29 162 130T13 559Q13 833 163 990T576 1147Q661 1147 742 1130T899 1077Z" />
<glyph unicode="&#x10c;" glyph-name="Ccaron" horiz-adv-x="1430" d="M1220 1378V1165Q1118 1260 1003 1307T757 1354Q501 1354 365 1198T229 745Q229 450 365 294T757 137Q887 137 1002 184T1220 326V115Q1114 43 996 7T745 -29Q406 -29 211 178T16 745Q16 1105
211 1312T745 1520Q879 1520 997 1485T1220 1378ZM1542 1635L1331 1901H1470L1636 1723L1802 1901H1941L1730 1635H1542Z" />
<glyph unicode="&#x10d;" glyph-name="ccaron" horiz-adv-x="1126" d="M899 1077V905Q821 948 743 969T584 991Q405 991 306 878T207 559Q207 354 306 241T584 127Q664 127 742 148T899 213V43Q822 7 740 -11T564 -29Q311 -29 162 130T13 559Q13 833 163 990T576
1147Q661 1147 742 1130T899 1077ZM386 1262L141 1638H280L460 1393L640 1638H779L534 1262H386Z" />
<glyph unicode="&#x10e;" glyph-name="Dcaron" horiz-adv-x="1577" d="M1477 1635L1266 1901H1405L1571 1723L1737 1901H1876L1665 1635H1477ZM236 1327V166H480Q789 166 932 306T1076 748Q1076 1048 933 1187T480 1327H236ZM34 1493H449Q883 1493 1086 1313T1289
748Q1289 362 1085 181T449 0H34V1493Z" />
<glyph unicode="&#x10f;" glyph-name="dcaron" horiz-adv-x="1300" d="M818 950V1556H1002V0H818V168Q760 68 672 20T459 -29Q256 -29 129 133T1 559Q1 823 128 985T459 1147Q583 1147 671 1099T818 950ZM191 559Q191 356 274 241T504 125Q650 125 734 240T818
559Q818 762 734 877T504 993Q358 993 275 878T191 559ZM1382 1554H1581L1464 1178H1311L1382 1554Z" />
<glyph unicode="&#x110;" glyph-name="Dcroat" horiz-adv-x="1587" d="M211 1493H627Q1060 1493 1263 1313T1466 748Q1466 362 1263 181T627 0H211V700H10V844H211V1493ZM414 1327V844H750V700H414V166H657Q966 166 1109 306T1253 748Q1253 1048 1110 1187T657 1327H414Z" />
<glyph unicode="&#x111;" glyph-name="" horiz-adv-x="1172" d="M822 950V1284H496V1409H822V1556H1006V1409H1160V1284H1006V0H822V168Q764 68 676 20T463 -29Q260 -29 133 133T5 559Q5 823 132 985T463 1147Q587 1147 675 1099T822 950ZM195 559Q195 356 278
241T508 125Q654 125 738 240T822 559Q822 762 738 877T508 993Q362 993 279 878T195 559Z" />
<glyph unicode="&#x112;" glyph-name="Emacron" horiz-adv-x="1294" d="M34 1493H978V1323H236V881H947V711H236V170H996V0H34V1493ZM191 1843H789V1695H191V1843Z" />
<glyph unicode="&#x113;" glyph-name="emacron" horiz-adv-x="1260" d="M180 1526H778V1378H180V1526ZM1053 606V516H207Q219 326 321 227T607 127Q713 127 812 153T1010 231V57Q911 15 807 -7T596 -29Q328 -29 172 127T15 549Q15 824 163 985T564 1147Q790 1147
921 1002T1053 606ZM869 660Q867 811 785 901T566 991Q412 991 320 904T213 659L869 660Z" />
<glyph unicode="&#x114;" glyph-name="Ebreve" horiz-adv-x="1294" d="M1200 1901H1318Q1331 1847 1380 1819T1513 1790Q1595 1790 1643 1817T1708 1901H1826Q1816 1782 1736 1721T1513 1659Q1369 1659 1290 1720T1200 1901ZM34 1493H978V1323H236V881H947V711H236V170H996V0H34V1493Z"
/>
<glyph unicode="&#x115;" glyph-name="ebreve" horiz-adv-x="1260" d="M165 1608H283Q294 1533 342 1496T478 1458Q564 1458 612 1495T673 1608H791Q781 1465 702 1393T478 1321Q333 1321 254 1393T165 1608ZM1053 606V516H207Q219 326 321 227T607 127Q713 127
812 153T1010 231V57Q911 15 807 -7T596 -29Q328 -29 172 127T15 549Q15 824 163 985T564 1147Q790 1147 921 1002T1053 606ZM869 660Q867 811 785 901T566 991Q412 991 320 904T213 659L869 660Z" />
<glyph unicode="&#x116;" glyph-name="Edotaccent" horiz-adv-x="1294" d="M1212 1872H1416V1667H1212V1872ZM34 1493H978V1323H236V881H947V711H236V170H996V0H34V1493Z" />
<glyph unicode="&#x117;" glyph-name="edotaccent" horiz-adv-x="1260" d="M1204 1556H1388V1323H1204V1556ZM1053 606V516H207Q219 326 321 227T607 127Q713 127 812 153T1010 231V57Q911 15 807 -7T596 -29Q328 -29 172 127T15 549Q15 824 163 985T564 1147Q790
1147 921 1002T1053 606ZM869 660Q867 811 785 901T566 991Q412 991 320 904T213 659L869 660Z" />
<glyph unicode="&#x118;" glyph-name="Eogonek" horiz-adv-x="1294" d="M34 1493H978V1323H236V881H947V711H236V170H996V0H34V1493ZM583 0H702Q657 -61 636 -105T614 -180Q614 -226 641 -249T723 -272Q755 -272 786 -265T848 -242V-375Q810 -385 776 -390T712
-395Q590 -395 533 -352T475 -215Q475 -167 501 -115T583 0Z" />
<glyph unicode="&#x119;" glyph-name="eogonek" horiz-adv-x="1260" d="M1053 606V516H207Q219 326 321 227T607 127Q713 127 812 153T1010 231V57Q911 15 807 -7T596 -29Q328 -29 172 127T15 549Q15 824 163 985T564 1147Q790 1147 921 1002T1053 606ZM869 660Q867
811 785 901T566 991Q412 991 320 904T213 659L869 660ZM499 0H618Q573 -61 552 -105T530 -180Q530 -226 557 -249T639 -272Q671 -272 702 -265T764 -242V-375Q726 -385 692 -390T628 -395Q506 -395 449 -352T391 -215Q391 -167 417 -115T499 0Z" />
<glyph unicode="&#x11a;" glyph-name="Ecaron" horiz-adv-x="1294" d="M34 1493H978V1323H236V881H947V711H236V170H996V0H34V1493ZM1407 1629L1196 1895H1335L1501 1717L1667 1895H1806L1595 1629H1407Z" />
<glyph unicode="&#x11b;" glyph-name="ecaron" horiz-adv-x="1260" d="M1053 606V516H207Q219 326 321 227T607 127Q713 127 812 153T1010 231V57Q911 15 807 -7T596 -29Q328 -29 172 127T15 549Q15 824 163 985T564 1147Q790 1147 921 1002T1053 606ZM869 660Q867
811 785 901T566 991Q412 991 320 904T213 659L869 660ZM397 1258L152 1634H291L471 1389L651 1634H790L545 1258H397Z" />
<glyph unicode="&#x11c;" glyph-name="Gcircumflex" horiz-adv-x="1587" d="M1590 1901H1778L1989 1635H1850L1684 1813L1518 1635H1379L1590 1901ZM1120 213V614H790V780H1320V139Q1203 56 1062 14T761 -29Q411 -29 214 175T16 745Q16 1111 213 1315T761 1520Q907
1520 1038 1484T1281 1378V1163Q1169 1258 1043 1306T778 1354Q504 1354 367 1201T229 745Q229 443 366 290T778 137Q885 137 969 155T1120 213Z" />
<glyph unicode="&#x11d;" glyph-name="gcircumflex" horiz-adv-x="1300" d="M354 1638H502L747 1262H608L428 1507L248 1262H109L354 1638ZM830 573Q830 773 748 883T516 993Q368 993 286 883T203 573Q203 374 285 264T516 154Q665 154 747 264T830 573ZM1014
139Q1014 -147 887 -286T498 -426Q401 -426 315 -412T148 -367V-188Q229 -232 308 -253T469 -274Q650 -274 740 -180T830 106V197Q773 98 684 49T471 0Q265 0 139 157T13 573Q13 833 139 990T471 1147Q595 1147 684 1098T830 950V1120H1014V139Z" />
<glyph unicode="&#x11e;" glyph-name="Gbreve" horiz-adv-x="1587" d="M1120 213V614H790V780H1320V139Q1203 56 1062 14T761 -29Q411 -29 214 175T16 745Q16 1111 213 1315T761 1520Q907 1520 1038 1484T1281 1378V1163Q1169 1258 1043 1306T778 1354Q504 1354
367 1201T229 745Q229 443 366 290T778 137Q885 137 969 155T1120 213ZM1322 1901H1440Q1453 1847 1502 1819T1635 1790Q1717 1790 1765 1817T1830 1901H1948Q1938 1782 1858 1721T1635 1659Q1491 1659 1412 1720T1322 1901Z" />
<glyph unicode="&#x11f;" glyph-name="gbreve" horiz-adv-x="1300" d="M830 573Q830 773 748 883T516 993Q368 993 286 883T203 573Q203 374 285 264T516 154Q665 154 747 264T830 573ZM1014 139Q1014 -147 887 -286T498 -426Q401 -426 315 -412T148 -367V-188Q229
-232 308 -253T469 -274Q650 -274 740 -180T830 106V197Q773 98 684 49T471 0Q265 0 139 157T13 573Q13 833 139 990T471 1147Q595 1147 684 1098T830 950V1120H1014V139ZM154 1608H272Q283 1533 331 1496T467 1458Q553 1458 601 1495T662 1608H780Q770 1465 691
1393T467 1321Q322 1321 243 1393T154 1608Z" />
<glyph unicode="&#x120;" glyph-name="Gdotaccent" horiz-adv-x="1587" d="M1402 1872H1606V1667H1402V1872ZM1120 213V614H790V780H1320V139Q1203 56 1062 14T761 -29Q411 -29 214 175T16 745Q16 1111 213 1315T761 1520Q907 1520 1038 1484T1281 1378V1163Q1169
1258 1043 1306T778 1354Q504 1354 367 1201T229 745Q229 443 366 290T778 137Q885 137 969 155T1120 213Z" />
<glyph unicode="&#x121;" glyph-name="gdotaccent" horiz-adv-x="1300" d="M1160 1556H1344V1323H1160V1556ZM830 573Q830 773 748 883T516 993Q368 993 286 883T203 573Q203 374 285 264T516 154Q665 154 747 264T830 573ZM1014 139Q1014 -147 887 -286T498 -426Q401
-426 315 -412T148 -367V-188Q229 -232 308 -253T469 -274Q650 -274 740 -180T830 106V197Q773 98 684 49T471 0Q265 0 139 157T13 573Q13 833 139 990T471 1147Q595 1147 684 1098T830 950V1120H1014V139Z" />
<glyph unicode="&#x122;" glyph-name="Gcommaaccent" horiz-adv-x="1587" d="M1466 -190H1677L1513 -510H1384L1466 -190ZM1120 213V614H790V780H1320V139Q1203 56 1062 14T761 -29Q411 -29 214 175T16 745Q16 1111 213 1315T761 1520Q907 1520 1038 1484T1281
1378V1163Q1169 1258 1043 1306T778 1354Q504 1354 367 1201T229 745Q229 443 366 290T778 137Q885 137 969 155T1120 213Z" />
<glyph unicode="&#x123;" glyph-name="gcommaaccent" horiz-adv-x="1300" d="M1204 1269H993L1157 1588H1286L1204 1269ZM830 573Q830 773 748 883T516 993Q368 993 286 883T203 573Q203 374 285 264T516 154Q665 154 747 264T830 573ZM1014 139Q1014 -147 887
-286T498 -426Q401 -426 315 -412T148 -367V-188Q229 -232 308 -253T469 -274Q650 -274 740 -180T830 106V197Q773 98 684 49T471 0Q265 0 139 157T13 573Q13 833 139 990T471 1147Q595 1147 684 1098T830 950V1120H1014V139Z" />
<glyph unicode="&#x124;" glyph-name="Hcircumflex" horiz-adv-x="1540" d="M1500 1901H1688L1899 1635H1760L1594 1813L1428 1635H1289L1500 1901ZM33 1493H235V881H969V1493H1171V0H969V711H235V0H33V1493Z" />
<glyph unicode="&#x125;" glyph-name="hcircumflex" horiz-adv-x="1298" d="M1008 1901H1196L1407 1635H1268L1102 1813L936 1635H797L1008 1901ZM968 676V0H784V670Q784 829 722 908T536 987Q387 987 301 892T215 633V0H30V1556H215V946Q281 1047 370 1097T577
1147Q770 1147 869 1028T968 676Z" />
<glyph unicode="&#x126;" glyph-name="Hbar" horiz-adv-x="1502" d="M182 1493H384V1269H1118V1493H1320V1269H1488V1105H1320V0H1118V711H384V0H182V1105H14V1269H182V1493ZM384 1105V881H1118V1105H384Z" />
<glyph unicode="&#x127;" glyph-name="hbar" horiz-adv-x="1089" d="M1079 676V0H895V670Q895 829 833 908T647 987Q498 987 412 892T326 633V0H141V1270H16V1434H141V1556H326V1434H678V1270H326V946Q392 1047 481 1097T688 1147Q881 1147 980 1028T1079 676Z" />
<glyph unicode="&#x128;" glyph-name="Itilde" horiz-adv-x="604" d="M1161 1710L1104 1743Q1079 1757 1064 1762T1036 1768Q1000 1768 980 1743T960 1673V1667H835Q835 1768 886 1827T1024 1886Q1060 1886 1090 1878T1169 1843L1226 1813Q1249 1800 1266 1794T1298
1788Q1330 1788 1350 1813T1370 1880V1886H1495Q1493 1786 1442 1727T1306 1667Q1272 1667 1243 1675T1161 1710ZM33 1493H235V0H33V1493Z" />
<glyph unicode="&#x129;" glyph-name="itilde" horiz-adv-x="569" d="M121 1370L64 1425Q42 1445 26 1454T-4 1464Q-42 1464 -60 1428T-80 1309H-205Q-203 1444 -152 1517T-10 1591Q28 1591 60 1577T129 1530L186 1475Q208 1455 224 1446T254 1436Q292 1436 310
1472T330 1591H455Q453 1456 402 1383T260 1309Q222 1309 190 1323T121 1370ZM30 1120H214V0H30V1120Z" />
<glyph unicode="&#x12a;" glyph-name="Imacron" horiz-adv-x="604" d="M-179 1841H419V1693H-179V1841ZM33 1493H235V0H33V1493Z" />
<glyph unicode="&#x12b;" glyph-name="imacron" horiz-adv-x="569" d="M-196 1526H402V1378H-196V1526ZM30 1120H214V0H30V1120Z" />
<glyph unicode="&#x12c;" glyph-name="Ibreve" horiz-adv-x="604" d="M829 1901H947Q960 1847 1009 1819T1142 1790Q1224 1790 1272 1817T1337 1901H1455Q1445 1782 1365 1721T1142 1659Q998 1659 919 1720T829 1901ZM33 1493H235V0H33V1493Z" />
<glyph unicode="&#x12d;" glyph-name="ibreve" horiz-adv-x="569" d="M-211 1608H-93Q-82 1533 -34 1496T102 1458Q188 1458 236 1495T297 1608H415Q405 1465 326 1393T102 1321Q-43 1321 -122 1393T-211 1608ZM30 1120H214V0H30V1120Z" />
<glyph unicode="&#x12e;" glyph-name="Iogonek" horiz-adv-x="604" d="M-32 0H87Q42 -61 21 -105T-1 -180Q-1 -226 26 -249T108 -272Q140 -272 171 -265T233 -242V-375Q195 -385 161 -390T97 -395Q-25 -395 -82 -352T-140 -215Q-140 -167 -114 -115T-32 0ZM33
1493H235V0H33V1493Z" />
<glyph unicode="&#x12f;" glyph-name="iogonek" horiz-adv-x="569" d="M-58 0H61Q16 -61 -5 -105T-27 -180Q-27 -226 0 -249T82 -272Q114 -272 145 -265T207 -242V-375Q169 -385 135 -390T71 -395Q-51 -395 -108 -352T-166 -215Q-166 -167 -140 -115T-58 0ZM28
1120H212V0H28V1120ZM28 1556H212V1323H28V1556Z" />
<glyph unicode="&#x130;" glyph-name="Idot" horiz-adv-x="604" d="M33 1493H235V0H33V1493ZM845 1872H1049V1667H845V1872Z" />
<glyph unicode="&#x131;" glyph-name="dotlessi" horiz-adv-x="246" d="M30 1120H214V0H30V1120Z" />
<glyph unicode="&#x132;" glyph-name="IJ" horiz-adv-x="1208" d="M911 1493H1113V104Q1113 -166 1011 -288T681 -410H604V-240H667Q801 -240 856 -165T911 104V1493ZM33 1493H235V0H33V1493Z" />
<glyph unicode="&#x133;" glyph-name="ij" horiz-adv-x="1138" d="M798 1120H982V-20Q982 -234 901 -330T638 -426H568V-270H617Q722 -270 760 -222T798 -20V1120ZM798 1556H982V1323H798V1556ZM28 1120H212V0H28V1120ZM28 1556H212V1323H28V1556Z" />
<glyph unicode="&#x134;" glyph-name="Jcircumflex" horiz-adv-x="604" d="M1032 1901H1220L1431 1635H1292L1126 1813L960 1635H821L1032 1901ZM307 1493H509V104Q509 -166 407 -288T77 -410H0V-240H63Q197 -240 252 -165T307 104V1493Z" />
<glyph unicode="&#x135;" glyph-name="jcircumflex" horiz-adv-x="569" d="M24 1638H172L417 1262H278L98 1507L-82 1262H-221L24 1638ZM230 1120H414V-20Q414 -234 333 -330T70 -426H0V-270H49Q154 -270 192 -222T230 -20V1120Z" />
<glyph unicode="&#x136;" glyph-name="Kcommaaccent" horiz-adv-x="1343" d="M1399 -162H1610L1446 -482H1317L1399 -162ZM32 1493H234V862L904 1493H1164L423 797L1217 0H951L234 719V0H32V1493Z" />
<glyph unicode="&#x137;" glyph-name="kcommaaccent" horiz-adv-x="1186" d="M1288 -162H1499L1335 -482H1206L1288 -162ZM30 1556H215V637L764 1120H999L405 596L1024 0H784L215 547V0H30V1556Z" />
<glyph unicode="&#x138;" glyph-name="kgreenlandic" horiz-adv-x="1037" d="M30 1120H215V635L764 1120H999L405 594L1024 0H784L215 545V0H30V1120Z" />
<glyph unicode="&#x139;" glyph-name="Lacute" horiz-adv-x="1141" d="M1076 1900H1261L1033 1636H880L1076 1900ZM32 1493H234V170H961V0H32V1493Z" />
<glyph unicode="&#x13a;" glyph-name="lacute" horiz-adv-x="569" d="M1056 1900H1241L1013 1636H860L1056 1900ZM30 1556H214V0H30V1556Z" />
<glyph unicode="&#x13b;" glyph-name="Lcommaaccent" horiz-adv-x="1141" d="M1271 -162H1482L1318 -482H1189L1271 -162ZM32 1493H234V170H961V0H32V1493Z" />
<glyph unicode="&#x13c;" glyph-name="lcommaaccent" horiz-adv-x="569" d="M890 -162H1101L937 -482H808L890 -162ZM30 1556H214V0H30V1556Z" />
<glyph unicode="&#x13d;" glyph-name="Lcaron" horiz-adv-x="1141" d="M753 1494H952L835 1118H682L753 1494ZM32 1493H234V170H961V0H32V1493Z" />
<glyph unicode="&#x13e;" glyph-name="lcaron" horiz-adv-x="768" d="M651 1556H850L733 1180H580L651 1556ZM30 1556H214V0H30V1556Z" />
<glyph unicode="&#x13f;" glyph-name="Ldot" horiz-adv-x="1141" d="M591 957H802V703H591V957ZM32 1493H234V170H961V0H32V1493Z" />
<glyph unicode="&#x140;" glyph-name="ldot" horiz-adv-x="700" d="M244 953H455V699H244V953ZM30 1556H214V0H30V1556Z" />
<glyph unicode="&#x141;" glyph-name="Lslash" horiz-adv-x="1161" d="M231 1493H434V877L747 1096L827 985L434 711V170H1161V0H231V571L83 465L6 575L231 733V1493Z" />
<glyph unicode="&#x142;" glyph-name="lslash" horiz-adv-x="582" d="M199 1556H383V954L508 1044L584 938L383 797V0H199V666L76 578L2 684L199 825V1556Z" />
<glyph unicode="&#x143;" glyph-name="Nacute" horiz-adv-x="1532" d="M1419 1900H1604L1376 1636H1223L1419 1900ZM32 1493H304L966 244V1493H1162V0H890L228 1249V0H32V1493Z" />
<glyph unicode="&#x144;" glyph-name="nacute" horiz-adv-x="1298" d="M346 1645H545L219 1269H66L346 1645ZM968 676V0H784V670Q784 829 722 908T536 987Q387 987 301 892T215 633V0H30V1120H215V946Q281 1047 370 1097T577 1147Q770 1147 869 1028T968 676Z" />
<glyph unicode="&#x145;" glyph-name="Ncommaaccent" horiz-adv-x="1532" d="M1372 -162H1583L1419 -482H1290L1372 -162ZM32 1493H304L966 244V1493H1162V0H890L228 1249V0H32V1493Z" />
<glyph unicode="&#x146;" glyph-name="ncommaaccent" horiz-adv-x="1298" d="M1260 -162H1471L1307 -482H1178L1260 -162ZM968 676V0H784V670Q784 829 722 908T536 987Q387 987 301 892T215 633V0H30V1120H215V946Q281 1047 370 1097T577 1147Q770 1147 869 1028T968
676Z" />
<glyph unicode="&#x147;" glyph-name="Ncaron" horiz-adv-x="1532" d="M32 1493H304L966 244V1493H1162V0H890L228 1249V0H32V1493ZM1486 1621L1275 1887H1414L1580 1709L1746 1887H1885L1674 1621H1486Z" />
<glyph unicode="&#x148;" glyph-name="ncaron" horiz-adv-x="1298" d="M968 676V0H784V670Q784 829 722 908T536 987Q387 987 301 892T215 633V0H30V1120H215V946Q281 1047 370 1097T577 1147Q770 1147 869 1028T968 676ZM390 1262L145 1638H284L464 1393L644
1638H783L538 1262H390Z" />
<glyph unicode="&#x149;" glyph-name="napostrophe" horiz-adv-x="1273" d="M1268 676V0H1084V670Q1084 829 1022 908T836 987Q687 987 601 892T515 633V0H330V1120H515V946Q581 1047 670 1097T877 1147Q1070 1147 1169 1028T1268 676ZM90 1493H301V1341L137 1022H8L90
1341V1493Z" />
<glyph unicode="&#x14a;" glyph-name="Eng" horiz-adv-x="1139" d="M912 895Q912 1323 605 1323Q426 1323 319 1196T211 846V0H9V1493H211V1252Q289 1386 394 1453Q500 1520 653 1520Q880 1520 996 1361T1113 893V-20Q1113 -233 1032 -330Q950 -426 769 -426H682V-270H731Q833
-270 872 -225T912 -20V895Z" />
<glyph unicode="&#x14b;" glyph-name="eng" horiz-adv-x="975" d="M950 676V-20Q950 -234 868 -330Q787 -426 606 -426H352V-270H585Q690 -270 728 -222Q766 -173 766 -20V670Q766 829 704 908T518 987Q369 987 283 892T197 633V0H12V1120H197V946Q263 1047 352
1097Q442 1147 559 1147Q752 1147 851 1028Q950 908 950 676Z" />
<glyph unicode="&#x14c;" glyph-name="Omacron" horiz-adv-x="1612" d="M325 1841H923V1693H325V1841ZM708 1356Q488 1356 359 1192T229 745Q229 463 358 299T708 135Q928 135 1056 299T1185 745Q1185 1028 1057 1192T708 1356ZM708 1520Q1022 1520 1210 1310T1398
745Q1398 392 1210 182T708 -29Q393 -29 205 181T16 745Q16 1099 204 1309T708 1520Z" />
<glyph unicode="&#x14d;" glyph-name="omacron" horiz-adv-x="1253" d="M145 1526H743V1378H145V1526ZM530 991Q382 991 296 876T210 559Q210 358 295 243T530 127Q677 127 763 243T849 559Q849 758 763 874T530 991ZM530 1147Q770 1147 907 991T1044 559Q1044
284 907 128T530 -29Q289 -29 153 127T16 559Q16 835 152 991T530 1147Z" />
<glyph unicode="&#x14e;" glyph-name="Obreve" horiz-adv-x="1612" d="M1334 1901H1452Q1465 1847 1514 1819T1647 1790Q1729 1790 1777 1817T1842 1901H1960Q1950 1782 1870 1721T1647 1659Q1503 1659 1424 1720T1334 1901ZM708 1356Q488 1356 359 1192T229 745Q229
463 358 299T708 135Q928 135 1056 299T1185 745Q1185 1028 1057 1192T708 1356ZM708 1520Q1022 1520 1210 1310T1398 745Q1398 392 1210 182T708 -29Q393 -29 205 181T16 745Q16 1099 204 1309T708 1520Z" />
<glyph unicode="&#x14f;" glyph-name="obreve" horiz-adv-x="1253" d="M130 1608H248Q259 1533 307 1496T443 1458Q529 1458 577 1495T638 1608H756Q746 1465 667 1393T443 1321Q298 1321 219 1393T130 1608ZM530 991Q382 991 296 876T210 559Q210 358 295 243T530
127Q677 127 763 243T849 559Q849 758 763 874T530 991ZM530 1147Q770 1147 907 991T1044 559Q1044 284 907 128T530 -29Q289 -29 153 127T16 559Q16 835 152 991T530 1147Z" />
<glyph unicode="&#x150;" glyph-name="Ohungarumlaut" horiz-adv-x="1612" d="M1860 1899H2045L1817 1635H1664L1860 1899ZM1525 1899H1710L1482 1635H1329L1525 1899ZM708 1356Q488 1356 359 1192T229 745Q229 463 358 299T708 135Q928 135 1056 299T1185 745Q1185
1028 1057 1192T708 1356ZM708 1520Q1022 1520 1210 1310T1398 745Q1398 392 1210 182T708 -29Q393 -29 205 181T16 745Q16 1099 204 1309T708 1520Z" />
<glyph unicode="&#x151;" glyph-name="ohungarumlaut" horiz-adv-x="1253" d="M694 1638H872L624 1262H489L694 1638ZM360 1638H530L307 1262H170L360 1638ZM530 991Q382 991 296 876T210 559Q210 358 295 243T530 127Q677 127 763 243T849 559Q849 758 763 874T530
991ZM530 1147Q770 1147 907 991T1044 559Q1044 284 907 128T530 -29Q289 -29 153 127T16 559Q16 835 152 991T530 1147Z" />
<glyph unicode="&#x152;" glyph-name="OE" horiz-adv-x="1979" d="M1945 1493V1323H1203V881H1914V711H1203V170H1963V0H898Q465 0 242 190T18 748Q18 1113 241 1303T898 1493H1945ZM1001 1323H872Q551 1323 391 1180T231 748Q231 459 391 315T872 170H1001V1323Z" />
<glyph unicode="&#x153;" glyph-name="oe" horiz-adv-x="1918" d="M1711 660Q1709 812 1627 901T1408 991Q1255 991 1163 904T1056 659L1711 660ZM1896 606V516H1050Q1062 326 1164 227T1449 127Q1555 127 1655 153T1853 231V57Q1753 15 1649 -7T1439 -29Q1279
-29 1158 26T956 190Q885 80 781 26T536 -29Q295 -29 159 127T22 559Q22 835 158 991T536 1147Q676 1147 781 1092T953 928Q1031 1035 1147 1091T1406 1147Q1632 1147 1764 1002T1896 606ZM536 991Q388 991 302 876T216 559Q216 358 301 243T536 127Q683 127 769
243T855 559Q855 758 769 874T536 991Z" />
<glyph unicode="&#x154;" glyph-name="Racute" horiz-adv-x="1423" d="M1371 1900H1556L1328 1636H1175L1371 1900ZM739 700Q804 678 865 606T989 408L1194 0H977L786 383Q712 533 643 582T453 631H233V0H31V1493H487Q743 1493 869 1386T995 1063Q995 922 930
829T739 700ZM233 1327V797H487Q633 797 707 864T782 1063Q782 1194 708 1260T487 1327H233Z" />
<glyph unicode="&#x155;" glyph-name="racute" horiz-adv-x="842" d="M346 1645H545L219 1269H66L346 1645ZM686 948Q655 966 619 974T538 983Q382 983 299 882T215 590V0H30V1120H215V946Q273 1048 366 1097T592 1147Q611 1147 634 1145T685 1137L686 948Z" />
<glyph unicode="&#x156;" glyph-name="Rcommaaccent" horiz-adv-x="1423" d="M1388 -162H1599L1435 -482H1306L1388 -162ZM739 700Q804 678 865 606T989 408L1194 0H977L786 383Q712 533 643 582T453 631H233V0H31V1493H487Q743 1493 869 1386T995 1063Q995 922
930 829T739 700ZM233 1327V797H487Q633 797 707 864T782 1063Q782 1194 708 1260T487 1327H233Z" />
<glyph unicode="&#x157;" glyph-name="rcommaaccent" horiz-adv-x="842" d="M884 -162H1095L931 -482H802L884 -162ZM686 948Q655 966 619 974T538 983Q382 983 299 882T215 590V0H30V1120H215V946Q273 1048 366 1097T592 1147Q611 1147 634 1145T685 1137L686 948Z" />
<glyph unicode="&#x158;" glyph-name="Rcaron" horiz-adv-x="1423" d="M739 700Q804 678 865 606T989 408L1194 0H977L786 383Q712 533 643 582T453 631H233V0H31V1493H487Q743 1493 869 1386T995 1063Q995 922 930 829T739 700ZM233 1327V797H487Q633 797 707
864T782 1063Q782 1194 708 1260T487 1327H233ZM1366 1621L1155 1887H1294L1460 1709L1626 1887H1765L1554 1621H1366Z" />
<glyph unicode="&#x159;" glyph-name="rcaron" horiz-adv-x="842" d="M686 948Q655 966 619 974T538 983Q382 983 299 882T215 590V0H30V1120H215V946Q273 1048 366 1097T592 1147Q611 1147 634 1145T685 1137L686 948ZM276 1262L31 1638H170L350 1393L530 1638H669L424
1262H276Z" />
<glyph unicode="&#x15a;" glyph-name="Sacute" horiz-adv-x="1300" d="M1371 1900H1556L1328 1636H1175L1371 1900ZM980 1444V1247Q865 1302 763 1329T566 1356Q401 1356 312 1292T222 1110Q222 1011 281 961T507 879L629 854Q855 811 962 703T1070 412Q1070 195
925 83T498 -29Q392 -29 273 -5T25 66V274Q148 205 266 170T498 135Q671 135 765 203T859 397Q859 507 792 569T570 662L447 686Q221 731 120 827T19 1094Q19 1292 158 1406T543 1520Q648 1520 757 1501T980 1444Z" />
<glyph unicode="&#x15b;" glyph-name="sacute" horiz-adv-x="1067" d="M346 1645H545L219 1269H66L346 1645ZM815 1087V913Q737 953 653 973T479 993Q342 993 274 951T205 825Q205 761 254 725T451 655L514 641Q710 599 792 523T875 309Q875 153 752 62T412 -29Q322
-29 225 -12T19 41V231Q121 178 220 152T416 125Q546 125 616 169T686 295Q686 370 636 410T414 487L350 502Q179 538 103 612T27 817Q27 975 139 1061T457 1147Q559 1147 649 1132T815 1087Z" />
<glyph unicode="&#x15c;" glyph-name="Scircumflex" horiz-adv-x="1300" d="M1389 1901H1577L1788 1635H1649L1483 1813L1317 1635H1178L1389 1901ZM980 1444V1247Q865 1302 763 1329T566 1356Q401 1356 312 1292T222 1110Q222 1011 281 961T507 879L629 854Q855
811 962 703T1070 412Q1070 195 925 83T498 -29Q392 -29 273 -5T25 66V274Q148 205 266 170T498 135Q671 135 765 203T859 397Q859 507 792 569T570 662L447 686Q221 731 120 827T19 1094Q19 1292 158 1406T543 1520Q648 1520 757 1501T980 1444Z" />
<glyph unicode="&#x15d;" glyph-name="scircumflex" horiz-adv-x="1067" d="M287 1638H435L680 1262H541L361 1507L181 1262H42L287 1638ZM815 1087V913Q737 953 653 973T479 993Q342 993 274 951T205 825Q205 761 254 725T451 655L514 641Q710 599 792 523T875
309Q875 153 752 62T412 -29Q322 -29 225 -12T19 41V231Q121 178 220 152T416 125Q546 125 616 169T686 295Q686 370 636 410T414 487L350 502Q179 538 103 612T27 817Q27 975 139 1061T457 1147Q559 1147 649 1132T815 1087Z" />
<glyph unicode="&#x15e;" glyph-name="Scedilla" horiz-adv-x="1300" d="M980 1444V1247Q865 1302 763 1329T566 1356Q401 1356 312 1292T222 1110Q222 1011 281 961T507 879L629 854Q855 811 962 703T1070 412Q1070 195 925 83T498 -29Q392 -29 273 -5T25 66V274Q148
205 266 170T498 135Q671 135 765 203T859 397Q859 507 792 569T570 662L447 686Q221 731 120 827T19 1094Q19 1292 158 1406T543 1520Q648 1520 757 1501T980 1444ZM446 0Q501 -62 528 -114T555 -215Q555 -304 495 -349T317 -395Q271 -395 228 -389T141 -371V-240Q175
-257 212 -264T296 -272Q355 -272 385 -248T415 -178Q415 -148 394 -105T327 0H446Z" />
<glyph unicode="&#x15f;" glyph-name="scedilla" horiz-adv-x="1067" d="M815 1087V913Q737 953 653 973T479 993Q342 993 274 951T205 825Q205 761 254 725T451 655L514 641Q710 599 792 523T875 309Q875 153 752 62T412 -29Q322 -29 225 -12T19 41V231Q121 178
220 152T416 125Q546 125 616 169T686 295Q686 370 636 410T414 487L350 502Q179 538 103 612T27 817Q27 975 139 1061T457 1147Q559 1147 649 1132T815 1087ZM330 0Q385 -62 412 -114T439 -215Q439 -304 379 -349T201 -395Q155 -395 112 -389T25 -371V-240Q59
-257 96 -264T180 -272Q239 -272 269 -248T299 -178Q299 -148 278 -105T211 0H330Z" />
<glyph unicode="&#x160;" glyph-name="Scaron" horiz-adv-x="1300" d="M980 1444V1247Q865 1302 763 1329T566 1356Q401 1356 312 1292T222 1110Q222 1011 281 961T507 879L629 854Q855 811 962 703T1070 412Q1070 195 925 83T498 -29Q392 -29 273 -5T25 66V274Q148
205 266 170T498 135Q671 135 765 203T859 397Q859 507 792 569T570 662L447 686Q221 731 120 827T19 1094Q19 1292 158 1406T543 1520Q648 1520 757 1501T980 1444ZM1380 1635L1169 1901H1308L1474 1723L1640 1901H1779L1568 1635H1380Z" />
<glyph unicode="&#x161;" glyph-name="scaron" horiz-adv-x="1067" d="M815 1087V913Q737 953 653 973T479 993Q342 993 274 951T205 825Q205 761 254 725T451 655L514 641Q710 599 792 523T875 309Q875 153 752 62T412 -29Q322 -29 225 -12T19 41V231Q121 178
220 152T416 125Q546 125 616 169T686 295Q686 370 636 410T414 487L350 502Q179 538 103 612T27 817Q27 975 139 1061T457 1147Q559 1147 649 1132T815 1087ZM1312 1262L1067 1638H1206L1386 1393L1566 1638H1705L1460 1262H1312Z" />
<glyph unicode="&#x162;" glyph-name="Tcommaaccent" horiz-adv-x="1251" d="M387 0Q442 -62 469 -114T496 -215Q496 -304 436 -349T258 -395Q212 -395 169 -389T82 -371V-240Q116 -257 153 -264T237 -272Q296 -272 326 -248T356 -178Q356 -148 335 -105T268 0H387ZM1
1493H1264V1323H734V0H531V1323H1V1493Z" />
<glyph unicode="&#x163;" glyph-name="tcommaaccent" horiz-adv-x="803" d="M533 0Q588 -62 615 -114T642 -215Q642 -304 582 -349T404 -395Q358 -395 315 -389T228 -371V-240Q262 -257 299 -264T383 -272Q442 -272 472 -248T502 -178Q502 -148 481 -105T414 0H533ZM324
1438V1120H703V977H324V369Q324 232 361 193T514 154H703V0H514Q301 0 220 79T139 369V977H4V1120H139V1438H324Z" />
<glyph unicode="&#x164;" glyph-name="Tcaron" horiz-adv-x="1251" d="M1 1493H1264V1323H734V0H531V1323H1V1493ZM1356 1621L1145 1887H1284L1450 1709L1616 1887H1755L1544 1621H1356Z" />
<glyph unicode="&#x165;" glyph-name="tcaron" horiz-adv-x="803" d="M324 1438V1120H703V977H324V369Q324 232 361 193T514 154H703V0H514Q301 0 220 79T139 369V977H4V1120H139V1438H324ZM649 1666H848L731 1290H578L649 1666Z" />
<glyph unicode="&#x166;" glyph-name="Tbar" horiz-adv-x="1265" d="M1 1493H1264V1323H734V747H999V577H734V0H531V577H266V747H531V1323H1V1493Z" />
<glyph unicode="&#x167;" glyph-name="tbar" horiz-adv-x="705" d="M326 1438V1120H705V977H326V744H516V602H326V369Q326 232 363 193Q401 154 516 154H705V0H516Q303 0 222 80Q141 159 141 369V602H6V744H141V977H6V1120H141V1438H326Z" />
<glyph unicode="&#x168;" glyph-name="Utilde" horiz-adv-x="1499" d="M1609 1710L1552 1743Q1527 1757 1512 1762T1484 1768Q1448 1768 1428 1743T1408 1673V1667H1283Q1283 1768 1334 1827T1472 1886Q1508 1886 1538 1878T1617 1843L1674 1813Q1697 1800 1714
1794T1746 1788Q1778 1788 1798 1813T1818 1880V1886H1943Q1941 1786 1890 1727T1754 1667Q1720 1667 1691 1675T1609 1710ZM25 1493H228V586Q228 346 315 241T597 135Q791 135 878 240T965 586V1493H1168V561Q1168 269 1024 120T597 -29Q314 -29 170 120T25 561V1493Z"
/>
<glyph unicode="&#x169;" glyph-name="utilde" horiz-adv-x="1298" d="M478 1370L421 1425Q399 1445 383 1454T353 1464Q315 1464 297 1428T277 1309H152Q154 1444 205 1517T347 1591Q385 1591 417 1577T486 1530L543 1475Q565 1455 581 1446T611 1436Q649 1436
667 1472T687 1591H812Q810 1456 759 1383T617 1309Q579 1309 547 1323T478 1370ZM25 442V1120H209V449Q209 290 271 211T457 131Q606 131 692 226T779 485V1120H963V0H779V172Q712 70 624 21T418 -29Q225 -29 125 91T25 442Z" />
<glyph unicode="&#x16a;" glyph-name="Umacron" horiz-adv-x="1499" d="M268 1841H866V1693H268V1841ZM25 1493H228V586Q228 346 315 241T597 135Q791 135 878 240T965 586V1493H1168V561Q1168 269 1024 120T597 -29Q314 -29 170 120T25 561V1493Z" />
<glyph unicode="&#x16b;" glyph-name="umacron" horiz-adv-x="1298" d="M161 1526H759V1378H161V1526ZM25 442V1120H209V449Q209 290 271 211T457 131Q606 131 692 226T779 485V1120H963V0H779V172Q712 70 624 21T418 -29Q225 -29 125 91T25 442Z" />
<glyph unicode="&#x16c;" glyph-name="Ubreve" horiz-adv-x="1499" d="M1277 1901H1395Q1408 1847 1457 1819T1590 1790Q1672 1790 1720 1817T1785 1901H1903Q1893 1782 1813 1721T1590 1659Q1446 1659 1367 1720T1277 1901ZM25 1493H228V586Q228 346 315 241T597
135Q791 135 878 240T965 586V1493H1168V561Q1168 269 1024 120T597 -29Q314 -29 170 120T25 561V1493Z" />
<glyph unicode="&#x16d;" glyph-name="ubreve" horiz-adv-x="1298" d="M146 1608H264Q275 1533 323 1496T459 1458Q545 1458 593 1495T654 1608H772Q762 1465 683 1393T459 1321Q314 1321 235 1393T146 1608ZM25 442V1120H209V449Q209 290 271 211T457 131Q606
131 692 226T779 485V1120H963V0H779V172Q712 70 624 21T418 -29Q225 -29 125 91T25 442Z" />
<glyph unicode="&#x16e;" glyph-name="Uring" horiz-adv-x="1499" d="M25 1493H228V586Q228 346 315 241T597 135Q791 135 878 240T965 586V1493H1168V561Q1168 269 1024 120T597 -29Q314 -29 170 120T25 561V1493ZM681 1629Q681 1692 637 1736T529 1780Q464 1780
421 1737T377 1629Q377 1564 420 1521T529 1477Q593 1477 637 1521T681 1629ZM803 1629Q803 1514 724 1434T529 1354Q414 1354 335 1434T255 1629Q255 1744 334 1823T529 1903Q644 1903 723 1824T803 1629Z" />
<glyph unicode="&#x16f;" glyph-name="uring" horiz-adv-x="1298" d="M25 442V1120H209V449Q209 290 271 211T457 131Q606 131 692 226T779 485V1120H963V0H779V172Q712 70 624 21T418 -29Q225 -29 125 91T25 442ZM565 1721Q565 1784 521 1828T413 1872Q348 1872
305 1829T261 1721Q261 1656 304 1613T413 1569Q477 1569 521 1613T565 1721ZM687 1721Q687 1606 608 1526T413 1446Q298 1446 219 1526T139 1721Q139 1836 218 1915T413 1995Q528 1995 607 1916T687 1721Z" />
<glyph unicode="&#x170;" glyph-name="Uhungarumlaut" horiz-adv-x="1499" d="M1803 1899H1988L1760 1635H1607L1803 1899ZM1468 1899H1653L1425 1635H1272L1468 1899ZM25 1493H228V586Q228 346 315 241T597 135Q791 135 878 240T965 586V1493H1168V561Q1168 269
1024 120T597 -29Q314 -29 170 120T25 561V1493Z" />
<glyph unicode="&#x171;" glyph-name="uhungarumlaut" horiz-adv-x="1298" d="M710 1638H888L640 1262H505L710 1638ZM376 1638H546L323 1262H186L376 1638ZM25 442V1120H209V449Q209 290 271 211T457 131Q606 131 692 226T779 485V1120H963V0H779V172Q712 70
624 21T418 -29Q225 -29 125 91T25 442Z" />
<glyph unicode="&#x172;" glyph-name="Uogonek" horiz-adv-x="1499" d="M25 1493H228V586Q228 346 315 241T597 135Q791 135 878 240T965 586V1493H1168V561Q1168 269 1024 120T597 -29Q314 -29 170 120T25 561V1493ZM373 -15H492Q447 -76 426 -120T404 -195Q404
-241 431 -264T513 -287Q545 -287 576 -280T638 -257V-390Q600 -400 566 -405T502 -410Q380 -410 323 -367T265 -230Q265 -182 291 -130T373 -15Z" />
<glyph unicode="&#x173;" glyph-name="uogonek" horiz-adv-x="1298" d="M25 442V1120H209V449Q209 290 271 211T457 131Q606 131 692 226T779 485V1120H963V0H779V172Q712 70 624 21T418 -29Q225 -29 125 91T25 442ZM674 0H793Q748 -61 727 -105T705 -180Q705
-226 732 -249T814 -272Q846 -272 877 -265T939 -242V-375Q901 -385 867 -390T803 -395Q681 -395 624 -352T566 -215Q566 -167 592 -115T674 0Z" />
<glyph unicode="&#x174;" glyph-name="Wcircumflex" horiz-adv-x="2025" d="M1743 1908H1931L2142 1642H2003L1837 1820L1671 1642H1532L1743 1908ZM14 1493H218L532 231L845 1493H1072L1386 231L1699 1493H1904L1529 0H1275L960 1296L642 0H388L14 1493Z" />
<glyph unicode="&#x175;" glyph-name="wcircumflex" horiz-adv-x="1675" d="M575 1645H723L968 1269H829L649 1514L469 1269H330L575 1645ZM14 1120H198L428 246L657 1120H874L1104 246L1333 1120H1517L1224 0H1007L766 918L524 0H307L14 1120Z" />
<glyph unicode="&#x176;" glyph-name="Ycircumflex" horiz-adv-x="1251" d="M1356 1908H1544L1755 1642H1616L1450 1820L1284 1642H1145L1356 1908ZM1 1493H218L632 879L1043 1493H1260L732 711V0H529V711L1 1493Z" />
<glyph unicode="&#x177;" glyph-name="ycircumflex" horiz-adv-x="1212" d="M344 1645H492L737 1269H598L418 1514L238 1269H99L344 1645ZM611 -104Q533 -304 459 -365T261 -426H114V-272H222Q298 -272 340 -236T433 -66L466 18L13 1120H208L558 244L908 1120H1103L611
-104Z" />
<glyph unicode="&#x178;" glyph-name="Ydieresis" horiz-adv-x="1251" d="M1 1493H218L632 879L1043 1493H1260L732 711V0H529V711L1 1493ZM1560 1870H1763V1667H1560V1870ZM1169 1870H1372V1667H1169V1870Z" />
<glyph unicode="&#x179;" glyph-name="Zacute" horiz-adv-x="1403" d="M1371 1900H1556L1328 1636H1175L1371 1900ZM36 1493H1209V1339L265 170H1232V0H13V154L957 1323H36V1493Z" />
<glyph unicode="&#x17a;" glyph-name="zacute" horiz-adv-x="1075" d="M346 1645H545L219 1269H66L346 1645ZM44 1120H918V952L226 147H918V0H19V168L711 973H44V1120Z" />
<glyph unicode="&#x17b;" glyph-name="Zdotaccent" horiz-adv-x="1403" d="M1244 1872H1448V1667H1244V1872ZM36 1493H1209V1339L265 170H1232V0H13V154L957 1323H36V1493Z" />
<glyph unicode="&#x17c;" glyph-name="zdotaccent" horiz-adv-x="1075" d="M1077 1556H1261V1323H1077V1556ZM44 1120H918V952L226 147H918V0H19V168L711 973H44V1120Z" />
<glyph unicode="&#x17d;" glyph-name="Zcaron" horiz-adv-x="1403" d="M36 1493H1209V1339L265 170H1232V0H13V154L957 1323H36V1493ZM1431 1635L1220 1901H1359L1525 1723L1691 1901H1830L1619 1635H1431Z" />
<glyph unicode="&#x17e;" glyph-name="zcaron" horiz-adv-x="1075" d="M44 1120H918V952L226 147H918V0H19V168L711 973H44V1120ZM276 1262L31 1638H170L350 1393L530 1638H669L424 1262H276Z" />
<glyph unicode="&#x17f;" glyph-name="longs" horiz-adv-x="714" d="M362 0H177V977H1V1120H177V1198Q177 1385 264 1470T540 1556H714V1403H538Q439 1403 400 1363Q362 1322 362 1219V0Z" />
<glyph unicode="&#x180;" glyph-name="uni0180" horiz-adv-x="1173" d="M977 559Q977 762 894 878Q810 993 664 993Q518 993 434 878Q351 762 351 559Q351 356 434 240Q518 125 664 125Q810 125 894 240Q977 356 977 559ZM351 950Q409 1050 498 1098Q586 1147
709 1147Q913 1147 1040 985Q1168 823 1168 559Q1168 295 1040 133Q913 -29 709 -29Q586 -29 498 20Q409 68 351 168V0H166V1284H12V1409H166V1556H351V1409H676V1284H351V950Z" />
<glyph unicode="&#x181;" glyph-name="uni0181" horiz-adv-x="1492" d="M616 713V166H940Q1103 166 1181 233T1260 440Q1260 580 1182 646T940 713H616ZM616 1327V877H915Q1063 877 1135 932T1208 1102Q1208 1215 1136 1271T915 1327H616ZM414 1493H930Q1161 1493
1286 1397T1411 1124Q1411 987 1347 906T1159 805Q1308 773 1390 672T1473 418Q1473 218 1337 109T950 0H414V1328Q282 1328 223 1281T164 1128V1079H8V1149Q8 1330 104 1411T414 1493Z" />
<glyph unicode="&#x182;" glyph-name="uni0182" horiz-adv-x="1405" d="M876 439Q876 578 798 645T556 713H232V166H556Q719 166 797 233T876 439ZM984 1493V1327H232V879H566Q817 879 953 770T1089 439Q1089 218 958 109T566 0H30V1493H984Z" />
<glyph unicode="&#x183;" glyph-name="uni0183" horiz-adv-x="1042" d="M215 950Q273 1050 362 1098Q450 1147 573 1147Q777 1147 904 985Q1032 823 1032 559Q1032 295 904 133Q777 -29 573 -29Q450 -29 362 20Q273 68 215 168V0H30V1556H876V1390L215 1391V950ZM841
559Q841 762 758 878Q674 993 528 993Q382 993 298 878Q215 762 215 559Q215 356 298 240Q382 125 528 125Q674 125 758 240Q841 356 841 559Z" />
<glyph unicode="&#x184;" glyph-name="uni0184" horiz-adv-x="1268" d="M1055 439Q1055 578 976 646Q898 713 735 713H411V166H735Q898 166 976 234Q1055 301 1055 439ZM411 1493V879H745Q996 879 1132 770T1268 439Q1268 218 1132 109T745 0H209V1092H8L320 1493H411Z" />
<glyph unicode="&#x185;" glyph-name="uni0185" horiz-adv-x="1199" d="M379 950Q437 1050 525 1098T737 1147Q941 1147 1068 985T1196 559Q1196 295 1069 133T737 -29Q614 -29 526 19T379 168V0H194V1092H8L298 1557H379V950ZM1005 559Q1005 762 922 877T692
993Q546 993 463 878T379 559Q379 356 462 241T692 125Q838 125 921 240T1005 559Z" />
<glyph unicode="&#x186;" glyph-name="uni0186" horiz-adv-x="1240" d="M22 1378Q126 1449 244 1484T497 1520Q836 1520 1031 1313T1226 745Q1226 386 1031 179T497 -29Q365 -29 247 7T22 115V326Q124 231 239 184T485 137Q741 137 877 293T1013 745Q1013 1041
877 1197T485 1354Q355 1354 240 1307T22 1165V1378Z" />
<glyph unicode="&#x187;" glyph-name="uni0187" horiz-adv-x="1523" d="M1208 1378V1165Q1106 1260 991 1307T745 1354Q489 1354 353 1198T217 745Q217 450 353 294T745 137Q875 137 990 184T1208 326V115Q1102 43 984 7T733 -29Q394 -29 199 178T4 745Q4 1105
199 1312T733 1520Q829 1520 985 1484Q998 1481 1010 1477Q1026 1672 1109 1770Q1211 1892 1438 1892H1515V1722H1452Q1318 1722 1263 1647T1208 1378Z" />
<glyph unicode="&#x188;" glyph-name="uni0188" horiz-adv-x="1124" d="M888 1150V905Q810 948 732 969T573 991Q394 991 295 878T196 559Q196 354 295 241T573 127Q653 127 731 148T888 213V43Q811 7 729 -11T553 -29Q300 -29 151 130T2 559Q2 833 152 990T565
1147Q636 1147 706 1135V1150Q706 1364 786 1460T1048 1556H1117V1400H1069Q964 1400 926 1352T888 1150Z" />
<glyph unicode="&#x189;" glyph-name="uni0189" horiz-adv-x="1587" d="M211 1493H627Q1060 1493 1263 1313T1466 748Q1466 362 1263 181T627 0H211V700H10V844H211V1493ZM414 1327V844H750V700H414V166H657Q966 166 1109 306T1253 748Q1253 1048 1110 1187T657
1327H414Z" />
<glyph unicode="&#x18a;" glyph-name="uni018A" horiz-adv-x="1688" d="M617 1327V166H861Q1170 166 1313 306T1457 748Q1457 1048 1314 1187T861 1327H617ZM415 1493H830Q1264 1493 1467 1313T1670 748Q1670 362 1466 181T830 0H415V1328Q283 1328 224 1281T165
1128V1079H9V1149Q9 1330 105 1411T415 1493Z" />
<glyph unicode="&#x18b;" glyph-name="uni018B" horiz-adv-x="1095" d="M219 439Q219 166 539 166H863V713H539Q376 713 298 646T219 439ZM219 1493H1065V0H529Q278 0 142 109T6 440Q6 661 142 770T529 879H863V1327H219V1493Z" />
<glyph unicode="&#x18c;" glyph-name="uni018C" horiz-adv-x="1041" d="M166 1390V1556H1011V0H827V168Q769 68 681 20T468 -29Q265 -29 138 133T10 559Q10 823 137 985T468 1147Q592 1147 680 1099T827 950V1391L166 1390ZM200 559Q200 356 283 241T513 125Q659
125 743 240T827 559Q827 762 743 877T513 993Q367 993 284 878T200 559Z" />
<glyph unicode="&#x18d;" glyph-name="uni018D" horiz-adv-x="1055" d="M775 66Q932 -13 932 -154Q932 -426 491 -426Q270 -426 150 -356V-203Q252 -273 498 -273Q744 -273 744 -156Q744 -64 480 -16Q272 21 155 133Q13 268 13 539Q13 810 150 966T526 1123Q766
1123 903 967T1040 535Q1040 379 963 249T775 66ZM846 535Q847 738 762 852T528 967Q380 967 294 851T208 540Q208 346 302 247T522 136Q586 130 637 116Q736 158 791 268T846 535Z" />
<glyph unicode="&#x18e;" glyph-name="uni018E" horiz-adv-x="998" d="M968 1493V0H6V170H766V711H55V881H766V1323H24V1493H968Z" />
<glyph unicode="&#x18f;" glyph-name="uni018F" horiz-adv-x="1408" d="M12 780H1179Q1179 1048 1042 1201T630 1354Q491 1354 365 1306T127 1163V1378Q238 1448 369 1484T647 1520Q997 1520 1194 1316T1392 745Q1392 392 1204 182T702 -29Q373 -29 193 190T12
780ZM232 614Q245 419 372 277T702 135Q904 135 1031 277T1172 614H232Z" />
<glyph unicode="&#x190;" glyph-name="uni0190" horiz-adv-x="1018" d="M324 805Q193 838 122 923T51 1133Q51 1311 185 1415T549 1520Q638 1520 738 1504T954 1456V1276Q840 1314 745 1332T567 1350Q415 1350 334 1289T252 1112Q252 1000 331 941T559 881H741V715H567Q402
715 310 641T217 434Q217 291 316 216T606 141Q715 141 815 166T999 240V45Q893 8 794 -10T600 -29Q320 -29 168 92T16 434Q16 578 97 676T324 805Z" />
<glyph unicode="&#x191;" glyph-name="uni0191" horiz-adv-x="1171" d="M313 1493H1171V1323H515V883H1107V713H515V104Q515 -166 413 -288T83 -410H6V-240H69Q203 -240 258 -165T313 104V1493Z" />
<glyph unicode="&#x192;" glyph-name="florin" horiz-adv-x="889" d="M889 1556V1403H713Q614 1403 576 1363T537 1219V1120H840V977H537V-68Q537 -255 450 -340T174 -426H0V-273H176Q275 -273 313 -233T352 -89V977H176V1120H352V1198Q352 1385 439 1470T715 1556H889Z" />
<glyph unicode="&#x193;" glyph-name="uni0193" horiz-adv-x="1585" d="M1108 213V614H778V780H1308V139Q1191 56 1050 14T749 -29Q399 -29 202 175T4 745Q4 1111 201 1315T749 1520Q840 1520 921 1508T1071 1470Q1071 1658 1171 1775T1499 1892H1576V1722H1513Q1379
1722 1324 1647T1269 1378V1163Q1157 1258 1031 1306T766 1354Q492 1354 355 1201T217 745Q217 443 354 290T766 137Q873 137 957 155T1108 213Z" />
<glyph unicode="&#x194;" glyph-name="uni0194" horiz-adv-x="1400" d="M700 -259Q754 -259 798 -227Q826 -207 826 -141Q826 -84 795 -11Q744 110 700 202Q656 110 605 -11Q574 -84 574 -141Q574 -207 602 -227Q646 -259 700 -259ZM700 631L1173 1493H1395L813
420Q917 220 984 46Q1030 -73 1030 -139Q1030 -278 955 -343Q855 -430 700 -430Q545 -430 445 -343Q370 -278 370 -139Q370 -73 416 46Q483 220 587 420L5 1493H227L700 631Z" />
<glyph unicode="&#x195;" glyph-name="uni0195" horiz-adv-x="1708" d="M1200 156Q1349 156 1433 254Q1520 355 1520 510Q1520 732 1446 844Q1384 939 1263 972V1120Q1487 1091 1596 948Q1707 803 1707 527Q1707 282 1563 141T1198 0H1128Q941 0 863 100T784 406V670Q784
829 722 908T536 987Q387 987 301 892T215 633V0H30V1556H215V946Q281 1047 370 1097T577 1147Q770 1147 869 1028T968 676V406Q968 259 1006 208T1149 156H1200Z" />
<glyph unicode="&#x196;" glyph-name="uni0196" horiz-adv-x="533" d="M24 1493H226V514Q226 320 281 245T470 170H533V0H456Q229 0 127 122T24 514V1493Z" />
<glyph unicode="&#x197;" glyph-name="uni0197" horiz-adv-x="584" d="M191 1493H393V747H584V577H393V0H191V577H0V747H191V1493Z" />
<glyph unicode="&#x198;" glyph-name="uni0198" horiz-adv-x="1368" d="M1356 1096H1186V1217Q1186 1271 1150 1311T1075 1351Q1005 1351 968 1316L421 797L1215 0H949L232 719V0H30V1493H232V862L852 1441Q937 1520 1050 1520Q1186 1520 1271 1428Q1356 1337
1356 1227V1096Z" />
<glyph unicode="&#x199;" glyph-name="uni0199" horiz-adv-x="1023" d="M28 1150Q28 1364 109 1460T372 1556H563V1400H395Q290 1400 252 1352T214 1150V637L763 1120H998L404 596L1023 0H783L214 547V0H29L28 1150Z" />
<glyph unicode="&#x19a;" glyph-name="uni019A" horiz-adv-x="544" d="M183 1556H367V844H544V700H367V0H183V700H0V844H183V1556Z" />
<glyph unicode="&#x19b;" glyph-name="uni019B" horiz-adv-x="1103" d="M6 0L497 1074L426 1262L126 1161L93 1260L390 1359L315 1556H515L567 1418L881 1522L914 1425L603 1321L1096 0H901L587 828L201 0H6Z" />
<glyph unicode="&#x19c;" glyph-name="uni019C" horiz-adv-x="1711" d="M784 213Q715 89 619 30T393 -29Q218 -29 123 94Q28 216 28 442V1493H231V452Q231 266 270 213Q327 135 444 135Q587 135 670 230T753 489V1493H956V452Q956 290 1013 212Q1070 135 1189
135Q1312 135 1395 230Q1478 326 1478 489V1493H1681V-2H1478V172Q1415 69 1327 20T1118 -29Q996 -29 910 33Q825 95 784 213Z" />
<glyph unicode="&#x19d;" glyph-name="uni019D" horiz-adv-x="1455" d="M316 1493H588L1250 244V1493H1446V0H1174L512 1249V104Q512 -166 410 -288T80 -410H9V-240H72Q206 -240 261 -165T316 104V1493Z" />
<glyph unicode="&#x19e;" glyph-name="uni019E" horiz-adv-x="1298" d="M942 676V-426H758V670Q758 829 696 908T510 987Q361 987 275 892T189 633V0H4V1120H189V946Q255 1047 344 1097Q434 1147 551 1147Q744 1147 843 1028Q942 908 942 676Z" />
<glyph unicode="&#x19f;" glyph-name="uni019F" horiz-adv-x="1414" d="M16 745Q16 1099 204 1309T707 1520Q1022 1520 1210 1310T1398 746Q1398 392 1210 182T707 -29Q393 -29 205 181T16 745ZM709 1356Q507 1356 379 1214T239 877H1179Q1165 1072 1038 1214T709
1356ZM229 710Q237 453 362 294T708 135Q928 135 1052 293T1184 710H229Z" />
<glyph unicode="&#x1a0;" glyph-name="Ohorn" horiz-adv-x="1870" d="M953 1356Q733 1356 604 1192T474 745Q474 463 603 299T953 135Q1173 135 1301 299T1430 745Q1430 1028 1302 1192T953 1356ZM953 1520Q1267 1520 1455 1310T1643 745Q1643 392 1455 182T953
-29Q638 -29 450 181T261 745Q261 1099 449 1309T953 1520ZM1442 1291V1410Q1503 1365 1547 1344T1622 1322Q1668 1322 1691 1349T1714 1431Q1714 1463 1707 1494T1684 1556H1817Q1827 1518 1832 1484T1837 1420Q1837 1298 1794 1241T1657 1183Q1609 1183 1557
1209T1442 1291Z" />
<glyph unicode="&#x1a1;" glyph-name="ohorn" horiz-adv-x="1253" d="M1112 994V1113Q1173 1068 1217 1047T1292 1025Q1338 1025 1361 1052T1384 1134Q1384 1166 1377 1197T1354 1259H1487Q1497 1221 1502 1187T1507 1123Q1507 1001 1464 944T1327 886Q1279 886
1227 912T1112 994ZM535 991Q387 991 301 876T215 559Q215 358 300 243T535 127Q682 127 768 243T854 559Q854 758 768 874T535 991ZM535 1147Q775 1147 912 991T1049 559Q1049 284 912 128T535 -29Q294 -29 158 127T21 559Q21 835 157 991T535 1147Z" />
<glyph unicode="&#x1a2;" glyph-name="uni01A2" horiz-adv-x="1673" d="M1444 0V979Q1444 1173 1389 1248T1212 1323V182Q1024 -29 709 -29Q395 -29 207 181T18 745Q18 1099 206 1309T710 1520Q822 1520 919 1493H1214Q1441 1493 1543 1371T1646 979V0H1444ZM710
1356Q490 1356 361 1192T231 746Q231 463 360 299T710 135Q885 135 1013 238V1286Q875 1356 710 1356Z" />
<glyph unicode="&#x1a3;" glyph-name="uni01A3" horiz-adv-x="1285" d="M1073 -426V714Q1073 867 1035 916Q997 964 892 964V128Q755 -29 515 -29Q274 -29 138 127T1 559Q1 835 137 991T515 1147Q615 1147 697 1120H913Q1094 1120 1176 1024Q1257 928 1257 714V-426H1073ZM515
991Q367 991 281 876T195 559Q195 358 280 243T515 127Q644 127 708 185V937Q624 991 515 991Z" />
<glyph unicode="&#x1a4;" glyph-name="uni01A4" horiz-adv-x="1379" d="M615 1327V766H869Q1010 766 1087 839T1164 1047Q1164 1181 1087 1254T869 1327H615ZM413 1493H869Q1120 1493 1248 1380T1377 1047Q1377 826 1249 713T869 600H615V0H413V1328Q281 1328
222 1281T163 1128V1079H7V1149Q7 1330 103 1411T413 1493Z" />
<glyph unicode="&#x1a5;" glyph-name="uni01A5" horiz-adv-x="1032" d="M215 168V-426H29V1150Q29 1364 110 1460T373 1556H627V1400H396Q291 1400 253 1352T215 1150V950Q273 1050 361 1098T573 1147Q777 1147 904 985T1032 559Q1032 295 905 133T573 -29Q450
-29 362 19T215 168ZM841 559Q841 762 758 877T528 993Q382 993 299 878T215 559Q215 356 298 241T528 125Q674 125 757 240T841 559Z" />
<glyph unicode="&#x1a6;" glyph-name="uni01A6" horiz-adv-x="1177" d="M722 436Q787 414 848 342T972 144L1177 -264H960L769 119Q695 269 626 318T436 367H216V0H14V1493H216V1229H470Q726 1229 852 1122T978 799Q978 658 913 565T722 436ZM216 1063V504H470Q611
504 688 577T765 784T689 990T470 1063H216Z" />
<glyph unicode="&#x1a7;" glyph-name="uni01A7" horiz-adv-x="1085" d="M105 1444Q333 1520 560 1520T926 1406T1066 1108T965 827T638 686L515 662Q361 631 294 569T226 389T320 203T587 135Q812 135 1060 274V66Q801 -29 587 -29Q306 -29 160 83Q15 195 15 412Q15
594 122 702T456 854L578 879Q744 910 804 960Q863 1011 863 1119T774 1292Q684 1356 509 1356T105 1247V1444Z" />
<glyph unicode="&#x1a8;" glyph-name="uni01A8" horiz-adv-x="892" d="M76 1087Q152 1117 242 1132T434 1147Q640 1147 752 1061T864 817Q864 687 788 613T541 502L477 487Q306 450 256 410T205 295Q205 214 275 170T475 125Q572 125 671 151T872 231V41Q764 6
667 -11T479 -29Q263 -29 140 62T16 309Q16 446 98 522T377 641L440 655Q588 688 637 724T686 825Q686 909 618 951T412 993Q322 993 238 973T76 913V1087Z" />
<glyph unicode="&#x1a9;" glyph-name="uni01A9" horiz-adv-x="1294" d="M261 170H991V0H29V170L508 794L29 1323V1493H973V1323H261L740 798L261 170Z" />
<glyph unicode="&#x1aa;" glyph-name="uni01AA" horiz-adv-x="998" d="M645 1130V-89Q645 -193 683 -233T821 -273H997V-426H823Q634 -426 547 -341T460 -68V1130H270Q0 1130 0 1340Q0 1556 303 1556Q484 1556 566 1460Q619 1396 637 1285H828V1130H645ZM450 1284Q442
1328 425 1352Q392 1400 282 1400Q158 1400 155 1335Q152 1284 271 1284H450Z" />
<glyph unicode="&#x1ab;" glyph-name="uni01AB" horiz-adv-x="701" d="M321 1438V1120H700V977H321V369Q321 232 358 193T511 154H700V-20Q700 -234 618 -330T356 -426H286V-270H334Q440 -270 478 -222Q516 -173 516 -20V0Q303 0 220 79T136 369V977H1V1120H136V1438H321Z"
/>
<glyph unicode="&#x1ac;" glyph-name="uni01AC" horiz-adv-x="1236" d="M409 1493H1236V1323H706V0H503V1323H409Q277 1323 218 1278T159 1128V1079H3V1149Q3 1330 99 1411T409 1493Z" />
<glyph unicode="&#x1ad;" glyph-name="uni01AD" horiz-adv-x="710" d="M323 1219V1120H702V977H323V369Q323 232 360 193T513 154H702V0H513Q300 0 219 79T138 369V977H3V1120H138V1198Q138 1385 225 1470T501 1556H675V1403H499Q400 1403 362 1363T323 1219Z" />
<glyph unicode="&#x1ae;" glyph-name="uni01AE" horiz-adv-x="1266" d="M0 1493H1263V1323H733V104Q733 -90 788 -165T977 -240H1040V-410H962Q735 -410 633 -288T530 104V1323H0V1493Z" />
<glyph unicode="&#x1af;" glyph-name="Uhorn" horiz-adv-x="1757" d="M277 1513H480V606Q480 366 567 261T849 155Q1043 155 1130 260T1217 606V1513H1420V581Q1420 289 1276 140T849 -9Q566 -9 422 140T277 581V1513ZM1508 1291V1410Q1569 1365 1613 1344T1688
1322Q1734 1322 1757 1349T1780 1431Q1780 1463 1773 1494T1750 1556H1883Q1893 1518 1898 1484T1903 1420Q1903 1298 1860 1241T1723 1183Q1675 1183 1623 1209T1508 1291Z" />
<glyph unicode="&#x1b0;" glyph-name="uhorn" horiz-adv-x="1298" d="M1262 994V1113Q1323 1068 1367 1047T1442 1025Q1488 1025 1511 1052T1534 1134Q1534 1166 1527 1197T1504 1259H1637Q1647 1221 1652 1187T1657 1123Q1657 1001 1614 944T1477 886Q1429 886
1377 912T1262 994ZM27 442V1120H211V449Q211 290 273 211T459 131Q608 131 694 226T781 485V1120H965V0H781V172Q714 70 626 21T420 -29Q227 -29 127 91T27 442Z" />
<glyph unicode="&#x1b1;" glyph-name="uni01B1" horiz-adv-x="1445" d="M1427 1304H1107Q1268 1163 1339 1015T1410 673Q1410 364 1218 168T722 -29Q417 -29 226 168T34 683Q34 867 106 1016T337 1304H18V1482H618V1304Q440 1207 341 1041T241 673Q241 434 373
289T722 143Q938 143 1070 288T1202 673Q1202 875 1103 1041T827 1304V1482H1427V1304Z" />
<glyph unicode="&#x1b2;" glyph-name="uni01B2" horiz-adv-x="1231" d="M536 141Q752 141 884 286T1016 671Q1016 873 917 1039Q852 1148 742 1235V1303L921 1302Q1082 1161 1153 1013T1224 671Q1224 362 1032 165Q841 -31 536 -31L459 -29Q227 -23 130 93Q27
215 27 485V1493H229V485Q229 291 284 216T473 141H536Z" />
<glyph unicode="&#x1b3;" glyph-name="uni01B3" horiz-adv-x="1527" d="M1245 1351Q1188 1351 1167 1337Q1130 1313 1113 1288L733 711V0H530V711L2 1493H219L633 879L967 1384Q1057 1520 1220 1520Q1356 1520 1441 1428Q1526 1337 1526 1227V1096H1356V1217Q1356
1271 1320 1311T1245 1351Z" />
<glyph unicode="&#x1b4;" glyph-name="uni01B4" horiz-adv-x="1449" d="M612 -104Q534 -304 460 -365T262 -426H115V-272H223Q299 -272 341 -236T434 -66L467 18L14 1120H209L559 244L841 948Q862 1000 910 1051Q998 1147 1133 1147Q1264 1147 1356 1052T1449
822V708H1271V822Q1271 880 1231 922T1133 964Q1076 964 1035 922Q1015 902 1005 877L612 -104Z" />
<glyph unicode="&#x1b5;" glyph-name="uni01B5" d="M37 1493H1210V1339L810 844H1091V700H694L266 170H1233V0H14V154L455 700H156V844H571L958 1323H37V1493Z" />
<glyph unicode="&#x1b6;" glyph-name="uni01B6" horiz-adv-x="938" d="M44 1120H918V952L667 660H861V516H543L226 147H918V0H19V168L318 516H106V660H442L711 973H44V1120Z" />
<glyph unicode="&#x1b7;" glyph-name="uni01B7" horiz-adv-x="1140" d="M532 107Q724 107 823 182Q923 257 923 400Q923 534 831 607Q738 681 573 681H399V833L784 1323H12V1493H1036V1339L625 849Q731 849 859 793Q957 751 1043 642Q1124 538 1124 400Q1124 180
972 58Q820 -63 540 -63Q421 -63 296 -44Q170 -26 36 11V206Q142 157 269 132Q395 107 532 107Z" />
<glyph unicode="&#x1b8;" glyph-name="uni01B8" horiz-adv-x="1140" d="M608 107Q745 107 871 132Q998 157 1104 206V11Q970 -26 844 -44Q719 -63 600 -63Q320 -63 168 58Q16 180 16 400Q16 538 97 642Q183 751 281 793Q409 849 515 849L104 1339V1493H1128V1323H356L741
833V681H567Q402 681 309 607Q217 534 217 400Q217 257 317 182Q416 107 608 107Z" />
<glyph unicode="&#x1b9;" glyph-name="uni01B9" horiz-adv-x="1008" d="M514 476L103 952V1120H977V973H310L740 474V308H566Q401 308 308 234Q216 159 216 27Q216 -116 316 -191Q415 -266 605 -266Q714 -266 814 -241T998 -167V-362Q892 -399 792 -418Q693 -436
599 -436Q319 -436 167 -315T15 27Q15 165 96 269Q182 378 280 420Q408 476 514 476Z" />
<glyph unicode="&#x1ba;" glyph-name="uni01BA" horiz-adv-x="915" d="M533 -274Q617 -274 694 -253Q773 -232 854 -188V-367Q767 -399 687 -412Q601 -426 504 -426Q24 -426 24 -145Q24 93 430 146Q714 183 714 281Q714 405 479 405Q479 405 189 405L674 973H7V1120H881V952L527
540Q894 540 894 311Q894 35 430 -14Q204 -38 204 -135Q204 -274 533 -274Z" />
<glyph unicode="&#x1bb;" glyph-name="uni01BB" horiz-adv-x="985" d="M267 170H972V0H24V170L338 490L453 607H108V751H590Q685 860 722 932Q761 1008 761 1081Q761 1200 678 1275Q594 1350 460 1350Q365 1350 260 1317Q154 1284 34 1217V1421Q156 1470 262 1495T456
1520Q688 1520 826 1404T964 1094Q964 1002 930 920Q899 847 825 751H929V607H693L645 558L267 170Z" />
<glyph unicode="&#x1bc;" glyph-name="uni01BC" horiz-adv-x="1203" d="M216 400Q216 107 605 107T994 400Q994 534 902 607T644 681H123V1493H1052V1323H325V848L696 849Q952 850 1114 642Q1195 538 1195 394T1136 164L1108 123Q1088 94 1043 58Q891 -63 605
-63T167 58T15 400H216Z" />
<glyph unicode="&#x1bd;" glyph-name="uni01BD" horiz-adv-x="1010" d="M20 -167Q190 -266 396 -266Q802 -266 802 27Q802 161 710 234T452 308H99V1120H892V950H283V476H504Q609 476 723 427T920 271T1003 21T944 -209L916 -250Q896 -279 851 -315Q699 -436 419
-436Q232 -436 20 -362V-167Z" />
<glyph unicode="&#x1be;" glyph-name="uni01BE" horiz-adv-x="858" d="M466 998L464 873Q634 843 746 724Q854 609 854 439Q854 253 744 128Q607 -29 332 -29Q247 -29 166 -11Q85 6 9 41V213Q82 173 166 149Q244 127 324 127Q503 127 602 241Q659 306 660 439Q660
537 602 613Q516 727 324 727H262L264 998H35V1162H264V1438H466V1162H697V998H466Z" />
<glyph unicode="&#x1bf;" glyph-name="uni01BF" horiz-adv-x="1032" d="M215 -122V-426H30V1120H215V950Q267 1016 402 1098Q483 1147 693 1147Q877 1147 954 1035Q1032 922 1032 769Q1032 344 215 -122ZM215 60Q841 460 841 709Q841 842 784 908Q728 973 608
973Q388 973 215 734V60Z" />
<glyph unicode="&#x1c0;" glyph-name="uni01C0" horiz-adv-x="264" d="M30 1493H232V-426H30V1493Z" />
<glyph unicode="&#x1c1;" glyph-name="uni01C1" horiz-adv-x="1008" d="M434 1493H636V-426H434V1493ZM30 1493H232V-426H30V1493Z" />
<glyph unicode="&#x1c2;" glyph-name="uni01C2" horiz-adv-x="904" d="M351 1493H553V876H904V708H553V468H904V298H553V-426H351V298H0V468H351V708H0V876H351V1493Z" />
<glyph unicode="&#x1c3;" glyph-name="uni01C3" horiz-adv-x="605" d="M183 254H386V0H183V254ZM183 1493H386V838L366 481H204L183 838V1493Z" />
<glyph unicode="&#x1c4;" glyph-name="uni01C4" horiz-adv-x="2585" d="M1380 1493H2553V1339L1609 170H2576V0H1357V154L2301 1323H1380V1493ZM1873 1635L1662 1901H1801L1967 1723L2133 1901H2272L2061 1635H1873ZM211 1327V166H455Q764 166 907 306T1051 748Q1051
1048 908 1187T455 1327H211ZM9 1493H424Q858 1493 1061 1313T1264 748Q1264 362 1060 181T424 0H9V1493Z" />
<glyph unicode="&#x1c5;" glyph-name="uni01C5" horiz-adv-x="2320" d="M1429 1120H2303V952L1611 147H2303V0H1404V168L2096 973H1429V1120ZM1781 1262L1536 1638H1675L1855 1393L2035 1638H2174L1929 1262H1781ZM226 1327V166H470Q779 166 922 306T1066 748Q1066
1048 923 1187T470 1327H226ZM24 1493H439Q873 1493 1076 1313T1279 748Q1279 362 1075 181T439 0H24V1493Z" />
<glyph unicode="&#x1c6;" glyph-name="uni01C6" horiz-adv-x="2102" d="M1214 1120H2088V952L1396 147H2088V0H1189V168L1881 973H1214V1120ZM1566 1262L1321 1638H1460L1640 1393L1820 1638H1959L1714 1262H1566ZM825 950V1556H1009V0H825V168Q767 68 679 20T466
-29Q263 -29 136 133T8 559Q8 823 135 985T466 1147Q590 1147 678 1099T825 950ZM198 559Q198 356 281 241T511 125Q657 125 741 240T825 559Q825 762 741 877T511 993Q365 993 282 878T198 559Z" />
<glyph unicode="&#x1c7;" glyph-name="uni01C7" horiz-adv-x="1711" d="M1476 1493H1678V104Q1678 -166 1576 -288T1246 -410H1169V-240H1232Q1366 -240 1421 -165T1476 104V1493ZM32 1493H234V170H961V0H32V1493Z" />
<glyph unicode="&#x1c8;" glyph-name="uni01C8" horiz-adv-x="1611" d="M1355 1120H1539V-20Q1539 -234 1458 -330T1195 -426H1125V-270H1174Q1279 -270 1317 -222T1355 -20V1120ZM1355 1556H1539V1323H1355V1556ZM32 1493H234V170H961V0H32V1493Z" />
<glyph unicode="&#x1c9;" glyph-name="uni01C9" horiz-adv-x="935" d="M604 1120H788V-20Q788 -234 707 -330T444 -426H374V-270H423Q528 -270 566 -222T604 -20V1120ZM604 1556H788V1323H604V1556ZM30 1556H214V0H30V1556Z" />
<glyph unicode="&#x1ca;" glyph-name="uni01CA" horiz-adv-x="1907" d="M1682 1493H1884V104Q1884 -166 1782 -288T1452 -410H1375V-240H1438Q1572 -240 1627 -165T1682 104V1493ZM32 1493H304L966 244V1493H1162V0H890L228 1249V0H32V1493Z" />
<glyph unicode="&#x1cb;" glyph-name="uni01CB" horiz-adv-x="1892" d="M1572 1120H1756V-20Q1756 -234 1675 -330T1412 -426H1342V-270H1391Q1496 -270 1534 -222T1572 -20V1120ZM1572 1556H1756V1323H1572V1556ZM32 1493H304L966 244V1493H1162V0H890L228 1249V0H32V1493Z"
/>
<glyph unicode="&#x1cc;" glyph-name="uni01CC" horiz-adv-x="1633" d="M1355 1120H1539V-20Q1539 -234 1458 -330T1195 -426H1125V-270H1174Q1279 -270 1317 -222T1355 -20V1120ZM1355 1556H1539V1323H1355V1556ZM968 676V0H784V670Q784 829 722 908T536 987Q387
987 301 892T215 633V0H30V1120H215V946Q281 1047 370 1097T577 1147Q770 1147 869 1028T968 676Z" />
<glyph unicode="&#x1cd;" glyph-name="uni01CD" horiz-adv-x="1401" d="M688 1294L414 551H963L688 1294ZM574 1493H803L1372 0H1162L1026 383H353L217 0H4L574 1493ZM1431 1635L1220 1901H1359L1525 1723L1691 1901H1830L1619 1635H1431Z" />
<glyph unicode="&#x1ce;" glyph-name="uni01CE" horiz-adv-x="1255" d="M595 563Q372 563 286 512T200 338Q200 240 264 183T440 125Q593 125 685 233T778 522V563H595ZM962 639V0H778V170Q715 68 621 20T391 -29Q219 -29 118 67T16 326Q16 515 142 611T520 707H778V725Q778
852 695 921T460 991Q364 991 273 968T98 899V1069Q199 1108 294 1127T479 1147Q722 1147 842 1021T962 639ZM339 1262L94 1638H233L413 1393L593 1638H732L487 1262H339Z" />
<glyph unicode="&#x1cf;" glyph-name="uni01CF" horiz-adv-x="604" d="M33 1493H235V0H33V1493ZM1032 1635L821 1901H960L1126 1723L1292 1901H1431L1220 1635H1032Z" />
<glyph unicode="&#x1d0;" glyph-name="uni01D0" horiz-adv-x="569" d="M30 1120H214V0H30V1120ZM25 1262L-220 1638H-81L99 1393L279 1638H418L173 1262H25Z" />
<glyph unicode="&#x1d1;" glyph-name="uni01D1" horiz-adv-x="1612" d="M708 1356Q488 1356 359 1192T229 745Q229 463 358 299T708 135Q928 135 1056 299T1185 745Q1185 1028 1057 1192T708 1356ZM708 1520Q1022 1520 1210 1310T1398 745Q1398 392 1210 182T708
-29Q393 -29 205 181T16 745Q16 1099 204 1309T708 1520ZM1536 1635L1325 1901H1464L1630 1723L1796 1901H1935L1724 1635H1536Z" />
<glyph unicode="&#x1d2;" glyph-name="uni01D2" horiz-adv-x="1253" d="M530 991Q382 991 296 876T210 559Q210 358 295 243T530 127Q677 127 763 243T849 559Q849 758 763 874T530 991ZM530 1147Q770 1147 907 991T1044 559Q1044 284 907 128T530 -29Q289 -29
153 127T16 559Q16 835 152 991T530 1147ZM367 1262L122 1638H261L441 1393L621 1638H760L515 1262H367Z" />
<glyph unicode="&#x1d3;" glyph-name="uni01D3" horiz-adv-x="1499" d="M25 1493H228V586Q228 346 315 241T597 135Q791 135 878 240T965 586V1493H1168V561Q1168 269 1024 120T597 -29Q314 -29 170 120T25 561V1493ZM1487 1635L1276 1901H1415L1581 1723L1747
1901H1886L1675 1635H1487Z" />
<glyph unicode="&#x1d4;" glyph-name="uni01D4" horiz-adv-x="1298" d="M25 442V1120H209V449Q209 290 271 211T457 131Q606 131 692 226T779 485V1120H963V0H779V172Q712 70 624 21T418 -29Q225 -29 125 91T25 442ZM367 1262L122 1638H261L441 1393L621 1638H760L515
1262H367Z" />
<glyph unicode="&#x1d5;" glyph-name="uni01D5" horiz-adv-x="1169" d="M285 2099H883V1951H285V2099ZM677 1838H880V1635H677V1838ZM286 1838H489V1635H286V1838ZM13 1493H216V586Q216 346 303 241T585 135Q779 135 866 240T953 586V1493H1156V561Q1156 269 1012
120T585 -29Q302 -29 158 120T13 561V1493Z" />
<glyph unicode="&#x1d6;" glyph-name="uni01D6" horiz-adv-x="959" d="M172 1841H770V1693H172V1841ZM10 442V1120H194V449Q194 290 256 211T442 131Q591 131 677 226T764 485V1120H948V0H764V172Q697 70 609 21T403 -29Q210 -29 110 91T10 442ZM565 1552H768V1350H565V1552ZM174
1552H377V1350H174V1552Z" />
<glyph unicode="&#x1d7;" glyph-name="uni01D7" horiz-adv-x="1165" d="M9 1493H212V586Q212 346 299 241T581 135Q775 135 862 240T949 586V1493H1152V561Q1152 269 1008 120T581 -29Q298 -29 154 120T9 561V1493ZM692 2138H877L649 1874H496L692 2138ZM679 1838H882V1635H679V1838ZM288
1838H491V1635H288V1838Z" />
<glyph unicode="&#x1d8;" glyph-name="uni01D8" horiz-adv-x="958" d="M7 442V1120H191V449Q191 290 253 211T439 131Q588 131 674 226T761 485V1120H945V0H761V172Q694 70 606 21T400 -29Q207 -29 107 91T7 442ZM574 1826H759L531 1562H378L574 1826ZM561 1526H764V1323H561V1526ZM170
1526H373V1323H170V1526Z" />
<glyph unicode="&#x1d9;" glyph-name="uni01D9" horiz-adv-x="1169" d="M13 1493H216V586Q216 346 303 241T585 135Q779 135 866 240T953 586V1493H1156V561Q1156 269 1012 120T585 -29Q302 -29 158 120T13 561V1493ZM489 1872L278 2138H417L583 1960L749 2138H888L677
1872H489ZM677 1838H880V1635H677V1838ZM286 1838H489V1635H286V1838Z" />
<glyph unicode="&#x1da;" glyph-name="uni01DA" horiz-adv-x="964" d="M12 442V1120H196V449Q196 290 258 211T444 131Q593 131 679 226T766 485V1120H950V0H766V172Q699 70 611 21T405 -29Q212 -29 112 91T12 442ZM384 1560L173 1826H312L478 1648L644 1826H783L572
1560H384ZM572 1526H775V1323H572V1526ZM181 1526H384V1323H181V1526Z" />
<glyph unicode="&#x1db;" glyph-name="uni01DB" horiz-adv-x="1166" d="M13 1493H216V586Q216 346 303 241T585 135Q779 135 866 240T953 586V1493H1156V561Q1156 269 1012 120T585 -29Q302 -29 158 120T13 561V1493ZM478 2144L674 1880H521L291 2144H478ZM677
1844H880V1641H677V1844ZM286 1844H489V1641H286V1844Z" />
<glyph unicode="&#x1dc;" glyph-name="uni01DC" horiz-adv-x="958" d="M12 442V1120H196V449Q196 290 258 211T444 131Q593 131 679 226T766 485V1120H950V0H766V172Q699 70 611 21T405 -29Q212 -29 112 91T12 442ZM367 1826L563 1562H410L180 1826H367ZM566 1526H769V1323H566V1526ZM175
1526H378V1323H175V1526Z" />
<glyph unicode="&#x1dd;" glyph-name="uni01DD" horiz-adv-x="1260" d="M16 512V602H862Q850 792 748 891T462 991Q356 991 257 965T59 887V1061Q158 1103 262 1125T473 1147Q741 1147 897 991T1054 569Q1054 294 906 133T505 -29Q279 -29 148 116T16 512ZM200
458Q202 307 284 217T503 127Q657 127 749 214T856 459L200 458Z" />
<glyph unicode="&#x1de;" glyph-name="uni01DE" horiz-adv-x="1370" d="M685 1294L411 551H960L685 1294ZM571 1493H800L1369 0H1159L1023 383H350L214 0H1L571 1493ZM387 2099H985V1951H387V2099ZM779 1838H982V1635H779V1838ZM388 1838H591V1635H388V1838Z" />
<glyph unicode="&#x1df;" glyph-name="uni01DF" horiz-adv-x="959" d="M583 563Q360 563 274 512T188 338Q188 240 252 183T428 125Q581 125 673 233T766 522V563H583ZM950 639V0H766V170Q703 68 609 20T379 -29Q207 -29 106 67T4 326Q4 515 130 611T508 707H766V725Q766
852 683 921T448 991Q352 991 261 968T86 899V1069Q187 1108 282 1127T467 1147Q710 1147 830 1021T950 639ZM569 1552H772V1350H569V1552ZM178 1552H381V1350H178V1552ZM176 1841H774V1693H176V1841Z" />
<glyph unicode="&#x1e0;" glyph-name="uni01E0" horiz-adv-x="1368" d="M684 1294L410 551H959L684 1294ZM570 1493H799L1368 0H1158L1022 383H349L213 0H0L570 1493ZM582 1835H786V1630H582V1835ZM386 2099H984V1951H386V2099Z" />
<glyph unicode="&#x1e1;" glyph-name="uni01E1" horiz-adv-x="958" d="M583 563Q360 563 274 512T188 338Q188 240 252 183T428 125Q581 125 673 233T766 522V563H583ZM950 639V0H766V170Q703 68 609 20T379 -29Q207 -29 106 67T4 326Q4 515 130 611T508 707H766V725Q766
852 683 921T448 991Q352 991 261 968T86 899V1069Q187 1108 282 1127T467 1147Q710 1147 830 1021T950 639ZM370 1516H574V1311H370V1516ZM174 1780H772V1632H174V1780Z" />
<glyph unicode="&#x1e2;" glyph-name="uni01E2" horiz-adv-x="1995" d="M757 1844H1355V1696H757V1844ZM1844 1493V1323H1103V881H1814V711H1103V170H1863V0H900V383H372L212 0H7L632 1493H1844ZM771 1335L441 551H900V1335H771Z" />
<glyph unicode="&#x1e3;" glyph-name="uni01E3" horiz-adv-x="2011" d="M518 1523H1116V1375H518V1523ZM1617 660Q1616 811 1534 901T1314 991Q1161 991 1069 904T962 659L1617 660ZM894 963Q968 1053 1074 1100T1312 1147Q1538 1147 1670 1002T1802 606V516H956Q968
325 1070 225T1355 125Q1459 125 1559 151T1759 231V57Q1659 15 1555 -7T1345 -29Q1178 -29 1054 31T853 211Q780 91 672 31T421 -29Q232 -29 127 64T22 326Q22 515 148 611T526 707H784V725Q784 852 701 921T466 991Q370 991 279 968T104 899V1069Q205 1108 300
1127T485 1147Q627 1147 733 1099T894 963ZM601 563Q378 563 292 512T206 338Q206 240 270 183T446 125Q599 125 691 233T784 522V563H601Z" />
<glyph unicode="&#x1e4;" glyph-name="uni01E4" horiz-adv-x="1452" d="M1320 780V482H1441V394H1320V139Q1203 56 1062 14T761 -29Q411 -29 214 175T16 745Q16 1111 213 1315T761 1520Q907 1520 1038 1484T1281 1378V1163Q1169 1258 1043 1306T778 1354Q504 1354
367 1201T229 745Q229 443 366 290T778 137Q885 137 969 155T1120 213V394H867V482H1120V614H790V780H1320Z" />
<glyph unicode="&#x1e5;" glyph-name="uni01E5" horiz-adv-x="1184" d="M833 573Q833 773 751 883T519 993Q371 993 289 883T206 573Q206 374 288 264T519 154Q668 154 750 264T833 573ZM1017 139Q1017 29 998 -59H1177V-129H979Q948 -222 890 -286Q763 -426 501
-426Q404 -426 318 -412T151 -367V-188Q232 -232 311 -253T472 -274Q653 -274 743 -179Q764 -156 781 -128H145V-59H811Q833 12 833 106V197Q776 98 687 49T474 0Q268 0 142 157T16 573Q16 833 142 990T474 1147Q598 1147 687 1098T833 950V1120H1017V139Z" />
<glyph unicode="&#x1e6;" glyph-name="Gcaron" horiz-adv-x="1587" d="M1120 213V614H790V780H1320V139Q1203 56 1062 14T761 -29Q411 -29 214 175T16 745Q16 1111 213 1315T761 1520Q907 1520 1038 1484T1281 1378V1163Q1169 1258 1043 1306T778 1354Q504 1354
367 1201T229 745Q229 443 366 290T778 137Q885 137 969 155T1120 213ZM1571 1635L1360 1901H1499L1665 1723L1831 1901H1970L1759 1635H1571Z" />
<glyph unicode="&#x1e7;" glyph-name="gcaron" horiz-adv-x="1300" d="M323 1516L78 1892H217L397 1647L577 1892H716L471 1516H323ZM830 573Q830 773 748 883T516 993Q368 993 286 883T203 573Q203 374 285 264T516 154Q665 154 747 264T830 573ZM1014 139Q1014
-147 887 -286T498 -426Q401 -426 315 -412T148 -367V-188Q229 -232 308 -253T469 -274Q650 -274 740 -180T830 106V197Q773 98 684 49T471 0Q265 0 139 157T13 573Q13 833 139 990T471 1147Q595 1147 684 1098T830 950V1120H1014V139Z" />
<glyph unicode="&#x1e8;" glyph-name="uni01E8" horiz-adv-x="1343" d="M1403 1635L1192 1901H1331L1497 1723L1663 1901H1802L1591 1635H1403ZM32 1493H234V862L904 1493H1164L423 797L1217 0H951L234 719V0H32V1493Z" />
<glyph unicode="&#x1e9;" glyph-name="uni01E9" horiz-adv-x="1186" d="M30 1556H215V637L764 1120H999L405 596L1024 0H784L215 547V0H30V1556ZM1011 1635L800 1901H939L1105 1723L1271 1901H1410L1199 1635H1011Z" />
<glyph unicode="&#x1ea;" glyph-name="uni01EA" horiz-adv-x="1612" d="M431 -15H550Q505 -76 484 -120T462 -195Q462 -241 489 -264T571 -287Q603 -287 634 -280T696 -257V-390Q658 -400 624 -405T560 -410Q438 -410 381 -367T323 -230Q323 -182 349 -130T431
-15ZM708 1356Q488 1356 359 1192T229 745Q229 463 358 299T708 135Q928 135 1056 299T1185 745Q1185 1028 1057 1192T708 1356ZM708 1520Q1022 1520 1210 1310T1398 745Q1398 392 1210 182T708 -29Q393 -29 205 181T16 745Q16 1099 204 1309T708 1520Z" />
<glyph unicode="&#x1eb;" glyph-name="uni01EB" horiz-adv-x="1253" d="M251 -15H370Q325 -76 304 -120T282 -195Q282 -241 309 -264T391 -287Q423 -287 454 -280T516 -257V-390Q478 -400 444 -405T380 -410Q258 -410 201 -367T143 -230Q143 -182 169 -130T251
-15ZM530 991Q382 991 296 876T210 559Q210 358 295 243T530 127Q677 127 763 243T849 559Q849 758 763 874T530 991ZM530 1147Q770 1147 907 991T1044 559Q1044 284 907 128T530 -29Q289 -29 153 127T16 559Q16 835 152 991T530 1147Z" />
<glyph unicode="&#x1ec;" glyph-name="uni01EC" horiz-adv-x="1389" d="M397 1841H995V1693H397V1841ZM637 -16H756Q711 -77 690 -121T668 -196Q668 -242 695 -265T777 -288Q809 -288 840 -281T902 -258V-391Q864 -401 830 -406T766 -411Q644 -411 587 -368T529
-231Q529 -183 555 -131T637 -16ZM696 1356Q476 1356 347 1192T217 745Q217 463 346 299T696 135Q916 135 1044 299T1173 745Q1173 1028 1045 1192T696 1356ZM696 1520Q1010 1520 1198 1310T1386 745Q1386 392 1198 182T696 -29Q381 -29 193 181T4 745Q4 1099 192
1309T696 1520Z" />
<glyph unicode="&#x1ed;" glyph-name="uni01ED" horiz-adv-x="1033" d="M218 1525H816V1377H218V1525ZM458 -16H577Q532 -77 511 -121T489 -196Q489 -242 516 -265T598 -288Q630 -288 661 -281T723 -258V-391Q685 -401 651 -406T587 -411Q465 -411 408 -368T350
-231Q350 -183 376 -131T458 -16ZM517 991Q369 991 283 876T197 559Q197 358 282 243T517 127Q664 127 750 243T836 559Q836 758 750 874T517 991ZM517 1147Q757 1147 894 991T1031 559Q1031 284 894 128T517 -29Q276 -29 140 127T3 559Q3 835 139 991T517 1147Z"
/>
<glyph unicode="&#x1ee;" glyph-name="uni01EE" horiz-adv-x="1364" d="M1431 1635L1220 1901H1359L1525 1723L1691 1901H1830L1619 1635H1431ZM532 107Q724 107 823 182Q923 257 923 400Q923 534 831 607Q738 681 573 681H399V833L784 1323H12V1493H1036V1339L625
849Q731 849 859 793Q957 751 1043 642Q1124 538 1124 400Q1124 180 972 58Q820 -63 540 -63Q421 -63 296 -44Q170 -26 36 11V206Q142 157 269 132Q395 107 532 107Z" />
<glyph unicode="&#x1ef;" glyph-name="uni01EF" horiz-adv-x="1183" d="M276 1262L31 1638H170L350 1393L530 1638H669L424 1262H276ZM494 476Q600 476 728 420Q826 378 912 269Q993 165 993 27Q993 -194 841 -315T409 -436Q315 -436 216 -418Q116 -399 10 -362V-167Q94
-216 194 -241T403 -266Q593 -266 692 -191Q792 -116 792 27Q792 159 700 234Q607 308 442 308H268V474L698 973H31V1120H905V952L494 476Z" />
<glyph unicode="&#x1f0;" glyph-name="uni01F0" horiz-adv-x="569" d="M31 1262L-214 1638H-75L105 1393L285 1638H424L179 1262H31ZM230 1120H414V-20Q414 -234 333 -330T70 -426H0V-270H49Q154 -270 192 -222T230 -20V1120Z" />
<glyph unicode="&#x1f1;" glyph-name="uni01F1" horiz-adv-x="2912" d="M1493 1493H2666V1339L1722 170H2689V0H1470V154L2414 1323H1493V1493ZM236 1327V166H480Q789 166 932 306T1076 748Q1076 1048 933 1187T480 1327H236ZM34 1493H449Q883 1493 1086 1313T1289
748Q1289 362 1085 181T449 0H34V1493Z" />
<glyph unicode="&#x1f2;" glyph-name="uni01F2" horiz-adv-x="2660" d="M1537 1120H2411V952L1719 147H2411V0H1512V168L2204 973H1537V1120ZM236 1327V166H480Q789 166 932 306T1076 748Q1076 1048 933 1187T480 1327H236ZM34 1493H449Q883 1493 1086 1313T1289
748Q1289 362 1085 181T449 0H34V1493Z" />
<glyph unicode="&#x1f3;" glyph-name="uni01F3" horiz-adv-x="2364" d="M1250 1120H2124V952L1432 147H2124V0H1225V168L1917 973H1250V1120ZM818 950V1556H1002V0H818V168Q760 68 672 20T459 -29Q256 -29 129 133T1 559Q1 823 128 985T459 1147Q583 1147 671
1099T818 950ZM191 559Q191 356 274 241T504 125Q650 125 734 240T818 559Q818 762 734 877T504 993Q358 993 275 878T191 559Z" />
<glyph unicode="&#x1f4;" glyph-name="uni01F4" horiz-adv-x="1587" d="M1505 1900H1690L1462 1636H1309L1505 1900ZM1120 213V614H790V780H1320V139Q1203 56 1062 14T761 -29Q411 -29 214 175T16 745Q16 1111 213 1315T761 1520Q907 1520 1038 1484T1281 1378V1163Q1169
1258 1043 1306T778 1354Q504 1354 367 1201T229 745Q229 443 366 290T778 137Q885 137 969 155T1120 213Z" />
<glyph unicode="&#x1f5;" glyph-name="uni01F5" horiz-adv-x="1300" d="M830 573Q830 773 748 883T516 993Q368 993 286 883T203 573Q203 374 285 264T516 154Q665 154 747 264T830 573ZM1014 139Q1014 -147 887 -286T498 -426Q401 -426 315 -412T148 -367V-188Q229
-232 308 -253T469 -274Q650 -274 740 -180T830 106V197Q773 98 684 49T471 0Q265 0 139 157T13 573Q13 833 139 990T471 1147Q595 1147 684 1098T830 950V1120H1014V139ZM307 1892H506L180 1516H27L307 1892Z" />
<glyph unicode="&#x1f6;" glyph-name="uni01F6" horiz-adv-x="1936" d="M30 1493H232V881H966V1493H1168V449Q1168 290 1230 210Q1291 132 1444 131Q1592 131 1658 210Q1720 285 1720 449V1120H1922V442Q1922 219 1822 91Q1726 -29 1444 -29Q1169 -29 1066 91Q966
209 966 442V711H232V0H30V1493Z" />
<glyph unicode="&#x1f7;" glyph-name="uni01F7" horiz-adv-x="1111" d="M232 156V-426H30V1493H232V1308Q288 1380 433 1467Q520 1520 746 1520Q944 1520 1027 1400Q1111 1278 1111 1114Q1111 657 232 156ZM232 351Q905 781 905 1049Q905 1192 844 1263Q784 1333
655 1333Q418 1333 232 1076V351Z" />
<glyph unicode="&#x1f8;" glyph-name="uni01F8" horiz-adv-x="1532" d="M1497 1899L1693 1635H1540L1310 1899H1497ZM32 1493H304L966 244V1493H1162V0H890L228 1249V0H32V1493Z" />
<glyph unicode="&#x1f9;" glyph-name="uni01F9" horiz-adv-x="1298" d="M968 676V0H784V670Q784 829 722 908T536 987Q387 987 301 892T215 633V0H30V1120H215V946Q281 1047 370 1097T577 1147Q770 1147 869 1028T968 676ZM477 1637L759 1263H606L280 1637H477Z" />
<glyph unicode="&#x1fa;" glyph-name="Aringacute" horiz-adv-x="1401" d="M841 1626Q841 1689 797 1733T689 1778Q625 1778 582 1735T538 1626Q538 1563 582 1519T689 1475Q752 1475 796 1519T841 1626ZM689 1294L417 551H962L689 1294ZM538 1397Q477 1438 446
1495T415 1626Q415 1741 494 1821T689 1901Q803 1901 883 1821T964 1626Q964 1556 933 1497T841 1397L1373 0H1163L1027 383H354L218 0H5L538 1397ZM1826 1907H2011L1783 1643H1630L1826 1907Z" />
<glyph unicode="&#x1fb;" glyph-name="aringacute" horiz-adv-x="1135" d="M586 563Q363 563 277 512T191 338Q191 240 255 183T431 125Q584 125 676 233T769 522V563H586ZM953 639V0H769V170Q706 68 612 20T382 -29Q210 -29 109 67T7 326Q7 515 133 611T511 707H769V725Q769
852 686 921T451 991Q355 991 264 968T89 899V1069Q190 1108 285 1127T470 1147Q713 1147 833 1021T953 639ZM630 1524Q630 1587 586 1631T478 1675Q413 1675 370 1632T326 1524Q326 1459 369 1416T478 1372Q542 1372 586 1416T630 1524ZM752 1524Q752 1409 673
1329T478 1249Q363 1249 284 1329T204 1524Q204 1639 283 1718T478 1798Q593 1798 672 1719T752 1524ZM943 1907H1128L900 1643H747L943 1907Z" />
<glyph unicode="&#x1fc;" glyph-name="AEacute" horiz-adv-x="1995" d="M1826 1900H2011L1783 1636H1630L1826 1900ZM1844 1493V1323H1103V881H1814V711H1103V170H1863V0H900V383H372L212 0H7L632 1493H1844ZM771 1335L441 551H900V1335H771Z" />
<glyph unicode="&#x1fd;" glyph-name="aeacute" horiz-adv-x="2011" d="M1617 660Q1616 811 1534 901T1314 991Q1161 991 1069 904T962 659L1617 660ZM894 963Q968 1053 1074 1100T1312 1147Q1538 1147 1670 1002T1802 606V516H956Q968 325 1070 225T1355 125Q1459
125 1559 151T1759 231V57Q1659 15 1555 -7T1345 -29Q1178 -29 1054 31T853 211Q780 91 672 31T421 -29Q232 -29 127 64T22 326Q22 515 148 611T526 707H784V725Q784 852 701 921T466 991Q370 991 279 968T104 899V1069Q205 1108 300 1127T485 1147Q627 1147 733
1099T894 963ZM601 563Q378 563 292 512T206 338Q206 240 270 183T446 125Q599 125 691 233T784 522V563H601ZM637 1636H836L510 1260H357L637 1636Z" />
<glyph unicode="&#x1fe;" glyph-name="Oslashacute" horiz-adv-x="1612" d="M1476 1900H1661L1433 1636H1280L1476 1900ZM1121 1112L404 266Q466 202 546 169T722 135Q942 135 1070 299T1199 745Q1199 857 1180 949T1121 1112ZM1039 1225Q978 1289 898 1322T722
1356Q502 1356 373 1192T243 745Q243 633 262 539T321 377L1039 1225ZM187 219Q109 321 70 453T30 745Q30 1099 218 1309T722 1520Q852 1520 962 1482T1160 1368L1322 1559L1424 1470L1254 1272Q1332 1169 1372 1036T1412 745Q1412 392 1224 182T722 -29Q594 -29
484 8T282 121L120 -70L17 18L187 219Z" />
<glyph unicode="&#x1ff;" glyph-name="oslashacute" horiz-adv-x="1253" d="M846 801L359 209Q400 167 451 147T568 127Q715 127 801 243T887 559Q887 638 877 696T846 801ZM775 909Q733 950 682 970T568 991Q417 991 333 874T248 545Q248 473 257 418T287 317L775
909ZM162 166Q108 243 81 341T54 559Q54 835 190 991T568 1147Q661 1147 740 1122T887 1044L1026 1212L1121 1133L975 954Q1028 877 1055 778T1082 559Q1082 284 945 128T568 -29Q472 -29 392 -3T248 74L109 -94L13 -16L162 166ZM308 1892H507L181 1516H28L308
1892Z" />
<glyph unicode="&#x200;" glyph-name="uni0200" horiz-adv-x="1401" d="M688 1294L414 551H963L688 1294ZM574 1493H803L1372 0H1162L1026 383H353L217 0H4L574 1493ZM1445 1904L1641 1640H1488L1260 1904H1445ZM1780 1904L1976 1640H1823L1595 1904H1780Z" />
<glyph unicode="&#x201;" glyph-name="uni0201" horiz-adv-x="1255" d="M1360 1637L1565 1261H1430L1182 1637H1360ZM1694 1637L1884 1261H1747L1524 1637H1694ZM595 563Q372 563 286 512T200 338Q200 240 264 183T440 125Q593 125 685 233T778 522V563H595ZM962
639V0H778V170Q715 68 621 20T391 -29Q219 -29 118 67T16 326Q16 515 142 611T520 707H778V725Q778 852 695 921T460 991Q364 991 273 968T98 899V1069Q199 1108 294 1127T479 1147Q722 1147 842 1021T962 639Z" />
<glyph unicode="&#x202;" glyph-name="uni0202" horiz-adv-x="1401" d="M688 1294L414 551H963L688 1294ZM574 1493H803L1372 0H1162L1026 383H353L217 0H4L574 1493ZM1853 1604H1735Q1722 1658 1673 1686T1540 1715Q1458 1715 1410 1688T1345 1604H1227Q1237
1723 1317 1784T1540 1846Q1684 1846 1763 1785T1853 1604Z" />
<glyph unicode="&#x203;" glyph-name="uni0203" horiz-adv-x="1255" d="M1766 1321H1648Q1637 1396 1589 1433T1453 1471Q1367 1471 1319 1434T1258 1321H1140Q1150 1464 1229 1536T1453 1608T1677 1536T1766 1321ZM595 563Q372 563 286 512T200 338Q200 240 264
183T440 125Q593 125 685 233T778 522V563H595ZM962 639V0H778V170Q715 68 621 20T391 -29Q219 -29 118 67T16 326Q16 515 142 611T520 707H778V725Q778 852 695 921T460 991Q364 991 273 968T98 899V1069Q199 1108 294 1127T479 1147Q722 1147 842 1021T962 639Z"
/>
<glyph unicode="&#x204;" glyph-name="uni0204" horiz-adv-x="1294" d="M34 1493H978V1323H236V881H947V711H236V170H996V0H34V1493ZM1381 1904L1577 1640H1424L1196 1904H1381ZM1716 1904L1912 1640H1759L1531 1904H1716Z" />
<glyph unicode="&#x205;" glyph-name="uni0205" horiz-adv-x="1260" d="M1394 1636L1599 1260H1464L1216 1636H1394ZM1728 1636L1918 1260H1781L1558 1636H1728ZM1053 606V516H207Q219 326 321 227T607 127Q713 127 812 153T1010 231V57Q911 15 807 -7T596 -29Q328
-29 172 127T15 549Q15 824 163 985T564 1147Q790 1147 921 1002T1053 606ZM869 660Q867 811 785 901T566 991Q412 991 320 904T213 659L869 660Z" />
<glyph unicode="&#x206;" glyph-name="uni0206" horiz-adv-x="1294" d="M34 1493H978V1323H236V881H947V711H236V170H996V0H34V1493ZM1831 1604H1713Q1700 1658 1651 1686T1518 1715Q1436 1715 1388 1688T1323 1604H1205Q1215 1723 1295 1784T1518 1846Q1662 1846
1741 1785T1831 1604Z" />
<glyph unicode="&#x207;" glyph-name="uni0207" horiz-adv-x="1260" d="M1834 1321H1716Q1705 1396 1657 1433T1521 1471Q1435 1471 1387 1434T1326 1321H1208Q1218 1464 1297 1536T1521 1608T1745 1536T1834 1321ZM1053 606V516H207Q219 326 321 227T607 127Q713
127 812 153T1010 231V57Q911 15 807 -7T596 -29Q328 -29 172 127T15 549Q15 824 163 985T564 1147Q790 1147 921 1002T1053 606ZM869 660Q867 811 785 901T566 991Q412 991 320 904T213 659L869 660Z" />
<glyph unicode="&#x208;" glyph-name="uni0208" horiz-adv-x="604" d="M33 1493H235V0H33V1493ZM1049 1904L1245 1640H1092L864 1904H1049ZM1384 1904L1580 1640H1427L1199 1904H1384Z" />
<glyph unicode="&#x209;" glyph-name="uni0209" horiz-adv-x="569" d="M1054 1636L1259 1260H1124L876 1636H1054ZM1388 1636L1578 1260H1441L1218 1636H1388ZM30 1120H214V0H30V1120Z" />
<glyph unicode="&#x20a;" glyph-name="uni020A" horiz-adv-x="604" d="M33 1493H235V0H33V1493ZM1471 1604H1353Q1340 1658 1291 1686T1158 1715Q1076 1715 1028 1688T963 1604H845Q855 1723 935 1784T1158 1846Q1302 1846 1381 1785T1471 1604Z" />
<glyph unicode="&#x20b;" glyph-name="uni020B" horiz-adv-x="569" d="M1445 1321H1327Q1316 1396 1268 1433T1132 1471Q1046 1471 998 1434T937 1321H819Q829 1464 908 1536T1132 1608T1356 1536T1445 1321ZM30 1120H214V0H30V1120Z" />
<glyph unicode="&#x20c;" glyph-name="uni020C" horiz-adv-x="1612" d="M708 1356Q488 1356 359 1192T229 745Q229 463 358 299T708 135Q928 135 1056 299T1185 745Q1185 1028 1057 1192T708 1356ZM708 1520Q1022 1520 1210 1310T1398 745Q1398 392 1210 182T708
-29Q393 -29 205 181T16 745Q16 1099 204 1309T708 1520ZM1537 1904L1733 1640H1580L1352 1904H1537ZM1872 1904L2068 1640H1915L1687 1904H1872Z" />
<glyph unicode="&#x20d;" glyph-name="uni020D" horiz-adv-x="1253" d="M1367 1637L1572 1261H1437L1189 1637H1367ZM1701 1637L1891 1261H1754L1531 1637H1701ZM530 991Q382 991 296 876T210 559Q210 358 295 243T530 127Q677 127 763 243T849 559Q849 758 763
874T530 991ZM530 1147Q770 1147 907 991T1044 559Q1044 284 907 128T530 -29Q289 -29 153 127T16 559Q16 835 152 991T530 1147Z" />
<glyph unicode="&#x20e;" glyph-name="uni020E" horiz-adv-x="1612" d="M708 1356Q488 1356 359 1192T229 745Q229 463 358 299T708 135Q928 135 1056 299T1185 745Q1185 1028 1057 1192T708 1356ZM708 1520Q1022 1520 1210 1310T1398 745Q1398 392 1210 182T708
-29Q393 -29 205 181T16 745Q16 1099 204 1309T708 1520ZM1949 1604H1831Q1818 1658 1769 1686T1636 1715Q1554 1715 1506 1688T1441 1604H1323Q1333 1723 1413 1784T1636 1846Q1780 1846 1859 1785T1949 1604Z" />
<glyph unicode="&#x20f;" glyph-name="uni020F" horiz-adv-x="1253" d="M1817 1321H1699Q1688 1396 1640 1433T1504 1471Q1418 1471 1370 1434T1309 1321H1191Q1201 1464 1280 1536T1504 1608T1728 1536T1817 1321ZM530 991Q382 991 296 876T210 559Q210 358 295
243T530 127Q677 127 763 243T849 559Q849 758 763 874T530 991ZM530 1147Q770 1147 907 991T1044 559Q1044 284 907 128T530 -29Q289 -29 153 127T16 559Q16 835 152 991T530 1147Z" />
<glyph unicode="&#x210;" glyph-name="uni0210" horiz-adv-x="1423" d="M739 700Q804 678 865 606T989 408L1194 0H977L786 383Q712 533 643 582T453 631H233V0H31V1493H487Q743 1493 869 1386T995 1063Q995 922 930 829T739 700ZM233 1327V797H487Q633 797 707
864T782 1063Q782 1194 708 1260T487 1327H233ZM1337 1904L1533 1640H1380L1152 1904H1337ZM1672 1904L1868 1640H1715L1487 1904H1672Z" />
<glyph unicode="&#x211;" glyph-name="uni0211" horiz-adv-x="842" d="M1245 1636L1450 1260H1315L1067 1636H1245ZM1579 1636L1769 1260H1632L1409 1636H1579ZM686 948Q655 966 619 974T538 983Q382 983 299 882T215 590V0H30V1120H215V946Q273 1048 366 1097T592
1147Q611 1147 634 1145T685 1137L686 948Z" />
<glyph unicode="&#x212;" glyph-name="uni0212" horiz-adv-x="1423" d="M739 700Q804 678 865 606T989 408L1194 0H977L786 383Q712 533 643 582T453 631H233V0H31V1493H487Q743 1493 869 1386T995 1063Q995 922 930 829T739 700ZM233 1327V797H487Q633 797 707
864T782 1063Q782 1194 708 1260T487 1327H233ZM1793 1604H1675Q1662 1658 1613 1686T1480 1715Q1398 1715 1350 1688T1285 1604H1167Q1177 1723 1257 1784T1480 1846Q1624 1846 1703 1785T1793 1604Z" />
<glyph unicode="&#x213;" glyph-name="uni0213" horiz-adv-x="842" d="M1710 1321H1592Q1581 1396 1533 1433T1397 1471Q1311 1471 1263 1434T1202 1321H1084Q1094 1464 1173 1536T1397 1608T1621 1536T1710 1321ZM686 948Q655 966 619 974T538 983Q382 983 299
882T215 590V0H30V1120H215V946Q273 1048 366 1097T592 1147Q611 1147 634 1145T685 1137L686 948Z" />
<glyph unicode="&#x214;" glyph-name="uni0214" horiz-adv-x="1499" d="M25 1493H228V586Q228 346 315 241T597 135Q791 135 878 240T965 586V1493H1168V561Q1168 269 1024 120T597 -29Q314 -29 170 120T25 561V1493ZM1493 1904L1689 1640H1536L1308 1904H1493ZM1828
1904L2024 1640H1871L1643 1904H1828Z" />
<glyph unicode="&#x215;" glyph-name="uni0215" horiz-adv-x="1298" d="M1420 1637L1625 1261H1490L1242 1637H1420ZM1754 1637L1944 1261H1807L1584 1637H1754ZM25 442V1120H209V449Q209 290 271 211T457 131Q606 131 692 226T779 485V1120H963V0H779V172Q712
70 624 21T418 -29Q225 -29 125 91T25 442Z" />
<glyph unicode="&#x216;" glyph-name="uni0216" horiz-adv-x="1499" d="M25 1493H228V586Q228 346 315 241T597 135Q791 135 878 240T965 586V1493H1168V561Q1168 269 1024 120T597 -29Q314 -29 170 120T25 561V1493ZM1901 1604H1783Q1770 1658 1721 1686T1588
1715Q1506 1715 1458 1688T1393 1604H1275Q1285 1723 1365 1784T1588 1846Q1732 1846 1811 1785T1901 1604Z" />
<glyph unicode="&#x217;" glyph-name="uni0217" horiz-adv-x="1298" d="M1836 1321H1718Q1707 1396 1659 1433T1523 1471Q1437 1471 1389 1434T1328 1321H1210Q1220 1464 1299 1536T1523 1608T1747 1536T1836 1321ZM25 442V1120H209V449Q209 290 271 211T457 131Q606
131 692 226T779 485V1120H963V0H779V172Q712 70 624 21T418 -29Q225 -29 125 91T25 442Z" />
<glyph unicode="&#x218;" glyph-name="Scommaaccent" horiz-adv-x="1300" d="M1234 -172H1445L1281 -492H1152L1234 -172ZM980 1444V1247Q865 1302 763 1329T566 1356Q401 1356 312 1292T222 1110Q222 1011 281 961T507 879L629 854Q855 811 962 703T1070 412Q1070
195 925 83T498 -29Q392 -29 273 -5T25 66V274Q148 205 266 170T498 135Q671 135 765 203T859 397Q859 507 792 569T570 662L447 686Q221 731 120 827T19 1094Q19 1292 158 1406T543 1520Q648 1520 757 1501T980 1444Z" />
<glyph unicode="&#x219;" glyph-name="scommaaccent" horiz-adv-x="1067" d="M1160 -172H1371L1207 -492H1078L1160 -172ZM815 1087V913Q737 953 653 973T479 993Q342 993 274 951T205 825Q205 761 254 725T451 655L514 641Q710 599 792 523T875 309Q875 153 752
62T412 -29Q322 -29 225 -12T19 41V231Q121 178 220 152T416 125Q546 125 616 169T686 295Q686 370 636 410T414 487L350 502Q179 538 103 612T27 817Q27 975 139 1061T457 1147Q559 1147 649 1132T815 1087Z" />
<glyph unicode="&#x21a;" glyph-name="uni021A" horiz-adv-x="1251" d="M1199 -172H1410L1246 -492H1117L1199 -172ZM1 1493H1264V1323H734V0H531V1323H1V1493Z" />
<glyph unicode="&#x21b;" glyph-name="uni021B" horiz-adv-x="803" d="M1116 -172H1327L1163 -492H1034L1116 -172ZM324 1438V1120H703V977H324V369Q324 232 361 193T514 154H703V0H514Q301 0 220 79T139 369V977H4V1120H139V1438H324Z" />
<glyph unicode="&#x21c;" glyph-name="uni021C" horiz-adv-x="1004" d="M688 674Q996 607 996 314Q996 202 941 99T793 -84T572 -232T305 -348T13 -430V-270Q213 -215 365 -145T610 1T749 156T795 314Q795 415 733 481T558 547Q463 547 348 496L185 424V595L433
701Q493 727 544 759T647 841T729 960T760 1112Q760 1167 743 1210T698 1278T633 1321T559 1344T485 1350Q301 1350 58 1166V1356Q297 1520 503 1520Q634 1520 735 1477T899 1343T961 1124Q961 1064 950 1013T909 906T825 791T688 674Z" />
<glyph unicode="&#x21d;" glyph-name="uni021D" horiz-adv-x="905" d="M621 461Q691 453 747 419T834 340T881 251T898 170Q898 95 865 26T778 -97T648 -199T494 -283T326 -348T162 -398T13 -433V-303Q175 -257 297 -209T499 -116T627 -21T697 73T717 170Q717
258 658 314T506 370Q447 370 384 345L168 259V398L391 483Q425 496 457 512T533 558T608 622T662 708T685 816Q685 860 670 895T630 951T572 985T506 1004T438 1009Q369 1009 285 980T54 860V1014Q320 1147 454 1147Q566 1147 658 1112T808 1003T866 833Q866 723
815 647T621 461Z" />
<glyph unicode="&#x21e;" glyph-name="uni021E" horiz-adv-x="1540" d="M1501 1635L1290 1901H1429L1595 1723L1761 1901H1900L1689 1635H1501ZM33 1493H235V881H969V1493H1171V0H969V711H235V0H33V1493Z" />
<glyph unicode="&#x21f;" glyph-name="uni021F" horiz-adv-x="1298" d="M1018 1635L807 1901H946L1112 1723L1278 1901H1417L1206 1635H1018ZM968 676V0H784V670Q784 829 722 908T536 987Q387 987 301 892T215 633V0H30V1556H215V946Q281 1047 370 1097T577 1147Q770
1147 869 1028T968 676Z" />
<glyph unicode="&#x220;" glyph-name="uni0220" horiz-adv-x="1137" d="M909 895Q909 1110 832 1216T602 1323Q423 1323 316 1196T208 846V0H6V1493H208V1252Q289 1387 391 1454T650 1520Q877 1520 993 1361T1110 893V-426H909V895Z" />
<glyph unicode="&#x221;" glyph-name="uni0221" horiz-adv-x="1499" d="M1097 130Q1114 125 1151 125Q1311 125 1311 300Q1311 345 1259 346Q1207 346 1097 130ZM1005 314Q1115 498 1251 498Q1495 498 1495 292Q1495 -29 1153 -29Q1080 -29 1027 -14Q993 -86 969
-144H773Q802 -75 869 72Q821 132 821 168Q763 68 675 20Q586 -29 462 -29Q259 -29 131 133Q4 295 4 559T131 985Q259 1147 462 1147Q586 1147 675 1098Q763 1050 821 950V1556H1005V314ZM277 240Q361 125 507 125T737 240Q821 356 821 559T737 878Q653 993 507
993T277 878Q194 762 194 559T277 240Z" />
<glyph unicode="&#x222;" glyph-name="uni0222" horiz-adv-x="1232" d="M613 709Q429 709 323 632Q216 555 216 420T323 208Q429 131 613 131T904 208Q1011 286 1011 420Q1011 555 905 632T613 709ZM555 1260Q425 1257 340 1195T255 1054Q255 985 350 913Q409
868 613 868Q781 868 876 933Q972 998 972 1134Q972 1292 896 1335Q787 1412 657 1420V1520Q885 1520 1035 1416Q1174 1319 1174 1133Q1174 1005 1089 916T852 795Q1024 761 1119 662Q1215 563 1215 420Q1215 203 1059 87Q904 -29 613 -29T167 87Q11 203 11 420Q11
563 107 662Q204 761 375 795Q204 826 137 896Q52 985 52 1073Q52 1203 182 1286Q298 1360 555 1360V1260Z" />
<glyph unicode="&#x223;" glyph-name="uni0223" horiz-adv-x="1061" d="M530 709Q386 709 303 632Q221 555 221 420T303 208Q386 131 530 131T757 208Q840 286 840 420Q840 555 757 632Q675 709 530 709ZM929 1295Q987 1231 987 1133Q987 980 935 916Q863 827
733 795Q879 761 961 662Q1042 563 1042 420Q1042 203 909 87Q777 -29 530 -29T151 87Q18 203 18 420Q18 563 100 662T328 795Q184 830 125 916Q73 991 73 1133Q73 1222 136 1295H297Q254 1230 254 1114T327 933Q399 868 530 868Q660 868 733 933Q807 998 807 1114Q807
1233 763 1295H929Z" />
<glyph unicode="&#x224;" glyph-name="uni0224" horiz-adv-x="1242" d="M1219 -20Q1219 -309 1061 -389Q989 -426 875 -426H621V-270H854Q959 -270 997 -222Q1035 -173 1035 -20V0H0V154L944 1323H23V1493H1196V1339L252 170H1219V-20Z" />
<glyph unicode="&#x225;" glyph-name="uni0225" horiz-adv-x="924" d="M900 -20Q900 -309 742 -389Q670 -426 556 -426H302V-270H535Q640 -270 678 -222Q716 -173 716 -20V0H1V168L693 973H26V1120H900V952L208 147H900V-20Z" />
<glyph unicode="&#x226;" glyph-name="uni0226" horiz-adv-x="1401" d="M1242 1872H1446V1667H1242V1872ZM688 1294L414 551H963L688 1294ZM574 1493H803L1372 0H1162L1026 383H353L217 0H4L574 1493Z" />
<glyph unicode="&#x227;" glyph-name="uni0227" horiz-adv-x="1255" d="M1128 1556H1312V1323H1128V1556ZM595 563Q372 563 286 512T200 338Q200 240 264 183T440 125Q593 125 685 233T778 522V563H595ZM962 639V0H778V170Q715 68 621 20T391 -29Q219 -29 118
67T16 326Q16 515 142 611T520 707H778V725Q778 852 695 921T460 991Q364 991 273 968T98 899V1069Q199 1108 294 1127T479 1147Q722 1147 842 1021T962 639Z" />
<glyph unicode="&#x228;" glyph-name="uni0228" horiz-adv-x="1294" d="M34 1493H978V1323H236V881H947V711H236V170H996V0H34V1493ZM469 0Q524 -62 551 -114T578 -215Q578 -304 518 -349T340 -395Q294 -395 251 -389T164 -371V-240Q198 -257 235 -264T319 -272Q378
-272 408 -248T438 -178Q438 -148 417 -105T350 0H469Z" />
<glyph unicode="&#x229;" glyph-name="uni0229" horiz-adv-x="1260" d="M1053 606V516H207Q219 326 321 227T607 127Q713 127 812 153T1010 231V57Q911 15 807 -7T596 -29Q328 -29 172 127T15 549Q15 824 163 985T564 1147Q790 1147 921 1002T1053 606ZM869 660Q867
811 785 901T566 991Q412 991 320 904T213 659L869 660ZM430 0Q485 -62 512 -114T539 -215Q539 -304 479 -349T301 -395Q255 -395 212 -389T125 -371V-240Q159 -257 196 -264T280 -272Q339 -272 369 -248T399 -178Q399 -148 378 -105T311 0H430Z" />
<glyph unicode="&#x22a;" glyph-name="uni022A" horiz-adv-x="1396" d="M699 1356Q479 1356 350 1192T220 745Q220 463 349 299T699 135Q919 135 1047 299T1176 745Q1176 1028 1048 1192T699 1356ZM699 1520Q1013 1520 1201 1310T1389 745Q1389 392 1201 182T699
-29Q384 -29 196 181T7 745Q7 1099 195 1309T699 1520ZM392 2099H990V1951H392V2099ZM784 1838H987V1635H784V1838ZM393 1838H596V1635H393V1838Z" />
<glyph unicode="&#x22b;" glyph-name="uni022B" horiz-adv-x="1038" d="M519 991Q371 991 285 876T199 559Q199 358 284 243T519 127Q666 127 752 243T838 559Q838 758 752 874T519 991ZM519 1147Q759 1147 896 991T1033 559Q1033 284 896 128T519 -29Q278 -29
142 127T5 559Q5 835 141 991T519 1147ZM613 1552H816V1350H613V1552ZM222 1552H425V1350H222V1552ZM220 1841H818V1693H220V1841Z" />
<glyph unicode="&#x22c;" glyph-name="uni022C" horiz-adv-x="1396" d="M699 1356Q479 1356 350 1192T220 745Q220 463 349 299T699 135Q919 135 1047 299T1176 745Q1176 1028 1048 1192T699 1356ZM699 1520Q1013 1520 1201 1310T1389 745Q1389 392 1201 182T699
-29Q384 -29 196 181T7 745Q7 1099 195 1309T699 1520ZM697 1685L640 1718Q615 1732 600 1737T572 1743Q536 1743 516 1718T496 1648V1642H371Q371 1743 422 1802T560 1861Q596 1861 626 1853T705 1818L762 1788Q785 1775 802 1769T834 1763Q866 1763 886 1788T906
1855V1861H1031Q1029 1761 978 1702T842 1642Q808 1642 779 1650T697 1685ZM399 2099H997V1951H399V2099Z" />
<glyph unicode="&#x22d;" glyph-name="uni022D" horiz-adv-x="1043" d="M521 991Q373 991 287 876T201 559Q201 358 286 243T521 127Q668 127 754 243T840 559Q840 758 754 874T521 991ZM521 1147Q761 1147 898 991T1035 559Q1035 284 898 128T521 -29Q280 -29
144 127T7 559Q7 835 143 991T521 1147ZM519 1355L462 1388Q437 1402 422 1407T394 1413Q358 1413 338 1388T318 1318V1312H193Q193 1413 244 1472T382 1531Q418 1531 448 1523T527 1488L584 1458Q607 1445 624 1439T656 1433Q688 1433 708 1458T728 1525V1531H853Q851
1431 800 1372T664 1312Q630 1312 601 1320T519 1355ZM221 1769H819V1621H221V1769Z" />
<glyph unicode="&#x22e;" glyph-name="uni022E" horiz-adv-x="1612" d="M1349 1872H1553V1667H1349V1872ZM708 1356Q488 1356 359 1192T229 745Q229 463 358 299T708 135Q928 135 1056 299T1185 745Q1185 1028 1057 1192T708 1356ZM708 1520Q1022 1520 1210 1310T1398
745Q1398 392 1210 182T708 -29Q393 -29 205 181T16 745Q16 1099 204 1309T708 1520Z" />
<glyph unicode="&#x22f;" glyph-name="uni022F" horiz-adv-x="1253" d="M1169 1556H1353V1323H1169V1556ZM530 991Q382 991 296 876T210 559Q210 358 295 243T530 127Q677 127 763 243T849 559Q849 758 763 874T530 991ZM530 1147Q770 1147 907 991T1044 559Q1044
284 907 128T530 -29Q289 -29 153 127T16 559Q16 835 152 991T530 1147Z" />
<glyph unicode="&#x230;" glyph-name="uni0230" horiz-adv-x="1392" d="M697 1356Q477 1356 348 1192T218 745Q218 463 347 299T697 135Q917 135 1045 299T1174 745Q1174 1028 1046 1192T697 1356ZM697 1520Q1011 1520 1199 1310T1387 745Q1387 392 1199 182T697
-29Q382 -29 194 181T5 745Q5 1099 193 1309T697 1520ZM594 1835H798V1630H594V1835ZM398 2099H996V1951H398V2099Z" />
<glyph unicode="&#x231;" glyph-name="uni0231" horiz-adv-x="1035" d="M424 1556H608V1323H424V1556ZM518 991Q370 991 284 876T198 559Q198 358 283 243T518 127Q665 127 751 243T837 559Q837 758 751 874T518 991ZM518 1147Q758 1147 895 991T1032 559Q1032
284 895 128T518 -29Q277 -29 141 127T4 559Q4 835 140 991T518 1147ZM219 1841H817V1693H219V1841Z" />
<glyph unicode="&#x232;" glyph-name="uni0232" horiz-adv-x="1251" d="M144 1841H742V1693H144V1841ZM1 1493H218L632 879L1043 1493H1260L732 711V0H529V711L1 1493Z" />
<glyph unicode="&#x233;" glyph-name="uni0233" horiz-adv-x="1212" d="M124 1526H722V1378H124V1526ZM611 -104Q533 -304 459 -365T261 -426H114V-272H222Q298 -272 340 -236T433 -66L466 18L13 1120H208L558 244L908 1120H1103L611 -104Z" />
<glyph unicode="&#x234;" glyph-name="uni0234" horiz-adv-x="741" d="M343 130Q360 125 397 125Q557 125 557 300Q557 345 505 346Q453 346 343 130ZM251 314Q361 498 497 498Q741 498 741 292Q741 -29 399 -29Q326 -29 273 -14Q239 -86 215 -144H19Q48 -75 115
72Q66 132 67 222V1550H251V314Z" />
<glyph unicode="&#x235;" glyph-name="uni0235" horiz-adv-x="1453" d="M1053 130Q1070 125 1107 125Q1267 125 1267 300Q1267 345 1215 346Q1163 346 1053 130ZM961 314Q1071 498 1207 498Q1451 498 1451 292Q1451 -29 1109 -29Q1036 -29 983 -14Q949 -86 925
-144H729Q758 -75 825 72Q776 132 777 222V670Q777 829 715 908T529 987Q380 987 294 892T208 633V0H23V1120H208V946Q274 1047 363 1097Q453 1147 570 1147Q763 1147 862 1028Q961 908 961 676V314Z" />
<glyph unicode="&#x236;" glyph-name="uni0236" horiz-adv-x="817" d="M419 130Q436 125 473 125Q633 125 633 300Q633 345 581 346Q529 346 419 130ZM327 314Q437 498 573 498Q817 498 817 292Q817 -29 475 -29Q402 -29 348 -14Q315 -86 291 -144H95Q124 -75
191 72Q142 132 142 222V977H7V1120H142V1438H327V1120H706V977H327V314Z" />
<glyph unicode="&#x237;" glyph-name="dotlessj" horiz-adv-x="440" d="M230 1120H414V-20Q414 -234 333 -330T70 -426H0V-270H49Q154 -270 192 -222T230 -20V1120Z" />
<glyph unicode="&#x238;" glyph-name="uni0238" horiz-adv-x="1837" d="M282 240Q366 125 512 125T742 240T826 559T742 877T512 993T282 878Q199 762 199 559T282 240ZM467 1147Q712 1147 826 950V1556H1011V950Q1125 1147 1369 1147Q1573 1147 1700 985T1828
559T1701 133T1369 -29Q1125 -29 1011 168V0H826V168Q712 -29 467 -29Q264 -29 136 133Q9 295 9 559T136 985Q264 1147 467 1147ZM1554 878Q1470 993 1324 993T1094 878Q1011 762 1011 559T1094 240Q1178 125 1324 125T1554 240Q1637 356 1637 559T1554 878Z" />
<glyph unicode="&#x239;" glyph-name="uni0239" horiz-adv-x="1837" d="M1554 878Q1470 993 1324 993T1094 878Q1011 762 1011 559T1094 240Q1178 125 1324 125T1554 240Q1637 356 1637 559T1554 878ZM1369 -29Q1125 -29 1011 168V-426H826V168Q712 -29 467 -29Q264
-29 136 133Q9 295 9 559T136 985Q264 1147 467 1147Q712 1147 826 950V1120H1011V950Q1125 1147 1369 1147Q1573 1147 1700 985T1828 559T1701 133T1369 -29ZM282 240Q366 125 512 125T742 240T826 559T742 877T512 993T282 878Q199 762 199 559T282 240Z" />
<glyph unicode="&#x23a;" glyph-name="uni023A" horiz-adv-x="1421" d="M591 1493H820L954 1142L1307 1559L1409 1470L1009 997L1389 0H1179L1043 383H489L284 142L234 0H164L105 -70L23 0H21L22 1L2 18L49 74L591 1493ZM705 1294L431 551H453L820 984L705 1294ZM631
551H980L874 838L631 551Z" />
<glyph unicode="&#x23b;" glyph-name="uni023B" horiz-adv-x="1427" d="M112 -70L10 18L230 279Q113 466 113 745Q113 1105 308 1312Q503 1520 842 1520Q976 1520 1094 1484Q1155 1466 1213 1439L1314 1559L1416 1470L1317 1352V1165Q1271 1208 1222 1241L442
319Q451 306 462 294Q598 137 854 137Q984 137 1100 184Q1215 231 1317 326V115Q1211 43 1092 7Q974 -29 842 -29Q510 -29 316 170L112 -70ZM373 447L1101 1307H1100Q984 1354 854 1354Q598 1354 462 1198Q326 1041 326 745Q326 572 373 447Z" />
<glyph unicode="&#x23c;" glyph-name="uni023C" horiz-adv-x="1121" d="M103 -94L7 -16L196 214Q111 355 111 559Q111 833 262 990Q412 1147 674 1147Q759 1147 840 1130Q886 1120 931 1104L1020 1212L1115 1133L997 990V905Q972 919 948 930L391 256Q398 248
404 240Q503 127 682 127Q762 127 840 148Q919 170 997 213V43Q920 7 838 -11Q755 -29 662 -29Q422 -29 275 115L103 -94ZM330 376L824 974Q753 991 682 991Q503 991 404 878Q305 764 305 559Q305 456 330 376Z" />
<glyph unicode="&#x23d;" glyph-name="uni023D" horiz-adv-x="1127" d="M198 1493H400V844H591V700H400V170H1127V0H198V700H7V844H198V1493Z" />
<glyph unicode="&#x23e;" glyph-name="uni023E" horiz-adv-x="1415" d="M1343 1385V1323H1291L813 759V0H610V519L111 -70L8 18L610 729V1323H80V1493H1257L1313 1559L1415 1470L1343 1385ZM813 969L1113 1323H813V969Z" />
<glyph unicode="&#x23f;" glyph-name="uni023F" horiz-adv-x="949" d="M668 295Q668 370 618 410Q567 450 396 487L332 502Q161 538 85 612Q9 687 9 817Q9 975 121 1061T439 1147Q541 1147 631 1132T797 1087V913Q719 953 635 973T461 993Q324 993 256 951Q187
909 187 825Q187 761 236 724Q285 688 433 655L496 641Q694 597 774 522Q857 446 857 309Q857 153 734 62Q647 -2 515 -21L674 -180L821 -306Q863 -342 939 -342V-496H900Q816 -496 702 -435Q631 -397 542 -306L305 -63Q275 -33 239 -17Q223 -14 206 -12Q109 6
1 41V231Q103 178 202 152Q301 125 398 125Q528 125 598 170Q668 214 668 295Z" />
<glyph unicode="&#x240;" glyph-name="uni0240" horiz-adv-x="1003" d="M26 1120H900V952L210 149Q302 133 351 84L615 -180L762 -306Q804 -342 880 -342H988V-496H841Q757 -496 643 -435Q572 -397 483 -306L246 -63Q185 0 95 0H1V156V168L693 973H26V1120Z" />
<glyph unicode="&#x241;" glyph-name="uni0241" horiz-adv-x="1094" d="M584 602H545V0H343V768H584Q725 768 802 840T879 1048Q879 1184 802 1255T584 1327H330Q261 1327 174 1306T7 1241V1423Q159 1493 330 1493H584Q828 1493 960 1383T1092 1048Q1092 833 960
718T584 602Z" />
<glyph unicode="&#x242;" glyph-name="uni0242" horiz-adv-x="845" d="M231 422H331Q472 422 549 494T626 702Q626 843 550 908Q465 980 331 980Q258 980 172 959Q86 938 8 895V1077Q160 1147 331 1147Q582 1147 707 1037Q839 921 839 702Q839 489 733 375T433
260V0H231V422Z" />
<glyph unicode="&#x243;" glyph-name="uni0243" horiz-adv-x="1277" d="M402 713V512H749V368H402V166H726Q889 166 967 233T1046 440Q1046 580 968 646T726 713H402ZM402 1327V877H701Q849 877 921 932T994 1102Q994 1215 922 1271T701 1327H402ZM200 1493H716Q947
1493 1072 1397T1197 1124Q1197 987 1133 906T945 805Q1094 773 1176 672T1259 418Q1259 218 1123 109T736 0H200V368H9V512H200V1493Z" />
<glyph unicode="&#x244;" glyph-name="uni0244" horiz-adv-x="1496" d="M177 1493H380V875H1117V1493H1320V875H1485V711H1320V561Q1320 269 1176 120T749 -29Q466 -29 322 120T177 561V711H11V875H177V1493ZM1117 711H380V586Q380 346 467 241T749 135Q943 135
1030 240T1117 586V711Z" />
<glyph unicode="&#x245;" glyph-name="uni0245" horiz-adv-x="1401" d="M216 0H3L573 1493H802L1371 0H1161L687 1294L216 0Z" />
<glyph unicode="&#x246;" glyph-name="uni0246" horiz-adv-x="987" d="M771 1683H941L876 1493H964V1323H818L667 881H933V711H609L424 170H982V0H366L301 -190H131L196 0H20V1493H706L771 1683ZM254 170L439 711H222V170H254ZM497 881L648 1323H222V881H497Z" />
<glyph unicode="&#x247;" glyph-name="uni0247" horiz-adv-x="1050" d="M862 660Q860 811 777 901Q763 917 747 930L636 660H862ZM1046 606V516H577L429 155Q503 127 600 127Q706 127 805 153T1003 231V57Q904 15 800 -7T589 -29Q466 -29 367 4L287 -190H117L226
75Q193 98 165 127Q8 283 8 549Q8 824 156 985T557 1147Q613 1147 662 1138L733 1310H903L811 1086Q868 1052 915 1002Q1046 856 1046 606ZM466 659L601 989Q581 991 559 991Q405 991 313 904T206 659H466ZM296 246L407 516H200Q211 344 296 246Z" />
<glyph unicode="&#x248;" glyph-name="uni0248" horiz-adv-x="700" d="M700 631H509V104Q509 -166 407 -288T77 -410H0V-240H63Q197 -240 252 -165T307 104V631H116V797H307V1493H509V797H700V631Z" />
<glyph unicode="&#x249;" glyph-name="uni0249" horiz-adv-x="577" d="M230 1120H414V616H577V452H414V-20Q414 -234 333 -330T70 -426H0V-270H49Q154 -270 192 -222T230 -20V452H49V616H230V1120ZM230 1556H414V1323H230V1556Z" />
<glyph unicode="&#x24a;" glyph-name="uni024A" horiz-adv-x="1610" d="M1092 1261V1493H1288V104Q1288 -90 1343 -165T1532 -240H1601V-410H1524Q1297 -410 1195 -288T1092 104V231Q1015 99 897 35T614 -29Q344 -29 174 184T4 746Q4 1094 174 1307T614 1521Q779
1521 897 1457T1092 1261ZM214 745Q214 460 331 298T652 135Q857 135 974 297T1092 745Q1092 1030 975 1192T652 1355Q448 1355 331 1193T214 745Z" />
<glyph unicode="&#x24b;" glyph-name="uni024B" horiz-adv-x="1243" d="M1233 -426H1163Q982 -426 901 -330T819 -20V168Q761 68 673 20T460 -29Q257 -29 130 133T2 559Q2 823 129 985T460 1147Q584 1147 672 1099T819 950V1120H1003V-20Q1003 -173 1041 -221T1184
-270H1233V-426ZM192 559Q192 356 275 241T505 125Q651 125 735 240T819 559Q819 762 735 877T505 993Q359 993 276 878T192 559Z" />
<glyph unicode="&#x24c;" glyph-name="uni024C" horiz-adv-x="1373" d="M909 700Q974 678 1035 606T1159 408L1364 0H1147L956 383Q882 533 813 582T623 631H403V0H201V631H10V797H201V1493H657Q913 1493 1039 1386T1165 1063Q1165 922 1100 829T909 700ZM403
1327V797H657Q803 797 877 864T952 1063Q952 1194 878 1260T657 1327H403Z" />
<glyph unicode="&#x24d;" glyph-name="uni024D" horiz-adv-x="833" d="M533 616V452H362V0H177V452H5V616H177V1120H362V946Q420 1048 513 1097T739 1147Q758 1147 781 1145T832 1137L833 948Q802 966 766 974T685 983Q529 983 446 880T362 616H533Z" />
<glyph unicode="&#x24e;" glyph-name="uni024E" horiz-adv-x="1274" d="M8 1493H225L376 1269H900L1050 1493H1267L1116 1269H1272V1105H1005L739 711V0H536V711L270 1105H2V1269H159L8 1493ZM790 1105H487L639 879L790 1105Z" />
<glyph unicode="&#x24f;" glyph-name="uni024F" horiz-adv-x="1204" d="M658 -104Q580 -304 506 -365T308 -426H161V-272H269Q345 -272 387 -236T480 -66L513 18L308 516H10V659H250L60 1120H255L439 659H771L955 1120H1150L965 659H1204V516H907L658 -104ZM714
516H496L605 244L714 516Z" />
<glyph unicode="&#x250;" glyph-name="uni0250" horiz-adv-x="986" d="M391 555Q614 555 700 606T786 780Q786 878 721 936Q657 993 546 993Q393 993 301 884Q208 776 208 596V555H391ZM24 479V1118H208V948Q271 1050 365 1098Q459 1147 595 1147Q767 1147 869
1050Q970 954 970 792Q970 603 843 507Q717 411 466 411H208V393Q208 266 291 196Q375 127 526 127Q622 127 713 150T888 219V49Q787 10 692 -10Q597 -29 507 -29Q264 -29 144 97T24 479Z" />
<glyph unicode="&#x251;" glyph-name="uni0251" horiz-adv-x="1047" d="M833 950V1120H1017V0H833V168Q775 68 687 20T474 -29Q271 -29 144 133T16 559Q16 823 143 985T474 1147Q598 1147 686 1099T833 950ZM206 559Q206 356 289 241T519 125Q665 125 749 240T833
559Q833 762 749 877T519 993Q373 993 290 878T206 559Z" />
<glyph unicode="&#x252;" glyph-name="uni0252" horiz-adv-x="1046" d="M840 559Q840 762 757 877T527 993Q381 993 297 878T213 559Q213 356 297 241T527 125Q673 125 756 240T840 559ZM213 950Q271 1050 359 1098T572 1147Q775 1147 902 985T1030 559Q1030 295
903 133T572 -29Q448 -29 360 19T213 168V-2H29V1118H213V950Z" />
<glyph unicode="&#x253;" glyph-name="uni0253" horiz-adv-x="1035" d="M839 559Q839 762 756 877T526 993Q380 993 297 878T213 559Q213 356 296 241T526 125Q672 125 755 240T839 559ZM213 950Q271 1050 359 1098T571 1147Q775 1147 902 985T1030 559Q1030 295
903 133T571 -29Q448 -29 360 19T213 168V0H28V1150Q28 1345 117 1450T372 1556H626V1400H393Q303 1400 258 1338T212 1150L213 950Z" />
<glyph unicode="&#x254;" glyph-name="uni0254" horiz-adv-x="924" d="M25 1077Q101 1112 182 1130Q263 1147 348 1147Q610 1147 760 990Q911 833 911 559Q911 289 762 130T360 -29Q267 -29 184 -11Q102 7 25 43V213Q103 170 182 148Q260 127 340 127Q519 127
618 240Q717 354 717 559Q717 764 618 878Q519 991 340 991Q260 991 182 970Q103 948 25 905V1077Z" />
<glyph unicode="&#x255;" glyph-name="uni0255" horiz-adv-x="910" d="M897 1077V905Q819 948 741 969T582 991Q403 991 304 878T205 559Q205 354 304 240Q311 232 317 226Q356 307 418 351Q491 402 597 402Q760 402 834 330Q897 269 897 180Q897 55 802 8Q719
-33 564 -33Q484 -33 411 -16Q405 -73 405 -141H252Q252 -37 264 44Q207 79 160 130Q11 291 11 559Q11 833 161 990T574 1147Q659 1147 740 1130T897 1077ZM447 146Q505 127 582 127Q728 127 728 184Q728 259 596 259Q495 259 447 146Z" />
<glyph unicode="&#x256;" glyph-name="uni0256" horiz-adv-x="1241" d="M1231 -426H1161Q980 -426 899 -330T817 -20V168Q759 68 671 20T458 -29Q255 -29 128 133T0 559Q0 823 127 985T458 1147Q582 1147 670 1099T817 950V1556H1001V-20Q1001 -173 1039 -221T1182
-270H1231V-426ZM190 559Q190 356 273 241T503 125Q649 125 733 240T817 559Q817 762 733 877T503 993Q357 993 274 878T190 559Z" />
<glyph unicode="&#x257;" glyph-name="uni0257" horiz-adv-x="1361" d="M821 950V1150Q821 1364 902 1460T1165 1556H1356V1400H1186Q1081 1400 1043 1352T1005 1150V0H821V168Q763 68 675 20T462 -29Q259 -29 132 133T4 559Q4 823 131 985T462 1147Q586 1147
674 1099T821 950ZM194 559Q194 356 277 241T507 125Q653 125 737 240T821 559Q821 762 737 877T507 993Q361 993 278 878T194 559Z" />
<glyph unicode="&#x258;" glyph-name="uni0258" horiz-adv-x="1069" d="M16 606Q16 856 147 1002Q279 1147 505 1147Q757 1147 905 986Q1054 824 1054 549Q1054 283 897 127Q741 -29 473 -29Q366 -29 262 -7T59 57V231Q157 179 257 153Q356 127 462 127Q645 127
747 226Q850 326 862 516H16V606ZM200 660L856 659Q842 817 749 904Q657 991 503 991Q367 991 285 901Q202 811 200 660Z" />
<glyph unicode="&#x259;" glyph-name="uni0259" horiz-adv-x="1069" d="M16 512V602H862Q850 792 748 891T462 991Q356 991 257 965T59 887V1061Q158 1103 262 1125T473 1147Q741 1147 897 991T1054 569Q1054 294 906 133T505 -29Q279 -29 148 116T16 512ZM200
458Q202 307 284 217T503 127Q657 127 749 214T856 459L200 458Z" />
<glyph unicode="&#x25a;" glyph-name="uni025A" horiz-adv-x="1564" d="M741 214Q843 352 841 559Q842 621 832 677L215 321Q245 252 277 217Q359 127 495 127Q663 127 741 214ZM1015 783Q1046 687 1046 569Q1046 294 897 132Q749 -29 497 -29Q269 -29 139 116Q47
219 19 375L785 818Q766 857 739 892Q663 992 454 991Q346 990 249 965Q149 939 51 887V1061Q150 1103 254 1125T465 1147Q733 1147 889 991Q925 956 952 915L1155 1032H1339V884Q1339 731 1377 682Q1415 634 1520 634H1563V478H1499Q1324 478 1237 574Q1155 664
1155 864L1015 783Z" />
<glyph unicode="&#x25b;" glyph-name="uni025B" horiz-adv-x="1107" d="M278 604Q166 628 106 693Q46 757 46 850Q46 991 160 1070Q273 1148 469 1148Q545 1148 630 1136T813 1100V933Q716 962 636 975Q555 988 484 988Q365 988 296 942Q226 896 226 832Q226 762
294 717Q361 673 477 673H632V521H484Q347 521 275 470Q197 414 197 326Q197 236 281 180Q366 124 517 124Q610 124 695 142Q780 161 851 198V27Q761 -1 677 -15Q592 -29 512 -29Q274 -29 145 62Q16 153 16 326Q16 434 85 507T278 604Z" />
<glyph unicode="&#x25c;" glyph-name="uni025C" horiz-adv-x="1089" d="M594 604Q718 580 787 507T856 326Q856 153 727 62T360 -29Q280 -29 196 -15T21 27V198Q92 161 177 143T355 124Q506 124 590 180T675 326Q675 414 600 467T388 521H240V673H395Q511 673
578 717T646 832Q646 896 577 942T388 988Q317 988 237 975T59 933V1100Q157 1124 242 1136T403 1148Q599 1148 712 1070T826 850Q826 757 766 693T594 604Z" />
<glyph unicode="&#x25d;" glyph-name="uni025D" horiz-adv-x="1470" d="M598 604Q722 580 791 507T860 326Q860 153 731 62T364 -29Q284 -29 199 -15Q115 -1 25 27V198Q96 161 181 142Q266 124 359 124Q510 124 595 180Q679 236 679 326Q679 414 601 470Q529 521
392 521H244V673H399Q515 673 582 717Q650 762 650 832Q650 896 580 942Q511 988 392 988Q321 988 240 975Q160 962 63 933V1100Q161 1124 246 1136T407 1148Q603 1148 716 1070Q811 1004 826 898L1062 1032H1246V884Q1246 731 1284 682Q1322 634 1427 634H1470V478H1406Q1231
478 1144 574Q1062 664 1062 864L774 698Q710 628 598 604Z" />
<glyph unicode="&#x25e;" glyph-name="uni025E" horiz-adv-x="1143" d="M656 988Q405 988 309 878Q210 764 210 559Q210 351 309 240Q413 124 623 124Q774 124 859 180Q943 236 943 326Q943 414 865 470Q793 521 656 521H508V673H663Q779 673 846 717Q914 762
914 832Q914 896 844 942Q775 988 656 988ZM671 1148Q867 1148 980 1070Q1094 991 1094 850Q1094 757 1034 693Q974 628 862 604Q986 580 1055 507T1124 326Q1124 153 995 62T628 -29Q314 -29 165 130T16 559Q16 833 167 990Q318 1148 671 1148Z" />
<glyph unicode="&#x25f;" glyph-name="uni025F" horiz-adv-x="579" d="M232 1120H416V616H579V452H416V-20Q416 -234 335 -330T72 -426H2V-270H51Q156 -270 194 -222T232 -20V452H51V616H232V1120Z" />
<glyph unicode="&#x260;" glyph-name="uni0260" horiz-adv-x="1356" d="M820 573Q820 773 738 883T506 993Q358 993 276 883T193 573Q193 374 275 264T506 154Q655 154 737 264T820 573ZM1004 139Q1004 -147 877 -286T488 -426Q391 -426 305 -412T138 -367V-188Q219
-232 298 -253T459 -274Q640 -274 730 -180T820 106V197Q763 98 674 49T461 0Q255 0 129 157T3 573Q3 833 129 990T461 1147Q585 1147 674 1098T820 950V1150Q820 1364 901 1460T1164 1556H1354V1400H1185Q1080 1400 1042 1352T1004 1150V139Z" />
<glyph unicode="&#x261;" glyph-name="uni0261" horiz-adv-x="1041" d="M831 573V965H489Q354 965 279 863T204 573Q204 374 286 264T517 154Q666 154 748 264T831 573ZM1015 139Q1015 -147 888 -286T499 -426Q402 -426 316 -412T149 -367V-188Q230 -232 309 -253T470
-274Q651 -274 741 -180T831 106V197Q774 98 685 49T472 0Q266 0 140 157T14 573Q14 822 140 971T472 1120H1015V139Z" />
<glyph unicode="&#x262;" glyph-name="uni0262" horiz-adv-x="1028" d="M839 158V431H684V571H1005V43Q904 7 797 -11T566 -29Q313 -29 164 130T15 559Q15 833 165 990T578 1147Q682 1147 780 1120T972 1037V867Q877 929 781 960T586 991Q407 991 308 878T209
559Q209 354 308 241T586 127Q665 127 727 134T839 158Z" />
<glyph unicode="&#x263;" glyph-name="uni0263" horiz-adv-x="1042" d="M521 488L843 1120H1035L618 316Q724 139 762 56Q821 -72 821 -171Q821 -300 746 -365T521 -430Q371 -430 296 -365T221 -171Q221 -72 280 56Q318 139 424 316L7 1120H199L521 488ZM521 -274Q588
-274 619 -247Q647 -223 647 -178Q647 -109 619 -36Q579 64 521 163Q463 64 423 -36Q395 -109 395 -178Q395 -223 423 -247Q454 -274 521 -274Z" />
<glyph unicode="&#x264;" glyph-name="uni0264" horiz-adv-x="1040" d="M520 721L817 1120H1034L636 586Q707 488 751 412Q820 292 820 230Q820 100 745 36T520 -29Q370 -29 295 35T220 230Q220 292 289 412Q333 488 404 586L6 1120H223L520 721ZM520 127Q587
127 618 154Q646 178 646 223Q646 256 607 320Q576 370 520 440Q464 370 433 320Q394 256 394 223Q394 178 422 154Q453 127 520 127Z" />
<glyph unicode="&#x265;" glyph-name="uni0265" horiz-adv-x="971" d="M3 442V1120H187V449Q187 290 249 211T435 131Q584 131 670 226T757 485V1120H941V-426H757V172Q690 70 602 21T396 -29Q203 -29 103 91T3 442Z" />
<glyph unicode="&#x266;" glyph-name="uni0266" horiz-adv-x="976" d="M966 676V0H782V670Q782 829 720 908T534 987Q385 987 299 892T213 633V0H28V1150Q28 1364 109 1460T372 1556H626V1400H395Q290 1400 252 1352T213 1150V946Q279 1047 368 1097T575 1147Q768
1147 867 1028T966 676Z" />
<glyph unicode="&#x267;" glyph-name="uni0267" horiz-adv-x="962" d="M951 676V-20Q951 -234 870 -330T607 -426H353V-270H586Q691 -270 729 -222T767 -20V670Q767 987 519 987Q370 987 284 892T198 633V0H13V1150Q13 1364 94 1460T357 1556H611V1400H380Q275
1400 237 1352T198 1150V946Q329 1147 560 1147Q753 1147 852 1028T951 676Z" />
<glyph unicode="&#x268;" glyph-name="uni0268" horiz-adv-x="528" d="M180 1120H364V616H528V452H364V0H180V452H0V616H180V1120ZM180 1556H364V1323H180V1556Z" />
<glyph unicode="&#x269;" glyph-name="uni0269" horiz-adv-x="693" d="M213 1120V395Q213 250 247 204Q283 156 391 156H480V0H369Q189 0 107 96Q25 194 25 406L24 1120H213Z" />
<glyph unicode="&#x26a;" glyph-name="uni026A" horiz-adv-x="579" d="M25 956V1120H553V956H385V164H553V0H25V164H201V956H25Z" />
<glyph unicode="&#x26b;" glyph-name="uni026B" horiz-adv-x="660" d="M242 1556H426V769Q428 768 429 767Q446 758 459 758Q497 758 515 795Q533 831 535 913H660Q658 778 607 705Q556 631 465 631Q445 631 426 635V0H242V770Q236 774 231 777Q214 786 201 786Q163
786 145 749Q127 713 125 631H0Q2 766 53 839Q104 913 195 913Q220 913 242 907V1556Z" />
<glyph unicode="&#x26c;" glyph-name="uni026C" horiz-adv-x="776" d="M342 1556H526V786H776V626H526V0H342V596Q342 611 341 626H280Q0 626 1 815Q2 1061 247 1061Q300 1061 342 1036V1556ZM326 786Q303 918 248 918Q171 918 170 843Q170 786 262 786H326Z" />
<glyph unicode="&#x26d;" glyph-name="uni026D" horiz-adv-x="441" d="M211 1556V-30Q211 -154 241 -212T392 -270H441V-426H371Q180 -426 104 -324T27 -20V1556H211Z" />
<glyph unicode="&#x26e;" glyph-name="uni026E" horiz-adv-x="1163" d="M664 476Q769 476 898 420Q997 377 1082 269Q1163 165 1163 27Q1163 -194 1011 -315T579 -436Q485 -436 386 -418Q286 -399 180 -362V-167Q264 -216 364 -241T573 -266Q763 -266 862 -191Q962
-116 962 27Q962 159 870 234Q779 308 612 308H438V474L868 973H206V0H22V1556H206V1120H1075V952L664 476Z" />
<glyph unicode="&#x26f;" glyph-name="uni026F" horiz-adv-x="1692" d="M783 216Q716 95 618 34Q522 -26 392 -26Q217 -26 122 97T27 446V1122H212V452Q212 290 269 212T443 134Q586 134 669 230Q752 324 752 488V1122H937V452Q937 290 994 212T1170 134Q1311
134 1394 230T1477 488V1122H1662V0H1477V176Q1416 75 1326 24Q1238 -26 1117 -26Q995 -26 909 36Q824 98 783 216Z" />
<glyph unicode="&#x270;" glyph-name="uni0270" horiz-adv-x="1668" d="M759 216Q692 95 594 34Q498 -26 368 -26Q193 -26 98 97T3 446V1122H188V452Q188 290 245 212T419 134Q562 134 645 230Q728 324 728 488V1122H913V452Q913 290 970 212T1146 134Q1287 134
1370 230T1453 488V1122H1638V-426H1453V176Q1392 75 1302 24Q1214 -26 1093 -26Q971 -26 885 36Q800 98 759 216Z" />
<glyph unicode="&#x271;" glyph-name="uni0271" horiz-adv-x="1668" d="M885 905Q954 1029 1050 1088T1276 1147Q1451 1147 1546 1024Q1641 902 1641 676V-20Q1641 -234 1559 -330Q1478 -426 1297 -426H1043V-270H1276Q1381 -270 1419 -222Q1457 -173 1457 -20L1456
670Q1456 831 1399 909T1225 987Q1082 987 999 892T916 633V0H731V670Q731 832 674 910Q617 987 498 987Q357 987 274 892Q191 796 191 633V0H6V1120H191V946Q254 1049 342 1098T551 1147Q673 1147 758 1085Q844 1023 885 905Z" />
<glyph unicode="&#x272;" glyph-name="uni0272" horiz-adv-x="1182" d="M1177 676V0H993V670Q993 829 931 908T745 987Q596 987 510 892T423 633V-20Q423 -234 342 -330T79 -426H9V-270H58Q163 -270 201 -222T239 -20V1120H424V946Q490 1047 579 1097T786 1147Q979
1147 1078 1028T1177 676Z" />
<glyph unicode="&#x273;" glyph-name="uni0273" horiz-adv-x="1180" d="M842 -330Q760 -234 760 -20V670Q760 829 698 908T512 987Q363 987 277 892T191 633V0H6V1120H191V946Q257 1047 346 1097T553 1147Q746 1147 845 1028T944 676V-20Q944 -173 982 -222Q1020
-270 1125 -270H1174V-426H1104Q923 -426 842 -330Z" />
<glyph unicode="&#x274;" glyph-name="uni0274" horiz-adv-x="1005" d="M30 1120H302L779 217V1120H975V0H703L226 876V0H30V1120Z" />
<glyph unicode="&#x275;" glyph-name="uni0275" horiz-adv-x="1060" d="M528 991Q381 991 307 895T214 671H842Q824 798 750 894T528 991ZM529 127Q678 127 762 243T846 507H212Q212 359 296 243T529 127ZM530 1147Q770 1147 907 991T1044 559Q1044 284 907 128T530
-29Q289 -29 153 127T16 559Q16 835 152 991T530 1147Z" />
<glyph unicode="&#x276;" glyph-name="uni0276" horiz-adv-x="1499" d="M1463 1120V966H907V675H1440V520H907V156H1477V0H678Q353 0 186 142Q18 285 18 561Q18 835 186 977Q353 1120 678 1120H1463ZM720 990H683Q443 990 323 882Q203 775 203 559Q203 342 323
234Q443 125 683 125H720V990Z" />
<glyph unicode="&#x277;" glyph-name="uni0277" horiz-adv-x="1232" d="M711 660V464Q711 301 759 211T860 120T952 168Q1025 259 1025 416Q1025 687 921 839T616 992T314 840T213 416Q213 259 286 168Q324 120 377 120T479 210T527 464V660H711ZM19 460Q19 800
180 974T614 1148T1050 974T1213 416Q1213 308 1184 219T1109 76Q1012 -36 905 -36T716 45T623 244Q605 123 527 44T341 -36T127 82T19 460Z" />
<glyph unicode="&#x278;" glyph-name="uni0278" horiz-adv-x="1351" d="M654 1556V1143Q853 1143 986 990Q1123 834 1123 559Q1123 284 986 128Q853 -25 654 -25V-426H471V-25Q272 -25 138 128Q2 284 2 559Q2 834 138 990Q272 1143 471 1143V1556H654ZM654 139Q767
139 844 242Q928 357 929 559Q930 759 844 876Q767 979 654 979V139ZM471 139V979Q358 979 282 876Q195 759 196 559Q197 357 282 242Q358 139 471 139Z" />
<glyph unicode="&#x279;" glyph-name="uni0279" horiz-adv-x="686" d="M471 174Q357 -27 94 -27Q57 -27 1 -17L0 172Q60 137 148 137Q304 137 387 238T471 530V1120H656V0H471V174Z" />
<glyph unicode="&#x27a;" glyph-name="uni027A" horiz-adv-x="686" d="M471 174Q357 -27 94 -27Q57 -27 1 -17L0 172Q60 137 148 137Q307 137 389 240T471 530V1546H656V0H471V174Z" />
<glyph unicode="&#x27b;" glyph-name="uni027B" horiz-adv-x="893" d="M471 174Q357 -27 94 -27Q57 -27 1 -17L0 172Q60 137 148 137Q304 137 387 238T471 530V1120H656V-20Q656 -173 694 -221T837 -270H886V-426H816Q635 -426 554 -330T472 -20L471 174Z" />
<glyph unicode="&#x27c;" glyph-name="uni027C" horiz-adv-x="686" d="M686 948Q655 966 619 974T538 983Q382 983 299 882T215 590V-424H30V1120H215V946Q273 1048 366 1097T592 1147Q611 1147 634 1145T685 1137L686 948Z" />
<glyph unicode="&#x27d;" glyph-name="uni027D" horiz-adv-x="688" d="M683 948Q652 966 616 974T535 983Q378 983 295 882T211 590V-20Q211 -173 249 -221T392 -270H625V-426H371Q190 -426 109 -330T27 -20V1120H212V946Q270 1048 363 1097T589 1147Q608 1147
631 1145T682 1137L683 948Z" />
<glyph unicode="&#x27e;" glyph-name="uni027E" horiz-adv-x="771" d="M354 741V164H518V0H6V164H170V741Q170 955 251 1051T514 1147H768V991H535Q430 991 392 943T354 741Z" />
<glyph unicode="&#x27f;" glyph-name="uni027F" horiz-adv-x="787" d="M602 741V164H782V0H254V164H418V741Q418 894 380 942T237 991H4V1147H258Q439 1147 520 1051T602 741Z" />
<glyph unicode="&#x280;" glyph-name="uni0280" horiz-adv-x="1026" d="M632 525Q680 515 737 457T845 306L1019 0H824L662 287Q588 415 527 444T384 473H215V0H30V1120H418Q636 1120 743 1041T850 797Q850 692 794 622T632 525ZM215 965V628H413Q532 628 595
671T659 792Q659 869 601 917T413 965H215Z" />
<glyph unicode="&#x281;" glyph-name="uni0281" horiz-adv-x="1026" d="M30 1120H215V647H384Q465 647 526 676T662 833L824 1120H1019L845 814Q795 721 738 663T632 595Q738 568 794 498T850 323Q850 158 743 79T418 0H30V1120ZM215 492V155H413Q542 155 600
203T659 328Q659 406 596 449T413 492H215Z" />
<glyph unicode="&#x282;" glyph-name="uni0282" horiz-adv-x="880" d="M816 1087V913Q738 953 654 973T480 993Q343 993 275 951T206 825Q206 761 255 725T452 655L515 641Q711 599 793 523T876 309Q876 153 753 62T413 -29Q313 -29 225 -12L204 -8V-20Q204 -173
242 -221T385 -270H618V-426H364Q183 -426 102 -330T20 -20V231Q224 125 417 125Q547 125 617 169T687 295Q687 370 637 410T415 487L351 502Q180 538 104 612T28 817Q28 975 140 1061T458 1147Q560 1147 650 1132T816 1087Z" />
<glyph unicode="&#x283;" glyph-name="uni0283" horiz-adv-x="767" d="M230 -20V1198Q230 1385 317 1470T593 1556H767V1403H591Q492 1403 454 1363T415 1219V-20Q415 -234 334 -330T71 -426H1V-270H50Q155 -270 192 -222T230 -20Z" />
<glyph unicode="&#x284;" glyph-name="uni0284" horiz-adv-x="769" d="M232 1120V1198Q232 1385 319 1470T595 1556H769V1403H593Q494 1403 456 1363T417 1219V619L418 616H580V452H417V-20Q417 -234 336 -330T73 -426H3V-270H52Q157 -270 194 -222T232 -20V452H52V616H232V977H57V1120H232Z"
/>
<glyph unicode="&#x285;" glyph-name="uni0285" horiz-adv-x="768" d="M352 -20V788Q352 892 314 932T176 972H0V1125H174Q363 1125 450 1040T537 767V-20Q537 -173 574 -221T717 -270H766V-426H696Q515 -426 434 -330T352 -20Z" />
<glyph unicode="&#x286;" glyph-name="uni0286" horiz-adv-x="998" d="M645 0H828V-155H637Q619 -266 566 -330Q484 -426 303 -426Q0 -426 0 -210Q0 0 270 0H460V1198Q460 1385 547 1470T823 1556H997V1403H821Q722 1403 684 1363T645 1219V0ZM450 -154H271Q152
-154 155 -205Q158 -270 282 -270Q392 -270 425 -222Q442 -198 450 -154Z" />
<glyph unicode="&#x287;" glyph-name="uni0287" horiz-adv-x="703" d="M379 -320V-2H0V141H379V749Q379 886 342 925T189 964H0V1118H189Q402 1118 483 1039T564 749V141H699V-2H564V-320H379Z" />
<glyph unicode="&#x288;" glyph-name="uni0288" horiz-adv-x="707" d="M324 1438V1120H703V977H324V-20Q324 -173 362 -221T505 -270H707V-426H483Q302 -426 221 -330T139 -20V977H4V1120H139V1438H324Z" />
<glyph unicode="&#x289;" glyph-name="uni0289" horiz-adv-x="1317" d="M183 616V1120H367V616H937V1120H1121V616H1307V452H1121V0H937V172Q870 70 782 21T576 -29Q383 -29 283 91T183 442V452H9V616H183ZM936 451H367V449Q367 290 429 211T615 131Q758 131 847
224T936 451Z" />
<glyph unicode="&#x28a;" glyph-name="uni028A" horiz-adv-x="1081" d="M1062 956H826Q923 884 986 767T1050 497Q1050 262 908 116T541 -30Q316 -30 174 116T32 497Q32 649 95 766T256 956H19V1120H461V900Q359 834 291 727T223 480Q223 321 311 224T543 127Q687
127 775 224T863 480Q863 619 795 726T625 900L626 1120H1062V956Z" />
<glyph unicode="&#x28b;" glyph-name="uni028B" horiz-adv-x="965" d="M950 527Q950 289 808 146Q663 0 441 0H371Q190 0 108 96Q27 192 27 406V1120H211V406Q211 253 249 204Q289 154 392 156H443Q587 156 675 254T763 510Q763 742 689 843Q616 942 506 972V1122Q610
1114 698 1066Q865 975 916 804Q950 689 950 527Z" />
<glyph unicode="&#x28c;" glyph-name="uni028C" horiz-adv-x="1100" d="M5 0L425 1120H675L1095 0H900L550 940L200 0H5Z" />
<glyph unicode="&#x28d;" glyph-name="uni028D" horiz-adv-x="1531" d="M1517 0H1333L1103 874L874 0H657L427 874L198 0H14L307 1120H524L765 202L1007 1120H1224L1517 0Z" />
<glyph unicode="&#x28e;" glyph-name="uni028E" horiz-adv-x="1103" d="M0 0L492 1234Q572 1433 644 1495Q718 1556 842 1556H989V1402H881Q805 1402 763 1366Q717 1331 670 1196L637 1102L1090 0H895L544 876L195 0H0Z" />
<glyph unicode="&#x28f;" glyph-name="uni028F" horiz-adv-x="1033" d="M2 1120H219L512 664L814 1120H1031L612 496V0H409V496L2 1120Z" />
<glyph unicode="&#x290;" glyph-name="uni0290" horiz-adv-x="1137" d="M25 1120H899V952L207 147H899V-20Q899 -173 937 -221T1080 -270H1127V-426H1057Q876 -426 795 -330T713 -20V0H0V168L692 973H25V1120Z" />
<glyph unicode="&#x291;" glyph-name="uni0291" horiz-adv-x="922" d="M33 1120H907V952L215 147H390Q424 309 508 380Q573 435 669 435Q801 435 859 348Q897 291 897 204Q898 108 836 61Q754 0 628 0H523Q520 -51 520 -111H367Q367 -52 370 0H8V168L700 973H33V1120ZM544
147H600Q738 147 738 201Q738 294 668 292Q580 290 544 147Z" />
<glyph unicode="&#x292;" glyph-name="uni0292" horiz-adv-x="1008" d="M494 476Q600 476 728 420Q826 378 912 269Q993 165 993 27Q993 -194 841 -315T409 -436Q315 -436 216 -418Q116 -399 10 -362V-167Q94 -216 194 -241T403 -266Q593 -266 692 -191Q792 -116
792 27Q792 159 700 234Q607 308 442 308H268V474L698 973H31V1120H905V952L494 476Z" />
<glyph unicode="&#x293;" glyph-name="uni0293" horiz-adv-x="1047" d="M387 -436Q52 -436 54 -247Q56 4 354 -1Q600 -5 758 -64Q770 -22 770 27Q770 160 678 234Q584 308 420 308H246V474L676 973H9V1120H883V952L472 476Q577 476 706 420Q806 377 890 269Q971
166 971 27Q971 -86 932 -171Q1032 -272 1032 -436H879Q879 -354 839 -298Q839 -298 819 -315Q668 -436 387 -436ZM677 -186Q552 -144 355 -144Q224 -144 223 -219Q223 -266 381 -266Q571 -266 670 -191L677 -186Z" />
<glyph unicode="&#x294;" glyph-name="uni0294" horiz-adv-x="852" d="M257 798H320Q512 798 598 912Q656 988 656 1086Q655 1219 598 1284Q499 1398 320 1398Q240 1398 161 1376Q83 1355 5 1312V1484Q81 1519 162 1536Q243 1554 328 1554Q603 1554 741 1397Q850
1272 850 1086Q850 916 742 801Q630 682 460 652V0H258L257 798Z" />
<glyph unicode="&#x295;" glyph-name="uni0295" horiz-adv-x="852" d="M594 798V0H392V652Q222 682 110 801Q2 916 2 1086Q2 1272 112 1397Q249 1554 524 1554Q609 1554 690 1536Q771 1519 847 1484V1312Q769 1355 690 1376Q612 1398 532 1398Q353 1398 254 1284Q197
1219 196 1086Q196 988 254 912Q340 798 532 798H594Z" />
<glyph unicode="&#x296;" glyph-name="uni0296" horiz-adv-x="853" d="M258 756L259 1554H461V902Q631 872 743 753Q851 638 851 468Q851 282 742 157Q604 0 329 0Q244 0 163 18Q82 35 6 70V242Q84 199 162 178Q241 156 321 156Q500 156 599 270Q656 335 657 468Q657
566 599 642Q513 756 321 756H258Z" />
<glyph unicode="&#x297;" glyph-name="uni0297" horiz-adv-x="874" d="M23 1088Q23 1274 133 1399Q270 1556 545 1556Q630 1556 711 1538Q792 1521 868 1486V1314Q795 1354 711 1378Q633 1400 553 1400Q377 1400 275 1286Q217 1221 217 1088V32Q217 -101 275 -166Q377
-280 553 -280Q633 -280 711 -258Q790 -237 868 -194V-366Q792 -401 711 -418Q630 -436 545 -436Q270 -436 133 -279Q23 -154 23 32V1088Z" />
<glyph unicode="&#x298;" glyph-name="uni0298" horiz-adv-x="1414" d="M594 745Q594 791 628 825Q660 859 708 859Q754 859 788 825Q820 791 820 745Q820 698 787 665T707 632T628 665Q594 698 594 745ZM229 745Q229 463 358 299T708 135T1056 299T1185 745Q1185
1028 1057 1192T708 1356T359 1192T229 745ZM708 1520Q1022 1520 1210 1310T1398 745Q1398 392 1210 182T708 -29Q393 -29 205 181T16 745T204 1309T708 1520Z" />
<glyph unicode="&#x299;" glyph-name="uni0299" horiz-adv-x="1187" d="M214 516V147H476Q602 147 668 194T734 332Q734 422 668 469T476 516H214ZM214 973V663H456Q560 663 626 704T692 820Q692 894 626 933T456 973H214ZM30 1120H468Q665 1120 771 1048T877
843Q877 740 823 680T663 604Q790 580 860 504T930 314Q930 164 815 82T485 0H30V1120Z" />
<glyph unicode="&#x29a;" glyph-name="uni029A" horiz-adv-x="1143" d="M487 988Q368 988 299 942Q229 896 229 832Q229 762 297 717Q364 673 480 673H635V521H487Q350 521 278 470Q200 414 200 326Q200 236 284 180Q369 124 520 124Q730 124 834 240Q933 351
933 559Q933 764 834 878Q738 988 487 988ZM472 1148Q825 1148 976 990Q1127 833 1127 559Q1127 289 978 130T515 -29Q277 -29 148 62T19 326Q19 434 88 507T281 604Q169 628 109 693Q49 757 49 850Q49 991 163 1070Q276 1148 472 1148Z" />
<glyph unicode="&#x29b;" glyph-name="uni029B" horiz-adv-x="1378" d="M828 158V431H673V571H994V43Q893 7 786 -11T555 -29Q302 -29 153 130T4 559Q4 833 154 990T567 1147Q622 1147 674 1140T776 1117V1150Q776 1364 857 1460T1120 1556H1374V1400H1143Q1038
1400 1000 1352T961 1150V867Q866 929 770 960T575 991Q396 991 297 878T198 559Q198 354 297 241T575 127Q654 127 716 134T828 158Z" />
<glyph unicode="&#x29c;" glyph-name="uni029C" horiz-adv-x="1339" d="M30 1120H215V663H812V1120H997V0H812V516H215V0H30V1120Z" />
<glyph unicode="&#x29d;" glyph-name="uni029D" horiz-adv-x="830" d="M463 1556H647V1323H463V1556ZM463 1120H647V0H828V-139H639Q621 -259 566 -330Q491 -426 303 -426Q0 -426 0 -205Q0 0 270 0H463V1120ZM455 -139H271Q154 -139 155 -205Q155 -270 282 -270Q377
-270 420 -222Q449 -190 455 -139Z" />
<glyph unicode="&#x29e;" glyph-name="uni029E" horiz-adv-x="1024" d="M994 -436H809V483L260 0H25L619 524L0 1120H240L809 573V1120H994V-436Z" />
<glyph unicode="&#x29f;" glyph-name="uni029F" horiz-adv-x="853" d="M30 1120H214V147H853V0H30V1120Z" />
<glyph unicode="&#x2a0;" glyph-name="uni02A0" horiz-adv-x="1418" d="M190 559Q190 356 273 241T503 125Q649 125 733 240T817 559Q817 762 733 877T503 993Q357 993 274 878T190 559ZM817 168Q759 68 671 20T458 -29Q255 -29 128 133T0 559Q0 823 127 985T458
1147Q582 1147 670 1099T817 950V1148Q817 1362 898 1458T1161 1554H1415V1398H1184Q1079 1398 1041 1350T1002 1148V-426H817V168Z" />
<glyph unicode="&#x2a1;" glyph-name="uni02A1" horiz-adv-x="856" d="M260 798H323Q515 798 601 912Q659 988 659 1086Q658 1219 601 1284Q502 1398 323 1398Q243 1398 164 1376Q86 1355 8 1312V1484Q84 1519 165 1536Q246 1554 331 1554Q606 1554 744 1397Q853
1272 853 1086Q853 916 745 801Q633 682 463 652V440H694V276H463V0H261V276H32V440H260V798Z" />
<glyph unicode="&#x2a2;" glyph-name="uni02A2" horiz-adv-x="856" d="M162 276V440H393V652Q223 682 111 801Q3 916 3 1086Q3 1272 113 1397Q250 1554 525 1554Q610 1554 691 1536Q772 1519 848 1484V1312Q770 1355 691 1376Q613 1398 533 1398Q354 1398 255
1284Q198 1219 197 1086Q197 988 255 912Q341 798 533 798H595V440H824V276H595V0H393V276H162Z" />
<glyph unicode="&#x2a3;" glyph-name="uni02A3" horiz-adv-x="1886" d="M282 240Q366 125 512 125T742 240Q826 356 826 559T742 878Q658 993 512 993T282 878Q199 762 199 559T282 240ZM826 950V1556H1010V1120H1883V952L1191 147H1883V0H1010H984H826V168Q768
68 680 20Q591 -29 467 -29Q264 -29 136 133Q9 295 9 559T136 985Q264 1147 467 1147Q591 1147 680 1098Q768 1050 826 950ZM1010 973V198L1676 973H1010Z" />
<glyph unicode="&#x2a4;" glyph-name="uni02A4" horiz-adv-x="1972" d="M1003 973V0H819V168Q761 68 673 20Q584 -29 460 -29Q257 -29 129 133Q2 295 2 559T129 985Q257 1147 460 1147Q584 1147 673 1098Q761 1050 819 950V1556H1003V1120H1877V952L1466 476Q1572
476 1700 420Q1798 378 1884 269Q1965 165 1965 27Q1965 -194 1813 -315T1381 -436Q1287 -436 1188 -418Q1088 -399 982 -362V-167Q1066 -216 1166 -241T1375 -266Q1565 -266 1664 -191Q1764 -116 1764 27Q1764 159 1672 234Q1579 308 1414 308H1240V474L1670 973H1003ZM275
240Q359 125 505 125T735 240Q819 356 819 559T735 878Q651 993 505 993T275 878Q192 762 192 559T275 240Z" />
<glyph unicode="&#x2a5;" glyph-name="uni02A5" horiz-adv-x="1888" d="M281 240Q365 125 511 125T741 240Q825 356 825 559T741 878Q657 993 511 993T281 878Q198 762 198 559T281 240ZM1009 973V199L1674 973H1009ZM1009 1120H1881V952L1189 147H1364Q1424 435
1643 435Q1870 435 1871 189Q1872 0 1538 0H1497Q1494 -51 1494 -111H1341Q1341 -52 1344 0H982H825V168Q767 68 679 20Q590 -29 466 -29Q263 -29 135 133Q8 295 8 559T135 985Q263 1147 466 1147Q590 1147 679 1098Q767 1050 825 950V1556H1009V1120ZM1518 147H1538Q1712
147 1712 201Q1712 292 1642 292Q1554 290 1518 147Z" />
<glyph unicode="&#x2a6;" glyph-name="uni02A6" horiz-adv-x="1561" d="M1500 1087V913Q1422 953 1338 973T1164 993Q1027 993 958 951Q890 909 890 825Q890 761 939 724Q988 688 1136 655L1199 641Q1397 597 1478 522Q1560 446 1560 309Q1560 153 1436 62Q1313
-29 1097 -29Q1007 -29 910 -12Q817 5 714 38V0H525Q312 0 231 80Q150 159 150 369V977H15V1120H150V1438H335V1120H714V977H335V369Q335 232 372 193Q410 154 525 154H704V231Q806 178 905 152Q1004 125 1101 125Q1231 125 1301 170Q1371 214 1371 295Q1371 370
1320 410Q1276 446 1099 487L1035 502Q864 538 788 612Q712 687 712 817Q712 975 824 1061T1142 1147Q1244 1147 1334 1132T1500 1087Z" />
<glyph unicode="&#x2a7;" glyph-name="uni02A7" horiz-adv-x="1239" d="M324 1438V1120H700Q700 1120 700 1198Q700 1379 787 1470Q868 1556 1063 1556H1237V1403H1061Q962 1403 924 1363Q885 1323 885 1219L887 -20Q887 -234 806 -330Q724 -426 543 -426H473V-270H522Q627
-270 665 -222Q703 -173 703 -20V0H514Q301 0 220 80Q139 159 139 369V977H4V1120H139V1438H324ZM702 154Q700 572 700 977H324V369Q324 232 361 193Q399 154 514 154H702Z" />
<glyph unicode="&#x2a8;" glyph-name="uni02A8" horiz-adv-x="1437" d="M331 1438V1120H710V998Q859 1147 1114 1147Q1199 1147 1280 1130Q1361 1112 1437 1077V905Q1359 948 1280 970Q1202 991 1122 991Q943 991 844 878Q745 764 745 559T844 240L852 231Q931
402 1137 402Q1436 402 1437 156Q1437 38 1336 -3Q1261 -33 1104 -33Q1020 -33 947 -15Q945 -65 945 -141L792 -144Q792 -65 798 0H521Q308 0 227 80Q146 159 146 369V977H11V1120H146V1438H331ZM973 151Q1039 127 1122 127Q1217 127 1238 134Q1269 145 1268 184Q1267
259 1136 259Q1022 259 982 173Q977 163 973 151ZM679 154Q551 311 551 559Q551 822 690 977H331V369Q331 232 368 193Q406 154 521 154H679Z" />
<glyph unicode="&#x2a9;" glyph-name="uni02A9" horiz-adv-x="1612" d="M1602 676V-20Q1602 -234 1520 -330Q1439 -426 1258 -426H1004V-270H1237Q1342 -270 1380 -222Q1418 -173 1418 -20V670Q1418 829 1356 908T1170 987Q1021 987 935 892T849 633V0H664V977H363V0H178V977H2V1120H178V1198Q178
1385 265 1470Q352 1556 541 1556H715V1403H539Q440 1403 401 1363Q363 1323 363 1219V1120H664H666H849V946Q915 1047 1004 1097Q1094 1147 1211 1147Q1404 1147 1503 1028Q1602 908 1602 676Z" />
<glyph unicode="&#x2aa;" glyph-name="uni02AA" horiz-adv-x="1062" d="M1002 1087V913Q924 953 840 973T666 993Q529 993 461 951Q392 909 392 825Q392 761 441 724Q490 688 638 655L701 641Q899 597 979 522Q1062 446 1062 309Q1062 153 939 62Q815 -29 599
-29Q509 -29 411 -12Q318 5 214 38V0H30V1556H214V818Q214 975 326 1061T644 1147Q746 1147 836 1132T1002 1087ZM214 817V227Q312 177 407 152Q506 125 603 125Q733 125 803 170Q873 214 873 295Q873 370 823 410Q778 446 601 487L537 502Q366 538 290 612Q214
687 214 817Z" />
<glyph unicode="&#x2ab;" glyph-name="uni02AB" horiz-adv-x="1087" d="M30 1556H214V1120H1087V952L395 147H1087V0H214H188H30V1556ZM214 973V198L880 973H214Z" />
<glyph unicode="&#x2ac;" glyph-name="uni02AC" horiz-adv-x="981" d="M17 597H133L278 108L422 597H559L704 108L848 597H964L779 -30H643L491 484L338 -30H202L17 597ZM17 1311H133L278 822L422 1311H559L704 822L848 1311H964L779 684H643L491 1198L338 684H202L17
1311Z" />
<glyph unicode="&#x2ad;" glyph-name="uni02AD" horiz-adv-x="987" d="M30 597H977V173H834V434H173V173H30V597ZM30 1311H977V887H834V1148H173V887H30V1311Z" />
<glyph unicode="&#x2ae;" glyph-name="uni02AE" horiz-adv-x="1177" d="M983 172Q852 -29 621 -29Q428 -29 329 90T230 442V1150Q230 1303 192 1351T49 1400H0V1556H70Q251 1556 332 1460T414 1150V448Q414 131 662 131Q811 131 897 226T983 485V1118H1168V-438H983V172Z" />
<glyph unicode="&#x2af;" glyph-name="uni02AF" horiz-adv-x="1399" d="M983 172Q852 -29 621 -29Q428 -29 329 90T230 442V1150Q230 1303 192 1351T49 1400H0V1556H70Q251 1556 332 1460T414 1150V448Q414 131 662 131Q811 131 897 226T983 485V1118H1168V-20Q1164
-168 1204 -219T1348 -270H1398V-426H1328Q1146 -426 1067 -334T983 -20V172Z" />
<glyph unicode="&#x2b0;" glyph-name="uni02B0" horiz-adv-x="624" d="M621 1047V668H505V1043Q505 1132 466 1176T349 1221Q255 1221 201 1168T147 1022V668H30V1539H147V1198Q188 1254 244 1282T375 1310Q496 1310 558 1243T621 1047Z" />
<glyph unicode="&#x2b1;" glyph-name="uni02B1" horiz-adv-x="629" d="M619 1047V668H503V1043Q503 1132 464 1176T347 1221Q253 1221 199 1168T145 1022V668H28V1312Q28 1432 79 1485T245 1539H405V1452H259Q193 1452 169 1425T145 1312V1198Q186 1254 242 1282T373
1310Q494 1310 556 1243T619 1047Z" />
<glyph unicode="&#x2b2;" glyph-name="uni02B2" horiz-adv-x="284" d="M145 1295H261V657Q261 537 209 483Q158 429 44 429H0V517H31Q97 517 121 544Q145 571 145 657V1295ZM145 1539H261V1409H145V1539Z" />
<glyph unicode="&#x2b3;" glyph-name="uni02B3" horiz-adv-x="443" d="M443 1199Q424 1209 401 1213T350 1218Q252 1218 200 1162T147 998V668H30V1295H147V1198Q183 1255 241 1282T384 1310Q396 1310 410 1309T443 1305V1199Z" />
<glyph unicode="&#x2b4;" glyph-name="uni02B4" horiz-adv-x="442" d="M0 764Q19 754 42 750T93 745Q191 745 243 801T296 965V1295H412V668H296V765Q260 708 202 681T59 653Q47 653 33 654T0 658V764Z" />
<glyph unicode="&#x2b5;" glyph-name="uni02B5" horiz-adv-x="564" d="M0 764Q19 754 42 750T93 745Q191 745 243 801T296 965V1295H412V668V657Q412 571 436 544T526 517H557V429H513Q399 429 348 483T296 657V668V765Q260 708 202 681T59 653Q47 653 33 654T0 658V764Z" />
<glyph unicode="&#x2b6;" glyph-name="uni02B6" horiz-adv-x="660" d="M409 1001Q476 986 511 947T546 849Q546 758 479 713Q411 668 274 668H30V1295H146V1030H253Q314 1030 351 1051Q388 1071 428 1134L530 1295H653L543 1124Q510 1071 477 1041Q443 1011 409
1001ZM146 755H271Q346 755 385 778Q426 802 426 849Q426 895 385 919Q346 944 271 944H146V755Z" />
<glyph unicode="&#x2b7;" glyph-name="uni02B7" horiz-adv-x="975" d="M14 1295H130L275 806L419 1295H556L701 806L845 1295H961L776 668H640L488 1182L335 668H199L14 1295Z" />
<glyph unicode="&#x2b8;" glyph-name="uni02B8" horiz-adv-x="700" d="M390 610Q341 498 294 464Q248 429 170 429H77V516H145Q193 516 219 536Q246 556 278 631L299 678L13 1295H136L357 805L577 1295H700L390 610Z" />
<glyph unicode="&#x2b9;" glyph-name="uni02B9" horiz-adv-x="570" d="M11 1140L76 1638H266L156 1140H11Z" />
<glyph unicode="&#x2ba;" glyph-name="uni02BA" horiz-adv-x="942" d="M11 1140L76 1638H266L156 1140H11ZM383 1140L448 1638H638L528 1140H383Z" />
<glyph unicode="&#x2bb;" glyph-name="uni02BB" horiz-adv-x="651" d="M217 1001H6V1174L170 1493H299L217 1174V1001Z" />
<glyph unicode="&#x2bc;" glyph-name="uni02BC" horiz-adv-x="651" d="M90 1493H301V1341L137 1022H8L90 1341V1493Z" />
<glyph unicode="&#x2bd;" glyph-name="uni02BD" horiz-adv-x="305" d="M216 1754V1582L298 1262H169L5 1582V1754H216Z" />
<glyph unicode="&#x2be;" glyph-name="uni02BE" horiz-adv-x="309" d="M30 1007V1130Q94 1130 138 1174T182 1282Q182 1345 138 1389T30 1433V1556Q145 1556 225 1476Q304 1397 304 1282T225 1087Q145 1007 30 1007Z" />
<glyph unicode="&#x2bf;" glyph-name="uni02BF" horiz-adv-x="290" d="M279 1007Q164 1007 84 1087Q5 1167 5 1282T84 1476Q164 1556 279 1556V1433Q215 1433 171 1389T127 1282Q127 1218 171 1174T279 1130V1007Z" />
<glyph unicode="&#x2c0;" glyph-name="uni02C0" horiz-adv-x="540" d="M165 1115H204Q325 1115 380 1179Q416 1221 416 1276Q415 1351 380 1387Q317 1451 204 1451Q154 1451 104 1439Q55 1427 6 1403V1499Q54 1519 105 1528Q156 1538 209 1538Q383 1538 470 1450Q538
1380 538 1276Q538 1181 470 1117Q400 1050 293 1033V668H165V1115Z" />
<glyph unicode="&#x2c1;" glyph-name="uni02C1" horiz-adv-x="540" d="M375 1115V668H248V1033Q141 1050 70 1117Q2 1181 2 1276Q2 1380 71 1450Q158 1538 331 1538Q384 1538 435 1528Q486 1519 534 1499V1403Q485 1427 435 1439Q386 1451 336 1451Q223 1451 161
1387Q125 1351 124 1276Q124 1221 161 1179Q215 1115 336 1115H375Z" />
<glyph unicode="&#x2c2;" glyph-name="uni02C2" horiz-adv-x="503" d="M0 1467L490 1712V1573L131 1393L490 1213V1074L0 1319V1467Z" />
<glyph unicode="&#x2c3;" glyph-name="uni02C3" horiz-adv-x="520" d="M520 1319L30 1074V1213L389 1393L30 1573V1712L520 1467V1319Z" />
<glyph unicode="&#x2c4;" glyph-name="uni02C4" horiz-adv-x="648" d="M250 1638H398L643 1148H504L324 1507L144 1148H5L250 1638Z" />
<glyph unicode="&#x2c5;" glyph-name="uni02C5" horiz-adv-x="647" d="M249 1148L4 1638H143L323 1279L503 1638H642L397 1148H249Z" />
<glyph unicode="&#x2c6;" glyph-name="circumflex" horiz-adv-x="648" d="M250 1638H398L643 1262H504L324 1507L144 1262H5L250 1638Z" />
<glyph unicode="&#x2c7;" glyph-name="caron" horiz-adv-x="646" d="M249 1262L4 1638H143L323 1393L503 1638H642L397 1262H249Z" />
<glyph unicode="&#x2c8;" glyph-name="uni02C8" horiz-adv-x="199" d="M166 1554V999H30V1554H166Z" />
<glyph unicode="&#x2c9;" glyph-name="uni02C9" horiz-adv-x="1024" d="M30 1526H628V1378H30V1526Z" />
<glyph unicode="&#x2ca;" glyph-name="uni02CA" horiz-adv-x="479" d="M280 1638H479L153 1262H0L280 1638Z" />
<glyph unicode="&#x2cb;" glyph-name="uni02CB" horiz-adv-x="479" d="M197 1638L479 1264H326L0 1638H197Z" />
<glyph unicode="&#x2cc;" glyph-name="uni02CC" horiz-adv-x="199" d="M166 252V-303H30V252H166Z" />
<glyph unicode="&#x2cd;" glyph-name="uni02CD" horiz-adv-x="1024" d="M30 -171H628V-319H30V-171Z" />
<glyph unicode="&#x2ce;" glyph-name="uni02CE" horiz-adv-x="479" d="M197 -110L479 -484H326L0 -110H197Z" />
<glyph unicode="&#x2cf;" glyph-name="uni02CF" horiz-adv-x="479" d="M280 -108H479L153 -484H0L280 -108Z" />
<glyph unicode="&#x2d0;" glyph-name="uni02D0" horiz-adv-x="379" d="M189 729L11 1059H368L189 729ZM189 330L368 0H11L189 330Z" />
<glyph unicode="&#x2d1;" glyph-name="uni02D1" horiz-adv-x="359" d="M179 729L1 1059H358L179 729Z" />
<glyph unicode="&#x2d2;" glyph-name="uni02D2" horiz-adv-x="629" d="M30 511V634Q94 634 138 678T182 786Q182 849 138 893T30 937V1060Q145 1060 225 980Q304 901 304 786T225 591Q145 511 30 511Z" />
<glyph unicode="&#x2d3;" glyph-name="uni02D3" horiz-adv-x="629" d="M279 511Q164 511 84 591Q5 671 5 786T84 980Q164 1060 279 1060V937Q215 937 171 893T127 786Q127 722 171 678T279 634V511Z" />
<glyph unicode="&#x2d4;" glyph-name="uni02D4" horiz-adv-x="467" d="M458 618V468H8V618H158V918H308V618H458Z" />
<glyph unicode="&#x2d5;" glyph-name="uni02D5" horiz-adv-x="466" d="M8 768V918H458V768H308V468H158V768H8Z" />
<glyph unicode="&#x2d6;" glyph-name="uni02D6" horiz-adv-x="598" d="M224 629V853H374V629H598V479H374V255H224V479H0V629H224Z" />
<glyph unicode="&#x2d7;" glyph-name="uni02D7" horiz-adv-x="511" d="M480 479H30V629H480V479Z" />
<glyph unicode="&#x2d8;" glyph-name="breve" horiz-adv-x="656" d="M15 1608H133Q144 1533 192 1496T328 1458Q414 1458 462 1495T523 1608H641Q631 1465 552 1393T328 1321Q183 1321 104 1393T15 1608Z" />
<glyph unicode="&#x2d9;" glyph-name="dotaccent" horiz-adv-x="266" d="M30 1552H234V1348H30V1552Z" />
<glyph unicode="&#x2da;" glyph-name="ring" horiz-adv-x="577" d="M441 1524Q441 1587 397 1631T289 1675Q224 1675 181 1632T137 1524Q137 1459 180 1416T289 1372Q353 1372 397 1416T441 1524ZM563 1524Q563 1409 484 1329T289 1249Q174 1249 95 1329T15 1524Q15
1639 94 1718T289 1798Q404 1798 483 1719T563 1524Z" />
<glyph unicode="&#x2db;" glyph-name="ogonek" horiz-adv-x="392" d="M123 0H242Q197 -61 176 -105T154 -180Q154 -226 181 -249T263 -272Q295 -272 326 -265T388 -242V-375Q350 -385 316 -390T252 -395Q130 -395 73 -352T15 -215Q15 -167 41 -115T123 0Z" />
<glyph unicode="&#x2dc;" glyph-name="tilde" horiz-adv-x="701" d="M347 1370L290 1425Q268 1445 252 1454T222 1464Q184 1464 166 1428T146 1309H21Q23 1444 74 1517T216 1591Q254 1591 286 1577T355 1530L412 1475Q434 1455 450 1446T480 1436Q518 1436 536
1472T556 1591H681Q679 1456 628 1383T486 1309Q448 1309 416 1323T347 1370Z" />
<glyph unicode="&#x2dd;" glyph-name="hungarumlaut" horiz-adv-x="718" d="M534 1638H712L464 1262H329L534 1638ZM200 1638H370L147 1262H10L200 1638Z" />
<glyph unicode="&#x2de;" glyph-name="uni02DE" horiz-adv-x="694" d="M0 868L278 1032H462V884Q462 731 500 682Q538 634 643 634H686V478H622Q447 478 360 574Q278 664 278 864L1 702L0 868Z" />
<glyph unicode="&#x2df;" glyph-name="uni02DF" horiz-adv-x="587" d="M386 1262L294 1359L201 1262H21L202 1449L21 1638H201L294 1542L386 1638H566L384 1449L566 1262H386Z" />
<glyph unicode="&#x2e0;" glyph-name="uni02E0" horiz-adv-x="670" d="M411 988Q589 739 589 559Q589 427 347 427Q80 427 80 559Q80 750 261 992L11 1295H148L339 1071L522 1295H659L411 988ZM335 921Q198 747 198 595Q198 518 334 518Q463 518 463 595Q463 732
335 921Z" />
<glyph unicode="&#x2e1;" glyph-name="uni02E1" horiz-adv-x="180" d="M30 1539H146V668H30V1539Z" />
<glyph unicode="&#x2e2;" glyph-name="uni02E2" horiz-adv-x="575" d="M521 1293V1196Q472 1218 419 1229Q367 1240 310 1240Q223 1240 180 1217Q137 1193 137 1146Q137 1110 168 1090Q199 1069 292 1051L332 1043Q457 1019 507 977Q559 934 559 857Q559 770 481
719Q404 668 268 668Q211 668 149 678Q88 688 20 707V814Q84 784 147 769Q209 754 270 754Q352 754 396 779T440 849Q440 891 408 914Q380 934 269 957L229 965Q121 986 73 1027Q25 1069 25 1142Q25 1230 96 1278Q166 1327 296 1327Q360 1327 417 1318Q474 1310
521 1293Z" />
<glyph unicode="&#x2e3;" glyph-name="uni02E3" horiz-adv-x="719" d="M688 1295L433 990L701 668H564L359 914L154 668H17L291 996L40 1295H177L364 1072L551 1295H688Z" />
<glyph unicode="&#x2e4;" glyph-name="uni02E4" horiz-adv-x="757" d="M375 1115V668H248V1033Q141 1050 70 1117Q2 1181 2 1276Q2 1380 71 1450Q158 1538 331 1538Q384 1538 435 1528Q486 1519 534 1499V1403Q485 1427 435 1439Q386 1451 336 1451Q223 1451 161
1387Q125 1351 124 1276Q124 1221 161 1179Q215 1115 336 1115H375Z" />
<glyph unicode="&#x2e5;" glyph-name="uni02E5" horiz-adv-x="614" d="M447 0V1232H0V1368H583V0H447Z" />
<glyph unicode="&#x2e6;" glyph-name="uni02E6" horiz-adv-x="614" d="M447 0V924H0V1060H447V1368H583V0H447Z" />
<glyph unicode="&#x2e7;" glyph-name="uni02E7" horiz-adv-x="614" d="M447 0V616H0V752H447V1368H583V0H447Z" />
<glyph unicode="&#x2e8;" glyph-name="uni02E8" horiz-adv-x="614" d="M447 0V308H0V444H447V1368H583V0H447Z" />
<glyph unicode="&#x2e9;" glyph-name="uni02E9" horiz-adv-x="614" d="M447 136V1368H583V0H0V136H447Z" />
<glyph unicode="&#x2ec;" glyph-name="uni02EC" horiz-adv-x="1024" d="M249 -531L4 -41H143L323 -400L503 -41H642L397 -531H249Z" />
<glyph unicode="&#x2ed;" glyph-name="uni02ED" horiz-adv-x="1024" d="M30 1654H628V1506H30V1654ZM30 1655H628V1507H30V1655Z" />
<glyph unicode="&#x2ee;" glyph-name="uni02EE" horiz-adv-x="1061" d="M101 1493H312V1321L148 1001H19L101 1321V1493ZM511 1493H722V1321L558 1001H429L511 1321V1493Z" />
<glyph unicode="&#x2f3;" glyph-name="uni02F3" horiz-adv-x="1024" d="M441 -216Q441 -153 397 -109T289 -65Q224 -65 181 -108T137 -216Q137 -281 180 -324T289 -368Q353 -368 397 -324T441 -216ZM563 -216Q563 -331 484 -411T289 -491Q174 -491 95 -411T15
-216Q15 -101 94 -22T289 58Q404 58 483 -21T563 -216Z" />
<glyph unicode="&#x2f7;" glyph-name="uni02F7" horiz-adv-x="701" d="M347 -333L290 -278Q268 -258 251 -248Q235 -239 222 -239Q184 -239 166 -276Q148 -312 146 -394H21Q23 -259 74 -186Q125 -112 216 -112Q254 -112 286 -126T355 -173L412 -228Q434 -248 451
-258Q467 -267 480 -267Q518 -267 536 -230Q554 -194 556 -112H681Q679 -247 628 -320Q577 -394 486 -394Q448 -394 416 -380T347 -333Z" />
<glyph unicode="&#x300;" glyph-name="gravecomb" horiz-adv-x="479" d="M197 1638L479 1264H326L0 1638H197Z" />
<glyph unicode="&#x301;" glyph-name="acutecomb" horiz-adv-x="479" d="M280 1638H479L153 1262H0L280 1638Z" />
<glyph unicode="&#x302;" glyph-name="uni0302" horiz-adv-x="648" d="M250 1638H398L643 1262H504L324 1507L144 1262H5L250 1638Z" />
<glyph unicode="&#x303;" glyph-name="tildecomb" horiz-adv-x="0" d="M-678 1370L-735 1425Q-757 1445 -773 1454T-803 1464Q-841 1464 -859 1428T-879 1309H-1004Q-1002 1444 -951 1517T-809 1591Q-771 1591 -739 1577T-670 1530L-613 1475Q-591 1455 -575 1446T-545
1436Q-507 1436 -489 1472T-469 1591H-344Q-346 1456 -397 1383T-539 1309Q-577 1309 -609 1323T-678 1370Z" />
<glyph unicode="&#x304;" glyph-name="uni0304" horiz-adv-x="0" d="M-989 1526H-391V1378H-989V1526Z" />
<glyph unicode="&#x305;" glyph-name="uni0305" horiz-adv-x="1124" d="M1094 1547V1404H30V1547H1094Z" />
<glyph unicode="&#x306;" glyph-name="uni0306" horiz-adv-x="0" d="M-1016 1608H-898Q-887 1533 -839 1496T-703 1458Q-617 1458 -569 1495T-508 1608H-390Q-400 1465 -479 1393T-703 1321Q-848 1321 -927 1393T-1016 1608Z" />
<glyph unicode="&#x307;" glyph-name="uni0307" horiz-adv-x="246" d="M30 1556H214V1323H30V1556Z" />
<glyph unicode="&#x308;" glyph-name="uni0308" horiz-adv-x="655" d="M421 1552H624V1350H421V1552ZM30 1552H233V1350H30V1552Z" />
<glyph unicode="&#x309;" glyph-name="hookabovecomb" horiz-adv-x="460" d="M4 1608Q116 1659 221 1659Q325 1659 388 1617T452 1507Q452 1446 364 1381L320 1349Q285 1323 281 1314Q274 1298 274 1266H155V1278Q155 1318 170 1345T236 1409L281 1443Q327 1477
327 1517Q327 1538 296 1556T194 1574Q104 1574 4 1522V1608Z" />
<glyph unicode="&#x30a;" glyph-name="uni030A" horiz-adv-x="0" d="M-584 1524Q-584 1587 -628 1631T-736 1675Q-801 1675 -844 1632T-888 1524Q-888 1459 -845 1416T-736 1372Q-672 1372 -628 1416T-584 1524ZM-462 1524Q-462 1409 -541 1329T-736 1249Q-851
1249 -930 1329T-1010 1524Q-1010 1639 -931 1718T-736 1798Q-621 1798 -542 1719T-462 1524Z" />
<glyph unicode="&#x30b;" glyph-name="uni030B" horiz-adv-x="0" d="M-485 1638H-307L-555 1262H-690L-485 1638ZM-819 1638H-649L-872 1262H-1009L-819 1638Z" />
<glyph unicode="&#x30c;" glyph-name="uni030C" horiz-adv-x="646" d="M249 1262L4 1638H143L323 1393L503 1638H642L397 1262H249Z" />
<glyph unicode="&#x30d;" glyph-name="uni030D" horiz-adv-x="199" d="M166 1704V1260H30V1704H166Z" />
<glyph unicode="&#x30e;" glyph-name="uni030E" horiz-adv-x="0" d="M-37 1704V1260H-173V1704H-37ZM370 1704V1260H234V1704H370Z" />
<glyph unicode="&#x30f;" glyph-name="uni030F" horiz-adv-x="718" d="M184 1638L389 1262H254L6 1638H184ZM518 1638L708 1262H571L348 1638H518Z" />
<glyph unicode="&#x310;" glyph-name="uni0310" horiz-adv-x="0" d="M30 1878H214V1645H30V1878ZM-1016 1608H-898Q-887 1533 -839 1496T-703 1458Q-617 1458 -569 1495T-508 1608H-390Q-400 1465 -479 1393T-703 1321Q-848 1321 -927 1393T-1016 1608Z" />
<glyph unicode="&#x311;" glyph-name="uni0311" horiz-adv-x="656" d="M641 1321H523Q512 1396 464 1433T328 1471Q242 1471 194 1434T133 1321H15Q25 1464 104 1536T328 1608T552 1536T641 1321Z" />
<glyph unicode="&#x312;" glyph-name="uni0312" horiz-adv-x="303" d="M212 1001H1L165 1320H294L212 1001Z" />
<glyph unicode="&#x313;" glyph-name="uni0313" horiz-adv-x="290" d="M272 1475Q272 1218 30 1218V1341Q142 1338 142 1475H30V1729H272V1475Z" />
<glyph unicode="&#x314;" glyph-name="uni0314" horiz-adv-x="272" d="M17 1475V1729H258V1475H147Q147 1338 259 1341V1218Q17 1218 17 1475Z" />
<glyph unicode="&#x315;" glyph-name="uni0315" horiz-adv-x="284" d="M82 1554H281L164 1178H11L82 1554Z" />
<glyph unicode="&#x316;" glyph-name="uni0316" horiz-adv-x="0" d="M-828 -170L-546 -544H-699L-1025 -170H-828Z" />
<glyph unicode="&#x317;" glyph-name="uni0317" horiz-adv-x="0" d="M-745 -170H-546L-872 -546H-1025L-745 -170Z" />
<glyph unicode="&#x318;" glyph-name="uni0318" horiz-adv-x="311" d="M160 -331H0V-211H160V-50H280V-492H160V-331Z" />
<glyph unicode="&#x319;" glyph-name="uni0319" horiz-adv-x="310" d="M30 -50H150V-211H310V-331H150V-492H30V-50Z" />
<glyph unicode="&#x31a;" glyph-name="uni031A" horiz-adv-x="521" d="M354 1768H0V1904H490V1414H354V1768Z" />
<glyph unicode="&#x31b;" glyph-name="uni031B" horiz-adv-x="417" d="M0 983V1102Q61 1057 105 1036T180 1014Q226 1014 249 1041T272 1123Q272 1155 265 1186T242 1248H375Q385 1210 390 1176T395 1112Q395 990 352 933T215 875Q167 875 115 901T0 983Z" />
<glyph unicode="&#x31c;" glyph-name="uni031C" horiz-adv-x="237" d="M219 -494Q129 -494 67 -432T5 -279Q5 -190 67 -128T219 -66V-186Q179 -186 153 -212T126 -278Q126 -318 152 -344T219 -371V-494Z" />
<glyph unicode="&#x31d;" glyph-name="uni031D" horiz-adv-x="508" d="M322 -356H499V-492H9V-356H186V-179H322V-356Z" />
<glyph unicode="&#x31e;" glyph-name="uni031E" horiz-adv-x="506" d="M185 -315H8V-179H498V-315H321V-492H185V-315Z" />
<glyph unicode="&#x31f;" glyph-name="uni031F" horiz-adv-x="442" d="M161 -331H1V-211H161V-50H281V-211H441V-331H281V-492H161V-331Z" />
<glyph unicode="&#x320;" glyph-name="uni0320" horiz-adv-x="551" d="M30 -376V-240H520V-376H30Z" />
<glyph unicode="&#x321;" glyph-name="uni0321" horiz-adv-x="618" d="M598 128V-20Q598 -234 516 -330Q435 -426 254 -426H0V-270H233Q338 -270 376 -222Q414 -173 414 -20V128H598Z" />
<glyph unicode="&#x322;" glyph-name="uni0322" horiz-adv-x="617" d="M19 128H203V-20Q203 -173 241 -222Q279 -270 384 -270H617V-426H363Q182 -426 101 -330Q19 -234 19 -20V128Z" />
<glyph unicode="&#x323;" glyph-name="dotbelowcomb" horiz-adv-x="246" d="M30 -141H214V-375H30V-141Z" />
</font>
</defs>
</svg>
