<?xml version="1.0"?>
<svg xmlns="http://www.w3.org/2000/svg" xmlns:xlink="http://www.w3.org/1999/xlink" xmlns:svgjs="http://svgjs.com/svgjs" version="1.1" width="512" height="512" x="0" y="0" viewBox="0 0 48 48" style="enable-background:new 0 0 512 512" xml:space="preserve" class=""><g><g xmlns="http://www.w3.org/2000/svg" id="Math"><path d="m21 5c0 12.83.19 12.73-.52 14a4 4 0 0 1 -3.48 2h-12a4 4 0 0 1 -4-4v-12a4 4 0 0 1 4-4h12a4 4 0 0 1 4 4z" fill="#6fabe6" data-original="#6fabe6" class=""/><path d="m21 5c0 14.42.25 13.27-.95 14a16 16 0 0 1 -16.05-16 4.09 4.09 0 0 1 .35-1.64l.65-.36h12a4 4 0 0 1 4 4z" fill="#6fabe6" data-original="#82bcf4" class=""/><path d="m47 5c0 12.83.19 12.73-.52 14a4 4 0 0 1 -3.48 2h-12a4 4 0 0 1 -4-4v-12a4 4 0 0 1 4-4h12a4 4 0 0 1 4 4z" fill="#ffde76" data-original="#ffcc66" class=""/><path d="m47 5c0 14.42.25 13.27-1 14a16 16 0 0 1 -16-16 4.09 4.09 0 0 1 .35-1.64l.65-.36h12a4 4 0 0 1 4 4z" fill="#ffde76" data-original="#ffde76" class=""/><path d="m21 31c0 12.83.19 12.73-.52 14a4 4 0 0 1 -3.48 2h-12a4 4 0 0 1 -4-4v-12a4 4 0 0 1 4-4h12a4 4 0 0 1 4 4z" fill="#f26674" data-original="#db5669" class=""/><path d="m21 31c0 14.42.25 13.27-.95 14a16 16 0 0 1 -16.05-16 4.09 4.09 0 0 1 .35-1.64l.65-.36h12a4 4 0 0 1 4 4z" fill="#f26674" data-original="#f26674" class=""/><path d="m47 31c0 12.83.19 12.73-.52 14a4 4 0 0 1 -3.48 2h-12a4 4 0 0 1 -4-4v-12a4 4 0 0 1 4-4h12a4 4 0 0 1 4 4z" fill="#9dcc6b" data-original="#84b749" class=""/><path d="m47 31c0 14.42.25 13.27-1 14a16 16 0 0 1 -16-16 4.09 4.09 0 0 1 .35-1.64l.65-.36h12a4 4 0 0 1 4 4z" fill="#9dcc6b" data-original="#9dcc6b" class=""/><g fill="#edebf2"><path d="m16 9h-3v-3a1 1 0 0 0 -1-1h-2a1 1 0 0 0 -1 1v3h-3a1 1 0 0 0 -1 1v2a1 1 0 0 0 1 1h3v3a1 1 0 0 0 1 1h2a1 1 0 0 0 1-1v-3h3a1 1 0 0 0 1-1v-2a1 1 0 0 0 -1-1z" fill="#edebf2" data-original="#edebf2" class=""/><path d="m16 39.12-2.17-2.12 2.17-2.12a1 1 0 0 0 0-1.42l-1.41-1.41a1 1 0 0 0 -1.42 0l-2.17 2.12-2.12-2.12a1 1 0 0 0 -1.42 0l-1.41 1.41a1 1 0 0 0 0 1.42l2.12 2.12-2.12 2.12a1 1 0 0 0 0 1.42l1.41 1.46a1 1 0 0 0 1.42 0l2.12-2.17 2.12 2.17a1 1 0 0 0 1.42 0l1.46-1.46a1 1 0 0 0 0-1.42z" fill="#edebf2" data-original="#edebf2" class=""/><rect height="12" rx="1" transform="matrix(0 1 -1 0 48 -26)" width="4" x="35" y="5" fill="#edebf2" data-original="#edebf2" class=""/><circle cx="37" cy="33" r="2" fill="#edebf2" data-original="#edebf2" class=""/><circle cx="37" cy="41" r="2" fill="#edebf2" data-original="#edebf2" class=""/></g></g></g></svg>
