<?xml version="1.0"?>
<svg xmlns="http://www.w3.org/2000/svg" xmlns:xlink="http://www.w3.org/1999/xlink" xmlns:svgjs="http://svgjs.com/svgjs" version="1.1" width="512" height="512" x="0" y="0" viewBox="0 0 512 512" style="enable-background:new 0 0 512 512" xml:space="preserve" class=""><g>
<circle xmlns="http://www.w3.org/2000/svg" style="" cx="256" cy="256" r="256" fill="#ff0000" data-original="#ffd400" class=""/>
<path xmlns="http://www.w3.org/2000/svg" style="" d="M511.686,268.679L406.033,163.026l-6.712,4.529L308.32,75L75,330.097l181.891,181.891  C393.617,511.521,505.091,403.879,511.686,268.679z" fill="#ff0000" data-original="#ff9f00" class=""/>
<polygon xmlns="http://www.w3.org/2000/svg" style="" points="203.114,229.628 201.629,256.142 199.72,292.412 166.985,330.097 75,330.097 75,181.904   166.773,181.904 166.985,181.691 " fill="#000000" data-original="#444444" class=""/>
<polygon xmlns="http://www.w3.org/2000/svg" style="" points="201.629,256.142 199.72,292.412 166.985,330.097 75,330.097 75,256.142 " fill="#060606" data-original="#292929" class=""/>
<g xmlns="http://www.w3.org/2000/svg">
	<path style="" d="M352.156,256.142c0,13.575-4.03,27.149-11.878,38.815l-17.816-11.666   c5.515-8.271,8.273-17.816,8.273-27.149c0-9.333-2.758-18.878-8.273-27.151l17.816-11.666   C348.126,228.991,352.156,242.567,352.156,256.142z" fill="#00abe9" data-original="#00abe9" class=""/>
	<path style="" d="M437,256.142c0,29.907-8.908,59.815-26.301,85.904l-4.666,7.212l-17.605-11.879l4.666-6.999   c15.06-22.484,22.696-48.362,22.696-74.238c0-25.878-7.636-51.755-22.696-74.238l-4.666-7l17.605-11.878l4.666,7.212   C428.092,196.327,437,226.234,437,256.142z" fill="#00abe9" data-original="#00abe9" class=""/>
	<path style="" d="M394.367,256.142c0,21.634-6.152,43.27-18.878,62.36l-4.667,7.211l-17.816-11.878l4.878-6.999   c10.181-15.485,15.273-33.09,15.273-50.694c0-17.605-5.092-35.211-15.273-50.694l-4.878-7l17.816-11.878l4.667,7.212   C388.215,212.871,394.367,234.506,394.367,256.142z" fill="#00abe9" data-original="#00abe9" class=""/>
</g>
<polygon xmlns="http://www.w3.org/2000/svg" style="" points="308.32,75 308.32,437 166.985,330.097 166.985,181.691 " fill="#000000" data-original="#5a5a5a" class=""/>
<polygon xmlns="http://www.w3.org/2000/svg" style="" points="166.985,256.142 308.32,256.142 308.32,437 166.985,330.097 " fill="#000000" data-original="#444444" class=""/>
<g xmlns="http://www.w3.org/2000/svg">
	<path style="" d="M330.734,256.142h21.422c0,13.575-4.03,27.149-11.878,38.815l-17.816-11.666   C327.977,275.02,330.734,265.475,330.734,256.142z" fill="#0095ff" data-original="#0095ff" class=""/>
	<path style="" d="M394.367,256.142c0,21.634-6.152,43.27-18.878,62.36l-4.667,7.211l-17.816-11.878l4.878-6.999   c10.181-15.485,15.273-33.09,15.273-50.694L394.367,256.142L394.367,256.142z" fill="#0095ff" data-original="#0095ff" class=""/>
	<path style="" d="M437,256.142c0,29.907-8.908,59.815-26.301,85.904l-4.666,7.212l-17.605-11.879l4.666-6.999   c15.06-22.484,22.696-48.362,22.696-74.238H437z" fill="#0095ff" data-original="#0095ff" class=""/>
</g>
<g xmlns="http://www.w3.org/2000/svg">
</g>
<g xmlns="http://www.w3.org/2000/svg">
</g>
<g xmlns="http://www.w3.org/2000/svg">
</g>
<g xmlns="http://www.w3.org/2000/svg">
</g>
<g xmlns="http://www.w3.org/2000/svg">
</g>
<g xmlns="http://www.w3.org/2000/svg">
</g>
<g xmlns="http://www.w3.org/2000/svg">
</g>
<g xmlns="http://www.w3.org/2000/svg">
</g>
<g xmlns="http://www.w3.org/2000/svg">
</g>
<g xmlns="http://www.w3.org/2000/svg">
</g>
<g xmlns="http://www.w3.org/2000/svg">
</g>
<g xmlns="http://www.w3.org/2000/svg">
</g>
<g xmlns="http://www.w3.org/2000/svg">
</g>
<g xmlns="http://www.w3.org/2000/svg">
</g>
<g xmlns="http://www.w3.org/2000/svg">
</g>
</g></svg>
