/* XPM */
static char * exe16_xpm[] = {
"16 16 78 1",
" 	c None",
".	c #272521",
"+	c #272621",
"@	c #3B4329",
"#	c #3C442A",
"$	c #3C4529",
"%	c #3C452A",
"&	c #49572F",
"*	c #4A5A2F",
"=	c #4C5B30",
"-	c #4D5D30",
";	c #536134",
">	c #516332",
",	c #536234",
"'	c #526432",
")	c #546334",
"!	c #536733",
"~	c #546733",
"{	c #546934",
"]	c #5D6346",
"^	c #586935",
"/	c #596A36",
"(	c #5C7436",
"_	c #5D7637",
":	c #61753A",
"<	c #63773A",
"[	c #6A7B3E",
"}	c #687F3C",
"|	c #6E7A4C",
"1	c #66823B",
"2	c #6F7B4C",
"3	c #6A813D",
"4	c #67843B",
"5	c #6C823D",
"6	c #6B833E",
"7	c #748745",
"8	c #6F8B3E",
"9	c #6F8B3F",
"0	c #778C44",
"a	c #7B8757",
"b	c #729040",
"c	c #739040",
"d	c #749740",
"e	c #759741",
"f	c #759840",
"g	c #759841",
"h	c #7B9C44",
"i	c #7C9C44",
"j	c #83984D",
"k	c #7D9F44",
"l	c #86A249",
"m	c #86A349",
"n	c #85A448",
"o	c #85A548",
"p	c #87A749",
"q	c #89A64B",
"r	c #8FAD4D",
"s	c #90AE4E",
"t	c #93B351",
"u	c #97B553",
"v	c #98B456",
"w	c #98B653",
"x	c #9AB75D",
"y	c #9AB75E",
"z	c #9AB954",
"A	c #9DB762",
"B	c #A1B570",
"C	c #A1B670",
"D	c #9FBA64",
"E	c #A1BB68",
"F	c #A6C65C",
"G	c #ACC374",
"H	c #ADC475",
"I	c #AFC777",
"J	c #B7D07D",
"K	c #B8D07D",
"L	c #BDD67F",
"M	c #BDD680",
"                ",
"      ]aa]      ",
"    2CKMLJB|    ",
"   [AIHGGHIA[   ",
"   mtyDEEDxtl   ",
"  }3:^,;;)/<63  ",
" +$*{_'~~>(!&@. ",
" %4ffe=--=gfd1# ",
"  8kihcbbchik9  ",
"  5pnoooooonp5  ",
"   qsrrrrrrsq   ",
"   0uzwwwwzu0   ",
"    7vFFFFv7    ",
"       jj       ",
"                ",
"                "};
