<svg xmlns="http://www.w3.org/2000/svg" version="1.1" xmlns:xlink="http://www.w3.org/1999/xlink" xmlns:svgjs="http://svgjs.com/svgjs" width="512" height="512" x="0" y="0" viewBox="0 0 512 512" style="enable-background:new 0 0 512 512" xml:space="preserve" class=""><g><g><path d="m232.786 248.274h-42.275v-111.431c0-4.267-3.459-7.726-7.726-7.726h-31.973v-51.853c0-4.267-3.459-7.726-7.726-7.726h-50.002c-4.267 0-7.726 3.459-7.726 7.726s3.459 7.726 7.726 7.726h42.275v103.705h-42.275c-4.267 0-7.726 3.459-7.726 7.726s3.459 7.726 7.726 7.726h50.002c4.267 0 7.726-3.459 7.726-7.726v-51.852h24.246v222.862h-24.246v-51.852c0-4.267-3.459-7.726-7.726-7.726h-50.002c-4.267 0-7.726 3.459-7.726 7.726s3.459 7.726 7.726 7.726h42.275v103.705h-42.275c-4.267 0-7.726 3.459-7.726 7.726s3.459 7.726 7.726 7.726h50.002c4.267 0 7.726-3.459 7.726-7.726v-51.853h31.973c4.267 0 7.726-3.459 7.726-7.726v-111.431h42.275c4.267 0 7.726-3.459 7.726-7.726s-3.459-7.726-7.726-7.726z" fill="#888989" data-original="#e7ecf1" class=""/><path d="m279.214 248.274h42.275v-111.431c0-4.267 3.459-7.726 7.726-7.726h31.973v-51.853c0-4.267 3.459-7.726 7.726-7.726h50.001c4.267 0 7.726 3.459 7.726 7.726s-3.459 7.726-7.726 7.726h-42.275v103.705h42.275c4.267 0 7.726 3.459 7.726 7.726s-3.459 7.726-7.726 7.726h-50.001c-4.267 0-7.726-3.459-7.726-7.726v-51.852h-24.246v222.862h24.246v-51.852c0-4.267 3.459-7.726 7.726-7.726h50.001c4.267 0 7.726 3.459 7.726 7.726s-3.459 7.726-7.726 7.726h-42.275v103.705h42.275c4.267 0 7.726 3.459 7.726 7.726s-3.459 7.726-7.726 7.726h-50.001c-4.267 0-7.726-3.459-7.726-7.726v-51.853h-31.973c-4.267 0-7.726-3.459-7.726-7.726v-111.431h-42.275c-4.267 0-7.726-3.459-7.726-7.726s3.459-7.726 7.726-7.726z" fill="#888989" data-original="#e7ecf1" class=""/><g><path d="m222.484 269.117c0 8.204 15.006 14.854 33.516 14.854s33.516-6.65 33.516-14.854v-26.234c0 8.204-67.032 8.204-67.032 0z" fill="#9721c9" data-original="#756e78" class=""/></g><g><path d="m415.271 101.716h90.073c3.676 0 6.657-2.98 6.657-6.657v-35.591c0-3.676-2.98-6.657-6.657-6.657h-90.073c-3.676 0-6.657 2.98-6.657 6.657v35.592c0 3.676 2.98 6.656 6.657 6.656z" fill="#b3092f" data-original="#dd636e" class=""/></g><g><path d="m415.271 220.874h90.073c3.676 0 6.657-2.98 6.657-6.657v-35.592c0-3.676-2.98-6.657-6.657-6.657h-90.073c-3.676 0-6.657 2.98-6.657 6.657v35.592c0 3.677 2.98 6.657 6.657 6.657z" fill="#5877c6" data-original="#4073c8" class=""/></g><g><path d="m415.271 340.031h90.073c3.676 0 6.657-2.98 6.657-6.657v-35.592c0-3.676-2.98-6.657-6.657-6.657h-90.073c-3.676 0-6.657 2.98-6.657 6.657v35.592c0 3.677 2.98 6.657 6.657 6.657z" fill="#00a300" data-original="#95d6a4" class=""/></g><g><path d="m415.271 459.189h90.073c3.676 0 6.657-2.98 6.657-6.657v-35.592c0-3.676-2.98-6.657-6.657-6.657h-90.073c-3.676 0-6.657 2.98-6.657 6.657v35.592c0 3.677 2.98 6.657 6.657 6.657z" fill="#f3d55a" data-original="#ffe07d" class=""/></g><g><path d="m96.729 101.716h-90.072c-3.677 0-6.657-2.98-6.657-6.656v-35.592c0-3.676 2.98-6.657 6.657-6.657h90.073c3.676 0 6.657 2.98 6.657 6.657v35.592c-.001 3.676-2.981 6.656-6.658 6.656z" fill="#5877c6" data-original="#4073c8" class=""/></g><g><path d="m96.729 220.874h-90.072c-3.676 0-6.657-2.98-6.657-6.657v-35.592c0-3.676 2.98-6.657 6.657-6.657h90.073c3.676 0 6.657 2.98 6.657 6.657v35.592c-.001 3.677-2.981 6.657-6.658 6.657z" fill="#00a300" data-original="#95d6a4" class=""/></g><g><path d="m96.729 340.031h-90.072c-3.676 0-6.657-2.98-6.657-6.657v-35.592c0-3.676 2.98-6.657 6.657-6.657h90.073c3.676 0 6.657 2.98 6.657 6.657v35.592c-.001 3.677-2.981 6.657-6.658 6.657z" fill="#f3d55a" data-original="#ffe07d" class=""/></g><g><path d="m96.729 459.189h-90.072c-3.676 0-6.657-2.98-6.657-6.657v-35.592c0-3.676 2.98-6.657 6.657-6.657h90.073c3.676 0 6.657 2.98 6.657 6.657v35.592c-.001 3.677-2.981 6.657-6.658 6.657z" fill="#b3092f" data-original="#dd636e" class=""/></g><g><ellipse cx="256" cy="242.883" fill="#b975cd" rx="33.516" ry="14.854" data-original="#8b818e" class=""/></g></g></g></svg>