<svg xmlns="http://www.w3.org/2000/svg" version="1.1" xmlns:xlink="http://www.w3.org/1999/xlink" xmlns:svgjs="http://svgjs.com/svgjs" width="512" height="512" x="0" y="0" viewBox="0 0 497 497" style="enable-background:new 0 0 512 512" xml:space="preserve" class=""><g><g><path d="m432.514 177.186h-176.514v-66.395c0-4.142-3.358-7.5-7.5-7.5s-7.5 3.358-7.5 7.5v66.395h-176.514c-9.875 0-17.908 8.033-17.908 17.908v208.052c0 4.142 3.358 7.5 7.5 7.5s7.5-3.358 7.5-7.5v-208.053c0-1.603 1.304-2.908 2.908-2.908h368.028c1.604 0 2.908 1.304 2.908 2.908v129.881h-176.514c-9.875 0-17.908 8.033-17.908 17.908v60.263c0 4.142 3.358 7.5 7.5 7.5s7.5-3.358 7.5-7.5v-60.263c0-1.603 1.304-2.908 2.908-2.908h176.514v66.395c0 4.142 3.358 7.5 7.5 7.5s7.5-3.358 7.5-7.5v-211.276c0-9.874-8.033-17.907-17.908-17.907z" fill="#4c4c48" data-original="#fece85" class=""></path><path d="m277.578 443.317h-78.157c-2.761 0-5-2.238-5-5v-63.895c0-2.761 2.239-5 5-5h78.157c2.761 0 5 2.239 5 5v63.895c0 2.762-2.238 5-5 5z" fill="#55bdb7" data-original="#6cf5c2" class=""></path><path d="m83.157 443.317h-78.157c-2.761 0-5-2.238-5-5v-63.895c0-2.761 2.239-5 5-5h78.157c2.761 0 5 2.239 5 5v63.895c0 2.762-2.239 5-5 5z" fill="#55bdb7" data-original="#6cf5c2" class=""></path><path d="m472 443.317h-78.157c-2.761 0-5-2.238-5-5v-63.895c0-2.761 2.239-5 5-5h78.157c2.761 0 5 2.239 5 5v63.895c0 2.762-2.239 5-5 5z" fill="#55bdb7" data-original="#6cf5c2" class=""></path><path d="m472 295.528h-78.157c-2.761 0-5-2.238-5-5v-63.895c0-2.761 2.239-5 5-5h78.157c2.761 0 5 2.239 5 5v63.895c0 2.761-2.239 5-5 5z" fill="#55bdb7" data-original="#6cf5c2" class=""></path><path d="m497 226.63v63.9c0 2.76-2.24 5-5 5h-25.16c2.76 0 5-2.24 5-5v-63.9c0-2.76-2.24-5-5-5h25.16c2.76 0 5 2.24 5 5z" fill="#55bdb7" data-original="#05e39c" class=""></path><path d="m497 374.42v63.9c0 2.76-2.24 5-5 5h-25.16c2.76 0 5-2.24 5-5v-63.9c0-2.76-2.24-5-5-5h25.16c2.76 0 5 2.24 5 5z" fill="#55bdb7" data-original="#05e39c" class=""></path><path d="m302.578 374.42v63.9c0 2.76-2.24 5-5 5h-25.16c2.76 0 5-2.24 5-5v-63.9c0-2.76-2.24-5-5-5h25.16c2.76 0 5 2.24 5 5z" fill="#55bdb7" data-original="#05e39c" class=""></path><path d="m83.157 295.528h-78.157c-2.761 0-5-2.238-5-5v-63.895c0-2.761 2.239-5 5-5h78.157c2.761 0 5 2.239 5 5v63.895c0 2.761-2.239 5-5 5z" fill="#55bdb7" data-original="#6cf5c2" class=""></path><path d="m108.157 374.42v63.9c0 2.76-2.24 5-5 5h-25.16c2.76 0 5-2.24 5-5v-63.9c0-2.76-2.24-5-5-5h25.16c2.76 0 5 2.24 5 5z" fill="#55bdb7" data-original="#05e39c" class=""></path><path d="m108.157 226.63v63.9c0 2.76-2.24 5-5 5h-25.16c2.76 0 5-2.24 5-5v-63.9c0-2.76-2.24-5-5-5h25.16c2.76 0 5 2.24 5 5z" fill="#55bdb7" data-original="#05e39c" class=""></path><g fill="#f2fbff"><path d="m464.343 266.08h-42.843c-4.142 0-7.5-3.358-7.5-7.5s3.358-7.5 7.5-7.5h42.842c4.142 0 7.5 3.358 7.5 7.5.001 4.142-3.357 7.5-7.499 7.5z" fill="#ffffff" data-original="#f2fbff" class=""></path><path d="m75.499 266.08h-42.842c-4.142 0-7.5-3.358-7.5-7.5s3.358-7.5 7.5-7.5h42.842c4.142 0 7.5 3.358 7.5 7.5s-3.357 7.5-7.5 7.5z" fill="#ffffff" data-original="#f2fbff" class=""></path><path d="m464.343 410.646h-42.843c-4.142 0-7.5-3.358-7.5-7.5s3.358-7.5 7.5-7.5h42.842c4.142 0 7.5 3.358 7.5 7.5.001 4.142-3.357 7.5-7.499 7.5z" fill="#ffffff" data-original="#f2fbff" class=""></path><path d="m75.499 410.646h-42.842c-4.142 0-7.5-3.358-7.5-7.5s3.358-7.5 7.5-7.5h42.842c4.142 0 7.5 3.358 7.5 7.5s-3.357 7.5-7.5 7.5z" fill="#ffffff" data-original="#f2fbff" class=""></path><path d="m269.921 410.646h-42.843c-4.142 0-7.5-3.358-7.5-7.5s3.358-7.5 7.5-7.5h42.843c4.142 0 7.5 3.358 7.5 7.5s-3.357 7.5-7.5 7.5z" fill="#ffffff" data-original="#f2fbff" class=""></path></g><path d="m173.683 53.682h132.474c2.762 0 5 2.239 5 5v74.636c0 2.761-2.238 5-5 5h-132.474c-2.761 0-5-2.239-5-5v-74.636c0-2.761 2.239-5 5-5z" fill="#ef008f" data-original="#fe93d3" class=""></path><path d="m329.16 58.68v74.64c0 2.76-2.24 5-5 5h-21.22c2.77 0 5-2.24 5-5v-74.64c0-2.76-2.23-5-5-5h21.22c2.76 0 5 2.24 5 5z" fill="#f90094" data-original="#fe4fb7" class=""></path><path d="m300.444 90.626h-100.838c-4.142 0-7.5-3.358-7.5-7.5s3.358-7.5 7.5-7.5h100.838c4.142 0 7.5 3.358 7.5 7.5s-3.358 7.5-7.5 7.5z" fill="#ffffff" data-original="#f2fbff" class=""></path><path d="m250.025 116.374h-50.419c-4.142 0-7.5-3.358-7.5-7.5s3.358-7.5 7.5-7.5h50.419c4.142 0 7.5 3.358 7.5 7.5s-3.358 7.5-7.5 7.5z" fill="#ffffff" data-original="#f2fbff" class=""></path></g></g></svg>