<svg xmlns="http://www.w3.org/2000/svg" version="1.1" xmlns:xlink="http://www.w3.org/1999/xlink" xmlns:svgjs="http://svgjs.com/svgjs" width="512" height="512" x="0" y="0" viewBox="0 0 128 128" style="enable-background:new 0 0 512 512" xml:space="preserve" class=""><g transform="matrix(1,0,0,1,0,7.105427357601002e-15)"><g><g fill="#fff1b6"><path d="m111.061 86.171h-10.75v-14.548a1.75 1.75 0 0 0 -3.5 0v14.548h-10.751a5.757 5.757 0 0 0 -5.75 5.75v12.446a1.75 1.75 0 1 0 3.5 0v-12.446a2.253 2.253 0 0 1 2.25-2.25h25a2.252 2.252 0 0 1 2.25 2.25v12.446a1.75 1.75 0 0 0 3.5 0v-12.446a5.757 5.757 0 0 0 -5.749-5.75z" fill="#313232" data-original="#fff1b6" class=""></path><path d="m41.2 86.171h-10.751v-14.548a1.75 1.75 0 0 0 -3.5 0v14.548h-10.749a5.757 5.757 0 0 0 -5.75 5.75v12.446a1.75 1.75 0 0 0 3.5 0v-12.446a2.253 2.253 0 0 1 2.25-2.25h25a2.253 2.253 0 0 1 2.25 2.25v12.446a1.75 1.75 0 0 0 3.5 0v-12.446a5.757 5.757 0 0 0 -5.75-5.75z" fill="#313232" data-original="#fff1b6" class=""></path><path d="m96.811 42.929v13.025a1.75 1.75 0 1 0 3.5 0v-13.025a5.757 5.757 0 0 0 -5.75-5.75h-29.18v-13.546a1.75 1.75 0 1 0 -3.5 0v13.546h-29.181a5.757 5.757 0 0 0 -5.75 5.75v13.025a1.75 1.75 0 0 0 3.5 0v-13.025a2.253 2.253 0 0 1 2.25-2.25h61.861a2.253 2.253 0 0 1 2.25 2.25z" fill="#313232" data-original="#fff1b6" class=""></path></g><path d="m1.75 104.367h22.376v15.669h-22.376z" fill="#f3d55a" data-original="#ffde55" class=""></path><path d="m34.752 104.367h22.376v15.669h-22.376z" fill="#b3092f" data-original="#6c83e5" class=""></path><path d="m17.512 55.954h22.376v15.669h-22.376z" fill="#b3092f" data-original="#6c83e5" class=""></path><path d="m87.373 55.954h22.376v15.669h-22.376z" fill="#55bdb7" data-original="#603256" class=""></path><path d="m52.442 7.964h22.376v15.669h-22.376z" fill="#b3092f" data-original="#6c83e5" class=""></path><path d="m70.872 104.367h22.376v15.669h-22.376z" fill="#5877c6" data-original="#00cc76" class=""></path><path d="m103.874 104.367h22.376v15.669h-22.376z" fill="#55bdb7" data-original="#603256" class=""></path></g></g></svg>