<svg xmlns="http://www.w3.org/2000/svg" version="1.1" xmlns:xlink="http://www.w3.org/1999/xlink" xmlns:svgjs="http://svgjs.com/svgjs" width="512" height="512" x="0" y="0" viewBox="0 0 510 510" style="enable-background:new 0 0 512 512" xml:space="preserve" class=""><g transform="matrix(-1,-1.2246467991473532e-16,1.2246467991473532e-16,-1,509.99999999999994,510.0000000000001)"><g><path d="m255 180v150l7.417 10 7.583-10 10-75-10-75-6.875-10z" fill="#071717" data-original="#00607f" class=""></path><path d="m285 240v-60l-7.125-10-7.875 10v150l7.833 10 7.167-10v-60h105l10-15-10-15z" fill="#071717" data-original="#00465f" class=""></path><path d="m165 105v-60h-75l-7.5 15 7.5 15h45v90h-45l-6.375 14.375 6.375 15.625h75v-60h45l9.333-16.167-9.333-13.833z" fill="#071717" data-original="#00607f" class=""></path><path d="m510 315h-120v-120h120z" fill="#b3092f" data-original="#ffbf00" class=""></path><path d="m90 105h-90v-90h90z" fill="#00a300" data-original="#b4e814" class=""></path><path d="m90 225h-90v-90h90z" fill="#ff4e00" data-original="#ff6521" class=""></path><path d="m165 375v-60h-75l-7.5 15 7.5 15h45v90h-45l-6.375 14.375 6.375 15.625h75v-60h45l9.333-16.167-9.333-13.833z" fill="#071717" data-original="#00607f" class=""></path><path d="m90 375h-90v-90h90z" fill="#5877c6" data-original="#68cbff" class=""></path><path d="m90 495h-90v-90h90z" fill="#f3d55a" data-original="#ffd900" class=""></path><path d="m210 60v120h60l15-60-15-60z" fill="#5877c6" data-original="#68cbff" class=""></path><path d="m270 60h60v120h-60z" fill="#5877c6" data-original="#5eacff" class=""></path><path d="m210 330v120h60l10-56.332-10-63.668z" fill="#00a300" data-original="#b4e814" class=""></path><path d="m270 330h60v120h-60z" fill="#00a300" data-original="#7cdb00" class=""></path></g></g></svg>