<?xml version="1.0" standalone="no"?> <!DOCTYPE svg PUBLIC "-//W3C//DTD SVG 1.0//EN" "http://www.w3.org/TR/2001/REC-SVG-20010904/DTD/svg10.dtd" > <svg xmlns="http://www.w3.org/2000/svg" width="100%" height="100%">
<defs >
<font horiz-adv-x="737" ><font-face
    font-family="Diwani Letter"
    units-per-em="2048"
    panose-1="0 0 4 0 0 0 0 0 0 0"
    ascent="3122"
    descent="-1020"
    alphabetic="0" />
<missing-glyph horiz-adv-x="1024" d="M128 0V3122H896V0H128ZM256 128H768V2994H256V128Z" />
<glyph unicode="&#xd;" glyph-name="CR" horiz-adv-x="266" />
<glyph unicode=" " glyph-name="space" horiz-adv-x="266" />
<glyph unicode="!" glyph-name="exclam" horiz-adv-x="297" d="M308 887Q308 775 252 641Q194 500 112 431L163 619Q201 647 235 716V738Q235 842 190 894Q164 871 148 839L137 838L135 845Q144 906 174 979Q210 1068 247 1089Q308 1002 308 887ZM225 193Q197
140 132 57L43 118Q63 157 133 260Q160 247 186 235Q216 218 225 193Z" />
<glyph unicode="&quot;" glyph-name="quotedbl" horiz-adv-x="597" d="M819 1119Q819 930 540 733L518 766Q689 878 715 1009Q615 1009 615 1097Q615 1136 657 1169T740 1202Q773 1202 796 1177T819 1119ZM549 1119Q549 930 270 733L248 766Q419 878 445 1009Q345
1009 345 1097Q345 1136 387 1169T470 1202Q503 1202 526 1177T549 1119Z" />
<glyph unicode="#" glyph-name="numbersign" horiz-adv-x="819" d="M842 746L837 682H689L614 407H818L813 342H596L496 -22H431L529 342H258L157 -22H90L190 342H53L58 407H208L282 682H77L82 746H302L400 1110H466L368 746H638L741 1110H807L706 746H842ZM623
682H350L275 407H546L623 682Z" />
<glyph unicode="$" glyph-name="dollar" horiz-adv-x="819" d="M757 1032L740 793H709Q707 1028 494 1049L466 642Q624 527 656 495Q756 396 756 287Q756 155 651 68Q556 -11 419 -22L412 -125H361L368 -22Q225 -16 89 41L105 267H140Q142 51 372 30L404 497Q281
576 231 629Q145 718 145 822Q145 942 238 1020Q321 1088 447 1102L452 1176H503L498 1102Q592 1097 757 1032ZM443 1048Q274 1028 274 881Q274 775 417 676L443 1048ZM626 240Q626 308 568 370Q539 401 453 462L423 30Q510 45 566 97Q626 155 626 240Z" />
<glyph unicode="%" glyph-name="percent" horiz-adv-x="946" d="M572 1047Q572 1004 537 969T459 934Q390 934 390 999Q390 1043 426 1077T507 1112Q572 1112 572 1047ZM1081 1192L214 -133H146L1009 1192H1081ZM851 72Q851 28 817 -4T738 -37Q667 -37 667 25Q667
68 705 101T786 135Q851 135 851 72Z" />
<glyph unicode="&amp;" glyph-name="ampersand" horiz-adv-x="1274" d="M1238 195Q1166 -25 975 -25Q841 -25 705 131Q519 -25 345 -25Q236 -25 160 30Q74 91 74 196Q74 420 434 606Q385 734 385 820Q385 948 470 1029T683 1110Q768 1110 824 1062Q885 1012 885
929Q885 824 789 741Q731 690 601 626Q690 445 790 294Q951 471 951 578Q951 661 883 669L885 698H1221L1219 669Q1155 664 1114 638Q1087 621 975 459Q846 273 825 248Q942 98 1054 98Q1170 98 1210 217L1238 195ZM793 929Q793 981 761 1016T678 1051Q612 1051
569 1004T526 891Q526 823 578 678Q793 776 793 929ZM667 178Q527 388 457 553Q245 436 245 270Q245 185 297 129T435 72Q530 72 667 178Z" />
<glyph unicode="&apos;" glyph-name="quotesingle" horiz-adv-x="295" d="M297 1024Q297 957 262 833Q234 738 207 642H171L148 806Q134 904 134 971Q134 1110 220 1110Q297 1110 297 1024Z" />
<glyph unicode="(" glyph-name="parenleft" horiz-adv-x="569" d="M766 891Q262 494 262 82Q262 -145 418 -387L407 -399Q131 -196 131 90Q131 568 753 903L766 891Z" />
<glyph unicode=")" glyph-name="parenright" horiz-adv-x="569" d="M585 408Q585 215 439 4Q305 -187 125 -298Q104 -311 -46 -399L-55 -387Q173 -192 288 -33Q454 196 454 421Q454 657 289 891L309 903Q585 694 585 408Z" />
<glyph unicode="*" glyph-name="asterisk" horiz-adv-x="680" d="M928 1119Q928 1059 861 1059Q836 1059 685 1090L668 1061Q706 1030 743 999Q792 954 792 924Q792 902 771 883L738 872Q707 872 676 941L640 1041L609 1029Q604 961 598 893Q581 795 526 795Q495
795 495 825Q495 851 585 1029L572 1032L560 1041Q401 871 361 871Q347 871 335 883Q331 898 331 914Q331 942 546 1061Q542 1075 541 1090Q384 1059 356 1059Q309 1059 309 1089Q309 1148 380 1148Q417 1148 548 1115Q554 1129 569 1141Q436 1249 436 1280Q436
1299 455 1316T495 1334Q525 1334 556 1264Q575 1214 593 1164L628 1176Q634 1299 636 1312Q651 1410 703 1410Q722 1410 732 1394L736 1374Q736 1352 650 1172L675 1164Q721 1214 767 1263Q836 1332 869 1332Q901 1332 901 1302Q901 1265 813 1210Q808 1206 687
1141L696 1115Q843 1148 892 1148Q928 1148 928 1119ZM657 1115Q650 1139 629 1139Q614 1139 597 1124T580 1094Q580 1066 608 1066Q650 1066 657 1115Z" />
<glyph unicode="+" glyph-name="plus" horiz-adv-x="946" d="M979 535L957 452H636L549 129H465L552 452H227L249 535H574L662 863H746L658 535H979Z" />
<glyph unicode="," glyph-name="comma" horiz-adv-x="569" d="M516 594Q308 420 308 277Q308 257 317 240Q374 264 397 264Q430 264 452 242T475 186Q475 134 434 95T339 55Q224 55 224 200Q224 328 308 447Q381 551 501 627L516 594Z" />
<glyph unicode="." glyph-name="period" horiz-adv-x="569" d="M420 164Q420 115 386 84T303 53Q235 53 235 117Q235 160 271 195T351 231Q420 231 420 164Z" />
<glyph unicode="/" glyph-name="slash" horiz-adv-x="569" d="M892 1425L92 -139H29L826 1425H892Z" />
<glyph unicode="0" glyph-name="zero" horiz-adv-x="819" d="M801 607Q801 393 709 208Q595 -19 403 -19Q242 -19 159 161Q95 299 95 482Q95 691 189 879Q303 1107 490 1107Q653 1107 737 929Q801 792 801 607ZM649 696Q649 1054 486 1054Q352 1054 290 788Q248
612 248 409Q248 31 409 31Q548 31 610 305Q649 478 649 696Z" />
<glyph unicode="1" glyph-name="one" horiz-adv-x="819" d="M621 30L619 0H211L213 30Q311 32 336 59Q356 82 363 182L406 793Q411 873 411 878Q411 978 355 978Q325 978 271 954L260 978L533 1107H560L496 191Q492 133 492 116Q492 58 529 41Q551 31 621 30Z" />
<glyph unicode="2" glyph-name="two" horiz-adv-x="819" d="M766 209L675 0H35L37 30Q278 236 389 360Q601 598 601 768Q601 859 548 920Q492 985 402 985Q226 985 152 801H122Q150 938 231 1018Q320 1107 453 1107Q572 1107 655 1035Q743 959 743 842Q743 686
543 447Q409 286 214 121H524Q680 121 736 209H766Z" />
<glyph unicode="3" glyph-name="three" horiz-adv-x="819" d="M709 384Q709 199 571 86Q442 -19 254 -19Q71 -19 71 66Q71 90 93 107T139 125Q175 125 244 88T366 50Q458 50 521 122T584 287Q584 410 494 478Q414 538 286 538L288 562Q397 576 473 647Q554 724
554 830Q554 904 508 951T387 998Q262 998 170 866L145 878Q257 1107 454 1107Q550 1107 618 1054Q692 995 692 903Q692 776 526 642Q709 569 709 384Z" />
<glyph unicode="4" glyph-name="four" horiz-adv-x="819" d="M790 400L782 286H637L617 0H485L505 286H46L53 389L606 1107H694L645 400H790ZM550 938L132 400H513L550 938Z" />
<glyph unicode="5" glyph-name="five" horiz-adv-x="819" d="M787 1085L715 949H389L307 803Q478 778 591 685Q722 578 722 417Q722 240 580 109Q442 -19 263 -19Q84 -19 84 87Q84 111 108 128Q129 144 153 144Q184 144 243 104T359 63Q465 63 540 145Q612 224
612 332Q612 496 461 585Q340 657 161 663L398 1085H787Z" />
<glyph unicode="6" glyph-name="six" horiz-adv-x="819" d="M812 1107L810 1078Q438 1041 293 606Q413 685 529 685Q646 685 717 594Q782 511 782 391Q782 233 677 110Q566 -19 410 -19Q261 -19 174 116Q99 232 99 389Q99 676 312 891T812 1107ZM634 319Q634 433
598 511Q549 615 448 615Q388 615 275 547Q247 412 247 342Q247 230 287 141Q338 26 436 26Q536 26 590 127Q634 210 634 319Z" />
<glyph unicode="7" glyph-name="seven" horiz-adv-x="819" d="M822 1085Q822 1071 820 1054L383 -22H294L686 954H388Q222 954 141 819L119 828L241 1085H822Z" />
<glyph unicode="8" glyph-name="eight" horiz-adv-x="819" d="M762 889Q762 746 520 601Q627 513 670 461Q743 371 743 276Q743 144 639 60Q542 -19 407 -19Q290 -19 207 45Q116 115 116 228Q116 384 353 546Q265 622 229 670Q170 749 170 831Q170 955 269 1034Q360
1107 487 1107Q593 1107 673 1052Q762 991 762 889ZM650 900Q650 1061 485 1061Q408 1061 351 1015Q290 966 290 891Q290 815 358 743L484 632Q568 703 600 747Q650 816 650 900ZM626 201Q626 282 539 378Q498 424 388 516Q238 397 238 229Q238 140 286 84Q336
24 423 24Q505 24 563 71Q626 122 626 201Z" />
<glyph unicode="9" glyph-name="nine" horiz-adv-x="819" d="M796 697Q796 507 688 332Q586 166 417 62Q279 -23 85 -22L87 7Q269 10 416 157Q545 286 603 476Q472 395 370 395Q250 395 179 484Q114 566 114 690Q114 850 216 975Q324 1107 481 1107Q632 1107 720
973Q796 857 796 697ZM647 736Q647 851 609 939Q559 1055 459 1055Q358 1055 304 953Q262 871 262 759Q262 648 296 571Q342 468 439 468Q534 468 620 535Q647 665 647 736Z" />
<glyph unicode=":" glyph-name="colon" horiz-adv-x="569" d="M569 736Q569 692 535 657T457 622Q389 622 389 686Q389 729 422 764T499 800Q569 800 569 736ZM416 167Q416 122 382 88T303 53Q236 53 236 118Q236 159 270 195T345 231Q416 231 416 167Z" />
<glyph unicode=";" glyph-name="semicolon" horiz-adv-x="569" d="M593 881Q385 706 385 564Q385 545 394 527Q451 551 474 551Q552 551 552 456Q552 414 506 378T416 342Q302 342 302 495Q302 619 387 737Q461 841 578 914L593 881ZM438 167Q438 122 404 88T325
53Q258 53 258 118Q258 159 292 195T367 231Q438 231 438 167Z" />
<glyph unicode="&lt;" glyph-name="less" horiz-adv-x="924" d="M890 150L30 526V565L890 938V868L150 546L890 222V150Z" />
<glyph unicode="=" glyph-name="equal" horiz-adv-x="875" d="M852 445H46V524H852V445ZM855 205H49V285H855V205Z" />
<glyph unicode="&gt;" glyph-name="greater" horiz-adv-x="924" d="M890 522L30 150V218L771 540L30 865V938L890 562V522Z" />
<glyph unicode="?" glyph-name="question" horiz-adv-x="643" d="M833 973Q833 899 784 831Q730 756 659 756Q592 756 592 823Q592 876 672 929T752 1023Q752 1094 657 1094Q575 1094 519 1034T462 891Q462 859 489 744T516 562Q516 454 457 311H426Q461 434 461
447Q461 480 380 585T299 776Q299 914 408 1024T654 1135Q731 1135 780 1093Q833 1048 833 973ZM475 163Q475 120 441 87T362 53Q291 53 291 119Q291 163 326 197T406 231Q434 231 454 211T475 163Z" />
<glyph unicode="[" glyph-name="bracketleft" horiz-adv-x="569" d="M740 860L726 811H437L138 -299H427L414 -348H17L343 860H740Z" />
<glyph unicode="\" glyph-name="backslash" horiz-adv-x="569" d="M716 -139H653L-147 1425H-81L716 -139Z" />
<glyph unicode="]" glyph-name="bracketright" horiz-adv-x="569" d="M693 860L367 -348H-26L-13 -299H275L574 811H286L300 860H693Z" />
<glyph unicode="{" glyph-name="braceleft" horiz-adv-x="786" d="M752 1138L750 1110Q556 1064 556 901Q556 866 566 797T576 693Q576 586 498 504Q430 432 320 394Q411 360 470 295Q537 222 537 132Q537 83 510 -10T482 -153Q482 -283 650 -326L648 -354Q532
-338 453 -261Q368 -179 368 -65Q368 -16 396 77T424 218Q424 282 369 327Q321 367 253 376L255 409Q338 420 392 467Q450 520 450 600Q450 635 440 703T429 807Q429 936 528 1031Q621 1120 752 1138Z" />
<glyph unicode="|" glyph-name="bar" horiz-adv-x="328" d="M275 1138L170 -354H104L208 1138H275Z" />
<glyph unicode="}" glyph-name="braceright" horiz-adv-x="786" d="M617 409L614 376Q531 365 478 317Q419 265 419 185Q419 150 429 81T440 -23Q440 -151 341 -246Q248 -336 117 -354L119 -326Q313 -278 313 -117Q313 -82 303 -13T293 92Q293 199 371 281Q439
352 550 390Q458 425 399 490Q332 563 332 653Q332 702 360 795T388 938Q388 1069 219 1110L221 1138Q337 1122 417 1045Q501 963 501 850Q501 801 474 708T446 567Q446 502 500 458Q548 418 617 409Z" />
<glyph unicode="&#xab;" glyph-name="quotedblleft" horiz-adv-x="569" d="M842 1169Q672 1046 645 926Q745 926 745 837Q745 798 703 766T620 733Q540 733 540 823Q540 1005 820 1202L842 1169ZM572 1169Q402 1046 375 926Q475 926 475 837Q475 798 433 766T350
733Q270 733 270 823Q270 1005 550 1202L572 1169Z" />
<glyph unicode="&#xb7;" glyph-name="quotedblright" horiz-adv-x="569" d="M819 1119Q819 930 540 733L518 766Q689 878 715 1009Q615 1009 615 1097Q615 1136 657 1169T740 1202Q773 1202 796 1177T819 1119ZM549 1119Q549 930 270 733L248 766Q419 878 445
1009Q345 1009 345 1097Q345 1136 387 1169T470 1202Q503 1202 526 1177T549 1119Z" />
<glyph unicode="&#xbb;" glyph-name="bullet" horiz-adv-x="915" d="M710 938Q710 864 656 810T528 756Q462 756 416 801T369 914Q369 987 423 1041T552 1096Q618 1096 664 1050T710 938Z" />
<glyph unicode="&#xd7;" glyph-name="guillemotleft" horiz-adv-x="834" d="M988 803L636 410L781 10H728L495 410L941 803H988ZM687 803L335 410L474 10H425L194 410L640 803H687Z" />
<glyph unicode="&#xf7;" glyph-name="guillemotright" horiz-adv-x="834" d="M869 399L427 10H378L728 399L583 803H628L869 399ZM566 399L126 10H77L424 399L282 803H327L566 399Z" />
<glyph unicode="&#x60c;" glyph-name="uni060C" horiz-adv-x="569" d="M516 594Q308 420 308 277Q308 257 317 240Q374 264 397 264Q430 264 452 242T475 186Q475 134 434 95T339 55Q224 55 224 200Q224 328 308 447Q381 551 501 627L516 594Z" />
<glyph unicode="&#x61b;" glyph-name="uni061B" horiz-adv-x="569" d="M593 881Q385 706 385 564Q385 545 394 527Q451 551 474 551Q552 551 552 456Q552 414 506 378T416 342Q302 342 302 495Q302 619 387 737Q461 841 578 914L593 881ZM438 167Q438 122 404
88T325 53Q258 53 258 118Q258 159 292 195T367 231Q438 231 438 167Z" />
<glyph unicode="&#x61f;" glyph-name="uni061F" horiz-adv-x="643" d="M833 973Q833 899 783 831Q730 756 659 756Q592 756 592 823Q592 876 672 929T752 1023Q752 1094 657 1094Q574 1094 518 1034T462 891L501 719Q516 652 516 562Q516 454 457 311H426L448
378Q461 419 461 447Q461 480 380 585T299 776Q299 914 408 1024T654 1135Q731 1135 780 1093Q833 1048 833 973ZM475 163Q475 120 441 87T362 53Q291 53 291 119Q291 162 326 196T406 231Q434 231 454 211T475 163Z" />
<glyph unicode="&#x621;" glyph-name="uni0621" horiz-adv-x="504" d="M624 922Q624 836 482 745Q453 726 377 659Q374 652 374 647Q374 630 422 630Q446 630 491 645T561 661Q584 661 584 636Q584 618 513 495Q446 379 367 331Q323 304 162 251Q146 259 172 277Q229
308 340 372Q432 428 478 505Q397 473 363 473Q259 473 259 520Q259 614 397 754Q508 866 621 933Q623 929 624 922Z" />
<glyph unicode="&#x622;" glyph-name="uniFE82" horiz-adv-x="620" arabic-form="terminal" d="M719 2038Q709 1956 624 1874T460 1792Q450 1792 429 1795T398 1798Q343 1798 262 1717L243 1726Q268 1774 309 1820Q361 1879 397 1879Q404 1879 416 1878T468 1877Q549
1876 618 1936Q645 1960 705 2037L719 2038ZM792 628L741 437Q661 383 579 383Q466 383 424 509Q401 580 397 729L389 1031Q380 1371 380 1377Q380 1390 404 1462T438 1546H444Q447 1373 456 1029Q457 933 477 745Q517 552 630 552Q714 552 792 628Z" />
<glyph unicode="&#x622;" glyph-name="uni0622" horiz-adv-x="650" arabic-form="isolated" d="M485 1961Q475 1879 390 1797T226 1715Q216 1715 195 1718T164 1721Q109 1721 28 1640L9 1649Q34 1697 75 1743Q127 1802 163 1802Q170 1802 182 1801T234 1800Q315
1799 384 1859Q411 1883 471 1960L485 1961ZM781 830Q781 564 716 447Q639 307 405 222Q372 210 363 210Q354 210 353 218Q375 263 426 318Q470 364 513 409Q613 521 650 582Q713 685 713 790Q713 865 647 1048Q589 1208 539 1303Q513 1111 513 1055Q513 951 490
940Q457 946 457 1146Q457 1517 519 1703Q631 1508 703 1281Q781 1032 781 830Z" />
<glyph unicode="&#x623;" glyph-name="uniFE84" horiz-adv-x="698" arabic-form="terminal" d="M689 1937Q686 1922 668 1887T639 1844Q630 1848 619 1848Q589 1848 589 1823Q589 1809 639 1809Q675 1809 675 1779Q675 1705 558 1649Q458 1602 374 1602Q361 1602
361 1614L483 1656Q572 1689 588 1711Q585 1717 554 1716Q515 1715 515 1754Q515 1797 570 1870T667 1944Q674 1944 689 1937ZM869 628L818 437Q738 383 655 383Q543 383 501 509Q478 580 474 729L466 1031Q457 1371 457 1377Q457 1390 481 1462T515 1546H521Q525
1373 532 1029Q536 831 553 746Q592 552 705 552Q787 552 869 628Z" />
<glyph unicode="&#x623;" glyph-name="uni0623" horiz-adv-x="564" arabic-form="isolated" d="M439 1935Q436 1920 418 1885T389 1842Q380 1846 369 1846Q339 1846 339 1821Q339 1807 389 1807Q425 1807 425 1777Q425 1703 308 1647Q208 1600 124 1600Q111 1600
111 1612L233 1654Q322 1687 338 1709Q335 1715 304 1714Q265 1713 265 1752Q265 1795 320 1868T417 1942Q424 1942 439 1935ZM781 830Q781 564 716 447Q639 307 405 222Q372 210 363 210Q354 210 353 218Q375 263 426 318Q470 364 513 409Q613 521 650 582Q713
685 713 790Q713 865 647 1048Q589 1208 539 1303Q513 1111 513 1055Q513 951 490 940Q457 946 457 1146Q457 1517 519 1703Q631 1508 703 1281Q781 1032 781 830Z" />
<glyph unicode="&#x624;" glyph-name="uniFE86" horiz-adv-x="900" arabic-form="terminal" d="M795 1197Q792 1182 774 1147T745 1104Q736 1108 725 1108Q695 1108 695 1083Q695 1069 745 1069Q781 1069 781 1039Q781 965 664 909Q564 862 480 862Q467 862 467
874L589 916Q678 949 694 971Q691 977 660 976Q621 975 621 1014Q621 1057 676 1130T773 1204Q780 1204 795 1197ZM1078 631L1027 441Q963 390 796 319Q762 170 635 0Q503 -178 371 -235Q260 -283 92 -283Q28 -283 -98 -262Q-248 -238 -253 -211L-245 -205Q-215
-206 -150 -217Q-88 -227 -54 -227Q15 -227 148 -188Q437 -103 649 147Q694 201 704 216Q727 252 733 299Q646 275 616 275Q525 275 525 335Q525 398 576 494Q633 601 689 601Q738 601 777 563T816 476Q984 547 1078 631Z" />
<glyph unicode="&#x624;" glyph-name="uni0624" horiz-adv-x="708" arabic-form="isolated" d="M799 1617Q796 1602 778 1567T749 1524Q740 1528 729 1528Q699 1528 699 1503Q699 1489 749 1489Q785 1489 785 1459Q785 1385 668 1329Q568 1282 484 1282Q471 1282
471 1294L593 1336Q682 1369 698 1391Q695 1397 664 1396Q625 1395 625 1434Q625 1477 680 1550T777 1624Q784 1624 799 1617ZM852 873Q852 667 685 411Q515 150 330 88Q197 43 -54 43Q-127 43 -127 62Q-127 71 -48 91Q69 120 127 140Q306 202 465 329T719 617Q784
727 784 799Q784 819 769 862Q713 800 639 800Q606 800 579 820T552 872Q552 940 631 1082Q655 1126 701 1126Q852 1126 852 873Z" />
<glyph unicode="&#x625;" glyph-name="uniFE88" horiz-adv-x="584" arabic-form="terminal" d="M756 628L705 437Q625 383 542 383Q430 383 388 509Q365 580 361 729L353 1031Q344 1371 344 1377Q344 1390 368 1462T402 1546H408Q412 1373 419 1029Q423 831 440
746Q479 552 593 552Q674 552 756 628ZM252 234Q249 219 231 184T202 141Q193 145 182 145Q152 145 152 120Q152 106 202 106Q238 106 238 76Q238 2 121 -54Q21 -101 -63 -101Q-76 -101 -76 -89L46 -47Q135 -14 151 8Q148 14 117 13Q78 12 78 51Q78 94 133 167T230
241Q237 241 252 234Z" />
<glyph unicode="&#x625;" glyph-name="uni0625" horiz-adv-x="616" arabic-form="isolated" d="M781 830Q781 564 716 447Q639 307 405 222Q372 210 363 210Q354 210 353 218Q375 263 426 318Q470 364 513 409Q613 521 650 582Q713 685 713 790Q713 865 647 1048Q589
1208 539 1303Q513 1111 513 1055Q513 951 490 940Q457 946 457 1146Q457 1517 519 1703Q631 1508 703 1281Q781 1032 781 830ZM560 54Q557 39 539 4T510 -39Q501 -35 490 -35Q460 -35 460 -60Q460 -74 510 -74Q546 -74 546 -104Q546 -178 429 -234Q329 -281 245
-281Q232 -281 232 -269L354 -227Q443 -194 459 -172Q456 -166 425 -167Q386 -168 386 -129Q386 -86 441 -13T538 61Q545 61 560 54Z" />
<glyph unicode="&#x626;" glyph-name="uniFE8C" horiz-adv-x="307" arabic-form="medial" d="M521 1466Q518 1451 500 1416T471 1373Q462 1377 451 1377Q421 1377 421 1352Q421 1338 471 1338Q507 1338 507 1308Q507 1234 390 1178Q290 1131 206 1131Q193 1131
193 1143L315 1185Q404 1218 420 1240Q417 1246 386 1245Q347 1244 347 1283Q347 1326 402 1399T499 1473Q506 1473 521 1466ZM481 630L430 440Q346 379 265 379Q179 379 139 452L112 431L162 616Q216 678 272 742Q275 727 275 708Q275 635 197 528Q214 517 255
517Q303 517 376 555Q441 590 481 630Z" />
<glyph unicode="&#x626;" glyph-name="uniFE8A" horiz-adv-x="727" arabic-form="terminal" d="M903 630L851 439L685 335Q530 233 530 200Q530 181 553 150Q572 124 666 88Q740 60 740 4Q740 -163 623 -351Q521 -515 372 -636Q290 -702 178 -702Q-52 -702 -52
-409Q-52 -178 76 42Q207 237 338 431Q414 551 478 767Q375 717 282 717L273 723L275 731Q503 803 503 828L498 834L471 831Q431 831 431 871Q431 915 486 987T582 1060Q588 1060 603 1054Q580 982 554 961L532 964Q505 964 505 937Q505 927 553 926Q588 926 588
896Q588 843 506 783Q453 588 381 431Q341 343 231 187Q113 20 73 -59Q-1 -202 -1 -331Q-1 -429 74 -486Q142 -537 243 -537Q343 -537 514 -376T685 -123L682 -107L665 -93Q547 -55 522 -34Q476 5 476 109Q476 247 539 345Q589 424 697 499Q800 565 903 630Z" />
<glyph unicode="&#x626;" glyph-name="uni0626" horiz-adv-x="900" arabic-form="isolated" d="M903 1673Q900 1658 882 1623T853 1580Q844 1584 833 1584Q803 1584 803 1559Q803 1545 853 1545Q889 1545 889 1515Q889 1441 772 1385Q672 1338 588 1338Q575 1338
575 1350L697 1392Q786 1425 802 1447Q799 1453 768 1452Q729 1451 729 1490Q729 1533 784 1606T881 1680Q888 1680 903 1673ZM1145 1660Q1030 1431 883 1300Q769 1201 655 1101Q510 972 422 870Q298 724 251 562Q216 440 216 259Q216 36 439 36Q524 36 654 131T784
295Q784 323 714 332Q614 343 583 357Q513 388 513 471Q513 643 641 842Q683 909 752 978Q840 1067 891 1067Q969 1067 1012 1012Q1007 978 979 922Q947 860 924 851L915 864Q915 906 860 906Q787 906 690 802T593 625Q593 574 647 551Q676 539 759 526Q831 516
851 499Q880 475 880 410Q880 230 710 43Q536 -148 358 -148Q123 -148 123 201Q123 560 391 898Q478 1008 628 1139L886 1359Q998 1458 1131 1666L1143 1673L1145 1660Z" />
<glyph unicode="&#x627;" glyph-name="uniFE8E" horiz-adv-x="642" arabic-form="terminal" d="M812 628L761 437Q681 383 599 383Q486 383 444 509Q421 580 417 729L409 1031Q400 1371 400 1377Q400 1390 424 1462T458 1546H464Q467 1373 476 1029Q477 933 497
745Q537 552 650 552Q734 552 812 628Z" />
<glyph unicode="&#x627;" glyph-name="uni0627" horiz-adv-x="616" arabic-form="isolated" d="M781 830Q781 564 716 447Q639 307 405 222Q372 210 363 210Q354 210 353 218Q375 263 426 318Q470 364 513 409Q613 521 650 582Q713 685 713 790Q713 865 647 1048Q589
1208 539 1303Q513 1111 513 1055Q513 951 490 940Q457 946 457 1146Q457 1517 519 1703Q631 1508 703 1281Q781 1032 781 830Z" />
<glyph unicode="&#x628;" glyph-name="uniFE92" horiz-adv-x="307" arabic-form="medial" d="M481 630L430 440Q346 379 265 379Q179 379 139 452L112 431L162 616Q216 678 272 742Q275 727 275 708Q275 635 197 528Q214 517 255 517Q303 517 376 555Q441 590
481 630ZM234 180Q186 86 141 45L53 106Q57 115 143 247Q234 214 234 180Z" />
<glyph unicode="&#x628;" glyph-name="uniFE90" horiz-adv-x="1675" arabic-form="terminal" d="M1851 630L1800 440Q1723 386 1674 386Q1611 386 1576 438Q1545 483 1545 549Q1545 589 1553 613L1551 618Q1527 613 1358 435Q1157 223 1012 115Q782 -55 595 -55Q395
-55 274 90Q161 226 161 430Q161 514 205 615Q290 811 455 919T833 1026L1009 1025Q1214 1024 1472 1128L1473 1117Q1442 1096 1242 1019Q1135 978 994 978Q386 978 240 613Q213 545 213 475Q213 331 327 220T585 108Q853 108 1151 369L1614 800L1630 802L1634
792Q1633 767 1615 719T1596 645Q1596 606 1627 581T1699 555Q1782 555 1851 630ZM905 -265Q858 -350 813 -399L723 -338Q731 -320 813 -196Q847 -211 867 -223Q905 -246 905 -265Z" />
<glyph unicode="&#x628;" glyph-name="uni0628" horiz-adv-x="1620" arabic-form="isolated" d="M1842 1059Q1849 974 1806 920Q1703 839 1555 660Q1263 306 1111 171Q817 -88 555 -88Q380 -88 263 30T145 324Q145 615 347 812Q462 925 624 965Q739 993 942 993H1391L1392
982Q1367 962 1058 945Q781 930 707 916Q527 883 393 780Q218 645 218 453Q218 287 320 182T587 76Q804 76 1089 314Q1231 432 1499 724Q1620 859 1742 994Q1751 1003 1842 1059ZM562 -251Q535 -299 469 -386L379 -326L469 -184Q503 -199 523 -210Q562 -233 562
-251Z" />
<glyph unicode="&#x629;" glyph-name="uniFE94" horiz-adv-x="625" arabic-form="terminal" d="M632 1094Q607 1038 568 968Q553 951 509 934T442 917Q433 917 415 921T388 926Q369 926 342 903Q356 945 433 1064H441Q504 1063 632 1094ZM804 625L754 436Q701
413 637 413Q583 413 527 465T444 518Q400 518 314 449Q256 397 198 346Q212 433 241 505Q262 557 364 638T520 719Q555 719 594 656T692 592Q748 592 804 625Z" />
<glyph unicode="&#x629;" glyph-name="uni0629" horiz-adv-x="372" arabic-form="isolated" d="M701 1448Q674 1340 648 1309Q628 1286 524 1224Q481 1198 410 1163Q413 1199 473 1326Q526 1343 701 1448ZM510 768Q510 660 425 526Q332 380 231 380Q148 380 148
432Q148 529 249 699Q358 881 445 881Q510 881 510 768ZM421 645Q421 703 370 703Q284 703 242 570Q261 555 302 555Q355 555 417 621L421 645Z" />
<glyph unicode="&#x62a;" glyph-name="uniFE98" horiz-adv-x="307" arabic-form="medial" d="M298 1353Q272 1236 232 1198Q218 1184 87 1111Q61 1096 8 1068Q7 1105 72 1231Q172 1272 298 1353ZM481 630L430 440Q346 379 265 379Q179 379 139 452L112 431L162
616Q216 678 272 742Q275 727 275 708Q275 635 197 528Q214 517 255 517Q303 517 376 555Q441 590 481 630Z" />
<glyph unicode="&#x62a;" glyph-name="uniFE96" horiz-adv-x="1675" arabic-form="terminal" d="M1359 1428Q1353 1409 1342 1352Q1327 1270 1069 1143Q1067 1179 1131 1306Q1242 1355 1359 1428ZM1851 630L1800 440Q1723 386 1674 386Q1611 386 1576 438Q1545
483 1545 549Q1545 589 1553 613L1551 618Q1527 613 1358 435Q1157 223 1012 115Q782 -55 595 -55Q395 -55 274 90Q161 226 161 430Q161 514 205 615Q290 811 455 919T833 1026L1009 1025Q1214 1024 1472 1128L1473 1117Q1442 1096 1242 1019Q1135 978 994 978Q386
978 240 613Q213 545 213 475Q213 331 327 220T585 108Q853 108 1151 369L1614 800L1630 802L1634 792Q1633 767 1615 719T1596 645Q1596 606 1627 581T1699 555Q1782 555 1851 630Z" />
<glyph unicode="&#x62a;" glyph-name="uni062A" horiz-adv-x="1644" arabic-form="isolated" d="M1143 884Q1117 777 1089 745Q1069 720 966 659Q929 637 852 598V605Q852 633 915 761Q1025 808 1143 884ZM1842 1059Q1849 974 1806 920Q1703 839 1555 660Q1263
306 1111 171Q817 -88 555 -88Q380 -88 263 30T145 324Q145 615 347 812Q462 925 624 965Q739 993 942 993H1391L1392 982Q1367 962 1058 945Q781 930 707 916Q527 883 393 780Q218 645 218 453Q218 287 320 182T587 76Q804 76 1089 314Q1231 432 1499 724Q1620
859 1742 994Q1751 1003 1842 1059Z" />
<glyph unicode="&#x62b;" glyph-name="uniFE9C" horiz-adv-x="307" arabic-form="medial" d="M430 1326Q430 1304 389 1249T329 1193Q317 1193 314 1222Q298 1235 279 1235Q175 1235 29 974V980Q27 1069 151 1227Q277 1389 362 1389Q430 1389 430 1326ZM481 630L430
440Q346 379 265 379Q179 379 139 452L112 431L162 616Q216 678 272 742Q275 727 275 708Q275 635 197 528Q214 517 255 517Q303 517 376 555Q441 590 481 630Z" />
<glyph unicode="&#x62b;" glyph-name="uniFE9A" horiz-adv-x="1675" arabic-form="terminal" d="M1374 1460Q1325 1327 1272 1327L1256 1356Q1242 1368 1224 1368Q1119 1368 972 1107Q973 1200 1093 1358Q1217 1522 1305 1522Q1375 1522 1374 1460ZM1851 630L1800
440Q1723 386 1674 386Q1611 386 1576 438Q1545 483 1545 549Q1545 589 1553 613L1551 618Q1527 613 1358 435Q1157 223 1012 115Q782 -55 595 -55Q395 -55 274 90Q161 226 161 430Q161 514 205 615Q290 811 455 919T833 1026L1009 1025Q1214 1024 1472 1128L1473
1117Q1442 1096 1242 1019Q1135 978 994 978Q386 978 240 613Q213 545 213 475Q213 331 327 220T585 108Q853 108 1151 369L1614 800L1630 802L1634 792Q1633 767 1615 719T1596 645Q1596 606 1627 581T1699 555Q1782 555 1851 630Z" />
<glyph unicode="&#x62b;" glyph-name="uni062B" horiz-adv-x="1668" arabic-form="isolated" d="M1260 1391Q1260 1365 1222 1313Q1183 1258 1159 1258Q1151 1258 1143 1278T1109 1299Q1074 1299 1010 1248Q957 1205 924 1155Q892 1097 859 1038Q857 1128 977
1288Q1101 1452 1186 1452Q1260 1452 1260 1391ZM1842 1059Q1849 974 1806 920Q1703 839 1555 660Q1263 306 1111 171Q817 -88 555 -88Q380 -88 263 30T145 324Q145 615 347 812Q462 925 624 965Q739 993 942 993H1391L1392 982Q1367 962 1058 945Q781 930 707
916Q527 883 393 780Q218 645 218 453Q218 287 320 182T587 76Q804 76 1089 314Q1231 432 1499 724Q1620 859 1742 994Q1751 1003 1842 1059Z" />
<glyph unicode="&#x62c;" glyph-name="uniFEA0" horiz-adv-x="844" arabic-form="medial" d="M1018 628L967 437Q844 361 722 361Q616 361 550 439Q488 513 488 620Q488 671 506 751Q373 650 221 518Q191 360 195 252L186 235L181 232L176 237V362L184 486Q160
467 112 431L163 619L200 654Q248 877 290 955Q372 1107 540 1107Q584 1107 669 1082T800 1056Q871 1056 932 1084Q914 988 868 923Q666 882 559 787Q552 747 552 706Q552 629 609 582Q662 538 740 538Q903 538 1018 628ZM375 61Q344 4 282 -75Q237 -46 193 -12Q202
4 285 129Q375 97 375 61ZM581 923Q497 943 465 943Q282 943 242 687Q360 784 404 816Q498 885 581 923Z" />
<glyph unicode="&#x62c;" glyph-name="uniFE9E" horiz-adv-x="743" arabic-form="terminal" d="M922 631L871 441Q826 405 602 321Q408 249 347 160Q393 171 488 226T622 288L628 283Q628 224 607 157Q552 -20 462 -124Q419 -174 260 -293Q87 -422 19 -490Q-98
-607 -98 -700Q-98 -794 66 -852Q194 -898 313 -898H532Q683 -898 729 -890L733 -898Q677 -961 323 -961Q270 -961 200 -951Q31 -927 -40 -889Q-158 -826 -158 -688Q-158 -604 -80 -472Q8 -323 220 -165Q436 -4 484 73L479 75Q401 26 172 -102Q163 -104 163 -91Q163
-65 253 123Q346 318 438 386Q483 419 731 526Q863 583 922 631ZM498 -471Q478 -507 458 -544Q431 -587 405 -606L315 -546Q327 -521 407 -404Q457 -426 488 -450L498 -471Z" />
<glyph unicode="&#x62c;" glyph-name="uni062C" horiz-adv-x="900" arabic-form="isolated" d="M1273 1597Q1273 1575 1236 1475T1182 1350Q1093 1224 919 1090Q768 979 618 868Q453 736 337 588Q185 393 185 244Q185 152 278 61Q355 -14 453 -55T723 -121Q874
-144 996 -144Q1060 -144 1152 -127L1157 -130L1150 -138Q1075 -174 856 -174Q605 -174 423 -90Q275 -22 212 52Q132 145 132 295Q132 448 280 666Q407 852 554 972Q606 1014 757 1131Q756 1148 743 1181T730 1232Q730 1302 817 1449Q835 1480 1012 1562T1237 1644Q1273
1617 1273 1597ZM861 543Q834 493 767 408L678 469L768 610Q802 595 822 584Q861 561 861 543ZM1182 1479Q1095 1464 985 1423Q859 1375 809 1327Q836 1264 836 1241Q836 1203 819 1173Q984 1283 1016 1308Q1124 1391 1182 1479Z" />
<glyph unicode="&#x62d;" glyph-name="uniFEA4" horiz-adv-x="844" arabic-form="medial" d="M1018 628L967 437Q844 361 722 361Q616 361 550 439Q488 513 488 620Q488 671 506 751Q373 650 221 518Q191 360 195 252L186 235L181 232L176 237V362L184 486Q160
467 112 431L163 619L200 654Q248 877 290 955Q372 1107 540 1107Q584 1107 669 1082T800 1056Q871 1056 932 1084Q914 988 868 923Q666 882 559 787Q552 747 552 706Q552 629 609 582Q662 538 740 538Q903 538 1018 628ZM581 923Q497 943 465 943Q282 943 242
687Q360 784 404 816Q498 885 581 923Z" />
<glyph unicode="&#x62d;" glyph-name="uniFEA2" horiz-adv-x="743" arabic-form="terminal" d="M922 631L871 441Q826 405 602 321Q408 249 347 160Q393 171 488 226T622 288L628 283Q628 224 607 157Q552 -20 462 -124Q419 -174 260 -293Q87 -422 19 -490Q-98
-607 -98 -700Q-98 -794 66 -852Q194 -898 313 -898H532Q683 -898 729 -890L733 -898Q677 -961 323 -961Q270 -961 200 -951Q31 -927 -40 -889Q-158 -826 -158 -688Q-158 -604 -80 -472Q8 -323 220 -165Q436 -4 484 73L479 75Q401 26 172 -102Q163 -104 163 -91Q163
-65 253 123Q346 318 438 386Q483 419 731 526Q863 583 922 631Z" />
<glyph unicode="&#x62d;" glyph-name="uni062D" horiz-adv-x="924" arabic-form="isolated" d="M1273 1597Q1273 1575 1236 1475T1182 1350Q1093 1224 919 1090Q768 979 618 868Q453 736 337 588Q185 393 185 244Q185 152 278 61Q355 -14 453 -55T723 -121Q874
-144 996 -144Q1060 -144 1152 -127L1157 -130L1150 -138Q1075 -174 856 -174Q605 -174 423 -90Q275 -22 212 52Q132 145 132 295Q132 448 280 666Q407 852 554 972Q606 1014 757 1131Q756 1148 743 1181T730 1232Q730 1302 817 1449Q835 1480 1012 1562T1237 1644Q1273
1617 1273 1597ZM1182 1479Q1095 1464 985 1423Q859 1375 809 1327Q836 1264 836 1241Q836 1203 819 1173Q984 1283 1016 1308Q1124 1391 1182 1479Z" />
<glyph unicode="&#x62e;" glyph-name="uniFEA8" horiz-adv-x="845" arabic-form="medial" d="M539 1454Q491 1359 444 1319Q407 1340 355 1379Q363 1395 447 1521Q481 1505 500 1494Q539 1470 539 1454ZM1018 628L967 437Q844 361 722 361Q616 361 550 439Q488
513 488 620Q488 671 506 751Q373 650 221 518Q191 360 195 252L186 235L181 232L176 237V362L184 486Q160 467 112 431L163 619L200 654Q248 877 290 955Q372 1107 540 1107Q584 1107 669 1082T800 1056Q871 1056 932 1084Q914 988 868 923Q666 882 559 787Q552
747 552 706Q552 629 609 582Q662 538 740 538Q903 538 1018 628ZM581 923Q497 943 465 943Q282 943 242 687Q360 784 404 816Q498 885 581 923Z" />
<glyph unicode="&#x62e;" glyph-name="uniFEA6" horiz-adv-x="743" arabic-form="terminal" d="M612 701Q555 596 518 567L429 628Q462 679 520 769Q612 736 612 701ZM922 631L871 441Q826 405 602 321Q408 249 347 160Q393 171 488 226T622 288L628 283Q628 224
607 157Q552 -20 462 -124Q419 -174 260 -293Q87 -422 19 -490Q-98 -607 -98 -700Q-98 -794 66 -852Q194 -898 313 -898H532Q683 -898 729 -890L733 -898Q677 -961 323 -961Q270 -961 200 -951Q31 -927 -40 -889Q-158 -826 -158 -688Q-158 -604 -80 -472Q8 -323
220 -165Q436 -4 484 73L479 75Q401 26 172 -102Q163 -104 163 -91Q163 -65 253 123Q346 318 438 386Q483 419 731 526Q863 583 922 631Z" />
<glyph unicode="&#x62e;" glyph-name="uni062E" horiz-adv-x="900" arabic-form="isolated" d="M969 1851Q942 1801 875 1716L786 1777L876 1918Q910 1903 930 1892Q969 1869 969 1851ZM1273 1597Q1273 1575 1236 1475T1182 1350Q1093 1224 919 1090Q768 979 618
868Q453 736 337 588Q185 393 185 244Q185 152 278 61Q355 -14 453 -55T723 -121Q874 -144 996 -144Q1060 -144 1152 -127L1157 -130L1150 -138Q1075 -174 856 -174Q605 -174 423 -90Q275 -22 212 52Q132 145 132 295Q132 448 280 666Q407 852 554 972Q606 1014
757 1131Q756 1148 743 1181T730 1232Q730 1302 817 1449Q835 1480 1012 1562T1237 1644Q1273 1617 1273 1597ZM1182 1479Q1095 1464 985 1423Q859 1375 809 1327Q836 1264 836 1241Q836 1203 819 1173Q984 1283 1016 1308Q1124 1391 1182 1479Z" />
<glyph unicode="&#x62f;" glyph-name="uniFEAA" horiz-adv-x="908" arabic-form="terminal" d="M1087 631L1036 441Q990 408 921 376Q840 338 799 338Q689 338 689 505Q689 530 695 570H687Q681 570 659 543T572 396Q421 115 291 51Q215 14 158 4Q115 -4 16 -4Q-24
-4 -97 4Q-184 14 -199 26L-196 32L-182 40Q-31 40 64 71T280 192Q410 288 464 367Q533 479 602 592Q704 750 760 775L770 766L772 756Q769 746 763 714Q753 663 753 610Q753 503 842 503Q933 503 1087 631Z" />
<glyph unicode="&#x62f;" glyph-name="uni062F" horiz-adv-x="852" arabic-form="isolated" d="M994 916Q994 713 855 457Q714 196 498 82Q440 51 264 30Q117 12 14 12Q-43 12 -58 17L-62 24Q-40 28 12 33Q150 46 300 116Q588 251 792 528Q919 700 919 771Q919
820 876 865T784 910Q726 910 593 850Q447 784 447 734Q447 729 481 695Q521 655 543 605Q577 528 577 420Q577 390 562 341Q544 282 522 282L513 290L520 349Q520 389 437 494T353 661Q353 683 385 769Q415 851 433 881Q466 937 627 1014Q785 1089 860 1089Q918
1089 958 1029Q994 976 994 916Z" />
<glyph unicode="&#x630;" glyph-name="uniFEAC" horiz-adv-x="908" arabic-form="terminal" d="M802 1159L762 1087Q737 1047 710 1025L621 1086Q648 1137 711 1228Q802 1189 802 1159ZM1087 631L1036 441Q990 408 921 376Q840 338 799 338Q689 338 689 505Q689
530 695 570H687Q681 570 659 543T572 396Q421 115 291 51Q215 14 158 4Q115 -4 16 -4Q-24 -4 -97 4Q-184 14 -199 26L-196 32L-182 40Q-31 40 64 71T280 192Q410 288 464 367Q533 479 602 592Q704 750 760 775L770 766L772 756Q769 746 763 714Q753 663 753 610Q753
503 842 503Q933 503 1087 631Z" />
<glyph unicode="&#x630;" glyph-name="uni0630" horiz-adv-x="828" arabic-form="isolated" d="M822 1481Q770 1379 728 1346L639 1407Q647 1424 730 1548Q764 1534 784 1522Q822 1499 822 1481ZM994 916Q994 713 855 457Q714 196 498 82Q440 51 264 30Q117 12
14 12Q-43 12 -58 17L-62 24Q-40 28 12 33Q150 46 300 116Q588 251 792 528Q919 700 919 771Q919 820 876 865T784 910Q726 910 593 850Q447 784 447 734Q447 729 481 695Q521 655 543 605Q577 528 577 420Q577 390 562 341Q544 282 522 282L513 290L520 349Q520
389 437 494T353 661Q353 683 385 769Q415 851 433 881Q466 937 627 1014Q785 1089 860 1089Q918 1089 958 1029Q994 976 994 916Z" />
<glyph unicode="&#x631;" glyph-name="uniFEAE" horiz-adv-x="636" arabic-form="terminal" d="M811 630L759 437Q635 365 586 332Q469 254 443 203Q363 30 283 -142Q167 -362 41 -404Q-55 -436 -170 -436Q-401 -436 -467 -398L-470 -393L-462 -384Q-402 -396
-331 -396Q-147 -396 17 -278Q162 -172 262 2Q269 15 357 190Q414 304 467 368T637 505Q766 585 811 630Z" />
<glyph unicode="&#x631;" glyph-name="uni0631" horiz-adv-x="756" arabic-form="isolated" d="M934 958Q934 850 901 844L874 877Q846 876 828 844Q791 778 666 474Q578 260 478 168Q338 41 91 41Q-158 41 -166 66L-156 73Q271 73 534 427Q592 505 648 629Q695
736 741 843Q828 1036 878 1036Q902 1036 919 1008Q934 984 934 958Z" />
<glyph unicode="&#x632;" glyph-name="uniFEB0" horiz-adv-x="681" arabic-form="terminal" d="M645 911Q614 854 552 775L462 836Q505 908 554 978Q613 953 635 932L645 911ZM856 630L804 437Q681 364 631 330Q510 249 487 203Q423 59 359 -84Q280 -251 192 -331Q76
-435 -97 -435Q-358 -435 -423 -398L-425 -393L-417 -384Q-359 -396 -284 -396Q-105 -396 62 -276Q215 -167 307 2Q354 97 400 192Q457 305 513 369Q595 463 667 505Q716 533 765 562Q821 596 856 630Z" />
<glyph unicode="&#x632;" glyph-name="uni0632" horiz-adv-x="780" arabic-form="isolated" d="M851 1465Q820 1410 757 1330L668 1391Q676 1410 758 1532Q851 1502 851 1465ZM934 958Q934 850 901 844L874 877Q846 876 828 844Q791 778 666 474Q578 260 478 168Q338
41 91 41Q-158 41 -166 66L-156 73Q271 73 534 427Q592 505 648 629Q695 736 741 843Q828 1036 878 1036Q902 1036 919 1008Q934 984 934 958Z" />
<glyph unicode="&#x633;" glyph-name="uniFEB4" horiz-adv-x="629" arabic-form="medial" d="M803 630L751 437Q678 383 570 383Q486 383 436 443Q391 499 391 582Q391 603 394 624L372 620Q340 566 289 525Q227 477 175 483Q144 454 112 431L163 619Q189 635
209 686Q231 743 247 759L255 756Q253 712 247 672Q269 672 319 720Q362 761 377 788Q386 805 406 871Q410 886 428 902L434 896L436 850Q436 843 430 804Q440 804 473 828Q510 855 549 935Q585 1011 589 1013L594 1007V987Q594 900 549 796Q500 683 433 641Q443
532 572 532Q693 532 803 630Z" />
<glyph unicode="&#x633;" glyph-name="uniFEB2" horiz-adv-x="1243" arabic-form="terminal" d="M1418 628L1368 441Q1153 290 1083 290Q1032 242 963 256Q919 229 844 201Q834 -4 643 -266Q438 -548 247 -548Q239 -548 230 -546Q113 -521 54 -418Q3 -329 3 -200Q3
67 165 286Q312 485 566 613L810 735Q940 808 1030 898H1039Q1039 880 996 828Q925 743 799 669Q685 609 572 549Q76 277 76 -67Q76 -178 137 -251Q201 -329 310 -329Q444 -329 583 -197Q715 -70 745 66Q756 117 756 178Q756 231 695 304Q742 410 779 483L788 491L795
490Q818 462 856 419H880Q954 419 1011 475Q1046 510 1084 581Q1115 640 1125 642Q1133 635 1133 621Q1133 604 1119 555T1094 490Q1165 525 1194 578Q1205 597 1241 705L1251 708L1259 697V686Q1259 618 1219 511Q1299 551 1322 564Q1379 596 1418 628Z" />
<glyph unicode="&#x633;" glyph-name="uni0633" horiz-adv-x="1200" arabic-form="isolated" d="M1545 1555L1523 1519Q1459 1479 1189 1351Q896 1212 798 1158Q520 1003 394 864Q219 671 219 415Q219 112 444 112Q574 112 727 249Q882 390 882 518Q882 630 827
686Q790 714 754 741Q779 813 817 891Q878 866 932 785Q954 778 976 778Q1080 778 1148 857Q1213 931 1211 1033Q1222 1056 1232 1056L1237 1054Q1226 972 1228 927L1238 922Q1270 922 1307 981Q1342 1036 1350 1102Q1362 1212 1366 1227Q1371 1248 1383 1248Q1397
1248 1397 1179Q1397 771 1167 734Q1144 689 1088 657T981 624Q961 624 951 629Q939 420 810 208Q655 -45 449 -45Q304 -45 227 88Q165 197 165 354Q165 644 340 863Q486 1046 774 1200Q890 1262 1163 1376Q1418 1482 1545 1555Z" />
<glyph unicode="&#x634;" glyph-name="uniFEB8" horiz-adv-x="629" arabic-form="medial" d="M715 1555Q715 1530 676 1476T614 1422L603 1435L599 1451Q583 1464 564 1464Q459 1464 313 1202Q317 1304 436 1457Q560 1617 654 1617Q715 1617 715 1555ZM803 630L751
437Q678 383 570 383Q486 383 436 443Q391 499 391 582Q391 603 394 624L372 620Q340 566 289 525Q227 477 175 483Q144 454 112 431L163 619Q189 635 209 686Q231 743 247 759L255 756Q253 712 247 672Q269 672 319 720Q362 761 377 788Q386 805 406 871Q410 886
428 902L434 896L436 850Q436 843 430 804Q440 804 473 828Q510 855 549 935Q585 1011 589 1013L594 1007V987Q594 900 549 796Q500 683 433 641Q443 532 572 532Q693 532 803 630Z" />
<glyph unicode="&#x634;" glyph-name="uniFEB6" horiz-adv-x="1243" arabic-form="terminal" d="M1226 1219Q1226 1190 1189 1138T1126 1086Q1112 1086 1110 1116Q1096 1127 1078 1127Q1004 1127 927 1029Q894 987 825 866Q827 963 947 1119Q1071 1281 1160 1281Q1226
1281 1226 1219ZM1418 628L1368 441Q1153 290 1083 290Q1032 242 963 256Q919 229 844 201Q834 -4 643 -266Q438 -548 247 -548Q239 -548 230 -546Q113 -521 54 -418Q3 -329 3 -200Q3 67 165 286Q312 485 566 613L810 735Q940 808 1030 898H1039Q1039 880 996 828Q925
743 799 669Q685 609 572 549Q76 277 76 -67Q76 -178 137 -251Q201 -329 310 -329Q444 -329 583 -197Q715 -70 745 66Q756 117 756 178Q756 231 695 304Q742 410 779 483L788 491L795 490Q818 462 856 419H880Q954 419 1011 475Q1046 510 1084 581Q1115 640 1125
642Q1133 635 1133 621Q1133 604 1119 555T1094 490Q1165 525 1194 578Q1205 597 1241 705L1251 708L1259 697V686Q1259 618 1219 511Q1299 551 1322 564Q1379 596 1418 628Z" />
<glyph unicode="&#x634;" glyph-name="uni0634" horiz-adv-x="1236" arabic-form="isolated" d="M1325 1771Q1325 1745 1287 1693Q1248 1638 1224 1638Q1216 1638 1208 1658T1174 1679Q1139 1679 1075 1628Q1022 1585 989 1535Q957 1477 924 1418Q922 1508 1042
1668Q1166 1832 1251 1832Q1325 1832 1325 1771ZM1545 1555L1523 1519Q1459 1479 1189 1351Q896 1212 798 1158Q520 1003 394 864Q219 671 219 415Q219 112 444 112Q574 112 727 249Q882 390 882 518Q882 630 827 686Q790 714 754 741Q779 813 817 891Q878 866
932 785Q954 778 976 778Q1080 778 1148 857Q1213 931 1211 1033Q1222 1056 1232 1056L1237 1054Q1226 972 1228 927L1238 922Q1270 922 1307 981Q1342 1036 1350 1102Q1362 1212 1366 1227Q1371 1248 1383 1248Q1397 1248 1397 1179Q1397 771 1167 734Q1144 689
1088 657T981 624Q961 624 951 629Q939 420 810 208Q655 -45 449 -45Q304 -45 227 88Q165 197 165 354Q165 644 340 863Q486 1046 774 1200Q890 1262 1163 1376Q1418 1482 1545 1555Z" />
<glyph unicode="&#x635;" glyph-name="uniFEBC" horiz-adv-x="969" arabic-form="medial" d="M1146 631L1095 440Q989 372 852 372Q694 372 629 568Q550 528 496 516Q491 459 479 393L474 391L469 393Q468 452 471 510Q356 478 202 478L175 483Q155 464 112 431L162
616L272 742Q275 726 275 708Q275 648 216 552H254Q319 552 489 630Q525 768 547 827Q592 949 650 997Q695 1035 843 1091Q980 1143 1023 1143Q1029 1143 1038 1141Q1055 1125 1055 1090Q1055 1073 1025 994Q938 764 695 606Q769 539 845 539Q1026 539 1146 631ZM967
962Q967 968 963 974L945 977Q898 977 772 927Q638 874 597 830Q553 781 521 645Q701 731 857 856Q967 944 967 962Z" />
<glyph unicode="&#x635;" glyph-name="uniFEBA" horiz-adv-x="1392" arabic-form="terminal" d="M1574 634L1522 441Q1470 402 1363 358Q1250 312 1195 314Q980 163 889 163L833 -45L819 -55L812 -45Q826 22 855 154Q809 144 778 144Q745 144 732 154Q702 68 634
-99Q567 -238 464 -338Q336 -462 208 -462Q101 -462 47 -378Q1 -307 1 -194Q1 -119 25 -27Q80 185 247 333Q330 406 584 557Q811 691 919 809L930 811L933 807Q928 782 862 713Q779 627 551 487T235 255Q91 105 91 -89Q91 -173 141 -227T274 -282Q396 -282 519
-141Q640 -3 640 121Q640 191 599 254Q613 307 682 462L689 464L697 459Q701 387 722 361Q747 328 816 328Q850 328 911 338Q986 665 1242 828Q1402 930 1476 930Q1490 930 1490 906Q1490 747 1298 473Q1347 483 1442 540Q1527 592 1574 634ZM1372 722L1363 731Q1338
731 1236 677Q1111 611 1057 544Q1013 491 953 347Q1069 382 1198 496Q1332 613 1372 722Z" />
<glyph unicode="&#x635;" glyph-name="uni0635" horiz-adv-x="1296" arabic-form="isolated" d="M1607 1406Q1607 1179 1440 949Q1280 728 1065 633Q1048 539 1050 512L1038 501L1028 510L1036 620Q952 590 844 590Q810 384 684 188Q530 -50 350 -50Q151 -50 151
220Q151 566 416 803Q473 855 739 1030Q959 1175 1019 1263L1030 1269L1034 1258Q1013 1186 890 1086Q823 1032 647 914Q493 811 447 766Q196 520 196 326Q196 132 374 132Q485 132 625 272Q761 410 761 508Q761 617 681 690Q685 727 700 795Q718 876 731 884Q777
818 800 800Q837 772 905 772Q964 772 1056 805Q1099 983 1137 1065Q1192 1184 1300 1282Q1348 1325 1446 1372T1592 1419Q1607 1419 1607 1406ZM1499 1207L1494 1218Q1351 1190 1231 1078Q1101 957 1091 820Q1186 862 1326 987Q1480 1125 1499 1207Z" />
<glyph unicode="&#x636;" glyph-name="uniFEC0" horiz-adv-x="969" arabic-form="medial" d="M877 1388Q844 1330 784 1253L695 1314Q709 1345 785 1455Q819 1441 839 1429Q877 1406 877 1388ZM1146 631L1095 440Q989 372 852 372Q694 372 629 568Q550 528 496
516Q491 459 479 393L474 391L469 393Q468 452 471 510Q356 478 202 478L175 483Q155 464 112 431L162 616L272 742Q275 726 275 708Q275 648 216 552H254Q319 552 489 630Q525 768 547 827Q592 949 650 997Q695 1035 843 1091Q980 1143 1023 1143Q1029 1143 1038
1141Q1055 1125 1055 1090Q1055 1073 1025 994Q938 764 695 606Q769 539 845 539Q1026 539 1146 631ZM967 962Q967 968 963 974L945 977Q898 977 772 927Q638 874 597 830Q553 781 521 645Q701 731 857 856Q967 944 967 962Z" />
<glyph unicode="&#x636;" glyph-name="uniFEBE" horiz-adv-x="1392" arabic-form="terminal" d="M1107 1099Q1065 1010 1013 963L925 1025Q957 1080 1015 1166Q1048 1149 1067 1138Q1107 1113 1107 1099ZM1574 634L1522 441Q1470 402 1363 358Q1250 312 1195 314Q980
163 889 163L833 -45L819 -55L812 -45Q826 22 855 154Q809 144 778 144Q745 144 732 154Q702 68 634 -99Q567 -238 464 -338Q336 -462 208 -462Q101 -462 47 -378Q1 -307 1 -194Q1 -119 25 -27Q80 185 247 333Q330 406 584 557Q811 691 919 809L930 811L933 807Q928
782 862 713Q779 627 551 487T235 255Q91 105 91 -89Q91 -173 141 -227T274 -282Q396 -282 519 -141Q640 -3 640 121Q640 191 599 254Q613 307 682 462L689 464L697 459Q701 387 722 361Q747 328 816 328Q850 328 911 338Q986 665 1242 828Q1402 930 1476 930Q1490
930 1490 906Q1490 747 1298 473Q1347 483 1442 540Q1527 592 1574 634ZM1372 722L1363 731Q1338 731 1236 677Q1111 611 1057 544Q1013 491 953 347Q1069 382 1198 496Q1332 613 1372 722Z" />
<glyph unicode="&#x636;" glyph-name="uni0636" horiz-adv-x="1296" arabic-form="isolated" d="M1119 1551Q1065 1447 1027 1417L937 1478Q964 1528 1028 1619Q1062 1604 1081 1592Q1119 1569 1119 1551ZM1607 1406Q1607 1179 1440 949Q1280 728 1065 633Q1048
539 1050 512L1038 501L1028 510L1036 620Q952 590 844 590Q810 384 684 188Q530 -50 350 -50Q151 -50 151 220Q151 566 416 803Q473 855 739 1030Q959 1175 1019 1263L1030 1269L1034 1258Q1013 1186 890 1086Q823 1032 647 914Q493 811 447 766Q196 520 196 326Q196
132 374 132Q485 132 625 272Q761 410 761 508Q761 617 681 690Q685 727 700 795Q718 876 731 884Q777 818 800 800Q837 772 905 772Q964 772 1056 805Q1099 983 1137 1065Q1192 1184 1300 1282Q1348 1325 1446 1372T1592 1419Q1607 1419 1607 1406ZM1499 1207L1494
1218Q1351 1190 1231 1078Q1101 957 1091 820Q1186 862 1326 987Q1480 1125 1499 1207Z" />
<glyph unicode="&#x637;" glyph-name="uniFEC4" horiz-adv-x="670" arabic-form="medial" d="M846 630L795 440Q697 377 590 377Q492 377 426 444Q364 506 347 606Q302 569 217 505Q215 457 197 401L191 405L185 483Q160 464 112 431L162 616L200 651Q322 1083
322 1236Q322 1544 235 1589Q203 1588 110 1352L102 1346L93 1355Q106 1456 152 1573Q208 1717 273 1753Q286 1752 313 1723Q391 1640 391 1398Q391 1281 323 993Q390 1050 507 1114Q642 1187 706 1187Q749 1187 749 1152Q749 1137 703 1028Q651 906 579 822Q538
774 406 657Q406 592 484 559Q543 534 619 534Q672 534 740 563T846 630ZM655 1020L648 1031Q581 1031 454 957Q344 892 281 830L240 679L476 841Q654 972 655 1020Z" />
<glyph unicode="&#x637;" glyph-name="uniFEC2" horiz-adv-x="1054" arabic-form="terminal" d="M1233 630L1182 441Q1027 329 570 224Q559 182 525 122L517 127L538 217Q399 195 221 195Q141 195 71 208L67 217Q75 232 100 239Q172 248 308 268Q428 289 580 365Q650
635 728 727Q783 886 783 996Q783 1056 762 1178Q739 1311 717 1350Q645 1124 573 857Q569 837 559 799Q546 764 523 758L521 767Q574 988 628 1210Q700 1482 781 1629Q823 1573 848 1390Q866 1251 866 1137Q866 1090 835 953Q803 812 783 779Q1002 906 1065 906Q1073
885 1073 848Q1073 823 1053 751Q995 543 842 413Q892 427 1042 511T1233 630ZM959 693Q796 644 741 595T629 391Q925 529 959 693Z" />
<glyph unicode="&#x637;" glyph-name="uni0637" horiz-adv-x="1187" arabic-form="isolated" d="M1437 1090Q1437 1080 1422 1022Q1365 791 1186 558Q993 305 750 165Q729 94 698 -46L692 -49L680 -50Q668 -51 668 -39Q668 -7 679 47L697 133Q434 4 5 4L-9 11Q49
34 181 71Q503 160 736 313Q778 474 871 670Q908 778 940 937Q974 1109 974 1212Q974 1337 930 1424Q880 1339 831 1203Q792 1088 752 973Q749 964 740 961L733 972Q757 1108 842 1365Q937 1650 994 1717Q997 1726 1006 1726Q1033 1705 1050 1588Q1062 1499 1062
1433Q1062 1079 937 773Q1081 954 1412 1117Q1437 1121 1437 1090ZM1289 876L1279 884Q1047 722 991 668Q858 541 808 363Q941 462 1083 602Q1268 785 1289 876Z" />
<glyph unicode="&#x638;" glyph-name="uniFEC8" horiz-adv-x="670" arabic-form="medial" d="M772 1555Q724 1467 678 1419L589 1481Q613 1533 681 1623Q772 1587 772 1555ZM846 630L795 440Q697 377 590 377Q492 377 426 444Q364 506 347 606Q302 569 217 505Q215
457 197 401L191 405L185 483Q160 464 112 431L162 616L200 651Q322 1083 322 1236Q322 1544 235 1589Q203 1588 110 1352L102 1346L93 1355Q106 1456 152 1573Q208 1717 273 1753Q286 1752 313 1723Q391 1640 391 1398Q391 1281 323 993Q390 1050 507 1114Q642
1187 706 1187Q749 1187 749 1152Q749 1137 703 1028Q651 906 579 822Q538 774 406 657Q406 592 484 559Q543 534 619 534Q672 534 740 563T846 630ZM655 1020L648 1031Q581 1031 454 957Q344 892 281 830L240 679L476 841Q654 972 655 1020Z" />
<glyph unicode="&#x638;" glyph-name="uniFEC6" horiz-adv-x="1054" arabic-form="terminal" d="M1111 1215Q1084 1165 1070 1143Q1043 1101 1018 1080L928 1141L1019 1282Q1111 1246 1111 1215ZM1233 630L1182 441Q1027 329 570 224Q559 182 525 122L517 127L538
217Q399 195 221 195Q141 195 71 208L67 217Q75 232 100 239Q172 248 308 268Q428 289 580 365Q650 635 728 727Q783 886 783 996Q783 1056 762 1178Q739 1311 717 1350Q645 1124 573 857Q569 837 559 799Q546 764 523 758L521 767Q574 988 628 1210Q700 1482 781
1629Q823 1573 848 1390Q866 1251 866 1137Q866 1090 835 953Q803 812 783 779Q1002 906 1065 906Q1073 885 1073 848Q1073 823 1053 751Q995 543 842 413Q892 427 1042 511T1233 630ZM959 693Q796 644 741 595T629 391Q925 529 959 693Z" />
<glyph unicode="&#x638;" glyph-name="uni0638" horiz-adv-x="1187" arabic-form="isolated" d="M1425 1398Q1367 1293 1331 1264L1242 1325Q1273 1385 1333 1466Q1377 1448 1388 1442Q1422 1422 1425 1398ZM1437 1090Q1437 1080 1422 1022Q1365 791 1186 558Q993
305 750 165Q729 94 698 -46L692 -49L680 -50Q668 -51 668 -39Q668 -7 679 47L697 133Q434 4 5 4L-9 11Q49 34 181 71Q503 160 736 313Q778 474 871 670Q908 778 940 937Q974 1109 974 1212Q974 1337 930 1424Q880 1339 831 1203Q792 1088 752 973Q749 964 740
961L733 972Q757 1108 842 1365Q937 1650 994 1717Q997 1726 1006 1726Q1033 1705 1050 1588Q1062 1499 1062 1433Q1062 1079 937 773Q1081 954 1412 1117Q1437 1121 1437 1090ZM1289 876L1279 884Q1047 722 991 668Q858 541 808 363Q941 462 1083 602Q1268 785
1289 876Z" />
<glyph unicode="&#x639;" glyph-name="uniFECC" horiz-adv-x="475" arabic-form="medial" d="M654 634L602 441Q515 385 437 385Q313 385 262 569Q168 469 111 430L161 615L194 649Q172 671 144 671Q95 671 80 665Q80 693 114 782Q124 808 146 848Q182 887 349
887Q466 887 466 823Q466 765 367 657Q394 552 481 552Q561 552 654 634Z" />
<glyph unicode="&#x639;" glyph-name="uniFECA" horiz-adv-x="915" arabic-form="terminal" d="M1091 630L1040 440Q911 362 829 362Q728 362 679 490L367 256Q116 67 116 36Q116 -6 254 -6Q438 -6 690 94Q927 189 1083 313H1088Q1076 251 840 81Q710 -13 523
-90Q314 -176 179 -176Q10 -176 10 -100Q10 50 277 279Q384 370 661 562Q658 609 652 626Q640 662 605 665Q560 669 560 678Q560 701 585 762T627 845Q641 863 724 878Q794 890 834 890Q935 890 935 828Q935 740 770 577Q802 532 912 532Q966 532 1091 630Z" />
<glyph unicode="&#x639;" glyph-name="uni0639" horiz-adv-x="957" arabic-form="isolated" d="M1290 687L1282 658Q1269 621 1176 519Q682 -26 223 -26Q74 -26 74 108Q74 266 323 534Q393 610 562 761Q478 778 460 785Q404 808 404 861Q404 882 423 934Q467 1053
576 1146Q694 1246 814 1246Q886 1246 886 1166Q886 1119 839 974Q901 1000 1002 1073Q1079 1132 1160 1189L1163 1181Q1141 1125 1082 1029L793 815Q775 752 756 690Q724 591 701 592L696 600L744 779Q638 699 432 534Q158 299 158 222Q158 185 216 165Q259 150
305 150Q710 150 1131 531Q1183 584 1290 687ZM796 1017Q796 1040 776 1055T731 1071Q686 1071 616 1039Q539 1004 526 967Q537 931 666 931Q717 931 787 951Q796 984 796 1017Z" />
<glyph unicode="&#x63a;" glyph-name="uniFED0" horiz-adv-x="475" arabic-form="medial" d="M393 1214Q339 1118 300 1079Q269 1098 210 1140Q220 1160 302 1281Q354 1264 368 1246Q393 1233 393 1214ZM654 634L602 441Q515 385 437 385Q313 385 262 569Q168
469 111 430L161 615L194 649Q172 671 144 671Q95 671 80 665Q80 693 114 782Q124 808 146 848Q182 887 349 887Q466 887 466 823Q466 765 367 657Q394 552 481 552Q561 552 654 634Z" />
<glyph unicode="&#x63a;" glyph-name="uniFECE" horiz-adv-x="915" arabic-form="terminal" d="M844 1240Q812 1183 750 1105L661 1166L751 1307Q785 1293 805 1281Q844 1258 844 1240ZM1091 630L1040 440Q911 362 829 362Q728 362 679 490L367 256Q116 67 116
36Q116 -6 254 -6Q438 -6 690 94Q927 189 1083 313H1088Q1076 251 840 81Q710 -13 523 -90Q314 -176 179 -176Q10 -176 10 -100Q10 50 277 279Q384 370 661 562Q658 609 652 626Q640 662 605 665Q560 669 560 678Q560 701 585 762T627 845Q641 863 724 878Q794
890 834 890Q935 890 935 828Q935 740 770 577Q802 532 912 532Q966 532 1091 630Z" />
<glyph unicode="&#x63a;" glyph-name="uni063A" horiz-adv-x="946" arabic-form="isolated" d="M812 1588Q760 1487 720 1454L630 1515Q648 1551 721 1657Q812 1621 812 1588ZM1290 687L1282 658Q1269 621 1176 519Q682 -26 223 -26Q74 -26 74 108Q74 266 323
534Q393 610 562 761Q478 778 460 785Q404 808 404 861Q404 882 423 934Q467 1053 576 1146Q694 1246 814 1246Q886 1246 886 1166Q886 1119 839 974Q901 1000 1002 1073Q1079 1132 1160 1189L1163 1181Q1141 1125 1082 1029L793 815Q775 752 756 690Q724 591 701
592L696 600L744 779Q638 699 432 534Q158 299 158 222Q158 185 216 165Q259 150 305 150Q710 150 1131 531Q1183 584 1290 687ZM796 1017Q796 1040 776 1055T731 1071Q686 1071 616 1039Q539 1004 526 967Q537 931 666 931Q717 931 787 951Q796 984 796 1017Z"
/>
<glyph unicode="&#x640;" glyph-name="uni0640" horiz-adv-x="385" d="M554 625L503 434H115L166 625H554Z" />
<glyph unicode="&#x641;" glyph-name="uniFED4" horiz-adv-x="531" arabic-form="medial" d="M449 1292Q397 1189 355 1157L266 1219L357 1360Q391 1343 409 1332Q449 1307 449 1292ZM708 634L656 441Q559 378 444 378Q374 378 316 420Q281 446 220 517Q154 459
106 426L157 618Q152 636 152 656Q152 720 203 810Q251 894 307 938T391 982Q449 982 449 855Q449 758 311 600Q346 549 470 549Q598 549 708 634ZM380 800Q380 839 328 839Q309 839 264 799T219 741Q219 717 253 677Q380 743 380 800Z" />
<glyph unicode="&#x641;" glyph-name="uniFED2" horiz-adv-x="2531" arabic-form="terminal" d="M2709 631L2658 441Q2482 312 2334 286Q2025 35 1630 -113Q1221 -267 834 -267Q574 -267 359 -163Q90 -34 90 197Q90 432 307 634Q534 846 888 846Q974 846 1148
833T1410 819Q1744 819 1971 979Q2059 1041 2091 1111Q2062 1125 2011 1179Q2049 1231 2133 1316Q2168 1287 2218 1223Q2129 1068 1983 954Q1834 837 1660 791Q1514 752 1302 752Q1221 752 1060 760T817 769Q530 769 332 608Q173 479 173 294Q173 75 471 -31Q683
-106 955 -106Q1230 -106 1608 25Q1963 149 2215 317L2208 350Q2208 426 2281 566Q2360 718 2424 718Q2504 718 2504 574Q2504 537 2485 488Q2564 530 2602 552Q2666 592 2709 631ZM2433 483Q2433 560 2380 560Q2360 560 2320 518T2279 455Q2279 437 2321 437Q2340
437 2406 452Q2433 473 2433 483Z" />
<glyph unicode="&#x641;" glyph-name="uni0641" horiz-adv-x="1771" arabic-form="isolated" d="M1924 736Q1924 694 1862 558Q1824 474 1795 435Q1637 221 1251 57Q887 -97 599 -97Q122 -97 122 275Q122 443 239 581Q334 693 483 763Q587 812 800 862Q1071 925
1126 943Q1382 1024 1570 1187Q1540 1206 1489 1246Q1523 1293 1596 1377Q1634 1357 1656 1342Q1697 1314 1698 1292L1656 1220Q1625 1173 1602 1162L1585 1177Q1365 961 1137 894L841 810Q644 752 518 697Q210 562 210 355Q210 189 393 115Q523 61 718 61Q963
61 1324 219Q1711 389 1821 577Q1827 587 1827 598Q1827 638 1796 659Q1754 599 1677 599Q1630 599 1620 628Q1636 697 1682 783Q1739 891 1785 891Q1822 891 1873 836T1924 736Z" />
<glyph unicode="&#x642;" glyph-name="uniFED8" horiz-adv-x="531" arabic-form="medial" d="M546 1415Q541 1389 529 1338Q510 1257 257 1131L256 1143Q256 1169 318 1292Q400 1325 546 1415ZM708 634L656 441Q559 378 444 378Q374 378 316 420Q281 446 220 517Q154
459 106 426L157 618Q152 636 152 656Q152 720 203 810Q251 894 307 938T391 982Q449 982 449 855Q449 758 311 600Q346 549 470 549Q598 549 708 634ZM380 800Q380 839 328 839Q309 839 264 799T219 741Q219 717 253 677Q380 743 380 800Z" />
<glyph unicode="&#x642;" glyph-name="uniFED6" horiz-adv-x="924" arabic-form="terminal" d="M1093 630L1042 441Q994 406 933 383Q924 226 760 -5Q586 -252 442 -252Q256 -252 256 31Q256 142 284 230Q300 278 300 297Q300 321 270 321Q226 321 154 243Q94
179 65 123L57 117L49 124Q57 195 84 266Q86 272 135 342Q232 482 311 482Q367 482 367 412Q367 357 339 250T310 87Q310 -61 461 -61Q586 -61 707 79Q813 202 848 338Q731 292 700 292Q680 292 664 307T647 342Q647 548 758 606Q770 607 779 607Q840 607 903 518Q978
543 1093 630Z" />
<glyph unicode="&#x642;" glyph-name="uni0642" horiz-adv-x="849" arabic-form="isolated" d="M1070 1635Q1054 1532 868 1340Q730 1209 592 1077Q465 955 341 776Q185 549 185 423Q185 155 419 155Q573 155 740 364Q900 564 900 723Q900 790 851 825Q786 712
705 712Q616 712 616 816L658 959Q691 1071 786 1071Q841 1071 892 1018Q962 945 962 771Q962 533 785 276Q594 -2 369 -2Q141 -2 141 343Q141 664 542 1075Q584 1118 759 1278Q895 1401 966 1489Q926 1489 838 1468T711 1447Q697 1447 685 1449Q692 1467 783 1594Q1011
1635 1070 1635Z" />
<glyph unicode="&#x643;" glyph-name="uniFEDC" horiz-adv-x="537" arabic-form="medial" d="M970 2150Q733 1687 725 1514L707 1502Q697 1546 699 1623Q615 1515 476 1404Q317 1275 211 1253L199 1257Q305 1323 506 1478Q635 1599 754 1793Q803 1874 948 2147L961
2155L970 2150ZM714 630L663 440Q569 374 463 374Q353 374 323 485Q312 525 308 685Q233 517 110 429L160 616Q257 697 283 745Q315 802 315 916Q315 958 310 1041T305 1166Q305 1186 326 1243T360 1314L369 1310Q380 1196 381 1005Q383 778 387 700Q391 619 411
591Q439 551 516 551Q622 551 714 630Z" />
<glyph unicode="&#x643;" glyph-name="uniFEDA" horiz-adv-x="1808" arabic-form="terminal" d="M2391 2294Q2266 2135 2266 1918Q2266 1812 2288 1715L2272 1688Q2212 1830 2212 1935Q2212 1992 2227 2049Q2045 1748 1934 1596Q1741 1332 1565 1213Q1465 1145
1375 1096Q1405 1016 1405 1005Q1405 999 1397 996L1392 997L1356 1086Q1173 1010 1062 1010L1057 1014L1064 1026Q1210 1079 1319 1141Q1185 1348 1039 1348Q819 1348 642 1236T366 924Q279 748 279 601Q279 292 632 292Q841 292 1106 484Q1301 627 1491 844Q1676
1056 1780 1056Q1807 1056 1807 997Q1807 988 1778 815Q1773 785 1773 700Q1773 553 1839 553Q1871 553 1918 579Q1962 603 1984 630L1933 440Q1841 380 1791 380Q1736 380 1709 448Q1689 498 1689 563Q1689 614 1715 712T1742 861Q1742 885 1717 885Q1649 885
1456 684Q1188 404 1068 310Q813 109 591 109Q411 109 306 228Q206 342 206 525Q206 713 283 873Q378 1070 574 1221Q786 1384 989 1384Q1113 1384 1198 1321Q1263 1272 1342 1153Q1585 1290 1769 1483Q1924 1645 2096 1913Q2159 2015 2223 2117Q2308 2246 2374
2294L2386 2295L2391 2294ZM1035 911L979 848Q796 784 763 733L750 738Q757 787 836 835Q786 855 763 880Q767 924 824 969T928 1015Q957 1015 957 980Q957 971 953 964L908 922Q889 952 870 952Q850 952 833 939T816 912Q816 882 874 882Q936 882 1025 922L1035
911Z" />
<glyph unicode="&#x643;" glyph-name="uni0643" horiz-adv-x="1092" arabic-form="isolated" d="M1683 2263Q1623 2154 1535 1990Q1468 1855 1399 1680L1378 1657H1373Q1433 1884 1490 1992Q1295 1832 1160 1753Q1015 1670 786 1589Q685 1553 627 1553L620 1560L625
1566Q875 1651 1023 1733Q1183 1821 1374 1985Q1450 2050 1526 2116Q1614 2196 1660 2264L1673 2270L1683 2263ZM1433 1328Q1425 1287 1352 1197Q1264 1090 1196 1038Q1143 999 1004 927Q1004 607 882 307Q811 131 702 20Q565 -117 399 -117Q196 -117 196 155Q196
344 311 519Q424 690 661 818Q687 1010 712 1201Q745 1421 785 1581Q823 1567 889 1426Q1004 1181 1002 983Q1132 1038 1233 1130Q1278 1171 1419 1331Q1423 1335 1431 1335L1433 1328ZM616 942L560 879Q377 815 344 764L331 769Q338 818 417 866Q367 886 344 911Q348
955 405 1000T509 1046Q538 1046 538 1011Q538 1002 534 995L489 953Q470 983 451 983Q431 983 414 970T397 943Q397 913 455 913Q517 913 606 953L616 942ZM930 951Q930 1118 788 1312Q747 1217 707 841Q781 877 930 951ZM942 807Q941 877 941 894Q857 856 691
773Q670 597 646 505Q643 494 631 495L622 503Q639 609 654 757Q445 648 348 495Q247 337 247 222Q247 146 312 97Q371 53 450 53Q550 53 660 142Q767 228 831 355Q946 586 942 807Z" />
<glyph unicode="&#x644;" glyph-name="uniFEE0" horiz-adv-x="423" arabic-form="medial" d="M599 630L548 440Q484 390 413 390Q304 390 307 587L308 685Q233 517 110 429L160 616Q259 698 285 748Q316 805 316 923Q316 974 311 1074T306 1226Q306 1252 326 1312T362
1388L371 1384Q381 1211 381 688Q381 568 464 568Q527 568 599 630Z" />
<glyph unicode="&#x644;" glyph-name="uniFEDE" horiz-adv-x="1074" arabic-form="terminal" d="M1440 1157Q1431 1134 1228 1051Q1072 987 973 954Q981 768 991 719Q1023 565 1123 565Q1168 565 1250 631L1199 441Q1129 388 1073 388Q966 388 931 532Q823 117
542 12Q459 -19 398 -19Q298 -19 214 65T129 249Q129 503 237 655Q341 800 581 898Q636 921 742 942Q857 966 905 983V1024Q905 1062 889 1188Q872 1320 863 1342Q882 1412 918 1504Q974 1295 971 1002Q1208 1066 1436 1162L1440 1157ZM906 869V933Q596 851 445
763Q187 615 187 385Q187 281 242 214Q300 142 402 142Q578 142 706 257Q822 361 878 538Q908 633 906 869Z" />
<glyph unicode="&#x644;" glyph-name="uni0644" horiz-adv-x="1029" arabic-form="isolated" d="M1723 1609L1719 1597Q1440 1451 1159 1337Q1196 1155 1196 988Q1196 668 993 342Q885 169 796 92Q669 -17 506 -17Q317 -17 226 146Q155 274 155 480Q155 622 246
776Q328 916 456 1019Q603 1138 902 1271Q902 1296 901 1380Q899 1457 899 1510Q899 1691 955 1868Q1080 1657 1152 1373Q1381 1458 1714 1616L1723 1609ZM1062 1340Q1032 1438 1019 1472Q992 1546 962 1597Q948 1580 948 1291L1062 1340ZM1123 945Q1123 1102 1072
1304L947 1253Q940 1215 930 961Q922 750 894 703L883 698L872 705Q890 809 895 968Q899 1100 902 1232Q685 1134 488 973Q205 741 205 475Q205 341 283 251Q366 157 498 157Q747 157 935 399T1123 945Z" />
<glyph unicode="&#x645;" glyph-name="uniFEE4" horiz-adv-x="488" arabic-form="medial" d="M661 628L610 437Q573 414 531 414Q460 414 419 477Q335 373 314 373Q291 373 246 426Q204 475 196 503Q173 472 110 429L160 616Q206 659 298 744Q308 744 397 669T549
594Q612 594 661 628Z" />
<glyph unicode="&#x645;" glyph-name="uniFEE2" horiz-adv-x="534" arabic-form="terminal" d="M710 628L660 441Q545 369 430 298Q272 189 272 138Q272 127 284 127Q314 127 374 191Q415 235 455 280Q462 275 462 263Q462 249 447 185Q428 103 426 97Q413 57
383 18Q340 -38 193 -144Q25 -265 -33 -323Q-142 -431 -142 -528Q-142 -626 20 -681Q153 -727 320 -727Q594 -727 686 -718L688 -723Q688 -752 523 -773Q395 -789 310 -789Q-203 -789 -203 -529Q-203 -410 -106 -261Q-19 -128 91 -48L214 42Q206 66 206 95Q206
173 268 278Q329 379 397 423Q605 556 710 628Z" />
<glyph unicode="&#x645;" glyph-name="uni0645" horiz-adv-x="924" arabic-form="isolated" d="M1297 1724Q1264 1486 1029 1260Q819 1081 608 901Q186 509 186 220Q186 36 470 -71Q687 -153 906 -153Q990 -153 1074 -144L1059 -160Q927 -193 881 -193Q584 -193
395 -110Q133 5 133 263Q133 601 532 985Q677 1124 962 1343Q956 1352 956 1379Q956 1395 992 1512Q1089 1512 1156 1565Q1197 1596 1242 1664Q1279 1721 1297 1724Z" />
<glyph unicode="&#x646;" glyph-name="uniFEE8" horiz-adv-x="307" arabic-form="medial" d="M336 1168Q281 1059 242 1033L153 1095Q170 1128 245 1237Q272 1225 299 1212Q328 1195 336 1168ZM481 630L430 440Q346 379 265 379Q179 379 139 452L112 431L162 616Q216
678 272 742Q275 727 275 708Q275 635 197 528Q214 517 255 517Q303 517 376 555Q441 590 481 630Z" />
<glyph unicode="&#x646;" glyph-name="uniFEE6" horiz-adv-x="898" arabic-form="terminal" d="M1076 631L1025 441Q924 365 861 370L842 282Q807 120 679 -43Q533 -229 388 -229Q205 -229 205 -8Q205 120 302 336Q173 331 97 205L91 203L85 209Q85 309 169 411Q257
519 354 519Q398 519 398 480Q398 442 343 314T287 120Q287 45 331 0T451 -46Q542 -46 649 56Q750 152 774 245Q791 311 791 365Q791 429 742 478Q740 544 820 660Q850 647 894 532Q965 532 1076 631Z" />
<glyph unicode="&#x646;" glyph-name="uni0646" horiz-adv-x="672" arabic-form="isolated" d="M898 1469Q898 1445 874 1396Q829 1301 592 1054Q206 650 206 382Q206 322 252 282Q295 243 356 243Q444 243 573 362T702 569Q702 647 591 647Q517 647 458 560Q537
560 560 534Q556 458 486 372Q434 382 358 406Q374 464 419 568Q478 704 503 740Q567 836 656 836Q714 836 747 782Q775 737 775 675Q775 592 731 502Q627 289 575 224Q458 78 292 78Q147 78 147 304Q147 526 282 738Q362 865 565 1078Q661 1179 758 1280Q804 1332
849 1410Q858 1428 879 1469L889 1475L898 1469Z" />
<glyph unicode="&#x647;" glyph-name="uniFEEC" horiz-adv-x="391" arabic-form="medial" d="M568 630L517 440Q492 423 427 386Q313 320 245 209Q175 95 175 -34Q158 -66 125 -106Q60 -11 60 142Q60 262 162 616Q214 677 272 742Q275 726 275 708Q275 655 238
582Q205 515 163 473Q125 310 125 244Q125 176 144 154Q168 244 239 353Q303 451 388 512L568 630Z" />
<glyph unicode="&#x647;" glyph-name="uniFEEA" horiz-adv-x="625" arabic-form="terminal" d="M804 625L754 436Q701 413 637 413Q583 413 527 465T444 518Q400 518 314 449Q256 397 198 346Q212 433 241 505Q262 557 364 638T520 719Q555 719 594 656T692 592Q748
592 804 625Z" />
<glyph unicode="&#x647;" glyph-name="uni0647" horiz-adv-x="514" arabic-form="isolated" d="M648 1188Q648 975 490 807Q429 742 392 729Q383 683 297 618Q195 543 91 543Q196 598 249 701Q234 722 234 753Q234 835 291 957Q355 1095 424 1095Q452 1095 471
1049Q487 1011 487 978L462 884Q502 910 536 958Q573 1011 573 1054Q573 1118 540 1175Q502 1240 442 1240Q371 1240 295 1145Q228 1060 212 981Q204 927 185 819L178 818Q175 844 175 883Q175 1054 259 1218Q359 1414 512 1414Q648 1414 648 1188ZM415 856Q415
880 398 904T357 929Q340 929 323 908T306 868Q306 821 350 821Q383 821 415 856Z" />
<glyph unicode="&#x648;" glyph-name="uniFEEE" horiz-adv-x="900" arabic-form="terminal" d="M1118 631L1067 441Q1003 390 836 319Q802 170 675 0Q543 -178 411 -235Q300 -283 132 -283Q68 -283 -58 -262Q-208 -238 -213 -211L-205 -205Q-175 -206 -110 -217Q-48
-227 -14 -227Q55 -227 188 -188Q477 -103 689 147Q763 234 773 299Q686 275 656 275Q565 275 565 335Q565 398 616 494Q673 601 729 601Q778 601 817 563T856 476Q1024 547 1118 631Z" />
<glyph unicode="&#x648;" glyph-name="uni0648" horiz-adv-x="660" arabic-form="isolated" d="M852 873Q852 667 685 411Q514 150 330 88Q197 43 -54 43Q-127 43 -127 62Q-127 71 -48 91Q69 120 127 140Q306 202 465 329T719 617Q784 727 784 799Q784 819 769
862Q713 800 639 800Q606 800 579 820T552 872Q552 939 631 1082Q655 1126 701 1126Q852 1126 852 873Z" />
<glyph unicode="&#x649;" glyph-name="uniFBE9" horiz-adv-x="307" arabic-form="medial" d="M481 630L430 440Q346 379 265 379Q179 379 139 452L112 431L162 616Q216 678 272 742Q275 727 275 708Q275 635 197 528Q214 517 255 517Q303 517 376 555Q441 590 481 630Z" />
<glyph unicode="&#x649;" glyph-name="uniFEF0" horiz-adv-x="736" arabic-form="terminal" d="M932 630L880 439Q796 387 712 334Q559 232 559 199Q559 138 682 92Q768 61 768 6Q768 -203 593 -444Q406 -702 206 -702Q-24 -702 -24 -406Q-24 -239 44 -80Q92 33
204 195Q357 418 389 472Q448 572 518 806L534 799Q523 670 422 452Q382 366 270 207Q148 36 106 -45Q29 -191 29 -317Q29 -423 98 -482Q163 -537 271 -537Q370 -537 541 -374T713 -122Q713 -98 659 -81Q584 -58 560 -41Q506 -4 506 71Q506 324 621 416Q726 488
932 630Z" />
<glyph unicode="&#x649;" glyph-name="uni0649" horiz-adv-x="900" arabic-form="isolated" d="M1145 1660Q1030 1431 883 1300Q769 1201 655 1101Q510 972 422 870Q298 724 251 562Q216 440 216 259Q216 36 439 36Q524 36 654 131T784 295Q784 323 714 332Q614
343 583 357Q513 388 513 471Q513 643 641 842Q683 909 752 978Q840 1067 891 1067Q969 1067 1012 1012Q1007 978 979 922Q947 860 924 851L915 864Q915 906 860 906Q787 906 690 802T593 625Q593 574 647 551Q676 539 759 526Q831 516 851 499Q880 475 880 410Q880
230 710 43Q536 -148 358 -148Q123 -148 123 201Q123 560 391 898Q478 1008 628 1139L886 1359Q998 1458 1131 1666L1143 1673L1145 1660Z" />
<glyph unicode="&#x64a;" glyph-name="uniFEF4" horiz-adv-x="307" arabic-form="medial" d="M481 630L430 440Q346 379 265 379Q179 379 139 452L112 431L162 616Q216 678 272 742Q275 727 275 708Q275 635 197 528Q214 517 255 517Q303 517 376 555Q441 590
481 630ZM313 290Q287 177 250 140Q234 124 111 54Q82 37 23 6Q22 37 87 169Q105 180 163 205Q194 218 313 290Z" />
<glyph unicode="&#x64a;" glyph-name="uniFEF2" horiz-adv-x="753" arabic-form="terminal" d="M932 630L880 439Q796 387 712 334Q559 232 559 199Q559 138 682 92Q768 61 768 6Q768 -203 593 -444Q406 -702 206 -702Q-24 -702 -24 -406Q-24 -239 44 -80Q92 33
204 195Q357 418 389 472Q448 572 518 806L534 799Q523 670 422 452Q382 366 270 207Q148 36 106 -45Q29 -191 29 -317Q29 -423 98 -482Q163 -537 271 -537Q370 -537 541 -374T713 -122Q713 -98 659 -81Q584 -58 560 -41Q506 -4 506 71Q506 324 621 416Q726 488
932 630ZM372 -736Q348 -839 323 -869Q307 -890 207 -952Q155 -985 82 -1020L81 -1013Q81 -987 144 -857Q220 -819 372 -736Z" />
<glyph unicode="&#x64a;" glyph-name="uni064A" horiz-adv-x="900" arabic-form="isolated" d="M1145 1660Q1030 1431 883 1300Q769 1201 655 1101Q510 972 422 870Q298 724 251 562Q216 440 216 259Q216 36 439 36Q524 36 654 131T784 295Q784 323 714 332Q614
343 583 357Q513 388 513 471Q513 643 641 842Q683 909 752 978Q840 1067 891 1067Q969 1067 1012 1012Q1007 978 979 922Q947 860 924 851L915 864Q915 906 860 906Q787 906 690 802T593 625Q593 574 647 551Q676 539 759 526Q831 516 851 499Q880 475 880 410Q880
230 710 43Q536 -148 358 -148Q123 -148 123 201Q123 560 391 898Q478 1008 628 1139L886 1359Q998 1458 1131 1666L1143 1673L1145 1660ZM503 -265Q479 -370 455 -399Q438 -421 338 -482Q286 -515 214 -545Q214 -511 276 -386Q368 -347 503 -265Z" />
<glyph unicode="&#x64b;" glyph-name="uni064B" horiz-adv-x="0" d="M447 404Q426 336 389 318L40 146Q59 210 133 247L447 404ZM408 258Q387 190 350 172L0 0Q16 62 94 101L408 258Z" />
<glyph unicode="&#x64c;" glyph-name="uni064C" horiz-adv-x="0" d="M445 347Q445 313 379 215Q403 191 403 170Q403 149 381 86Q342 109 305 145Q209 71 176 52Q119 20 26 0Q106 103 106 143Q106 184 70 184Q28 184 0 108V138Q0 180 38 225T118 270Q165 270 165
220Q165 186 127 78Q178 91 275 168Q232 202 232 236Q232 291 287 350T396 409Q416 409 430 389T445 347ZM365 312Q365 342 335 342L316 336L303 319L302 310Q302 290 348 250Q365 285 365 312Z" />
<glyph unicode="&#x64d;" glyph-name="uni064D" horiz-adv-x="0" d="M447 0Q426 -68 389 -86L39 -258Q55 -196 133 -157L447 0ZM407 -147Q386 -215 349 -233L0 -405Q19 -341 93 -304L407 -147Z" />
<glyph unicode="&#x64e;" glyph-name="uni064E" horiz-adv-x="0" d="M408 258Q387 190 350 172L0 0Q16 62 94 101L408 258Z" />
<glyph unicode="&#x64f;" glyph-name="uni064F" horiz-adv-x="0" d="M429 383Q429 309 361 221L392 191L357 92Q325 114 291 144Q136 0 55 0Q39 0 0 12Q122 71 255 168Q215 206 215 235Q215 287 272 356T379 426Q429 426 429 383ZM348 294Q348 340 309 340L294
334Q283 321 283 304Q283 284 330 245Q348 276 348 294Z" />
<glyph unicode="&#x650;" glyph-name="uni0650" horiz-adv-x="0" d="M408 0Q387 -68 350 -86L0 -258Q16 -196 94 -157L408 0Z" />
<glyph unicode="&#x651;" glyph-name="uni0651" horiz-adv-x="0" d="M405 329Q406 242 368 162Q321 65 244 65Q210 65 186 86Q172 54 133 27T58 0Q32 0 15 25Q-1 47 -1 75Q-1 117 55 209L79 213Q65 167 65 128Q65 102 88 102Q146 102 222 264L241 270Q241 172
273 172Q331 172 379 319L405 329Z" />
<glyph unicode="&#x652;" glyph-name="uni0652" horiz-adv-x="0" d="M283 212Q283 134 222 67T82 0Q0 0 0 72Q0 153 57 229Q119 312 197 312Q232 312 259 279Q283 248 283 212ZM217 146Q217 170 185 198T128 226Q98 226 74 199T49 142Q49 99 127 99Q217 99 217 146Z" />
<glyph unicode="&#x653;" glyph-name="uni0653" horiz-adv-x="0" d="M634 105H525Q486 105 377 53T200 0Q159 0 85 28Q1 60 3 92Q122 67 164 67Q223 67 315 112T458 157Q558 157 634 105Z" />
<glyph unicode="&#x654;" glyph-name="uni0654" horiz-adv-x="0" d="M330 335Q327 320 309 285T280 242Q271 246 260 246Q253 246 237 240L230 221L240 206L280 207L304 206L312 196L316 177Q316 103 196 47Q95 0 10 0L0 3L2 12L124 54Q213 87 229 109L225 115L195
114Q156 113 156 152Q156 195 211 268T308 342Q315 342 330 335Z" />
<glyph unicode="&#x655;" glyph-name="uni0655" horiz-adv-x="0" d="M330 -7Q327 -22 309 -57T280 -100Q271 -96 260 -96Q253 -96 237 -102L230 -121L240 -136L280 -135L304 -136L312 -146L316 -165Q316 -239 196 -295Q95 -342 10 -342L0 -339L2 -330L124 -288Q213
-255 229 -233L225 -227L195 -228Q156 -229 156 -190Q156 -147 211 -74T308 0Q315 0 330 -7Z" />
<glyph unicode="&#x660;" glyph-name="uni0660" horiz-adv-x="946" d="M704 424Q642 306 602 213Q503 280 451 336Q491 428 573 559Q614 504 704 424Z" />
<glyph unicode="&#x661;" glyph-name="uni0661" horiz-adv-x="946" d="M691 571Q691 403 660 270Q636 170 565 -16H543Q596 186 596 418Q596 581 510 805Q557 905 617 999Q691 809 691 571Z" />
<glyph unicode="&#x662;" glyph-name="uni0662" horiz-adv-x="946" d="M970 983Q930 835 886 768Q815 662 694 662L629 668Q643 571 643 532Q643 388 612 256Q602 212 536 -10H507Q545 133 545 223Q545 433 526 543Q502 684 425 846L520 995Q609 821 729 821Q873
821 951 983H970Z" />
<glyph unicode="&#x663;" glyph-name="uni0663" horiz-adv-x="946" d="M1118 1001Q1039 707 852 707Q781 707 748 774Q651 677 577 677Q561 677 546 682Q552 624 552 584Q552 363 406 0H379Q448 204 448 415Q448 599 345 811L444 989Q516 829 610 829Q741 829
852 1001H864Q861 954 861 949Q861 866 944 866Q1034 866 1099 1001H1118Z" />
<glyph unicode="&#x664;" glyph-name="uni0664" horiz-adv-x="946" d="M860 1008L777 854Q601 790 601 746Q601 730 697 671T794 584Q794 569 633 432T472 270Q472 227 769 147L680 -6Q340 54 340 137Q340 241 633 485Q576 513 519 540Q444 584 444 627Q444 704
614 840Q735 938 860 1008Z" />
<glyph unicode="&#x665;" glyph-name="uni0665" horiz-adv-x="946" d="M904 581Q904 435 703 264Q629 201 482 201Q296 201 296 348Q296 442 440 617Q586 797 676 797Q759 797 831 730T904 581ZM806 451Q806 517 724 589T575 662Q523 662 459 583T394 450Q394
354 615 354Q806 354 806 451Z" />
<glyph unicode="&#x666;" glyph-name="uni0666" horiz-adv-x="946" d="M889 915Q756 642 756 351Q756 268 817 213L748 18Q645 42 645 188Q645 225 769 735Q647 705 582 705Q408 705 408 780Q408 870 458 975H478Q504 877 658 877Q763 877 889 915Z" />
<glyph unicode="&#x667;" glyph-name="uni0667" horiz-adv-x="946" d="M1090 977L1032 762Q766 620 519 12H486Q501 120 501 221Q501 371 468 504Q423 685 332 737L409 971Q542 908 552 587Q558 385 556 201Q873 879 1090 977Z" />
<glyph unicode="&#x668;" glyph-name="uni0668" horiz-adv-x="946" d="M892 241L815 7Q663 82 663 553Q663 604 665 680T667 777Q353 99 133 1L191 216Q339 289 497 547Q611 734 704 966H737Q722 859 722 760Q722 608 755 476Q799 296 892 241Z" />
<glyph unicode="&#x669;" glyph-name="uni0669" horiz-adv-x="946" d="M833 890Q833 789 789 595T745 315Q745 224 807 188L720 -35Q648 6 648 109Q648 289 725 547Q609 461 500 461Q381 461 381 574Q381 644 448 755Q506 851 569 912Q647 987 731 987Q833 987
833 890ZM741 718Q741 817 636 817Q578 817 525 789Q462 755 462 703Q462 625 580 625Q658 625 739 674Q741 711 741 718Z" />
<glyph unicode="&#x66a;" glyph-name="uni066A" horiz-adv-x="946" d="M572 1047Q572 1004 537 969T459 934Q390 934 390 999Q390 1042 426 1077T507 1112Q572 1112 572 1047ZM1081 1192L214 -133H146L1009 1192H1081ZM851 72Q851 28 817 -4T738 -37Q667 -37 667
25Q667 68 705 101T786 135Q851 135 851 72Z" />
<glyph unicode="&#x66b;" glyph-name="uni066B" horiz-adv-x="569" d="M410 144Q410 -41 132 -235L110 -202Q196 -136 232 -98Q292 -32 306 41Q206 41 206 124Q206 165 247 199T331 234Q410 234 410 144Z" />
<glyph unicode="&#x66c;" glyph-name="uni066C" horiz-adv-x="569" d="M410 144Q410 -41 132 -235L110 -202Q196 -136 232 -98Q292 -32 306 41Q206 41 206 124Q206 165 247 199T331 234Q410 234 410 144Z" />
<glyph unicode="&#x66d;" glyph-name="uni066D" horiz-adv-x="680" d="M928 1119Q928 1059 861 1059Q836 1059 685 1090L668 1061Q706 1030 743 999Q792 954 792 924Q792 902 771 883L738 872Q707 872 676 941L640 1041L609 1029Q604 961 598 893Q581 795 526
795Q495 795 495 825Q495 851 585 1029L572 1032L560 1041Q401 871 361 871Q347 871 335 883Q331 898 331 914Q331 942 546 1061Q542 1071 541 1090Q384 1059 356 1059Q309 1059 309 1089Q309 1148 380 1148Q417 1148 548 1115Q554 1129 569 1141Q436 1249 436
1280Q436 1299 455 1316T495 1334Q525 1334 556 1264Q575 1214 593 1164L628 1176Q634 1299 636 1312Q651 1410 703 1410Q722 1410 732 1394L736 1374Q736 1352 650 1172L675 1164Q721 1214 767 1263Q836 1332 869 1332Q901 1332 901 1302Q901 1265 813 1210Q807
1206 687 1141L696 1115Q843 1148 892 1148Q928 1148 928 1119ZM657 1115Q650 1139 629 1139Q614 1139 597 1124T580 1094Q580 1066 608 1066Q650 1066 657 1115Z" />
<glyph unicode="&#x670;" glyph-name="uni0670" horiz-adv-x="0" d="M143 193Q143 35 0 2Q9 21 68 84Q112 132 112 180Q112 238 58 339Q55 304 48 233L43 227Q32 249 32 291Q32 406 52 464Q143 305 143 193Z" />
<glyph unicode="&#x671;" glyph-name="uniFB51" horiz-adv-x="698" arabic-form="terminal" d="M729 1853Q729 1791 625 1711Q526 1634 461 1634Q450 1634 430 1637T399 1640Q344 1640 264 1560Q252 1562 252 1568L254 1587Q331 1719 401 1720Q405 1771 509 1841Q609
1908 663 1908Q729 1908 729 1853ZM869 628L818 437Q738 383 655 383Q543 383 501 509Q478 580 474 729L466 1031Q457 1371 457 1377Q457 1392 481 1462Q505 1529 515 1546H521Q522 1526 532 1029Q536 833 553 746Q592 552 705 552Q788 552 869 628ZM668 1853L653
1855Q608 1855 533 1806Q464 1762 431 1720H469Q524 1720 583 1762Q637 1801 668 1853Z" />
<glyph unicode="&#x671;" glyph-name="uni0671" horiz-adv-x="564" arabic-form="isolated" d="M533 1853Q533 1791 432 1713T265 1634Q255 1634 235 1637T204 1640Q148 1640 68 1560Q56 1563 56 1568L58 1587Q136 1719 206 1720Q209 1770 313 1841Q413 1908 468
1908Q533 1908 533 1853ZM781 830Q781 564 716 447Q639 307 405 222Q372 210 363 210Q354 210 353 218Q375 263 426 318Q470 364 513 409Q613 521 650 582Q713 685 713 790Q713 865 647 1048Q589 1208 539 1303Q513 1111 513 1055Q513 951 490 940Q457 946 457
1146Q457 1517 519 1703Q631 1508 703 1281Q781 1032 781 830ZM472 1853Q463 1855 458 1855Q413 1855 337 1806Q267 1761 235 1720H273Q328 1720 387 1763Q442 1802 472 1853Z" />
<glyph unicode="&#x679;" glyph-name="uniFB69" horiz-adv-x="307" arabic-form="medial" d="M449 1148Q449 1105 398 1042T307 969Q155 933 77 935H61L55 939Q61 948 141 984Q163 994 201 1040T246 1110Q256 1152 257 1251Q259 1366 305 1487Q309 1496 324 1516L329
1513L331 1508Q320 1461 308 1314Q298 1190 269 1124V1112L274 1110Q378 1183 410 1183Q449 1183 449 1148ZM481 630L430 440Q346 379 265 379Q179 379 139 452L112 431L162 616Q216 678 272 742Q275 727 275 708Q275 635 197 528Q214 517 255 517Q303 517 376
555Q441 590 481 630ZM392 1086Q392 1112 347 1112Q324 1112 268 1069Q218 1030 206 1002Q274 1015 309 1027Q375 1050 392 1086Z" />
<glyph unicode="&#x679;" glyph-name="uniFB67" horiz-adv-x="1675" arabic-form="terminal" d="M1136 1357Q1136 1314 1086 1251T994 1178Q842 1142 764 1144L749 1145L743 1149Q749 1157 829 1193Q850 1203 888 1249T933 1319Q944 1361 945 1460Q946 1575 992
1696Q996 1705 1011 1725L1016 1722L1018 1717Q1007 1671 995 1523Q985 1400 957 1333V1321L962 1319Q1066 1392 1097 1392Q1136 1392 1136 1357ZM1851 630L1800 440Q1723 386 1674 386Q1611 386 1576 438Q1545 483 1545 549Q1545 589 1553 613L1551 618Q1527 613
1358 435Q1157 223 1012 115Q782 -55 595 -55Q395 -55 274 90Q161 226 161 430Q161 514 205 615Q290 811 455 919T833 1026L1009 1025Q1214 1024 1472 1128L1473 1117Q1442 1096 1242 1019Q1135 978 994 978Q386 978 240 613Q213 545 213 475Q213 331 327 220T585
108Q853 108 1151 369L1614 800L1630 802L1634 792Q1633 767 1615 719T1596 645Q1596 606 1627 581T1699 555Q1782 555 1851 630ZM1080 1295Q1080 1321 1034 1321Q1011 1321 956 1278Q905 1239 889 1213L894 1211Q962 1224 997 1236Q1063 1259 1080 1295Z" />
<glyph unicode="&#x679;" glyph-name="uni0679" horiz-adv-x="1620" arabic-form="isolated" d="M1136 1357Q1136 1314 1086 1251T994 1178Q842 1142 764 1144L749 1145L743 1149Q749 1157 829 1193Q850 1203 888 1249T933 1319Q944 1361 945 1460Q946 1575 992
1696Q996 1705 1011 1725L1016 1722L1018 1717Q1007 1671 995 1523Q985 1400 957 1333V1321L962 1319Q1066 1392 1097 1392Q1136 1392 1136 1357ZM1842 1059Q1849 974 1806 920Q1703 839 1555 660Q1263 306 1111 171Q817 -88 555 -88Q380 -88 263 30T145 324Q145
615 347 812Q462 925 624 965Q739 993 942 993H1391L1392 982Q1367 962 1058 945Q781 930 707 916Q527 883 393 780Q218 645 218 453Q218 287 320 182T587 76Q804 76 1089 314Q1231 432 1499 724Q1620 859 1742 994Q1751 1003 1842 1059ZM1080 1295Q1080 1321 1034
1321Q1011 1321 956 1278Q905 1239 889 1213L894 1211Q962 1224 997 1236Q1063 1259 1080 1295Z" />
<glyph unicode="&#x67e;" glyph-name="uniFB59" horiz-adv-x="307" arabic-form="medial" d="M481 630L430 440Q346 379 265 379Q179 379 139 452L112 431L162 616Q216 678 272 742Q275 727 275 708Q275 635 197 528Q214 517 255 517Q303 517 376 555Q441 590
481 630ZM347 215Q347 189 309 137Q270 82 246 82Q238 82 230 102T196 123Q161 123 97 72Q44 29 11 -21Q-21 -79 -54 -138Q-56 -48 64 112Q188 276 273 276Q347 276 347 215Z" />
<glyph unicode="&#x67e;" glyph-name="uniFB57" horiz-adv-x="1675" arabic-form="terminal" d="M1851 630L1800 440Q1723 386 1674 386Q1611 386 1576 438Q1545 483 1545 549Q1545 589 1553 613L1551 618Q1527 613 1358 435Q1157 223 1012 115Q782 -55 595 -55Q395
-55 274 90Q161 226 161 430Q161 514 205 615Q290 811 455 919T833 1026L1009 1025Q1214 1024 1472 1128L1473 1117Q1442 1096 1242 1019Q1135 978 994 978Q386 978 240 613Q213 545 213 475Q213 331 327 220T585 108Q853 108 1151 369L1614 800L1630 802L1634
792Q1633 767 1615 719T1596 645Q1596 606 1627 581T1699 555Q1782 555 1851 630ZM1108 -174Q1108 -200 1070 -252Q1031 -307 1007 -307Q999 -307 991 -287T957 -266Q922 -266 858 -317Q805 -360 772 -410Q740 -468 707 -527Q705 -437 825 -277Q949 -113 1034 -113Q1108
-113 1108 -174Z" />
<glyph unicode="&#x67e;" glyph-name="uni067E" horiz-adv-x="1668" arabic-form="isolated" d="M1842 1059Q1849 974 1806 920Q1703 839 1555 660Q1263 306 1111 171Q817 -88 555 -88Q380 -88 263 30T145 324Q145 615 347 812Q462 925 624 965Q739 993 942 993H1391L1392
982Q1367 962 1058 945Q781 930 707 916Q527 883 393 780Q218 645 218 453Q218 287 320 182T587 76Q804 76 1089 314Q1231 432 1499 724Q1620 859 1742 994Q1751 1003 1842 1059ZM1108 -174Q1108 -200 1070 -252Q1031 -307 1007 -307Q999 -307 991 -287T957 -266Q922
-266 858 -317Q805 -360 772 -410Q740 -468 707 -527Q705 -437 825 -277Q949 -113 1034 -113Q1108 -113 1108 -174Z" />
<glyph unicode="&#x686;" glyph-name="uniFB7D" horiz-adv-x="844" arabic-form="medial" d="M1018 628L967 437Q844 361 722 361Q616 361 550 439Q488 513 488 620Q488 671 506 751Q373 650 221 518Q191 360 195 252L186 235L181 232L176 237V362L184 486Q160
467 112 431L163 619L200 654Q248 877 290 955Q372 1107 540 1107Q584 1107 669 1082T800 1056Q871 1056 932 1084Q914 988 868 923Q666 882 559 787Q552 747 552 706Q552 629 609 582Q662 538 740 538Q903 538 1018 628ZM664 215Q664 189 626 137Q587 82 563 82Q555
82 547 102T513 123Q478 123 414 72Q361 29 328 -21Q296 -79 263 -138Q261 -48 381 112Q505 276 590 276Q664 276 664 215ZM581 923Q497 943 465 943Q282 943 242 687Q360 784 404 816Q498 885 581 923Z" />
<glyph unicode="&#x686;" glyph-name="uniFB7B" horiz-adv-x="743" arabic-form="terminal" d="M922 631L871 441Q826 405 602 321Q408 249 347 160Q393 171 488 226T622 288L628 283Q628 224 607 157Q552 -20 462 -124Q419 -174 260 -293Q87 -422 19 -490Q-98
-607 -98 -700Q-98 -794 66 -852Q194 -898 313 -898H532Q683 -898 729 -890L733 -898Q677 -961 323 -961Q270 -961 200 -951Q31 -927 -40 -889Q-158 -826 -158 -688Q-158 -604 -80 -472Q8 -323 220 -165Q436 -4 484 73L479 75Q401 26 172 -102Q163 -104 163 -91Q163
-65 253 123Q346 318 438 386Q483 419 731 526Q863 583 922 631ZM689 -395Q689 -421 651 -473Q612 -528 588 -528Q580 -528 572 -508T538 -487Q503 -487 439 -538Q386 -581 353 -631Q321 -689 288 -748Q286 -658 406 -498Q530 -334 615 -334Q689 -334 689 -395Z"
/>
<glyph unicode="&#x686;" glyph-name="uni0686" horiz-adv-x="900" arabic-form="isolated" d="M1273 1597Q1273 1575 1236 1475T1182 1350Q1093 1224 919 1090Q768 979 618 868Q453 736 337 588Q185 393 185 244Q185 152 278 61Q355 -14 453 -55T723 -121Q874
-144 996 -144Q1060 -144 1152 -127L1157 -130L1150 -138Q1075 -174 856 -174Q605 -174 423 -90Q275 -22 212 52Q132 145 132 295Q132 448 280 666Q407 852 554 972Q606 1014 757 1131Q756 1148 743 1181T730 1232Q730 1302 817 1449Q835 1480 1012 1562T1237 1644Q1273
1617 1273 1597ZM1012 621Q1012 595 974 543Q935 488 911 488Q903 488 895 508T861 529Q826 529 762 478Q709 435 676 385Q644 327 611 268Q609 358 729 518Q853 682 938 682Q1012 682 1012 621ZM1182 1479Q1095 1464 985 1423Q859 1375 809 1327Q836 1264 836
1241Q836 1203 819 1173Q984 1283 1016 1308Q1124 1391 1182 1479Z" />
<glyph unicode="&#x688;" glyph-name="uniFB89" horiz-adv-x="908" arabic-form="terminal" d="M883 1160Q883 1117 832 1054T741 981Q589 945 511 947H495L489 951Q495 960 575 996Q597 1006 635 1052T680 1122Q690 1164 691 1263Q693 1378 739 1499Q743 1508
758 1528L763 1525L765 1520Q754 1473 742 1326Q732 1202 703 1136V1124L708 1122Q812 1195 844 1195Q883 1195 883 1160ZM1087 631L1036 441Q990 408 921 376Q840 338 799 338Q689 338 689 505Q689 530 695 570H687Q681 570 659 543T572 396Q421 115 291 51Q215
14 158 4Q115 -4 16 -4Q-24 -4 -97 4Q-184 14 -199 26L-196 32L-182 40Q-31 40 64 71T280 192Q410 288 464 367Q533 479 602 592Q704 750 760 775L770 766L772 756Q769 746 763 714Q753 663 753 610Q753 503 842 503Q933 503 1087 631ZM826 1098Q826 1124 781 1124Q758
1124 702 1081Q652 1042 640 1014Q708 1027 743 1039Q809 1062 826 1098Z" />
<glyph unicode="&#x688;" glyph-name="uni0688" horiz-adv-x="852" arabic-form="isolated" d="M830 1460Q830 1418 780 1355T689 1281Q536 1245 458 1247L443 1248L437 1252Q443 1260 523 1297Q544 1306 582 1352T627 1423Q638 1464 639 1563Q640 1678 687 1799Q690
1809 705 1829L711 1825L713 1821Q701 1774 689 1626Q679 1503 651 1436V1424L656 1422Q760 1495 791 1495Q830 1495 830 1460ZM994 916Q994 713 855 457Q714 196 498 82Q440 51 264 30Q117 12 14 12Q-43 12 -58 17L-62 24Q-40 28 12 33Q150 46 300 116Q588 251
792 528Q919 700 919 771Q919 820 876 865T784 910Q726 910 593 850Q447 784 447 734Q447 729 481 695Q521 655 543 605Q577 528 577 420Q577 390 562 341Q544 282 522 282L513 290L520 349Q520 389 437 494T353 661Q353 683 385 769Q415 851 433 881Q466 937 627
1014Q785 1089 860 1089Q918 1089 958 1029Q994 976 994 916ZM774 1398Q774 1424 729 1424Q706 1424 650 1381Q599 1342 583 1316L588 1315Q656 1327 691 1340Q757 1363 774 1398Z" />
<glyph unicode="&#x691;" glyph-name="uniFB8D" horiz-adv-x="636" arabic-form="terminal" d="M778 1075Q778 1032 727 969T636 896Q484 860 406 862H390L384 866Q390 875 470 911Q492 921 530 967T575 1037Q585 1079 586 1178Q588 1293 634 1414Q638 1423 653
1443L658 1440L660 1435Q649 1388 637 1241Q627 1117 598 1051V1039L603 1037Q707 1110 739 1110Q778 1110 778 1075ZM811 630L759 437Q635 365 586 332Q469 254 443 203Q363 30 283 -142Q167 -362 41 -404Q-55 -436 -170 -436Q-401 -436 -467 -398L-470 -393L-462
-384Q-402 -396 -331 -396Q-147 -396 17 -278Q162 -172 262 2Q269 15 357 190Q414 304 467 368T637 505Q766 585 811 630ZM721 1013Q721 1039 676 1039Q653 1039 597 996Q547 957 535 929Q603 942 638 954Q704 977 721 1013Z" />
<glyph unicode="&#x691;" glyph-name="uni0691" horiz-adv-x="780" arabic-form="isolated" d="M922 1482Q922 1439 871 1376T780 1303Q628 1267 550 1269H534L528 1273Q534 1282 614 1318Q636 1328 674 1374T719 1444Q729 1486 730 1585Q732 1700 778 1821Q782
1830 797 1850L802 1847L804 1842Q793 1795 781 1648Q771 1524 742 1458V1446L747 1444Q851 1517 883 1517Q922 1517 922 1482ZM934 958Q934 850 901 844L874 877Q846 876 828 844Q791 778 666 474Q578 260 478 168Q338 41 91 41Q-158 41 -166 66L-156 73Q271 73
534 427Q592 505 648 629Q695 736 741 843Q828 1036 878 1036Q902 1036 919 1008Q934 984 934 958ZM865 1420Q865 1446 820 1446Q797 1446 741 1403Q691 1364 679 1336Q747 1349 782 1361Q848 1384 865 1420Z" />
<glyph unicode="&#x698;" glyph-name="uniFB8B" horiz-adv-x="636" arabic-form="terminal" d="M866 1033Q817 900 764 900L748 929Q734 941 716 941Q611 941 464 680Q465 773 585 931Q709 1095 797 1095Q867 1095 866 1033ZM811 630L759 437Q635 365 586 332Q469
254 443 203Q363 30 283 -142Q167 -362 41 -404Q-55 -436 -170 -436Q-401 -436 -467 -398L-470 -393L-462 -384Q-402 -396 -331 -396Q-147 -396 17 -278Q162 -172 262 2Q269 15 357 190Q414 304 467 368T637 505Q766 585 811 630Z" />
<glyph unicode="&#x698;" glyph-name="uni0698" horiz-adv-x="780" arabic-form="isolated" d="M938 1547Q889 1414 836 1414L820 1443Q806 1455 788 1455Q683 1455 536 1194Q537 1287 657 1445Q781 1609 869 1609Q939 1609 938 1547ZM934 958Q934 850 901 844L874
877Q846 876 828 844Q791 778 666 474Q578 260 478 168Q338 41 91 41Q-158 41 -166 66L-156 73Q271 73 534 427Q592 505 648 629Q695 736 741 843Q828 1036 878 1036Q902 1036 919 1008Q934 984 934 958Z" />
<glyph unicode="&#x6a9;" glyph-name="uniFB91" horiz-adv-x="537" arabic-form="medial" d="M970 2150Q733 1687 725 1514L707 1502Q697 1546 699 1623Q615 1515 476 1404Q317 1275 211 1253L199 1257Q305 1323 506 1478Q635 1599 754 1793Q803 1874 948 2147L961
2155L970 2150ZM714 630L663 440Q569 374 463 374Q353 374 323 485Q312 525 308 685Q233 517 110 429L160 616Q257 697 283 745Q315 802 315 916Q315 958 310 1041T305 1166Q305 1186 326 1243T360 1314L369 1310Q380 1196 381 1005Q383 778 387 700Q391 619 411
591Q439 551 516 551Q622 551 714 630Z" />
<glyph unicode="&#x6a9;" glyph-name="uniFB8F" horiz-adv-x="1808" arabic-form="terminal" d="M2391 2294Q2266 2135 2266 1918Q2266 1812 2288 1715L2272 1688Q2212 1830 2212 1935Q2212 1992 2227 2049Q2045 1748 1934 1596Q1741 1332 1565 1213Q1465 1145
1375 1096Q1405 1016 1405 1005Q1405 999 1397 996L1392 997L1356 1086Q1173 1010 1062 1010L1057 1014L1064 1026Q1210 1079 1319 1141Q1185 1348 1039 1348Q819 1348 642 1236T366 924Q279 748 279 601Q279 292 632 292Q841 292 1106 484Q1301 627 1491 844Q1676
1056 1780 1056Q1807 1056 1807 997Q1807 988 1778 815Q1773 785 1773 700Q1773 553 1839 553Q1871 553 1918 579Q1962 603 1984 630L1933 440Q1841 380 1791 380Q1736 380 1709 448Q1689 498 1689 563Q1689 614 1715 712T1742 861Q1742 885 1717 885Q1649 885
1456 684Q1188 404 1068 310Q813 109 591 109Q411 109 306 228Q206 342 206 525Q206 713 283 873Q378 1070 574 1221Q786 1384 989 1384Q1113 1384 1198 1321Q1263 1272 1342 1153Q1585 1290 1769 1483Q1924 1645 2096 1913Q2159 2015 2223 2117Q2308 2246 2374
2294L2386 2295L2391 2294Z" />
<glyph unicode="&#x6a9;" glyph-name="uni06A9" horiz-adv-x="1092" arabic-form="isolated" d="M1683 2263Q1623 2154 1535 1990Q1468 1855 1399 1680L1378 1657H1373Q1433 1884 1490 1992Q1295 1832 1160 1753Q1015 1670 786 1589Q685 1553 627 1553L620 1560L625
1566Q875 1651 1023 1733Q1183 1821 1374 1985Q1450 2050 1526 2116Q1614 2196 1660 2264L1673 2270L1683 2263ZM1433 1328Q1425 1287 1352 1197Q1264 1090 1196 1038Q1143 999 1004 927Q1004 607 882 307Q811 131 702 20Q565 -117 399 -117Q196 -117 196 155Q196
344 311 519Q424 690 661 818Q687 1010 712 1201Q745 1421 785 1581Q823 1567 889 1426Q1004 1181 1002 983Q1132 1038 1233 1130Q1278 1171 1419 1331Q1423 1335 1431 1335L1433 1328ZM930 951Q930 1118 788 1312Q747 1217 707 841Q781 877 930 951ZM942 807Q941
877 941 894Q857 856 691 773Q670 597 646 505Q643 494 631 495L622 503Q639 609 654 757Q445 648 348 495Q247 337 247 222Q247 146 312 97Q371 53 450 53Q550 53 660 142Q767 228 831 355Q946 586 942 807Z" />
<glyph unicode="&#x6af;" glyph-name="uniFB95" horiz-adv-x="537" arabic-form="medial" d="M970 2150Q733 1687 725 1514L707 1502Q697 1546 699 1623Q615 1515 476 1404Q317 1275 211 1253L199 1257Q305 1323 506 1478Q635 1599 754 1793Q803 1874 948 2147L961
2155L970 2150ZM714 630L663 440Q569 374 463 374Q353 374 323 485Q312 525 308 685Q233 517 110 429L160 616Q257 697 283 745Q315 802 315 916Q315 958 310 1041T305 1166Q305 1186 326 1243T360 1314L369 1310Q380 1196 381 1005Q383 778 387 700Q391 619 411
591Q439 551 516 551Q622 551 714 630ZM867 2139Q552 1546 191 1471L184 1478L189 1484Q359 1570 503 1710Q608 1811 712 1954L844 2144L857 2150L867 2139Z" />
<glyph unicode="&#x6af;" glyph-name="uniFB93" horiz-adv-x="1808" arabic-form="terminal" d="M2391 2294Q2266 2135 2266 1918Q2266 1812 2288 1715L2272 1688Q2212 1830 2212 1935Q2212 1992 2227 2049Q2045 1748 1934 1596Q1741 1332 1565 1213Q1465 1145
1375 1096Q1405 1016 1405 1005Q1405 999 1397 996L1392 997L1356 1086Q1173 1010 1062 1010L1057 1014L1064 1026Q1210 1079 1319 1141Q1185 1348 1039 1348Q819 1348 642 1236T366 924Q279 748 279 601Q279 292 632 292Q841 292 1106 484Q1301 627 1491 844Q1676
1056 1780 1056Q1807 1056 1807 997Q1807 988 1778 815Q1773 785 1773 700Q1773 553 1839 553Q1872 553 1917 578T1984 630L1933 440Q1841 380 1791 380Q1736 380 1709 448Q1689 498 1689 563Q1689 614 1715 712T1742 861Q1742 885 1717 885Q1649 885 1456 684Q1188
404 1068 310Q813 109 591 109Q411 109 306 228Q206 342 206 525Q206 713 283 873Q378 1070 574 1221Q786 1384 989 1384Q1113 1384 1198 1321Q1263 1272 1342 1153Q1585 1290 1769 1483Q1924 1645 2096 1913Q2159 2015 2223 2117Q2308 2246 2374 2294L2386 2295L2391
2294ZM2212 2370Q2083 2113 1770 1815Q1409 1471 1170 1471L1163 1478L1168 1484Q1407 1565 1723 1856Q2003 2115 2179 2375L2192 2381L2212 2370Z" />
<glyph unicode="&#x6af;" glyph-name="uni06AF" horiz-adv-x="1092" arabic-form="isolated" d="M1556 2396Q1444 2173 1102 1938Q743 1690 490 1690L483 1697L488 1703Q738 1788 886 1870Q1046 1958 1237 2122Q1313 2187 1389 2253Q1477 2333 1523 2401L1536
2407L1556 2396ZM1683 2263Q1623 2154 1535 1990Q1468 1855 1399 1680L1378 1657H1373Q1433 1884 1490 1992Q1295 1832 1160 1753Q1015 1670 786 1589Q685 1553 627 1553L620 1560L625 1566Q875 1651 1023 1733Q1183 1821 1374 1985Q1450 2050 1526 2116Q1614 2196
1660 2264L1673 2270L1683 2263ZM1433 1328Q1425 1287 1352 1197Q1264 1090 1196 1038Q1143 999 1004 927Q1004 607 882 307Q811 131 702 20Q565 -117 399 -117Q196 -117 196 155Q196 344 311 519Q424 690 661 818Q687 1010 712 1201Q745 1421 785 1581Q823 1567
889 1426Q1004 1181 1002 983Q1132 1038 1233 1130Q1278 1171 1419 1331Q1423 1335 1431 1335L1433 1328ZM930 951Q930 1118 788 1312Q747 1217 707 841Q781 877 930 951ZM942 807Q941 877 941 894Q857 856 691 773Q670 597 646 505Q643 494 631 495L622 503Q639
609 654 757Q445 648 348 495Q247 337 247 222Q247 146 312 97Q371 53 450 53Q550 53 660 142Q767 228 831 355Q946 586 942 807Z" />
<glyph unicode="&#x6ba;" glyph-name="uniFEE8" horiz-adv-x="307" arabic-form="medial" d="M336 1168Q281 1059 242 1033L153 1095Q170 1128 245 1237Q272 1225 299 1212Q328 1195 336 1168ZM481 630L430 440Q346 379 265 379Q179 379 139 452L112 431L162 616Q216
678 272 742Q275 727 275 708Q275 635 197 528Q214 517 255 517Q303 517 376 555Q441 590 481 630Z" />
<glyph unicode="&#x6ba;" glyph-name="uniFB9F" horiz-adv-x="898" arabic-form="terminal" d="M1076 631L1025 441Q924 365 861 370L842 282Q807 120 679 -43Q533 -229 388 -229Q205 -229 205 -8Q205 120 302 336Q173 331 97 205L91 203L85 209Q85 309 169 411Q257
519 354 519Q398 519 398 480Q398 442 343 314T287 120Q287 45 331 0T451 -46Q542 -46 649 56Q750 152 774 245Q791 311 791 365Q791 429 742 478Q740 544 820 660Q850 647 894 532Q965 532 1076 631Z" />
<glyph unicode="&#x6ba;" glyph-name="uni06BA" horiz-adv-x="672" arabic-form="isolated" d="M898 1469Q898 1445 874 1396Q829 1301 592 1054Q206 650 206 382Q206 322 252 282Q295 243 356 243Q444 243 573 362T702 569Q702 647 591 647Q517 647 458 560L419
568Q478 704 503 740Q567 836 656 836Q714 836 747 782Q775 737 775 675Q775 592 731 502Q627 289 575 224Q458 78 292 78Q147 78 147 304Q147 526 282 738Q362 865 565 1078Q661 1179 758 1280Q804 1332 849 1410Q858 1428 879 1469L889 1475L898 1469Z" />
<glyph unicode="&#x6be;" glyph-name="uniFBAD" horiz-adv-x="574" arabic-form="medial" d="M756 625L706 436Q575 379 484 379Q430 379 422 519Q419 573 408 679Q401 729 392 729Q373 627 112 431L163 619Q212 658 249 701Q234 722 234 753Q234 836 290 957Q354
1095 424 1095Q447 1095 468 1054Q488 1017 488 988L487 978L462 884Q504 911 536 958Q573 1010 573 1054Q573 1121 541 1175Q504 1240 442 1240Q371 1240 295 1145Q236 1071 215 991L185 819L178 818Q175 844 175 883Q175 1055 258 1218Q358 1414 512 1414Q648
1414 648 1188Q648 1016 545 874Q526 852 490 807Q487 803 487 775Q487 600 505 562Q547 562 635 583T756 625ZM415 856Q415 881 398 905T357 929Q339 929 323 908T306 868Q306 821 350 821Q383 821 415 856Z" />
<glyph unicode="&#x6be;" glyph-name="uniFBAB" horiz-adv-x="514" arabic-form="terminal" d="M696 625L646 436L524 362Q450 321 392 309Q379 240 269 179Q169 123 91 123Q196 178 249 281Q234 302 234 333Q234 416 290 537Q354 675 424 675Q447 675 468 634Q488
597 488 568L487 558L462 466Q573 538 573 634Q573 698 540 755Q502 820 442 820Q370 820 294 725Q227 640 212 561L185 399L178 398Q175 424 175 463Q175 635 258 798Q358 994 512 994Q648 994 648 768Q648 639 590 527Q625 561 696 625ZM415 436Q415 461 398
485T357 509Q339 509 323 488T306 448Q306 401 350 401Q383 401 415 436Z" />
<glyph unicode="&#x6be;" glyph-name="uni06BE" horiz-adv-x="514" arabic-form="isolated" d="M648 1188Q648 975 490 807Q429 742 392 729Q383 683 297 618Q195 543 91 543Q196 598 249 701Q234 722 234 753Q234 835 291 957Q355 1095 424 1095Q452 1095 471
1049Q487 1011 487 978L462 884Q502 910 536 958Q573 1011 573 1054Q573 1118 540 1174Q502 1240 442 1240Q371 1240 295 1145Q228 1060 212 981Q204 927 185 819L178 818Q175 844 175 883Q175 1054 259 1218Q359 1414 512 1414Q648 1414 648 1188ZM415 856Q415
880 398 904T357 929Q340 929 323 908T306 868Q306 821 350 821Q383 821 415 856Z" />
<glyph unicode="&#x6c0;" glyph-name="uniFBA5" horiz-adv-x="625" arabic-form="terminal" d="M703 1261Q700 1246 682 1211T653 1168Q644 1172 633 1172Q603 1172 603 1147Q603 1133 653 1133Q689 1133 689 1103Q689 1029 572 973Q472 926 388 926Q375 926 375
938L497 980Q586 1013 602 1035Q599 1041 568 1040Q529 1039 529 1078Q529 1121 584 1194T681 1268Q688 1268 703 1261ZM804 625L754 436Q701 413 637 413Q583 413 527 465T444 518Q400 518 314 449Q256 397 198 346Q212 433 241 505Q262 557 364 638T520 719Q555
719 594 656T692 592Q748 592 804 625Z" />
<glyph unicode="&#x6c0;" glyph-name="uni06C0" horiz-adv-x="372" arabic-form="isolated" d="M662 1421Q659 1406 641 1371T612 1328Q603 1332 592 1332Q562 1332 562 1307Q562 1293 612 1293Q648 1293 648 1263Q648 1189 531 1133Q431 1086 347 1086Q334 1086
334 1098L456 1140Q545 1173 561 1195Q558 1201 527 1200Q488 1199 488 1238Q488 1281 543 1354T640 1428Q647 1428 662 1421ZM510 768Q510 660 425 526Q332 380 231 380Q148 380 148 432Q148 529 249 699Q358 881 445 881Q510 881 510 768ZM421 645Q421 703 370
703Q284 703 242 570Q261 555 302 555Q355 555 417 621L421 645Z" />
<glyph unicode="&#x6c1;" glyph-name="uniFBA9" horiz-adv-x="391" arabic-form="medial" d="M568 630L517 440Q492 423 427 386Q313 320 245 209Q175 95 175 -34Q158 -66 125 -106Q60 -11 60 142Q60 262 162 616Q214 677 272 742Q275 726 275 708Q275 655 238
582Q205 515 163 473Q125 310 125 244Q125 176 144 154Q168 244 239 353Q303 451 388 512L568 630ZM342 -344Q342 -416 270 -416Q212 -416 180 -358Q153 -311 153 -248Q153 -108 275 -16L292 -39Q200 -138 200 -216Q200 -266 219 -287Q254 -270 271 -270Q301 -270
321 -292T342 -344Z" />
<glyph unicode="&#x6c1;" glyph-name="uniFBA7" horiz-adv-x="625" arabic-form="terminal" d="M804 625L754 436Q701 413 637 413Q583 413 527 465T444 518Q400 518 314 449Q256 397 198 346Q212 433 241 505Q262 557 364 638T520 719Q555 719 594 656T692 592Q748
592 804 625Z" />
<glyph unicode="&#x6c1;" glyph-name="uni06C1" horiz-adv-x="625" arabic-form="isolated" d="M804 625L754 436Q701 413 637 413Q583 413 527 465T444 518Q400 518 314 449Q256 397 198 346Q212 433 241 505Q262 557 364 638T520 719Q555 719 594 656T692 592Q748
592 804 625Z" />
<glyph unicode="&#x6c2;" glyph-name="uni06C2.Fina" horiz-adv-x="625" arabic-form="terminal" d="M703 1261Q700 1246 682 1211T653 1168Q644 1172 633 1172Q603 1172 603 1147Q603 1133 653 1133Q689 1133 689 1103Q689 1029 572 973Q472 926 388 926Q375
926 375 938L497 980Q586 1013 602 1035Q599 1041 568 1040Q529 1039 529 1078Q529 1121 584 1194T681 1268Q688 1268 703 1261ZM804 625L754 436Q701 413 637 413Q583 413 527 465T444 518Q400 518 314 449Q256 397 198 346Q212 433 241 505Q262 557 364 638T520
719Q555 719 594 656T692 592Q748 592 804 625Z" />
<glyph unicode="&#x6c2;" glyph-name="uni06C2" horiz-adv-x="625" arabic-form="isolated" d="M703 1261Q700 1246 682 1211T653 1168Q644 1172 633 1172Q603 1172 603 1147Q603 1133 653 1133Q689 1133 689 1103Q689 1029 572 973Q472 926 388 926Q375 926 375
938L497 980Q586 1013 602 1035Q599 1041 568 1040Q529 1039 529 1078Q529 1121 584 1194T681 1268Q688 1268 703 1261ZM804 625L754 436Q701 413 637 413Q583 413 527 465T444 518Q400 518 314 449Q256 397 198 346Q212 433 241 505Q262 557 364 638T520 719Q555
719 594 656T692 592Q748 592 804 625Z" />
<glyph unicode="&#x6c3;" glyph-name="uni06C3.Fina" horiz-adv-x="625" arabic-form="terminal" d="M632 1094Q607 1038 568 968Q553 951 509 934T442 917Q433 917 415 921T388 926Q369 926 342 903Q356 945 433 1064H441Q504 1063 632 1094ZM804 625L754 436Q701
413 637 413Q583 413 527 465T444 518Q400 518 314 449Q256 397 198 346Q212 433 241 505Q262 557 364 638T520 719Q555 719 594 656T692 592Q748 592 804 625Z" />
<glyph unicode="&#x6c3;" glyph-name="uni06C3" horiz-adv-x="625" arabic-form="isolated" d="M632 1094Q607 1038 568 968Q553 951 509 934T442 917Q433 917 415 921T388 926Q369 926 342 903Q356 945 433 1064H441Q504 1063 632 1094ZM804 625L754 436Q701
413 637 413Q583 413 527 465T444 518Q400 518 314 449Q256 397 198 346Q212 433 241 505Q262 557 364 638T520 719Q555 719 594 656T692 592Q748 592 804 625Z" />
<glyph unicode="&#x6cc;" glyph-name="uniFBFF" horiz-adv-x="307" arabic-form="medial" d="M481 630L430 440Q346 379 265 379Q179 379 139 452L112 431L162 616Q216 678 272 742Q275 727 275 708Q275 635 197 528Q214 517 255 517Q303 517 376 555Q441 590
481 630ZM313 290Q287 177 250 140Q234 124 111 54Q82 37 23 6Q22 37 87 169Q105 180 163 205Q194 218 313 290Z" />
<glyph unicode="&#x6cc;" glyph-name="uniFBFD" horiz-adv-x="736" arabic-form="terminal" d="M932 630L880 439Q796 387 712 334Q559 232 559 199Q559 138 682 92Q768 61 768 6Q768 -203 593 -444Q406 -702 206 -702Q-24 -702 -24 -406Q-24 -239 44 -80Q92 33
204 195Q357 418 389 472Q448 572 518 806L534 799Q523 670 422 452Q382 366 270 207Q148 36 106 -45Q29 -191 29 -317Q29 -423 98 -482Q163 -537 271 -537Q370 -537 541 -374T713 -122Q713 -98 659 -81Q584 -58 560 -41Q506 -4 506 71Q506 324 621 416Q726 488
932 630Z" />
<glyph unicode="&#x6cc;" glyph-name="uni06CC" horiz-adv-x="900" arabic-form="isolated" d="M1145 1660Q1030 1431 883 1300Q769 1201 655 1101Q510 972 422 870Q298 724 251 562Q216 440 216 259Q216 36 439 36Q524 36 654 131T784 295Q784 323 714 332Q614
343 583 357Q513 388 513 471Q513 643 641 842Q683 909 752 978Q840 1067 891 1067Q969 1067 1012 1012Q1007 978 979 922Q947 860 924 851L915 864Q915 906 860 906Q787 906 690 802T593 625Q593 574 647 551Q676 539 759 526Q831 516 851 499Q880 475 880 410Q880
230 710 43Q536 -148 358 -148Q123 -148 123 201Q123 560 391 898Q478 1008 628 1139L886 1359Q998 1458 1131 1666L1143 1673L1145 1660Z" />
<glyph unicode="&#x6d2;" glyph-name="uniFBAF" horiz-adv-x="835" arabic-form="terminal" d="M1376 125Q1263 -3 1121 -52Q1013 -89 848 -89Q652 -89 543 -63Q378 -24 284 89Q224 162 224 207Q224 278 305 368T506 519Q717 625 934 625H1001L950 434H890Q667
432 534 383Q442 349 373 285Q312 229 312 194Q312 142 453 129Q504 125 704 125H1376Z" />
</font>
</defs>
</svg>
